<?xml version="1.0" encoding="UTF-8"?>
<svg id="Layer_1" data-name="Layer 1" xmlns="http://www.w3.org/2000/svg" viewBox="0 0 466.37 485.37">
  <defs>
    <style>
      .cls-1 {
        fill: none;
        stroke: #988ec5;
        stroke-linecap: round;
        stroke-linejoin: round;
        stroke-width: 3px;
      }
    </style>
  </defs>
  <path class="cls-1" d="M358.11,253.14c-20.35-1.56-42.39,5.16-60.91,12.95-13.78,5.8-28.93,13.21-38.02,25.55-4.97,6.75-8.01,16.8-4.34,24.82,4.41,9.62,16.25,8.54,24.54,4.91,18-7.88,28.31-28.16,28.91-47.8.32-10.5-1.81-21.23-7.2-30.25-5.39-9.02-14.24-16.17-24.5-18.42-14.08-3.08-28.49,3.11-40.83,10.54-13.35,8.04-26.41,17.85-37.2,29.15-6.62,6.92-13.85,22.9-4.85,30.85,7.5,6.62,20.91.89,27.75-4.08,14.74-10.71,24.52-28.93,30.11-45.91,6.08-18.51,7.05-41.93-9.21-55.66-11.22-9.48-27.59-10.79-41.78-7.01-19.81,5.28-75.59,32.54-63.54,60.9,5.69,13.39,26.47,14.2,36.82,3.97,21.5-21.24,8.71-60.9-17.53-71.31-21.65-8.58-49.12,2.83-58.3,24.23"/>
</svg>