<?xml version="1.0" encoding="UTF-8"?>
<svg id="Layer_1" data-name="Layer 1" xmlns="http://www.w3.org/2000/svg" viewBox="0 0 466.37 485.37">
  <defs>
    <style>
      .cls-1 {
        fill: #7ab4d2;
      }

      .cls-2 {
        fill: #fcec60;
      }

      .cls-3 {
        fill: #f8f9e8;
      }

      .cls-4 {
        fill: #101010;
      }

      .cls-5 {
        fill: #9f8fea;
      }
    </style>
  </defs>
  <g>
    <path class="cls-4" d="M277.87,334.88c0,2.73-1.24,5.16-3.19,6.77-1.52,1.25-3.46,2-5.58,2-4.85,0-8.77-3.92-8.77-8.77,0-1.65.46-3.2,1.25-4.51.01-.01.01-.02.02-.03,1.53-2.54,4.32-4.23,7.5-4.23,4.84,0,8.77,3.93,8.77,8.77Z"/>
    <circle class="cls-4" cx="270.75" cy="299.21" r="8.77"/>
    <path class="cls-1" d="M270.6,98.39c.4,2.29-.08,4.62-.55,6.9-3.35,15.98-6.7,31.96-10.05,47.95-.07.33-.13.66-.19,1-9.67-2.17-19.64-3.04-29.24-2.74.18-.82.36-1.64.52-2.44l7.23-35.88c.84-4.18,1.76-8.53,4.44-11.85,1.01-1.25,2.27-2.25,3.67-2.99.21.14.43.27.64.39,2.94,1.67,6.26,2.66,9.63,2.91,2.58.19,3.23-3.51.76-4.27-3.61-1.12-7.72-.8-11.03.97-1.76-1.15-3.29-2.9-2.32-5.14.75-1.7,2.56-2.69,4.41-2.61,4.81.2,9.79.13,14.45,1.49,3.56,1.04,6.92,2.19,7.63,6.31Z"/>
    <path class="cls-4" d="M259.44,319.3c3.34,2.72,4.17,7.39,2.16,11.04-.01.01-.01.02-.02.03-.24.44-.53.86-.86,1.27-2.06,2.54-5.25,3.63-8.27,3.13-1.44-.25-2.84-.85-4.06-1.84-3.76-3.06-4.34-8.58-1.29-12.34.49-.61,1.05-1.13,1.66-1.57,3.14-2.28,7.53-2.28,10.68.28Z"/>
    <path class="cls-1" d="M259.81,154.24c-.86,4.51-1.18,9.19-2.47,13.6-.06.21-.12.41-.18.62-9.12-2.83-19.61-3.53-29.55-2.56.74-4.82,1.95-9.74,2.96-14.4,9.6-.3,19.57.57,29.24,2.74Z"/>
    <path class="cls-4" d="M256.57,336.84c3.76,3.05,4.34,8.58,1.29,12.34-1.08,1.34-2.48,2.27-3.99,2.78-2.76.93-5.92.47-8.35-1.5-3.35-2.72-4.17-7.41-2.14-11.05.24-.44.53-.87.86-1.28,2.04-2.52,5.19-3.61,8.18-3.14,1.47.23,2.91.84,4.15,1.85Z"/>
    <path class="cls-3" d="M253.61,227.89c10.07-.64,20.22-1.76,30.06-3.85,7.34-1.56,16.79-4.29,21.93-10.47l.04.03c-.34,3.65-.68,7.29-1.02,10.93l-.79-.07c-9.57,13.65-37.82,3.71-50.14,4.63l-.08-1.2Z"/>
    <path class="cls-1" d="M257.16,168.46c-1.08,3.73-1.95,6.97-3.63,9.43-1.71,2.51-4.26,4.22-8.73,4.84-5.87.81-14.57-.47-17.31-6.6-.38-.85-.54-1.79-.53-2.72.01-2.44.26-4.96.65-7.51,9.94-.97,20.43-.27,29.55,2.56Z"/>
    <path class="cls-4" d="M244.02,302.47c4.84,0,8.77,3.93,8.77,8.77,0,3.18-1.69,5.97-4.23,7.5-1.32.81-2.88,1.27-4.54,1.27-3.48,0-6.49-2.03-7.91-4.96-.55-1.15-.86-2.44-.86-3.81,0-4.84,3.93-8.77,8.77-8.77Z"/>
    <path class="cls-3" d="M248.84,228.16c1.59-.08,3.18-.17,4.77-.27l.08,1.2c-.19.01-.37.03-.55.05-21.26,2.27-28.32,9.9-48.98,4.43-7.34-1.94-14.2-5.36-21.4-7.76-2.16-.72-4.17-1.4-6.12-1.94l.66-2.56c23.3,5.98,47.55,8.05,71.54,6.85Z"/>
    <path class="cls-4" d="M240.77,328.07c3.36,2.72,4.18,7.41,2.15,11.07-.24.44-.53.87-.86,1.27-3.05,3.76-8.57,4.34-12.34,1.28-3.76-3.05-4.33-8.57-1.28-12.33.59-.73,1.28-1.35,2.03-1.83.01-.01.03-.02.05-.03.09-.05.18-.11.27-.17,3.07-1.81,7.06-1.63,9.98.74Z"/>
    <path class="cls-4" d="M233.45,315.44c1.87,3.08,1.72,7.14-.69,10.1-.58.71-1.24,1.31-1.97,1.79-.09.05-.18.11-.27.17-.02,0-.04.02-.05.03-3.07,1.85-7.1,1.68-10.04-.71-.67-.54-1.24-1.16-1.7-1.83-2.15-3.13-2.1-7.41.41-10.5,3.06-3.76,8.58-4.34,12.34-1.29.8.65,1.46,1.41,1.97,2.24Z"/>
    <path class="cls-2" d="M290.86,166.93c-9.3-6.04-19.98-10.21-31.05-12.69-.86,4.51-1.18,9.19-2.47,13.6-.06.21-.12.41-.18.62-1.08,3.73-1.95,6.97-3.63,9.43-1.71,2.51-4.26,4.22-8.73,4.84-5.87.81-14.57-.47-17.31-6.6-.38-.85-.54-1.79-.53-2.72.01-2.44.26-4.96.65-7.51.74-4.82,1.95-9.74,2.96-14.4-.39,0-.78.02-1.17.03-11.83.48-23.71,1.68-35.19,4.7-10.1,2.65-24,6.29-27.23,17.8-1.2,4.27-.32,7.6,1.72,10.2l-.45.36c-3.86.32-7.32,2.02-9.92,4.6-7.1,7.07-5.54,18.49,1.84,24.68.28.23.56.46.84.67,4.28,3.26,9.57,5,14.8,6.39.5.13.99.26,1.49.38,23.3,5.98,47.55,8.05,71.54,6.85,1.59-.08,3.18-.17,4.77-.27,10.07-.64,20.22-1.76,30.06-3.85,7.34-1.56,16.79-4.29,21.93-10.47.87-1.04,1.62-2.18,2.21-3.43,8.36-17.63-2.1-33.55-16.95-43.21Z"/>
    <circle class="cls-4" cx="218.34" cy="346.32" r="8.77"/>
    <path class="cls-4" d="M217.11,325.37c.44,1.05.69,2.2.69,3.41,0,4.85-3.93,8.77-8.77,8.77s-8.77-3.92-8.77-8.77c0-.61.06-1.2.18-1.77.82-3.99,4.36-7,8.59-7,3.63,0,6.75,2.21,8.08,5.36Z"/>
    <circle class="cls-4" cx="198.53" cy="294.29" r="8.77"/>
    <path class="cls-4" d="M198.53,324.52c0,.76-.1,1.5-.28,2.2-.97,3.78-4.41,6.57-8.49,6.57-2.72,0-5.16-1.24-6.77-3.19-1.25-1.51-2-3.45-2-5.58,0-4.84,3.93-8.77,8.77-8.77s8.77,3.93,8.77,8.77Z"/>
    <circle class="cls-4" cx="179.28" cy="238.32" r="8.77"/>
    <path class="cls-3" d="M176.64,223.87c-4.57-1.26-8.81-1.73-13.87-.11l-1.25.12c-.27-2.84-.54-5.69-.81-8.56l.3-.78c4.28,3.26,9.57,5,14.8,6.39.5.13.99.26,1.49.38l-.66,2.56Z"/>
    <path class="cls-5" d="M364.42,244.57c-.99-1.8-2.93-2.87-4.88-3.52-3.16-1.04-6.61-1.18-9.86-.46-.05.15-.12.29-.18.44-1.19,2.65-3.09,4.98-5.46,6.67-.91.64-2.31,1.13-3,.26-.23-.3-.31-.7-.3-1.08.04-1.51,1.28-2.7,2.52-3.55,1.94-1.32,4.13-2.24,6.42-2.74.4-.99.68-2.03.61-3.09-.18-2.52-2.67-4.09-4.91-4.62-7.52-1.78-16.08,3.31-21.66,7.83-9.25,7.49-15.29,10.89-22.63,21.22,1.19-12.52,2.36-24.95,3.53-37.4l-.79-.07c-9.57,13.65-37.82,3.71-50.14,4.63-.19.01-.37.03-.55.05-21.26,2.27-28.32,9.9-48.98,4.43-7.34-1.94-14.2-5.36-21.4-7.76-2.16-.72-4.17-1.4-6.12-1.94-4.57-1.26-8.81-1.73-13.87-.11l-1.25.12c1.21,12.97,2.41,25.61,3.62,38.41l-.52.05c-7.37-10.44-12.69-14.11-21.98-21.63-5.57-4.52-14.14-9.61-21.66-7.83-2.24.53-4.73,2.1-4.9,4.62-.08,1.06.2,2.11.61,3.09,2.28.5,4.47,1.42,6.41,2.74,1.25.85,2.48,2.04,2.52,3.55,0,.38-.06.78-.3,1.08-.69.87-2.09.38-2.99-.26-2.37-1.69-4.28-4.02-5.46-6.67-.07-.14-.13-.29-.18-.44-3.26-.72-6.7-.59-9.86.46-1.95.65-3.9,1.72-4.89,3.52-.84,1.54-.86,3.46-.27,5.11,2.31,6.38,9.58,6.76,15.33,7.02,6.84.31,13.33,1.58,19.62,4.34,12.43,5.46,23.89,16.43,30.84,28.01l.19-.02c.27,2.91.54,5.86.82,8.83,1.16,12.49,5.77,23.9,12.84,33.32,1.49,1.99,3.09,3.88,4.79,5.68l-.13.12c-7.71,9.14-14.51,27.03-18.35,35.19-.24-.78-2.33-7.35-9.18-9.96-6.41-2.44-15.54-1.28-18.04,7.19-3.27,11.11,11.12,16.71,18.61,20.38,4.47,2.2,8.51,3.74,11.75,4.82,1.79.59,3.75-.15,4.7-1.78,6.12-10.49,20.41-36.4,24.8-44.61,9.53,5.68,20.59,9.01,32.38,9.23h.91c7.31-.14,14.34-1.47,20.9-3.81,3.29-1.18,6.46-2.61,9.48-4.27l1.79.66c4.39,8.21,18.96,32.31,25.08,42.8.95,1.63,2.91,2.37,4.7,1.78,3.24-1.08,7.28-2.62,11.75-4.82,7.48-3.67,21.88-9.27,18.61-20.38-2.5-8.47-11.63-9.63-18.04-7.19-6.85,2.61-8.94,9.18-9.18,9.96-3.86-8.22-10.73-26.28-18.49-35.36,9.74-10.34,16.18-23.86,17.58-38.95.27-2.96.55-5.91.82-8.84l.35.03c6.96-11.58,18.41-22.55,30.85-28.01,6.29-2.76,12.78-4.03,19.61-4.34,5.76-.26,13.03-.64,15.33-7.02.6-1.65.57-3.57-.27-5.11ZM270.75,290.43c4.85,0,8.77,3.92,8.77,8.77s-3.92,8.77-8.77,8.77-8.77-3.93-8.77-8.77,3.93-8.77,8.77-8.77ZM244.02,302.47c4.84,0,8.77,3.93,8.77,8.77,0,3.18-1.69,5.97-4.23,7.5-1.32.81-2.88,1.27-4.54,1.27-3.48,0-6.49-2.03-7.91-4.96-.55-1.15-.86-2.44-.86-3.81,0-4.84,3.93-8.77,8.77-8.77ZM198.53,285.52c4.84,0,8.77,3.93,8.77,8.77s-3.93,8.77-8.77,8.77-8.77-3.92-8.77-8.77,3.93-8.77,8.77-8.77ZM170.51,238.32c0-4.84,3.93-8.77,8.77-8.77s8.77,3.93,8.77,8.77-3.93,8.77-8.77,8.77-8.77-3.93-8.77-8.77ZM182.99,330.1c-1.25-1.51-2-3.45-2-5.58,0-4.84,3.93-8.77,8.77-8.77s8.77,3.93,8.77,8.77c0,.76-.1,1.5-.28,2.2-.97,3.78-4.41,6.57-8.49,6.57-2.72,0-5.16-1.24-6.77-3.19ZM200.26,328.78c0-.61.06-1.2.18-1.77.82-3.99,4.36-7,8.59-7,3.63,0,6.75,2.21,8.08,5.36.44,1.05.69,2.2.69,3.41,0,4.85-3.93,8.77-8.77,8.77s-8.77-3.92-8.77-8.77ZM218.34,355.09c-4.85,0-8.77-3.93-8.77-8.77s3.92-8.77,8.77-8.77,8.77,3.93,8.77,8.77-3.93,8.77-8.77,8.77ZM229.72,341.68c-3.76-3.05-4.33-8.57-1.28-12.33.59-.73,1.28-1.35,2.03-1.83-3.07,1.85-7.1,1.68-10.04-.71-.67-.54-1.24-1.16-1.7-1.83-2.15-3.13-2.1-7.41.41-10.5,3.06-3.76,8.58-4.34,12.34-1.29.8.65,1.46,1.41,1.97,2.24,1.87,3.08,1.72,7.14-.69,10.1-.58.71-1.24,1.31-1.97,1.79,3.07-1.81,7.06-1.63,9.98.74,3.36,2.72,4.18,7.41,2.15,11.07-.24.44-.53.87-.86,1.27-3.05,3.76-8.57,4.34-12.34,1.28ZM257.86,349.18c-1.08,1.34-2.48,2.27-3.99,2.78-2.76.93-5.92.47-8.35-1.5-3.35-2.72-4.17-7.41-2.14-11.05.24-.44.53-.87.86-1.28,2.04-2.52,5.19-3.61,8.18-3.14,1.47.23,2.91.84,4.15,1.85,3.76,3.05,4.34,8.58,1.29,12.34ZM260.33,334.88c0-1.65.46-3.2,1.25-4.51-.24.44-.53.86-.86,1.27-2.06,2.54-5.25,3.63-8.27,3.13-1.44-.25-2.84-.85-4.06-1.84-3.76-3.06-4.34-8.58-1.29-12.34.49-.61,1.05-1.13,1.66-1.57,3.14-2.28,7.53-2.28,10.68.28,3.34,2.72,4.17,7.39,2.16,11.04,1.53-2.54,4.32-4.23,7.5-4.23,4.84,0,8.77,3.93,8.77,8.77,0,2.73-1.24,5.16-3.19,6.77-1.52,1.25-3.46,2-5.58,2-4.85,0-8.77-3.92-8.77-8.77Z"/>
  </g>
  <g>
    <path class="cls-4" d="M245.65,279.66c-.83-.04-1.54.58-1.59,1.41-.35,5.85-5.21,10.39-11.04,10.36-5.76-.04-10.55-4.59-10.89-10.36-.05-.83-.76-1.45-1.59-1.41-.83.05-1.46.76-1.41,1.59.44,7.35,6.53,13.14,13.87,13.18.04,0,.07,0,.11,0,7.4,0,13.51-5.77,13.95-13.18.05-.83-.58-1.54-1.41-1.59Z"/>
    <path class="cls-4" d="M271.3,268.31c.05.8.71,1.41,1.5,1.41.03,0,.06,0,.09,0,.83-.05,1.46-.76,1.41-1.59-.44-7.35-6.53-13.15-13.87-13.19-.04,0-.07,0-.11,0-7.4,0-13.51,5.77-13.95,13.19-.05.83.58,1.54,1.41,1.59.83.04,1.54-.58,1.59-1.41.34-5.73,5.25-10.37,10.96-10.37.03,0,.05,0,.08,0,5.76.04,10.55,4.59,10.89,10.37Z"/>
    <path class="cls-4" d="M219.84,268.13c-.45-7.35-6.54-13.14-13.87-13.19-.04,0-.07,0-.11,0-7.39,0-13.51,5.77-13.96,13.19-.05.83.58,1.54,1.41,1.59.82.05,1.54-.58,1.59-1.41.35-5.86,5.21-10.37,11.05-10.37,5.75.04,10.54,4.59,10.89,10.37.05.8.71,1.41,1.5,1.41.03,0,.06,0,.09,0,.83-.05,1.46-.76,1.41-1.59Z"/>
    <path class="cls-4" d="M365.74,243.84c-1.03-1.88-2.96-3.3-5.73-4.22-2.65-.87-5.47-1.16-8.28-.87.06-.46.09-.91.06-1.36-.24-3.41-3.42-5.35-6.06-5.97-8.7-2.06-18.11,4.21-22.95,8.12-1.96,1.59-3.77,2.98-5.51,4.33-5.24,4.05-9.58,7.4-14.19,12.99,1.02-10.76,2.03-21.47,3.04-32.19l.99-10.58c.82-1.05,1.52-2.15,2.06-3.3,9.01-19.01-3.12-35.77-17.49-45.11-8.72-5.67-18.86-9.87-30.12-12.55l9.96-47.53c.5-2.4,1.01-4.89.56-7.46-.9-5.22-5.4-6.53-8.69-7.5-4.09-1.19-8.36-1.33-12.49-1.47-.77-.03-1.55-.05-2.31-.08-2.53-.12-4.87,1.3-5.85,3.51-.84,1.95-.42,3.91,1.15,5.57-.86.65-1.63,1.38-2.29,2.21-2.97,3.68-3.91,8.36-4.74,12.5l-7.23,35.88c-.08.41-.18.84-.27,1.27h-.01c-14.09.57-25.37,2.08-35.53,4.75-10.47,2.75-24.81,6.51-28.27,18.84-1.01,3.61-.75,6.87.79,9.72-3.4.65-6.56,2.31-9.05,4.79-3.44,3.43-5.22,8.02-5.01,12.93.23,5.36,2.76,10.45,6.96,13.97,0,0,.02.01.02.02-.02.13-.04.27-.02.41l.81,8.56c.97,10.44,1.94,20.66,2.91,30.92l.28,2.99c-5.42-6.98-10.04-10.68-16.57-15.92-.97-.78-1.99-1.6-3.06-2.46-4.83-3.92-14.24-10.19-22.95-8.12-2.65.63-5.82,2.57-6.05,5.97-.03.44,0,.9.06,1.36-2.82-.29-5.65,0-8.28.88-2.77.92-4.7,2.34-5.73,4.22-1,1.82-1.13,4.19-.36,6.34,2.67,7.37,10.76,7.74,16.67,8.01,7.11.32,13.36,1.7,19.08,4.21,11.48,5.04,23.04,15.55,30.16,27.41.01.02.03.04.05.06l.19,2.04c.19,2.01.37,4.05.57,6.08,1.15,12.38,5.69,24.17,13.13,34.08,1.23,1.65,2.58,3.26,4,4.83-5.91,7.44-11.14,19.42-15.01,28.26-.52,1.19-1.01,2.3-1.46,3.33-1.44-2.58-4.09-5.94-8.67-7.69-4.51-1.72-9.7-1.6-13.54.3-3.18,1.58-5.42,4.3-6.48,7.87-3.34,11.36,9.57,17.48,17.28,21.14.74.35,1.45.69,2.11,1.01,3.83,1.89,7.85,3.54,11.94,4.9.56.18,1.13.27,1.7.27,1.92,0,3.76-1.01,4.76-2.72,5.8-9.94,19-33.84,24.1-43.3,9.67,5.46,20.62,8.45,31.79,8.66h.94c7.33-.14,14.52-1.45,21.38-3.9,3.26-1.17,6.45-2.6,9.48-4.25,2.99,5.57,10.42,18.07,16.98,29.1,3.17,5.33,6.09,10.24,8.1,13.68,1,1.72,2.85,2.72,4.76,2.72.57,0,1.15-.09,1.71-.27,4.09-1.36,8.1-3.01,11.94-4.9.66-.32,1.37-.66,2.12-1.02,7.71-3.66,20.61-9.78,17.27-21.13-1.05-3.57-3.29-6.29-6.47-7.87-3.84-1.9-9.02-2.01-13.54-.3-4.58,1.74-7.23,5.11-8.67,7.69-.45-1.01-.92-2.1-1.43-3.27-3.88-8.89-9.14-20.92-15.06-28.37,9.83-10.84,15.74-24.24,17.1-38.87.16-1.71.31-3.42.47-5.12l.26-2.77c.09-.09.17-.18.23-.29,7.14-11.87,18.69-22.37,30.17-27.41,5.73-2.51,11.97-3.89,19.08-4.21,5.91-.27,14.01-.63,16.67-8.01.78-2.13.64-4.5-.37-6.35ZM162.87,222.16l-.46-4.88c2.98,1.82,6.23,3.09,9.5,4.09-2.71-.31-5.68-.2-9.04.79ZM303.25,223.08c-.25.11-.48.28-.65.52-6.24,8.91-22,6.81-34.66,5.12-.85-.11-1.69-.22-2.52-.33,6.72-.72,12.86-1.68,18.56-2.89,5.98-1.27,14.07-3.45,19.79-8.08l-.53,5.66ZM228.93,167.3c2.36-.2,4.71-.31,7.04-.31,6.86,0,13.49.86,19.33,2.5-.87,3.01-1.68,5.61-3.01,7.56-1.63,2.39-4,3.69-7.7,4.2-4.99.69-13.3-.27-15.74-5.73-.27-.6-.41-1.33-.4-2.1,0-1.85.17-3.87.47-6.11ZM226.12,176.74c2.45,5.48,9.13,7.71,15.38,7.71,1.19,0,2.37-.08,3.5-.24,4.54-.63,7.65-2.37,9.76-5.48,1.58-2.31,2.46-5.13,3.4-8.36,2.41.83,4.7,1.81,6.79,2.94,3.26,1.76,5.35,4.53,5.58,7.41.2,2.55-1.03,4.92-3.57,6.87-8.33,6.42-22.75,7.41-33.24,7.53-.18-.13-.39-.23-.63-.27-1.82-.32-3.68-.61-5.66-.91-8.57-1.31-18.27-2.8-24.76-7.94-2.31-1.83-3.3-3.78-2.97-5.81.61-3.71,5.48-7.34,9.74-8.87,4.94-1.76,10.58-3.04,16.4-3.73-.26,2.09-.39,4.01-.4,5.79-.01,1.21.21,2.34.66,3.35ZM257.54,158.92c-.37,2.56-.77,5.19-1.43,7.69-7.95-2.24-17.29-3.06-26.7-2.35.53-3.01,1.2-6.06,1.87-9.03.17-.75.33-1.5.5-2.25,8.91-.19,17.75.63,26.31,2.43-.2,1.18-.38,2.35-.55,3.51ZM239.79,113.47c.76-3.79,1.63-8.09,4.14-11.2.69-.85,1.53-1.58,2.5-2.19,3.08,1.73,6.59,2.79,10.17,3.05.1,0,.2.01.3.01,1.78,0,3.22-1.19,3.56-2.98.35-1.89-.71-3.67-2.54-4.23-3.71-1.15-7.86-.88-11.31.67-1.72-1.39-1.27-2.44-1.12-2.8.46-1.04,1.58-1.72,2.83-1.72.05,0,.1,0,.15,0,.78.03,1.56.06,2.34.08,3.94.13,8.02.26,11.75,1.35,3.62,1.06,6.03,1.98,6.57,5.13.35,2.01-.08,4.11-.54,6.33l-9.95,47.48c-8.54-1.8-17.35-2.63-26.2-2.49.04-.2.09-.41.13-.61l7.23-35.88ZM250.12,98.55c2.24-.52,4.66-.44,6.9.25.52.16.52.57.48.81-.07.38-.3.57-.68.53-2.3-.17-4.58-.71-6.69-1.59ZM168.43,174.43c3-10.68,16.38-14.19,26.17-16.75,9.74-2.56,20.61-4.03,34.1-4.62-.11.5-.22,1-.33,1.51-.73,3.26-1.47,6.62-2.03,9.96-6.33.69-12.48,2.05-17.87,3.97-5.04,1.81-10.85,6.08-11.69,11.21-.36,2.19.05,5.46,4.07,8.65,3.94,3.12,8.8,4.99,13.87,6.26-10.43-.67-20.46-1.99-29.52-3.9-5.16-1.08-12-3.24-15.3-7.43-1.96-2.49-2.43-5.39-1.46-8.87ZM155.26,200.93c-.17-4.06,1.29-7.86,4.13-10.68,2.42-2.4,5.59-3.88,8.94-4.17,3.23,3.46,8.69,6,16.24,7.58,13.01,2.73,27.97,4.28,43.25,4.46,1.58.02,3.27.03,5.04.01,10.98-.08,26.66-1,35.95-8.16,3.33-2.56,5.01-5.93,4.73-9.49-.31-3.9-2.99-7.56-7.15-9.81-2.28-1.23-4.77-2.29-7.4-3.19.72-2.69,1.14-5.45,1.53-8.14.16-1.08.33-2.18.51-3.28,10.86,2.6,20.63,6.66,29.03,12.11,6.46,4.2,26.71,19.59,16.41,41.31-.51,1.08-1.19,2.13-2.01,3.11-4.96,5.97-14.41,8.54-21.09,9.96-8.7,1.85-18.46,3.1-29.84,3.82-1.58.1-3.17.19-4.75.27-24.76,1.24-48.68-1.05-71.11-6.81-.4-.1-.8-.2-1.2-.31l-.25-.07c-4.97-1.32-10.13-2.98-14.29-6.14-.26-.2-.53-.41-.78-.62-3.54-2.97-5.68-7.27-5.87-11.79ZM239.78,229.93c-1.89.44-3.67.89-5.38,1.33-9.41,2.4-16.84,4.3-29.86.85-4.25-1.12-8.45-2.8-12.51-4.42-2.86-1.14-5.81-2.32-8.8-3.31l-.47-.16c-.27-.09-.52-.17-.79-.26,17.22,3.99,35.24,6.02,53.82,6.02,1.32,0,2.66-.03,3.98-.05ZM137.23,259.66c-6.07-2.67-12.67-4.13-20.15-4.46-5.35-.24-12-.54-13.99-6.03-.48-1.35-.42-2.8.17-3.88.66-1.19,2.02-2.14,4.05-2.82,2.64-.88,5.5-1.06,8.33-.56,1.3,2.79,3.3,5.21,5.83,7.01.95.68,1.93,1.01,2.81,1.01s1.67-.35,2.22-1.04c.43-.54.65-1.25.63-2.06-.05-1.75-1.11-3.35-3.18-4.75-1.85-1.26-3.91-2.17-6.12-2.75-.21-.64-.29-1.22-.25-1.74.11-1.67,1.96-2.84,3.75-3.26,7.75-1.83,16.82,4.66,20.37,7.54,1.08.87,2.1,1.69,3.07,2.47,7.36,5.9,12.23,9.8,18.62,18.86.1.14.22.25.35.34l1.88,19.97c-7.46-10.47-17.77-19.18-28.4-23.85ZM119.89,243.23c.83.38,1.62.83,2.37,1.34.83.57,1.83,1.43,1.86,2.34-.21-.04-.56-.18-.92-.43-1.27-.91-2.38-2-3.31-3.25ZM198.79,329.41c.33,5.37,4.79,9.64,10.24,9.64.82,0,1.62-.11,2.38-.29-2.05,1.88-3.34,4.57-3.34,7.56,0,1.7.42,3.3,1.15,4.71-2.82-1.17-5.56-2.54-8.2-4.11-5.1-3.03-9.75-6.76-13.84-11.09-.62-.66-1.21-1.33-1.79-2.01,1.35.63,2.83.97,4.36.97,3.84,0,7.27-2.12,9.03-5.38ZM235.92,317.5c1.93,2.47,4.91,4,8.11,4,.25,0,.49-.03.74-.05-2.14,4.2-1.14,9.48,2.65,12.6-.66.25-1.29.59-1.89.97.04-3.06-1.28-6.08-3.8-8.13-1.9-1.54-4.25-2.31-6.59-2.28,1.11-2.2,1.38-4.73.79-7.11ZM273.73,340.49c-1.32,1.08-2.92,1.66-4.63,1.66-4.01,0-7.27-3.26-7.27-7.27,0-1.31.35-2.59,1.02-3.7,0-.01.01-.02.02-.03,0,0,0,0,0,0,0,0,0-.01.01-.02,1.32-2.19,3.65-3.5,6.22-3.5,4.01,0,7.27,3.26,7.27,7.27,0,2.18-.96,4.23-2.64,5.61ZM256.7,348.23c-.86,1.07-2,1.86-3.3,2.3-2.39.8-4.98.34-6.93-1.24-2.74-2.23-3.49-6.08-1.77-9.17.19-.36.43-.71.71-1.05,1.39-1.71,3.48-2.69,5.66-2.69.37,0,.75.03,1.13.09h0c1.26.2,2.45.73,3.44,1.53,3.12,2.53,3.6,7.12,1.07,10.23ZM229.61,330.3c.49-.6,1.04-1.11,1.66-1.5h0s.05-.03.07-.04c0,0,0,0,.01,0,0,0,.01,0,.02-.01.06-.04.13-.08.19-.12,2.6-1.53,5.93-1.29,8.27.62,2.75,2.22,3.5,6.08,1.78,9.19-.2.36-.43.71-.71,1.04-1.22,1.51-2.96,2.45-4.89,2.65-1.93.2-3.83-.36-5.34-1.59-1.51-1.22-2.45-2.96-2.65-4.89s.36-3.82,1.59-5.33ZM257.55,335.7c.45-.17.88-.37,1.3-.6.02.77.12,1.52.3,2.24-.46-.59-.99-1.15-1.6-1.64ZM260.32,329.56s0,.01,0,.02c0,0,0,0,0,.01,0,0,0,0,0,0,0,.02-.02.03-.03.05-.19.34-.42.68-.71,1.04-1.65,2.03-4.28,3.02-6.85,2.6-1.26-.22-2.39-.73-3.37-1.53-3.11-2.53-3.59-7.12-1.07-10.24.39-.48.85-.92,1.37-1.3,1.28-.93,2.78-1.39,4.28-1.39,1.62,0,3.25.54,4.57,1.62,2.72,2.21,3.48,6.04,1.82,9.1ZM247.78,317.46c-1.12.69-2.42,1.05-3.76,1.05-2.77,0-5.35-1.61-6.56-4.11-.47-.99-.71-2.05-.71-3.16,0-4.01,3.26-7.27,7.27-7.27s7.27,3.26,7.27,7.27c0,2.57-1.31,4.89-3.51,6.22ZM231.6,324.59c-.48.59-1.03,1.09-1.64,1.49,0,0-.01,0-.02.01-.08.05-.15.09-.23.14,0,0,0,0-.01,0h0c-2.61,1.57-5.95,1.33-8.33-.59-.54-.44-1.02-.95-1.4-1.51h0c-1.82-2.64-1.68-6.22.34-8.7,1.44-1.77,3.55-2.69,5.67-2.69,1.61,0,3.22.53,4.56,1.62.66.53,1.21,1.16,1.63,1.85,1.6,2.63,1.37,5.99-.57,8.37ZM219.49,327.98c1.87,1.52,4.17,2.29,6.48,2.29.04,0,.08,0,.12,0-.88,1.74-1.25,3.69-1.05,5.68.14,1.33.53,2.6,1.14,3.75-1.89-2.22-4.69-3.64-7.83-3.64-.82,0-1.62.11-2.38.29,2.05-1.88,3.34-4.57,3.34-7.56,0-.34-.02-.68-.05-1.01.08.07.15.15.23.22ZM218.34,353.58c-4.01,0-7.27-3.26-7.27-7.27s3.26-7.27,7.27-7.27,7.27,3.26,7.27,7.27-3.26,7.27-7.27,7.27ZM209.03,336.05c-4.01,0-7.27-3.26-7.27-7.27,0-.5.05-1,.15-1.47.69-3.36,3.69-5.8,7.12-5.8,2.93,0,5.56,1.74,6.7,4.44.38.91.57,1.86.57,2.83,0,4.01-3.26,7.27-7.27,7.27ZM196.8,326.34c-.82,3.2-3.72,5.44-7.04,5.44-2.18,0-4.23-.96-5.61-2.65,0,0,0,0,0,0-1.08-1.31-1.66-2.91-1.66-4.62,0-4.01,3.26-7.27,7.27-7.27s7.27,3.26,7.27,7.27c0,.61-.08,1.23-.23,1.83ZM174.17,392.06c-.59,1.01-1.82,1.47-2.93,1.11-3.96-1.32-7.85-2.92-11.56-4.74-.67-.33-1.39-.67-2.14-1.03-9.65-4.58-18.11-9.36-15.69-17.58.82-2.79,2.48-4.82,4.93-6.03,3.11-1.54,7.38-1.61,11.14-.18,5.94,2.26,7.94,7.89,8.28,9,.18.59.71,1.01,1.33,1.05.62.05,1.2-.3,1.46-.86.83-1.77,1.78-3.93,2.87-6.44,3.74-8.56,8.79-20.11,14.34-27.27,3.65,3.67,7.7,6.91,12.08,9.64-5.04,9.36-18.3,33.36-24.11,43.32ZM233.55,355.93h-.88c-3.04-.06-6.07-.34-9.06-.82,2.99-1.8,5-5.06,5-8.8,0-1.74-.44-3.37-1.2-4.8.41.48.86.93,1.36,1.34,1.85,1.5,4.11,2.3,6.46,2.3.36,0,.72-.02,1.08-.06,1.62-.17,3.14-.71,4.47-1.57-.04,3.05,1.28,6.05,3.79,8.09,1.34,1.09,2.89,1.79,4.52,2.11-5.06,1.36-10.27,2.11-15.54,2.21ZM259,350.15s.02-.02.03-.03c2.11-2.6,2.72-5.93,1.97-8.96,1.67,2.15,4.18,3.63,7.03,3.93-1.56,1.05-3.17,2.04-4.82,2.95-1.37.75-2.78,1.45-4.21,2.11ZM297.29,372.8c.26.56.85.91,1.46.86.62-.04,1.15-.46,1.33-1.05.34-1.11,2.34-6.74,8.28-9,3.76-1.43,8.03-1.36,11.14.18,2.45,1.21,4.11,3.24,4.93,6.03,2.42,8.21-6.03,13-15.67,17.58-.76.36-1.49.71-2.16,1.04-3.71,1.83-7.6,3.42-11.56,4.74-1.11.37-2.35-.1-2.93-1.11-2.01-3.45-4.93-8.36-8.11-13.7-6.57-11.05-14.01-23.56-16.94-29.05,0,0-.01-.01-.02-.02,3.1-1.87,6.05-3.98,8.78-6.31,1.45-1.23,2.85-2.56,4.22-3.94,5.58,7.16,10.65,18.77,14.41,27.38,1.08,2.48,2.02,4.62,2.84,6.38ZM296.71,292.6c-.16,1.7-.32,3.41-.47,5.12-1.32,14.25-7.17,27.29-16.9,37.75.01-.2.03-.39.03-.59,0-5.66-4.61-10.27-10.27-10.27-1.74,0-3.43.46-4.92,1.27-.07-2.93-1.39-5.78-3.8-7.74-2.08-1.69-4.68-2.45-7.23-2.26.72-1.42,1.14-3,1.14-4.64,0-5.66-4.61-10.27-10.27-10.27s-10.27,4.61-10.27,10.27c0,.84.11,1.66.3,2.46-.48-.61-1.02-1.17-1.63-1.66-4.39-3.56-10.87-2.89-14.45,1.51-1.73,2.13-2.48,4.84-2.22,7.47-1.83-1.58-4.19-2.51-6.72-2.51-3.83,0-7.27,2.16-9.03,5.4-.32-5.38-4.78-9.66-10.24-9.66s-10.27,4.61-10.27,10.27c0,.52.05,1.04.12,1.55-5.39-8.52-8.71-18.23-9.65-28.35-.19-2.04-.38-4.07-.57-6.08l-3.47-36.98c-.92-9.78-1.85-19.53-2.77-29.45.03,0,.05,0,.08-.02,5.1-1.63,9.27-.91,13.01.13,1.77.49,3.62,1.11,5.57,1.76l.48.16c2.9.97,5.82,2.13,8.64,3.25,4.14,1.65,8.43,3.36,12.86,4.53,5.37,1.42,9.89,1.97,13.96,1.97,6.37,0,11.65-1.35,17.41-2.82,5.06-1.29,10.79-2.75,18.16-3.54.15-.02.3-.03.5-.05,3.45-.26,8.45.41,13.74,1.11,12.22,1.63,27.14,3.61,35.25-3.8-1.05,11.17-2.1,22.33-3.17,33.56-.15.32-.18.68-.09,1.01l-.78,8.35c-.56,5.99-1.13,12.01-1.69,18.07l-.35,3.72ZM363.28,249.17c-1.98,5.49-8.64,5.79-13.99,6.03-7.48.34-14.07,1.8-20.14,4.46-10.71,4.7-21.11,13.53-28.6,24.13.4-4.25.8-8.49,1.19-12.7l.81-8.61c5.54-7.72,10.42-11.49,16.56-16.23,1.76-1.36,3.57-2.76,5.56-4.37,4.41-3.57,12.92-9.3,20.37-7.54,1.79.42,3.64,1.6,3.76,3.26.03.52-.05,1.09-.26,1.75-2.21.58-4.27,1.49-6.12,2.75-2.06,1.41-3.13,3.01-3.17,4.75-.02.78.19,1.49.62,2.05.55.69,1.34,1.04,2.23,1.04s1.86-.34,2.82-1.01c2.49-1.78,4.48-4.18,5.82-7,2.82-.5,5.68-.32,8.33.55,2.02.67,3.38,1.62,4.04,2.82.6,1.09.66,2.54.18,3.88ZM342.24,246.91c.03-.9,1.03-1.77,1.86-2.34.75-.51,1.55-.96,2.38-1.34-.93,1.25-2.04,2.34-3.31,3.25-.37.26-.72.39-.94.44Z"/>
    <path class="cls-4" d="M270.75,288.93c-5.66,0-10.27,4.61-10.27,10.27s4.61,10.27,10.27,10.27,10.27-4.61,10.27-10.27-4.61-10.27-10.27-10.27ZM270.75,306.48c-4.01,0-7.27-3.26-7.27-7.27s3.26-7.27,7.27-7.27,7.27,3.26,7.27,7.27-3.26,7.27-7.27,7.27Z"/>
    <path class="cls-4" d="M179.28,228.05c-5.66,0-10.27,4.61-10.27,10.27s4.61,10.27,10.27,10.27,10.27-4.61,10.27-10.27-4.61-10.27-10.27-10.27ZM179.28,245.58c-4.01,0-7.27-3.26-7.27-7.27s3.26-7.27,7.27-7.27,7.27,3.26,7.27,7.27-3.26,7.27-7.27,7.27Z"/>
    <path class="cls-4" d="M198.53,284.02c-5.66,0-10.27,4.61-10.27,10.27s4.61,10.27,10.27,10.27,10.27-4.61,10.27-10.27-4.61-10.27-10.27-10.27ZM198.53,301.56c-4.01,0-7.27-3.26-7.27-7.27s3.26-7.27,7.27-7.27,7.27,3.26,7.27,7.27-3.26,7.27-7.27,7.27Z"/>
  </g>
</svg>