<?xml version="1.0" encoding="UTF-8"?>
<svg id="Layer_1" data-name="Layer 1" xmlns="http://www.w3.org/2000/svg" viewBox="0 0 466.37 485.37">
  <defs>
    <style>
      .cls-1 {
        fill: #101010;
      }
    </style>
  </defs>
  <path class="cls-1" d="M245.65,279.65c-.83-.04-1.54.59-1.59,1.41-.34,5.86-5.2,10.39-11.04,10.36-5.76-.03-10.55-4.58-10.89-10.36-.05-.82-.76-1.45-1.59-1.41-.82.05-1.45.76-1.4,1.59.43,7.35,6.52,13.14,13.86,13.18h.11c7.39,0,13.51-5.77,13.95-13.18.05-.83-.58-1.54-1.41-1.59Z"/>
  <path class="cls-1" d="M271.3,268.31c.04.8.7,1.41,1.49,1.41h.09c.83-.05,1.46-.76,1.41-1.59-.44-7.35-6.53-13.14-13.87-13.19h-.1c-7.4,0-13.52,5.78-13.95,13.19-.05.83.58,1.54,1.4,1.59.83.04,1.54-.58,1.59-1.41.34-5.73,5.25-10.37,10.96-10.37h.08c5.77.04,10.55,4.59,10.9,10.37Z"/>
  <path class="cls-1" d="M219.84,268.13c-.45-7.35-6.54-13.14-13.87-13.19h-.1c-7.39,0-13.52,5.77-13.96,13.19-.05.83.57,1.54,1.4,1.59.82.05,1.54-.58,1.59-1.41.35-5.86,5.21-10.36,11.05-10.37,5.76.04,10.54,4.59,10.9,10.37.04.8.7,1.41,1.49,1.41h.09c.83-.05,1.46-.76,1.41-1.59Z"/>
  <path class="cls-1" d="M365.74,243.84c-1.04-1.88-2.96-3.3-5.73-4.22-2.65-.88-5.47-1.16-8.28-.88.06-.46.09-.91.06-1.36-.24-3.4-3.42-5.34-6.06-5.97-8.7-2.06-18.12,4.21-22.95,8.13-1.96,1.59-3.77,2.98-5.51,4.32-5.24,4.05-9.58,7.4-14.19,12.99,1.02-10.76,2.03-21.47,3.04-32.19l.98-10.58c.83-1.05,1.52-2.16,2.07-3.31,9.01-19.01-3.13-35.76-17.49-45.11-8.73-5.66-18.86-9.87-30.12-12.54l9.96-47.54c.5-2.4,1.01-4.88.56-7.45-.9-5.22-5.4-6.54-8.69-7.5-4.09-1.19-8.36-1.33-12.49-1.47-.78-.02-1.55-.05-2.31-.08-2.53-.11-4.88,1.3-5.85,3.52-.85,1.94-.42,3.9,1.15,5.57-.86.65-1.63,1.38-2.29,2.21-2.98,3.68-3.92,8.36-4.75,12.5l-7.23,35.88c-.08.41-.18.84-.27,1.26h0c-14.08.57-25.37,2.08-35.53,4.76-10.47,2.74-24.81,6.51-28.27,18.84-1.02,3.6-.75,6.86.79,9.71-3.4.65-6.56,2.31-9.06,4.79-3.44,3.42-5.21,8.02-5,12.93.22,5.36,2.75,10.45,6.95,13.97,0,.01.02.01.02.02-.02.13-.03.27-.02.41l.81,8.56c.97,10.44,1.94,20.66,2.91,30.92l.28,2.99c-5.42-6.98-10.04-10.69-16.57-15.92-.98-.78-1.99-1.6-3.06-2.46-4.83-3.92-14.24-10.19-22.95-8.13-2.65.63-5.82,2.57-6.05,5.97-.04.44-.01.9.05,1.36-2.82-.29-5.65,0-8.28.88-2.77.92-4.7,2.34-5.73,4.22-1,1.83-1.14,4.19-.37,6.34,2.67,7.38,10.77,7.74,16.67,8.01,7.12.32,13.36,1.7,19.09,4.21,11.48,5.05,23.04,15.55,30.16,27.41,0,.03.03.04.04.06l.19,2.04c.19,2.01.38,4.04.57,6.08,1.15,12.38,5.69,24.17,13.13,34.08,1.24,1.65,2.58,3.26,4,4.83-5.91,7.44-11.14,19.41-15.01,28.26-.52,1.19-1,2.3-1.46,3.33-1.43-2.58-4.09-5.95-8.66-7.69-4.52-1.72-9.71-1.6-13.54.3-3.18,1.57-5.42,4.29-6.48,7.87-3.34,11.36,9.57,17.48,17.28,21.14.75.35,1.46.69,2.11,1.01,3.84,1.88,7.85,3.53,11.94,4.9.56.18,1.14.27,1.71.27,1.91,0,3.76-1.01,4.76-2.72,5.8-9.94,18.99-33.84,24.09-43.3,9.67,5.46,20.62,8.45,31.79,8.66h.94c7.33-.14,14.52-1.45,21.38-3.9,3.26-1.17,6.45-2.6,9.47-4.25,2.99,5.58,10.42,18.07,16.98,29.11,3.17,5.33,6.09,10.24,8.1,13.68,1,1.71,2.84,2.72,4.76,2.72.57,0,1.14-.09,1.71-.28,4.08-1.36,8.1-3.01,11.93-4.89.66-.32,1.38-.66,2.13-1.02,7.7-3.66,20.6-9.78,17.26-21.13-1.05-3.58-3.29-6.3-6.47-7.87-3.84-1.9-9.03-2.02-13.54-.3-4.58,1.74-7.23,5.11-8.67,7.69-.44-1.01-.92-2.1-1.43-3.27-3.88-8.89-9.14-20.91-15.06-28.37,9.83-10.84,15.74-24.24,17.1-38.86.15-1.71.31-3.42.47-5.12l.26-2.77c.08-.08.16-.18.23-.29,7.13-11.87,18.69-22.37,30.16-27.41,5.73-2.51,11.97-3.89,19.08-4.21,5.91-.27,14.01-.63,16.67-8.01.78-2.13.64-4.5-.36-6.34ZM300.55,283.79c.4-4.25.79-8.49,1.19-12.71l.81-8.61c5.54-7.72,10.41-11.49,16.56-16.23,1.75-1.36,3.57-2.76,5.56-4.37,4.41-3.57,12.91-9.3,20.37-7.54,1.78.42,3.64,1.6,3.76,3.26.03.52-.05,1.09-.26,1.75-2.21.57-4.27,1.48-6.13,2.74-2.05,1.42-3.12,3.01-3.17,4.75-.02.79.19,1.49.63,2.05.55.7,1.33,1.04,2.23,1.04s1.86-.33,2.81-1.01c2.49-1.77,4.49-4.17,5.82-7,2.82-.5,5.69-.32,8.34.55,2.02.68,3.38,1.63,4.04,2.82.59,1.09.66,2.54.17,3.88-1.98,5.49-8.64,5.79-13.99,6.03-7.48.34-14.07,1.8-20.14,4.47-10.71,4.7-21.11,13.53-28.6,24.13ZM300.08,372.6c.34-1.1,2.33-6.73,8.28-9,3.75-1.43,8.02-1.36,11.13.18,2.45,1.22,4.11,3.25,4.93,6.03,2.42,8.22-6.03,13.01-15.67,17.58-.76.36-1.49.71-2.16,1.04-3.71,1.82-7.6,3.42-11.56,4.74-1.11.36-2.34-.1-2.93-1.11-2.01-3.45-4.94-8.37-8.11-13.71-6.57-11.04-14.01-23.56-16.94-29.05-.01,0-.02-.01-.02-.02,3.1-1.87,6.05-3.98,8.78-6.31,1.45-1.23,2.86-2.56,4.22-3.93,5.58,7.16,10.65,18.77,14.41,27.38,1.09,2.48,2.02,4.63,2.84,6.38.27.56.85.91,1.47.86.62-.05,1.14-.46,1.33-1.06ZM171.24,393.17c-3.96-1.32-7.85-2.92-11.57-4.75-.66-.32-1.38-.66-2.14-1.02-9.65-4.58-18.11-9.37-15.69-17.58.82-2.79,2.48-4.82,4.93-6.04,3.11-1.54,7.38-1.61,11.14-.18,5.94,2.27,7.94,7.9,8.28,9,.18.59.71,1.01,1.33,1.06.61.05,1.2-.3,1.46-.86.83-1.77,1.78-3.93,2.87-6.44,3.74-8.56,8.79-20.11,14.34-27.27,3.65,3.68,7.7,6.91,12.08,9.64-5.04,9.36-18.29,33.37-24.1,43.33-.59,1.01-1.83,1.47-2.93,1.11ZM219.25,327.76c.08.07.15.15.24.22,1.87,1.52,4.17,2.29,6.48,2.29.03,0,.07-.01.11-.01-.88,1.74-1.25,3.69-1.04,5.68.13,1.33.53,2.6,1.14,3.74-1.89-2.22-4.7-3.64-7.84-3.64-.82,0-1.61.11-2.38.29,2.05-1.88,3.34-4.57,3.34-7.56,0-.34-.01-.68-.05-1.01ZM235.92,317.5c1.92,2.47,4.91,4,8.1,4,.25,0,.5-.03.74-.05-2.13,4.2-1.14,9.49,2.65,12.6-.66.25-1.29.59-1.89.97.04-3.06-1.28-6.08-3.8-8.12-1.9-1.54-4.25-2.31-6.59-2.29,1.1-2.2,1.38-4.73.79-7.11ZM229.61,330.29c.48-.6,1.04-1.1,1.66-1.5.03-.01.05-.03.07-.04h0s.02-.02.02-.02c.07-.04.13-.08.19-.12,2.6-1.53,5.92-1.29,8.27.62,2.75,2.22,3.5,6.08,1.78,9.18-.2.37-.44.71-.71,1.05-1.23,1.5-2.96,2.45-4.89,2.65-1.93.19-3.83-.37-5.34-1.59-1.51-1.23-2.45-2.96-2.65-4.89-.2-1.93.36-3.83,1.59-5.34ZM249.34,331.76c-3.11-2.54-3.59-7.13-1.07-10.24.39-.48.85-.92,1.37-1.29,1.28-.93,2.79-1.39,4.28-1.39,1.63,0,3.25.54,4.58,1.61,2.71,2.22,3.48,6.04,1.81,9.11v.02s0,0,0,.01h-.01s-.02.04-.02.05c-.19.34-.42.69-.71,1.05-1.65,2.03-4.28,3.02-6.85,2.59-1.26-.21-2.39-.73-3.37-1.52ZM247.78,317.45c-1.12.69-2.42,1.05-3.76,1.05-2.77,0-5.34-1.61-6.56-4.11-.47-.99-.71-2.05-.71-3.16,0-4.01,3.26-7.27,7.27-7.27s7.27,3.26,7.27,7.27c0,2.57-1.31,4.89-3.51,6.22ZM231.6,324.58c-.48.59-1.03,1.09-1.64,1.49t-.02.02c-.07.04-.15.09-.23.14,0,0,0,0,0,.01-1.15.69-2.44,1.03-3.73,1.03-1.63,0-3.27-.55-4.6-1.63-.54-.44-1.01-.94-1.4-1.51-.85-1.24-1.28-2.68-1.28-4.12,0-1.63.55-3.26,1.62-4.58,1.44-1.77,3.54-2.69,5.66-2.69,1.61,0,3.23.53,4.57,1.62.65.53,1.2,1.15,1.63,1.85,1.6,2.63,1.37,5.99-.57,8.37ZM218.34,339.04c4.01,0,7.27,3.26,7.27,7.27s-3.26,7.27-7.27,7.27-7.27-3.26-7.27-7.27,3.26-7.27,7.27-7.27ZM201.76,328.77c0-.5.05-.99.15-1.47.69-3.36,3.69-5.8,7.12-5.8,2.93,0,5.56,1.75,6.7,4.45.38.9.57,1.85.57,2.82,0,4.01-3.26,7.27-7.27,7.27s-7.27-3.26-7.27-7.27ZM246.47,349.29c-2.75-2.23-3.49-6.08-1.77-9.17.19-.36.43-.71.71-1.05,1.38-1.72,3.48-2.69,5.65-2.69.38,0,.75.02,1.13.08,1.26.2,2.45.73,3.44,1.54,3.11,2.52,3.59,7.11,1.06,10.23-.85,1.07-2,1.86-3.3,2.3-2.38.8-4.97.34-6.92-1.24ZM261.83,334.87c0-1.31.35-2.59,1.02-3.7,0-.01,0-.02.02-.03h0s.01-.03.02-.03c1.32-2.2,3.64-3.51,6.21-3.51,4.01,0,7.27,3.26,7.27,7.27,0,2.18-.96,4.23-2.64,5.61-1.32,1.09-2.92,1.66-4.63,1.66-4.01,0-7.27-3.26-7.27-7.27ZM182.49,324.51c0-4.01,3.26-7.27,7.27-7.27s7.27,3.26,7.27,7.27c0,.61-.08,1.23-.23,1.83-.82,3.2-3.72,5.44-7.04,5.44-2.18,0-4.22-.96-5.61-2.64h0c-1.09-1.31-1.66-2.91-1.66-4.63ZM187.19,335.82c-.62-.65-1.2-1.33-1.79-2.01,1.35.63,2.83.97,4.36.97,3.84,0,7.28-2.12,9.03-5.38.33,5.37,4.79,9.64,10.24,9.64.82,0,1.62-.11,2.39-.29-2.05,1.88-3.35,4.57-3.35,7.56,0,1.7.42,3.3,1.16,4.71-2.82-1.17-5.57-2.54-8.2-4.11-5.1-3.03-9.76-6.76-13.84-11.09ZM228.61,346.31c0-1.73-.43-3.37-1.2-4.8.41.48.87.93,1.37,1.34,1.85,1.5,4.11,2.3,6.46,2.3.36,0,.72-.02,1.08-.06,1.62-.17,3.13-.71,4.46-1.56-.03,3.04,1.28,6.05,3.8,8.09,1.34,1.08,2.89,1.79,4.51,2.1-5.05,1.37-10.27,2.11-15.54,2.21h-.88c-3.04-.05-6.07-.34-9.06-.82,2.99-1.8,5-5.06,5-8.8ZM259.03,350.12c2.11-2.61,2.72-5.94,1.97-8.96,1.67,2.15,4.18,3.63,7.03,3.92-1.56,1.05-3.17,2.05-4.82,2.96-1.36.74-2.76,1.44-4.18,2.08ZM296.71,292.59c-.16,1.71-.32,3.41-.47,5.12-1.32,14.25-7.17,27.3-16.9,37.75,0-.19.03-.39.03-.59,0-5.66-4.6-10.27-10.27-10.27-1.74,0-3.42.46-4.91,1.27-.07-2.93-1.39-5.78-3.8-7.74-2.08-1.7-4.68-2.45-7.23-2.26.72-1.42,1.13-3,1.13-4.64,0-5.66-4.6-10.27-10.27-10.27s-10.27,4.61-10.27,10.27c0,.84.11,1.66.3,2.46-.47-.61-1.01-1.17-1.62-1.66-4.39-3.57-10.88-2.89-14.45,1.51-1.73,2.13-2.48,4.83-2.23,7.47-1.82-1.59-4.19-2.51-6.72-2.51-3.83,0-7.27,2.16-9.03,5.4-.32-5.38-4.78-9.66-10.24-9.66s-10.27,4.61-10.27,10.27c0,.52.05,1.04.13,1.55-5.39-8.53-8.71-18.23-9.65-28.35-.2-2.04-.38-4.07-.57-6.08l-3.47-36.98c-.93-9.78-1.85-19.53-2.78-29.45.03,0,.05,0,.08-.02,5.1-1.63,9.27-.9,13.01.13,1.77.49,3.62,1.1,5.57,1.76l.48.15c2.9.97,5.81,2.13,8.63,3.26,4.15,1.65,8.43,3.36,12.86,4.53,5.37,1.42,9.88,1.97,13.96,1.97,6.37,0,11.65-1.34,17.41-2.82,5.05-1.29,10.78-2.75,18.16-3.54.15-.01.3-.03.49-.04,3.46-.26,8.46.41,13.75,1.11,12.21,1.62,27.14,3.61,35.25-3.8-1.05,11.17-2.1,22.33-3.17,33.56-.15.32-.18.68-.09,1.01l-.79,8.34c-.56,5.99-1.13,12.01-1.69,18.07l-.35,3.72ZM137.23,259.66c-6.08-2.67-12.67-4.13-20.16-4.47-5.35-.24-12-.54-13.99-6.02-.48-1.35-.41-2.81.18-3.89.65-1.19,2.02-2.14,4.05-2.81,2.63-.88,5.5-1.06,8.33-.56,1.3,2.79,3.3,5.21,5.82,7,.96.68,1.93,1.02,2.81,1.02s1.67-.35,2.22-1.04c.44-.54.65-1.25.63-2.06-.04-1.75-1.11-3.35-3.17-4.75-1.85-1.26-3.92-2.17-6.12-2.75-.21-.64-.29-1.21-.25-1.74.11-1.66,1.96-2.84,3.75-3.26,7.74-1.83,16.82,4.66,20.37,7.54,1.07.87,2.1,1.69,3.07,2.47,7.37,5.9,12.23,9.79,18.63,18.86.1.14.22.24.35.34l1.87,19.97c-7.46-10.47-17.77-19.18-28.39-23.85ZM119.89,243.22c.83.38,1.62.83,2.37,1.34.83.57,1.83,1.44,1.86,2.34-.21-.04-.56-.17-.92-.43-1.27-.91-2.38-2-3.31-3.25ZM168.43,174.43c2.99-10.68,16.37-14.19,26.16-16.76,9.75-2.56,20.61-4.03,34.1-4.61-.11.5-.22,1-.34,1.51-.73,3.26-1.47,6.62-2.03,9.96-6.32.69-12.48,2.05-17.86,3.97-5.04,1.81-10.85,6.08-11.7,11.21-.36,2.19.06,5.46,4.07,8.65,3.94,3.12,8.8,4.98,13.87,6.26-10.43-.67-20.46-1.99-29.52-3.9-5.16-1.07-12-3.24-15.3-7.42-1.95-2.5-2.43-5.4-1.45-8.87ZM232.56,149.35l7.23-35.88c.77-3.8,1.63-8.1,4.14-11.21.69-.85,1.53-1.58,2.5-2.18,3.07,1.73,6.59,2.78,10.16,3.05.1,0,.2.01.3.01,1.78,0,3.22-1.19,3.56-2.98.35-1.89-.72-3.67-2.54-4.23-3.71-1.15-7.86-.88-11.31.67-1.72-1.39-1.27-2.44-1.12-2.8.46-1.04,1.59-1.72,2.83-1.72h.15c.78.03,1.56.06,2.34.08,3.95.13,8.02.26,11.75,1.35,3.62,1.06,6.03,1.99,6.57,5.13.36,2.01-.08,4.11-.54,6.33l-9.95,47.49c-8.54-1.8-17.35-2.64-26.2-2.5.04-.2.09-.41.13-.61ZM250.12,98.55c2.24-.52,4.67-.45,6.9.25.52.15.52.57.48.8-.07.38-.31.57-.69.54-2.3-.18-4.57-.72-6.69-1.59ZM228.93,167.3c2.36-.2,4.72-.32,7.05-.32,6.86,0,13.49.86,19.32,2.5-.87,3.01-1.68,5.61-3.01,7.56-1.63,2.39-4,3.68-7.69,4.2-4.99.68-13.3-.27-15.74-5.73-.27-.6-.41-1.33-.4-2.1.01-1.86.17-3.88.47-6.11ZM226.12,176.73c2.45,5.48,9.13,7.72,15.38,7.72,1.2,0,2.38-.09,3.51-.24,4.54-.63,7.64-2.37,9.76-5.48,1.58-2.31,2.46-5.13,3.4-8.36,2.41.84,4.7,1.82,6.79,2.94,3.27,1.76,5.35,4.53,5.58,7.41.21,2.55-1.02,4.92-3.56,6.87-8.34,6.42-22.75,7.42-33.25,7.53-.18-.13-.39-.22-.62-.27-1.82-.32-3.69-.61-5.66-.91-8.56-1.31-18.27-2.8-24.76-7.93-2.3-1.83-3.3-3.79-2.97-5.81.62-3.72,5.48-7.35,9.75-8.88,4.94-1.76,10.57-3.03,16.39-3.73-.26,2.1-.39,4.01-.4,5.8,0,1.21.21,2.33.66,3.34ZM231.78,152.97c8.91-.19,17.75.63,26.31,2.44-.2,1.17-.38,2.35-.55,3.5-.37,2.56-.77,5.19-1.43,7.69-7.95-2.23-17.29-3.05-26.7-2.35.53-3.01,1.21-6.06,1.87-9.03.17-.75.34-1.5.5-2.25ZM168.32,186.08c3.24,3.46,8.69,6,16.24,7.58,13.01,2.73,27.97,4.28,43.25,4.46,1.58.02,3.28.03,5.04.01,10.99-.07,26.67-1,35.96-8.16,3.33-2.56,5.01-5.93,4.72-9.49-.31-3.89-2.98-7.56-7.15-9.81-2.28-1.23-4.77-2.29-7.4-3.19.72-2.69,1.14-5.45,1.53-8.13.16-1.08.33-2.18.51-3.28,10.86,2.6,20.63,6.66,29.02,12.11,6.46,4.2,26.72,19.58,16.42,41.31-.52,1.09-1.19,2.13-2.01,3.11-4.96,5.97-14.41,8.55-21.09,9.96-8.7,1.85-18.46,3.1-29.84,3.82-1.59.1-3.17.19-4.75.27-24.76,1.24-48.68-1.05-71.12-6.81-.4-.09-.8-.2-1.2-.3l-.25-.07c-4.97-1.32-10.13-2.97-14.29-6.14-.26-.2-.52-.41-.77-.62-3.54-2.97-5.68-7.26-5.88-11.79-.17-4.06,1.3-7.85,4.13-10.67,2.42-2.4,5.59-3.88,8.93-4.17ZM303.78,217.41l-.53,5.66c-.25.11-.48.28-.65.52-6.24,8.91-22,6.81-34.66,5.13-.85-.12-1.68-.23-2.51-.34,6.72-.72,12.86-1.67,18.55-2.88,5.99-1.27,14.07-3.45,19.8-8.09ZM239.78,229.93c-1.89.44-3.67.89-5.38,1.33-9.4,2.4-16.84,4.3-29.85.85-4.26-1.12-8.45-2.8-12.51-4.42-2.86-1.14-5.82-2.32-8.8-3.31l-.48-.16c-.27-.09-.52-.17-.79-.26,17.22,3.99,35.25,6.02,53.83,6.02,1.32,0,2.65-.03,3.98-.05ZM171.91,221.37c-2.72-.32-5.69-.2-9.04.79l-.46-4.88c2.97,1.82,6.22,3.08,9.5,4.09ZM344.11,244.56c.75-.51,1.54-.96,2.38-1.34-.93,1.25-2.05,2.34-3.31,3.24-.37.27-.72.4-.94.44.03-.9,1.03-1.77,1.87-2.34Z"/>
  <path class="cls-1" d="M270.75,288.93c-5.66,0-10.27,4.61-10.27,10.27s4.61,10.27,10.27,10.27,10.27-4.61,10.27-10.27-4.6-10.27-10.27-10.27ZM270.75,306.47c-4.01,0-7.27-3.26-7.27-7.27s3.26-7.27,7.27-7.27,7.27,3.26,7.27,7.27-3.26,7.27-7.27,7.27Z"/>
  <path class="cls-1" d="M179.28,228.04c-5.66,0-10.27,4.61-10.27,10.27s4.61,10.27,10.27,10.27,10.27-4.61,10.27-10.27-4.6-10.27-10.27-10.27ZM179.28,245.58c-4.01,0-7.27-3.26-7.27-7.27s3.26-7.27,7.27-7.27,7.27,3.26,7.27,7.27-3.26,7.27-7.27,7.27Z"/>
  <path class="cls-1" d="M198.53,284.01c-5.66,0-10.27,4.61-10.27,10.27s4.61,10.27,10.27,10.27,10.27-4.61,10.27-10.27-4.6-10.27-10.27-10.27ZM198.53,301.55c-4.01,0-7.27-3.26-7.27-7.27s3.26-7.27,7.27-7.27,7.27,3.26,7.27,7.27-3.26,7.27-7.27,7.27Z"/>
</svg>