<?xml version="1.0" encoding="UTF-8"?>
<svg id="Layer_1" data-name="Layer 1" xmlns="http://www.w3.org/2000/svg" viewBox="0 0 466.37 485.37">
  <defs>
    <style>
      .cls-1 {
        fill: none;
        stroke: #988ec5;
        stroke-linecap: round;
        stroke-linejoin: round;
        stroke-width: 3px;
      }
    </style>
  </defs>
  <path class="cls-1" d="M222.36,129.13c-49.65,11.79-88.76,56.82-92.36,108.21-3.17,45.15,23.15,91.48,64.4,110.11,41.25,18.64,94.63,6.94,122.86-28.44,28.31-35.49,25.95-93.77-9.26-122.43-32.54-26.48-81.55-20.56-112.05,6.24-22.71,19.96-29.47,55.42-14.36,81.95,19.81,34.78,74.22,28.41,92.9-4.64,5.58-9.87,6.63-22.74.74-32.44-6.96-11.48-23.42-15.95-35.23-9.56-11.81,6.38-17.09,22.6-11.3,34.71"/>
</svg>