<?xml version="1.0" encoding="UTF-8"?>
<svg id="Layer_1" data-name="Layer 1" xmlns="http://www.w3.org/2000/svg" viewBox="0 0 466.37 485.37">
  <defs>
    <style>
      .cls-1 {
        fill: #fff;
      }

      .cls-2 {
        fill: #101010;
      }
    </style>
  </defs>
  <rect class="cls-2" x="-1.25" y="-.97" width="468.88" height="487.32"/>
  <g>
    <path class="cls-1" d="M119.72,244.6c-.77-.53-1.58-.98-2.43-1.37.95,1.27,2.09,2.39,3.39,3.32.38.26.72.4.95.45-.03-.93-1.07-1.81-1.91-2.4ZM162.03,262.64c-5.59-7.71-10.53-11.54-16.74-16.33-1.79-1.39-3.65-2.82-5.69-4.47-3.63-2.95-12.93-9.58-20.84-7.7-1.82.43-3.72,1.62-3.83,3.33-.04.53.04,1.11.24,1.76,2.23.59,4.37,1.54,6.27,2.84,2.11,1.43,3.21,3.06,3.26,4.84.02.82-.21,1.55-.65,2.1-1.11,1.42-3.19,1.43-5.15.03-2.58-1.83-4.64-4.3-5.98-7.17-2.83-.49-5.79-.32-8.51.58-2.06.69-3.46,1.66-4.13,2.89-.6,1.1-.68,2.59-.18,3.96,2.03,5.61,8.84,5.92,14.32,6.17,7.65.35,14.39,1.85,20.61,4.57,10.86,4.78,21.41,13.7,29.05,24.41-.69-7.38-1.37-14.62-2.05-21.81ZM188.77,318.95c-4.11,0-7.44,3.34-7.44,7.44s3.33,7.44,7.44,7.44,7.43-3.34,7.43-7.44-3.33-7.44-7.43-7.44ZM210.91,340.96c-.77.18-1.59.29-2.43.29-5.58,0-10.14-4.38-10.47-9.87-1.78,3.28-5.25,5.52-9.24,5.52-1.63,0-3.17-.39-4.55-1.06,4.58,5.29,9.97,9.82,15.98,13.41.01.01.02.01.03.01.04.02.08.05.11.07,2.67,1.59,5.46,3,8.35,4.2-.76-1.45-1.19-3.1-1.19-4.84,0-3.07,1.32-5.81,3.41-7.73ZM208.48,323.31c-4.09,0-7.43,3.34-7.43,7.44s3.34,7.43,7.43,7.43,7.44-3.33,7.44-7.43-3.34-7.44-7.44-7.44ZM218,341.25c-4.1,0-7.43,3.34-7.43,7.44s3.33,7.44,7.43,7.44,7.44-3.34,7.44-7.44-3.34-7.44-7.44-7.44ZM224.86,338.07c-.22-2.02.16-4.03,1.06-5.8h-.13c-2.34,0-4.67-.77-6.61-2.34-.08-.06-.16-.14-.25-.22.04.34.05.69.05,1.04,0,3.06-1.31,5.81-3.41,7.73.79-.19,1.59-.3,2.43-.3,3.21,0,6.1,1.46,8.02,3.74-.62-1.18-1.02-2.48-1.16-3.85ZM230.48,316c-1.38-1.12-3.04-1.66-4.68-1.66-2.16,0-4.31.94-5.78,2.75-1.25,1.55-1.82,3.48-1.62,5.45.21,1.98,1.17,3.76,2.71,5.01,3.18,2.58,7.88,2.09,10.46-1.09,2.59-3.19,2.09-7.88-1.09-10.46ZM239.99,331.21c-1.37-1.12-3.03-1.66-4.68-1.66-2.17,0-4.32.94-5.78,2.75-1.26,1.55-1.83,3.48-1.63,5.45.21,1.98,1.18,3.76,2.72,5.01,3.18,2.59,7.87,2.09,10.46-1.09,2.58-3.18,2.1-7.87-1.09-10.46ZM244.85,354.11c-2.59-2.1-3.91-5.18-3.88-8.29-1.71,1.1-3.68,1.66-5.68,1.66-2.32,0-4.66-.76-6.61-2.34-.52-.42-.98-.88-1.41-1.38.79,1.47,1.24,3.15,1.24,4.93,0,3.83-2.07,7.17-5.14,9,3.04.49,6.14.77,9.29.83h.47s.42,0,.42,0c5.5-.1,10.82-.89,15.92-2.26-1.64-.32-3.23-1.01-4.62-2.15ZM245.03,323.27c-.25.02-.5.04-.76.04-3.37,0-6.38-1.62-8.3-4.1.6,2.4.35,4.99-.79,7.28,2.37-.03,4.77.73,6.74,2.33,2.59,2.11,3.91,5.2,3.88,8.3.61-.4,1.27-.72,1.95-.97-3.89-3.17-4.9-8.57-2.72-12.88ZM244.27,305.37c-4.1,0-7.43,3.33-7.43,7.43s3.33,7.44,7.43,7.44,7.44-3.33,7.44-7.44-3.34-7.43-7.44-7.43ZM236.16,165.27c-2.45,0-4.91.1-7.31.31-.29,2.12-.48,4.2-.5,6.23,0,.81.14,1.53.41,2.16,2.5,5.58,11.01,6.55,16.11,5.85,3.77-.53,6.21-1.85,7.86-4.3,1.36-1.99,2.19-4.65,3.08-7.72-6.2-1.75-12.95-2.53-19.65-2.53ZM256.15,340.18c-1.37-1.12-3.03-1.66-4.68-1.66-2.16,0-4.31.94-5.78,2.75-2.58,3.18-2.09,7.88,1.09,10.46,3.18,2.59,7.88,2.1,10.46-1.09,2.58-3.18,2.09-7.87-1.09-10.46ZM257.57,95.47c-2.34-.72-4.81-.77-7.07-.25,2.16.9,4.49,1.46,6.87,1.64.39.03.61-.16.69-.55.04-.24.04-.66-.49-.84ZM231.76,150.9c-.17.77-.34,1.54-.52,2.34-.69,3.04-1.37,6.12-1.91,9.18,9.01-.7,18.57-.11,27.32,2.39.68-2.56,1.07-5.25,1.45-7.87.18-1.16.36-2.36.56-3.56-8.65-1.82-17.73-2.67-26.9-2.48ZM259.43,337.24c-.42.23-.86.42-1.31.6.62.5,1.15,1.06,1.62,1.65-.18-.72-.29-1.47-.31-2.25ZM259.09,322.24c-1.39-1.12-3.04-1.66-4.69-1.66-2.16,0-4.31.94-5.78,2.75-2.58,3.18-2.09,7.88,1.09,10.46,1.55,1.25,3.48,1.83,5.46,1.62,1.97-.2,3.75-1.16,5-2.71,2.59-3.18,2.1-7.88-1.08-10.46ZM261.64,343.42c.77,3.09.14,6.5-2.01,9.16l-.06.06c3.25-1.48,6.36-3.23,9.29-5.2-2.92-.29-5.5-1.81-7.22-4.02ZM269.93,329.55c-4.1,0-7.44,3.34-7.44,7.44s3.34,7.43,7.44,7.43,7.44-3.33,7.44-7.43-3.34-7.44-7.44-7.44ZM285.15,225.09c-5.85,1.25-12.06,2.22-18.92,2.96.81.11,1.65.23,2.51.34,12.95,1.72,29.08,3.87,35.46-5.25.17-.24.41-.42.66-.53.19-1.92.37-3.86.55-5.79-5.77,4.67-13.9,6.92-20.26,8.27ZM346.66,244.6c-.85.59-1.88,1.47-1.91,2.4.22-.05.58-.19.95-.45,1.3-.93,2.45-2.05,3.39-3.32-.85.39-1.66.84-2.43,1.37ZM366.1,245.34c-.68-1.23-2.07-2.2-4.13-2.89-2.73-.9-5.68-1.07-8.52-.58-1.34,2.87-3.39,5.34-5.97,7.17-1.96,1.4-4.03,1.39-5.16-.03-.44-.55-.66-1.28-.63-2.1.04-1.78,1.14-3.41,3.24-4.84,1.91-1.3,4.04-2.25,6.27-2.84.21-.65.29-1.23.25-1.76-.11-1.71-2.02-2.9-3.84-3.33-7.89-1.88-17.2,4.76-20.83,7.7-2.04,1.65-3.9,3.08-5.69,4.47-6.28,4.85-11.28,8.71-16.94,16.6-.68,7.23-1.36,14.5-2.05,21.81,7.65-10.83,18.29-19.86,29.26-24.68,6.21-2.72,12.95-4.22,20.6-4.57,5.47-.25,12.29-.56,14.31-6.17.5-1.37.43-2.86-.17-3.96ZM366.1,245.34c-.68-1.23-2.07-2.2-4.13-2.89-2.73-.9-5.68-1.07-8.52-.58-1.34,2.87-3.39,5.34-5.97,7.17-1.96,1.4-4.03,1.39-5.16-.03-.44-.55-.66-1.28-.63-2.1.04-1.78,1.14-3.41,3.24-4.84,1.91-1.3,4.04-2.25,6.27-2.84.21-.65.29-1.23.25-1.76-.11-1.71-2.02-2.9-3.84-3.33-7.89-1.88-17.2,4.76-20.83,7.7-2.04,1.65-3.9,3.08-5.69,4.47-6.28,4.85-11.28,8.71-16.94,16.6-.68,7.23-1.36,14.5-2.05,21.81,7.65-10.83,18.29-19.86,29.26-24.68,6.21-2.72,12.95-4.22,20.6-4.57,5.47-.25,12.29-.56,14.31-6.17.5-1.37.43-2.86-.17-3.96ZM346.66,244.6c-.85.59-1.88,1.47-1.91,2.4.22-.05.58-.19.95-.45,1.3-.93,2.45-2.05,3.39-3.32-.85.39-1.66.84-2.43,1.37ZM285.15,225.09c-5.85,1.25-12.06,2.22-18.92,2.96.81.11,1.65.23,2.51.34,12.95,1.72,29.08,3.87,35.46-5.25.17-.24.41-.42.66-.53.19-1.92.37-3.86.55-5.79-5.77,4.67-13.9,6.92-20.26,8.27ZM269.93,329.55c-4.1,0-7.44,3.34-7.44,7.44s3.34,7.43,7.44,7.43,7.44-3.33,7.44-7.43-3.34-7.44-7.44-7.44ZM261.64,343.42c.77,3.09.14,6.5-2.01,9.16l-.06.06c3.25-1.48,6.36-3.23,9.29-5.2-2.92-.29-5.5-1.81-7.22-4.02ZM259.09,322.24c-1.39-1.12-3.04-1.66-4.69-1.66-2.16,0-4.31.94-5.78,2.75-2.58,3.18-2.09,7.88,1.09,10.46,1.55,1.25,3.48,1.83,5.46,1.62,1.97-.2,3.75-1.16,5-2.71,2.59-3.18,2.1-7.88-1.08-10.46ZM259.43,337.24c-.42.23-.86.42-1.31.6.62.5,1.15,1.06,1.62,1.65-.18-.72-.29-1.47-.31-2.25ZM231.76,150.9c-.17.77-.34,1.54-.52,2.34-.69,3.04-1.37,6.12-1.91,9.18,9.01-.7,18.57-.11,27.32,2.39.68-2.56,1.07-5.25,1.45-7.87.18-1.16.36-2.36.56-3.56-8.65-1.82-17.73-2.67-26.9-2.48ZM257.57,95.47c-2.34-.72-4.81-.77-7.07-.25,2.16.9,4.49,1.46,6.87,1.64.39.03.61-.16.69-.55.04-.24.04-.66-.49-.84ZM256.15,340.18c-1.37-1.12-3.03-1.66-4.68-1.66-2.16,0-4.31.94-5.78,2.75-2.58,3.18-2.09,7.88,1.09,10.46,3.18,2.59,7.88,2.1,10.46-1.09,2.58-3.18,2.09-7.87-1.09-10.46ZM236.16,165.27c-2.45,0-4.91.1-7.31.31-.29,2.12-.48,4.2-.5,6.23,0,.81.14,1.53.41,2.16,2.5,5.58,11.01,6.55,16.11,5.85,3.77-.53,6.21-1.85,7.86-4.3,1.36-1.99,2.19-4.65,3.08-7.72-6.2-1.75-12.95-2.53-19.65-2.53ZM244.27,305.37c-4.1,0-7.43,3.33-7.43,7.43s3.33,7.44,7.43,7.44,7.44-3.33,7.44-7.44-3.34-7.43-7.44-7.43ZM245.03,323.27c-.25.02-.5.04-.76.04-3.37,0-6.38-1.62-8.3-4.1.6,2.4.35,4.99-.79,7.28,2.37-.03,4.77.73,6.74,2.33,2.59,2.11,3.91,5.2,3.88,8.3.61-.4,1.27-.72,1.95-.97-3.89-3.17-4.9-8.57-2.72-12.88ZM244.85,354.11c-2.59-2.1-3.91-5.18-3.88-8.29-1.71,1.1-3.68,1.66-5.68,1.66-2.32,0-4.66-.76-6.61-2.34-.52-.42-.98-.88-1.41-1.38.79,1.47,1.24,3.15,1.24,4.93,0,3.83-2.07,7.17-5.14,9,3.04.49,6.14.77,9.29.83h.47s.42,0,.42,0c5.5-.1,10.82-.89,15.92-2.26-1.64-.32-3.23-1.01-4.62-2.15ZM239.99,331.21c-1.37-1.12-3.03-1.66-4.68-1.66-2.17,0-4.32.94-5.78,2.75-1.26,1.55-1.83,3.48-1.63,5.45.21,1.98,1.18,3.76,2.72,5.01,3.18,2.59,7.87,2.09,10.46-1.09,2.58-3.18,2.1-7.87-1.09-10.46ZM230.48,316c-1.38-1.12-3.04-1.66-4.68-1.66-2.16,0-4.31.94-5.78,2.75-1.25,1.55-1.82,3.48-1.62,5.45.21,1.98,1.17,3.76,2.71,5.01,3.18,2.58,7.88,2.09,10.46-1.09,2.59-3.19,2.09-7.88-1.09-10.46ZM224.86,338.07c-.22-2.02.16-4.03,1.06-5.8h-.13c-2.34,0-4.67-.77-6.61-2.34-.08-.06-.16-.14-.25-.22.04.34.05.69.05,1.04,0,3.06-1.31,5.81-3.41,7.73.79-.19,1.59-.3,2.43-.3,3.21,0,6.1,1.46,8.02,3.74-.62-1.18-1.02-2.48-1.16-3.85ZM218,341.25c-4.1,0-7.43,3.34-7.43,7.44s3.33,7.44,7.43,7.44,7.44-3.34,7.44-7.44-3.34-7.44-7.44-7.44ZM208.48,323.31c-4.09,0-7.43,3.34-7.43,7.44s3.34,7.43,7.43,7.43,7.44-3.33,7.44-7.43-3.34-7.44-7.44-7.44ZM210.91,340.96c-.77.18-1.59.29-2.43.29-5.58,0-10.14-4.38-10.47-9.87-1.78,3.28-5.25,5.52-9.24,5.52-1.63,0-3.17-.39-4.55-1.06,4.58,5.29,9.97,9.82,15.98,13.41.01.01.02.01.03.01.04.02.08.05.11.07,2.67,1.59,5.46,3,8.35,4.2-.76-1.45-1.19-3.1-1.19-4.84,0-3.07,1.32-5.81,3.41-7.73ZM188.77,318.95c-4.11,0-7.44,3.34-7.44,7.44s3.33,7.44,7.44,7.44,7.43-3.34,7.43-7.44-3.33-7.44-7.43-7.44ZM162.03,262.64c-5.59-7.71-10.53-11.54-16.74-16.33-1.79-1.39-3.65-2.82-5.69-4.47-3.63-2.95-12.93-9.58-20.84-7.7-1.82.43-3.72,1.62-3.83,3.33-.04.53.04,1.11.24,1.76,2.23.59,4.37,1.54,6.27,2.84,2.11,1.43,3.21,3.06,3.26,4.84.02.82-.21,1.55-.65,2.1-1.11,1.42-3.19,1.43-5.15.03-2.58-1.83-4.64-4.3-5.98-7.17-2.83-.49-5.79-.32-8.51.58-2.06.69-3.46,1.66-4.13,2.89-.6,1.1-.68,2.59-.18,3.96,2.03,5.61,8.84,5.92,14.32,6.17,7.65.35,14.39,1.85,20.61,4.57,10.86,4.78,21.41,13.7,29.05,24.41-.69-7.38-1.37-14.62-2.05-21.81ZM119.72,244.6c-.77-.53-1.58-.98-2.43-1.37.95,1.27,2.09,2.39,3.39,3.32.38.26.72.4.95.45-.03-.93-1.07-1.81-1.91-2.4ZM119.72,244.6c-.77-.53-1.58-.98-2.43-1.37.95,1.27,2.09,2.39,3.39,3.32.38.26.72.4.95.45-.03-.93-1.07-1.81-1.91-2.4ZM162.03,262.64c-5.59-7.71-10.53-11.54-16.74-16.33-1.79-1.39-3.65-2.82-5.69-4.47-3.63-2.95-12.93-9.58-20.84-7.7-1.82.43-3.72,1.62-3.83,3.33-.04.53.04,1.11.24,1.76,2.23.59,4.37,1.54,6.27,2.84,2.11,1.43,3.21,3.06,3.26,4.84.02.82-.21,1.55-.65,2.1-1.11,1.42-3.19,1.43-5.15.03-2.58-1.83-4.64-4.3-5.98-7.17-2.83-.49-5.79-.32-8.51.58-2.06.69-3.46,1.66-4.13,2.89-.6,1.1-.68,2.59-.18,3.96,2.03,5.61,8.84,5.92,14.32,6.17,7.65.35,14.39,1.85,20.61,4.57,10.86,4.78,21.41,13.7,29.05,24.41-.69-7.38-1.37-14.62-2.05-21.81ZM188.77,318.95c-4.11,0-7.44,3.34-7.44,7.44s3.33,7.44,7.44,7.44,7.43-3.34,7.43-7.44-3.33-7.44-7.43-7.44ZM210.91,340.96c-.77.18-1.59.29-2.43.29-5.58,0-10.14-4.38-10.47-9.87-1.78,3.28-5.25,5.52-9.24,5.52-1.63,0-3.17-.39-4.55-1.06,4.58,5.29,9.97,9.82,15.98,13.41.01.01.02.01.03.01.04.02.08.05.11.07,2.67,1.59,5.46,3,8.35,4.2-.76-1.45-1.19-3.1-1.19-4.84,0-3.07,1.32-5.81,3.41-7.73ZM208.48,323.31c-4.09,0-7.43,3.34-7.43,7.44s3.34,7.43,7.43,7.43,7.44-3.33,7.44-7.43-3.34-7.44-7.44-7.44ZM218,341.25c-4.1,0-7.43,3.34-7.43,7.44s3.33,7.44,7.43,7.44,7.44-3.34,7.44-7.44-3.34-7.44-7.44-7.44ZM224.86,338.07c-.22-2.02.16-4.03,1.06-5.8h-.13c-2.34,0-4.67-.77-6.61-2.34-.08-.06-.16-.14-.25-.22.04.34.05.69.05,1.04,0,3.06-1.31,5.81-3.41,7.73.79-.19,1.59-.3,2.43-.3,3.21,0,6.1,1.46,8.02,3.74-.62-1.18-1.02-2.48-1.16-3.85ZM230.48,316c-1.38-1.12-3.04-1.66-4.68-1.66-2.16,0-4.31.94-5.78,2.75-1.25,1.55-1.82,3.48-1.62,5.45.21,1.98,1.17,3.76,2.71,5.01,3.18,2.58,7.88,2.09,10.46-1.09,2.59-3.19,2.09-7.88-1.09-10.46ZM239.99,331.21c-1.37-1.12-3.03-1.66-4.68-1.66-2.17,0-4.32.94-5.78,2.75-1.26,1.55-1.83,3.48-1.63,5.45.21,1.98,1.18,3.76,2.72,5.01,3.18,2.59,7.87,2.09,10.46-1.09,2.58-3.18,2.1-7.87-1.09-10.46ZM244.85,354.11c-2.59-2.1-3.91-5.18-3.88-8.29-1.71,1.1-3.68,1.66-5.68,1.66-2.32,0-4.66-.76-6.61-2.34-.52-.42-.98-.88-1.41-1.38.79,1.47,1.24,3.15,1.24,4.93,0,3.83-2.07,7.17-5.14,9,3.04.49,6.14.77,9.29.83h.47s.42,0,.42,0c5.5-.1,10.82-.89,15.92-2.26-1.64-.32-3.23-1.01-4.62-2.15ZM245.03,323.27c-.25.02-.5.04-.76.04-3.37,0-6.38-1.62-8.3-4.1.6,2.4.35,4.99-.79,7.28,2.37-.03,4.77.73,6.74,2.33,2.59,2.11,3.91,5.2,3.88,8.3.61-.4,1.27-.72,1.95-.97-3.89-3.17-4.9-8.57-2.72-12.88ZM244.27,305.37c-4.1,0-7.43,3.33-7.43,7.43s3.33,7.44,7.43,7.44,7.44-3.33,7.44-7.44-3.34-7.43-7.44-7.43ZM236.16,165.27c-2.45,0-4.91.1-7.31.31-.29,2.12-.48,4.2-.5,6.23,0,.81.14,1.53.41,2.16,2.5,5.58,11.01,6.55,16.11,5.85,3.77-.53,6.21-1.85,7.86-4.3,1.36-1.99,2.19-4.65,3.08-7.72-6.2-1.75-12.95-2.53-19.65-2.53ZM256.15,340.18c-1.37-1.12-3.03-1.66-4.68-1.66-2.16,0-4.31.94-5.78,2.75-2.58,3.18-2.09,7.88,1.09,10.46,3.18,2.59,7.88,2.1,10.46-1.09,2.58-3.18,2.09-7.87-1.09-10.46ZM257.57,95.47c-2.34-.72-4.81-.77-7.07-.25,2.16.9,4.49,1.46,6.87,1.64.39.03.61-.16.69-.55.04-.24.04-.66-.49-.84ZM231.76,150.9c-.17.77-.34,1.54-.52,2.34-.69,3.04-1.37,6.12-1.91,9.18,9.01-.7,18.57-.11,27.32,2.39.68-2.56,1.07-5.25,1.45-7.87.18-1.16.36-2.36.56-3.56-8.65-1.82-17.73-2.67-26.9-2.48ZM259.43,337.24c-.42.23-.86.42-1.31.6.62.5,1.15,1.06,1.62,1.65-.18-.72-.29-1.47-.31-2.25ZM259.09,322.24c-1.39-1.12-3.04-1.66-4.69-1.66-2.16,0-4.31.94-5.78,2.75-2.58,3.18-2.09,7.88,1.09,10.46,1.55,1.25,3.48,1.83,5.46,1.62,1.97-.2,3.75-1.16,5-2.71,2.59-3.18,2.1-7.88-1.08-10.46ZM261.64,343.42c.77,3.09.14,6.5-2.01,9.16l-.06.06c3.25-1.48,6.36-3.23,9.29-5.2-2.92-.29-5.5-1.81-7.22-4.02ZM269.93,329.55c-4.1,0-7.44,3.34-7.44,7.44s3.34,7.43,7.44,7.43,7.44-3.33,7.44-7.43-3.34-7.44-7.44-7.44ZM285.15,225.09c-5.85,1.25-12.06,2.22-18.92,2.96.81.11,1.65.23,2.51.34,12.95,1.72,29.08,3.87,35.46-5.25.17-.24.41-.42.66-.53.19-1.92.37-3.86.55-5.79-5.77,4.67-13.9,6.92-20.26,8.27ZM346.66,244.6c-.85.59-1.88,1.47-1.91,2.4.22-.05.58-.19.95-.45,1.3-.93,2.45-2.05,3.39-3.32-.85.39-1.66.84-2.43,1.37ZM366.1,245.34c-.68-1.23-2.07-2.2-4.13-2.89-2.73-.9-5.68-1.07-8.52-.58-1.34,2.87-3.39,5.34-5.97,7.17-1.96,1.4-4.03,1.39-5.16-.03-.44-.55-.66-1.28-.63-2.1.04-1.78,1.14-3.41,3.24-4.84,1.91-1.3,4.04-2.25,6.27-2.84.21-.65.29-1.23.25-1.76-.11-1.71-2.02-2.9-3.84-3.33-7.89-1.88-17.2,4.76-20.83,7.7-2.04,1.65-3.9,3.08-5.69,4.47-6.28,4.85-11.28,8.71-16.94,16.6-.68,7.23-1.36,14.5-2.05,21.81,7.65-10.83,18.29-19.86,29.26-24.68,6.21-2.72,12.95-4.22,20.6-4.57,5.47-.25,12.29-.56,14.31-6.17.5-1.37.43-2.86-.17-3.96ZM366.1,245.34c-.68-1.23-2.07-2.2-4.13-2.89-2.73-.9-5.68-1.07-8.52-.58-1.34,2.87-3.39,5.34-5.97,7.17-1.96,1.4-4.03,1.39-5.16-.03-.44-.55-.66-1.28-.63-2.1.04-1.78,1.14-3.41,3.24-4.84,1.91-1.3,4.04-2.25,6.27-2.84.21-.65.29-1.23.25-1.76-.11-1.71-2.02-2.9-3.84-3.33-7.89-1.88-17.2,4.76-20.83,7.7-2.04,1.65-3.9,3.08-5.69,4.47-6.28,4.85-11.28,8.71-16.94,16.6-.68,7.23-1.36,14.5-2.05,21.81,7.65-10.83,18.29-19.86,29.26-24.68,6.21-2.72,12.95-4.22,20.6-4.57,5.47-.25,12.29-.56,14.31-6.17.5-1.37.43-2.86-.17-3.96ZM346.66,244.6c-.85.59-1.88,1.47-1.91,2.4.22-.05.58-.19.95-.45,1.3-.93,2.45-2.05,3.39-3.32-.85.39-1.66.84-2.43,1.37ZM285.15,225.09c-5.85,1.25-12.06,2.22-18.92,2.96.81.11,1.65.23,2.51.34,12.95,1.72,29.08,3.87,35.46-5.25.17-.24.41-.42.66-.53.19-1.92.37-3.86.55-5.79-5.77,4.67-13.9,6.92-20.26,8.27ZM269.93,329.55c-4.1,0-7.44,3.34-7.44,7.44s3.34,7.43,7.44,7.43,7.44-3.33,7.44-7.43-3.34-7.44-7.44-7.44ZM261.64,343.42c.77,3.09.14,6.5-2.01,9.16l-.06.06c3.25-1.48,6.36-3.23,9.29-5.2-2.92-.29-5.5-1.81-7.22-4.02ZM259.09,322.24c-1.39-1.12-3.04-1.66-4.69-1.66-2.16,0-4.31.94-5.78,2.75-2.58,3.18-2.09,7.88,1.09,10.46,1.55,1.25,3.48,1.83,5.46,1.62,1.97-.2,3.75-1.16,5-2.71,2.59-3.18,2.1-7.88-1.08-10.46ZM259.43,337.24c-.42.23-.86.42-1.31.6.62.5,1.15,1.06,1.62,1.65-.18-.72-.29-1.47-.31-2.25ZM231.76,150.9c-.17.77-.34,1.54-.52,2.34-.69,3.04-1.37,6.12-1.91,9.18,9.01-.7,18.57-.11,27.32,2.39.68-2.56,1.07-5.25,1.45-7.87.18-1.16.36-2.36.56-3.56-8.65-1.82-17.73-2.67-26.9-2.48ZM257.57,95.47c-2.34-.72-4.81-.77-7.07-.25,2.16.9,4.49,1.46,6.87,1.64.39.03.61-.16.69-.55.04-.24.04-.66-.49-.84ZM256.15,340.18c-1.37-1.12-3.03-1.66-4.68-1.66-2.16,0-4.31.94-5.78,2.75-2.58,3.18-2.09,7.88,1.09,10.46,3.18,2.59,7.88,2.1,10.46-1.09,2.58-3.18,2.09-7.87-1.09-10.46ZM236.16,165.27c-2.45,0-4.91.1-7.31.31-.29,2.12-.48,4.2-.5,6.23,0,.81.14,1.53.41,2.16,2.5,5.58,11.01,6.55,16.11,5.85,3.77-.53,6.21-1.85,7.86-4.3,1.36-1.99,2.19-4.65,3.08-7.72-6.2-1.75-12.95-2.53-19.65-2.53ZM244.27,305.37c-4.1,0-7.43,3.33-7.43,7.43s3.33,7.44,7.43,7.44,7.44-3.33,7.44-7.44-3.34-7.43-7.44-7.43ZM245.03,323.27c-.25.02-.5.04-.76.04-3.37,0-6.38-1.62-8.3-4.1.6,2.4.35,4.99-.79,7.28,2.37-.03,4.77.73,6.74,2.33,2.59,2.11,3.91,5.2,3.88,8.3.61-.4,1.27-.72,1.95-.97-3.89-3.17-4.9-8.57-2.72-12.88ZM244.85,354.11c-2.59-2.1-3.91-5.18-3.88-8.29-1.71,1.1-3.68,1.66-5.68,1.66-2.32,0-4.66-.76-6.61-2.34-.52-.42-.98-.88-1.41-1.38.79,1.47,1.24,3.15,1.24,4.93,0,3.83-2.07,7.17-5.14,9,3.04.49,6.14.77,9.29.83h.47s.42,0,.42,0c5.5-.1,10.82-.89,15.92-2.26-1.64-.32-3.23-1.01-4.62-2.15ZM239.99,331.21c-1.37-1.12-3.03-1.66-4.68-1.66-2.17,0-4.32.94-5.78,2.75-1.26,1.55-1.83,3.48-1.63,5.45.21,1.98,1.18,3.76,2.72,5.01,3.18,2.59,7.87,2.09,10.46-1.09,2.58-3.18,2.1-7.87-1.09-10.46ZM230.48,316c-1.38-1.12-3.04-1.66-4.68-1.66-2.16,0-4.31.94-5.78,2.75-1.25,1.55-1.82,3.48-1.62,5.45.21,1.98,1.17,3.76,2.71,5.01,3.18,2.58,7.88,2.09,10.46-1.09,2.59-3.19,2.09-7.88-1.09-10.46ZM224.86,338.07c-.22-2.02.16-4.03,1.06-5.8h-.13c-2.34,0-4.67-.77-6.61-2.34-.08-.06-.16-.14-.25-.22.04.34.05.69.05,1.04,0,3.06-1.31,5.81-3.41,7.73.79-.19,1.59-.3,2.43-.3,3.21,0,6.1,1.46,8.02,3.74-.62-1.18-1.02-2.48-1.16-3.85ZM218,341.25c-4.1,0-7.43,3.34-7.43,7.44s3.33,7.44,7.43,7.44,7.44-3.34,7.44-7.44-3.34-7.44-7.44-7.44ZM208.48,323.31c-4.09,0-7.43,3.34-7.43,7.44s3.34,7.43,7.43,7.43,7.44-3.33,7.44-7.43-3.34-7.44-7.44-7.44ZM210.91,340.96c-.77.18-1.59.29-2.43.29-5.58,0-10.14-4.38-10.47-9.87-1.78,3.28-5.25,5.52-9.24,5.52-1.63,0-3.17-.39-4.55-1.06,4.58,5.29,9.97,9.82,15.98,13.41.01.01.02.01.03.01.04.02.08.05.11.07,2.67,1.59,5.46,3,8.35,4.2-.76-1.45-1.19-3.1-1.19-4.84,0-3.07,1.32-5.81,3.41-7.73ZM188.77,318.95c-4.11,0-7.44,3.34-7.44,7.44s3.33,7.44,7.44,7.44,7.43-3.34,7.43-7.44-3.33-7.44-7.43-7.44ZM162.03,262.64c-5.59-7.71-10.53-11.54-16.74-16.33-1.79-1.39-3.65-2.82-5.69-4.47-3.63-2.95-12.93-9.58-20.84-7.7-1.82.43-3.72,1.62-3.83,3.33-.04.53.04,1.11.24,1.76,2.23.59,4.37,1.54,6.27,2.84,2.11,1.43,3.21,3.06,3.26,4.84.02.82-.21,1.55-.65,2.1-1.11,1.42-3.19,1.43-5.15.03-2.58-1.83-4.64-4.3-5.98-7.17-2.83-.49-5.79-.32-8.51.58-2.06.69-3.46,1.66-4.13,2.89-.6,1.1-.68,2.59-.18,3.96,2.03,5.61,8.84,5.92,14.32,6.17,7.65.35,14.39,1.85,20.61,4.57,10.86,4.78,21.41,13.7,29.05,24.41-.69-7.38-1.37-14.62-2.05-21.81ZM119.72,244.6c-.77-.53-1.58-.98-2.43-1.37.95,1.27,2.09,2.39,3.39,3.32.38.26.72.4.95.45-.03-.93-1.07-1.81-1.91-2.4ZM366.1,245.34c-.68-1.23-2.07-2.2-4.13-2.89-2.73-.9-5.68-1.07-8.52-.58-1.34,2.87-3.39,5.34-5.97,7.17-1.96,1.4-4.03,1.39-5.16-.03-.44-.55-.66-1.28-.63-2.1.04-1.78,1.14-3.41,3.24-4.84,1.91-1.3,4.04-2.25,6.27-2.84.21-.65.29-1.23.25-1.76-.11-1.71-2.02-2.9-3.84-3.33-7.89-1.88-17.2,4.76-20.83,7.7-2.04,1.65-3.9,3.08-5.69,4.47-6.28,4.85-11.28,8.71-16.94,16.6-.68,7.23-1.36,14.5-2.05,21.81,7.65-10.83,18.29-19.86,29.26-24.68,6.21-2.72,12.95-4.22,20.6-4.57,5.47-.25,12.29-.56,14.31-6.17.5-1.37.43-2.86-.17-3.96ZM346.66,244.6c-.85.59-1.88,1.47-1.91,2.4.22-.05.58-.19.95-.45,1.3-.93,2.45-2.05,3.39-3.32-.85.39-1.66.84-2.43,1.37ZM285.15,225.09c-5.85,1.25-12.06,2.22-18.92,2.96.81.11,1.65.23,2.51.34,12.95,1.72,29.08,3.87,35.46-5.25.17-.24.41-.42.66-.53.19-1.92.37-3.86.55-5.79-5.77,4.67-13.9,6.92-20.26,8.27ZM269.93,329.55c-4.1,0-7.44,3.34-7.44,7.44s3.34,7.43,7.44,7.43,7.44-3.33,7.44-7.43-3.34-7.44-7.44-7.44ZM261.64,343.42c.77,3.09.14,6.5-2.01,9.16l-.06.06c3.25-1.48,6.36-3.23,9.29-5.2-2.92-.29-5.5-1.81-7.22-4.02ZM259.09,322.24c-1.39-1.12-3.04-1.66-4.69-1.66-2.16,0-4.31.94-5.78,2.75-2.58,3.18-2.09,7.88,1.09,10.46,1.55,1.25,3.48,1.83,5.46,1.62,1.97-.2,3.75-1.16,5-2.71,2.59-3.18,2.1-7.88-1.08-10.46ZM259.43,337.24c-.42.23-.86.42-1.31.6.62.5,1.15,1.06,1.62,1.65-.18-.72-.29-1.47-.31-2.25ZM231.76,150.9c-.17.77-.34,1.54-.52,2.34-.69,3.04-1.37,6.12-1.91,9.18,9.01-.7,18.57-.11,27.32,2.39.68-2.56,1.07-5.25,1.45-7.87.18-1.16.36-2.36.56-3.56-8.65-1.82-17.73-2.67-26.9-2.48ZM257.57,95.47c-2.34-.72-4.81-.77-7.07-.25,2.16.9,4.49,1.46,6.87,1.64.39.03.61-.16.69-.55.04-.24.04-.66-.49-.84ZM256.15,340.18c-1.37-1.12-3.03-1.66-4.68-1.66-2.16,0-4.31.94-5.78,2.75-2.58,3.18-2.09,7.88,1.09,10.46,3.18,2.59,7.88,2.1,10.46-1.09,2.58-3.18,2.09-7.87-1.09-10.46ZM236.16,165.27c-2.45,0-4.91.1-7.31.31-.29,2.12-.48,4.2-.5,6.23,0,.81.14,1.53.41,2.16,2.5,5.58,11.01,6.55,16.11,5.85,3.77-.53,6.21-1.85,7.86-4.3,1.36-1.99,2.19-4.65,3.08-7.72-6.2-1.75-12.95-2.53-19.65-2.53ZM244.27,305.37c-4.1,0-7.43,3.33-7.43,7.43s3.33,7.44,7.43,7.44,7.44-3.33,7.44-7.44-3.34-7.43-7.44-7.43ZM245.03,323.27c-.25.02-.5.04-.76.04-3.37,0-6.38-1.62-8.3-4.1.6,2.4.35,4.99-.79,7.28,2.37-.03,4.77.73,6.74,2.33,2.59,2.11,3.91,5.2,3.88,8.3.61-.4,1.27-.72,1.95-.97-3.89-3.17-4.9-8.57-2.72-12.88ZM244.85,354.11c-2.59-2.1-3.91-5.18-3.88-8.29-1.71,1.1-3.68,1.66-5.68,1.66-2.32,0-4.66-.76-6.61-2.34-.52-.42-.98-.88-1.41-1.38.79,1.47,1.24,3.15,1.24,4.93,0,3.83-2.07,7.17-5.14,9,3.04.49,6.14.77,9.29.83h.47s.42,0,.42,0c5.5-.1,10.82-.89,15.92-2.26-1.64-.32-3.23-1.01-4.62-2.15ZM239.99,331.21c-1.37-1.12-3.03-1.66-4.68-1.66-2.17,0-4.32.94-5.78,2.75-1.26,1.55-1.83,3.48-1.63,5.45.21,1.98,1.18,3.76,2.72,5.01,3.18,2.59,7.87,2.09,10.46-1.09,2.58-3.18,2.1-7.87-1.09-10.46ZM230.48,316c-1.38-1.12-3.04-1.66-4.68-1.66-2.16,0-4.31.94-5.78,2.75-1.25,1.55-1.82,3.48-1.62,5.45.21,1.98,1.17,3.76,2.71,5.01,3.18,2.58,7.88,2.09,10.46-1.09,2.59-3.19,2.09-7.88-1.09-10.46ZM224.86,338.07c-.22-2.02.16-4.03,1.06-5.8h-.13c-2.34,0-4.67-.77-6.61-2.34-.08-.06-.16-.14-.25-.22.04.34.05.69.05,1.04,0,3.06-1.31,5.81-3.41,7.73.79-.19,1.59-.3,2.43-.3,3.21,0,6.1,1.46,8.02,3.74-.62-1.18-1.02-2.48-1.16-3.85ZM218,341.25c-4.1,0-7.43,3.34-7.43,7.44s3.33,7.44,7.43,7.44,7.44-3.34,7.44-7.44-3.34-7.44-7.44-7.44ZM208.48,323.31c-4.09,0-7.43,3.34-7.43,7.44s3.34,7.43,7.43,7.43,7.44-3.33,7.44-7.43-3.34-7.44-7.44-7.44ZM210.91,340.96c-.77.18-1.59.29-2.43.29-5.58,0-10.14-4.38-10.47-9.87-1.78,3.28-5.25,5.52-9.24,5.52-1.63,0-3.17-.39-4.55-1.06,4.58,5.29,9.97,9.82,15.98,13.41.01.01.02.01.03.01.04.02.08.05.11.07,2.67,1.59,5.46,3,8.35,4.2-.76-1.45-1.19-3.1-1.19-4.84,0-3.07,1.32-5.81,3.41-7.73ZM188.77,318.95c-4.11,0-7.44,3.34-7.44,7.44s3.33,7.44,7.44,7.44,7.43-3.34,7.43-7.44-3.33-7.44-7.43-7.44ZM162.03,262.64c-5.59-7.71-10.53-11.54-16.74-16.33-1.79-1.39-3.65-2.82-5.69-4.47-3.63-2.95-12.93-9.58-20.84-7.7-1.82.43-3.72,1.62-3.83,3.33-.04.53.04,1.11.24,1.76,2.23.59,4.37,1.54,6.27,2.84,2.11,1.43,3.21,3.06,3.26,4.84.02.82-.21,1.55-.65,2.1-1.11,1.42-3.19,1.43-5.15.03-2.58-1.83-4.64-4.3-5.98-7.17-2.83-.49-5.79-.32-8.51.58-2.06.69-3.46,1.66-4.13,2.89-.6,1.1-.68,2.59-.18,3.96,2.03,5.61,8.84,5.92,14.32,6.17,7.65.35,14.39,1.85,20.61,4.57,10.86,4.78,21.41,13.7,29.05,24.41-.69-7.38-1.37-14.62-2.05-21.81ZM119.72,244.6c-.77-.53-1.58-.98-2.43-1.37.95,1.27,2.09,2.39,3.39,3.32.38.26.72.4.95.45-.03-.93-1.07-1.81-1.91-2.4ZM119.72,244.6c-.77-.53-1.58-.98-2.43-1.37.95,1.27,2.09,2.39,3.39,3.32.38.26.72.4.95.45-.03-.93-1.07-1.81-1.91-2.4ZM162.03,262.64c-5.59-7.71-10.53-11.54-16.74-16.33-1.79-1.39-3.65-2.82-5.69-4.47-3.63-2.95-12.93-9.58-20.84-7.7-1.82.43-3.72,1.62-3.83,3.33-.04.53.04,1.11.24,1.76,2.23.59,4.37,1.54,6.27,2.84,2.11,1.43,3.21,3.06,3.26,4.84.02.82-.21,1.55-.65,2.1-1.11,1.42-3.19,1.43-5.15.03-2.58-1.83-4.64-4.3-5.98-7.17-2.83-.49-5.79-.32-8.51.58-2.06.69-3.46,1.66-4.13,2.89-.6,1.1-.68,2.59-.18,3.96,2.03,5.61,8.84,5.92,14.32,6.17,7.65.35,14.39,1.85,20.61,4.57,10.86,4.78,21.41,13.7,29.05,24.41-.69-7.38-1.37-14.62-2.05-21.81ZM188.77,318.95c-4.11,0-7.44,3.34-7.44,7.44s3.33,7.44,7.44,7.44,7.43-3.34,7.43-7.44-3.33-7.44-7.43-7.44ZM210.91,340.96c-.77.18-1.59.29-2.43.29-5.58,0-10.14-4.38-10.47-9.87-1.78,3.28-5.25,5.52-9.24,5.52-1.63,0-3.17-.39-4.55-1.06,4.58,5.29,9.97,9.82,15.98,13.41.01.01.02.01.03.01.04.02.08.05.11.07,2.67,1.59,5.46,3,8.35,4.2-.76-1.45-1.19-3.1-1.19-4.84,0-3.07,1.32-5.81,3.41-7.73ZM208.48,323.31c-4.09,0-7.43,3.34-7.43,7.44s3.34,7.43,7.43,7.43,7.44-3.33,7.44-7.43-3.34-7.44-7.44-7.44ZM218,341.25c-4.1,0-7.43,3.34-7.43,7.44s3.33,7.44,7.43,7.44,7.44-3.34,7.44-7.44-3.34-7.44-7.44-7.44ZM224.86,338.07c-.22-2.02.16-4.03,1.06-5.8h-.13c-2.34,0-4.67-.77-6.61-2.34-.08-.06-.16-.14-.25-.22.04.34.05.69.05,1.04,0,3.06-1.31,5.81-3.41,7.73.79-.19,1.59-.3,2.43-.3,3.21,0,6.1,1.46,8.02,3.74-.62-1.18-1.02-2.48-1.16-3.85ZM230.48,316c-1.38-1.12-3.04-1.66-4.68-1.66-2.16,0-4.31.94-5.78,2.75-1.25,1.55-1.82,3.48-1.62,5.45.21,1.98,1.17,3.76,2.71,5.01,3.18,2.58,7.88,2.09,10.46-1.09,2.59-3.19,2.09-7.88-1.09-10.46ZM239.99,331.21c-1.37-1.12-3.03-1.66-4.68-1.66-2.17,0-4.32.94-5.78,2.75-1.26,1.55-1.83,3.48-1.63,5.45.21,1.98,1.18,3.76,2.72,5.01,3.18,2.59,7.87,2.09,10.46-1.09,2.58-3.18,2.1-7.87-1.09-10.46ZM244.85,354.11c-2.59-2.1-3.91-5.18-3.88-8.29-1.71,1.1-3.68,1.66-5.68,1.66-2.32,0-4.66-.76-6.61-2.34-.52-.42-.98-.88-1.41-1.38.79,1.47,1.24,3.15,1.24,4.93,0,3.83-2.07,7.17-5.14,9,3.04.49,6.14.77,9.29.83h.47s.42,0,.42,0c5.5-.1,10.82-.89,15.92-2.26-1.64-.32-3.23-1.01-4.62-2.15ZM245.03,323.27c-.25.02-.5.04-.76.04-3.37,0-6.38-1.62-8.3-4.1.6,2.4.35,4.99-.79,7.28,2.37-.03,4.77.73,6.74,2.33,2.59,2.11,3.91,5.2,3.88,8.3.61-.4,1.27-.72,1.95-.97-3.89-3.17-4.9-8.57-2.72-12.88ZM244.27,305.37c-4.1,0-7.43,3.33-7.43,7.43s3.33,7.44,7.43,7.44,7.44-3.33,7.44-7.44-3.34-7.43-7.44-7.43ZM236.16,165.27c-2.45,0-4.91.1-7.31.31-.29,2.12-.48,4.2-.5,6.23,0,.81.14,1.53.41,2.16,2.5,5.58,11.01,6.55,16.11,5.85,3.77-.53,6.21-1.85,7.86-4.3,1.36-1.99,2.19-4.65,3.08-7.72-6.2-1.75-12.95-2.53-19.65-2.53ZM256.15,340.18c-1.37-1.12-3.03-1.66-4.68-1.66-2.16,0-4.31.94-5.78,2.75-2.58,3.18-2.09,7.88,1.09,10.46,3.18,2.59,7.88,2.1,10.46-1.09,2.58-3.18,2.09-7.87-1.09-10.46ZM257.57,95.47c-2.34-.72-4.81-.77-7.07-.25,2.16.9,4.49,1.46,6.87,1.64.39.03.61-.16.69-.55.04-.24.04-.66-.49-.84ZM231.76,150.9c-.17.77-.34,1.54-.52,2.34-.69,3.04-1.37,6.12-1.91,9.18,9.01-.7,18.57-.11,27.32,2.39.68-2.56,1.07-5.25,1.45-7.87.18-1.16.36-2.36.56-3.56-8.65-1.82-17.73-2.67-26.9-2.48ZM259.43,337.24c-.42.23-.86.42-1.31.6.62.5,1.15,1.06,1.62,1.65-.18-.72-.29-1.47-.31-2.25ZM259.09,322.24c-1.39-1.12-3.04-1.66-4.69-1.66-2.16,0-4.31.94-5.78,2.75-2.58,3.18-2.09,7.88,1.09,10.46,1.55,1.25,3.48,1.83,5.46,1.62,1.97-.2,3.75-1.16,5-2.71,2.59-3.18,2.1-7.88-1.08-10.46ZM261.64,343.42c.77,3.09.14,6.5-2.01,9.16l-.06.06c3.25-1.48,6.36-3.23,9.29-5.2-2.92-.29-5.5-1.81-7.22-4.02ZM269.93,329.55c-4.1,0-7.44,3.34-7.44,7.44s3.34,7.43,7.44,7.43,7.44-3.33,7.44-7.43-3.34-7.44-7.44-7.44ZM285.15,225.09c-5.85,1.25-12.06,2.22-18.92,2.96.81.11,1.65.23,2.51.34,12.95,1.72,29.08,3.87,35.46-5.25.17-.24.41-.42.66-.53.19-1.92.37-3.86.55-5.79-5.77,4.67-13.9,6.92-20.26,8.27ZM346.66,244.6c-.85.59-1.88,1.47-1.91,2.4.22-.05.58-.19.95-.45,1.3-.93,2.45-2.05,3.39-3.32-.85.39-1.66.84-2.43,1.37ZM366.1,245.34c-.68-1.23-2.07-2.2-4.13-2.89-2.73-.9-5.68-1.07-8.52-.58-1.34,2.87-3.39,5.34-5.97,7.17-1.96,1.4-4.03,1.39-5.16-.03-.44-.55-.66-1.28-.63-2.1.04-1.78,1.14-3.41,3.24-4.84,1.91-1.3,4.04-2.25,6.27-2.84.21-.65.29-1.23.25-1.76-.11-1.71-2.02-2.9-3.84-3.33-7.89-1.88-17.2,4.76-20.83,7.7-2.04,1.65-3.9,3.08-5.69,4.47-6.28,4.85-11.28,8.71-16.94,16.6-.68,7.23-1.36,14.5-2.05,21.81,7.65-10.83,18.29-19.86,29.26-24.68,6.21-2.72,12.95-4.22,20.6-4.57,5.47-.25,12.29-.56,14.31-6.17.5-1.37.43-2.86-.17-3.96ZM366.1,245.34c-.68-1.23-2.07-2.2-4.13-2.89-2.73-.9-5.68-1.07-8.52-.58-1.34,2.87-3.39,5.34-5.97,7.17-1.96,1.4-4.03,1.39-5.16-.03-.44-.55-.66-1.28-.63-2.1.04-1.78,1.14-3.41,3.24-4.84,1.91-1.3,4.04-2.25,6.27-2.84.21-.65.29-1.23.25-1.76-.11-1.71-2.02-2.9-3.84-3.33-7.89-1.88-17.2,4.76-20.83,7.7-2.04,1.65-3.9,3.08-5.69,4.47-6.28,4.85-11.28,8.71-16.94,16.6-.68,7.23-1.36,14.5-2.05,21.81,7.65-10.83,18.29-19.86,29.26-24.68,6.21-2.72,12.95-4.22,20.6-4.57,5.47-.25,12.29-.56,14.31-6.17.5-1.37.43-2.86-.17-3.96ZM346.66,244.6c-.85.59-1.88,1.47-1.91,2.4.22-.05.58-.19.95-.45,1.3-.93,2.45-2.05,3.39-3.32-.85.39-1.66.84-2.43,1.37ZM285.15,225.09c-5.85,1.25-12.06,2.22-18.92,2.96.81.11,1.65.23,2.51.34,12.95,1.72,29.08,3.87,35.46-5.25.17-.24.41-.42.66-.53.19-1.92.37-3.86.55-5.79-5.77,4.67-13.9,6.92-20.26,8.27ZM269.93,329.55c-4.1,0-7.44,3.34-7.44,7.44s3.34,7.43,7.44,7.43,7.44-3.33,7.44-7.43-3.34-7.44-7.44-7.44ZM261.64,343.42c.77,3.09.14,6.5-2.01,9.16l-.06.06c3.25-1.48,6.36-3.23,9.29-5.2-2.92-.29-5.5-1.81-7.22-4.02ZM259.09,322.24c-1.39-1.12-3.04-1.66-4.69-1.66-2.16,0-4.31.94-5.78,2.75-2.58,3.18-2.09,7.88,1.09,10.46,1.55,1.25,3.48,1.83,5.46,1.62,1.97-.2,3.75-1.16,5-2.71,2.59-3.18,2.1-7.88-1.08-10.46ZM259.43,337.24c-.42.23-.86.42-1.31.6.62.5,1.15,1.06,1.62,1.65-.18-.72-.29-1.47-.31-2.25ZM231.76,150.9c-.17.77-.34,1.54-.52,2.34-.69,3.04-1.37,6.12-1.91,9.18,9.01-.7,18.57-.11,27.32,2.39.68-2.56,1.07-5.25,1.45-7.87.18-1.16.36-2.36.56-3.56-8.65-1.82-17.73-2.67-26.9-2.48ZM257.57,95.47c-2.34-.72-4.81-.77-7.07-.25,2.16.9,4.49,1.46,6.87,1.64.39.03.61-.16.69-.55.04-.24.04-.66-.49-.84ZM256.15,340.18c-1.37-1.12-3.03-1.66-4.68-1.66-2.16,0-4.31.94-5.78,2.75-2.58,3.18-2.09,7.88,1.09,10.46,3.18,2.59,7.88,2.1,10.46-1.09,2.58-3.18,2.09-7.87-1.09-10.46ZM236.16,165.27c-2.45,0-4.91.1-7.31.31-.29,2.12-.48,4.2-.5,6.23,0,.81.14,1.53.41,2.16,2.5,5.58,11.01,6.55,16.11,5.85,3.77-.53,6.21-1.85,7.86-4.3,1.36-1.99,2.19-4.65,3.08-7.72-6.2-1.75-12.95-2.53-19.65-2.53ZM244.27,305.37c-4.1,0-7.43,3.33-7.43,7.43s3.33,7.44,7.43,7.44,7.44-3.33,7.44-7.44-3.34-7.43-7.44-7.43ZM245.03,323.27c-.25.02-.5.04-.76.04-3.37,0-6.38-1.62-8.3-4.1.6,2.4.35,4.99-.79,7.28,2.37-.03,4.77.73,6.74,2.33,2.59,2.11,3.91,5.2,3.88,8.3.61-.4,1.27-.72,1.95-.97-3.89-3.17-4.9-8.57-2.72-12.88ZM244.85,354.11c-2.59-2.1-3.91-5.18-3.88-8.29-1.71,1.1-3.68,1.66-5.68,1.66-2.32,0-4.66-.76-6.61-2.34-.52-.42-.98-.88-1.41-1.38.79,1.47,1.24,3.15,1.24,4.93,0,3.83-2.07,7.17-5.14,9,3.04.49,6.14.77,9.29.83h.47s.42,0,.42,0c5.5-.1,10.82-.89,15.92-2.26-1.64-.32-3.23-1.01-4.62-2.15ZM239.99,331.21c-1.37-1.12-3.03-1.66-4.68-1.66-2.17,0-4.32.94-5.78,2.75-1.26,1.55-1.83,3.48-1.63,5.45.21,1.98,1.18,3.76,2.72,5.01,3.18,2.59,7.87,2.09,10.46-1.09,2.58-3.18,2.1-7.87-1.09-10.46ZM230.48,316c-1.38-1.12-3.04-1.66-4.68-1.66-2.16,0-4.31.94-5.78,2.75-1.25,1.55-1.82,3.48-1.62,5.45.21,1.98,1.17,3.76,2.71,5.01,3.18,2.58,7.88,2.09,10.46-1.09,2.59-3.19,2.09-7.88-1.09-10.46ZM224.86,338.07c-.22-2.02.16-4.03,1.06-5.8h-.13c-2.34,0-4.67-.77-6.61-2.34-.08-.06-.16-.14-.25-.22.04.34.05.69.05,1.04,0,3.06-1.31,5.81-3.41,7.73.79-.19,1.59-.3,2.43-.3,3.21,0,6.1,1.46,8.02,3.74-.62-1.18-1.02-2.48-1.16-3.85ZM218,341.25c-4.1,0-7.43,3.34-7.43,7.44s3.33,7.44,7.43,7.44,7.44-3.34,7.44-7.44-3.34-7.44-7.44-7.44ZM208.48,323.31c-4.09,0-7.43,3.34-7.43,7.44s3.34,7.43,7.43,7.43,7.44-3.33,7.44-7.43-3.34-7.44-7.44-7.44ZM210.91,340.96c-.77.18-1.59.29-2.43.29-5.58,0-10.14-4.38-10.47-9.87-1.78,3.28-5.25,5.52-9.24,5.52-1.63,0-3.17-.39-4.55-1.06,4.58,5.29,9.97,9.82,15.98,13.41.01.01.02.01.03.01.04.02.08.05.11.07,2.67,1.59,5.46,3,8.35,4.2-.76-1.45-1.19-3.1-1.19-4.84,0-3.07,1.32-5.81,3.41-7.73ZM188.77,318.95c-4.11,0-7.44,3.34-7.44,7.44s3.33,7.44,7.44,7.44,7.43-3.34,7.43-7.44-3.33-7.44-7.43-7.44ZM162.03,262.64c-5.59-7.71-10.53-11.54-16.74-16.33-1.79-1.39-3.65-2.82-5.69-4.47-3.63-2.95-12.93-9.58-20.84-7.7-1.82.43-3.72,1.62-3.83,3.33-.04.53.04,1.11.24,1.76,2.23.59,4.37,1.54,6.27,2.84,2.11,1.43,3.21,3.06,3.26,4.84.02.82-.21,1.55-.65,2.1-1.11,1.42-3.19,1.43-5.15.03-2.58-1.83-4.64-4.3-5.98-7.17-2.83-.49-5.79-.32-8.51.58-2.06.69-3.46,1.66-4.13,2.89-.6,1.1-.68,2.59-.18,3.96,2.03,5.61,8.84,5.92,14.32,6.17,7.65.35,14.39,1.85,20.61,4.57,10.86,4.78,21.41,13.7,29.05,24.41-.69-7.38-1.37-14.62-2.05-21.81ZM119.72,244.6c-.77-.53-1.58-.98-2.43-1.37.95,1.27,2.09,2.39,3.39,3.32.38.26.72.4.95.45-.03-.93-1.07-1.81-1.91-2.4ZM119.72,244.6c-.77-.53-1.58-.98-2.43-1.37.95,1.27,2.09,2.39,3.39,3.32.38.26.72.4.95.45-.03-.93-1.07-1.81-1.91-2.4ZM162.03,262.64c-5.59-7.71-10.53-11.54-16.74-16.33-1.79-1.39-3.65-2.82-5.69-4.47-3.63-2.95-12.93-9.58-20.84-7.7-1.82.43-3.72,1.62-3.83,3.33-.04.53.04,1.11.24,1.76,2.23.59,4.37,1.54,6.27,2.84,2.11,1.43,3.21,3.06,3.26,4.84.02.82-.21,1.55-.65,2.1-1.11,1.42-3.19,1.43-5.15.03-2.58-1.83-4.64-4.3-5.98-7.17-2.83-.49-5.79-.32-8.51.58-2.06.69-3.46,1.66-4.13,2.89-.6,1.1-.68,2.59-.18,3.96,2.03,5.61,8.84,5.92,14.32,6.17,7.65.35,14.39,1.85,20.61,4.57,10.86,4.78,21.41,13.7,29.05,24.41-.69-7.38-1.37-14.62-2.05-21.81ZM188.77,318.95c-4.11,0-7.44,3.34-7.44,7.44s3.33,7.44,7.44,7.44,7.43-3.34,7.43-7.44-3.33-7.44-7.43-7.44ZM210.91,340.96c-.77.18-1.59.29-2.43.29-5.58,0-10.14-4.38-10.47-9.87-1.78,3.28-5.25,5.52-9.24,5.52-1.63,0-3.17-.39-4.55-1.06,4.58,5.29,9.97,9.82,15.98,13.41.01.01.02.01.03.01.04.02.08.05.11.07,2.67,1.59,5.46,3,8.35,4.2-.76-1.45-1.19-3.1-1.19-4.84,0-3.07,1.32-5.81,3.41-7.73ZM208.48,323.31c-4.09,0-7.43,3.34-7.43,7.44s3.34,7.43,7.43,7.43,7.44-3.33,7.44-7.43-3.34-7.44-7.44-7.44ZM218,341.25c-4.1,0-7.43,3.34-7.43,7.44s3.33,7.44,7.43,7.44,7.44-3.34,7.44-7.44-3.34-7.44-7.44-7.44ZM224.86,338.07c-.22-2.02.16-4.03,1.06-5.8h-.13c-2.34,0-4.67-.77-6.61-2.34-.08-.06-.16-.14-.25-.22.04.34.05.69.05,1.04,0,3.06-1.31,5.81-3.41,7.73.79-.19,1.59-.3,2.43-.3,3.21,0,6.1,1.46,8.02,3.74-.62-1.18-1.02-2.48-1.16-3.85ZM230.48,316c-1.38-1.12-3.04-1.66-4.68-1.66-2.16,0-4.31.94-5.78,2.75-1.25,1.55-1.82,3.48-1.62,5.45.21,1.98,1.17,3.76,2.71,5.01,3.18,2.58,7.88,2.09,10.46-1.09,2.59-3.19,2.09-7.88-1.09-10.46ZM239.99,331.21c-1.37-1.12-3.03-1.66-4.68-1.66-2.17,0-4.32.94-5.78,2.75-1.26,1.55-1.83,3.48-1.63,5.45.21,1.98,1.18,3.76,2.72,5.01,3.18,2.59,7.87,2.09,10.46-1.09,2.58-3.18,2.1-7.87-1.09-10.46ZM244.85,354.11c-2.59-2.1-3.91-5.18-3.88-8.29-1.71,1.1-3.68,1.66-5.68,1.66-2.32,0-4.66-.76-6.61-2.34-.52-.42-.98-.88-1.41-1.38.79,1.47,1.24,3.15,1.24,4.93,0,3.83-2.07,7.17-5.14,9,3.04.49,6.14.77,9.29.83h.47s.42,0,.42,0c5.5-.1,10.82-.89,15.92-2.26-1.64-.32-3.23-1.01-4.62-2.15ZM245.03,323.27c-.25.02-.5.04-.76.04-3.37,0-6.38-1.62-8.3-4.1.6,2.4.35,4.99-.79,7.28,2.37-.03,4.77.73,6.74,2.33,2.59,2.11,3.91,5.2,3.88,8.3.61-.4,1.27-.72,1.95-.97-3.89-3.17-4.9-8.57-2.72-12.88ZM244.27,305.37c-4.1,0-7.43,3.33-7.43,7.43s3.33,7.44,7.43,7.44,7.44-3.33,7.44-7.44-3.34-7.43-7.44-7.43ZM236.16,165.27c-2.45,0-4.91.1-7.31.31-.29,2.12-.48,4.2-.5,6.23,0,.81.14,1.53.41,2.16,2.5,5.58,11.01,6.55,16.11,5.85,3.77-.53,6.21-1.85,7.86-4.3,1.36-1.99,2.19-4.65,3.08-7.72-6.2-1.75-12.95-2.53-19.65-2.53ZM256.15,340.18c-1.37-1.12-3.03-1.66-4.68-1.66-2.16,0-4.31.94-5.78,2.75-2.58,3.18-2.09,7.88,1.09,10.46,3.18,2.59,7.88,2.1,10.46-1.09,2.58-3.18,2.09-7.87-1.09-10.46ZM257.57,95.47c-2.34-.72-4.81-.77-7.07-.25,2.16.9,4.49,1.46,6.87,1.64.39.03.61-.16.69-.55.04-.24.04-.66-.49-.84ZM231.76,150.9c-.17.77-.34,1.54-.52,2.34-.69,3.04-1.37,6.12-1.91,9.18,9.01-.7,18.57-.11,27.32,2.39.68-2.56,1.07-5.25,1.45-7.87.18-1.16.36-2.36.56-3.56-8.65-1.82-17.73-2.67-26.9-2.48ZM259.43,337.24c-.42.23-.86.42-1.31.6.62.5,1.15,1.06,1.62,1.65-.18-.72-.29-1.47-.31-2.25ZM259.09,322.24c-1.39-1.12-3.04-1.66-4.69-1.66-2.16,0-4.31.94-5.78,2.75-2.58,3.18-2.09,7.88,1.09,10.46,1.55,1.25,3.48,1.83,5.46,1.62,1.97-.2,3.75-1.16,5-2.71,2.59-3.18,2.1-7.88-1.08-10.46ZM261.64,343.42c.77,3.09.14,6.5-2.01,9.16l-.06.06c3.25-1.48,6.36-3.23,9.29-5.2-2.92-.29-5.5-1.81-7.22-4.02ZM269.93,329.55c-4.1,0-7.44,3.34-7.44,7.44s3.34,7.43,7.44,7.43,7.44-3.33,7.44-7.43-3.34-7.44-7.44-7.44ZM285.15,225.09c-5.85,1.25-12.06,2.22-18.92,2.96.81.11,1.65.23,2.51.34,12.95,1.72,29.08,3.87,35.46-5.25.17-.24.41-.42.66-.53.19-1.92.37-3.86.55-5.79-5.77,4.67-13.9,6.92-20.26,8.27ZM346.66,244.6c-.85.59-1.88,1.47-1.91,2.4.22-.05.58-.19.95-.45,1.3-.93,2.45-2.05,3.39-3.32-.85.39-1.66.84-2.43,1.37ZM366.1,245.34c-.68-1.23-2.07-2.2-4.13-2.89-2.73-.9-5.68-1.07-8.52-.58-1.34,2.87-3.39,5.34-5.97,7.17-1.96,1.4-4.03,1.39-5.16-.03-.44-.55-.66-1.28-.63-2.1.04-1.78,1.14-3.41,3.24-4.84,1.91-1.3,4.04-2.25,6.27-2.84.21-.65.29-1.23.25-1.76-.11-1.71-2.02-2.9-3.84-3.33-7.89-1.88-17.2,4.76-20.83,7.7-2.04,1.65-3.9,3.08-5.69,4.47-6.28,4.85-11.28,8.71-16.94,16.6-.68,7.23-1.36,14.5-2.05,21.81,7.65-10.83,18.29-19.86,29.26-24.68,6.21-2.72,12.95-4.22,20.6-4.57,5.47-.25,12.29-.56,14.31-6.17.5-1.37.43-2.86-.17-3.96ZM366.1,245.34c-.68-1.23-2.07-2.2-4.13-2.89-2.73-.9-5.68-1.07-8.52-.58-1.34,2.87-3.39,5.34-5.97,7.17-1.96,1.4-4.03,1.39-5.16-.03-.44-.55-.66-1.28-.63-2.1.04-1.78,1.14-3.41,3.24-4.84,1.91-1.3,4.04-2.25,6.27-2.84.21-.65.29-1.23.25-1.76-.11-1.71-2.02-2.9-3.84-3.33-7.89-1.88-17.2,4.76-20.83,7.7-2.04,1.65-3.9,3.08-5.69,4.47-6.28,4.85-11.28,8.71-16.94,16.6-.68,7.23-1.36,14.5-2.05,21.81,7.65-10.83,18.29-19.86,29.26-24.68,6.21-2.72,12.95-4.22,20.6-4.57,5.47-.25,12.29-.56,14.31-6.17.5-1.37.43-2.86-.17-3.96ZM346.66,244.6c-.85.59-1.88,1.47-1.91,2.4.22-.05.58-.19.95-.45,1.3-.93,2.45-2.05,3.39-3.32-.85.39-1.66.84-2.43,1.37ZM285.15,225.09c-5.85,1.25-12.06,2.22-18.92,2.96.81.11,1.65.23,2.51.34,12.95,1.72,29.08,3.87,35.46-5.25.17-.24.41-.42.66-.53.19-1.92.37-3.86.55-5.79-5.77,4.67-13.9,6.92-20.26,8.27ZM269.93,329.55c-4.1,0-7.44,3.34-7.44,7.44s3.34,7.43,7.44,7.43,7.44-3.33,7.44-7.43-3.34-7.44-7.44-7.44ZM261.64,343.42c.77,3.09.14,6.5-2.01,9.16l-.06.06c3.25-1.48,6.36-3.23,9.29-5.2-2.92-.29-5.5-1.81-7.22-4.02ZM259.09,322.24c-1.39-1.12-3.04-1.66-4.69-1.66-2.16,0-4.31.94-5.78,2.75-2.58,3.18-2.09,7.88,1.09,10.46,1.55,1.25,3.48,1.83,5.46,1.62,1.97-.2,3.75-1.16,5-2.71,2.59-3.18,2.1-7.88-1.08-10.46ZM259.43,337.24c-.42.23-.86.42-1.31.6.62.5,1.15,1.06,1.62,1.65-.18-.72-.29-1.47-.31-2.25ZM231.76,150.9c-.17.77-.34,1.54-.52,2.34-.69,3.04-1.37,6.12-1.91,9.18,9.01-.7,18.57-.11,27.32,2.39.68-2.56,1.07-5.25,1.45-7.87.18-1.16.36-2.36.56-3.56-8.65-1.82-17.73-2.67-26.9-2.48ZM257.57,95.47c-2.34-.72-4.81-.77-7.07-.25,2.16.9,4.49,1.46,6.87,1.64.39.03.61-.16.69-.55.04-.24.04-.66-.49-.84ZM256.15,340.18c-1.37-1.12-3.03-1.66-4.68-1.66-2.16,0-4.31.94-5.78,2.75-2.58,3.18-2.09,7.88,1.09,10.46,3.18,2.59,7.88,2.1,10.46-1.09,2.58-3.18,2.09-7.87-1.09-10.46ZM236.16,165.27c-2.45,0-4.91.1-7.31.31-.29,2.12-.48,4.2-.5,6.23,0,.81.14,1.53.41,2.16,2.5,5.58,11.01,6.55,16.11,5.85,3.77-.53,6.21-1.85,7.86-4.3,1.36-1.99,2.19-4.65,3.08-7.72-6.2-1.75-12.95-2.53-19.65-2.53ZM244.27,305.37c-4.1,0-7.43,3.33-7.43,7.43s3.33,7.44,7.43,7.44,7.44-3.33,7.44-7.44-3.34-7.43-7.44-7.43ZM245.03,323.27c-.25.02-.5.04-.76.04-3.37,0-6.38-1.62-8.3-4.1.6,2.4.35,4.99-.79,7.28,2.37-.03,4.77.73,6.74,2.33,2.59,2.11,3.91,5.2,3.88,8.3.61-.4,1.27-.72,1.95-.97-3.89-3.17-4.9-8.57-2.72-12.88ZM244.85,354.11c-2.59-2.1-3.91-5.18-3.88-8.29-1.71,1.1-3.68,1.66-5.68,1.66-2.32,0-4.66-.76-6.61-2.34-.52-.42-.98-.88-1.41-1.38.79,1.47,1.24,3.15,1.24,4.93,0,3.83-2.07,7.17-5.14,9,3.04.49,6.14.77,9.29.83h.47s.42,0,.42,0c5.5-.1,10.82-.89,15.92-2.26-1.64-.32-3.23-1.01-4.62-2.15ZM239.99,331.21c-1.37-1.12-3.03-1.66-4.68-1.66-2.17,0-4.32.94-5.78,2.75-1.26,1.55-1.83,3.48-1.63,5.45.21,1.98,1.18,3.76,2.72,5.01,3.18,2.59,7.87,2.09,10.46-1.09,2.58-3.18,2.1-7.87-1.09-10.46ZM230.48,316c-1.38-1.12-3.04-1.66-4.68-1.66-2.16,0-4.31.94-5.78,2.75-1.25,1.55-1.82,3.48-1.62,5.45.21,1.98,1.17,3.76,2.71,5.01,3.18,2.58,7.88,2.09,10.46-1.09,2.59-3.19,2.09-7.88-1.09-10.46ZM224.86,338.07c-.22-2.02.16-4.03,1.06-5.8h-.13c-2.34,0-4.67-.77-6.61-2.34-.08-.06-.16-.14-.25-.22.04.34.05.69.05,1.04,0,3.06-1.31,5.81-3.41,7.73.79-.19,1.59-.3,2.43-.3,3.21,0,6.1,1.46,8.02,3.74-.62-1.18-1.02-2.48-1.16-3.85ZM218,341.25c-4.1,0-7.43,3.34-7.43,7.44s3.33,7.44,7.43,7.44,7.44-3.34,7.44-7.44-3.34-7.44-7.44-7.44ZM208.48,323.31c-4.09,0-7.43,3.34-7.43,7.44s3.34,7.43,7.43,7.43,7.44-3.33,7.44-7.43-3.34-7.44-7.44-7.44ZM210.91,340.96c-.77.18-1.59.29-2.43.29-5.58,0-10.14-4.38-10.47-9.87-1.78,3.28-5.25,5.52-9.24,5.52-1.63,0-3.17-.39-4.55-1.06,4.58,5.29,9.97,9.82,15.98,13.41.01.01.02.01.03.01.04.02.08.05.11.07,2.67,1.59,5.46,3,8.35,4.2-.76-1.45-1.19-3.1-1.19-4.84,0-3.07,1.32-5.81,3.41-7.73ZM188.77,318.95c-4.11,0-7.44,3.34-7.44,7.44s3.33,7.44,7.44,7.44,7.43-3.34,7.43-7.44-3.33-7.44-7.43-7.44ZM162.03,262.64c-5.59-7.71-10.53-11.54-16.74-16.33-1.79-1.39-3.65-2.82-5.69-4.47-3.63-2.95-12.93-9.58-20.84-7.7-1.82.43-3.72,1.62-3.83,3.33-.04.53.04,1.11.24,1.76,2.23.59,4.37,1.54,6.27,2.84,2.11,1.43,3.21,3.06,3.26,4.84.02.82-.21,1.55-.65,2.1-1.11,1.42-3.19,1.43-5.15.03-2.58-1.83-4.64-4.3-5.98-7.17-2.83-.49-5.79-.32-8.51.58-2.06.69-3.46,1.66-4.13,2.89-.6,1.1-.68,2.59-.18,3.96,2.03,5.61,8.84,5.92,14.32,6.17,7.65.35,14.39,1.85,20.61,4.57,10.86,4.78,21.41,13.7,29.05,24.41-.69-7.38-1.37-14.62-2.05-21.81ZM119.72,244.6c-.77-.53-1.58-.98-2.43-1.37.95,1.27,2.09,2.39,3.39,3.32.38.26.72.4.95.45-.03-.93-1.07-1.81-1.91-2.4Z"/>
    <path class="cls-1" d="M239.9,229.64c-1.92.45-3.74.91-5.47,1.35-9.63,2.46-17.23,4.4-30.55.88-2.34-.62-4.68-1.41-6.98-2.26-1.95-.73-3.9-1.5-5.8-2.26-2.93-1.17-5.95-2.37-9.01-3.4l-.48-.16c-.16-.05-.32-.1-.47-.15,4.59,1.05,9.23,1.97,13.92,2.75h0c13.22,2.2,26.84,3.3,40.78,3.3,1.35,0,2.7-.03,4.05-.05Z"/>
    <path class="cls-1" d="M197.47,351.2c-5.18,9.61-18.74,34.16-24.65,44.29-.6,1.03-1.86,1.5-3,1.14-4.05-1.35-8.03-2.98-11.83-4.85-.69-.34-1.42-.69-2.19-1.05-9.87-4.68-18.53-9.58-16.05-17.98.84-2.85,2.54-4.93,5.04-6.17,3.18-1.58,7.55-1.65,11.39-.18,6.08,2.31,8.12,8.07,8.47,9.21.19.6.73,1.03,1.36,1.07.63.05,1.23-.31,1.5-.88.85-1.8,1.81-4.02,2.94-6.58,3.82-8.76,8.97-20.55,14.65-27.88,3.72,3.74,7.88,7.05,12.37,9.86Z"/>
    <path class="cls-1" d="M310.49,390.71c-.78.37-1.51.73-2.2,1.06-3.81,1.87-7.78,3.5-11.83,4.85-1.14.38-2.4-.1-3.01-1.14-2.06-3.52-5.03-8.54-8.28-13.99-6.73-11.31-14.35-24.13-17.35-29.75,4.87-2.94,9.33-6.44,13.31-10.45,5.7,7.31,10.86,19.15,14.7,27.94,1.11,2.56,2.08,4.76,2.93,6.56.27.58.89.93,1.49.88.63-.04,1.18-.47,1.36-1.07.35-1.14,2.39-6.9,8.47-9.21,3.85-1.46,8.21-1.4,11.4.18,2.51,1.24,4.2,3.31,5.04,6.17,2.48,8.4-6.18,13.3-16.04,17.97Z"/>
    <path class="cls-1" d="M271.63,289.99c-5.8,0-10.51,4.72-10.51,10.51v.25s0,.01.01.02c.07,2.93,1.35,5.57,3.36,7.42h0c1.87,1.75,4.39,2.81,7.14,2.81,5.79,0,10.49-4.7,10.49-10.5s-4.7-10.51-10.49-10.51ZM271.63,307.93c-4.11,0-7.44-3.33-7.44-7.44s3.33-7.43,7.44-7.43,7.42,3.33,7.42,7.43-3.33,7.44-7.42,7.44ZM197.74,288.04c-4.1,0-7.44,3.33-7.44,7.44s3.34,7.43,7.44,7.43,7.43-3.33,7.43-7.43-3.33-7.44-7.43-7.44ZM178.05,230.77c-4.1,0-7.44,3.34-7.44,7.44,0,2.45,1.2,4.63,3.04,5.98,1.22.91,2.75,1.46,4.4,1.46,3.7,0,6.78-2.71,7.33-6.26.07-.38.1-.78.1-1.18,0-4.1-3.33-7.44-7.43-7.44ZM271.63,289.99c-5.8,0-10.51,4.72-10.51,10.51v.25s0,.01.01.02c.07,2.93,1.35,5.57,3.36,7.42h0c1.87,1.75,4.39,2.81,7.14,2.81,5.79,0,10.49-4.7,10.49-10.5s-4.7-10.51-10.49-10.51ZM271.63,307.93c-4.11,0-7.44-3.33-7.44-7.44s3.33-7.43,7.44-7.43,7.42,3.33,7.42,7.43-3.33,7.44-7.42,7.44ZM197.74,288.04c-4.1,0-7.44,3.33-7.44,7.44s3.34,7.43,7.44,7.43,7.43-3.33,7.43-7.43-3.33-7.44-7.43-7.44ZM178.05,230.77c-4.1,0-7.44,3.34-7.44,7.44,0,2.45,1.2,4.63,3.04,5.98,1.22.91,2.75,1.46,4.4,1.46,3.7,0,6.78-2.71,7.33-6.26.07-.38.1-.78.1-1.18,0-4.1-3.33-7.44-7.43-7.44Z"/>
    <path class="cls-1" d="M178.05,230.77c-4.1,0-7.44,3.34-7.44,7.44,0,2.45,1.2,4.63,3.04,5.98,1.22.91,2.75,1.46,4.4,1.46,3.7,0,6.78-2.71,7.33-6.26.07-.38.1-.78.1-1.18,0-4.1-3.33-7.44-7.43-7.44ZM197.74,288.04c-4.1,0-7.44,3.33-7.44,7.44s3.34,7.43,7.44,7.43,7.43-3.33,7.43-7.43-3.33-7.44-7.43-7.44ZM271.63,289.99c-5.8,0-10.51,4.72-10.51,10.51v.25s0,.01.01.02c.07,2.93,1.35,5.57,3.36,7.42h0c1.87,1.75,4.39,2.81,7.14,2.81,5.79,0,10.49-4.7,10.49-10.5s-4.7-10.51-10.49-10.51ZM271.63,307.93c-4.11,0-7.44-3.33-7.44-7.44s3.33-7.43,7.44-7.43,7.42,3.33,7.42,7.43-3.33,7.44-7.42,7.44ZM165.17,263.23c.34.48.26-.5,0,0h0Z"/>
    <path class="cls-1" d="M197.74,288.04c-4.1,0-7.44,3.33-7.44,7.44s3.34,7.43,7.44,7.43,7.43-3.33,7.43-7.43-3.33-7.44-7.43-7.44ZM197.74,288.04c-4.1,0-7.44,3.33-7.44,7.44s3.34,7.43,7.44,7.43,7.43-3.33,7.43-7.43-3.33-7.44-7.43-7.44ZM178.05,230.77c-4.1,0-7.44,3.34-7.44,7.44,0,2.45,1.2,4.63,3.04,5.98,1.22.91,2.75,1.46,4.4,1.46,3.7,0,6.78-2.71,7.33-6.26.07-.38.1-.78.1-1.18,0-4.1-3.33-7.44-7.43-7.44ZM197.74,288.04c-4.1,0-7.44,3.33-7.44,7.44s3.34,7.43,7.44,7.43,7.43-3.33,7.43-7.43-3.33-7.44-7.43-7.44ZM197.74,288.04c-4.1,0-7.44,3.33-7.44,7.44s3.34,7.43,7.44,7.43,7.43-3.33,7.43-7.43-3.33-7.44-7.43-7.44ZM178.05,230.77c-4.1,0-7.44,3.34-7.44,7.44,0,2.45,1.2,4.63,3.04,5.98,1.22.91,2.75,1.46,4.4,1.46,3.7,0,6.78-2.71,7.33-6.26.07-.38.1-.78.1-1.18,0-4.1-3.33-7.44-7.43-7.44ZM268.33,231.44c-5.66-.76-11.02-1.47-14.56-1.1-7.54.81-13.41,2.31-18.58,3.63-5.89,1.51-11.3,2.89-17.81,2.89-4.16,0-8.79-.56-14.28-2.02-1.66-.44-3.29-.95-4.9-1.5-2.8-.96-5.54-2.06-8.23-3.13-2.88-1.16-5.87-2.35-8.85-3.35l-.48-.15c-6.8-2.28-11.8-3.95-18.13-2.2h0c-.29.07-.59.17-.88.26-.03.01-.06.01-.08.02.02.26.05.53.07.8h0c.87,9.21,1.72,18.28,2.57,27.34.02.26.06.5.08.76.24,2.61.49,5.22.73,7.84.02.03.15,1.67.17,1.7.26-.5.34.48,0,0,1.09,11.65,2.21,23.45,3.35,35.75.98,10.66,4.49,20.53,9.88,29.05-.08-.54-.14-1.08-.14-1.63,0-5.8,4.72-10.51,10.51-10.51s10.14,4.37,10.47,9.88c1.78-3.29,5.26-5.52,9.24-5.52,2.63,0,5.02.97,6.86,2.57-.27-2.77.54-5.49,2.29-7.65,3.66-4.5,10.29-5.19,14.79-1.55.63.52,1.19,1.11,1.67,1.73-.2-.81-.32-1.66-.32-2.54,0-2.8,1.1-5.35,2.89-7.23,1.91-2.01,4.63-3.27,7.61-3.27.46,0,.9.03,1.34.09h.01c2.22.28,4.23,1.26,5.79,2.72,2.02,1.86,3.3,4.5,3.37,7.44h0v.25c0,1.71-.42,3.33-1.15,4.75,2.58-.18,5.23.55,7.39,2.3,2.48,2.02,3.79,4.94,3.87,7.92,1.5-.82,3.22-1.29,5.04-1.29,5.79,0,10.5,4.72,10.5,10.51,0,.2-.02.4-.03.6,0-.01.02-.02.04-.02,9.55-10.28,15.86-23.66,17.25-38.6,1.13-12.2,2.26-24.2,3.39-36.12-.08-.32-.06-.67.09-1,.31-3.23.61-6.46.91-9.7.78-8.21,1.56-16.42,2.32-24.61-8.29,7.58-23.57,5.55-36.07,3.89ZM271.63,307.93c-4.11,0-7.44-3.33-7.44-7.44s3.33-7.43,7.44-7.43,7.42,3.33,7.42,7.43-3.33,7.44-7.42,7.44ZM178.05,248.71c-1.44,0-2.81-.28-4.06-.81-3.78-1.59-6.45-5.33-6.45-9.69,0-5.79,4.72-10.51,10.51-10.51s10.5,4.72,10.5,10.51c0,.8-.09,1.58-.26,2.33-1.06,4.69-5.24,8.17-10.24,8.17ZM197.74,305.98c-5.79,0-10.51-4.71-10.51-10.5s4.72-10.51,10.51-10.51,10.5,4.72,10.5,10.51-4.7,10.5-10.5,10.5ZM218.09,270.34c-.84.06-1.57-.59-1.62-1.44-.35-5.9-5.25-10.57-11.14-10.61h-.08c-5.95,0-10.87,4.64-11.23,10.61-.04.82-.71,1.44-1.52,1.44h-.09c-.85-.05-1.5-.78-1.44-1.63.45-7.58,6.72-13.49,14.28-13.49h.1c7.51.05,13.74,5.99,14.19,13.49.05.85-.61,1.58-1.45,1.63ZM242.41,292.16c-2.51,2.16-5.77,3.46-9.31,3.46h-.09c-.09,0-.19,0-.29-.01-7.38-.2-13.46-6.06-13.9-13.48-.05-.85.59-1.58,1.44-1.63s1.57.6,1.62,1.44c.36,5.91,5.25,10.57,11.15,10.61h.07c5.95,0,10.87-4.64,11.22-10.61.05-.84.76-1.49,1.63-1.44.84.05,1.48.78,1.43,1.63-.23,4.03-2.12,7.59-4.97,10.03ZM260.96,258.29c-5.95,0-10.87,4.64-11.22,10.61-.06.82-.73,1.44-1.54,1.44h-.09c-.84-.05-1.48-.78-1.43-1.63.45-7.58,6.71-13.49,14.28-13.49h.1c7.5.05,13.74,5.99,14.18,13.49.05.85-.6,1.58-1.44,1.63-.86.06-1.57-.59-1.62-1.44-.36-5.9-5.25-10.57-11.14-10.61h-.08ZM197.74,288.04c-4.1,0-7.44,3.33-7.44,7.44s3.34,7.43,7.44,7.43,7.43-3.33,7.43-7.43-3.33-7.44-7.43-7.44ZM178.05,230.77c-4.1,0-7.44,3.34-7.44,7.44,0,2.45,1.2,4.63,3.04,5.98,1.22.91,2.75,1.46,4.4,1.46,3.7,0,6.78-2.71,7.33-6.26.07-.38.1-.78.1-1.18,0-4.1-3.33-7.44-7.43-7.44ZM178.05,230.77c-4.1,0-7.44,3.34-7.44,7.44,0,2.45,1.2,4.63,3.04,5.98,1.22.91,2.75,1.46,4.4,1.46,3.7,0,6.78-2.71,7.33-6.26.07-.38.1-.78.1-1.18,0-4.1-3.33-7.44-7.43-7.44ZM197.74,288.04c-4.1,0-7.44,3.33-7.44,7.44s3.34,7.43,7.44,7.43,7.43-3.33,7.43-7.43-3.33-7.44-7.43-7.44ZM197.74,288.04c-4.1,0-7.44,3.33-7.44,7.44s3.34,7.43,7.44,7.43,7.43-3.33,7.43-7.43-3.33-7.44-7.43-7.44ZM178.05,230.77c-4.1,0-7.44,3.34-7.44,7.44,0,2.45,1.2,4.63,3.04,5.98,1.22.91,2.75,1.46,4.4,1.46,3.7,0,6.78-2.71,7.33-6.26.07-.38.1-.78.1-1.18,0-4.1-3.33-7.44-7.43-7.44Z"/>
    <path class="cls-1" d="M170.66,220.92c-1.25-.15-2.5-.21-3.78-.16h-.01c-1.8.07-3.65.36-5.62.94-.15-1.67-.31-3.33-.46-5,2.28,1.4,4.74,2.49,7.24,3.37.87.31,1.75.59,2.63.86Z"/>
    <path class="cls-1" d="M269.39,101.81l-10.18,48.58c-8.62-1.82-17.68-2.69-26.79-2.56.04-.2.08-.42.12-.61l7.4-36.71c.79-3.89,1.67-8.29,4.24-11.46.71-.88,1.58-1.63,2.54-2.24,3.15,1.77,6.75,2.84,10.41,3.12,1.95.15,3.58-1.09,3.94-3.03.37-1.93-.72-3.75-2.59-4.34-3.9-1.21-8.09-.89-11.59.69-1.16-.94-1.53-1.9-1.12-2.87.48-1.1,1.69-1.81,3.04-1.75.8.03,1.61.06,2.41.09,4.03.12,8.19.27,12,1.38,3.7,1.08,6.18,2.04,6.73,5.24.36,2.09-.1,4.32-.56,6.48Z"/>
    <path class="cls-1" d="M308.14,208.73c-3.96,8.34-15.38,11.62-23.63,13.38-10.16,2.16-21.4,3.49-35.38,4.18-19.75.99-38.98-.21-57.35-3.59-5.72-1.04-11.34-2.3-16.89-3.76-.82-.21-1.64-.44-2.47-.69-4.63-1.34-9.25-3.13-12.94-6.23-3.62-3.03-5.81-7.43-6-12.05-.18-4.15,1.32-8.04,4.23-10.93,2.46-2.44,5.69-3.96,9.12-4.27,3.29,3.52,8.87,6.13,16.62,7.75,13.32,2.81,28.61,4.39,44.24,4.56,15.15.16,31.99-.68,41.93-8.33,3.41-2.63,5.13-6.08,4.83-9.72-.32-3.98-3.05-7.73-7.31-10.03-2.39-1.3-4.94-2.38-7.57-3.28.75-2.76,1.17-5.6,1.56-8.35.16-1.09.33-2.2.51-3.31,10.98,2.64,21.14,6.82,29.71,12.39,6.6,4.3,27.32,20.04,16.79,42.26Z"/>
    <path class="cls-1" d="M267.76,186.33c-7.95,6.12-21.13,7.53-34.01,7.69-.18-.13-.4-.22-.63-.27-1.86-.34-3.77-.62-5.8-.93-8.76-1.35-18.69-2.86-25.31-8.12-2.36-1.87-3.39-3.88-3.04-5.95.62-3.8,5.61-7.51,9.96-9.06,4.92-1.75,10.69-3.06,16.78-3.78-.25,1.98-.41,3.96-.42,5.9-.01,1.24.23,2.39.69,3.42,2.5,5.61,9.32,7.89,15.71,7.89,1.23,0,2.45-.08,3.6-.25,4.65-.64,7.83-2.42,9.99-5.61,1.61-2.37,2.51-5.25,3.47-8.54,2.43.84,4.77,1.83,6.95,3.01,3.33,1.8,5.47,4.63,5.71,7.57.21,2.61-1.04,5.04-3.64,7.04Z"/>
    <path class="cls-1" d="M228.6,151c-.12.52-.24,1.03-.36,1.58-.75,3.36-1.51,6.76-2.08,10.15-6.7.76-13,2.2-18.27,4.08-5.16,1.83-11.09,6.21-11.96,11.45-.37,2.24.05,5.6,4.15,8.86,4.03,3.19,9,5.1,14.19,6.41-10.66-.69-20.92-2.04-30.2-3.99-5.82-1.23-13.38-3.71-16.35-8.61-1.4-2.32-1.67-4.96-.8-8.06,3.08-10.92,16.76-14.51,26.78-17.15,9.98-2.62,21.09-4.12,34.88-4.72Z"/>
    <path class="cls-1" d="M185.48,238.21c0,.4-.03.8-.1,1.18-.55,3.55-3.63,6.26-7.33,6.26-1.65,0-3.17-.54-4.4-1.45-1.84-1.35-3.04-3.53-3.04-5.98,0-4.1,3.35-7.44,7.44-7.44s7.44,3.33,7.44,7.44Z"/>
    <circle class="cls-1" cx="197.73" cy="295.48" r="7.44"/>
  </g>
</svg>