<?xml version="1.0" encoding="UTF-8"?>
<svg id="Layer_1" data-name="Layer 1" xmlns="http://www.w3.org/2000/svg" viewBox="0 0 401.04 471.6">
  <defs>
    <style>
      .cls-1 {
        fill: none;
        stroke: #fcec60;
        stroke-miterlimit: 10;
        stroke-width: 5px;
      }
    </style>
  </defs>
  <path class="cls-1" d="M222.15,236.36c1.61,0,3.25-.26,4.85-.82,7.49-2.6,11.63-10.63,9.42-18.26-.23-.8-1.06-1.25-1.86-1.02-.8.23-1.25,1.06-1.02,1.86,1.77,6.11-1.54,12.52-7.52,14.6-5.9,2.05-12.44-.86-14.89-6.64-.32-.76-1.2-1.12-1.97-.8-.76.32-1.12,1.2-.8,1.97,2.4,5.66,7.94,9.12,13.78,9.12Z"/>
  <path class="cls-1" d="M192.54,221.31c1.18,0,2.37-.14,3.56-.44,7.7-1.91,12.55-9.52,11.05-17.33-.16-.81-.94-1.35-1.76-1.19-.81.16-1.35.94-1.19,1.76,1.2,6.24-2.67,12.32-8.82,13.85-6.07,1.5-12.31-2-14.22-7.97-.25-.79-1.1-1.22-1.89-.97-.79.25-1.22,1.1-.97,1.89,2.01,6.3,7.89,10.4,14.24,10.4Z"/>
  <path class="cls-1" d="M237.34,208.3c1.18,0,2.37-.14,3.56-.44,7.7-1.91,12.55-9.52,11.05-17.33-.16-.81-.94-1.35-1.76-1.19-.81.16-1.35.94-1.19,1.76,1.2,6.24-2.67,12.32-8.82,13.85-6.06,1.5-12.31-2-14.22-7.97-.25-.79-1.1-1.22-1.89-.97-.79.25-1.22,1.1-.97,1.89,2.01,6.3,7.89,10.4,14.24,10.4Z"/>
  <path class="cls-1" d="M289.86,339.48c-4.97-1.82-11.37-1.27-16.7,1.46-5.84,2.98-8.65,7.94-9.95,11.35-.65-1.1-1.34-2.29-2.09-3.57-2.25-3.85-5-8.56-7.95-13.29,44.9-17.79,72.34-63.55,66.89-112v-.07c0-.45-.04-1.65-.39-2.91,0-.03-.02-.06-.03-.09,0-.02,0-.03-.02-.05-.25-.86-.62-1.6-1.09-2.19,2.06-12.16-.3-22.24-6.87-29.18-5.94-6.27-10.53-11.74-14.44-17.21-1.22-1.71-2.52-3.42-3.85-5.07l-6.97-8.67c4.91-7.83,4.9-18.24-.1-28.79-13.98-29.52-54.4-44.38-88.64-46.15-.31-.76-.79-1.5-1.53-1.95-.01-.01-.02-.02-.04-.03-3.57-2.44-7.42-4.46-11.45-5.99-.85-.32-1.72-.63-2.58-.91-4.45-1.44-9.19-1.15-13.37.82l-14.02,6.62c-.28.1-.54.28-.72.55-.36.51-.63,1.09-.83,1.69-2.04.12-4.09.24-6.12.36-4.62.26-8.93,2.28-12.14,5.68-.61.64-1.21,1.31-1.84,2.03-2.81,3.3-5.23,6.91-7.17,10.74,0,0,0,.02-.01.03-.52.9-.52,1.96-.35,2.95-17,14.39-25.83,31.49-29.62,38.85l-.08.17c-16.28,31.75-18.75,54.36-7.34,67.19.35.39.71.77,1.08,1.14l-1.08,5.96c-2.16,11.97-2.32,23.99-.5,35.73,1.43,9.17.68,18.95-2.15,28.28-2.64,8.68-5.76,16.62-8.78,22.34-.86,1.62-1.79,3.3-2.74,5.02-5.56,10.03-11.31,20.39-7.11,26.7,1.01,1.55,2.7,2.95,4.53,3.73,1.04.44,2.12.7,3.23.78-.01.09-.03.19-.04.28-.19,1.31-.89,8.04,3.63,12.14,2.86,2.59,6.57,2.98,8.52,2.98.55,0,.96-.03,1.18-.05,11.53-1.19,19.1-24,23.56-44.12,10.35,11.53,23.12,20.78,37.17,26.95-2.7,3.16-5.37,6.29-7.87,9.24-3.38,3.97-6.45,7.58-8.9,10.42-1.99,2.3-2.12,5.65-.31,8.14,3.15,4.33,6.66,8.51,10.42,12.44.64.66,1.31,1.39,2.02,2.15,5.97,6.39,14.28,15.29,23.32,15.28,2.69,0,5.44-.79,8.22-2.67,3.8-2.57,6.15-6.21,6.81-10.53.8-5.24-1.02-11.4-4.75-16.08-4.08-5.13-9.55-6.89-13.12-7.49.99-.89,2.07-1.86,3.23-2.9,3.28-2.93,6.98-6.24,10.77-9.83,4.21.51,8.44.78,12.68.78,8.97,0,17.98-1.15,26.92-3.43l5.82-1.48c6.35,8.42,15.22,19.74,22.41,28.9,3.43,4.37,6.53,8.33,8.89,11.38,1.27,1.63,3.19,2.51,5.16,2.51.92,0,1.86-.19,2.75-.6,4.86-2.22,9.66-4.83,14.28-7.74.78-.49,1.63-1.02,2.52-1.56,9.65-5.94,24.23-14.91,18.62-28.38-1.77-4.24-4.87-7.27-8.97-8.78ZM193.73,89.26l-14.36,8.38c-1.63.95-3.59,1.22-5.4.73-2.18-.58-4.21-1.35-6.05-2.28-.88-.45-1.89-.9-2.95-1.38-3.05-1.37-6.5-2.93-8.18-4.91-.81-.95-1.32-3.22-.83-4.92,2.79.95,5.51,2.1,8.14,3.43.19.16.41.27.65.33.14.07.28.14.42.21,2.42,1.28,4.77,2.74,7,4.33,1.09.78,2.38,1.17,3.68,1.17,1.12,0,2.25-.29,3.26-.88l12.99-7.58c1.13.01,2.21.04,3.25.08.18,1.29-.45,2.62-1.62,3.3ZM128.59,105.83c-.11-.41-.16-.71-.19-.95l18.29.53c.06,0,.11,0,.17,0,2.45,0,4.7-1.39,5.77-3.59,1.16-2.41,2.54-4.82,4.08-7.16.15-.22.3-.43.45-.65,1.46.98,3.13,1.83,4.79,2.6-.73,1.06-1.51,2.11-2.29,3.13-.69.92-1.35,1.78-1.91,2.6-1.12,1.66-2.54,3.31-4.21,4.9-1.35,1.29-3.21,1.99-5.09,1.95l-16.62-.48c-1.45-.03-2.72-1.01-3.09-2.37h0s-.01-.04-.02-.06c-.04-.15-.09-.32-.13-.47ZM169.97,77.7c3.48-1.64,7.45-1.89,11.17-.68.82.26,1.64.55,2.44.86,3.06,1.17,6.02,2.63,8.81,4.36l-14.79,8.63c-1.16.68-2.61.62-3.68-.14-2.34-1.67-4.81-3.19-7.34-4.54-2.4-1.28-4.89-2.4-7.44-3.37l10.84-5.11ZM135.29,93.89c.59-.68,1.17-1.32,1.75-1.94,2.68-2.84,6.27-4.52,10.13-4.74,1.86-.12,3.73-.22,5.59-.33.1,1.87.75,3.7,1.74,4.86.1.12.23.23.34.35-.21.31-.42.62-.63.93-1.62,2.45-3.05,4.98-4.27,7.5-.58,1.19-1.82,1.93-3.16,1.9l-17.13-.5c1.62-2.84,3.51-5.53,5.64-8.03ZM98.49,145.96l.05-.09c3.65-7.07,12.03-23.33,28-37.18,1.09,1.79,3.05,2.98,5.22,3.03l16.62.48c.09,0,.18,0,.28,0,2.58,0,5.11-1,6.97-2.78,1.83-1.74,3.38-3.56,4.62-5.38.52-.75,1.15-1.59,1.83-2.48.86-1.14,1.81-2.39,2.66-3.68.65.3,1.28.59,1.83.87,2.02,1.03,4.25,1.87,6.63,2.51.84.23,1.71.34,2.58.34,1.78,0,3.56-.47,5.11-1.38l14.36-8.38c2.08-1.21,3.26-3.43,3.14-5.75,33.16,1.92,71.88,16.24,85.21,44.39,2.78,5.86,6.44,17.14-.27,26.75-1.39,2.01-3.2,3.85-5.37,5.45-7.2,5.31-17.33,6.87-27.09,4.18-6.82-1.87-13.84-5.41-19.41-9.78,1.95-5.83,2.8-11.6,2.46-16.75-.24-3.51-2.13-10.1-6.2-12.81-1.82-1.21-3.87-1.48-5.94-.77-2.48.85-4.22,2.62-5.03,5.11-2.09,6.42,2.24,15.75,4.53,19.02,1.73,2.47,3.97,4.89,6.65,7.19-.99,2.66-2.2,5.22-3.58,7.65-4.54,7.91-11.07,12.97-18.41,14.24-5.62.99-11.52-.28-17.13-3.65,6.33-13.3,5.96-31.45-.97-40.29-.26-.34-6.56-8.42-13.06-6.76l-.12.03c-6.5,1.66-8.15,11.76-8.22,12.18-1.85,11.09,6.52,27.19,18.44,35.83-3.31,5.64-7.86,9.6-13.27,11.44-6.04,2.05-14.09,1.02-22.21-2.83.52-5.13,1.22-19.6-5.92-28.11-4.21-5.03-9.68-5.11-13.23-2.95-3.66,2.22-6.2,7.23-3.64,13.41,3.02,7.27,10.46,14.63,19.56,19.39-1.94,13.75-9.21,24.53-19.58,28.95-12.17,5.18-27.94,2.22-35.89-6.73-10.5-11.81-7.88-33.29,7.81-63.9ZM228.96,155.01c-2.09-1.89-3.85-3.85-5.24-5.84-2.32-3.31-5.68-11.61-4.13-16.37.52-1.6,1.55-2.65,3.15-3.2.44-.15.86-.22,1.27-.22.7,0,1.38.22,2.03.65,2.84,1.89,4.65,7.32,4.87,10.51.29,4.43-.38,9.39-1.95,14.47ZM186.27,174.61c-10.74-8-18.52-22.85-16.89-32.67.35-2.22,2.19-8.78,6-9.75l.12-.03c.34-.09.69-.13,1.04-.13,3.59,0,7.65,4.19,8.91,5.82,6.13,7.82,6.41,24.59.82,36.75ZM146.5,184.42c-8.02-4.44-14.49-10.95-17.14-17.33-1.88-4.54-.14-8.14,2.42-9.7.9-.55,2.04-.91,3.29-.91,1.92,0,4.1.85,6.09,3.22,4.94,5.9,6.01,16.29,5.34,24.71ZM87.91,353.89c-.75.07-4.66.31-7.39-2.17-3.4-3.08-2.83-8.44-2.68-9.5.04-.31.1-.62.16-.92,2.66-.52,5.35-1.93,7.38-3.88.89-.85,3.58-3.44,2.63-6.05-.33-.9-1.07-1.67-1.96-2-2.7-.97-5.43,2.05-6.79,3.57-.91,1.03-2.52,2.85-3.56,5.6-1,0-1.94-.18-2.84-.56-1.53-.66-2.65-1.78-3.2-2.62-3.19-4.8,2.34-14.78,7.23-23.59.96-1.73,1.9-3.43,2.77-5.07,3.11-5.89,6.31-14.01,9-22.88,2.96-9.76,3.74-20,2.24-29.61-1.77-11.42-1.61-23.1.49-34.74l.77-4.21c5.81,4.43,13.67,6.83,21.57,6.83,4.81,0,9.63-.89,14.03-2.76,11.09-4.73,18.92-15.97,21.23-30.34,8.53,3.85,17.03,4.78,23.58,2.56,6.06-2.06,11.16-6.4,14.83-12.6,6.2,3.69,12.75,5.06,19.05,3.95,8.23-1.43,15.51-7.01,20.5-15.71,1.31-2.28,2.46-4.69,3.44-7.17,5.75,4.33,12.82,7.83,19.69,9.71,10.64,2.94,21.73,1.2,29.67-4.66,1.86-1.38,3.49-2.91,4.86-4.58l6.45,8.02c1.3,1.61,2.56,3.27,3.75,4.93,3.99,5.58,8.66,11.15,14.7,17.53,6.1,6.44,8.11,15.64,5.97,27.32-2.69,14.67-11.64,30.15-19.3,38.98-.5.58-1.05,1.23-1.64,1.93-5.68,6.69-16.24,19.15-25.06,16.37-.44-.14-4.31-1.43-5.89-4.91-1.82-3.99.54-8.5,1.3-9.77.19-.31.4-.62.61-.92,2.78.6,5.73.43,8.24-.51,1.14-.43,4.63-1.73,4.8-4.5.05-.96-.33-1.93-1.02-2.6-2.11-2.01-5.99-.19-7.63.58-1.22.56-3.4,1.57-5.42,3.61-1.88-.7-3.4-1.82-4.34-3.22-.71-1.07-1.1-2.31-1.14-3.67-.16-6.06,7.96-9.89,13.89-12.69.88-.41,1.7-.8,2.43-1.17,11.98-5.98,17.21-19.01,12.43-30.99-.31-.77-1.18-1.15-1.95-.84-.77.31-1.15,1.18-.84,1.95,4.18,10.5-.44,21.94-10.99,27.2-.71.36-1.51.73-2.37,1.14-6.3,2.97-15.82,7.47-15.61,15.49.04,1.3.32,2.52.8,3.65-15.07,6.17-30.72,11.37-46.56,15.42-30.09,7.71-61.11,11.45-92.19,11.14,2.87-16.26,4.55-28.38,5.14-36.97.06-.83-.57-1.54-1.39-1.6-.83-.05-1.54.57-1.6,1.39-.6,8.79-2.37,21.35-5.41,38.4-1.21,6.81-2.4,13.04-3.27,17.59-.3,1.6-.57,3-.79,4.17-.25,1.34-.66,3.51-1.23,6.23-5.79,27.58-13.65,43.86-21.55,44.68ZM79.38,337.78c.73-1.26,1.56-2.2,2.17-2.88,2.26-2.51,3.17-2.71,3.41-2.71.04,0,.06,0,.06,0,.05.02.15.12.18.21,0,0,.26.8-1.89,2.86-.92.89-2.31,1.86-3.92,2.52ZM268.18,257.35c1.12-.8,2.19-1.29,2.95-1.64,3.62-1.7,4.29-1.14,4.29-1.14.06.06.11.19.1.27,0,0-.08.82-2.87,1.87-1.34.5-2.9.71-4.46.64ZM166.02,355.47c-2.25,2.01-4.2,3.75-5.79,5.24-.46.42-.6,1.09-.36,1.66.24.58.81.95,1.43.93.9-.02,8.96-.02,14.27,6.65,3.23,4.05,4.81,9.32,4.13,13.76-.54,3.52-2.4,6.38-5.53,8.5-9.97,6.75-20.2-4.19-27.66-12.18-.72-.77-1.4-1.5-2.05-2.17-3.67-3.83-7.09-7.91-10.17-12.13-.99-1.35-.92-3.17.15-4.41,2.45-2.85,5.53-6.47,8.91-10.44,2.7-3.17,5.58-6.56,8.49-9.96,7.45,3.02,15.21,5.18,23.13,6.43-3.14,2.92-6.19,5.66-8.95,8.12ZM278.64,374.08c-.9.55-1.76,1.08-2.55,1.58-4.51,2.84-9.2,5.38-13.93,7.55-1.52.69-3.29.26-4.3-1.03-2.36-3.05-5.46-7-8.9-11.38-7.4-9.44-16.61-21.19-22.97-29.65,0,0,0,0,0,0-.06-.08-.13-.15-.2-.22-.02-.02-.04-.03-.07-.05-.05-.04-.11-.09-.17-.12-.03-.02-.07-.03-.1-.05-.05-.03-.11-.06-.17-.08-.03,0-.06-.01-.08-.02-.07-.02-.13-.04-.2-.05-.03,0-.06,0-.09,0-.07,0-.13-.01-.2,0-.1,0-.2.02-.29.04,0,0,0,0,0,0l-6.79,1.73c-13.03,3.33-26.21,4.17-39.18,2.5-9.09-1.15-18-3.53-26.49-7.08-15.06-6.26-28.67-16.16-39.42-28.65.5-2.41.87-4.34,1.09-5.57.22-1.16.48-2.56.79-4.15.81-4.27,1.91-10.04,3.05-16.38,1.37.02,2.73.03,4.1.03,30.14,0,60.18-3.79,89.37-11.27,16.13-4.13,32.08-9.43,47.43-15.74,1.08,1.24,2.48,2.28,4.12,3.02-.07.11-.14.23-.21.34-.96,1.6-3.89,7.25-1.47,12.57,2.07,4.57,6.81,6.24,7.73,6.53,1.2.38,2.4.55,3.59.55,9.52,0,18.83-10.98,24.65-17.85.58-.69,1.13-1.33,1.62-1.9,6.52-7.51,14.83-20.67,18.71-34.9,5.06,47.47-22.29,92.19-66.72,108.92h0s-.08.04-.12.06c-.14.07-.28.15-.39.26-.03.03-.05.06-.08.09-.04.04-.08.08-.11.13-.03.04-.05.09-.08.13-.02.04-.05.08-.07.12-.02.04-.03.09-.05.13-.02.05-.04.09-.05.14,0,.04-.01.08-.02.13,0,.05-.02.11-.02.16,0,.05,0,.11,0,.16,0,.04,0,.09,0,.13.03.19.1.39.21.56,3.28,5.19,6.37,10.47,8.85,14.72,1.49,2.54,2.77,4.74,3.88,6.56.32.53.94.81,1.55.69.61-.11,1.09-.59,1.2-1.2.27-1.46,2.01-8.92,9.36-12.67,4.61-2.36,10.09-2.86,14.31-1.31,3.34,1.23,5.78,3.62,7.23,7.11,4.62,11.1-8.12,18.94-17.42,24.67Z"/>
</svg>