<?xml version="1.0" encoding="UTF-8"?>
<svg id="Layer_1" data-name="Layer 1" xmlns="http://www.w3.org/2000/svg" viewBox="0 0 401.04 471.6">
  <defs>
    <style>
      .cls-1 {
        fill: #7ab4d2;
      }

      .cls-2 {
        fill: #feffe6;
      }

      .cls-3 {
        fill: #fcec60;
      }

      .cls-4 {
        fill: #988ec5;
      }

      .cls-5 {
        fill: #101010;
      }
    </style>
  </defs>
  <g>
    <path class="cls-1" d="M325.86,224.01c5.23,46.23-20.64,93.51-67.63,111.2,5.2,8.19,9.73,16.34,12.75,21.31.19-1.01,1.91-9.54,10.16-13.74,7.7-3.94,19.31-3.72,23.59,6.56,5.62,13.48-11.67,22.48-20.55,28.11-5.31,3.34-10.19,5.85-14.1,7.64-2.14.97-4.66.38-6.11-1.48-7.53-9.71-22.61-28.72-31.89-41.07l-6.79,1.74c-13.58,3.47-26.98,4.17-39.73,2.53-9.37-1.19-18.38-3.63-26.88-7.18-15.69-6.53-29.56-16.76-40.46-29.62.56-2.71.98-4.89,1.23-6.27.85-4.5,2.43-12.56,4.07-21.76,25.36.38,57.87-1.84,94.35-11.19,17.75-4.53,33.87-10.12,48.27-16.1,1.36,2.03,3.58,3.4,6.04,4.11-.46.55-.9,1.16-1.32,1.84-.51.84-3.65,6.22-1.39,11.17,1.64,3.58,5.31,5.25,6.82,5.72,10.68,3.36,22.48-12.06,28.28-18.76,8.02-9.24,16.91-24.78,19.64-39.69.67.58,1.06,1.42,1.29,2.24.13.85.23,1.68.35,2.52v.14Z"/>
    <path class="cls-2" d="M266.15,254.71c-14.4,5.98-30.53,11.57-48.27,16.1-36.48,9.35-68.99,11.57-94.35,11.19-1.64,9.19-3.21,17.25-4.07,21.76-.25,1.38-.67,3.56-1.23,6.27-3.07,14.62-10.68,44.61-22.87,45.87-1.58.14-5.62.1-8.55-2.55-4.02-3.65-3.29-9.84-3.14-10.81.09-.74.25-1.42.43-2.04,3.01-.33,5.83-1.98,7.54-3.63.62-.59,2.88-2.76,2.26-4.46-.16-.46-.55-.91-1.06-1.1-1.78-.64-4.24,2.13-5.15,3.16-.98,1.1-2.69,3.04-3.59,6.04-1.49.19-3.04.01-4.53-.61-1.77-.77-3.13-2.06-3.86-3.17-4.37-6.57,4.36-19.67,9.93-30.19,2.91-5.51,6.07-13.32,8.89-22.61,2.84-9.37,3.69-19.28,2.2-28.95-1.75-11.26-1.69-23.1.49-35.23l1.16-6.38.22-.23c9.15,8.44,24.49,10.2,35.87,5.37,12.48-5.33,19.05-18.22,20.61-31.19,8.12,4.07,17.14,5.8,24.3,3.37,6.64-2.26,11.52-7.19,14.78-13.29,5.76,3.78,12.41,5.79,19.32,4.57,8.58-1.49,15.16-7.47,19.45-14.97,1.55-2.72,2.94-5.72,4.05-8.87,6.12,5.01,13.82,8.8,20.77,10.71,9.55,2.63,20.41,1.46,28.39-4.41,2.37-1.75,4.26-3.71,5.72-5.8l7.64,9.51c1.32,1.65,2.59,3.31,3.79,5.01,4.41,6.15,9.37,11.87,14.58,17.37,7.08,7.47,8.32,17.89,6.35,28.62-2.74,14.91-11.62,30.46-19.64,39.69-5.8,6.7-17.6,22.12-28.28,18.76-1.51-.46-5.18-2.14-6.82-5.72-2.26-4.95.88-10.34,1.39-11.17.42-.68.85-1.29,1.32-1.84,2.72.78,5.76.72,8.27-.22.81-.29,3.73-1.38,3.85-3.17.03-.49-.16-1.06-.55-1.45-1.36-1.29-4.73.29-5.96.87-1.32.61-3.62,1.68-5.6,3.97-2.46-.71-4.68-2.08-6.04-4.11Z"/>
    <path class="cls-3" d="M292.25,130.34c4.52,9.54,5.33,20.03-.39,28.26-1.46,2.1-3.34,4.05-5.72,5.8-7.98,5.88-18.83,7.05-28.39,4.41-6.95-1.91-14.65-5.7-20.77-10.71,1.98-5.57,3.08-11.58,2.72-17.17-.33-4.83-3.89-14.39-10.16-12.26-8.55,2.94-3.04,17.18.25,21.86,1.91,2.74,4.39,5.27,7.19,7.57-1.11,3.16-2.5,6.15-4.05,8.87-4.3,7.5-10.87,13.48-19.45,14.97-6.92,1.22-13.56-.8-19.32-4.57-3.26,6.09-8.13,11.03-14.78,13.29-7.17,2.43-16.18.69-24.3-3.37.01-.14.04-.3.06-.45.96-8.51.29-20.64-5.51-27.59-7.18-8.57-18.54-1.2-14.34,8.92,3.13,7.51,10.91,14.71,19.8,19.12-1.56,12.97-8.13,25.87-20.61,31.19-11.38,4.83-26.72,3.07-35.87-5.37-.61-.55-1.19-1.13-1.74-1.75-16.53-18.61,2.19-55.02,7.6-65.59,3.72-7.21,12.69-24.69,29.99-39.05.04.17.1.35.13.51,0,0,.01.01.01.03.56,2.03,2.42,3.42,4.52,3.47l16.6.48c2.29.06,4.53-.78,6.18-2.36,1.64-1.56,3.16-3.29,4.41-5.15,1.4-2.06,3.58-4.62,5.15-7.19,1.11.49,2.17.96,3.08,1.42,2,1.03,4.15,1.81,6.34,2.4,2.21.59,4.57.26,6.54-.88l14.36-8.38c1.82-1.06,2.76-3.17,2.29-5.21v-.04c-.06-.23-.12-.51-.2-.8h.01c34.9,1.53,74.63,16.34,88.37,45.34ZM194.14,177.36c6.73-12.94,6.59-31.25-.2-39.92-.3-.38-6.08-7.6-11.51-6.22-.01.01-.03.01-.06.01l-.06.03c-5.41,1.38-7.03,10.49-7.11,10.96-1.81,10.87,6.83,27.01,18.93,35.15Z"/>
    <path class="cls-3" d="M239.7,140.94c.36,5.59-.74,11.59-2.72,17.17-2.81-2.3-5.28-4.83-7.19-7.57-3.29-4.68-8.8-18.92-.25-21.86,6.27-2.13,9.83,7.43,10.16,12.26Z"/>
    <path class="cls-4" d="M172.47,87.66c.23.12.46.23.69.36,2.74,1.45,5.12,2.97,7.18,4.43,1.56,1.13,3.65,1.19,5.31.22l16.88-9.86c.71.36,1.1,1.35,1.33,2.2.09.29.14.56.2.8v.04c.48,2.04-.46,4.15-2.29,5.21l-14.36,8.38c-1.97,1.14-4.33,1.48-6.54.88-2.19-.59-4.34-1.38-6.34-2.4-.91-.46-1.97-.93-3.08-1.42-2.55-1.16-5.38-2.46-7.35-4.11-.43-.35-.83-.72-1.16-1.11-1-1.19-1.61-3.47-1.32-5.49.12-.83.39-1.62.84-2.26,2.91.93,6.33,2.23,10,4.13Z"/>
    <path class="cls-4" d="M202.53,82.81l-16.88,9.86c-1.66.97-3.75.91-5.31-.22-2.06-1.46-4.44-2.98-7.18-4.43-.23-.13-.46-.25-.69-.36-3.68-1.9-7.09-3.2-10-4.13,4.72-2.23,9.44-4.46,14.16-6.67,3.85-1.82,8.22-2.07,12.27-.77.81.28,1.65.56,2.5.9,4.65,1.75,8.35,3.92,11.13,5.82Z"/>
    <path class="cls-3" d="M193.93,137.44c6.79,8.67,6.93,26.98.2,39.92-12.1-8.13-20.74-24.27-18.93-35.15.07-.46,1.69-9.58,7.11-10.96l.06-.03s.04,0,.06-.01c5.43-1.38,11.2,5.85,11.51,6.22Z"/>
    <path class="cls-1" d="M184.02,369.53c5.4,6.76,7.5,18.2-1.72,24.43-12.1,8.19-24.35-6.96-31.63-14.55-4.36-4.55-7.76-8.82-10.29-12.29-1.39-1.91-1.32-4.5.22-6.28,4.56-5.3,11.3-13.27,18.09-21.21,8.5,3.55,17.51,5.99,26.88,7.18-6.56,6.22-13.04,11.77-17.02,15.49,1.03-.01,9.71-.01,15.47,7.22Z"/>
    <path class="cls-4" d="M164.1,92.39c1.97,1.65,4.81,2.95,7.35,4.11-1.58,2.58-3.75,5.14-5.15,7.19-1.26,1.87-2.78,3.59-4.41,5.15-1.65,1.58-3.89,2.42-6.18,2.36l-16.6-.48c-2.1-.06-3.95-1.45-4.52-3.47,0-.01-.01-.03-.01-.03-.03-.16-.09-.33-.13-.51-.25-.93-.46-2.14.04-2.87l19.56.56c1.91.06,3.71-1.01,4.55-2.74,1.1-2.27,2.48-4.75,4.18-7.34.43-.67.88-1.32,1.33-1.94h0Z"/>
    <path class="cls-4" d="M164.1,92.39h0c-.45.64-.9,1.29-1.33,1.95-1.71,2.59-3.08,5.07-4.18,7.34-.84,1.72-2.63,2.79-4.55,2.74l-19.56-.56c1.52-3.01,3.75-6.67,6.98-10.45.59-.69,1.19-1.35,1.78-1.98,2.92-3.08,6.89-4.96,11.13-5.21,2.42-.14,4.83-.29,7.24-.42h.01c-.29,2.01.32,4.3,1.32,5.49.33.39.72.77,1.16,1.11Z"/>
    <path class="cls-3" d="M149.61,159.25c5.8,6.95,6.47,19.08,5.51,27.59-.01.14-.04.3-.06.45-8.89-4.41-16.68-11.61-19.8-19.12-4.2-10.12,7.17-17.49,14.34-8.92Z"/>
  </g>
  <g>
    <path class="cls-5" d="M229.43,236.86c1.62,0,3.26-.27,4.86-.82,7.5-2.6,11.64-10.62,9.42-18.26-.23-.8-1.06-1.25-1.86-1.02-.8.23-1.25,1.06-1.02,1.86,1.77,6.11-1.53,12.52-7.52,14.59-5.9,2.05-12.44-.86-14.89-6.64-.32-.76-1.2-1.12-1.97-.8-.76.32-1.12,1.2-.8,1.97,2.4,5.66,7.94,9.12,13.78,9.12Z"/>
    <path class="cls-5" d="M199.85,221.82c1.18,0,2.37-.14,3.55-.43,7.69-1.92,12.54-9.53,11.04-17.33-.16-.81-.94-1.35-1.76-1.19-.81.16-1.35.94-1.19,1.76,1.2,6.24-2.67,12.32-8.82,13.85-6.07,1.5-12.32-2-14.22-7.97-.25-.79-1.1-1.22-1.88-.97-.79.25-1.23,1.1-.97,1.88,2.01,6.3,7.89,10.41,14.25,10.41Z"/>
    <path class="cls-5" d="M244.65,208.8c1.18,0,2.37-.14,3.55-.43,7.69-1.92,12.54-9.53,11.04-17.33-.16-.81-.94-1.35-1.76-1.19-.81.16-1.35.94-1.19,1.76,1.2,6.24-2.67,12.32-8.82,13.85-6.07,1.5-12.32-2-14.22-7.97-.25-.79-1.1-1.22-1.88-.97-.79.25-1.23,1.1-.97,1.88,2.01,6.3,7.89,10.41,14.25,10.41Z"/>
    <path class="cls-5" d="M297.16,339.98c-4.97-1.82-11.37-1.27-16.69,1.46-5.85,2.98-8.66,7.93-9.96,11.35-.62-1.05-1.28-2.19-1.99-3.4-2.28-3.9-5.06-8.66-8.06-13.46,44.89-17.78,72.33-63.53,66.9-111.98v-.08c0-.35-.03-1.59-.4-2.92,0-.03-.02-.05-.03-.08,0-.02-.01-.03-.02-.05-.26-.86-.62-1.59-1.09-2.18,2.06-12.16-.29-22.24-6.86-29.17-5.81-6.13-10.54-11.76-14.44-17.21-1.12-1.58-2.38-3.24-3.85-5.08l-6.97-8.67c4.9-7.84,4.89-18.26-.1-28.8-13.99-29.52-54.41-44.38-88.65-46.14-.37-.9-.87-1.52-1.48-1.92-.03-.03-.06-.06-.09-.08-3.63-2.47-7.48-4.49-11.43-5.98-.88-.34-1.74-.64-2.59-.93-4.46-1.43-9.21-1.13-13.37.84-4.64,2.18-9.29,4.37-13.93,6.57l-.23.11s-.01,0-.02.01c-.25.12-.46.31-.61.54-.33.48-.58,1.03-.77,1.63-2.04.11-4.09.23-6.14.36-4.61.27-8.92,2.28-12.14,5.69-.61.65-1.22,1.32-1.82,2.03-2.84,3.32-5.25,6.94-7.18,10.75,0,0,0,.02-.01.03-.53.91-.52,2.01-.35,2.95-16.98,14.36-25.81,31.46-29.61,38.82l-.1.19c-16.27,31.75-18.74,54.36-7.35,67.19.35.39.71.77,1.09,1.14l-1.08,5.96c-2.16,11.97-2.32,23.99-.5,35.73,1.42,9.18.67,18.96-2.15,28.29-2.63,8.67-5.75,16.61-8.78,22.34-.85,1.61-1.78,3.29-2.73,4.99-5.57,10.04-11.33,20.42-7.13,26.74,1.02,1.54,2.71,2.93,4.54,3.73,1,.42,2.03.66,3.08.75l-.06.21.19-.02s-.01.07-.02.1c-.19,1.3-.94,8.02,3.62,12.15,2.84,2.56,6.44,2.98,8.48,2.98.52,0,.95-.03,1.23-.05,11.52-1.19,19.09-24,23.55-44.13,10.33,11.52,23.1,20.77,37.16,26.95-2.69,3.15-5.36,6.28-7.86,9.22-3.38,3.97-6.46,7.6-8.92,10.44-1.98,2.3-2.11,5.65-.29,8.15,3.18,4.36,6.69,8.55,10.42,12.44.64.67,1.32,1.4,2.04,2.16,5.96,6.37,14.26,15.25,23.29,15.25,2.69,0,5.44-.79,8.22-2.67,3.8-2.57,6.16-6.21,6.81-10.54.8-5.24-1.03-11.4-4.76-16.07-4.08-5.13-9.51-6.89-13.11-7.49,1.01-.91,2.11-1.9,3.3-2.96,3.26-2.91,6.94-6.2,10.7-9.76,4.22.51,8.46.78,12.7.78,8.97,0,17.97-1.14,26.89-3.42l5.82-1.49c6.31,8.37,15.14,19.64,22.29,28.75,3.48,4.44,6.62,8.45,9.01,11.54,1.27,1.63,3.19,2.51,5.16,2.51.92,0,1.86-.19,2.76-.6,4.86-2.23,9.66-4.83,14.28-7.74.78-.49,1.62-1.01,2.51-1.56,9.65-5.94,24.24-14.93,18.63-28.4-1.77-4.24-4.87-7.27-8.97-8.77ZM135.89,106.34c-.11-.41-.16-.71-.19-.95l18.29.53c.06,0,.13,0,.19,0,2.44,0,4.68-1.39,5.75-3.58,1.17-2.42,2.55-4.83,4.09-7.17.14-.22.29-.42.44-.64,1.48,1,3.17,1.86,4.78,2.61-.71,1.03-1.48,2.06-2.24,3.06-.71.94-1.38,1.83-1.95,2.66-1.12,1.65-2.53,3.31-4.21,4.91-1.34,1.28-3.21,1.99-5.1,1.94l-16.6-.48c-1.45-.04-2.73-1.02-3.11-2.38h0s0-.03-.01-.04c-.02-.1-.05-.2-.08-.3l-.05-.17ZM172.21,95.19l-.13-.06c-2.3-1.05-5.16-2.35-7.04-3.92-.36-.29-.68-.6-.95-.91-.67-.8-1.22-2.63-.98-4.31.03-.22.09-.41.15-.61,2.95,1.01,5.81,2.21,8.52,3.6,0,0,.02,0,.02.01.21.1.42.21.66.34,2.41,1.27,4.77,2.73,7,4.32,1.09.79,2.38,1.18,3.68,1.18,1.12,0,2.25-.29,3.27-.89l15.79-9.22c.07.18.15.4.23.7.05.18.09.35.13.5l.02.09c0,.05.02.11.03.16.32,1.38-.33,2.85-1.58,3.57l-14.36,8.38c-1.63.95-3.6,1.21-5.4.73-2.24-.61-4.28-1.38-6.05-2.29-.91-.46-1.93-.91-3.01-1.39ZM177.26,78.21c3.48-1.65,7.44-1.89,11.15-.7.79.27,1.61.55,2.46.88,3.02,1.14,5.97,2.6,8.8,4.35l-14.78,8.63c-1.17.68-2.62.63-3.69-.14-2.35-1.67-4.82-3.2-7.31-4.51-.25-.14-.5-.27-.75-.39-2.16-1.11-4.41-2.12-6.73-3,3.61-1.71,7.23-3.41,10.85-5.11ZM142.6,94.38c.58-.68,1.16-1.31,1.73-1.92,2.69-2.84,6.29-4.52,10.13-4.75,1.87-.11,3.74-.22,5.61-.33.11,1.85.74,3.69,1.73,4.87.11.12.23.24.34.36-.21.3-.42.6-.62.91-1.61,2.44-3.05,4.97-4.28,7.51-.58,1.19-1.83,1.93-3.15,1.89l-17.13-.49c1.6-2.83,3.5-5.53,5.65-8.05ZM105.78,146.46l.05-.11c3.65-7.07,12.04-23.33,27.99-37.15,1.09,1.79,3.02,2.96,5.23,3.02l16.61.48c.08,0,.17,0,.26,0,2.61,0,5.14-1,7-2.78,1.83-1.75,3.39-3.57,4.62-5.39.53-.77,1.17-1.63,1.86-2.54.84-1.12,1.77-2.35,2.62-3.61.66.29,1.28.58,1.83.86,1.95,1.01,4.19,1.85,6.64,2.52.84.23,1.71.34,2.57.34,1.78,0,3.55-.47,5.11-1.37l14.35-8.38c2.09-1.21,3.27-3.43,3.15-5.75,33.15,1.91,71.87,16.23,85.21,44.37,2.77,5.86,6.43,17.13-.27,26.76-1.41,2.03-3.22,3.87-5.38,5.45-7.2,5.31-17.33,6.87-27.1,4.18-6.83-1.88-13.83-5.43-19.41-9.8,1.94-5.8,2.79-11.56,2.46-16.73-.24-3.51-2.14-10.1-6.2-12.8-1.82-1.21-3.87-1.48-5.94-.77-2.48.85-4.22,2.62-5.03,5.12-1.97,6.08,1.98,15.39,4.53,19.02,1.72,2.46,3.96,4.87,6.65,7.17-.99,2.64-2.18,5.22-3.58,7.67-4.53,7.9-11.07,12.96-18.41,14.24-5.62.99-11.52-.28-17.13-3.65,6.33-13.29,5.97-31.45-.99-40.33-1.12-1.39-7.02-8.25-13.04-6.73-.06.02-.12.04-.18.06,0,0-.02,0-.02,0-6.43,1.72-8.07,11.73-8.13,12.14-1.85,11.09,6.52,27.2,18.44,35.84-3.31,5.64-7.86,9.6-13.27,11.43-6.05,2.05-14.09,1.01-22.21-2.84.51-5.13,1.2-19.58-5.92-28.11-4.21-5.03-9.68-5.1-13.24-2.95-3.66,2.22-6.21,7.23-3.64,13.41,3.03,7.28,10.47,14.63,19.55,19.38-1.94,13.76-9.19,24.55-19.56,28.98-11.22,4.77-25.95,2.58-34.28-5.1-.59-.54-1.12-1.07-1.62-1.64-10.49-11.81-7.88-33.29,7.81-63.9ZM236.26,155.51c-2.1-1.9-3.86-3.85-5.25-5.84-2.32-3.3-5.68-11.59-4.13-16.37.52-1.61,1.55-2.66,3.14-3.2.44-.15.86-.22,1.27-.22.71,0,1.38.22,2.04.66,2.84,1.89,4.65,7.32,4.87,10.5.29,4.45-.38,9.42-1.94,14.48ZM182.68,132.71s.11-.03.16-.06c3.51-.84,7.88,3.19,9.91,5.71,6.13,7.83,6.41,24.6.81,36.76-10.9-8.08-18.54-22.67-16.88-32.67.35-2.22,2.19-8.77,5.99-9.74ZM153.8,184.93c-8.02-4.44-14.49-10.95-17.15-17.34-1.88-4.53-.14-8.13,2.43-9.69.9-.55,2.04-.91,3.3-.91,1.92,0,4.1.85,6.08,3.22,4.94,5.92,6.01,16.32,5.34,24.72ZM95.22,354.4c-.76.07-4.68.29-7.41-2.17-3.49-3.17-2.76-8.84-2.66-9.53.04-.3.09-.59.15-.9,3.09-.62,5.79-2.34,7.37-3.87,2.39-2.28,3.27-4.32,2.64-6.03-.32-.93-1.05-1.68-1.97-2.02-2.74-.98-5.57,2.21-6.78,3.57-.84.94-2.5,2.81-3.56,5.6-.98,0-1.94-.18-2.84-.55-1.53-.66-2.66-1.79-3.21-2.62-3.19-4.8,2.36-14.8,7.25-23.62.95-1.72,1.89-3.41,2.76-5.04,3.11-5.9,6.31-14.03,9-22.88,2.95-9.75,3.73-19.99,2.25-29.62-1.77-11.41-1.61-23.1.49-34.73l.76-4.21c5.82,4.48,13.6,6.87,21.44,6.87,4.84,0,9.71-.91,14.16-2.8,11.1-4.74,18.92-16.01,21.21-30.36,5.49,2.48,10.97,3.76,15.93,3.76,2.75,0,5.33-.39,7.67-1.18,6.06-2.06,11.16-6.4,14.83-12.6,6.2,3.69,12.75,5.05,19.04,3.95,8.24-1.43,15.52-7.01,20.5-15.7,1.31-2.31,2.46-4.72,3.44-7.19,5.75,4.33,12.81,7.84,19.69,9.73,3.41.94,6.86,1.4,10.24,1.4,7.18,0,14.04-2.08,19.43-6.05,1.85-1.37,3.48-2.9,4.86-4.58l6.44,8.01c1.43,1.79,2.65,3.41,3.75,4.95,3.99,5.56,8.8,11.29,14.71,17.53,7.6,8.02,7.44,19.28,5.97,27.31-2.69,14.67-11.63,30.15-19.3,38.98-.5.58-1.05,1.23-1.64,1.92-5.68,6.7-16.24,19.16-25.07,16.39-1.58-.49-4.59-2.07-5.89-4.91-1.88-4.12.76-8.87,1.3-9.76.21-.33.42-.64.63-.94,1.09.23,2.2.35,3.29.35,1.71,0,3.39-.28,4.89-.85,3.09-1.1,4.72-2.61,4.84-4.5.06-.95-.31-1.92-1.02-2.62-2.11-2-5.98-.18-7.62.6-1.22.56-3.38,1.57-5.41,3.61-1.89-.7-3.42-1.83-4.36-3.23,0,0,0,0,0,0h0c-.7-1.05-1.09-2.28-1.13-3.66-.16-6.07,7.97-9.9,13.9-12.7.87-.41,1.69-.8,2.42-1.16,11.98-5.98,17.21-19.02,12.43-30.99-.31-.77-1.18-1.15-1.95-.84-.77.31-1.14,1.18-.84,1.95,4.18,10.49-.44,21.93-10.99,27.2-.71.35-1.51.73-2.36,1.13-6.31,2.97-15.84,7.46-15.62,15.5.04,1.31.32,2.52.8,3.64-15.13,6.2-30.78,11.39-46.55,15.41-30.1,7.72-61.11,11.46-92.19,11.15,2.82-16,4.55-28.44,5.14-36.97.06-.83-.57-1.54-1.39-1.6-.82-.06-1.54.57-1.6,1.39-.6,8.73-2.42,21.65-5.41,38.4-1.29,7.28-2.54,13.77-3.45,18.5l-.62,3.25c-.29,1.63-.74,3.9-1.22,6.22-5.79,27.58-13.65,43.87-21.54,44.69ZM86.68,338.29c.75-1.29,1.59-2.23,2.13-2.84,2.26-2.55,3.2-2.75,3.44-2.75.04,0,.06,0,.07,0,.05.02.13.11.17.21,0,0,.23.84-1.89,2.86-.92.89-2.3,1.86-3.92,2.51ZM282.69,255.05c.07.07.12.21.11.29-.01.22-.57,1.04-2.88,1.86-1.33.5-2.88.72-4.44.65,1.12-.79,2.18-1.28,2.94-1.63,3.55-1.67,4.26-1.17,4.27-1.16ZM173.39,355.9c-2.28,2.04-4.26,3.8-5.87,5.3-.45.42-.6,1.08-.37,1.66.23.58.79.95,1.41.94,1.49-.01,9.14.2,14.28,6.66,3.23,4.04,4.81,9.31,4.14,13.75-.54,3.52-2.4,6.38-5.53,8.5-9.96,6.75-20.18-4.18-27.64-12.15-.73-.78-1.42-1.51-2.07-2.19-3.64-3.8-7.06-7.88-10.16-12.13-.99-1.36-.93-3.18.14-4.42,2.45-2.85,5.54-6.48,8.93-10.46,2.69-3.16,5.57-6.55,8.47-9.94,7.46,3.02,15.22,5.18,23.13,6.43-3.12,2.9-6.15,5.61-8.88,8.05ZM285.92,374.6c-.9.55-1.75,1.08-2.54,1.58-4.5,2.83-9.18,5.37-13.92,7.55-1.52.69-3.29.26-4.3-1.03-2.39-3.08-5.54-7.1-9.02-11.54-7.36-9.39-16.53-21.08-22.85-29.5,0,0,0,0,0,0-.06-.08-.13-.15-.2-.22-.03-.03-.07-.05-.11-.08-.04-.03-.08-.06-.13-.09-.04-.03-.09-.04-.14-.06-.04-.02-.08-.04-.12-.06-.04-.01-.08-.02-.13-.03-.05-.01-.1-.03-.16-.04-.05,0-.09,0-.14,0-.05,0-.1,0-.15,0-.1,0-.2.02-.29.04,0,0,0,0,0,0l-6.79,1.74c-13,3.32-26.17,4.17-39.17,2.5-9.09-1.15-18-3.53-26.49-7.08-15.07-6.27-28.68-16.17-39.41-28.66.43-2.09.82-4.09,1.08-5.56l.62-3.23c.86-4.47,2.01-10.51,3.23-17.29,1.35.02,2.71.03,4.06.03,30.15,0,60.2-3.79,89.4-11.28,16.07-4.1,32.02-9.4,47.42-15.74,1.08,1.24,2.49,2.27,4.15,3.02-.08.12-.15.22-.23.35-.96,1.6-3.91,7.22-1.47,12.57,2.15,4.69,7.17,6.35,7.73,6.52,1.19.38,2.39.55,3.58.55,9.52,0,18.84-10.99,24.66-17.86.58-.69,1.12-1.32,1.62-1.9,6.52-7.51,14.84-20.68,18.72-34.91,5.06,47.48-22.29,92.21-66.73,108.94h0s-.08.04-.12.06c-.14.07-.28.15-.39.26-.03.03-.05.06-.08.09-.04.04-.08.08-.11.13-.03.04-.05.09-.07.13-.02.04-.05.08-.07.12-.02.04-.03.09-.05.13-.02.05-.04.09-.05.14,0,.04-.01.08-.02.13,0,.05-.02.11-.02.16,0,.05,0,.1,0,.15,0,.05,0,.09,0,.13.01.09.04.18.07.27,0,0,0,.01,0,.02h0c.04.09.08.19.14.28,3.33,5.25,6.45,10.6,8.96,14.89,1.45,2.48,2.69,4.61,3.78,6.39.32.53.94.81,1.55.69.61-.11,1.09-.59,1.2-1.2.27-1.46,2-8.92,9.37-12.67,4.6-2.35,10.08-2.86,14.29-1.31,3.34,1.23,5.78,3.62,7.23,7.11,4.63,11.1-8.12,18.95-17.43,24.69Z"/>
  </g>
</svg>