<?xml version="1.0" encoding="UTF-8"?>
<svg id="Layer_1" data-name="Layer 1" xmlns="http://www.w3.org/2000/svg" viewBox="0 0 401.04 471.6">
  <defs>
    <style>
      .cls-1 {
        fill: #fff;
      }

      .cls-2 {
        fill: #101010;
      }
    </style>
  </defs>
  <rect class="cls-2" x="-3.63" y=".04" width="408.29" height="471.51"/>
  <g>
    <path class="cls-1" d="M87.45,337.18c-.4.45-.9,1-1.4,1.69,1.05-.56,1.95-1.24,2.61-1.88,1.42-1.36,1.73-2.11,1.79-2.38-.37.12-1.24.62-3.01,2.57ZM147.37,159.32c-1.92-2.31-4.03-3.13-5.88-3.13-1.19,0-2.28.35-3.13.86-2.46,1.49-4.12,4.96-2.31,9.35,2.6,6.25,8.86,12.63,16.69,17.09.58-8.36-.56-18.42-5.38-24.17ZM160.92,90.32c-1-1.17-1.65-2.93-1.83-4.78-1.75.1-3.52.19-5.29.31-3.82.22-7.37,1.88-10.02,4.69-.59.63-1.17,1.27-1.77,1.96-2,2.34-3.79,4.87-5.34,7.51l16.72.49c1.15,0,2.32-.63,2.84-1.7,1.24-2.57,2.72-5.15,4.37-7.65.15-.23.31-.45.46-.68-.05-.05-.1-.09-.14-.14ZM164.02,92.93c-.06.1-.14.21-.22.32-1.55,2.36-2.93,4.79-4.11,7.22-1.15,2.36-3.59,3.86-6.23,3.86h-.18l-18.09-.53c.03.14.05.28.1.46.04.13.09.29.13.45,0,.03.01.05.01.08h.01c.33,1.2,1.46,2.07,2.75,2.1l16.88.49c1.84.04,3.59-.63,4.88-1.86,1.68-1.6,3.1-3.25,4.23-4.92.56-.82,1.23-1.72,1.95-2.65.69-.91,1.38-1.84,2.05-2.78-1.45-.68-2.88-1.41-4.18-2.24ZM192.33,137.12c-1.24-1.61-5.25-5.76-8.71-5.76-.33,0-.67.04-.97.13-.01,0-.13.03-.14.03-3.62.94-5.44,7.39-5.79,9.58-1.61,9.71,6.01,24.37,16.6,32.47,5.41-12.18,5.07-28.7-.99-36.44ZM190.59,76.36c-.83-.32-1.65-.6-2.46-.87-3.68-1.19-7.6-.95-11.04.68l-10.16,4.79c1.99.79,3.92,1.69,5.83,2.66.08.03.14.06.22.12.23.12.46.22.68.33,2.59,1.37,5.11,2.93,7.51,4.64.51.36,1.13.55,1.74.55.54,0,1.08-.14,1.56-.42l14.44-8.43c-2.64-1.6-5.43-2.96-8.31-4.05ZM199.49,84.5l-13.09,7.65c-1.09.63-2.31.95-3.51.95-1.4,0-2.79-.42-3.97-1.27-2.24-1.6-4.62-3.07-7.06-4.37-2.86-1.51-5.84-2.79-8.89-3.86-.28,1.52.19,3.41.87,4.21,1.65,1.95,5.26,3.57,8.17,4.88,1.09.49,2.11.96,3.01,1.41,1.83.94,3.87,1.7,6.06,2.29,1.73.46,3.62.21,5.17-.7l14.59-8.51c.95-.55,1.5-1.58,1.49-2.63-.91-.03-1.84-.05-2.84-.06ZM238.39,139.62c-.21-3.15-1.99-8.52-4.76-10.36-.6-.4-1.2-.6-1.84-.6-.37,0-.76.08-1.17.2-1.51.53-2.45,1.47-2.95,3-1.52,4.71,1.83,12.98,4.15,16.27,1.29,1.84,2.89,3.68,4.79,5.43,1.45-4.89,2.06-9.66,1.78-13.94ZM283.47,255.67c-.46,0-1.5.18-3.69,1.2-.5.23-1.11.51-1.78.9,1.06-.06,2.09-.28,3.01-.61,1.86-.7,2.43-1.26,2.6-1.49h-.14ZM283.47,255.67c-.46,0-1.5.18-3.69,1.2-.5.23-1.11.51-1.78.9,1.06-.06,2.09-.28,3.01-.61,1.86-.7,2.43-1.26,2.6-1.49h-.14ZM233.62,129.26c-.6-.4-1.2-.6-1.84-.6-.37,0-.76.08-1.17.2-1.51.53-2.45,1.47-2.95,3-1.52,4.71,1.83,12.98,4.15,16.27,1.29,1.84,2.89,3.68,4.79,5.43,1.45-4.89,2.06-9.66,1.78-13.94-.21-3.15-1.99-8.52-4.76-10.36ZM186.4,92.15c-1.09.63-2.31.95-3.51.95-1.4,0-2.79-.42-3.97-1.27-2.24-1.6-4.62-3.07-7.06-4.37-2.86-1.51-5.84-2.79-8.89-3.86-.28,1.52.19,3.41.87,4.21,1.65,1.95,5.26,3.57,8.17,4.88,1.09.49,2.11.96,3.01,1.41,1.83.94,3.87,1.7,6.06,2.29,1.73.46,3.62.21,5.17-.7l14.59-8.51c.95-.55,1.5-1.58,1.49-2.63-.91-.03-1.84-.05-2.84-.06l-13.09,7.65ZM172.97,83.73c.23.12.46.22.68.33,2.59,1.37,5.11,2.93,7.51,4.64.51.36,1.13.55,1.74.55.54,0,1.08-.14,1.56-.42l14.44-8.43c-2.64-1.6-5.43-2.96-8.31-4.05-.83-.32-1.65-.6-2.46-.87-3.68-1.19-7.6-.95-11.04.68l-10.16,4.79c1.99.79,3.92,1.69,5.83,2.66.08.03.14.06.22.12ZM183.62,131.36c-.33,0-.67.04-.97.13-.01,0-.13.03-.14.03-3.62.94-5.44,7.39-5.79,9.58-1.61,9.71,6.01,24.37,16.6,32.47,5.41-12.18,5.07-28.7-.99-36.44-1.24-1.61-5.25-5.76-8.71-5.76ZM163.8,93.25c-1.55,2.36-2.93,4.79-4.11,7.22-1.15,2.36-3.59,3.86-6.23,3.86h-.18l-18.09-.53c.03.14.05.28.1.46.04.13.09.29.13.45,0,.03.01.05.01.08h.01c.33,1.2,1.46,2.07,2.75,2.1l16.88.49c1.84.04,3.59-.63,4.88-1.86,1.68-1.6,3.1-3.25,4.23-4.92.56-.82,1.23-1.72,1.95-2.65.69-.91,1.38-1.84,2.05-2.78-1.45-.68-2.88-1.41-4.18-2.24-.06.1-.14.21-.22.32ZM156.23,98.79c1.24-2.57,2.72-5.15,4.37-7.65.15-.23.31-.45.46-.68-.05-.05-.1-.09-.14-.14-1-1.17-1.65-2.93-1.83-4.78-1.75.1-3.52.19-5.29.31-3.82.22-7.37,1.88-10.02,4.69-.59.63-1.17,1.27-1.77,1.96-2,2.34-3.79,4.87-5.34,7.51l16.72.49c1.15,0,2.32-.63,2.84-1.7ZM141.49,156.19c-1.19,0-2.28.35-3.13.86-2.46,1.49-4.12,4.96-2.31,9.35,2.6,6.25,8.86,12.63,16.69,17.09.58-8.36-.56-18.42-5.38-24.17-1.92-2.31-4.03-3.13-5.88-3.13ZM87.45,337.18c-.4.45-.9,1-1.4,1.69,1.05-.56,1.95-1.24,2.61-1.88,1.42-1.36,1.73-2.11,1.79-2.38-.37.12-1.24.62-3.01,2.57ZM283.47,255.67c-.46,0-1.5.18-3.69,1.2-.5.23-1.11.51-1.78.9,1.06-.06,2.09-.28,3.01-.61,1.86-.7,2.43-1.26,2.6-1.49h-.14ZM233.62,129.26c-.6-.4-1.2-.6-1.84-.6-.37,0-.76.08-1.17.2-1.51.53-2.45,1.47-2.95,3-1.52,4.71,1.83,12.98,4.15,16.27,1.29,1.84,2.89,3.68,4.79,5.43,1.45-4.89,2.06-9.66,1.78-13.94-.21-3.15-1.99-8.52-4.76-10.36ZM186.4,92.15c-1.09.63-2.31.95-3.51.95-1.4,0-2.79-.42-3.97-1.27-2.24-1.6-4.62-3.07-7.06-4.37-2.86-1.51-5.84-2.79-8.89-3.86-.28,1.52.19,3.41.87,4.21,1.65,1.95,5.26,3.57,8.17,4.88,1.09.49,2.11.96,3.01,1.41,1.83.94,3.87,1.7,6.06,2.29,1.73.46,3.62.21,5.17-.7l14.59-8.51c.95-.55,1.5-1.58,1.49-2.63-.91-.03-1.84-.05-2.84-.06l-13.09,7.65ZM172.97,83.73c.23.12.46.22.68.33,2.59,1.37,5.11,2.93,7.51,4.64.51.36,1.13.55,1.74.55.54,0,1.08-.14,1.56-.42l14.44-8.43c-2.64-1.6-5.43-2.96-8.31-4.05-.83-.32-1.65-.6-2.46-.87-3.68-1.19-7.6-.95-11.04.68l-10.16,4.79c1.99.79,3.92,1.69,5.83,2.66.08.03.14.06.22.12ZM183.62,131.36c-.33,0-.67.04-.97.13-.01,0-.13.03-.14.03-3.62.94-5.44,7.39-5.79,9.58-1.61,9.71,6.01,24.37,16.6,32.47,5.41-12.18,5.07-28.7-.99-36.44-1.24-1.61-5.25-5.76-8.71-5.76ZM163.8,93.25c-1.55,2.36-2.93,4.79-4.11,7.22-1.15,2.36-3.59,3.86-6.23,3.86h-.18l-18.09-.53c.03.14.05.28.1.46.04.13.09.29.13.45,0,.03.01.05.01.08h.01c.33,1.2,1.46,2.07,2.75,2.1l16.88.49c1.84.04,3.59-.63,4.88-1.86,1.68-1.6,3.1-3.25,4.23-4.92.56-.82,1.23-1.72,1.95-2.65.69-.91,1.38-1.84,2.05-2.78-1.45-.68-2.88-1.41-4.18-2.24-.06.1-.14.21-.22.32ZM156.23,98.79c1.24-2.57,2.72-5.15,4.37-7.65.15-.23.31-.45.46-.68-.05-.05-.1-.09-.14-.14-1-1.17-1.65-2.93-1.83-4.78-1.75.1-3.52.19-5.29.31-3.82.22-7.37,1.88-10.02,4.69-.59.63-1.17,1.27-1.77,1.96-2,2.34-3.79,4.87-5.34,7.51l16.72.49c1.15,0,2.32-.63,2.84-1.7ZM141.49,156.19c-1.19,0-2.28.35-3.13.86-2.46,1.49-4.12,4.96-2.31,9.35,2.6,6.25,8.86,12.63,16.69,17.09.58-8.36-.56-18.42-5.38-24.17-1.92-2.31-4.03-3.13-5.88-3.13ZM87.45,337.18c-.4.45-.9,1-1.4,1.69,1.05-.56,1.95-1.24,2.61-1.88,1.42-1.36,1.73-2.11,1.79-2.38-.37.12-1.24.62-3.01,2.57Z"/>
    <path class="cls-1" d="M318.26,191.11c-6.14-6.49-10.9-12.16-14.96-17.84-1.2-1.69-2.48-3.37-3.79-4.98l-6.25-7.78c-1.33,1.56-2.89,3.02-4.68,4.34-8.16,6.01-19.53,7.8-30.46,4.79-6.87-1.88-13.91-5.33-19.71-9.62-.95,2.37-2.06,4.66-3.32,6.85-5.12,8.94-12.62,14.68-21.1,16.14-6.37,1.13-12.99-.22-19.26-3.86-3.75,6.2-8.93,10.54-15.06,12.62-6.62,2.25-15.17,1.37-23.76-2.4-2.47,14.49-10.45,25.8-21.7,30.59-4.51,1.92-9.45,2.83-14.38,2.83-7.88,0-15.72-2.33-21.63-6.64l-.67,3.65c-2.11,11.77-2.28,23.59-.49,35.13,1.52,9.82.73,20.28-2.29,30.24-2.74,9.02-5.99,17.29-9.17,23.29-.87,1.67-1.83,3.39-2.81,5.16-4.91,8.84-10.46,18.87-7.35,23.53.53.82,1.6,1.88,3.07,2.51.78.33,1.6.51,2.45.54,1.09-2.72,2.68-4.51,3.59-5.55,1.34-1.49,4.34-4.83,7.34-3.74,1.02.38,1.84,1.23,2.23,2.27,1.05,2.89-1.82,5.66-2.77,6.57-2.05,1.96-4.74,3.39-7.43,3.98-.04.22-.08.44-.1.65-.1.64-.79,6.24,2.59,9.29,2.64,2.4,6.46,2.18,7.2,2.1,7.84-.81,15.68-17.23,21.52-45.04.58-2.74,1-4.94,1.24-6.33l.81-4.23c.88-4.62,2.09-10.94,3.32-17.86,3.04-17.04,4.88-30.14,5.48-38.94.08-1.06,1.01-1.87,2.05-1.78,1.06.06,1.86.99,1.78,2.05-.59,8.66-2.27,20.83-5.14,37.11,31.38.28,62.66-3.52,93.03-11.31,15.92-4.07,31.66-9.29,46.84-15.49-.41-1.09-.65-2.24-.69-3.47-.23-8.4,9.58-13.04,16.08-16.1.86-.41,1.67-.79,2.4-1.15,10.52-5.25,15.13-16.64,10.96-27.1-.4-.99.08-2.1,1.06-2.5.99-.38,2.11.09,2.5,1.08,4.93,12.36-.46,25.81-12.81,31.97-.74.37-1.59.77-2.47,1.18-5.6,2.64-14.03,6.62-13.87,12.51.04,1.32.4,2.5,1.09,3.52.86,1.29,2.25,2.34,3.97,3.02,2.05-2,4.2-3,5.43-3.56,1.74-.82,5.85-2.74,8.18-.51.79.76,1.22,1.86,1.17,2.95-.19,3.07-3.92,4.47-5.14,4.92-2.54.95-5.51,1.15-8.33.59-.17.23-.32.46-.46.7-.74,1.24-3.07,5.66-1.31,9.54,1.54,3.38,5.32,4.64,5.74,4.76,8.71,2.74,19.33-9.77,25.03-16.5.6-.7,1.15-1.37,1.67-1.96,7.75-8.93,16.79-24.57,19.51-39.39,2.15-11.73.14-20.94-5.96-27.39ZM214.04,212.65c-1.84,4.25-5.58,7.63-10.39,8.86-.04.01-.06.01-.1.03-1.24.31-2.48.45-3.7.45-6.62,0-12.74-4.28-14.85-10.84-.32-1.01.24-2.09,1.24-2.42,1.02-.32,2.1.24,2.42,1.24,1.87,5.87,8.02,9.31,13.96,7.83,6.03-1.49,9.84-7.47,8.66-13.59-.2-1.04.47-2.05,1.52-2.25,1.04-.19,2.05.49,2.24,1.52.61,3.2.22,6.38-1.01,9.17ZM234.94,236.42c-1.67.58-3.37.85-5.05.85-5.48,0-10.7-2.91-13.51-7.8-.31-.54-.6-1.11-.85-1.7-.42-.97.04-2.1,1.01-2.51.97-.41,2.1.04,2.52,1.01.1.23.21.46.32.68,2.6,5.23,8.72,7.77,14.29,5.84,4.92-1.7,8.01-6.42,7.84-11.44-.03-.96-.18-1.93-.46-2.89-.29-1.01.29-2.07,1.31-2.37,1.01-.31,2.09.28,2.38,1.31.41,1.4.6,2.82.61,4.21.06,6.52-4,12.58-10.43,14.82ZM252.68,206.92c-1.13.61-2.36,1.09-3.65,1.41-1.24.31-2.49.46-3.71.46-3.64,0-7.13-1.29-9.89-3.56-2.25-1.86-4-4.34-4.94-7.29-.32-1.01.23-2.09,1.24-2.41,1.01-.33,2.09.23,2.42,1.24.96,3,3.02,5.37,5.62,6.75,2.47,1.34,5.42,1.79,8.33,1.08.22-.05.44-.12.65-.19,5.66-1.74,9.16-7.51,8.02-13.41-.2-1.04.47-2.05,1.51-2.24,1.04-.21,2.05.47,2.25,1.52,1.31,6.81-2.02,13.49-7.85,16.64Z"/>
    <path class="cls-1" d="M186.4,386.42c-.54,3.46-2.37,6.26-5.44,8.35-9.09,6.16-18.23-2.31-27.56-12.31-.73-.78-1.43-1.52-2.09-2.2-3.71-3.88-7.17-8.02-10.29-12.28-.88-1.22-.83-2.86.14-3.98,2.47-2.88,5.6-6.55,9.02-10.57,2.68-3.15,5.56-6.53,8.45-9.93,7.26,2.92,14.81,5.05,22.5,6.31-2.98,2.77-5.87,5.34-8.49,7.69-2.28,2.05-4.27,3.82-5.89,5.33-.58.54-.77,1.38-.46,2.13.31.74,1.02,1.18,1.83,1.19.9-.04,8.88-.03,14.17,6.61,3.2,4.02,4.78,9.26,4.11,13.67Z"/>
    <path class="cls-1" d="M304.56,351.8c4.21,10.12-5.88,17.38-17.52,24.55-.91.56-1.79,1.1-2.59,1.61-4.56,2.87-9.3,5.44-14.09,7.63-1.38.61-2.97.23-3.89-.94-2.4-3.1-5.56-7.13-9.06-11.59-7.51-9.57-16.84-21.48-23.29-30.06-.41-.54-1.08-.83-1.78-.74-.08.01-.15.01-.23.04l-6.89,1.75c-13.18,3.37-26.51,4.21-39.63,2.54-9.2-1.17-18.2-3.57-26.8-7.16-15.17-6.3-28.88-16.27-39.73-28.83.49-2.34.85-4.23,1.06-5.47l.81-4.21c.81-4.27,1.91-9.99,3.04-16.31,1.28.01,2.55.03,3.83.03,30.64,0,61.16-3.84,90.83-11.44,16.29-4.18,32.41-9.53,47.93-15.9,1.01,1.11,2.27,2.05,3.73,2.77-1.01,1.7-4.02,7.54-1.5,13.09,2.18,4.8,7.13,6.55,8.09,6.84,1.26.4,2.51.59,3.77.59,9.85,0,19.37-11.23,25.34-18.27.59-.69,1.14-1.34,1.64-1.92,6.34-7.3,14.32-19.84,18.5-33.57,4.11,47.23-23.38,91.4-67.66,108.08-.13.04-.24.1-.36.18-.05.03-.08.05-.12.09-.06.04-.13.09-.19.14-.05.05-.09.1-.13.15-.04.04-.08.08-.12.13-.04.06-.06.13-.1.19-.03.04-.05.09-.08.13-.03.06-.05.14-.06.21-.03.05-.04.09-.05.14-.01.08-.03.15-.03.23-.01.05-.03.09-.03.14,0,.1,0,.2.03.32v.05c.04.26.13.5.27.73,3.33,5.24,6.33,10.38,8.97,14.91,1.5,2.55,2.83,4.83,3.96,6.69.41.67,1.2,1.02,1.99.88.78-.14,1.4-.76,1.54-1.54.28-1.45,2-8.86,9.3-12.58,4.59-2.34,10.03-2.84,14.2-1.32,3.29,1.22,5.67,3.57,7.11,7.01Z"/>
    <path class="cls-1" d="M104.75,145.19c3.66-7.11,12.08-23.36,28-37.3,1.22,1.69,3.19,2.79,5.37,2.84l16.87.49c.09.01.19.01.28.01,2.73,0,5.39-1.06,7.35-2.93,1.88-1.79,3.48-3.65,4.75-5.53.53-.77,1.17-1.61,1.83-2.5.82-1.08,1.7-2.25,2.54-3.47.54.24,1.06.49,1.54.73,2.08,1.06,4.37,1.92,6.81,2.57.88.24,1.79.36,2.72.36,1.87,0,3.75-.49,5.39-1.45l14.58-8.51c2.11-1.24,3.34-3.43,3.38-5.76,33.46,2.04,72.34,16.5,85.74,44.81,2.78,5.88,6.46,17.18-.23,26.77-1.4,2.01-3.2,3.83-5.37,5.44-7.21,5.32-17.37,6.88-27.17,4.18-6.78-1.87-13.76-5.37-19.34-9.68,1.93-5.88,2.77-11.69,2.43-16.89-.26-3.64-2.23-10.48-6.48-13.31-1.95-1.29-4.15-1.59-6.38-.83-2.64.91-4.5,2.79-5.35,5.44-2.16,6.66,2.29,16.29,4.65,19.66,1.73,2.48,3.96,4.89,6.61,7.19-.99,2.59-2.16,5.09-3.51,7.45-4.55,7.93-11.09,12.99-18.42,14.27-5.52.96-11.3-.27-16.82-3.51,6.31-13.6,5.88-31.96-1.17-40.96-.28-.36-6.83-8.76-13.8-6.98-6.84,1.75-8.57,12.26-8.65,12.69-1.88,11.28,6.55,27.62,18.6,36.52-3.29,5.5-7.78,9.35-13.08,11.14-5.98,2.04-13.94,1.04-22.01-2.74.53-5.48,1.09-19.94-6.12-28.55-4.43-5.29-10.2-5.35-13.95-3.09-3.73,2.27-6.53,7.65-3.86,14.12,3.07,7.4,10.59,14.88,19.79,19.75-2.01,13.69-9.27,24.4-19.6,28.81-12.21,5.2-28.01,2.24-35.98-6.72-10.54-11.86-7.86-33.51,7.94-64.35"/>
  </g>
</svg>