<?xml version="1.0" encoding="UTF-8"?>
<svg id="Layer_1" data-name="Layer 1" xmlns="http://www.w3.org/2000/svg" viewBox="0 0 565.92 395.56">
  <defs>
    <style>
      .cls-1 {
        fill: #fcec60;
      }

      .cls-2 {
        fill: #101010;
      }
    </style>
  </defs>
  <g>
    <path class="cls-1" d="M420.23,182.06c-.18,1.25-.44,2.53-.75,3.81-2.06,8.4-10.27,15.85-19.33,12.79-5.74-1.92-8.97-7.98-6.63-13.55,2.86-6.84,12.15-7.55,19.21-5.65,2.58.7,5.08,1.57,7.5,2.6Z"/>
    <path class="cls-1" d="M402.08,235.44c10.21-2.78,10.08,16.5,8.43,21.97-2.45,8.19-7.2,14.57-13.24,19.06-1.64-2.97-2.96-6.07-3.89-9.25-2.79-9.54-3.68-28.39,8.7-31.78Z"/>
    <path class="cls-1" d="M346.46,204.94c3.6,7.07.89,18.21-1.79,25.3-3.43,9.05-8.46,16.61-14.58,22.7-6.75-16.06-8-35.3-1.38-48.68,4.14-8.33,13.87-6.94,17.75.68Z"/>
    <path class="cls-1" d="M338.11,131.26c1.16,5.18,1.43,10.91-1.92,15.29-1.65,2.16-4.16,3.58-6.87,3.65-6.34.14-8.87-6.58-7.26-11.63,1.28-4.01,4.54-7.07,8.01-9.47,2.03-1.4,4.17-2.57,6.4-3.52.67,1.86,1.21,3.76,1.64,5.68Z"/>
    <path class="cls-1" d="M304.03,268.61c.19-.57.41-1.14.64-1.7,3.33-7.89,11.1-13.08,17.59-7.35.34.29.68.62,1.01.98.38.42.76.87,1.13,1.37,5.36,7.26,6.05,17.85,2.66,26.09-9.15,22.2-31.1,12.46-39.16-16.34,5.47-.37,10.9-1.39,16.13-3.05Z"/>
    <ellipse class="cls-2" cx="300.55" cy="183.16" rx="4.1" ry="9.22"/>
    <ellipse class="cls-2" cx="265.51" cy="183.16" rx="4.1" ry="9.22"/>
    <path class="cls-1" d="M261.57,268.46h.01c5.25,1.72,10.69,2.77,16.19,3.16-8.06,28.83-30.03,38.59-39.18,16.38-3.39-8.24-2.69-18.83,2.67-26.09.37-.5.74-.95,1.13-1.37s.78-.8,1.18-1.13c6.44-5.49,14.11-.32,17.41,7.5.21.51.41,1.02.59,1.55Z"/>
    <path class="cls-1" d="M244.49,140.81c.27,2.27-.27,4.61-1.65,6.43-4.15,5.46-11.55,2.51-14.13-2.53-2.1-4.08-1.76-8.97-.75-13.45.43-1.92.97-3.82,1.63-5.68,2.24.95,4.38,2.12,6.41,3.52,4.08,2.83,7.88,6.57,8.49,11.71Z"/>
    <path class="cls-1" d="M237.34,204.26c6.64,13.38,5.38,32.62-1.38,48.68-6.11-6.09-11.14-13.65-14.57-22.7-2.69-7.09-5.39-18.23-1.8-25.3,3.9-7.62,13.62-9.01,17.75-.68Z"/>
    <path class="cls-1" d="M221.39,230.24c3.43,9.05,8.46,16.61,14.57,22.7-4.71,11.21-12.1,20.86-21.36,25.88-14.94,8.11-33.2,7.02-45.81-2.34,1.64-2.97,2.97-6.07,3.9-9.26,2.79-9.54,3.67-28.39-8.72-31.78-10.19-2.78-10.08,16.5-8.43,21.97,2.47,8.19,7.21,14.58,13.25,19.07-5.88,10.64-15.8,19.63-26.23,24.82-12.65,6.31-28.93,6.89-35.68-7.1-17.77-36.87-.38-95.45,38.94-112.14.19,1.25.44,2.53.75,3.81,1.73,7.03,7.75,13.39,14.98,13.5,8.91.13,16.94-12.28,7.03-18.79-3.33-2.19-7.46-2.78-11.37-2.02-3.98.78-7.78,1.96-11.39,3.5-3.07-20.07,9.26-36.16,25.06-47.11,15.93-11.01,40.44-17.2,58.71-9.37-.66,1.86-1.2,3.76-1.63,5.68-1.01,4.48-1.35,9.37.75,13.45,2.58,5.04,9.98,7.99,14.13,2.53,1.38-1.82,1.92-4.16,1.65-6.43-.61-5.14-4.41-8.88-8.49-11.71-2.03-1.4-4.17-2.57-6.41-3.52,3.6-10.18,10.47-19.22,19.41-25.3,9.84-6.72,22.41-10.67,34.03-10.41,11.61-.26,24.18,3.69,34.04,10.41,8.93,6.08,15.8,15.12,19.4,25.3-2.23.95-4.37,2.12-6.4,3.52-3.47,2.4-6.73,5.46-8.01,9.47-1.61,5.05.92,11.77,7.26,11.63,2.71-.07,5.22-1.49,6.87-3.65,3.35-4.38,3.08-10.11,1.92-15.29-.43-1.92-.97-3.82-1.64-5.68,18.27-7.83,42.79-1.64,58.71,9.37,15.8,10.95,28.12,27.04,25.05,47.11-2.42-1.03-4.92-1.9-7.5-2.6-7.06-1.9-16.35-1.19-19.21,5.65-2.34,5.57.89,11.63,6.63,13.55,9.06,3.06,17.27-4.39,19.33-12.79.31-1.28.57-2.56.75-3.81,39.32,16.69,56.72,75.27,38.94,112.14-6.73,13.99-23.03,13.41-35.67,7.1-10.42-5.19-20.35-14.19-26.23-24.83,6.04-4.49,10.79-10.87,13.24-19.06,1.65-5.47,1.78-24.75-8.43-21.97-12.38,3.39-11.49,22.24-8.7,31.78.93,3.18,2.25,6.28,3.89,9.25-12.6,9.37-30.86,10.47-45.8,2.35-9.26-5.02-16.66-14.68-21.38-25.88,6.12-6.09,11.15-13.65,14.58-22.7,2.68-7.09,5.39-18.23,1.79-25.3-3.88-7.62-13.61-9.01-17.75-.68-6.62,13.38-5.37,32.62,1.38,48.68-2.44,2.45-5.06,4.65-7.82,6.61h0c-6.49-5.72-14.26-.53-17.59,7.36-.23.56-.45,1.13-.64,1.7-5.23,1.66-10.66,2.68-16.13,3.05-3.37.23-6.77.23-10.13-.04-5.5-.39-10.94-1.44-16.19-3.16h-.01c-.18-.53-.38-1.04-.59-1.55-3.3-7.82-10.97-12.99-17.41-7.5v-.02c-2.68-1.91-5.23-4.07-7.61-6.45,6.76-16.06,8.02-35.3,1.38-48.68-4.13-8.33-13.85-6.94-17.75.68-3.59,7.07-.89,18.21,1.8,25.3ZM304.65,183.16c0-5.09-1.84-9.22-4.1-9.22s-4.1,4.13-4.1,9.22,1.84,9.22,4.1,9.22,4.1-4.13,4.1-9.22ZM269.61,183.16c0-5.09-1.84-9.22-4.1-9.22s-4.1,4.13-4.1,9.22,1.84,9.22,4.1,9.22,4.1-4.13,4.1-9.22Z"/>
    <path class="cls-1" d="M163.97,235.44c12.39,3.39,11.51,22.24,8.72,31.78-.93,3.19-2.26,6.29-3.9,9.26-6.04-4.49-10.78-10.88-13.25-19.07-1.65-5.47-1.76-24.75,8.43-21.97Z"/>
    <path class="cls-1" d="M168.58,180.58c9.91,6.51,1.88,18.92-7.03,18.79-7.23-.11-13.25-6.47-14.98-13.5-.31-1.28-.56-2.56-.75-3.81,3.61-1.54,7.41-2.72,11.39-3.5,3.91-.76,8.04-.17,11.37,2.02Z"/>
  </g>
  <g>
    <path class="cls-2" d="M322.27,261.05c-.47,0-.93-.22-1.22-.63-.48-.68-.32-1.61.35-2.09,2.73-1.94,5.3-4.11,7.63-6.45.58-.59,1.53-.59,2.12,0,.59.58.59,1.53,0,2.12-2.45,2.46-5.14,4.73-8.01,6.77-.26.19-.57.28-.87.28Z"/>
    <path class="cls-2" d="M330.09,254.44c-.1,0-.19,0-.29-.03-.49-.1-.9-.43-1.09-.89-7.27-17.29-7.79-36.89-1.34-49.93,2.04-4.11,5.54-6.48,9.6-6.5.02,0,.03,0,.05,0,4.4,0,8.52,2.74,10.78,7.17,4.3,8.44.23,21.35-1.72,26.51-3.38,8.93-8.41,16.75-14.93,23.23-.28.28-.67.44-1.06.44ZM337.02,200.09s-.02,0-.04,0c-2.93.01-5.39,1.73-6.93,4.83-5.82,11.77-5.56,29.33.57,45.31,5.45-5.85,9.7-12.74,12.65-20.53,1.41-3.73,5.72-16.51,1.86-24.09-1.74-3.41-4.84-5.53-8.1-5.53Z"/>
    <path class="cls-2" d="M372.87,285.73c-7.55,0-15.22-1.85-22.11-5.59-9.05-4.91-16.88-14.36-22.05-26.62-.32-.76.04-1.64.8-1.96.76-.32,1.64.04,1.96.8,4.9,11.63,12.26,20.56,20.71,25.14,14.23,7.74,31.99,6.84,44.19-2.23.66-.5,1.6-.36,2.1.31.49.66.36,1.6-.31,2.1-7.19,5.34-16.16,8.06-25.3,8.06Z"/>
    <path class="cls-2" d="M397.27,277.97c-.11,0-.21-.01-.32-.03-.42-.09-.79-.36-1-.74-1.72-3.12-3.08-6.34-4.02-9.55-2.28-7.8-2.88-19.51,1.19-26.79,1.98-3.54,4.85-5.84,8.55-6.86,2.84-.77,5.34-.16,7.22,1.78,4.88,5.02,4.34,17.74,3.04,22.07-2.41,8.06-7.18,14.92-13.78,19.83-.26.19-.58.3-.9.3ZM403.99,236.66c-.47,0-.97.07-1.52.22-2.89.79-5.16,2.62-6.73,5.42-3.65,6.53-3.04,17.27-.93,24.49.72,2.47,1.71,4.95,2.94,7.38,5.37-4.42,9.26-10.34,11.32-17.2,1.14-3.79,1.46-15.23-2.31-19.11-.79-.81-1.69-1.2-2.77-1.2Z"/>
    <path class="cls-2" d="M440.2,307.07c-5.5,0-11.51-1.5-17.37-4.43-11.07-5.51-21.11-15.03-26.87-25.45-.4-.73-.14-1.64.59-2.04.73-.4,1.64-.14,2.04.59,5.48,9.91,15.04,18.96,25.59,24.21,8.16,4.07,16.88,5.18,23.34,2.97,4.6-1.57,8.07-4.73,10.3-9.38,8.97-18.59,9.16-43.39.52-66.33-7.79-20.69-21.89-36.65-38.7-43.78-.76-.32-1.12-1.2-.79-1.97.32-.76,1.2-1.12,1.97-.79,17.56,7.45,32.26,24.03,40.33,45.48,8.92,23.7,8.69,49.37-.63,68.69-2.6,5.4-6.65,9.07-12.04,10.92-2.55.87-5.34,1.3-8.28,1.3Z"/>
    <path class="cls-2" d="M404.34,200.86c-1.56,0-3.12-.26-4.67-.78-3.32-1.11-6.02-3.51-7.41-6.58-1.3-2.88-1.35-6.06-.12-8.97,3.14-7.51,13.08-8.65,20.98-6.52,2.61.71,5.2,1.61,7.7,2.67.63.27.99.92.9,1.59-.17,1.21-.44,2.54-.78,3.95-1.32,5.38-4.96,10.26-9.51,12.76-2.27,1.25-4.67,1.88-7.09,1.88ZM405.94,180.04c-4.83,0-9.34,1.59-11.03,5.65-.9,2.13-.86,4.47.09,6.57,1.05,2.32,3.1,4.13,5.63,4.98,3.14,1.06,6.38.76,9.36-.88,3.83-2.11,6.91-6.26,8.04-10.84.21-.88.39-1.72.54-2.52-2.03-.81-4.12-1.51-6.22-2.08-2.05-.55-4.26-.87-6.4-.87Z"/>
    <path class="cls-2" d="M420.24,183.56c-.08,0-.15,0-.23-.02-.82-.13-1.38-.89-1.26-1.71,3.46-22.6-13.82-38.3-24.42-45.65-14.52-10.04-38.63-17.21-57.26-9.22-.76.33-1.64-.03-1.97-.79-.33-.76.03-1.64.79-1.97,19.68-8.43,44.98-.98,60.15,9.51,19.3,13.38,28.42,30.63,25.68,48.57-.11.74-.75,1.27-1.48,1.27Z"/>
    <path class="cls-2" d="M329.14,151.7c-2.84,0-5.31-1.21-6.97-3.43-2.04-2.72-2.64-6.71-1.54-10.16,1.19-3.72,4-7.07,8.59-10.25,2.08-1.43,4.32-2.67,6.67-3.67.38-.16.81-.16,1.19,0s.67.48.81.87c.67,1.85,1.24,3.82,1.69,5.86,1.59,7.11.88,12.52-2.19,16.53-1.97,2.57-4.97,4.16-8.02,4.24-.07,0-.15,0-.22,0ZM335.58,127.63c-1.62.78-3.19,1.69-4.66,2.7-4.02,2.78-6.45,5.62-7.43,8.69-.8,2.52-.37,5.51,1.08,7.45.78,1.04,2.24,2.26,4.71,2.22,2.15-.06,4.29-1.2,5.71-3.06,2.5-3.26,3.04-7.86,1.65-14.05-.3-1.36-.66-2.68-1.07-3.96Z"/>
    <path class="cls-2" d="M336.47,127.08c-.62,0-1.2-.38-1.41-1-3.53-9.97-10.21-18.69-18.83-24.56-9.69-6.6-22.09-10.39-33.16-10.15-11.15-.25-23.55,3.55-33.22,10.15-8.62,5.86-15.31,14.59-18.84,24.56-.28.78-1.13,1.19-1.91.91-.78-.28-1.19-1.13-.91-1.91,3.74-10.57,10.83-19.82,19.98-26.04,10.16-6.94,23.21-10.94,34.91-10.67,11.61-.27,24.66,3.73,34.85,10.67,9.14,6.22,16.23,15.47,19.97,26.04.28.78-.13,1.64-.91,1.91-.17.06-.33.09-.5.09Z"/>
    <path class="cls-2" d="M237.18,151.67c-.27,0-.54-.01-.81-.04-3.63-.32-7.24-2.83-8.99-6.24-1.94-3.76-2.22-8.49-.88-14.46.45-2.01,1.02-3.98,1.68-5.85.14-.39.43-.71.81-.87.38-.17.81-.17,1.19,0,2.34.99,4.59,2.23,6.68,3.67,5.58,3.87,8.57,8.05,9.13,12.77.32,2.72-.39,5.46-1.94,7.51-1.74,2.29-4.15,3.52-6.86,3.52ZM230.49,127.63c-.4,1.29-.76,2.61-1.06,3.96-1.19,5.26-.98,9.32.62,12.44,1.28,2.49,3.98,4.39,6.59,4.62,1.39.13,3.39-.18,5.02-2.31,1.09-1.44,1.59-3.39,1.35-5.35-.45-3.82-3.02-7.3-7.86-10.65-1.47-1.02-3.04-1.92-4.66-2.7Z"/>
    <path class="cls-2" d="M145.82,183.56c-.73,0-1.37-.53-1.48-1.27-2.74-17.94,6.38-35.19,25.69-48.57,15.18-10.49,40.48-17.95,60.16-9.52.76.33,1.11,1.21.79,1.97s-1.21,1.11-1.97.79c-18.63-7.98-42.74-.81-57.27,9.23-10.61,7.35-27.89,23.06-24.43,45.65.13.82-.44,1.58-1.26,1.71-.08.01-.15.02-.23.02Z"/>
    <path class="cls-2" d="M161.69,200.87c-.05,0-.11,0-.16,0-8.44-.13-14.65-7.46-16.41-14.64-.32-1.3-.58-2.63-.78-3.94-.1-.68.27-1.34.89-1.61,3.74-1.6,7.68-2.81,11.69-3.59,4.52-.88,8.95-.08,12.48,2.24,4.4,2.89,6.18,7.4,4.75,12.06-1.67,5.43-7.01,9.49-12.47,9.49ZM147.5,182.99c.15.85.33,1.69.53,2.53,1.45,5.91,6.7,12.25,13.54,12.35.04,0,.08,0,.12,0,4.12,0,8.32-3.21,9.6-7.37.61-1.97.95-5.72-3.53-8.67-2.87-1.89-6.52-2.53-10.26-1.8-3.42.67-6.78,1.66-10,2.96Z"/>
    <path class="cls-2" d="M125.86,307.07c-2.94,0-5.73-.43-8.27-1.3-5.39-1.84-9.45-5.52-12.05-10.92-9.31-19.32-9.54-45-.62-68.7,8.08-21.45,22.77-38.02,40.32-45.47.76-.32,1.64.03,1.97.79.32.76-.03,1.64-.79,1.97-16.8,7.13-30.9,23.08-38.69,43.76-8.64,22.95-8.45,47.75.51,66.34,2.24,4.65,5.72,7.81,10.32,9.38,6.46,2.21,15.18,1.09,23.34-2.97,10.55-5.25,20.11-14.3,25.59-24.2.4-.73,1.31-.99,2.04-.59.73.4.99,1.31.59,2.04-5.76,10.42-15.8,19.93-26.87,25.44-5.86,2.92-11.87,4.43-17.37,4.43Z"/>
    <path class="cls-2" d="M168.79,277.98c-.32,0-.63-.1-.89-.3-6.58-4.89-11.35-11.75-13.79-19.84-1.3-4.32-1.84-17.05,3.05-22.07,1.89-1.94,4.38-2.55,7.21-1.78,3.71,1.01,6.59,3.32,8.57,6.86,4.07,7.29,3.47,18.99,1.2,26.78-.93,3.19-2.29,6.41-4.03,9.56-.21.38-.57.65-1,.74-.11.02-.21.03-.32.03ZM162.07,236.66c-1.08,0-1.98.4-2.76,1.2-3.78,3.88-3.47,15.32-2.33,19.11,2.08,6.89,5.98,12.8,11.33,17.22,1.24-2.45,2.23-4.93,2.95-7.39,2.11-7.21,2.72-17.95-.94-24.48-1.57-2.81-3.84-4.64-6.74-5.43-.54-.15-1.04-.22-1.51-.22Z"/>
    <path class="cls-2" d="M193.2,285.73c-9.15,0-18.11-2.71-25.3-8.04-.67-.49-.8-1.43-.31-2.1.49-.67,1.43-.8,2.1-.31,12.2,9.06,29.97,9.95,44.2,2.23,8.46-4.59,15.81-13.51,20.69-25.14.32-.76,1.2-1.12,1.96-.8.76.32,1.12,1.2.8,1.96-5.15,12.26-12.97,21.71-22.03,26.62-6.89,3.74-14.57,5.59-22.12,5.59Z"/>
    <path class="cls-2" d="M235.96,254.44c-.39,0-.78-.15-1.06-.44-6.51-6.49-11.53-14.31-14.91-23.23-1.95-5.15-6.03-18.04-1.73-26.51,2.28-4.45,6.42-7.17,10.86-7.17,4.05.03,7.54,2.4,9.58,6.5,6.47,13.03,5.94,32.63-1.34,49.93-.19.46-.6.79-1.09.89-.1.02-.19.03-.29.03ZM229.04,200.09c-3.26,0-6.37,2.12-8.12,5.53-3.86,7.6.45,20.36,1.87,24.08,2.95,7.78,7.2,14.67,12.64,20.53,6.14-15.98,6.4-33.55.56-45.31-1.54-3.1-3.99-4.81-6.91-4.83-.02,0-.03,0-.05,0Z"/>
    <path class="cls-2" d="M243.56,260.89c-.3,0-.61-.09-.87-.28-2.75-1.97-5.37-4.19-7.79-6.61-.59-.59-.59-1.54,0-2.12.59-.59,1.54-.59,2.12,0,2.3,2.3,4.8,4.42,7.41,6.29.67.48.83,1.42.35,2.09-.29.41-.75.63-1.22.63Z"/>
    <path class="cls-2" d="M283.04,273.33c-1.83,0-3.63-.07-5.39-.21-5.65-.4-11.22-1.49-16.54-3.23-.79-.26-1.22-1.1-.96-1.89.26-.79,1.1-1.22,1.89-.96,5.08,1.67,10.41,2.7,15.83,3.09,3.21.26,6.54.27,9.92.04,5.38-.36,10.69-1.37,15.78-2.98.79-.25,1.63.19,1.88.98.25.79-.19,1.63-.98,1.88-5.32,1.69-10.86,2.74-16.48,3.12-1.67.11-3.33.17-4.96.17Z"/>
    <path class="cls-2" d="M252.9,301.68c-6.65,0-12.19-4.62-15.69-13.11-3.74-9.1-2.6-20.17,2.85-27.55.41-.55.81-1.04,1.24-1.5.46-.5.9-.91,1.33-1.27,2.69-2.29,5.8-3.11,9-2.35,4.35,1.03,8.47,5.03,10.75,10.43.23.55.44,1.09.63,1.65,2.9,8.18,2.12,17.28-2.09,24.32-.43.71-1.35.94-2.06.52-.71-.43-.94-1.35-.52-2.06,3.76-6.29,4.45-14.43,1.83-21.8-.18-.52-.37-1-.56-1.48-1.91-4.52-5.23-7.85-8.67-8.66-2.25-.53-4.4.05-6.38,1.73-.34.28-.68.61-1.05,1.01-.35.38-.68.78-1.02,1.24-4.85,6.57-5.85,16.46-2.49,24.63,3.12,7.58,7.95,11.56,13.6,11.23,7.62-.45,17.61-9.1,22.74-27.4.02-.07.04-.14.06-.2.28-.77,1.12-1.19,1.9-.92.75.26,1.17,1.05.96,1.81,0,.03-.01.05-.02.08-4.78,17.1-15.01,29.01-25.46,29.63-.29.02-.58.03-.86.03Z"/>
    <path class="cls-2" d="M312.76,301.68c-.29,0-.57,0-.86-.03-10.42-.62-20.62-12.47-25.41-29.51-.04-.11-.06-.19-.07-.25-.2-.8.29-1.62,1.09-1.82.79-.2,1.58.27,1.81,1.04.02.04.03.09.04.13,5.12,18.31,15.1,26.95,22.73,27.4,5.65.34,10.48-3.66,13.6-11.23,3.36-8.17,2.36-18.07-2.48-24.63-.3-.41-.63-.81-1.04-1.26-.28-.31-.58-.59-.87-.84-2.02-1.79-4.2-2.42-6.49-1.9-3.46.79-6.81,4.12-8.74,8.69-.21.51-.42,1.05-.6,1.59-2.56,7.35-1.86,15.45,1.87,21.68.43.71.19,1.63-.52,2.06-.71.43-1.63.19-2.06-.52-4.18-6.98-4.98-16.02-2.14-24.18.19-.58.43-1.19.67-1.78,2.3-5.46,6.46-9.46,10.84-10.46,3.24-.74,6.4.14,9.13,2.56.37.31.75.69,1.12,1.09.47.52.87,1.01,1.23,1.49,5.45,7.38,6.59,18.45,2.84,27.55-3.5,8.49-9.05,13.11-15.69,13.11ZM289.24,270.99h0s0,0,0,0Z"/>
    <path class="cls-2" d="M283.11,211.29s-.06,0-.09,0c-6.37-.05-11.65-5.07-12.03-11.43-.05-.83.58-1.54,1.41-1.59.81-.04,1.54.58,1.59,1.41.28,4.79,4.26,8.57,9.05,8.61.02,0,.04,0,.07,0,4.82,0,8.81-3.77,9.11-8.61.05-.83.76-1.46,1.59-1.41.83.05,1.46.76,1.41,1.59-.39,6.43-5.7,11.43-12.1,11.43Z"/>
  </g>
</svg>