<?xml version="1.0" encoding="UTF-8"?>
<svg id="Layer_1" data-name="Layer 1" xmlns="http://www.w3.org/2000/svg" viewBox="0 0 565.92 395.56">
  <defs>
    <style>
      .cls-1 {
        fill: #101010;
      }
    </style>
  </defs>
  <path class="cls-1" d="M414.4,180.71c-2.09-.56-4.34-.88-6.51-.88-4.91,0-9.49,1.62-11.22,5.74-.9,2.17-.87,4.53.1,6.68,1.06,2.35,3.15,4.2,5.72,5.06,3.2,1.08,6.48.76,9.51-.9,3.91-2.14,7.04-6.37,8.17-11.02.22-.87.4-1.73.55-2.56-2.06-.83-4.18-1.54-6.32-2.12ZM408.73,238.61c-.8-.82-1.72-1.22-2.82-1.22-.47,0-.98.07-1.54.22-2.94.81-5.25,2.67-6.83,5.51-3.71,6.64-3.09,17.56-.95,24.9.73,2.52,1.74,5.04,2.99,7.5,5.45-4.49,9.41-10.5,11.51-17.48,1.16-3.87,1.47-15.5-2.36-19.43ZM346.07,205.83c-1.76-3.47-4.92-5.62-8.23-5.62h-.04c-2.98.02-5.47,1.76-7.03,4.91-5.93,11.96-5.67,29.82.56,46.05,5.53-5.93,9.85-12.94,12.85-20.85,1.45-3.79,5.83-16.78,1.89-24.49ZM337.45,130.58c-.3-1.36-.66-2.71-1.07-4.03-1.66.81-3.25,1.72-4.74,2.76-4.1,2.83-6.57,5.72-7.55,8.82-.82,2.56-.38,5.61,1.09,7.58.79,1.04,2.21,2.26,4.63,2.26h.16c2.19-.05,4.36-1.22,5.81-3.11,2.54-3.31,3.09-7.98,1.67-14.28ZM242.27,140.12c-.47-3.87-3.08-7.41-7.99-10.81-1.49-1.04-3.08-1.95-4.74-2.76-.41,1.33-.77,2.67-1.07,4.03-1.2,5.34-1,9.47.63,12.63,1.3,2.54,4.05,4.47,6.7,4.7,1.41.13,3.44-.17,5.1-2.35,1.11-1.46,1.6-3.44,1.37-5.44ZM235.16,205.12c-1.57-3.15-4.07-4.89-7.04-4.91h-.04c-3.31,0-6.47,2.15-8.24,5.62-3.94,7.72.45,20.7,1.89,24.49,3,7.91,7.32,14.92,12.85,20.85,6.24-16.24,6.5-34.1.58-46.05ZM168.38,243.12c-1.59-2.84-3.89-4.7-6.84-5.51-.55-.15-1.07-.22-1.54-.22-1.09,0-2.01.4-2.81,1.22-3.83,3.93-3.53,15.56-2.36,19.43,2.11,7,6.07,13.02,11.51,17.49,1.26-2.5,2.27-5.01,2.99-7.51,2.15-7.34,2.76-18.26-.95-24.9ZM165.79,181.65c-2.93-1.92-6.64-2.57-10.44-1.83-3.45.68-6.87,1.69-10.16,3.01.15.83.33,1.69.55,2.57,1.47,6.01,6.8,12.45,13.76,12.55h.12c4.19,0,8.46-3.27,9.76-7.49.61-2,.96-5.81-3.59-8.81Z"/>
  <path class="cls-1" d="M326.3,288.99c-3.17,7.7-8.06,11.76-13.82,11.42-7.5-.45-17.24-8.7-22.59-26.08,4.13-.39,8.2-1.13,12.17-2.22-1.84,7.49-.8,15.51,2.98,21.83.44.73,1.37.97,2.09.53.72-.43.96-1.37.53-2.09-3.81-6.35-4.49-14.67-1.9-22.06,0-.02,0-.03.01-.04.18-.52.38-1.04.59-1.55,2.02-4.8,5.66-8.29,9.27-8.92,2.55-.44,4.95.53,7.11,2.88.36.4.71.82,1.05,1.27,4.93,6.68,5.94,16.74,2.52,25.04Z"/>
  <path class="cls-1" d="M275.62,274.28c-5.34,17.41-15.08,25.68-22.59,26.12-5.75.34-10.66-3.71-13.83-11.42-3.42-8.29-2.41-18.36,2.52-25.04.35-.45.69-.88,1.05-1.27,2.17-2.35,4.55-3.31,7.11-2.88,3.61.63,7.25,4.13,9.27,8.92,3.28,7.77,2.79,16.83-1.3,23.64-.43.72-.19,1.67.53,2.09.72.44,1.66.2,2.09-.53,3.8-6.35,4.83-14.43,2.95-21.96,3.98,1.12,8.07,1.89,12.21,2.3Z"/>
  <path class="cls-1" d="M461.17,227.79c-7.64-20.3-21.28-36.12-37.58-43.72-.13.67-.28,1.36-.45,2.05-1.34,5.46-5.04,10.43-9.66,12.96-3.81,2.09-7.94,2.48-11.96,1.12-3.37-1.13-6.12-3.57-7.53-6.7-1.32-2.92-1.37-6.16-.12-9.11,3.19-7.63,13.29-8.78,21.32-6.62,2.02.54,4.02,1.19,5.98,1.96,2.27-21.94-14.61-37.22-25.09-44.47-14.41-9.99-38.13-17.17-56.89-9.92.48,1.49.9,3.02,1.24,4.57,1.62,7.24.9,12.74-2.22,16.8-2.01,2.62-5.06,4.23-8.17,4.31-3.02.06-5.57-1.17-7.29-3.48-2.07-2.76-2.69-6.82-1.57-10.33,1.2-3.77,4.06-7.18,8.72-10.41,1.72-1.19,3.55-2.24,5.46-3.13-3.7-9.59-10.28-17.95-18.66-23.66-9.84-6.7-22.44-10.57-33.7-10.32-11.35-.24-23.94,3.62-33.78,10.32-8.37,5.71-14.96,14.07-18.66,23.66,1.91.89,3.74,1.94,5.46,3.13,5.67,3.93,8.7,8.17,9.28,12.97.32,2.76-.4,5.55-1.97,7.63-1.95,2.56-4.71,3.82-7.8,3.55-3.69-.33-7.37-2.88-9.14-6.34-1.97-3.83-2.26-8.63-.9-14.7.34-1.55.76-3.07,1.25-4.57-18.77-7.25-42.49-.07-56.91,9.92-10.48,7.25-27.37,22.53-25.08,44.47,3.24-1.26,6.61-2.24,10.02-2.9,4.6-.9,9.1-.09,12.7,2.27,4.47,2.94,6.28,7.52,4.83,12.25-1.72,5.59-7.2,9.69-12.84,9.65-8.59-.12-14.89-7.58-16.68-14.88-.18-.69-.33-1.38-.46-2.05-16.29,7.59-29.93,23.41-37.56,43.71-8.78,23.31-8.59,48.52.52,67.43,2.28,4.73,5.8,7.93,10.48,9.53,6.57,2.25,15.44,1.12,23.73-3.02,10.32-5.13,19.71-13.84,25.37-23.47-6.14-4.9-10.61-11.55-12.95-19.34-1.33-4.4-1.86-17.33,3.1-22.43,1.92-1.97,4.46-2.6,7.33-1.8,3.77,1.02,6.69,3.36,8.71,6.96,4.13,7.41,3.52,19.31,1.21,27.23-.83,2.84-1.99,5.69-3.44,8.52,12.35,8.49,29.79,9.14,43.85,1.5,8.38-4.53,15.67-13.25,20.65-24.63-6.28-6.42-11.12-14.11-14.44-22.87-1.99-5.23-6.14-18.34-1.76-26.94,2.31-4.53,6.57-7.31,11.02-7.29,4.12.02,7.68,2.43,9.74,6.61,6.45,13,6.06,32.44-.97,49.79,1.86,1.8,3.85,3.48,5.93,5.02,2.85-1.99,5.58-2.12,7.55-1.77,4.68.81,9.11,4.92,11.56,10.73.13.3.24.62.37.92,4.81,1.53,9.85,2.5,14.95,2.9.24-.06.52-.07.78,0,.05.02.11.04.16.07,2.92.21,5.94.22,8.99.03.08-.04.16-.07.26-.1.31-.08.62-.07.9.03,5.03-.38,10-1.32,14.78-2.77.13-.36.26-.72.41-1.08,2.45-5.81,6.89-9.92,11.56-10.73,2.01-.36,4.85-.22,7.77,1.92,2.15-1.6,4.22-3.32,6.12-5.17-7.02-17.34-7.41-36.77-.97-49.79,2.07-4.18,5.63-6.59,9.75-6.61,4.47,0,8.71,2.77,11.02,7.29,4.37,8.59.22,21.71-1.76,26.94-3.31,8.76-8.17,16.44-14.43,22.87,4.97,11.38,12.27,20.1,20.64,24.63,14.06,7.64,31.5,7,43.86-1.51-1.45-2.78-2.61-5.64-3.45-8.51-2.31-7.93-2.92-19.83,1.21-27.23,2.01-3.6,4.93-5.94,8.7-6.96,2.88-.8,5.42-.17,7.33,1.81,4.97,5.09,4.43,18.02,3.1,22.42-2.32,7.77-6.79,14.41-12.94,19.33,5.66,9.63,15.05,18.35,25.37,23.48,8.29,4.14,17.16,5.27,23.73,3.02,4.68-1.6,8.19-4.8,10.47-9.53,9.12-18.9,9.31-44.1.54-67.42ZM268.16,189.47c-.75,1.79-1.83,2.9-3.01,2.9-.32,0-.64-.08-.94-.25-1.85-.96-3.23-4.68-3.23-9.12,0-5.17,1.87-9.37,4.17-9.37s4.17,4.2,4.17,9.37c0,2.5-.44,4.79-1.16,6.47ZM294.72,200.95c-.83,5.77-5.77,10.13-11.69,10.13h-.08c-5.89-.04-10.82-4.45-11.63-10.2-.04-.31-.07-.62-.09-.94-.03-.57.4-1.04.96-1.07.44-.04.87.25,1.01.68.04.08.05.17.06.27.31,5.15,4.57,9.2,9.7,9.23h.07c5.18,0,9.46-4.04,9.77-9.23,0-.06.01-.12.03-.18.11-.47.54-.81,1.05-.77.56.03.98.5.95,1.07-.02.34-.06.67-.11,1.01ZM301.82,192.08h-.01c-.33.19-.69.29-1.04.29-1.2,0-2.28-1.14-3.04-2.97-.7-1.67-1.13-3.93-1.13-6.4,0-5.17,1.87-9.37,4.17-9.37s4.17,4.2,4.17,9.37c0,4.36-1.34,8.02-3.12,9.08Z"/>
</svg>