<?xml version="1.0" encoding="UTF-8"?>
<svg id="Layer_1" data-name="Layer 1" xmlns="http://www.w3.org/2000/svg" viewBox="0 0 565.92 395.56">
  <defs>
    <style>
      .cls-1 {
        fill: #101010;
      }
    </style>
  </defs>
  <ellipse class="cls-1" cx="300.55" cy="183.16" rx="4.1" ry="9.22"/>
  <ellipse class="cls-1" cx="265.51" cy="183.16" rx="4.1" ry="9.22"/>
  <path class="cls-1" d="M461.15,226.16c-7.91-21.02-22.2-37.37-39.29-45.03,2.21-17.53-6.93-34.33-25.83-47.42-14.8-10.23-39.23-17.58-58.69-10.1-3.86-9.96-10.71-18.64-19.42-24.57-10.19-6.95-23.25-10.95-34.86-10.67-11.69-.28-24.74,3.72-34.9,10.67-8.72,5.92-15.57,14.6-19.43,24.57-19.45-7.47-43.89-.13-58.7,10.1-18.9,13.1-28.05,29.9-25.84,47.43-17.1,7.65-31.36,23.99-39.28,45-8.92,23.7-8.69,49.39.62,68.71,2.61,5.4,6.66,9.07,12.05,10.92,2.55.87,5.34,1.29,8.28,1.29,5.5,0,11.51-1.5,17.37-4.42,10.55-5.25,20.18-14.14,26.04-23.99,6.93,4.7,15.35,7.07,23.93,7.07,7.55,0,15.22-1.84,22.12-5.59,8.55-4.64,16.02-13.33,21.15-24.62,1.53,1.43,3.14,2.78,4.79,4.04-.41.44-.81.92-1.21,1.46-5.44,7.38-6.59,18.46-2.85,27.56,3.5,8.48,9.05,13.11,15.7,13.11.28,0,.57-.01.86-.03,10.2-.61,20.2-11.99,25.11-28.46,1.37.09,2.76.13,4.17.13,1.25,0,2.5-.03,3.76-.09,4.91,16.46,14.9,27.81,25.09,28.42.29.02.58.03.87.03,6.64,0,12.19-4.63,15.69-13.11,3.74-9.11,2.6-20.18-2.84-27.56-.31-.42-.66-.84-1.05-1.29,1.75-1.31,3.43-2.72,5.02-4.22,5.15,11.29,12.62,20,21.18,24.63,6.89,3.75,14.56,5.6,22.11,5.6,8.57,0,16.99-2.39,23.93-7.09,5.86,9.85,15.48,18.74,26.03,24,5.86,2.92,11.87,4.43,17.37,4.43,2.94,0,5.74-.43,8.29-1.31,5.39-1.84,9.44-5.51,12.03-10.91,9.32-19.32,9.55-45,.63-68.69ZM447.52,302.93c-6.47,2.21-15.19,1.1-23.35-2.98-10.14-5.05-19.39-13.62-24.95-23.09,6.06-4.84,10.45-11.39,12.73-19.02,1.3-4.33,1.84-17.05-3.04-22.07-1.89-1.94-4.39-2.55-7.22-1.78-3.71,1.01-6.58,3.32-8.56,6.85-4.07,7.29-3.47,19-1.19,26.8.82,2.81,1.96,5.62,3.38,8.37-12.15,8.36-29.31,9-43.13,1.49-8.23-4.47-15.42-13.05-20.32-24.23,6.17-6.34,10.95-13.91,14.2-22.5,1.95-5.16,6.03-18.07,1.73-26.52-2.25-4.42-6.38-7.16-10.78-7.16h-.05c-4.06.02-7.56,2.39-9.6,6.5-6.33,12.8-5.95,31.93.96,48.98-1.88,1.82-3.9,3.53-6.03,5.1-2.5-1.83-5.3-2.45-8.17-1.79-4.39.99-8.54,5-10.85,10.46-.14.35-.28.7-.41,1.05-4.7,1.44-9.58,2.35-14.52,2.72h0c-.26-.09-.55-.1-.84-.03-.11.03-.22.07-.32.12-3.01.18-5.99.17-8.85-.05,0-.01-.03-.01-.05-.02-.26-.09-.53-.1-.79-.04-5.05-.39-10.01-1.34-14.76-2.85-.12-.31-.24-.61-.37-.92-2.28-5.4-6.39-9.39-10.75-10.43-2.82-.66-5.59-.1-8.05,1.63-2.03-1.51-3.98-3.17-5.83-4.95,6.92-17.06,7.3-36.19.96-48.98-2.04-4.11-5.53-6.47-9.58-6.5-4.44,0-8.58,2.72-10.86,7.17-4.3,8.46-.22,21.36,1.74,26.51,3.25,8.59,8.03,16.15,14.2,22.5-4.89,11.18-12.07,19.76-20.3,24.23-13.84,7.5-31,6.87-43.15-1.48,1.44-2.77,2.58-5.59,3.39-8.38,2.28-7.8,2.88-19.5-1.19-26.79-1.98-3.54-4.87-5.85-8.57-6.86-2.84-.77-5.33-.16-7.22,1.78-4.89,5.02-4.35,17.74-3.04,22.07,2.3,7.64,6.69,14.2,12.73,19.02-5.56,9.47-14.79,18.05-24.95,23.09-8.16,4.07-16.88,5.18-23.34,2.98-4.6-1.58-8.07-4.73-10.32-9.39-8.96-18.59-9.15-43.39-.51-66.34,7.52-19.96,20.92-35.52,36.95-42.99.14.68.29,1.35.45,2.01,1.76,7.18,7.97,14.52,16.41,14.65h.16c5.46,0,10.8-4.06,12.47-9.49,1.43-4.66-.35-9.16-4.75-12.06-3.53-2.32-7.97-3.11-12.49-2.24-3.36.66-6.67,1.62-9.86,2.86-2.24-21.58,14.37-36.62,24.67-43.76,14.2-9.81,37.56-16.88,55.99-9.75-.47,1.46-.88,2.97-1.22,4.5-1.35,5.97-1.06,10.7.88,14.46,1.74,3.41,5.35,5.92,8.99,6.24.27.02.54.03.81.03,2.7,0,5.12-1.23,6.86-3.52,1.56-2.05,2.26-4.79,1.94-7.51-.56-4.72-3.54-8.9-9.13-12.77-1.69-1.17-3.48-2.2-5.35-3.07,3.61-9.44,10.09-17.66,18.35-23.28,9.67-6.6,22.06-10.39,33.22-10.15,11.07-.24,23.47,3.55,33.16,10.16,8.24,5.61,14.72,13.83,18.34,23.27-1.87.87-3.66,1.91-5.35,3.07-4.59,3.18-7.4,6.53-8.59,10.25-1.1,3.45-.49,7.44,1.54,10.16,1.66,2.22,4.12,3.43,6.97,3.43.07,0,.15,0,.22-.01,3.06-.07,6.06-1.66,8.02-4.23,3.07-4.01,3.79-9.42,2.19-16.53-.34-1.55-.75-3.06-1.23-4.5,18.45-7.13,41.8-.06,55.99,9.75,10.3,7.14,26.91,22.17,24.66,43.75-1.92-.74-3.88-1.38-5.87-1.92-7.9-2.13-17.84-1-20.98,6.51-1.22,2.91-1.18,6.1.12,8.97,1.39,3.08,4.1,5.48,7.41,6.59,1.55.52,3.11.78,4.67.78,2.42,0,4.82-.63,7.09-1.88,4.55-2.5,8.19-7.39,9.51-12.76.17-.69.31-1.36.44-2.01,16.04,7.47,29.45,23.03,36.96,43,8.64,22.95,8.44,47.74-.52,66.33-2.24,4.65-5.7,7.81-10.3,9.39ZM397.76,274.18c-1.23-2.43-2.22-4.91-2.94-7.39-2.11-7.21-2.72-17.95.93-24.48,1.57-2.81,3.83-4.63,6.73-5.43.54-.15,1.04-.22,1.51-.22,1.08,0,1.98.4,2.77,1.2,3.77,3.88,3.46,15.32,2.31,19.12-2.05,6.86-5.94,12.77-11.31,17.2ZM325.67,287.42c-3.12,7.58-7.95,11.58-13.6,11.24-7.37-.44-16.96-8.55-22.21-25.66,4.06-.38,8.06-1.11,11.96-2.18-1.83,7.4-.79,15.25,2.93,21.48.43.71,1.35.94,2.06.51.71-.42.94-1.34.52-2.06-3.72-6.21-4.43-14.28-1.9-21.62.01-.02.01-.03.02-.05s0-.04.02-.06c.18-.52.38-1.04.58-1.53,1.93-4.57,5.28-7.9,8.74-8.69,2.3-.52,4.47.11,6.5,1.9.29.25.59.53.87.84.4.45.73.85,1.03,1.26,4.85,6.56,5.85,16.45,2.48,24.62ZM330.62,250.23c-6.13-15.97-6.39-33.54-.57-45.31,1.55-3.1,4.01-4.82,6.93-4.83h.04c3.26,0,6.37,2.11,8.1,5.53,3.87,7.58-.44,20.35-1.85,24.08-2.95,7.79-7.2,14.68-12.65,20.53ZM253.58,298.66c-5.65.32-10.48-3.66-13.6-11.24-3.36-8.16-2.36-18.06,2.49-24.62.34-.46.67-.87,1.02-1.24.37-.41.71-.73,1.05-1.01,1.98-1.69,4.13-2.27,6.38-1.74,3.44.82,6.77,4.14,8.67,8.67.19.47.38.93.56,1.44,0,.01,0,.03,0,.04,2.61,7.36,1.92,15.51-1.84,21.8-.42.71-.19,1.63.52,2.05.71.43,1.63.2,2.06-.51,3.75-6.28,4.78-14.18,2.91-21.61,3.91,1.11,7.94,1.87,12.02,2.26-5.27,17.14-14.87,25.26-22.25,25.71ZM235.43,250.23c-5.44-5.85-9.69-12.75-12.64-20.53-1.41-3.72-5.72-16.48-1.86-24.08,1.74-3.42,4.85-5.53,8.11-5.53h.05c2.92.02,5.37,1.73,6.91,4.83,5.83,11.76,5.57,29.33-.57,45.31ZM168.3,274.19c-5.35-4.42-9.25-10.33-11.32-17.22-1.15-3.79-1.46-15.23,2.32-19.11.79-.8,1.69-1.2,2.76-1.2.47,0,.97.07,1.52.22,2.9.8,5.17,2.62,6.74,5.44,3.65,6.53,3.04,17.26.93,24.48-.72,2.45-1.7,4.93-2.95,7.39ZM147.5,182.99c3.22-1.3,6.58-2.29,10-2.96,3.74-.73,7.39-.09,10.26,1.8,4.48,2.94,4.14,6.7,3.53,8.67-1.28,4.15-5.48,7.37-9.6,7.37h-.12c-6.84-.11-12.09-6.45-13.54-12.36-.2-.83-.38-1.68-.53-2.52ZM229.43,131.58c.3-1.34.65-2.67,1.06-3.95,1.62.78,3.18,1.68,4.66,2.7,4.83,3.35,7.4,6.84,7.85,10.65.23,1.96-.26,3.91-1.35,5.35-1.62,2.13-3.63,2.43-5.02,2.31-2.6-.23-5.31-2.13-6.58-4.62-1.61-3.11-1.81-7.18-.62-12.44ZM335.58,127.63c.41,1.27.76,2.6,1.07,3.95,1.38,6.2.85,10.79-1.65,14.05-1.42,1.87-3.56,3.01-5.71,3.07-2.47.04-3.94-1.18-4.72-2.23-1.45-1.94-1.88-4.93-1.08-7.45.98-3.06,3.41-5.91,7.43-8.69,1.48-1.02,3.04-1.92,4.66-2.7ZM418.56,182.99c-.14.8-.32,1.64-.54,2.52-1.12,4.58-4.2,8.74-8.03,10.84-2.98,1.64-6.22,1.94-9.36.88-2.53-.84-4.59-2.66-5.64-4.97-.95-2.11-.98-4.44-.08-6.58,1.69-4.05,6.2-5.64,11.03-5.64,2.14,0,4.35.31,6.4.86,2.1.57,4.19,1.27,6.22,2.09Z"/>
  <path class="cls-1" d="M293.8,198.27c-.83-.05-1.54.58-1.59,1.4-.29,4.85-4.28,8.62-9.1,8.62h-.07c-4.79-.04-8.77-3.82-9.05-8.61-.05-.83-.77-1.45-1.59-1.41-.82.05-1.45.76-1.41,1.58.38,6.37,5.66,11.39,12.03,11.44h.09c6.4,0,11.71-5.01,12.1-11.43.05-.83-.58-1.54-1.41-1.59Z"/>
</svg>