<?xml version="1.0" encoding="UTF-8"?>
<svg id="Layer_1" data-name="Layer 1" xmlns="http://www.w3.org/2000/svg" viewBox="0 0 498.39 408.09">
  <defs>
    <style>
      .cls-1 {
        fill: #fff;
      }

      .cls-2 {
        fill: #101010;
      }
    </style>
  </defs>
  <rect class="cls-2" x="-2.37" y="-1.42" width="503.12" height="410.93"/>
  <g>
    <path class="cls-1" d="M396.04,157.31c-4.66-9.86-15.51-16.13-26.92-15.63-1.67.07-3.27.29-4.8.64.05,5.39-.63,10.65-1.51,15.62-.11.66-.25,1.33-.39,2-.49,2.37-1.21,4.75-2.61,6.81-1.25,1.83-3.31,3.5-5.68,4.11-1.06.28-2.19.33-3.34.09-3-.63-5.55-3.31-6.33-6.68-.59-2.57-.29-5.41.91-8.69,2.79-7.6,8.45-13.07,15.76-15.54-.25-4.54-1.09-9.14-2.87-13.68-1.52-3.9-3.74-7.75-6.87-11.49-11.43-13.73-34.23-19.49-46.81-21.7-15.26-2.68-31.38-3.98-49.27-3.98s-33.92,1.29-49.13,3.96c-14.19,2.49-25.09,5.75-34.3,10.29-15,7.39-19.58,16.51-20.97,26.89-.61,4.59-.6,9.43-.59,14.47,0,2.12.01,4.3-.04,6.48l-.03,1.79c6.94,8,15.04,15.36,24.2,21.94.69.49.84,1.46.35,2.15s-1.46.84-2.15.35c-9.47-6.8-17.85-14.43-25-22.72-.07-.07-.14-.15-.21-.25-1.26-1.47-2.5-2.95-3.68-4.46-1.09-1.4-2.21-2.89-3.35-4.4-5.81-7.73-12.39-16.49-17.83-15.59-.94.15-2.36.7-3.5,1.76-.69.65-1.2,1.39-1.56,2.18,1.99,1.99,2.96,4.13,3.5,5.32.73,1.62,2.44,5.42.45,7.48-.66.67-1.64,1.05-2.59.97-2.73-.19-3.96-3.61-4.36-4.74-.84-2.31-1.14-5.25-.53-8-.22-.15-.45-.31-.69-.45-.86-.53-5.36-3.11-9.31-1.37-3.31,1.46-4.6,5.14-4.73,5.57-2.55,7.76,10.82,22.66,35.75,39.88,12.07,8.33,25.25,15.49,39.2,21.29.79.32,1.16,1.22.83,2.01-.25.59-.82.94-1.42.94-.2,0-.4-.03-.6-.11-6.79-2.82-13.39-5.98-19.79-9.42,4.45,22.93,13.98,40.02,29.09,52.14,8.14,6.54,17.62,11.74,28.17,15.45.01,0,.02.01.03.01.05.02.1.04.15.07.04.02.08.04.11.06.05.03.08.06.12.09.04.03.08.06.12.09.03.03.06.06.09.1.03.04.07.07.1.12.03.03.05.07.07.12.03.04.05.08.07.12l.06.15s.03.08.04.12c.01.05.02.1.02.16.01.04.02.08.02.13v.15c-.01.05-.01.1-.02.15v.03c-1.56,9.05-.98,21.37-.55,30.36.13,2.81.26,5.25.29,7.25.02.65-.37,1.22-.95,1.46-.59.24-1.27.09-1.7-.37-.49-.53-5.03-5.14-11.71-4.49-4.11.39-8.01,2.4-10.17,5.24-1.69,2.24-2.3,4.86-1.79,7.8,1.52,8.65,11.48,9.2,22.44,9.02.86-.01,1.68-.02,2.45-.03,4.26-.01,8.56-.32,12.76-.9,1.22-.17,2.15-1.14,2.23-2.36.59-8.5,1.23-24.82,1.95-48.5,0-.03.01-.07.01-.1,0-.04,0-.08.01-.11,0-.02.01-.03.01-.04.01-.06.03-.11.05-.17.01-.04.02-.08.04-.11.02-.06.05-.12.09-.18.01-.02.02-.05.04-.07.05-.07.11-.14.17-.22.29-.31.7-.49,1.15-.47.06,0,.12.01.18.02.01.01.03,0,.04.01,13.24,2.36,27.73,2.67,41.91.87h.06s.04-.01.06-.01c.05,0,.09.01.13.01h.08c.08.01.16.02.25.05.01,0,.03,0,.04.01.07.02.14.05.22.08.03.01.05.02.08.04.05.02.09.05.13.08.05.03.09.06.13.1.02.02.05.04.07.06.05.05.09.1.14.16.01.02.03.04.04.06.04.05.08.11.11.18.01.03.03.06.04.08.02.06.04.12.06.18.01.04.02.09.03.13.01.03.02.06.02.09.01.03,0,.05,0,.07.01.02.01.04.01.06.32,7.77,1.9,24,3.16,37.03.39,4.05.74,7.71,1.02,10.65.1,1.18,1.02,2.13,2.22,2.3,4.22.59,8.52.89,12.82.9.77.01,1.59.02,2.45.03,10.96.18,20.92-.37,22.44-9.03.51-2.94-.09-5.56-1.79-7.79-2.16-2.83-6.06-4.85-10.17-5.24-6.71-.67-11.21,3.95-11.71,4.49-.43.46-1.11.61-1.7.37-.59-.24-.98-.81-.97-1.46.04-1.75.12-3.87.22-6.26.34-8.66.81-20.52-.49-29.83v-.05c-.01-.05-.01-.11-.01-.16v-.14c.01-.05.02-.1.03-.15s.02-.09.03-.14c.01-.04.03-.09.05-.13.02-.05.04-.09.06-.13.02-.05.05-.09.07-.13.03-.04.06-.08.09-.11.03-.04.06-.08.1-.11.03-.03.06-.07.1-.1.03-.03.08-.06.12-.09.04-.02.07-.05.12-.07.04-.03.09-.05.13-.07.05-.02.09-.04.14-.05.02-.01.03-.02.05-.02,2.44-.68,4.9-1.46,7.32-2.28.15-5.24,2.02-11.6,3.88-17.86.52-1.8,1.05-3.56,1.51-5.26,3.34-12.13,4.92-25.15,4.71-38.67-.02-.85.66-1.55,1.51-1.56h.03c.83,0,1.52.67,1.54,1.51.21,13.82-1.41,27.13-4.82,39.54-.47,1.7-1,3.49-1.54,5.31-1.85,6.26-3.86,13.08-3.76,18.03v.21c.07,2.29.62,4.16,1.86,5.37.69.66,1.97,1.47,3.5,1.76.93.17,1.83.14,2.68-.04.41-2.78,1.55-4.84,2.19-5.98.86-1.56,2.88-5.21,5.73-4.82.93.12,1.81.69,2.32,1.5,1.47,2.3-.54,5.33-1.2,6.33-1.37,2.05-3.54,4.05-6.11,5.2,0,.28.02.54.04.83.08,1.01.7,6.15,4.46,8.29,3.13,1.79,6.87.63,7.29.48,7.74-2.58,11.76-22.19,10.72-52.47-.49-14.64-2.61-29.5-6.26-44.16-.21-.83.3-1.66,1.12-1.87.83-.21,1.66.3,1.87,1.12,3.71,14.87,5.85,29.94,6.36,44.8.07,2.22.13,4.63.15,7.15,3.43-4.12,6.35-8.69,9.06-13.34-4.49-6.98-7.6-16.22-3.75-22.74,2.46-4.17,6.48-5.31,9.59-4.62.21.05.4.1.6.16,3.62,1.13,5.79,4.64,5.51,8.98v.03c-.29,4.16-2.38,7.72-4.41,11.16-.42.72-.84,1.43-1.23,2.13-.88,1.59-1.78,3.18-2.69,4.77,5.39,7.42,15.72,8.18,23.64,5.63,9.01-2.92,16.72-11.53,20.61-23.04,2.93-8.64,8.89-30.47,1.17-46.81ZM235.69,201.75c-.76,1.81-1.85,2.93-3.04,2.93-.33,0-.65-.08-.96-.26-1.87-.97-3.26-4.72-3.26-9.21,0-5.23,1.89-9.47,4.21-9.47s4.21,4.24,4.21,9.47c0,2.54-.44,4.84-1.17,6.54ZM262.53,213.35c-.84,5.82-5.84,10.24-11.81,10.24h-.08c-5.95-.05-10.94-4.5-11.75-10.31-.04-.32-.07-.64-.09-.95-.03-.56.4-1.06.97-1.09.46-.02.88.27,1.03.69.04.08.05.17.06.28.31,5.2,4.61,9.29,9.8,9.33h.07c5.23,0,9.56-4.09,9.87-9.33,0-.06.01-.12.03-.18.11-.47.54-.81,1.06-.78.56.03,1,.52.97,1.09-.02.35-.06.69-.11,1.03ZM269.69,204.38h-.01c-.33.2-.69.3-1.05.3-1.21,0-2.3-1.15-3.07-3-.71-1.69-1.14-3.96-1.14-6.47,0-5.23,1.89-9.47,4.21-9.47s4.21,4.24,4.21,9.47c0,4.42-1.35,8.11-3.15,9.17ZM254.02,152.32c-46.2,0-83.66-9.99-92.4-23.65-1.26-1.98-1.93-4.04-1.93-6.15,0-16.6,40.93-29.64,93.37-29.79h.95c5.39,0,10.67.13,15.79.4,45.13,2.3,78.55,14.39,78.55,29.39,0,1.54-.36,3.06-1.04,4.53-6.73,14.49-45.29,25.27-93.3,25.27ZM383.99,184.34c-.61,3.09-2.06,7.4-5.59,10.33-2.05,1.69-4.76,2.66-7.36,2.66-.53,0-1.07-.04-1.58-.12-.35-.06-.7-.13-1.03-.23-2.05-.55-3.72-1.79-4.86-3.59-1.06-1.67-1.38-3.73-1.37-5.74.01-1.27.13-2.53.3-3.68.11-.8.18-1.75.27-2.75.09-1.1.18-2.26.35-3.44.45-3.46,1.42-6.95,4.26-8.84,1.02-.67,2.2-1.08,3.46-1.26,3.84-.58,8.32.92,10.43,3.36,2.75,3.14,3.74,8,2.71,13.31Z"/>
    <path class="cls-1" d="M247.81,149.18c.39.04.79.06,1.19.06.28,0,.55-.01.83-.03-.69-.01-1.36-.02-2.02-.03Z"/>
    <path class="cls-1" d="M118.26,140.63c-.31-.7-.76-1.68-1.47-2.72,0,1.62.33,3.13.68,4.1.91,2.56,1.66,2.72,1.67,2.72.08,0,.14-.02.17-.05.04-.06.43-.77-1.06-4.05ZM316.92,260.97c-.03-.05-.11-.1-.14-.11-.08,0-.87.12-2.63,3.27-.37.67-.89,1.6-1.3,2.79,1.3-.97,2.32-2.12,2.9-2.98,1.5-2.26,1.18-2.96,1.18-2.97ZM352.52,197.4c-.44-.13-.91-.21-1.41-.21-1.79,0-3.83.94-5.22,3.3-2.91,4.9-.55,12.3,2.84,18.11.64-1.12,1.25-2.24,1.88-3.35.4-.73.83-1.46,1.27-2.19,1.84-3.13,3.75-6.38,3.97-9.81.24-3.48-1.57-5.31-3.35-5.86ZM348.28,156.64c-1,2.7-1.25,4.97-.8,6.93.5,2.2,2.13,3.99,3.94,4.36,1.69.36,3.4-.43,4.66-1.57h.01c.46-.42.85-.87,1.17-1.35.31-.45.58-.93.81-1.44h0c.88-1.86,1.31-3.97,1.7-6.18.8-4.51,1.43-9.27,1.45-14.14-6.02,2.28-10.58,6.91-12.95,13.38ZM367.2,173.97c.39-.46.75-.93,1.09-1.43.19-.28.37-.55.54-.83-.71.54-1.23,1.32-1.63,2.26ZM367.2,173.97c.39-.46.75-.93,1.09-1.43.19-.28.37-.55.54-.83-.71.54-1.23,1.32-1.63,2.26ZM348.28,156.64c-1,2.7-1.25,4.97-.8,6.93.5,2.2,2.13,3.99,3.94,4.36,1.69.36,3.4-.43,4.66-1.57h.01c.46-.42.85-.87,1.17-1.35.31-.45.58-.93.81-1.44h0c.88-1.86,1.31-3.97,1.7-6.18.8-4.51,1.43-9.27,1.45-14.14-6.02,2.28-10.58,6.91-12.95,13.38ZM352.52,197.4c-.44-.13-.91-.21-1.41-.21-1.79,0-3.83.94-5.22,3.3-2.91,4.9-.55,12.3,2.84,18.11.64-1.12,1.25-2.24,1.88-3.35.4-.73.83-1.46,1.27-2.19,1.84-3.13,3.75-6.38,3.97-9.81.24-3.48-1.57-5.31-3.35-5.86ZM316.92,260.97c-.03-.05-.11-.1-.14-.11-.08,0-.87.12-2.63,3.27-.37.67-.89,1.6-1.3,2.79,1.3-.97,2.32-2.12,2.9-2.98,1.5-2.26,1.18-2.96,1.18-2.97ZM118.26,140.63c-.31-.7-.76-1.68-1.47-2.72,0,1.62.33,3.13.68,4.1.91,2.56,1.66,2.72,1.67,2.72.08,0,.14-.02.17-.05.04-.06.43-.77-1.06-4.05ZM118.26,140.63c-.31-.7-.76-1.68-1.47-2.72,0,1.62.33,3.13.68,4.1.91,2.56,1.66,2.72,1.67,2.72.08,0,.14-.02.17-.05.04-.06.43-.77-1.06-4.05ZM316.92,260.97c-.03-.05-.11-.1-.14-.11-.08,0-.87.12-2.63,3.27-.37.67-.89,1.6-1.3,2.79,1.3-.97,2.32-2.12,2.9-2.98,1.5-2.26,1.18-2.96,1.18-2.97ZM352.52,197.4c-.44-.13-.91-.21-1.41-.21-1.79,0-3.83.94-5.22,3.3-2.91,4.9-.55,12.3,2.84,18.11.64-1.12,1.25-2.24,1.88-3.35.4-.73.83-1.46,1.27-2.19,1.84-3.13,3.75-6.38,3.97-9.81.24-3.48-1.57-5.31-3.35-5.86ZM348.28,156.64c-1,2.7-1.25,4.97-.8,6.93.5,2.2,2.13,3.99,3.94,4.36,1.69.36,3.4-.43,4.66-1.57h.01c.46-.42.85-.87,1.17-1.35.31-.45.58-.93.81-1.44h0c.88-1.86,1.31-3.97,1.7-6.18.8-4.51,1.43-9.27,1.45-14.14-6.02,2.28-10.58,6.91-12.95,13.38ZM367.2,173.97c.39-.46.75-.93,1.09-1.43.19-.28.37-.55.54-.83-.71.54-1.23,1.32-1.63,2.26ZM367.2,173.97c.39-.46.75-.93,1.09-1.43.19-.28.37-.55.54-.83-.71.54-1.23,1.32-1.63,2.26ZM348.28,156.64c-1,2.7-1.25,4.97-.8,6.93.5,2.2,2.13,3.99,3.94,4.36,1.69.36,3.4-.43,4.66-1.57h.01c.46-.42.85-.87,1.17-1.35.31-.45.58-.93.81-1.44h0c.88-1.86,1.31-3.97,1.7-6.18.8-4.51,1.43-9.27,1.45-14.14-6.02,2.28-10.58,6.91-12.95,13.38ZM352.52,197.4c-.44-.13-.91-.21-1.41-.21-1.79,0-3.83.94-5.22,3.3-2.91,4.9-.55,12.3,2.84,18.11.64-1.12,1.25-2.24,1.88-3.35.4-.73.83-1.46,1.27-2.19,1.84-3.13,3.75-6.38,3.97-9.81.24-3.48-1.57-5.31-3.35-5.86ZM316.92,260.97c-.03-.05-.11-.1-.14-.11-.08,0-.87.12-2.63,3.27-.37.67-.89,1.6-1.3,2.79,1.3-.97,2.32-2.12,2.9-2.98,1.5-2.26,1.18-2.96,1.18-2.97ZM118.26,140.63c-.31-.7-.76-1.68-1.47-2.72,0,1.62.33,3.13.68,4.1.91,2.56,1.66,2.72,1.67,2.72.08,0,.14-.02.17-.05.04-.06.43-.77-1.06-4.05ZM118.26,140.63c-.31-.7-.76-1.68-1.47-2.72,0,1.62.33,3.13.68,4.1.91,2.56,1.66,2.72,1.67,2.72.08,0,.14-.02.17-.05.04-.06.43-.77-1.06-4.05ZM316.92,260.97c-.03-.05-.11-.1-.14-.11-.08,0-.87.12-2.63,3.27-.37.67-.89,1.6-1.3,2.79,1.3-.97,2.32-2.12,2.9-2.98,1.5-2.26,1.18-2.96,1.18-2.97ZM352.52,197.4c-.44-.13-.91-.21-1.41-.21-1.79,0-3.83.94-5.22,3.3-2.91,4.9-.55,12.3,2.84,18.11.64-1.12,1.25-2.24,1.88-3.35.4-.73.83-1.46,1.27-2.19,1.84-3.13,3.75-6.38,3.97-9.81.24-3.48-1.57-5.31-3.35-5.86ZM348.28,156.64c-1,2.7-1.25,4.97-.8,6.93.5,2.2,2.13,3.99,3.94,4.36,1.69.36,3.4-.43,4.66-1.57h.01c.46-.42.85-.87,1.17-1.35.31-.45.58-.93.81-1.44h0c.88-1.86,1.31-3.97,1.7-6.18.8-4.51,1.43-9.27,1.45-14.14-6.02,2.28-10.58,6.91-12.95,13.38ZM367.2,173.97c.39-.46.75-.93,1.09-1.43.19-.28.37-.55.54-.83-.71.54-1.23,1.32-1.63,2.26ZM367.2,173.97c.39-.46.75-.93,1.09-1.43.19-.28.37-.55.54-.83-.71.54-1.23,1.32-1.63,2.26ZM348.28,156.64c-1,2.7-1.25,4.97-.8,6.93.5,2.2,2.13,3.99,3.94,4.36,1.69.36,3.4-.43,4.66-1.57h.01c.46-.42.85-.87,1.17-1.35.31-.45.58-.93.81-1.44h0c.88-1.86,1.31-3.97,1.7-6.18.8-4.51,1.43-9.27,1.45-14.14-6.02,2.28-10.58,6.91-12.95,13.38ZM352.52,197.4c-.44-.13-.91-.21-1.41-.21-1.79,0-3.83.94-5.22,3.3-2.91,4.9-.55,12.3,2.84,18.11.64-1.12,1.25-2.24,1.88-3.35.4-.73.83-1.46,1.27-2.19,1.84-3.13,3.75-6.38,3.97-9.81.24-3.48-1.57-5.31-3.35-5.86ZM316.92,260.97c-.03-.05-.11-.1-.14-.11-.08,0-.87.12-2.63,3.27-.37.67-.89,1.6-1.3,2.79,1.3-.97,2.32-2.12,2.9-2.98,1.5-2.26,1.18-2.96,1.18-2.97ZM118.26,140.63c-.31-.7-.76-1.68-1.47-2.72,0,1.62.33,3.13.68,4.1.91,2.56,1.66,2.72,1.67,2.72.08,0,.14-.02.17-.05.04-.06.43-.77-1.06-4.05ZM118.26,140.63c-.31-.7-.76-1.68-1.47-2.72,0,1.62.33,3.13.68,4.1.91,2.56,1.66,2.72,1.67,2.72.08,0,.14-.02.17-.05.04-.06.43-.77-1.06-4.05ZM316.92,260.97c-.03-.05-.11-.1-.14-.11-.08,0-.87.12-2.63,3.27-.37.67-.89,1.6-1.3,2.79,1.3-.97,2.32-2.12,2.9-2.98,1.5-2.26,1.18-2.96,1.18-2.97ZM352.52,197.4c-.44-.13-.91-.21-1.41-.21-1.79,0-3.83.94-5.22,3.3-2.91,4.9-.55,12.3,2.84,18.11.64-1.12,1.25-2.24,1.88-3.35.4-.73.83-1.46,1.27-2.19,1.84-3.13,3.75-6.38,3.97-9.81.24-3.48-1.57-5.31-3.35-5.86ZM348.28,156.64c-1,2.7-1.25,4.97-.8,6.93.5,2.2,2.13,3.99,3.94,4.36,1.69.36,3.4-.43,4.66-1.57h.01c.46-.42.85-.87,1.17-1.35.31-.45.58-.93.81-1.44h0c.88-1.86,1.31-3.97,1.7-6.18.8-4.51,1.43-9.27,1.45-14.14-6.02,2.28-10.58,6.91-12.95,13.38ZM367.2,173.97c.39-.46.75-.93,1.09-1.43.19-.28.37-.55.54-.83-.71.54-1.23,1.32-1.63,2.26ZM118.26,140.63c-.31-.7-.76-1.68-1.47-2.72,0,1.62.33,3.13.68,4.1.91,2.56,1.66,2.72,1.67,2.72.08,0,.14-.02.17-.05.04-.06.43-.77-1.06-4.05ZM316.92,260.97c-.03-.05-.11-.1-.14-.11-.08,0-.87.12-2.63,3.27-.37.67-.89,1.6-1.3,2.79,1.3-.97,2.32-2.12,2.9-2.98,1.5-2.26,1.18-2.96,1.18-2.97ZM352.52,197.4c-.44-.13-.91-.21-1.41-.21-1.79,0-3.83.94-5.22,3.3-2.91,4.9-.55,12.3,2.84,18.11.64-1.12,1.25-2.24,1.88-3.35.4-.73.83-1.46,1.27-2.19,1.84-3.13,3.75-6.38,3.97-9.81.24-3.48-1.57-5.31-3.35-5.86ZM348.28,156.64c-1,2.7-1.25,4.97-.8,6.93.5,2.2,2.13,3.99,3.94,4.36,1.69.36,3.4-.43,4.66-1.57h.01c.46-.42.85-.87,1.17-1.35.31-.45.58-.93.81-1.44h0c.88-1.86,1.31-3.97,1.7-6.18.8-4.51,1.43-9.27,1.45-14.14-6.02,2.28-10.58,6.91-12.95,13.38ZM367.2,173.97c.39-.46.75-.93,1.09-1.43.19-.28.37-.55.54-.83-.71.54-1.23,1.32-1.63,2.26ZM367.2,173.97c.39-.46.75-.93,1.09-1.43.19-.28.37-.55.54-.83-.71.54-1.23,1.32-1.63,2.26ZM348.28,156.64c-1,2.7-1.25,4.97-.8,6.93.5,2.2,2.13,3.99,3.94,4.36,1.69.36,3.4-.43,4.66-1.57h.01c.46-.42.85-.87,1.17-1.35.31-.45.58-.93.81-1.44h0c.88-1.86,1.31-3.97,1.7-6.18.8-4.51,1.43-9.27,1.45-14.14-6.02,2.28-10.58,6.91-12.95,13.38ZM352.52,197.4c-.44-.13-.91-.21-1.41-.21-1.79,0-3.83.94-5.22,3.3-2.91,4.9-.55,12.3,2.84,18.11.64-1.12,1.25-2.24,1.88-3.35.4-.73.83-1.46,1.27-2.19,1.84-3.13,3.75-6.38,3.97-9.81.24-3.48-1.57-5.31-3.35-5.86ZM316.92,260.97c-.03-.05-.11-.1-.14-.11-.08,0-.87.12-2.63,3.27-.37.67-.89,1.6-1.3,2.79,1.3-.97,2.32-2.12,2.9-2.98,1.5-2.26,1.18-2.96,1.18-2.97ZM118.26,140.63c-.31-.7-.76-1.68-1.47-2.72,0,1.62.33,3.13.68,4.1.91,2.56,1.66,2.72,1.67,2.72.08,0,.14-.02.17-.05.04-.06.43-.77-1.06-4.05ZM118.26,140.63c-.31-.7-.76-1.68-1.47-2.72,0,1.62.33,3.13.68,4.1.91,2.56,1.66,2.72,1.67,2.72.08,0,.14-.02.17-.05.04-.06.43-.77-1.06-4.05ZM316.92,260.97c-.03-.05-.11-.1-.14-.11-.08,0-.87.12-2.63,3.27-.37.67-.89,1.6-1.3,2.79,1.3-.97,2.32-2.12,2.9-2.98,1.5-2.26,1.18-2.96,1.18-2.97ZM352.52,197.4c-.44-.13-.91-.21-1.41-.21-1.79,0-3.83.94-5.22,3.3-2.91,4.9-.55,12.3,2.84,18.11.64-1.12,1.25-2.24,1.88-3.35.4-.73.83-1.46,1.27-2.19,1.84-3.13,3.75-6.38,3.97-9.81.24-3.48-1.57-5.31-3.35-5.86ZM348.28,156.64c-1,2.7-1.25,4.97-.8,6.93.5,2.2,2.13,3.99,3.94,4.36,1.69.36,3.4-.43,4.66-1.57h.01c.46-.42.85-.87,1.17-1.35.31-.45.58-.93.81-1.44h0c.88-1.86,1.31-3.97,1.7-6.18.8-4.51,1.43-9.27,1.45-14.14-6.02,2.28-10.58,6.91-12.95,13.38ZM367.2,173.97c.39-.46.75-.93,1.09-1.43.19-.28.37-.55.54-.83-.71.54-1.23,1.32-1.63,2.26ZM367.2,173.97c.39-.46.75-.93,1.09-1.43.19-.28.37-.55.54-.83-.71.54-1.23,1.32-1.63,2.26ZM348.28,156.64c-1,2.7-1.25,4.97-.8,6.93.5,2.2,2.13,3.99,3.94,4.36,1.69.36,3.4-.43,4.66-1.57h.01c.46-.42.85-.87,1.17-1.35.31-.45.58-.93.81-1.44h0c.88-1.86,1.31-3.97,1.7-6.18.8-4.51,1.43-9.27,1.45-14.14-6.02,2.28-10.58,6.91-12.95,13.38ZM352.52,197.4c-.44-.13-.91-.21-1.41-.21-1.79,0-3.83.94-5.22,3.3-2.91,4.9-.55,12.3,2.84,18.11.64-1.12,1.25-2.24,1.88-3.35.4-.73.83-1.46,1.27-2.19,1.84-3.13,3.75-6.38,3.97-9.81.24-3.48-1.57-5.31-3.35-5.86ZM316.92,260.97c-.03-.05-.11-.1-.14-.11-.08,0-.87.12-2.63,3.27-.37.67-.89,1.6-1.3,2.79,1.3-.97,2.32-2.12,2.9-2.98,1.5-2.26,1.18-2.96,1.18-2.97ZM118.26,140.63c-.31-.7-.76-1.68-1.47-2.72,0,1.62.33,3.13.68,4.1.91,2.56,1.66,2.72,1.67,2.72.08,0,.14-.02.17-.05.04-.06.43-.77-1.06-4.05ZM118.26,140.63c-.31-.7-.76-1.68-1.47-2.72,0,1.62.33,3.13.68,4.1.91,2.56,1.66,2.72,1.67,2.72.08,0,.14-.02.17-.05.04-.06.43-.77-1.06-4.05ZM316.92,260.97c-.03-.05-.11-.1-.14-.11-.08,0-.87.12-2.63,3.27-.37.67-.89,1.6-1.3,2.79,1.3-.97,2.32-2.12,2.9-2.98,1.5-2.26,1.18-2.96,1.18-2.97ZM352.52,197.4c-.44-.13-.91-.21-1.41-.21-1.79,0-3.83.94-5.22,3.3-2.91,4.9-.55,12.3,2.84,18.11.64-1.12,1.25-2.24,1.88-3.35.4-.73.83-1.46,1.27-2.19,1.84-3.13,3.75-6.38,3.97-9.81.24-3.48-1.57-5.31-3.35-5.86ZM348.28,156.64c-1,2.7-1.25,4.97-.8,6.93.5,2.2,2.13,3.99,3.94,4.36,1.69.36,3.4-.43,4.66-1.57h.01c.46-.42.85-.87,1.17-1.35.31-.45.58-.93.81-1.44h0c.88-1.86,1.31-3.97,1.7-6.18.8-4.51,1.43-9.27,1.45-14.14-6.02,2.28-10.58,6.91-12.95,13.38ZM367.2,173.97c.39-.46.75-.93,1.09-1.43.19-.28.37-.55.54-.83-.71.54-1.23,1.32-1.63,2.26ZM367.2,173.97c.39-.46.75-.93,1.09-1.43.19-.28.37-.55.54-.83-.71.54-1.23,1.32-1.63,2.26ZM348.28,156.64c-1,2.7-1.25,4.97-.8,6.93.5,2.2,2.13,3.99,3.94,4.36,1.69.36,3.4-.43,4.66-1.57h.01c.46-.42.85-.87,1.17-1.35.31-.45.58-.93.81-1.44h0c.88-1.86,1.31-3.97,1.7-6.18.8-4.51,1.43-9.27,1.45-14.14-6.02,2.28-10.58,6.91-12.95,13.38ZM352.52,197.4c-.44-.13-.91-.21-1.41-.21-1.79,0-3.83.94-5.22,3.3-2.91,4.9-.55,12.3,2.84,18.11.64-1.12,1.25-2.24,1.88-3.35.4-.73.83-1.46,1.27-2.19,1.84-3.13,3.75-6.38,3.97-9.81.24-3.48-1.57-5.31-3.35-5.86ZM316.92,260.97c-.03-.05-.11-.1-.14-.11-.08,0-.87.12-2.63,3.27-.37.67-.89,1.6-1.3,2.79,1.3-.97,2.32-2.12,2.9-2.98,1.5-2.26,1.18-2.96,1.18-2.97ZM118.26,140.63c-.31-.7-.76-1.68-1.47-2.72,0,1.62.33,3.13.68,4.1.91,2.56,1.66,2.72,1.67,2.72.08,0,.14-.02.17-.05.04-.06.43-.77-1.06-4.05ZM118.26,140.63c-.31-.7-.76-1.68-1.47-2.72,0,1.62.33,3.13.68,4.1.91,2.56,1.66,2.72,1.67,2.72.08,0,.14-.02.17-.05.04-.06.43-.77-1.06-4.05ZM316.92,260.97c-.03-.05-.11-.1-.14-.11-.08,0-.87.12-2.63,3.27-.37.67-.89,1.6-1.3,2.79,1.3-.97,2.32-2.12,2.9-2.98,1.5-2.26,1.18-2.96,1.18-2.97ZM352.52,197.4c-.44-.13-.91-.21-1.41-.21-1.79,0-3.83.94-5.22,3.3-2.91,4.9-.55,12.3,2.84,18.11.64-1.12,1.25-2.24,1.88-3.35.4-.73.83-1.46,1.27-2.19,1.84-3.13,3.75-6.38,3.97-9.81.24-3.48-1.57-5.31-3.35-5.86ZM348.28,156.64c-1,2.7-1.25,4.97-.8,6.93.5,2.2,2.13,3.99,3.94,4.36,1.69.36,3.4-.43,4.66-1.57h.01c.46-.42.85-.87,1.17-1.35.31-.45.58-.93.81-1.44h0c.88-1.86,1.31-3.97,1.7-6.18.8-4.51,1.43-9.27,1.45-14.14-6.02,2.28-10.58,6.91-12.95,13.38ZM367.2,173.97c.39-.46.75-.93,1.09-1.43.19-.28.37-.55.54-.83-.71.54-1.23,1.32-1.63,2.26ZM348.28,156.64c-1,2.7-1.25,4.97-.8,6.93.5,2.2,2.13,3.99,3.94,4.36,1.69.36,3.4-.43,4.66-1.57h.01c.46-.42.85-.87,1.17-1.35.31-.45.58-.93.81-1.44h0c.88-1.86,1.31-3.97,1.7-6.18.8-4.51,1.43-9.27,1.45-14.14-6.02,2.28-10.58,6.91-12.95,13.38ZM367.2,173.97c.39-.46.75-.93,1.09-1.43.19-.28.37-.55.54-.83-.71.54-1.23,1.32-1.63,2.26ZM352.52,197.4c-.44-.13-.91-.21-1.41-.21-1.79,0-3.83.94-5.22,3.3-2.91,4.9-.55,12.3,2.84,18.11.64-1.12,1.25-2.24,1.88-3.35.4-.73.83-1.46,1.27-2.19,1.84-3.13,3.75-6.38,3.97-9.81.24-3.48-1.57-5.31-3.35-5.86ZM316.92,260.97c-.03-.05-.11-.1-.14-.11-.08,0-.87.12-2.63,3.27-.37.67-.89,1.6-1.3,2.79,1.3-.97,2.32-2.12,2.9-2.98,1.5-2.26,1.18-2.96,1.18-2.97ZM118.26,140.63c-.31-.7-.76-1.68-1.47-2.72,0,1.62.33,3.13.68,4.1.91,2.56,1.66,2.72,1.67,2.72.08,0,.14-.02.17-.05.04-.06.43-.77-1.06-4.05Z"/>
    <path class="cls-1" d="M266.41,110.28c-.59,1.65-2.39,2.78-4.35,3.9-1.54.87-3.1,1.74-4.65,2.61-2.58,1.43-5.21,2.89-7.8,4.42-.89.51-1.8,1.05-2.68,1.59-.13.08-.28.16-.41.25-.06-1.13-.44-2.28-1.13-3.34-1.1-1.64-2.62-2.76-4.09-3.85-.51-.38-1.03-.76-1.52-1.16-.87-.71-2.88-2.6-2.54-4.57.03-.22.1-.42.2-.63.09-.2.21-.39.36-.58.86-1.06,2.56-1.67,4.11-1.52.88.1,2.02.82,3.12,1.52,1.44.91,2.93,1.83,4.48,1.82,2.27-.05,3.72-1.67,4.88-2.98.51-.59,1.01-1.14,1.48-1.47.1-.07.21-.14.32-.21,2.39-1.53,5.05-1.99,7.16-1.24.77.28,1.5.79,2.07,1.45.06.07.11.14.17.22.16.21.31.41.43.64.61,1.07.75,2.18.4,3.13Z"/>
    <path class="cls-1" d="M237.59,136.51c-.12,0-.24-.01-.36-.03,0-.05.01-.11.01-.17.12.06.24.13.35.21Z"/>
    <path class="cls-1" d="M224.66,107.57c-.14-.12-.31-.23-.46-.33"/>
    <path class="cls-1" d="M298.55,112.69c.05.52-.03,1.08-.23,1.59-.16.44-.41.86-.73,1.19-1.37,1.44-3.61,2-5.83,2.39-3.93.7-7.77.93-11.49,1.16-1.24.08-2.48.15-3.71.26-2.89.22-5.73.51-8.59,1.11,2-1.39,4.18-2.42,7.33-2.7.79-.08,1.6-.12,2.41-.18.05,0,.1-.01.15-.01,3.49-.23,7.09-.46,10.31-1.93.58-.27,1.14-.56,1.69-.91.25-.15.48-.32.72-.48h.01c.46-.34.91-.7,1.37-1.05.77-.62,1.51-1.19,2.29-1.62.67-.37,1.49-.63,2.25-.63.48,0,.94.11,1.31.37.52.39.69,1.01.73,1.45Z"/>
    <path class="cls-1" d="M305.95,100.67c-4.46-.93-9.24-1.77-14.32-2.45-5.38-.73-11.1-1.31-17.12-1.73-6.49-.44-13.34-.68-20.49-.68-7.71,0-15.07.28-22.02.79h-.01c-1.85.13-3.67.29-5.45.45-4.77.45-9.33,1.01-13.67,1.67-.01-.01-.02-.01-.02,0-6.84,1.04-13.09,2.33-18.69,3.81-.01,0-.02,0-.03.01-1.95.51-3.82,1.05-5.61,1.59-.02,0-.03.01-.05.02-16.33,5.08-25.7,11.84-25.7,18.36,0,.65.09,1.3.28,1.95,1.86,6.61,13.01,13.27,30.97,18.01.02,0,.03.01.04.01,6.37,1.67,13.6,3.12,21.57,4.23h.09c9.64,1.36,20.3,2.22,31.94,2.44.04,0,.09.01.14.01.67.01,1.33.02,2.02.03,1.39.02,2.78.03,4.19.03,14.7,0,28.12-1.01,39.85-2.72,7.67-1.12,14.63-2.55,20.77-4.21.02,0,.03-.01.04-.01,18.34-4.93,29.43-11.87,30.5-18.69.06-.36.09-.73.09-1.09,0-8.16-14.69-16.7-39.33-21.85ZM275.02,114.62c.87-.08,1.76-.13,2.64-.2.49-.03.99-.06,1.47-.09,3.36-.26,6.5-.65,9.1-2.29.2-.12.39-.26.58-.39.43-.31.84-.63,1.25-.95.84-.66,1.7-1.35,2.72-1.9.02-.01.03-.02.05-.03,1.9-1.03,4.66-1.56,6.79-.02.52.38.94.85,1.27,1.4.36.59.6,1.26.69,2,.02.08.03.16.04.26.17,1.86-.51,3.84-1.79,5.19-1.99,2.09-4.8,2.82-7.54,3.32-4.11.72-8.03.97-11.83,1.2-2.41.15-4.79.3-7.15.57h-.01c-1.2.13-2.38.3-3.57.51-3.52.64-7.02,1.68-10.58,3.58-.24.12-.48.19-.73.19-.54,0-1.08-.3-1.36-.81-.4-.75-.12-1.68.63-2.08,2.14-1.14,3.83-2.53,5.47-3.86,1.44-1.17,2.9-2.36,4.63-3.35,1.95-1.12,4.24-1.97,7.22-2.24ZM215.46,111.37c.26-1.06.8-2.05,1.56-2.87.49-.53,1.08-1,1.74-1.35,1.45-.78,3.03-.92,4.45-.4.35.12.68.29,1,.48.15.1.32.21.46.33,1.23.94,2.19,2.44,2.79,4.42.17.59.32,1.17.47,1.77.15.63.31,1.23.49,1.8.17.55.38,1.03.6,1.43.03.06.07.11.1.17,1.13,1.79,3.65,2.99,6.08,4.14,1.46.7,2.84,1.36,4.03,2.17.69.48.87,1.43.4,2.13-.3.44-.78.69-1.28.69-.29,0-.58-.08-.83-.25-1.48-.95-4.36-1.51-7.42-2.08h-.01s-.04-.01-.07-.01c-5.24-.98-11.18-2.08-13.69-5.95-.51-.8-.86-1.66-1.04-2.61-.23-1.22-.16-2.56.18-4ZM240.88,137.6c-.3.26-.65.38-1.01.38-.43,0-.86-.19-1.17-.53-.31-.36-.68-.67-1.11-.93-.12,0-.24-.01-.36-.03,0-.05.01-.11.01-.17-.63-.33-1.33-.57-2.11-.75-.69-.15-1.41-.26-2.17-.32h-.01c-3.18-.26-6.81.24-9.24.55l-.97.12c-2.28.3-4.43.47-6.48.53-6.54.2-12.08-.8-17.4-3.05-.45-.2-.91-.4-1.37-.64-.01,0-.02,0-.02-.01-5.26-2.66-10.14-7.72-8.25-14.31.62-2.16,1.77-3.8,3.28-4.75t.02-.01c.69-.44,1.45-.73,2.28-.86.35-.05.7-.08,1.05-.08,2.62.02,5.25,1.59,7.06,4.28.44.66.85,1.33,1.25,2.02.84,1.4,1.62,2.72,2.7,3.72.2.18.38.34.6.5h.01c2.34,1.81,5.63,2.28,9.33,2.66l3.52.36c4.21.43,7.81.91,11.14,2.19,2.35.88,4.56,2.18,6.75,4.12.93.82,1.86,1.77,2.79,2.85.17.22.29.45.34.71.11.52-.06,1.09-.49,1.46ZM246.67,126.57c-.87.55-1.75,1.11-2.6,1.67-.26.17-.55.26-.84.26-.49,0-.97-.23-1.26-.65-.05-.06-.09-.13-.12-.21h0c-.32-.67-.13-1.47.45-1.92.77-.59,1.12-1.38,1.13-2.2h0c.03-.75-.21-1.49-.63-2.12-.79-1.19-2.02-2.11-3.34-3.08-.55-.4-1.11-.81-1.64-1.25-1.6-1.31-4.21-4.03-3.62-7.47.16-.97.57-1.85,1.21-2.64.09-.11.2-.23.3-.34.15-.16.32-.32.49-.47,1.56-1.35,3.8-2.04,6.02-1.82,1.51.16,2.89.99,4.22,1.83.08.05.15.1.24.15,1,.63,2.12,1.33,2.73,1.33h.02c.77-.02,1.42-.6,2.3-1.57.12-.12.24-.25.35-.38.62-.7,1.25-1.42,2.03-1.95,3.3-2.25,7.14-2.93,10.26-1.81,1.82.65,3.29,1.93,4.21,3.48.21.33.38.67.52,1.02.65,1.56.78,3.29.22,4.87-1.03,2.88-3.86,4.48-5.74,5.53-.65.37-1.3.74-1.96,1.1h-.01c-.9.51-1.8,1.03-2.71,1.53-2.9,1.61-5.85,3.26-8.76,4.98-1.13.67-2.26,1.36-3.37,2.04l-.09.06ZM318.65,125.31c-.74,2.36-2.55,4.4-5.51,6.19-.68.41-1.36.78-2.05,1.12-5.62,2.81-11.84,3.64-18.06,3.65-4.54.01-9.08-.41-13.39-.81-4.55-.42-9.28-.69-14.13-.34h-.01c-3.32.24-6.7.76-10.11,1.71-1.26.35-2.54.76-3.81,1.24-.66.24-1.31.5-1.97.78-.09.04-.19.07-.28.09-.1.02-.22.03-.32.03-.12,0-.25-.01-.36-.05-.33-.06-.63-.25-.84-.52-.11-.13-.2-.29-.25-.45-.17-.46-.11-.99.2-1.41.7-.99,1.53-1.86,2.45-2.65.32-.29.66-.54,1-.79,3.8-2.82,8.93-4.4,14.01-5.38,3.56-.7,7.09-1.1,10.08-1.45l1.73-.21c1.99-.24,4.1-.34,6.8-.32,1.01.01,2.01.03,3.01.05,6.88.15,13.38.29,19.87-4.69.94-.73,2.5-1.66,4.19-2.34,2.34-.92,4.96-1.38,6.72-.15,1.71,1.19,2.06,3.45,1.06,6.7Z"/>
    <path class="cls-1" d="M232.18,132.1c-3.15-.12-6.41.31-8.87.63l-.83.11h-.01l-.1.02c-8.95,1.14-15.82.43-22.28-2.3-1.65-.7-9.81-4.54-7.88-11.28.58-1.99,1.67-3.21,3.1-3.44.17-.02.34-.04.51-.04,1.59,0,3.34,1.11,4.57,2.93.41.61.78,1.24,1.16,1.87.9,1.52,1.84,3.1,3.23,4.4,2.13,1.99,4.87,2.92,7.51,3.41h.01c1.49.29,2.94.44,4.22.58l3.52.35c4.84.49,8.64.99,12.14,2.77Z"/>
    <path class="cls-1" d="M227.82,120.37c-.33-.07-.66-.13-.98-.22h-.01c-3.44-.76-6.61-1.83-7.93-3.84-.11-.17-.22-.35-.3-.53-.45-1.01-.5-2.23-.14-3.7.21-.89.88-1.74,1.76-2.2.27-.15.73-.35,1.25-.35.22,0,.45.04.68.12.77.29,1.32.98,1.71,1.7v.07s0,.01.01.01c.3.54.5,1.02.64,1.45.16.53.3,1.07.43,1.6.16.66.33,1.33.54,2.01,0,.01.01.02.01.03.25.74.51,1.38.84,1.95.4.7.9,1.32,1.48,1.88Z"/>
    <path class="cls-1" d="M315.71,124.39c-.5,1.61-1.87,3.08-4.17,4.48-9.16,5.57-20.98,4.5-31.42,3.54h-.04c-.05-.01-.1-.01-.15-.02-3.18-.3-6.45-.52-9.8-.52-4.15,0-8.42.34-12.77,1.29,5.66-2.37,12.88-3.21,18.29-3.83l1.74-.21c1.87-.23,3.85-.32,6.42-.3,1,.01,1.98.03,2.96.05,6.83.14,13.87.31,20.93-4.67,0,0,.01,0,.01-.01h.01c.3-.21.58-.42.87-.65,2.38-1.84,6.25-3.12,7.26-2.41.34.24.51,1.23-.12,3.26Z"/>
    <path class="cls-1" d="M358.08,163.58c-.24.5-.5.99-.81,1.44-.32.47-.71.92-1.17,1.35.55-.97,1.2-1.9,1.98-2.78Z"/>
    <path class="cls-1" d="M380.97,183.76c-.5,2.6-1.69,6.2-4.53,8.54-1.78,1.48-4.32,2.21-6.49,1.86-1.14-.17-2.71-.74-3.76-2.41-1.21-1.92-.94-5.11-.63-7.34.12-.89.21-1.89.29-2.93.21-2.47.44-5.37,1.36-7.51.4-.93.92-1.71,1.63-2.26.08-.07.16-.13.26-.2.93-.63,2.16-.89,3.45-.89,2.47,0,5.16,1,6.42,2.43,2.13,2.42,2.85,6.33,2,10.7Z"/>
  </g>
</svg>