<?xml version="1.0" encoding="UTF-8"?>
<svg id="Layer_1" data-name="Layer 1" xmlns="http://www.w3.org/2000/svg" viewBox="0 0 498.39 408.09">
  <defs>
    <style>
      .cls-1 {
        fill: #101010;
      }
    </style>
  </defs>
  <path class="cls-1" d="M253.6,95.64c-51.51,0-91.87,12.75-91.87,29.01s40.36,29.01,91.87,29.01,91.86-12.74,91.86-29.01-40.35-29.01-91.86-29.01ZM253.6,150.66c-53.16,0-88.87-13.45-88.87-26.01s35.71-26.01,88.87-26.01,88.86,13.45,88.86,26.01-35.7,26.01-88.86,26.01Z"/>
  <path class="cls-1" d="M315.51,120.84c-2.94-2.06-8.43.74-10.63,2.42-6.31,4.86-12.63,4.72-19.32,4.58-.98-.02-1.97-.04-2.96-.05-2.62-.02-4.67.07-6.62.3l-1.71.21c-8.53.99-21.41,2.48-26.79,10-.39.55-.37,1.29.05,1.81.3.37.73.56,1.17.56.2,0,.4-.04.59-.12,10.2-4.34,20.08-4.16,29.24-3.31,10.69.99,22.8,2.11,32.63-3.85,2.89-1.75,4.65-3.72,5.38-6.03.98-3.16.64-5.35-1.03-6.52ZM313.67,126.46c-.5,1.58-1.83,3.01-4.07,4.36-8.97,5.45-20.56,4.38-30.79,3.43-3.09-.29-6.26-.5-9.51-.5-4.04,0-8.2.33-12.46,1.26,5.51-2.31,12.53-3.12,17.78-3.73l1.72-.21c1.82-.21,3.74-.3,6.24-.28.98.01,1.95.03,2.92.05,6.91.15,14.06.3,21.2-5.2,2.38-1.81,6.09-3.04,7.09-2.34.33.23.5,1.2-.12,3.16Z"/>
  <path class="cls-1" d="M257.18,126.15c-.73.39-1.01,1.3-.62,2.03.27.51.79.79,1.32.79.24,0,.48-.05.71-.17,6.93-3.7,13.65-4.12,20.77-4.57,3.69-.23,7.52-.46,11.51-1.17,2.53-.44,5.38-1.17,7.33-3.22,1.24-1.3,1.91-3.23,1.75-5.03-.14-1.5-.83-2.77-1.95-3.59-2.1-1.5-4.82-.95-6.67.06-.99.54-1.83,1.21-2.65,1.86-.4.31-.79.62-1.2.91l-.15.11c-.13.08-.26.17-.43.28-2.89,1.83-6.46,2.06-10.25,2.32-.87.05-1.74.11-2.6.19-5.47.49-8.56,3.01-11.55,5.44-1.6,1.31-3.25,2.65-5.32,3.76ZM274.32,119.94c.83-.08,1.68-.13,2.53-.19,3.99-.27,8.12-.54,11.62-2.76.18-.11.37-.23.55-.35l.16-.11s.02-.02.04-.03c.45-.32.88-.66,1.31-1,.76-.6,1.48-1.17,2.24-1.59.62-.34,1.44-.62,2.2-.62.46,0,.91.11,1.27.37.52.38.68.98.72,1.42.08.95-.28,2.01-.94,2.69-1.34,1.42-3.52,1.96-5.67,2.34-3.83.67-7.57.91-11.18,1.13-4.07.25-8.02.5-11.99,1.33,1.95-1.35,4.07-2.36,7.14-2.63Z"/>
  <path class="cls-1" d="M220.82,128.29h0l-1.21-.12c-.72-.07-1.46-.14-2.22-.22-3.94-.41-7.38-.92-9.69-3.08-1.03-.96-1.79-2.24-2.6-3.59-.39-.66-.8-1.34-1.24-2-2.01-2.98-5.04-4.55-7.9-4.09-2.57.4-4.56,2.4-5.44,5.48-1.99,6.97,3.81,12.2,9.39,14.56,6.8,2.89,13.97,3.65,23.26,2.46l.9-.12c4.15-.55,11.87-1.59,14.62,1.6.29.35.71.52,1.13.52.35,0,.7-.12.98-.36.63-.54.7-1.49.16-2.12-6.04-7-11.89-8.08-20.13-8.92ZM223.67,134.6l-.9.12c-8.84,1.13-15.33.46-21.7-2.25-1.61-.68-9.55-4.41-7.67-10.97.55-1.94,1.62-3.13,3.02-3.35.16-.03.33-.04.5-.04,1.54,0,3.24,1.07,4.44,2.86.4.58.77,1.2,1.16,1.85.87,1.47,1.78,2.99,3.12,4.24,3.23,3.02,7.97,3.52,11.42,3.87.78.09,1.52.16,2.25.23l1.2.12c4.71.48,8.4.96,11.8,2.69-3.07-.12-6.24.31-8.64.63Z"/>
  <ellipse class="cls-1" cx="267.82" cy="195.43" rx="4.1" ry="9.22"/>
  <path class="cls-1" d="M232.78,186.21c-2.26,0-4.1,4.13-4.1,9.22s1.84,9.22,4.1,9.22,4.1-4.13,4.1-9.22-1.83-9.22-4.1-9.22Z"/>
  <path class="cls-1" d="M394.61,157.25c-5.81-12.32-20.34-19.23-33.72-16.35-.63-9.79-3.95-18.19-10.14-25.62-11.75-14.1-34.72-19.94-47.37-22.16-15.04-2.64-30.9-3.93-48.5-3.93s-33.37,1.28-48.36,3.91c-14.11,2.46-24.98,5.73-34.21,10.28-22.74,11.21-22.7,27.36-22.66,42.98,0,1.49,0,3.01-.02,4.54-.33-.41-.66-.83-1-1.26-1.05-1.35-2.14-2.79-3.24-4.25-6.47-8.61-13.16-17.5-20.24-16.33-1.75.3-3.6,1.23-4.95,2.48-.74.7-1.35,1.52-1.85,2.43-.05-.03-.11-.07-.16-.11-1.06-.66-6.6-3.85-11.86-1.53-4.31,1.91-5.96,6.36-6.25,7.24-4.05,12.35,20.79,31.76,35.95,42.24,5.07,3.51,10.47,6.87,16.06,10,4.25,24.28,14.02,42.28,29.85,54.98,7.89,6.34,17.02,11.4,27.14,15.1-1.33,8.98-.79,20.48-.38,28.99.06,1.3.12,2.51.16,3.63-2.42-1.67-6.27-3.48-11.17-3.01-4.81.47-9.4,2.87-12,6.28-2.15,2.82-2.95,6.25-2.3,9.92,1.8,10.29,13.14,11.31,21.64,11.31,1.13,0,2.21-.02,3.2-.04.83-.01,1.62-.02,2.36-.03,4.29-.01,8.6-.32,12.83-.91,2.57-.36,4.57-2.48,4.75-5.06.55-8.08,1.18-23.42,1.85-45.62,7.02,1.15,14.37,1.74,21.82,1.74,5.5,0,11.06-.34,16.57-.97.44,8.11,1.86,22.74,3.01,34.65.38,3.92.73,7.48.99,10.32.23,2.55,2.18,4.58,4.74,4.94,4.24.59,8.57.9,12.88.91.73.01,1.52.02,2.35.03,1,.02,2.08.04,3.2.04,8.5,0,19.85-1.02,21.65-11.31.64-3.67-.16-7.1-2.31-9.92-2.59-3.41-7.19-5.81-11.99-6.28-4.92-.47-8.77,1.35-11.19,3.02.03-.85.07-1.75.11-2.69.32-8.17.75-19.2-.35-28.31,1.75-.51,3.5-1.05,5.24-1.63.33,2.35,1.17,4.17,2.56,5.49,1.27,1.23,3.12,2.17,4.94,2.51.56.1,1.13.16,1.71.16.44,0,.89-.04,1.34-.11,0,.06,0,.12,0,.18.09,1.24.82,7.58,5.84,10.44,1.83,1.04,3.75,1.35,5.39,1.35,2.04,0,3.66-.48,4.14-.64,8.09-2.7,12.34-17.02,12.64-42.56,4.35-4.64,7.85-9.98,10.74-14.85,4.17,4.96,10.36,6.97,16.5,6.97,3.13,0,6.24-.51,9.06-1.43,9.82-3.18,17.84-12.05,21.99-24.34,2.97-8.75,9-30.92,1.01-47.81ZM121.39,142.29c1.44,3.17,1.07,3.86,1.03,3.93-.02.02-.11.04-.17.05-.01,0-.74-.16-1.63-2.64-.38-1.05-.67-2.48-.66-4,.71,1.04,1.14,2.01,1.43,2.66ZM347.55,215.16c-.56,1.02-1.13,2.04-1.71,3.06-3.38-5.76-5.6-12.88-2.78-17.64,1.36-2.29,3.34-3.22,5.08-3.22.49,0,.95.08,1.38.21,1.72.53,3.49,2.31,3.26,5.7-.23,3.36-2.08,6.51-3.88,9.56-.42.71-.84,1.43-1.24,2.13l-.11.2ZM390.76,204.1c-3.79,11.22-11.29,19.61-20.07,22.45-7.72,2.5-17.79,1.74-23.02-5.49.85-1.48,1.68-2.97,2.5-4.44l.11-.2c.39-.68.79-1.37,1.2-2.07,1.98-3.35,4.02-6.82,4.29-10.87.29-4.23-1.82-7.68-5.36-8.78-3.1-.96-7.36.01-9.93,4.35-4.55,7.68,1.07,18.08,3.66,22.14-2.44,4.18-5.33,8.77-8.82,12.97-.03-3.35-.11-5.91-.15-6.94-.49-14.44-2.58-29.12-6.19-43.63-.2-.8-1.02-1.29-1.82-1.09-.8.2-1.29,1.01-1.09,1.82,3.56,14.3,5.62,28.77,6.1,43,.05,1.39.2,5.62.15,10.79-.22,23.45-4.08,38.14-10.6,40.31-.41.14-4.03,1.27-7.09-.47-3.79-2.15-4.3-7.46-4.34-8.08-.03-.27-.04-.53-.04-.79,2.31-1.04,4.48-2.87,5.94-5.06,1.74-2.61,2.13-4.68,1.19-6.14-.5-.81-1.35-1.37-2.27-1.49-2.78-.39-4.74,3.17-5.61,4.74-.61,1.12-1.69,3.09-2.08,5.75-.9.2-1.78.22-2.63.06-1.49-.28-2.74-1.07-3.41-1.72-1.16-1.11-1.75-2.87-1.81-5.39-.12-4.85,1.8-11.33,3.66-17.6.52-1.77,1.03-3.5,1.49-5.17,3.32-12.04,4.9-25,4.69-38.5,0-.83-.68-1.47-1.52-1.48-.83.02-1.49.7-1.48,1.53.21,13.21-1.34,25.88-4.58,37.66-.46,1.64-.96,3.36-1.48,5.11-1.79,6.05-3.61,12.27-3.75,17.39-2.36.81-4.76,1.56-7.15,2.23-.02,0-.03.01-.05.02-.05.01-.1.03-.14.05-.05.02-.09.04-.13.07-.05.02-.09.05-.13.08-.04.02-.08.05-.11.08-.04.03-.07.07-.11.1-.03.04-.06.07-.09.11-.03.04-.06.08-.09.12-.02.04-.05.07-.07.12-.02.04-.04.09-.06.13s-.04.09-.05.13c-.01.05-.02.1-.03.14-.01.05-.02.1-.03.15v.14c0,.05,0,.11.01.16v.05c1.27,9.07.81,20.62.48,29.06-.09,2.32-.17,4.39-.21,6.09-.01.63.36,1.19.94,1.42.58.24,1.24.09,1.66-.36.48-.52,4.87-5.01,11.4-4.37,4,.38,7.79,2.34,9.9,5.1,1.65,2.18,2.24,4.73,1.74,7.59-1.48,8.43-11.18,8.97-21.85,8.79-.84-.01-1.65-.02-2.39-.03-4.17-.01-8.37-.31-12.48-.88-1.17-.17-2.06-1.09-2.16-2.24-.27-2.85-.61-6.42-.99-10.34-1.23-12.7-2.77-28.52-3.08-36.09,0-.02-.01-.04-.01-.06v-.06s0-.06-.02-.09l-.03-.15c-.02-.05-.03-.09-.05-.13-.02-.05-.04-.1-.07-.15-.02-.04-.03-.07-.05-.1-.04-.05-.08-.11-.12-.16-.01-.01-.03-.03-.04-.05-.06-.06-.12-.11-.18-.16h0c-.22-.18-.49-.29-.77-.32h-.09s-.08-.01-.12-.01c-.02.01-.04.01-.06.01-.02.01-.04,0-.07,0-13.77,1.75-27.85,1.45-40.73-.84-.1-.02-.2-.04-.31-.04h-.06s-.03.01-.04.01c-.08,0-.16.01-.24.03-.04.01-.08.02-.12.03-.05.02-.1.03-.14.05-.06.03-.12.06-.17.09-.03.01-.05.03-.08.04-.06.04-.12.09-.17.14-.02,0-.03.02-.05.04-.05.05-.09.1-.14.16-.01.02-.03.04-.05.06-.03.05-.06.1-.09.16-.02.03-.04.07-.05.1-.02.05-.04.1-.05.15-.02.04-.03.09-.04.14,0,.01,0,.03,0,.04-.01.04-.01.07-.01.11,0,.04-.02.07-.02.11-.69,23.08-1.33,38.96-1.89,47.22-.09,1.19-.98,2.13-2.17,2.3-4.1.57-8.28.87-12.43.88-.75.01-1.55.02-2.4.03-10.66.19-20.36-.36-21.84-8.78-.5-2.87.08-5.42,1.74-7.6,2.1-2.76,5.9-4.72,9.9-5.1,6.52-.64,10.92,3.85,11.4,4.37.42.45,1.08.6,1.66.36.57-.23.94-.79.93-1.42-.03-1.95-.15-4.32-.28-7.06-.41-8.76-.98-20.76.54-29.57v-.03c0-.05,0-.11.02-.17v-.13c0-.05-.01-.1-.02-.15-.01-.05-.01-.09-.02-.14-.01-.04-.03-.09-.05-.13,0-.05-.03-.09-.05-.14-.02-.04-.05-.08-.07-.12-.02-.05-.05-.09-.07-.12-.03-.05-.07-.08-.1-.12-.03-.03-.06-.07-.09-.1-.04-.03-.08-.06-.12-.09-.04-.03-.07-.06-.12-.09-.03-.02-.08-.04-.12-.06-.04-.03-.09-.05-.15-.07,0,0-.01-.01-.02-.01-10.27-3.62-19.5-8.68-27.43-15.05-14.73-11.81-24-28.45-28.34-50.78,6.24,3.34,12.7,6.43,19.28,9.17.19.08.38.11.57.11.59,0,1.15-.34,1.39-.92.32-.77-.05-1.64-.81-1.96-7.4-3.08-14.67-6.59-21.61-10.44-.05-.03-.09-.06-.14-.09-5.71-3.18-11.24-6.61-16.42-10.2-24.27-16.77-37.28-31.29-34.81-38.84.13-.4,1.39-4,4.61-5.42,3.88-1.72,8.22.8,9.06,1.33.23.14.45.29.66.44-.53,2.48-.35,5.32.53,7.79,1.06,2.94,2.49,4.49,4.25,4.62.08,0,.15,0,.22,0,.87,0,1.72-.35,2.31-.96,1.94-1.99.27-5.68-.45-7.26-.48-1.08-1.43-3.2-3.4-5.17.38-.83.89-1.55,1.53-2.14,1.1-1.03,2.48-1.56,3.4-1.72,5.27-.88,11.69,7.65,17.35,15.17,1.11,1.48,2.2,2.93,3.27,4.3,1.27,1.62,2.47,3.08,3.67,4.46,6.97,8.12,15.2,15.61,24.46,22.25.26.19.57.28.87.28.47,0,.93-.21,1.22-.62.48-.67.33-1.61-.34-2.09-8.9-6.39-16.82-13.58-23.57-21.36l.03-1.75c.05-2.12.04-4.25.04-6.31-.04-16.04-.08-29.9,20.99-40.28,8.97-4.42,19.58-7.6,33.4-10.02,14.81-2.59,30.46-3.86,47.84-3.86s33.12,1.27,47.98,3.88c12.25,2.15,34.45,7.76,45.58,21.13,5.98,7.18,9.01,14.99,9.48,24.51-7.21,2.42-12.64,7.75-15.34,15.12-1.18,3.19-1.48,5.95-.9,8.46.76,3.29,3.23,5.91,6.16,6.52.48.1.95.15,1.42.15,3.06,0,5.82-2,7.35-4.24,1.74-2.54,2.38-5.51,2.93-8.58,1.01-5.71,1.49-10.69,1.45-15.19,12.02-2.84,25.69,3.53,30.91,14.58,7.52,15.9,1.71,37.17-1.14,45.57ZM310.89,265.25c.39-1.13.89-2.05,1.27-2.72,1.68-3.05,2.46-3.17,2.54-3.17.03,0,.1.05.14.12.01,0,.32.68-1.14,2.87-.62.93-1.59,2.01-2.81,2.9ZM358,144.87c-.04,4.08-.5,8.6-1.41,13.74-.49,2.74-1.05,5.36-2.46,7.42-1.16,1.7-3.43,3.32-5.68,2.85-1.77-.38-3.36-2.13-3.84-4.26-.45-1.92-.19-4.13.78-6.75,2.27-6.19,6.71-10.75,12.61-13Z"/>
  <path class="cls-1" d="M261.07,210.54c-.82-.04-1.54.59-1.59,1.41-.28,4.86-4.29,8.67-9.17,8.61-4.78-.03-8.76-3.82-9.05-8.61-.05-.83-.76-1.45-1.59-1.41-.83.05-1.46.76-1.41,1.59.39,6.36,5.68,11.38,12.03,11.43h.09c6.42,0,11.72-5.01,12.1-11.43.05-.83-.58-1.54-1.41-1.59Z"/>
  <path class="cls-1" d="M262.9,119.13c1.83-1.04,4.59-2.61,5.59-5.39,1.24-3.49-1.01-7.76-4.82-9.13-3.05-1.09-6.78-.43-9.99,1.77-.76.52-1.39,1.23-1.99,1.91-1.04,1.17-1.73,1.88-2.57,1.89-.59.03-1.71-.68-2.68-1.3-1.37-.87-2.78-1.76-4.34-1.93-2.53-.27-5.14.74-6.64,2.56h0c-.61.76-1.02,1.64-1.18,2.57-.41,2.49.85,5.07,3.54,7.27.52.43,1.06.83,1.6,1.23,1.28.94,2.48,1.83,3.25,2.99.85,1.27.95,3.13-.49,4.2-.65.49-.79,1.41-.32,2.07.29.41.75.63,1.22.63.29,0,.58-.08.83-.25,4.61-3.06,9.58-5.83,14.38-8.51,1.54-.86,3.08-1.71,4.61-2.58ZM246.28,125.16c-.07-1.1-.43-2.22-1.11-3.24-1.06-1.61-2.54-2.7-3.97-3.76-.5-.37-1-.74-1.48-1.13-.85-.69-2.8-2.52-2.48-4.45.07-.42.26-.81.54-1.17.85-1.03,2.5-1.64,4.01-1.47.85.09,1.97.79,3.04,1.47,1.4.89,2.83,1.81,4.35,1.77,2.21-.04,3.62-1.63,4.75-2.9.51-.57.99-1.11,1.45-1.43,2.41-1.65,5.13-2.18,7.28-1.42,2,.73,3.75,3.2,3,5.3-.57,1.6-2.33,2.71-4.24,3.79-1.52.86-3.05,1.72-4.59,2.57-3.49,1.95-7.07,3.94-10.55,6.07Z"/>
  <path class="cls-1" d="M230.22,126.02c2.88.54,5.6,1.05,7.11,1.92l.2.12c.25.16.53.23.8.23.5,0,.99-.24,1.27-.7.44-.7.23-1.62-.47-2.07l-.24-.15h-.01c-1.09-.71-2.38-1.33-3.63-1.92-2.44-1.17-4.97-2.37-6-4.21-.22-.37-.4-.8-.59-1.38-.18-.56-.33-1.15-.48-1.77-.14-.57-.28-1.14-.45-1.7-.81-2.63-2.24-4.39-4.14-5.08-1.38-.51-2.92-.37-4.34.38-1.6.86-2.8,2.39-3.21,4.1-.59,2.5-.31,4.67.84,6.44,2.44,3.76,8.23,4.84,13.34,5.79ZM218.96,114.48c.21-.87.86-1.69,1.71-2.14.27-.14.72-.33,1.23-.33.21,0,.43.03.66.11,1.31.48,2,2.18,2.3,3.15.15.51.28,1.03.41,1.54.16.65.32,1.31.54,1.99.26.76.52,1.38.83,1.92.38.68.87,1.29,1.43,1.83-3.69-.76-7.28-1.8-8.68-3.95-.69-1.07-.83-2.42-.43-4.12Z"/>
  <path class="cls-1" d="M363.99,169.85c-3.69,2.45-4.13,7.7-4.48,11.92-.08.99-.16,1.92-.27,2.71-.4,2.87-.64,6.5,1.04,9.18.64,1.02,1.46,1.85,2.43,2.47.96.63,2.07,1.05,3.3,1.24.5.08,1.02.12,1.54.12,2.53,0,5.17-.93,7.17-2.59,3.43-2.84,4.85-7.03,5.44-10.06,1-5.17.04-9.89-2.63-12.96-2.73-3.13-9.52-4.69-13.54-2.03ZM377.22,184.27c-.5,2.54-1.67,6.05-4.42,8.32-1.73,1.44-4.22,2.15-6.32,1.82-1.1-.18-2.63-.73-3.66-2.35-1.18-1.87-.91-4.99-.61-7.16.12-.88.2-1.85.29-2.88.3-3.57.67-8.02,3.15-9.67,2.66-1.76,7.76-.63,9.62,1.51,2.06,2.36,2.77,6.16,1.95,10.41Z"/>
</svg>