<?xml version="1.0" encoding="UTF-8"?>
<svg id="Layer_1" data-name="Layer 1" xmlns="http://www.w3.org/2000/svg" viewBox="0 0 454.37 425.85">
  <defs>
    <style>
      .cls-1 {
        fill: #161616;
      }
    </style>
  </defs>
  <path class="cls-1" d="M351.58,190.19c-.43-.55-.9-1.1-1.38-1.66-1.01-1.15-2.08-2.23-3.21-3.27,0-.1,0-.19-.01-.29-1.1-7.6-4.93-19.18-12.41-28.87-12.36-16.01-30.77-23.72-44.04-27.37-14.57-4.01-30.1-4.2-44.93-.55-10.67,2.62-22.41,8.81-26.16,18.7-.05,0-.1.01-.16.03l-2.73.77c-12.36,3.5-24.04,6.8-34.92,11.41-5.75,2.44-12.34.42-15.67-4.8-4.73-7.41-6.56-17.49-6.68-23.86-.11-5.64.84-9.92,3.28-14.76,3.52-6.99,2.98-12.33-1.53-15.04-1.68-1-3.66-1.17-5.35-.57-.02-.57-.13-1.11-.31-1.6-.91-2.44-3.81-4.43-8.26-3.35-2.91.71-7.4,2.76-10.74,5.35-.3-.44-.65-.96-.99-1.48-2.46-3.75-5.83-8.89-9.84-9.38-1.52-.18-2.98.33-4.23,1.49-6.81,6.32,2.57,21.99,6.58,28.68l.5.84c7.2,12.08,12.49,24.69,15.72,37.51.71,2.79,4.35,13.76,9.26,18.21-2.9,2.5-5.72,5.24-8.41,8.15-1.35-1.31-2.69-1.53-3.6-1.46-1.08.08-2,.58-2.73,1.15-.02.01-.05.02-.07.03-.2.1-.37.25-.51.43l-.3.34c-.18.19-.34.37-.47.53l-.04.04s-.05.06-.07.09c-.03.04-.06.08-.09.12-18.92,22.14-25.21,52.93-16.49,80.52-3.23,6.9-4.34,17.46-2.62,24.82-2.82,1.98-4.72,5.2-5.68,9.61-4.39,1.14-8.23,3.7-10.4,7-1.94,2.96-2.57,6.46-1.81,10.13,1.21,5.81,5.46,9.4,12.63,10.69.19,1.33.38,2.56.57,3.65.44,2.55,2.55,4.41,5.13,4.52,6.29.27,12.69-.05,18.88-.36,2.93-.15,5.96-.3,8.92-.38,18.69-.54,33.8-.28,47.56.82,7.21.58,14.76,1.18,22.33,1.18,13.23,0,26.47-1.85,37.89-8.91,3.36-2.08,7.25-5.45,8.39-10.25,3.72,5.82,9.1,10.9,15.68,14.29,5.57,2.87,11.9,4.4,18.08,4.4.94,0,1.87-.03,2.79-.11,5.94-.45,7.55-2.88,7.84-4.83.05-.33.06-.67.04-1.01,1.91.02,3.21-.04,3.25-.05,4.34-.21,8.63-3.21,9.78-6.82.54-1.7.85-5.01-3.11-8.11-3.01-2.35-7.08-2.55-10.05-2.7-9.74-.48-21.54-3.61-26.37-10.89,3.97-4.31,7.3-8.75,9.07-12.07,2.27,3.86,5.13,7.31,8.66,10.15,3.99,3.21,8.39,4.9,12.48,4.9,1.7,0,3.35-.29,4.88-.89,8.25-3.21,11.05-13.15,13.02-22.21,2.52-11.62,5.49-23.33,8.81-34.82.24-.07.47-.18.69-.32.01,0,.02,0,.03-.01,2.99-1.66,5.77-3.67,8.27-5.97.55-.5,1.06-1.01,1.55-1.5,2.62-2.67,4.11-6.18,4.19-9.89l.27-12.13c.03-.29-.02-.6-.17-.88-.02-.03-.04-.06-.06-.09,0-.01-.02-.03-.03-.04-.37-.63-.88-1.17-1.49-1.63,1.17-.44,2.24-1.14,2.91-2.13.18-.26.26-.56.26-.85l1.02-12.09c.31-3.69-.8-7.34-3.12-10.27ZM103.01,317.19c-.6-2.91-.14-5.55,1.38-7.87,1.56-2.38,4.24-4.3,7.38-5.37-.44,4.09-.24,8.36-.06,11.9.04.85.08,1.65.11,2.4.08,2.34.25,4.68.51,7.11-5.42-1.17-8.4-3.8-9.31-8.17ZM135.21,106.06c.15-.3.36-.62.62-.95.23.55.33,1.08.26,1.67-.03.24-.15.47-.34.64-.25.22-.43.32-.54.37-.18-.27-.34-1.1,0-1.73ZM122.08,270.6c1.48,3.91,3.25,7.73,5.31,11.37,1.76,3.15,3.76,6.21,5.96,9.16-1.35-.95-2.88-1.68-4.6-2.08-1.9-.44-3.91-.45-5.96-.02-.73.15-1.42.35-2.07.59-1.13-5.67-.56-13.15,1.38-19.02ZM252.4,326.45c-17.11,10.59-39.05,8.84-58.4,7.3-13.87-1.11-29.08-1.37-47.88-.83-2.99.09-6.04.24-8.98.39-6.12.31-12.45.62-18.6.36-1.16-.05-2.11-.88-2.3-2.03-.24-1.36-.48-2.92-.7-4.62-.38-3.07-.61-5.97-.71-8.87-.03-.76-.07-1.58-.11-2.44-.2-4.07-.45-9.13.34-13.54,1.08-6,3.74-9.24,8.35-10.2,1.62-.34,3.2-.34,4.67,0,5.51,1.28,8.71,7.13,9.34,12.03.33,2.6-.08,5.29-1.2,7.78-.07.16-.15.34-.23.54-.39.96-.99,2.41-2.5,4.03-.71.76-.58,1.62-.26,2.13,1.31,2.07,9,.23,9.08.2,2.9-.91,5.5-2.76,7.31-5.2,3.32-4.48.77-7.31-1.69-10.06l-7.42-8.3c-4.06-4.55-7.59-9.47-10.48-14.63-2.61-4.64-4.77-9.55-6.4-14.61-8.62-26.61-2.69-56.39,15.46-77.87.1-.09.2-.19.28-.31.04-.06.09-.13.14-.2,0,0,.01-.02.02-.02.01-.02.03-.04.05-.06l.4-.46c.46-.46,1.06-.92,1.62-.96.17-.01.67-.04,1.41.75-2.37,3.41-2.79,7.84-1.01,11.68,11.14,23.94,25.74,45.83,44.65,66.95,24.23,27.05,46.88,41.93,63.91,51.87,1.73,1.01,3.67,1.52,5.62,1.52,1.09,0,2.17-.17,3.23-.49-1,3.73-4.21,6.46-7,8.18ZM140.38,303.61c-.27-2.05-.88-4.18-1.85-6.18l7.15,7.99c2.62,2.92,3.29,3.87,1.51,6.27-1.44,1.94-3.5,3.4-5.8,4.12-.64.2-2.58.47-4.15.59.79-1.2,1.22-2.24,1.52-2.95.07-.17.13-.32.19-.45,1.35-3,1.85-6.24,1.44-9.39ZM287.45,287.94c-.95,2.4-3.96,6.99-8.67,12.22-3.19-6.75-2.9-12.71.9-18.6.45-.7.25-1.62-.45-2.07-.7-.45-1.62-.25-2.07.45-4.75,7.37-4.76,15.07-.05,23.56,5.01,9.02,18.48,12.8,29.42,13.34,3.33.16,6.26.43,8.35,2.06,1.93,1.51,2.64,3.14,2.1,4.84-.77,2.42-4,4.58-7.07,4.74-1.15.06-2.56.07-4.06.03-1.55-2.8-4.74-5.42-7.88-6.67-3.24-1.28-5.91-.84-7.32,1.21-1.29,1.88-.97,3.34-.47,4.24,1.66,2.98,8.43,3.89,13.61,4.14.03.23.04.44,0,.64-.19,1.22-2.05,2.06-5.1,2.29-6.5.5-13.35-.91-19.27-3.97-14.92-7.69-23.19-24.67-18.43-37.85.28-.78-.12-1.64-.9-1.92-.78-.28-1.64.12-1.92.9-2.65,7.34-1.69,15.71,1.99,23.29-.46.19-.92.37-1.36.53-2.23.77-4.69.52-6.73-.67-17.88-10.44-39.38-24.69-63.18-51.28-18.71-20.89-33.15-42.54-44.16-66.21-1.49-3.2-.93-6.96,1.44-9.58,3.35-3.71,6.92-7.14,10.6-10.2.38-.32.58-.81.54-1.3-.05-.5-.34-.94-.78-1.17-4.16-2.23-8.41-13.3-9.48-17.54-3.31-13.09-8.71-25.98-16.05-38.31l-.51-.85c-3-5.02-12.14-20.28-7.11-24.94.8-.74,1.43-.76,1.83-.71,2.63.32,5.8,5.16,7.69,8.05.48.74.89,1.36,1.25,1.87-.7.75-1.22,1.47-1.59,2.19-.98,1.87-.57,4.4.88,5.53.46.36,2.14,1.39,4.31-.55.75-.65,1.22-1.56,1.33-2.55.19-1.64-.31-3.02-.98-4.19,2.93-2.3,7.07-4.25,9.73-4.9,2.66-.64,4.29.28,4.74,1.48.46,1.23-.17,3.02-2.59,4.26-.61.31-1.42.51-2.27.71-2.03.49-4.82,1.17-5.61,4.18-.62,2.38.25,4.62,2.32,5.99,2.35,1.56,5.58,1.53,7.67-.07,2.05-1.57,3.17-4.11,3-6.81l-.05-.62c-.13-1.6-.18-2.63.52-3.48.89-1.08,2.58-1.28,3.94-.47,3.8,2.29,2.31,7.31.39,11.12-2.65,5.24-3.72,10.08-3.6,16.17.13,6.76,2.09,17.47,7.15,25.41,4.12,6.46,12.27,8.96,19.37,5.95,10.7-4.54,22.29-7.82,34.56-11.29l1.15-.32c-.06.32-.11.63-.15.96-.71,5.71.76,10.74,4.25,14.56,3.35,3.65,8.39,5.87,13.75,6.1-.57,6.15.31,12.08,2.52,16.84,3.51,7.58,11.91,15.47,21.17,15.88,1.02.04,2.04-.02,3.04-.19-1.1,11.6.42,25.8,7.91,33.18,3.34,3.3,7.49,4.84,12.34,4.63-2.55,14.06-2.29,31.74,4.29,45.42-.08.1-.14.21-.19.34ZM302.04,328.29c-4.34-.35-8.48-1.13-9.23-2.48-.13-.23-.02-.59.32-1.07.33-.48.89-.64,1.49-.64.84,0,1.76.31,2.26.51,1.94.77,3.84,2.19,5.17,3.68ZM150.25,112.19c-1.09.83-2.89.81-4.19-.05-.69-.46-1.45-1.31-1.08-2.73.3-1.15,1.27-1.5,3.41-2.02.99-.24,2.01-.49,2.93-.96.21-.11.42-.22.62-.34.01.45.05.89.08,1.3l.05.58c.11,1.66-.59,3.27-1.83,4.22ZM325.5,282.18c-1.81,8.3-4.31,17.38-11.18,20.05-4.22,1.64-9.6.31-14.4-3.55-15.62-12.55-17.03-38.22-13.44-56.86.93-.17,1.87-.4,2.82-.69,7.5-2.25,13.42-9.54,14.39-17.72.53-4.56-1.42-6.29-2.63-6.92-2.33-1.2-5.64-.35-8.43,2.17-4.03,3.63-5.69,9.47-7.16,14.62l-.23.82c-.47,1.65-.9,3.35-1.27,5.05-4.32.37-7.97-.88-10.84-3.71-5.79-5.71-8.47-18.17-6.91-31.93,6.88-2.73,12.03-10.13,14.6-16.33,1.99-4.83.52-7.77-1.53-8.92-2.33-1.3-6.15-.61-8.95,3.23-3.23,4.44-5.71,11.6-6.86,19.76-1.08.27-2.18.38-3.28.34-8.06-.36-15.45-7.38-18.58-14.14-2.03-4.38-2.81-9.9-2.22-15.66,6.96-.65,12.81-4.58,15.8-10.69,2.65-5.4.99-9.68-1.68-11.37-2.51-1.59-6.57-1.29-9.98,2.97-3.38,4.24-5.77,9.95-6.79,16.18-4.67-.13-9.06-2.01-11.92-5.14-2.88-3.14-4.09-7.35-3.49-12.16,1.36-10.93,14.3-17.86,24.97-20.48,14.33-3.52,29.35-3.34,43.42.53,12.83,3.53,30.6,10.96,42.46,26.31,6.16,7.98,9.74,17.51,11.25,24.4-.28-.21-.55-.42-.83-.62-.01,0-.03-.01-.04-.02-1.1-.85-2.64-.67-3.66-.54-2.29.29-4.09,2.04-4.49,4.34l-2.23,12.84c-.37,2.15.14,4.4,1.39,6.17,1.13,1.59,2.38,3.02,3.7,4.24.54.49,1.12,1.08,1.73,1.7,1.42,1.44,2.98,3,4.63,4.12-2.16.88-4.29,2.6-6.2,4.16-.67.55-1.31,1.07-1.9,1.51-1.45,1.07-2.83,2.36-4.13,3.82-1.44,1.63-2.18,3.81-2.04,5.99l.85,13c.15,2.32,1.74,4.23,3.95,4.77-3.27,11.35-6.19,22.9-8.68,34.37ZM287.16,238.61c.29-1.24.61-2.48.95-3.69l.23-.82c1.36-4.76,2.89-10.16,6.28-13.21,1.49-1.35,3.01-1.93,4.1-1.93.37,0,.7.07.95.2.89.46,1.27,1.88,1.03,3.9-.83,7.03-5.88,13.28-12.27,15.2-.43.13-.85.25-1.27.35ZM266.7,199.96c1.16-6.96,3.32-12.96,6.05-16.72,1.29-1.77,2.89-2.61,4.09-2.61.37,0,.69.08.97.23,1.16.65,1.25,2.67.23,5.15-2.12,5.12-6.11,11.11-11.34,13.94ZM239.82,168.7c.99-5.43,3.15-10.51,6.06-14.15,1.42-1.78,3.05-2.75,4.48-2.75.55,0,1.08.14,1.55.44,1.57,1,2.43,3.77.59,7.51-2.42,4.95-7.08,8.2-12.68,8.94ZM334.74,231.16l.91,13.91c-.27-.05-.54-.11-.73-.16-.94-.22-1.64-1.07-1.71-2.07l-.85-13c-.09-1.39.38-2.77,1.3-3.81,1.16-1.31,2.39-2.45,3.67-3.39.62-.46,1.3-1.01,2.01-1.59,1.9-1.55,4.27-3.49,6.18-3.96.78-.19,2.23.13,3.19.83-1.78,1.74-3.69,3.35-5.72,4.8-1.74,1.24-3.57,2.37-5.45,3.37-1.84.98-2.94,2.97-2.8,5.07ZM348.98,230.23c-.06,2.94-1.25,5.72-3.34,7.85-.46.46-.94.93-1.44,1.4-1.74,1.6-3.63,3.05-5.63,4.33l-.84-12.85c-.06-.93.42-1.8,1.22-2.23,2-1.06,3.94-2.27,5.79-3.58,1.54-1.1,3.03-2.29,4.44-3.55l-.19,8.63ZM346.87,212.92c-1.85-.67-4-2.84-5.72-4.59-.65-.66-1.26-1.28-1.83-1.8-1.17-1.08-2.27-2.34-3.29-3.77-.8-1.13-1.12-2.56-.88-3.92l2.23-12.84c.17-.98.96-1.75,2-1.88.15-.02.4-.05.66-.08l-2.39,13.74c-.36,2.08.52,4.17,2.25,5.34,1.77,1.19,3.47,2.52,5.06,3.93,1.86,1.65,3.59,3.46,5.17,5.38-1.02.6-2.5.76-3.26.49ZM351.71,200.21l-.73,8.6c-1.27-1.41-2.62-2.75-4.04-4-1.69-1.5-3.5-2.91-5.37-4.18-.75-.51-1.13-1.43-.97-2.34h0s2.2-12.69,2.2-12.69c1.86,1.48,3.58,3.12,5.14,4.9.46.52.88,1.04,1.29,1.54,1.85,2.33,2.73,5.23,2.48,8.16Z"/>
  <path class="cls-1" d="M199.96,179.14c-4.24,2.72-6.7,6.44-5.49,8.33,1.21,1.88,5.62,1.21,9.86-1.51s6.7-6.44,5.49-8.33c-1.21-1.88-5.62-1.21-9.86,1.51Z"/>
  <path class="cls-1" d="M234.77,218.96c-4.11,2.49-9.44,1.35-12.14-2.61-2.66-3.91-1.82-9.26,1.91-12.18.65-.51.77-1.45.26-2.11-.51-.65-1.45-.77-2.11-.26-4.97,3.9-6.09,11.02-2.54,16.23,2.31,3.4,6.08,5.24,9.93,5.24,2.13,0,4.29-.57,6.25-1.75.71-.43.93-1.35.5-2.06s-1.35-.93-2.06-.5Z"/>
  <path class="cls-1" d="M204.56,215.84c-4.2,2.35-9.49,1.01-12.04-3.04-2.52-4-1.49-9.31,2.34-12.11.67-.49.82-1.43.33-2.1-.49-.67-1.43-.82-2.1-.33-5.11,3.72-6.47,10.8-3.11,16.13,2.27,3.6,6.16,5.6,10.16,5.6,2,0,4.02-.5,5.88-1.54.72-.4.98-1.32.58-2.04-.4-.72-1.32-.98-2.04-.58Z"/>
</svg>