<?xml version="1.0" encoding="UTF-8"?>
<svg id="Layer_1" data-name="Layer 1" xmlns="http://www.w3.org/2000/svg" viewBox="0 0 454.37 425.85">
  <defs>
    <style>
      .cls-1 {
        fill: #76b3d0;
      }

      .cls-2 {
        fill: #fcec60;
      }

      .cls-3 {
        fill: #f8f9e8;
      }

      .cls-4 {
        fill: #988ec5;
      }

      .cls-5 {
        fill: #161616;
      }
    </style>
  </defs>
  <g>
    <path class="cls-4" d="M350.43,190.31c2.07,2.62,3.07,5.9,2.8,9.22-.35,4.07-.69,8.15-1.04,12.22-1.56-2.01-3.61-4.31-6.22-6.63-1.81-1.6-3.58-2.95-5.22-4.05-1.25-.84-1.87-2.35-1.61-3.84l2.63-15.1c1.04.73,2.19,1.61,3.39,2.66,1.28,1.11,2.6,2.41,3.93,3.92.47.54.92,1.08,1.34,1.6Z"/>
    <path class="cls-4" d="M350.78,217.19c-.09,4.09-.18,8.18-.27,12.26-.08,3.33-1.43,6.5-3.77,8.87-.47.48-.97.97-1.5,1.45-2.86,2.64-5.68,4.49-7.98,5.76l-1.01-15.29c-.1-1.51.68-2.95,2.02-3.65,1.74-.93,3.65-2.08,5.62-3.48,2.84-2.03,5.12-4.1,6.89-5.93Z"/>
    <path class="cls-4" d="M352.19,211.75c-1.06,1.54-3.48,2.19-5.15,1.94-.24-.04-.45-.1-.66-.17-2.88-1.05-5.83-4.66-8.06-6.7-1.3-1.19-2.46-2.55-3.49-3.99-1.04-1.46-1.44-3.28-1.14-5.05l2.22-12.83c.28-1.62,1.57-2.9,3.2-3.1,0,0,.02,0,.03,0,.74-.09,2.01-.27,2.62.31l-2.63,15.1c-.26,1.48.37,3,1.61,3.84,1.64,1.11,3.41,2.45,5.22,4.05,2.61,2.32,4.66,4.63,6.22,6.63Z"/>
    <path class="cls-4" d="M346.88,214.78c1.5.24,3.17,1.09,3.9,2.41-1.77,1.83-4.05,3.91-6.89,5.93-1.97,1.4-3.88,2.55-5.62,3.48-1.33.7-2.12,2.14-2.02,3.65l1.01,15.29c-.35.27-.86.31-1.37.26-.46-.04-.92-.15-1.27-.24h-.03c-1.59-.39-2.74-1.79-2.85-3.43l-.85-13c-.12-1.79.48-3.56,1.67-4.89,1.18-1.33,2.48-2.56,3.9-3.61,2.42-1.8,5.75-5.07,8.72-5.8.48-.12,1.08-.13,1.7-.04Z"/>
    <path class="cls-2" d="M347.04,213.69l-.16,1.09c-.62-.09-1.22-.08-1.7.04-2.97.73-6.3,4-8.72,5.8-1.41,1.05-2.72,2.27-3.9,3.61-1.19,1.33-1.79,3.1-1.67,4.89l.85,13c.11,1.64,1.26,3.05,2.85,3.43h.03c.35.09.8.2,1.27.24l-.06.93c-3.34,11.54-6.3,23.21-8.85,34.96-1.83,8.39-4.48,18.16-12.1,21.13-5.31,2.07-11.37-.15-15.88-3.78-3.92-3.14-6.98-7.12-9.32-11.62-7.19-13.82-7.53-32.65-4.45-47.73,1.16-.16,2.38-.43,3.66-.81,6.95-2.09,12.43-8.86,13.33-16.46.8-6.84-4.55-7.09-8.57-3.46-3.92,3.53-5.5,9.66-6.95,14.73-.54,1.91-1.04,3.92-1.46,6-17.82,2.52-22.74-19.48-20.38-38.11,6.67-2.19,11.91-9.35,14.59-15.81,3.22-7.8-3.73-9.94-7.88-4.23-3.3,4.54-5.7,11.97-6.71,20.04-1.5.5-3.07.74-4.71.67-8.31-.37-16.33-7.37-19.87-15.01-2.39-5.16-3.04-11.53-2.2-17.71,6.32-.22,12.6-3.39,15.8-9.94,4.12-8.39-3.38-14.01-9.14-6.8-3.52,4.41-5.84,10.48-6.66,16.74-9.84.37-19.75-6.48-18.19-18.97.12-.97.32-1.91.6-2.81,3.2-10.67,16.36-16.7,25.5-18.94,14.48-3.56,29.77-3.42,44.18.54,16.07,4.42,32.46,12.87,43.26,26.84,6.81,8.83,10.94,20.06,12.11,28.17l-.36.42c-1.2-1.05-2.35-1.93-3.39-2.66-.61-.57-1.88-.4-2.62-.31,0,0-.02,0-.03,0-1.63.21-2.93,1.48-3.2,3.1l-2.22,12.83c-.31,1.77.1,3.59,1.14,5.05,1.03,1.44,2.19,2.81,3.49,3.99,2.22,2.05,5.18,5.66,8.06,6.7.21.07.43.13.66.17Z"/>
    <path class="cls-3" d="M278.44,301.95c5.02,9.04,19.05,12.12,28.19,12.57,3.21.16,6.66.4,9.2,2.38,6.72,5.25.24,11.95-5.81,12.25-.55.03-2.57.08-5.09-.02-1.99-4.67-10.43-9.78-13.01-6.05-3.23,4.69,6.55,5.82,13.01,6.05,1.2,2.8.06,5.45-6.08,5.91-6.87.52-13.97-.99-20.08-4.13-7.03-3.62-12.9-9.48-16.56-16.22l-.56.31c-.13.06-.27.12-.4.18-.64.29-1.29.54-1.93.76-2.65.91-5.56.61-7.98-.8-17.89-10.43-39.77-25.01-63.55-51.57-22.54-25.16-35.8-48.08-44.4-66.57-1.74-3.74-1.08-8.17,1.68-11.22,3.51-3.89,7.09-7.31,10.75-10.34-4.83-2.59-9.19-14.39-10.22-18.49-3.38-13.39-8.83-26.06-15.89-37.91-3.18-5.36-13.57-21.89-7.35-27.65,5.43-5.01,11.68,8.24,13.68,10.25v.29c-.93.86-1.68,1.75-2.15,2.65-1.03,1.97.26,5.5,2.88,3.16.46-.41.76-.98.83-1.59.2-1.7-.57-3.06-1.47-4.31,3.12-2.85,8.18-5.29,11.36-6.07,5.56-1.34,8.23,2.92,5.88,6.29-.58.83-1.47,1.62-2.7,2.24-2.4,1.23-6.29.79-7.11,3.94-1.14,4.37,4.6,6.66,7.62,4.35,1.68-1.29,2.55-3.39,2.41-5.51-.12-1.67-.41-3.35.55-4.82.08-.12.16-.23.26-.35,1.42-1.73,3.95-1.95,5.87-.8,4.91,2.96,2.97,9.1.96,13.08-2.55,5.05-3.56,9.6-3.44,15.46.15,7.09,2.23,17.28,6.92,24.63,3.73,5.85,11.14,8.09,17.52,5.38,11.58-4.9,24-8.31,37.47-12.12l.76.23c-.29.9-.48,1.84-.6,2.81-1.56,12.5,8.35,19.34,18.19,18.97-.83,6.18-.19,12.55,2.2,17.71,3.54,7.64,11.57,14.64,19.87,15.01,1.63.07,3.2-.17,4.71-.67-2.36,18.63,2.56,40.63,20.38,38.11-3.08,15.08-2.74,33.9,4.45,47.73l-.81.26c-1.26,3.18-5.25,8.8-10.42,14.27ZM204.35,185.16c4.24-2.72,6.69-6.45,5.49-8.34-1.21-1.88-5.62-1.21-9.86,1.51-4.24,2.71-6.69,6.44-5.49,8.33,1.21,1.88,5.62,1.21,9.86-1.5Z"/>
    <path class="cls-2" d="M293.64,218.96c4.02-3.63,9.37-3.38,8.57,3.46-.9,7.6-6.38,14.38-13.33,16.46-1.28.39-2.5.65-3.66.81.43-2.09.92-4.09,1.46-6,1.45-5.07,3.04-11.2,6.95-14.73Z"/>
    <path class="cls-2" d="M271.56,181.55c4.15-5.7,11.1-3.57,7.88,4.23-2.68,6.46-7.92,13.61-14.59,15.81,1.02-8.07,3.41-15.5,6.71-20.04Z"/>
    <path class="cls-1" d="M138.27,185.86h0s.02-.04.03-.05c.05-.06.1-.12.16-.2.02-.03.05-.06.07-.09.11-.11.21-.23.31-.34.02-.03.05-.06.08-.08,1.09-1.12,3.15-2.5,5.31-.09l.84.75c-2.76,3.06-3.42,7.48-1.68,11.22,8.6,18.49,21.86,41.41,44.4,66.57,23.78,26.56,45.66,41.14,63.55,51.57,2.42,1.41,5.33,1.71,7.98.8.64-.22,1.29-.47,1.93-.76-.03,5.19-3.81,9.13-8.02,11.75-17.53,10.85-39.74,9.08-59.31,7.51-15.87-1.27-31.82-1.29-47.73-.82-9.19.26-18.49,1.13-27.69.74-1.86-.08-3.4-1.43-3.72-3.27-.25-1.4-.48-2.98-.71-4.7-.33-2.67-.6-5.69-.72-9-.17-4.45-.74-10.79.25-16.3.77-4.28,2.48-8.07,6.06-10.11,1-.57,2.15-1.01,3.46-1.29,1.93-.41,3.71-.37,5.32,0,2.46.57,4.53,1.93,6.17,3.73,2.4,2.62,3.88,6.18,4.32,9.57.39,2.93-.11,5.9-1.32,8.58-.43.94-1,2.83-3.01,4.98-1.11,1.2,6.02.28,7.27-.12,2.6-.81,4.93-2.47,6.56-4.66,2.68-3.61.74-5.56-1.85-8.44-.02-.02-7.18-8.03-7.18-8.03-1.01-1.13-1.99-2.27-2.91-3.44-2.97-3.68-5.55-7.49-7.76-11.45-2.71-4.81-4.87-9.79-6.52-14.88-8.94-27.58-2.48-58.01,16.07-79.68Z"/>
    <path class="cls-2" d="M244.72,152.81c5.75-7.21,13.26-1.59,9.14,6.8-3.2,6.55-9.48,9.72-15.8,9.94.82-6.26,3.14-12.33,6.66-16.74Z"/>
    <path d="M209.84,176.82c1.21,1.89-1.25,5.62-5.49,8.34-4.24,2.71-8.65,3.38-9.86,1.5-1.21-1.89,1.25-5.62,5.49-8.33,4.24-2.72,8.65-3.39,9.86-1.51Z"/>
    <path class="cls-1" d="M146.56,303.34c2.59,2.89,4.53,4.83,1.85,8.44-1.62,2.19-3.95,3.85-6.56,4.66-1.25.4-8.37,1.32-7.27.12,2.01-2.16,2.58-4.04,3.01-4.98,1.21-2.68,1.7-5.66,1.32-8.58-.44-3.39-1.92-6.95-4.32-9.57l1.89-1.55c.92,1.17,1.9,2.31,2.91,3.44,0,0,7.16,8.01,7.18,8.03Z"/>
    <path class="cls-1" d="M136.48,291.87l-1.89,1.55c-1.64-1.8-3.71-3.15-6.17-3.73-1.61-.38-3.39-.42-5.32,0-1.32.28-2.46.71-3.46,1.29v-.28c-2.01-7.33-.83-18.35,2.56-25.15,1.64,5.09,3.81,10.08,6.52,14.88,2.21,3.95,4.8,7.77,7.76,11.45Z"/>
    <path class="cls-1" d="M113.33,317.39c.12,3.31.4,6.33.72,9-5.94-.84-11.16-3.29-12.5-9.7-1.8-8.65,5.17-14.19,12.02-15.6-.99,5.52-.42,11.85-.25,16.3Z"/>
  </g>
  <g>
    <path class="cls-5" d="M351.59,189.36c-.44-.54-.89-1.09-1.38-1.65-1.04-1.17-2.11-2.27-3.2-3.27,0-.09,0-.19-.01-.28-1.1-7.61-4.94-19.2-12.41-28.87-12.38-16.01-30.78-23.73-44.05-27.37-14.57-4.01-30.1-4.2-44.93-.55-10.31,2.53-22.33,8.76-26.12,18.7-.06,0-.13.02-.19.03l-2.52.71c-12.44,3.52-24.19,6.84-35.13,11.47-5.75,2.44-12.34.42-15.67-4.8-4.72-7.4-6.55-17.48-6.69-23.85-.11-5.64.84-9.92,3.28-14.76,3.52-6.99,2.98-12.33-1.53-15.04-1.68-1-3.65-1.17-5.33-.58-.04-.96-.35-1.89-.91-2.71-1.5-2.2-4.37-3.03-7.68-2.23-2.91.71-7.39,2.76-10.73,5.35-.3-.43-.64-.96-.98-1.47-2.46-3.75-5.83-8.9-9.85-9.39-1.51-.19-2.98.33-4.23,1.49-6.81,6.32,2.57,21.99,6.58,28.68l.5.84c7.2,12.08,12.49,24.69,15.72,37.51.71,2.8,4.35,13.76,9.26,18.21-2.9,2.5-5.71,5.24-8.42,8.15-.97-.94-2.03-1.46-3.18-1.48-1.37-.03-2.73.62-3.95,1.87-.02.02-.02.04-.04.06-.02.02-.05.03-.07.05l-.11.12c-.05.05-.1.11-.15.16-.03.03-.04.07-.07.11-.08.07-.15.14-.21.23-.02.03-.05.06-.07.09,0,.01-.01.02-.02.04,0,.01-.02.02-.03.03l-.02.03c-18.88,22.13-25.15,52.89-16.44,80.44-3.23,6.91-4.34,17.48-2.61,24.83-2.85,1.99-4.71,5.15-5.68,9.59-4.39,1.14-8.24,3.7-10.42,7.01-1.94,2.96-2.57,6.46-1.81,10.12,1.21,5.81,5.46,9.4,12.63,10.69.19,1.33.38,2.56.57,3.65.44,2.55,2.55,4.41,5.13,4.52,6.27.26,12.64-.05,18.8-.36,2.96-.15,6.02-.3,9.01-.38,18.64-.54,33.75-.28,47.56.82,7.21.57,14.76,1.18,22.33,1.18,13.23,0,26.48-1.85,37.9-8.91,3.35-2.08,7.23-5.45,8.38-10.24,3.87,6.02,9.35,11.03,15.68,14.29,5.58,2.87,11.91,4.4,18.09,4.4.93,0,1.87-.04,2.79-.11,3.69-.28,6.13-1.35,7.24-3.19.37-.62.7-1.51.63-2.67.38,0,.74,0,1.07,0,1.11,0,1.9-.02,2.19-.04,4.34-.21,8.63-3.21,9.78-6.83.54-1.7.85-5.01-3.11-8.1-3-2.35-7.07-2.56-10.05-2.7-9.74-.47-21.54-3.6-26.37-10.89,3.98-4.31,7.31-8.78,9.08-12.09,2.37,4.05,5.28,7.47,8.65,10.18,3.99,3.21,8.39,4.9,12.48,4.9,1.7,0,3.35-.29,4.88-.89,8.25-3.21,11.05-13.15,13.02-22.21,2.52-11.62,5.49-23.33,8.81-34.83.26-.07.49-.18.71-.32,0,0,.01,0,.02,0,2.99-1.65,5.77-3.66,8.26-5.97.56-.5,1.07-1.01,1.56-1.51,2.62-2.66,4.11-6.17,4.2-9.89l.27-12.16s.01-.08.01-.12c0-.3-.09-.58-.24-.81-.38-.67-.91-1.22-1.51-1.67,1.1-.41,2.12-1.08,2.81-2.02,0,0,0,0,0,0,0-.01.02-.02.03-.04.04-.05.06-.12.1-.18.04-.06.08-.12.1-.19.04-.09.05-.2.07-.3,0-.04.02-.07.03-.11v-.09s.02-.03.02-.04c0,0,0-.01,0-.02l1.02-12.07c.31-3.69-.8-7.34-3.13-10.29ZM334.75,230.35l.92,13.9c-.23-.04-.47-.09-.68-.14-.04-.01-.08-.02-.13-.03-.9-.25-1.56-1.09-1.62-2.05l-.85-13c-.09-1.38.38-2.77,1.3-3.8,1.15-1.3,2.38-2.44,3.67-3.4.61-.45,1.28-1,1.99-1.58,1.91-1.56,4.29-3.51,6.2-3.98.29-.07.7-.07,1.11-.01.78.12,1.52.44,2.08.85-1.77,1.73-3.69,3.35-5.71,4.79-1.73,1.23-3.56,2.37-5.44,3.37-1.85.97-2.95,2.96-2.82,5.07ZM341.17,207.52c-.65-.66-1.27-1.28-1.84-1.81-1.15-1.06-2.26-2.32-3.28-3.76-.8-1.12-1.12-2.56-.88-3.93l2.22-12.84c.17-.98.95-1.75,1.91-1.87.04,0,.09-.01.13-.02.15-.02.38-.05.62-.07l-2.39,13.74c-.36,2.08.52,4.17,2.25,5.34,1.73,1.17,3.44,2.49,5.06,3.93,1.87,1.66,3.59,3.47,5.17,5.38-.85.5-2.01.72-2.86.6-.16-.03-.3-.07-.4-.1-1.84-.67-3.9-2.76-5.72-4.59ZM349.25,191.24c1.84,2.34,2.73,5.24,2.48,8.17l-.73,8.6c-1.27-1.4-2.62-2.74-4.04-4.01-1.72-1.53-3.53-2.93-5.38-4.17-.75-.5-1.13-1.42-.97-2.33l2.21-12.69c.46.37.91.74,1.35,1.13,1.29,1.12,2.56,2.39,3.78,3.77.46.53.9,1.05,1.3,1.54ZM135.22,105.25c.16-.31.37-.63.63-.96.23.54.32,1.08.26,1.67-.03.24-.15.47-.34.64-.25.22-.43.33-.54.37-.18-.27-.34-1.1-.01-1.72ZM122.1,269.79c1.48,3.91,3.25,7.72,5.31,11.36,1.77,3.15,3.78,6.24,5.99,9.2-1.41-1.02-2.96-1.73-4.64-2.12-1.9-.44-3.91-.45-5.97-.02-.72.15-1.41.35-2.06.59-1.14-5.66-.56-13.14,1.37-19.02ZM103.02,316.38c-.6-2.91-.14-5.55,1.38-7.87,1.56-2.38,4.24-4.3,7.38-5.37-.44,4.09-.24,8.36-.06,11.9.04.85.08,1.65.11,2.4.08,2.34.25,4.68.51,7.11-5.42-1.17-8.4-3.8-9.31-8.17ZM252.43,325.65c-17.12,10.59-39.05,8.84-58.41,7.29-13.92-1.11-29.14-1.37-47.89-.82-3.02.08-6.09.24-9.07.38-6.09.3-12.39.61-18.52.36-1.16-.05-2.11-.88-2.3-2.03-.24-1.36-.48-2.92-.7-4.62-.38-3.07-.61-5.97-.71-8.87-.03-.76-.07-1.58-.11-2.44-.2-4.07-.45-9.13.34-13.54.81-4.52,2.56-7.49,5.33-9.08.88-.5,1.9-.88,3.02-1.12,1.62-.34,3.2-.34,4.67,0,2.03.47,3.85,1.58,5.4,3.28,2.07,2.26,3.5,5.45,3.94,8.75.34,2.59-.07,5.28-1.2,7.77-.07.16-.15.34-.23.55-.4.96-.99,2.41-2.51,4.03-.71.76-.58,1.63-.26,2.14,1.32,2.09,9,.22,9.07.2,2.9-.9,5.5-2.75,7.31-5.19,3.33-4.48.77-7.33-1.7-10.08l-.24-.27c-.17-.19-7.17-8.02-7.17-8.02-1.08-1.21-2.01-2.31-2.86-3.38-2.88-3.57-5.44-7.35-7.62-11.24-2.61-4.64-4.77-9.55-6.4-14.61-8.62-26.61-2.69-56.4,15.48-77.88.12-.11.23-.23.31-.37.05-.06.1-.13.14-.2,0,0,0,0,0,0,0,0,.01-.01.02-.02,0,0,0-.02.01-.02.09-.09.18-.19.27-.29l.08-.09s0,0,0,0c.01-.01.03-.02.04-.03.36-.37,1.08-.98,1.74-.97.41,0,.84.27,1.3.75-2.37,3.41-2.79,7.84-1,11.69,11.14,23.94,25.74,45.84,44.65,66.94,24.24,27.08,46.89,41.94,63.91,51.87,1.73,1.01,3.67,1.53,5.62,1.53,1.08,0,2.17-.17,3.22-.49-1,3.72-4.22,6.45-6.99,8.18ZM140.4,302.8c-.28-2.16-.93-4.28-1.88-6.21,6.63,7.42,6.93,7.75,6.93,7.75,0,0,0,0,0,0l.24.26c2.63,2.93,3.31,3.88,1.52,6.29-1.44,1.94-3.5,3.4-5.8,4.12-.62.2-2.57.47-4.15.59.79-1.2,1.22-2.23,1.51-2.95.07-.17.13-.32.19-.46,1.35-3,1.85-6.25,1.44-9.39ZM278.8,299.34c-3.19-6.75-2.89-12.71.9-18.6.45-.7.25-1.62-.45-2.07-.7-.45-1.62-.25-2.07.45-4.74,7.37-4.76,15.07-.05,23.56,5.01,9.02,18.49,12.8,29.43,13.34,3.33.16,6.26.43,8.35,2.07,1.93,1.51,2.64,3.14,2.1,4.83-.77,2.42-4,4.59-7.07,4.74-.43.02-1.99.07-4.07,0-2-3.57-6.74-6.94-10.52-7.33-2.02-.2-3.68.47-4.67,1.9-1.24,1.8-.98,3.23-.54,4.1.47.92,1.86,3.68,13.66,4.25.08.47.04.88-.16,1.21-.33.54-1.4,1.49-4.91,1.76-6.49.5-13.34-.91-19.28-3.97-6.67-3.44-12.33-8.98-15.93-15.6-4.08-7.5-4.97-15.4-2.5-22.25.28-.78-.12-1.64-.9-1.92-.78-.28-1.64.12-1.92.9-2.61,7.23-1.9,15.45,1.96,23.29-.46.19-.9.37-1.33.51-2.23.77-4.69.52-6.74-.68-17.87-10.42-39.36-24.67-63.18-51.28-18.7-20.88-33.15-42.53-44.16-66.2-1.49-3.2-.93-6.97,1.43-9.58,3.36-3.72,6.92-7.15,10.59-10.19.38-.32.58-.81.54-1.3-.05-.5-.34-.94-.78-1.17-4.16-2.23-8.41-13.3-9.48-17.54-3.31-13.09-8.71-25.98-16.05-38.31l-.51-.85c-3-5.02-12.14-20.28-7.11-24.94.8-.74,1.43-.76,1.83-.71,2.64.32,5.81,5.16,7.71,8.06.48.73.89,1.35,1.25,1.85-.69.74-1.22,1.48-1.59,2.2-.98,1.87-.57,4.4.88,5.53.46.36,2.14,1.39,4.31-.55.75-.65,1.22-1.56,1.33-2.55.19-1.64-.31-3.02-.98-4.19,2.93-2.3,7.07-4.25,9.73-4.9,2.04-.49,3.72-.12,4.5,1.01.58.85.51,1.96-.19,2.96-.48.69-1.23,1.3-2.15,1.77-.61.31-1.42.51-2.27.71-2.03.49-4.82,1.17-5.61,4.18-.62,2.38.25,4.61,2.32,5.99,2.35,1.56,5.57,1.53,7.67-.07,2.05-1.57,3.17-4.11,3-6.81l-.05-.62c-.11-1.29-.2-2.41.35-3.26.05-.07.1-.14.17-.22.89-1.08,2.58-1.28,3.94-.47,3.8,2.29,2.31,7.31.39,11.12-2.65,5.24-3.72,10.08-3.6,16.17.14,6.77,2.1,17.48,7.16,25.4,4.12,6.47,12.27,8.97,19.37,5.95,10.77-4.56,22.43-7.86,34.78-11.35l.94-.27c-.06.32-.12.63-.16.96-.71,5.71.76,10.74,4.25,14.56,3.35,3.66,8.41,5.86,13.77,6.09-.57,6.16.29,12.09,2.5,16.85,3.51,7.58,11.91,15.47,21.17,15.88.2,0,.41.01.61.01.82,0,1.63-.07,2.43-.21-1.11,11.6.42,25.8,7.91,33.19,3.13,3.09,6.97,4.65,11.44,4.65.3,0,.61-.02.92-.03-3.04,16.66-1.46,33.36,4.3,45.39-.09.11-.17.23-.22.37-.95,2.4-3.96,6.99-8.67,12.22ZM302.04,327.47c-6.47-.5-8.86-1.75-9.23-2.49-.14-.27.1-.72.33-1.05.12-.17.44-.64,1.49-.64.13,0,.26,0,.41.02,2.21.23,5.14,2.06,7.01,4.15ZM150.27,111.38c-1.09.83-2.89.81-4.19-.05-.69-.46-1.45-1.31-1.08-2.73.3-1.15,1.27-1.5,3.41-2.02.99-.24,2.01-.49,2.93-.96.21-.11.42-.22.62-.34.01.45.05.88.09,1.31l.05.57c.11,1.66-.59,3.27-1.83,4.22ZM325.51,281.37c-1.81,8.3-4.31,17.38-11.18,20.05-4.22,1.64-9.6.31-14.4-3.55-3.57-2.87-6.58-6.61-8.93-11.14-6.11-11.76-7.77-28.79-4.49-45.74.92-.17,1.86-.38,2.8-.67,7.5-2.25,13.42-9.54,14.39-17.73.53-4.56-1.42-6.29-2.63-6.92-2.33-1.2-5.64-.35-8.43,2.17-4.03,3.63-5.69,9.47-7.16,14.62l-.23.82c-.47,1.65-.88,3.33-1.25,5.02-4.33.37-7.98-.85-10.86-3.69-5.8-5.71-8.46-18.19-6.9-31.95,6.87-2.74,12.02-10.11,14.59-16.31,1.99-4.83.52-7.77-1.53-8.92-2.33-1.3-6.15-.61-8.95,3.23-3.23,4.44-5.71,11.6-6.85,19.75-1.08.27-2.18.39-3.29.34-8.06-.35-15.45-7.38-18.58-14.14-2.03-4.38-2.79-9.9-2.2-15.67,6.96-.66,12.8-4.58,15.79-10.69,2.65-5.4.99-9.68-1.68-11.37-2.51-1.59-6.57-1.29-9.98,2.97-3.38,4.23-5.74,9.93-6.77,16.16-4.67-.13-9.07-1.98-11.94-5.11-2.88-3.15-4.09-7.35-3.49-12.16.11-.89.29-1.75.55-2.56,2.85-9.49,14.48-15.48,24.42-17.92,14.33-3.52,29.35-3.34,43.42.53,12.82,3.53,30.6,10.96,42.47,26.31,6.14,7.96,9.73,17.5,11.25,24.4-.28-.21-.54-.41-.83-.62-.01,0-.03-.01-.04-.02-1.09-.84-2.62-.67-3.62-.55h0c-.05,0-.1.02-.15.03-2.21.33-4,2.09-4.38,4.32l-2.22,12.83c-.37,2.15.13,4.4,1.39,6.18,1.15,1.61,2.39,3.03,3.7,4.23.54.5,1.12,1.08,1.73,1.71,1.42,1.43,2.97,2.99,4.63,4.12-2.17.88-4.31,2.61-6.22,4.18-.67.54-1.3,1.06-1.88,1.49-1.45,1.08-2.84,2.36-4.12,3.82-1.45,1.63-2.19,3.81-2.05,5.99l.85,13c.15,2.31,1.74,4.22,3.95,4.77-3.27,11.35-6.19,22.9-8.68,34.37ZM287.17,237.8c.29-1.24.61-2.48.96-3.69l.23-.82c1.36-4.76,2.89-10.16,6.28-13.21,1.49-1.35,3.01-1.93,4.1-1.93.37,0,.7.07.95.2.89.46,1.27,1.88,1.03,3.9-.83,7.03-5.88,13.28-12.27,15.2-.43.13-.85.25-1.27.35ZM266.72,199.15c1.16-6.96,3.32-12.96,6.05-16.72,1.29-1.77,2.89-2.61,4.09-2.61.37,0,.69.08.97.23,1.16.65,1.25,2.67.23,5.15-2.12,5.12-6.11,11.11-11.34,13.94ZM239.84,167.89c.99-5.43,3.15-10.51,6.06-14.15,1.42-1.78,3.05-2.75,4.48-2.75.55,0,1.08.15,1.55.44,1.57,1,2.43,3.77.59,7.51-2.42,4.95-7.08,8.2-12.68,8.94ZM349.01,229.42c-.07,2.95-1.26,5.74-3.34,7.85-.45.46-.93.93-1.45,1.4-1.74,1.61-3.62,3.06-5.63,4.33l-.85-12.85c-.06-.93.42-1.8,1.23-2.23,2.01-1.07,3.95-2.28,5.78-3.58,1.54-1.1,3.03-2.29,4.44-3.56l-.19,8.63Z"/>
    <path class="cls-5" d="M234.79,218.15c-4.05,2.45-9.49,1.28-12.14-2.62-2.66-3.9-1.82-9.25,1.91-12.18.65-.51.77-1.45.25-2.11-.51-.65-1.45-.77-2.11-.25-4.97,3.9-6.09,11.03-2.54,16.23,2.31,3.4,6.08,5.24,9.93,5.24,2.13,0,4.29-.57,6.25-1.75.71-.43.94-1.35.51-2.06s-1.35-.94-2.06-.51Z"/>
    <path class="cls-5" d="M204.58,215.03c-4.19,2.35-9.48,1.02-12.04-3.04-2.53-3.99-1.5-9.31,2.34-12.1.67-.49.82-1.43.33-2.1-.49-.67-1.43-.82-2.1-.33-5.11,3.73-6.47,10.81-3.1,16.13,2.27,3.61,6.17,5.6,10.16,5.6,2,0,4.02-.5,5.88-1.54.72-.41.98-1.32.57-2.04s-1.32-.98-2.04-.57Z"/>
  </g>
</svg>