<?xml version="1.0" encoding="UTF-8"?>
<svg id="Layer_1" data-name="Layer 1" xmlns="http://www.w3.org/2000/svg" viewBox="0 0 454.37 425.85">
  <defs>
    <style>
      .cls-1 {
        fill: #161616;
      }
    </style>
  </defs>
  <path class="cls-1" d="M295.97,325.83c-.62,0-1.19.17-1.54.67s-.45.88-.32,1.11c.77,1.39,5.04,2.18,9.49,2.55-1.35-1.54-3.32-3.01-5.32-3.8-.52-.2-1.46-.53-2.32-.53Z"/>
  <path class="cls-1" d="M133.54,104.3c.2-.17.32-.41.35-.67.07-.62-.04-1.17-.27-1.74-.28.34-.51.68-.67.99-.33.65-.16,1.53.02,1.8.11-.04.3-.14.57-.38Z"/>
  <path class="cls-1" d="M150.11,102.91c-.21.12-.42.24-.66.36-.94.48-1.98.73-2.99.97-2.19.54-3.18.89-3.5,2.08-.38,1.47.39,2.34,1.1,2.81,1.33.89,3.18.91,4.31.05,1.26-.97,1.98-2.63,1.87-4.33l-.04-.6c-.04-.42-.08-.89-.09-1.35Z"/>
  <path class="cls-1" d="M108.97,317.42c-.18-3.63-.39-8.01.06-12.19-3.23,1.1-5.98,3.06-7.58,5.51-1.56,2.37-2.03,5.08-1.41,8.06.93,4.49,3.99,7.18,9.55,8.37-.25-2.49-.43-4.89-.52-7.29-.03-.77-.07-1.6-.11-2.46Z"/>
  <path class="cls-1" d="M136.59,314.97c-.31.74-.75,1.8-1.58,3.04,1.62-.12,3.63-.39,4.3-.61,2.36-.74,4.46-2.23,5.93-4.22,1.83-2.47,1.14-3.45-1.55-6.44l-.25-.28s-.17-.19-7.14-7.98c1.02,2.06,1.67,4.29,1.95,6.42.41,3.22-.1,6.54-1.48,9.59-.06.13-.12.29-.19.47Z"/>
  <path class="cls-1" d="M126.36,290.02c1.8.41,3.4,1.18,4.79,2.18-2.27-3.04-4.34-6.2-6.16-9.44-2.11-3.74-3.93-7.65-5.44-11.68-1.99,6.03-2.59,13.71-1.43,19.53.68-.25,1.39-.46,2.13-.62,2.1-.43,4.16-.43,6.1.02Z"/>
  <path class="cls-1" d="M341.3,228.32c-.82.44-1.31,1.34-1.25,2.3l.87,13.17c2.05-1.31,3.99-2.8,5.78-4.45.52-.48,1.01-.96,1.48-1.44,2.14-2.17,3.35-5.02,3.42-8.04l.19-8.87c-1.46,1.3-2.98,2.53-4.57,3.66-1.88,1.34-3.86,2.58-5.91,3.66Z"/>
  <path class="cls-1" d="M347.46,206.16c-1.64-1.46-3.38-2.81-5.18-4.02-1.76-1.19-2.66-3.33-2.3-5.45l2.45-14.06c-.27.02-.56.06-.7.07-1.07.14-1.89.94-2.06,1.94l-2.27,13.13c-.24,1.41.09,2.87.91,4.02,1.03,1.46,2.16,2.75,3.36,3.85.59.54,1.21,1.17,1.88,1.84,1.86,1.88,3.96,4.01,5.85,4.7.78.28,2.31.11,3.37-.52-1.63-1.96-3.41-3.82-5.31-5.51Z"/>
  <path class="cls-1" d="M351.31,217.28c-.98-.74-2.48-1.07-3.3-.87-1.95.48-4.37,2.46-6.32,4.04-.73.6-1.43,1.16-2.05,1.63-1.31.97-2.58,2.14-3.75,3.48-.94,1.06-1.43,2.49-1.33,3.91l.87,13.29c.06,1.02.79,1.89,1.76,2.12.17.04.48.11.76.16l-.93-14.24c-.14-2.14.98-4.18,2.86-5.18,1.92-1.02,3.8-2.18,5.57-3.45,2.07-1.48,4.03-3.13,5.86-4.91Z"/>
  <path class="cls-1" d="M351.83,190.82c-.4-.53-.85-1.05-1.31-1.59-1.61-1.82-3.38-3.51-5.28-5.02l-2.25,13c-.17.94.22,1.89,1,2.41,1.91,1.29,3.76,2.73,5.49,4.27,1.46,1.29,2.85,2.68,4.16,4.12l.75-8.84c.25-2.99-.65-5.96-2.55-8.35Z"/>
  <path class="cls-1" d="M278.81,179.38c-.29-.16-.64-.25-1.03-.25-1.2,0-2.8.82-4.17,2.68-2.8,3.85-5.01,10-6.2,17.14,5.37-2.89,9.45-9.04,11.63-14.28,1.05-2.55.96-4.62-.23-5.29Z"/>
  <path class="cls-1" d="M302.22,222.54c.24-2.07-.14-3.54-1.06-4.01-.28-.14-.62-.21-.98-.21-1.21,0-2.81.74-4.21,1.99-3.47,3.12-5.03,8.64-6.42,13.52l-.24.83c-.35,1.25-.69,2.53-.98,3.8.43-.1.88-.22,1.32-.35,6.55-1.97,11.72-8.37,12.57-15.56Z"/>
  <path class="cls-1" d="M252.32,150.11c-.49-.3-1.03-.46-1.6-.46-1.47,0-3.13.99-4.59,2.82-2.97,3.73-5.19,8.94-6.21,14.5,5.74-.76,10.52-4.08,13-9.16,1.88-3.83,1-6.68-.61-7.7Z"/>
  <path class="cls-1" d="M250.93,318.83c-17.41-10.16-40.57-25.37-65.34-53.03-19.33-21.59-34.26-43.98-45.66-68.46-1.83-3.92-1.4-8.45,1.04-11.94-.78-.83-1.3-.79-1.48-.78-.62.04-1.23.55-1.69,1.01l-.37.42c-.1.12-.19.24-.23.31-.08.12-.18.22-.28.31-18.57,21.97-24.64,52.44-15.81,79.65,1.66,5.17,3.86,10.19,6.53,14.94,2.96,5.27,6.57,10.3,10.73,14.95,0,0,7.23,8.09,7.33,8.21l.26.28c2.51,2.8,5.11,5.7,1.72,10.26-1.85,2.5-4.5,4.39-7.47,5.32-.07.02-7.93,1.91-9.26-.2-.32-.52-.45-1.4.26-2.16,1.56-1.67,2.16-3.15,2.57-4.14.09-.2.16-.38.23-.55,1.15-2.55,1.58-5.3,1.23-7.97-.65-5-3.92-11-9.56-12.31-1.52-.34-3.12-.35-4.78,0-4.73.98-7.45,4.3-8.55,10.44-.81,4.51-.56,9.69-.35,13.85.05.88.09,1.71.12,2.5.1,2.96.34,5.92.73,9.07.22,1.74.47,3.33.72,4.72.2,1.18,1.17,2.04,2.37,2.09,6.3.27,12.77-.05,19.03-.36,3.01-.15,6.13-.3,9.19-.39,19.22-.56,34.77-.28,48.95.85,19.8,1.58,42.23,3.37,59.73-7.46,2.85-1.77,6.16-4.57,7.17-8.4-1.09.33-2.2.51-3.33.51-1.99,0-3.97-.53-5.73-1.56Z"/>
  <path class="cls-1" d="M332.41,242.96l-.87-13.29c-.15-2.22.61-4.45,2.08-6.12,1.32-1.5,2.74-2.81,4.22-3.9.6-.43,1.25-.97,1.94-1.54,1.96-1.6,4.15-3.37,6.36-4.27-1.69-1.14-3.29-2.75-4.75-4.23-.63-.64-1.21-1.23-1.77-1.74-1.34-1.24-2.62-2.7-3.78-4.33-1.28-1.81-1.8-4.1-1.42-6.3l2.27-13.13c.4-2.35,2.24-4.11,4.57-4.42,1.04-.13,2.61-.32,3.74.55.01.01.02.01.03.02.3.21.6.44.89.67-1.53-7.06-5.21-16.82-11.52-25-12.12-15.71-30.3-23.3-43.42-26.91-14.4-3.96-29.75-4.16-44.4-.55-10.92,2.68-24.15,9.78-25.55,20.96-.62,4.92.62,9.22,3.57,12.45,2.93,3.2,7.43,5.13,12.21,5.26,1.04-6.38,3.48-12.22,6.95-16.55,3.47-4.36,7.61-4.66,10.17-3.03,2.72,1.72,4.42,6.09,1.72,11.6-3.06,6.25-9.05,10.27-16.17,10.93-.6,5.89.19,11.55,2.27,16.03,3.21,6.92,10.76,14.1,19.02,14.47,1.13.05,2.26-.07,3.37-.34,1.17-8.34,3.71-15.67,7.02-20.21,2.85-3.92,6.74-4.63,9.12-3.3,2.09,1.16,3.6,4.18,1.57,9.09-2.64,6.35-7.9,13.91-14.93,16.7-1.61,14.07,1.13,26.82,7.07,32.67,2.95,2.91,6.69,4.2,11.11,3.8.38-1.74.82-3.47,1.3-5.17l.23-.83c1.5-5.27,3.19-11.23,7.32-14.94,2.84-2.58,6.23-3.44,8.59-2.21,1.24.64,3.24,2.41,2.69,7.06-.99,8.36-7.04,15.8-14.7,18.11-.97.29-1.94.53-2.89.71-3.67,19.07-2.23,45.33,13.75,58.16,4.91,3.95,10.42,5.32,14.73,3.63,7.04-2.73,9.59-12.02,11.44-20.51,2.55-11.72,5.54-23.55,8.89-35.15-2.26-.55-3.89-2.51-4.04-4.87Z"/>
  <path class="cls-1" d="M316.71,320.51c-2.13-1.67-5.14-1.95-8.54-2.11-11.18-.55-24.95-4.42-30.07-13.63-4.81-8.67-4.8-16.54.05-24.07.46-.7,1.4-.9,2.09-.45.71.45.91,1.4.45,2.1-3.89,6.04-4.2,12.14-.91,19.06,4.82-5.35,7.91-10.06,8.88-12.52.05-.13.12-.24.2-.34-6.73-13.99-6.99-32.08-4.38-46.47-4.96.22-9.21-1.34-12.64-4.72-7.65-7.55-9.21-22.08-8.08-33.94-1.03.18-2.07.24-3.12.2-9.46-.41-18.05-8.47-21.64-16.23-2.26-4.87-3.16-10.94-2.58-17.23-5.48-.23-10.65-2.5-14.06-6.24-3.58-3.89-5.08-9.03-4.35-14.86.04-.34.1-.68.16-1.01l-1.21.34c-12.55,3.55-24.39,6.9-35.34,11.54-7.25,3.08-15.58.53-19.79-6.08-5.18-8.11-7.18-19.06-7.31-25.97-.13-6.22.97-11.16,3.68-16.52,1.96-3.9,3.49-9.05-.4-11.39-1.4-.84-3.14-.63-4.05.48-.73.88-.68,1.93-.55,3.57l.05.65c.18,2.74-.96,5.34-3.05,6.94-2.13,1.64-5.43,1.67-7.82.07-2.1-1.4-2.99-3.68-2.36-6.11.8-3.06,3.64-3.75,5.71-4.26.88-.21,1.71-.41,2.34-.73,2.49-1.28,3.12-3.12,2.66-4.38-.47-1.23-2.14-2.18-4.87-1.53-2.73.67-6.98,2.66-9.97,5.02.7,1.2,1.2,2.61,1.01,4.3-.11,1-.6,1.92-1.35,2.59-2.21,1.97-3.92.93-4.39.56-1.49-1.15-1.89-3.73-.9-5.63.37-.74.91-1.49,1.63-2.25-.37-.52-.79-1.16-1.29-1.92-1.93-2.95-5.18-7.9-7.88-8.23-.41-.05-1.06-.03-1.88.73-5.16,4.78,4.2,20.39,7.27,25.53l.52.87c7.51,12.6,13.03,25.77,16.41,39.16,1.1,4.34,5.45,15.66,9.71,17.95.44.24.74.69.79,1.18.05.51-.15,1-.54,1.32-3.77,3.11-7.41,6.62-10.84,10.42-2.43,2.68-3,6.53-1.48,9.82,11.26,24.19,26.03,46.34,45.16,67.71,24.34,27.19,46.32,41.75,64.61,52.43,2.1,1.22,4.61,1.48,6.9.69.47-.15.94-.34,1.42-.55-3.77-7.74-4.75-16.31-2.04-23.81.28-.79,1.15-1.19,1.94-.91.79.28,1.19,1.15.91,1.94-4.86,13.49,3.59,30.86,18.86,38.72,6.07,3.12,13.07,4.57,19.71,4.05,3.14-.23,5.04-1.09,5.24-2.36.03-.21.03-.43-.01-.68-5.3-.25-12.21-1.18-13.91-4.23-.52-.91-.84-2.41.48-4.32,1.45-2.09,4.17-2.54,7.47-1.23,3.21,1.27,6.48,3.95,8.06,6.82,1.54.03,2.97.02,4.16-.04,3.14-.15,6.46-2.38,7.24-4.85.56-1.74-.17-3.42-2.15-4.96ZM205.39,217.82c-1.9,1.06-3.97,1.58-6.01,1.58-4.08,0-8.06-2.04-10.38-5.72-3.43-5.44-2.03-12.67,3.17-16.47.18-.13.37-.21.58-.25h.01c.37.08.75.16,1.13.21h.01c.14.1.28.22.39.37.5.68.34,1.63-.33,2.12-3.92,2.86-4.98,8.3-2.4,12.4,2.62,4.16,8.04,5.52,12.33,3.11.73-.4,1.66-.14,2.06.59.41.73.15,1.66-.58,2.06ZM203.66,184.61c-2.69,1.73-5.46,2.65-7.46,2.63h-.01c-.57-.16-1.14-.28-1.73-.35h-.01c-.37-.17-.67-.41-.87-.74-1.23-1.92,1.28-5.74,5.61-8.51,4.34-2.78,8.86-3.47,10.09-1.55,1.23,1.93-1.28,5.74-5.62,8.52ZM236.36,220.95c-1.99,1.21-4.2,1.79-6.38,1.79-3.93,0-7.77-1.88-10.14-5.35-3.62-5.32-2.48-12.6,2.6-16.58.66-.52,1.62-.39,2.13.26s.39,1.62-.26,2.13c-3.82,2.99-4.68,8.47-1.96,12.48,2.76,4.05,8.23,5.24,12.45,2.68.71-.43,1.65-.21,2.08.51.43.72.2,1.65-.52,2.08Z"/>
</svg>