<?xml version="1.0" encoding="UTF-8"?>
<svg id="Layer_1" data-name="Layer 1" xmlns="http://www.w3.org/2000/svg" viewBox="0 0 454.37 425.85">
  <defs>
    <style>
      .cls-1 {
        fill: #76b3d0;
      }

      .cls-2 {
        fill: #fcec60;
      }

      .cls-3 {
        fill: #f8f9e8;
      }

      .cls-4 {
        fill: #988ec5;
      }

      .cls-5 {
        fill: #101010;
      }

      .cls-6 {
        fill: #161616;
      }
    </style>
  </defs>
  <g>
    <g>
      <path class="cls-4" d="M332.77,200.12c2.07,2.62,3.07,5.9,2.8,9.22-.35,4.07-.69,8.15-1.04,12.22-1.56-2.01-3.61-4.31-6.22-6.63-1.81-1.6-3.58-2.95-5.22-4.05-1.25-.84-1.87-2.35-1.61-3.84l2.63-15.1c1.04.73,2.19,1.61,3.39,2.66,1.28,1.11,2.6,2.41,3.93,3.92.47.54.92,1.08,1.34,1.6Z"/>
      <path class="cls-4" d="M333.12,227c-.09,4.09-.18,8.18-.27,12.26-.08,3.33-1.43,6.5-3.77,8.87-.47.48-.97.97-1.5,1.45-2.86,2.64-5.68,4.49-7.98,5.76l-1.01-15.29c-.1-1.51.68-2.95,2.02-3.65,1.74-.93,3.65-2.08,5.62-3.48,2.84-2.03,5.12-4.1,6.89-5.93Z"/>
      <path class="cls-4" d="M334.53,221.57c-1.06,1.54-3.48,2.19-5.15,1.94-.24-.04-.45-.1-.66-.17-2.88-1.05-5.83-4.66-8.06-6.7-1.3-1.19-2.46-2.55-3.49-3.99-1.04-1.46-1.44-3.28-1.14-5.05l2.22-12.83c.28-1.62,1.57-2.9,3.2-3.1,0,0,.02,0,.03,0,.74-.09,2.01-.27,2.62.31l-2.63,15.1c-.26,1.48.37,3,1.61,3.84,1.64,1.11,3.41,2.45,5.22,4.05,2.61,2.32,4.66,4.63,6.22,6.63Z"/>
      <path class="cls-4" d="M329.22,224.59c1.5.24,3.17,1.09,3.9,2.41-1.77,1.83-4.05,3.91-6.89,5.93-1.97,1.4-3.88,2.55-5.62,3.48-1.33.7-2.12,2.14-2.02,3.65l1.01,15.29c-.35.27-.86.31-1.37.26-.46-.04-.92-.15-1.27-.24h-.03c-1.59-.39-2.74-1.79-2.85-3.43l-.85-13c-.12-1.79.48-3.56,1.67-4.89,1.18-1.33,2.48-2.56,3.9-3.61,2.42-1.8,5.75-5.07,8.72-5.8.48-.12,1.08-.13,1.7-.04Z"/>
      <path class="cls-2" d="M329.38,223.5l-.16,1.09c-.62-.09-1.22-.08-1.7.04-2.97.73-6.3,4-8.72,5.8-1.41,1.05-2.72,2.27-3.9,3.61-1.19,1.33-1.79,3.1-1.67,4.89l.85,13c.11,1.64,1.26,3.05,2.85,3.43h.03c.35.09.8.2,1.27.24l-.06.93c-3.34,11.54-6.3,23.21-8.85,34.96-1.83,8.39-4.48,18.16-12.1,21.13-5.31,2.07-11.37-.15-15.88-3.78-3.92-3.14-6.98-7.12-9.32-11.62-7.19-13.82-7.53-32.65-4.45-47.73,1.16-.16,2.38-.43,3.66-.81,6.95-2.09,12.43-8.86,13.33-16.46.8-6.84-4.55-7.09-8.57-3.46-3.92,3.53-5.5,9.66-6.95,14.73-.54,1.91-1.04,3.92-1.46,6-17.82,2.52-22.74-19.48-20.38-38.11,6.67-2.19,11.91-9.35,14.59-15.81,3.22-7.8-3.73-9.94-7.88-4.23-3.3,4.54-5.7,11.97-6.71,20.04-1.5.5-3.07.74-4.71.67-8.31-.37-16.33-7.37-19.87-15.01-2.39-5.16-3.04-11.53-2.2-17.71,6.32-.22,12.6-3.39,15.8-9.94,4.12-8.39-3.38-14.01-9.14-6.8-3.52,4.41-5.84,10.48-6.66,16.74-9.84.37-19.75-6.48-18.19-18.97.12-.97.32-1.91.6-2.81,3.2-10.67,16.36-16.7,25.5-18.94,14.48-3.56,29.77-3.42,44.18.54,16.07,4.42,32.46,12.87,43.26,26.84,6.81,8.83,10.94,20.06,12.11,28.17l-.36.42c-1.2-1.05-2.35-1.93-3.39-2.66-.61-.57-1.88-.4-2.62-.31,0,0-.02,0-.03,0-1.63.21-2.93,1.48-3.2,3.1l-2.22,12.83c-.31,1.77.1,3.59,1.14,5.05,1.03,1.44,2.19,2.81,3.49,3.99,2.22,2.05,5.18,5.66,8.06,6.7.21.07.43.13.66.17Z"/>
      <path class="cls-3" d="M260.78,311.76c5.02,9.04,19.05,12.12,28.19,12.57,3.21.16,6.66.4,9.2,2.38,6.72,5.25.24,11.95-5.81,12.25-.55.03-2.57.08-5.09-.02-1.99-4.67-10.43-9.78-13.01-6.05-3.23,4.69,6.55,5.82,13.01,6.05,1.2,2.8.06,5.45-6.08,5.91-6.87.52-13.97-.99-20.08-4.13-7.03-3.62-12.9-9.48-16.56-16.22l-.56.31c-.13.06-.27.12-.4.18-.64.29-1.29.54-1.93.76-2.65.91-5.56.61-7.98-.8-17.89-10.43-39.77-25.01-63.55-51.57-22.54-25.16-35.8-48.08-44.4-66.57-1.74-3.74-1.08-8.17,1.68-11.22,3.51-3.89,7.09-7.31,10.75-10.34-4.83-2.59-9.19-14.39-10.22-18.49-3.38-13.39-8.83-26.06-15.89-37.91-3.18-5.36-13.57-21.89-7.35-27.65,5.43-5.01,11.68,8.24,13.68,10.25v.29c-.93.86-1.68,1.75-2.15,2.65-1.03,1.97.26,5.5,2.88,3.16.46-.41.76-.98.83-1.59.2-1.7-.57-3.06-1.47-4.31,3.12-2.85,8.18-5.29,11.36-6.07,5.56-1.34,8.23,2.92,5.88,6.29-.58.83-1.47,1.62-2.7,2.24-2.4,1.23-6.29.79-7.11,3.94-1.14,4.37,4.6,6.66,7.62,4.35,1.68-1.29,2.55-3.39,2.41-5.51-.12-1.67-.41-3.35.55-4.82.08-.12.16-.23.26-.35,1.42-1.73,3.95-1.95,5.87-.8,4.91,2.96,2.97,9.1.96,13.08-2.55,5.05-3.56,9.6-3.44,15.46.15,7.09,2.23,17.28,6.92,24.63,3.73,5.85,11.14,8.09,17.52,5.38,11.58-4.9,24-8.31,37.47-12.12l.76.23c-.29.9-.48,1.84-.6,2.81-1.56,12.5,8.35,19.34,18.19,18.97-.83,6.18-.19,12.55,2.2,17.71,3.54,7.64,11.57,14.64,19.87,15.01,1.63.07,3.2-.17,4.71-.67-2.36,18.63,2.56,40.63,20.38,38.11-3.08,15.08-2.74,33.9,4.45,47.73l-.81.26c-1.26,3.18-5.25,8.8-10.42,14.27ZM186.7,194.97c4.24-2.72,6.69-6.45,5.49-8.34-1.21-1.88-5.62-1.21-9.86,1.51-4.24,2.71-6.69,6.44-5.49,8.33,1.21,1.88,5.62,1.21,9.86-1.5Z"/>
      <path class="cls-2" d="M275.98,228.77c4.02-3.63,9.37-3.38,8.57,3.46-.9,7.6-6.38,14.38-13.33,16.46-1.28.39-2.5.65-3.66.81.43-2.09.92-4.09,1.46-6,1.45-5.07,3.04-11.2,6.95-14.73Z"/>
      <path class="cls-2" d="M253.9,191.36c4.15-5.7,11.1-3.57,7.88,4.23-2.68,6.46-7.92,13.61-14.59,15.81,1.02-8.07,3.41-15.5,6.71-20.04Z"/>
      <path class="cls-1" d="M120.61,195.67h0s.02-.04.03-.05c.05-.06.1-.12.16-.2.02-.03.05-.06.07-.09.11-.11.21-.23.31-.34.02-.03.05-.06.08-.08,1.09-1.12,3.15-2.5,5.31-.09l.84.75c-2.76,3.06-3.42,7.48-1.68,11.22,8.6,18.49,21.86,41.41,44.4,66.57,23.78,26.56,45.66,41.14,63.55,51.57,2.42,1.41,5.33,1.71,7.98.8.64-.22,1.29-.47,1.93-.76-.03,5.19-3.81,9.13-8.02,11.75-17.53,10.85-39.74,9.08-59.31,7.51-15.87-1.27-31.82-1.29-47.73-.82-9.19.26-18.49,1.13-27.69.74-1.86-.08-3.4-1.43-3.72-3.27-.25-1.4-.48-2.98-.71-4.7-.33-2.67-.6-5.69-.72-9-.17-4.45-.74-10.79.25-16.3.77-4.28,2.48-8.07,6.06-10.11,1-.57,2.15-1.01,3.46-1.29,1.93-.41,3.71-.37,5.32,0,2.46.57,4.53,1.93,6.17,3.73,2.4,2.62,3.88,6.18,4.32,9.57.39,2.93-.11,5.9-1.32,8.58-.43.94-1,2.83-3.01,4.98-1.11,1.2,6.02.28,7.27-.12,2.6-.81,4.93-2.47,6.56-4.66,2.68-3.61.74-5.56-1.85-8.44-.02-.02-7.18-8.03-7.18-8.03-1.01-1.13-1.99-2.27-2.91-3.44-2.97-3.68-5.55-7.49-7.76-11.45-2.71-4.81-4.87-9.79-6.52-14.88-8.94-27.58-2.48-58.01,16.07-79.68Z"/>
      <path class="cls-2" d="M227.07,162.62c5.75-7.21,13.26-1.59,9.14,6.8-3.2,6.55-9.48,9.72-15.8,9.94.82-6.26,3.14-12.33,6.66-16.74Z"/>
      <path d="M192.18,186.63c1.21,1.89-1.25,5.62-5.49,8.34-4.24,2.71-8.65,3.38-9.86,1.5-1.21-1.89,1.25-5.62,5.49-8.33,4.24-2.72,8.65-3.39,9.86-1.51Z"/>
      <path class="cls-1" d="M128.91,313.15c2.59,2.89,4.53,4.83,1.85,8.44-1.62,2.19-3.95,3.85-6.56,4.66-1.25.4-8.37,1.32-7.27.12,2.01-2.16,2.58-4.04,3.01-4.98,1.21-2.68,1.7-5.66,1.32-8.58-.44-3.39-1.92-6.95-4.32-9.57l1.89-1.55c.92,1.17,1.9,2.31,2.91,3.44,0,0,7.16,8.01,7.18,8.03Z"/>
      <path class="cls-1" d="M118.82,301.68l-1.89,1.55c-1.64-1.8-3.71-3.15-6.17-3.73-1.61-.38-3.39-.42-5.32,0-1.32.28-2.46.71-3.46,1.29v-.28c-2.01-7.33-.83-18.35,2.56-25.15,1.64,5.09,3.81,10.08,6.52,14.88,2.21,3.95,4.8,7.77,7.76,11.45Z"/>
      <path class="cls-1" d="M95.67,327.2c.12,3.31.4,6.33.72,9-5.94-.84-11.16-3.29-12.5-9.7-1.8-8.65,5.17-14.19,12.02-15.6-.99,5.52-.42,11.85-.25,16.3Z"/>
    </g>
    <g>
      <path class="cls-6" d="M333.94,199.17c-.44-.54-.89-1.09-1.38-1.65-1.04-1.17-2.11-2.27-3.2-3.27,0-.09,0-.19-.01-.28-1.1-7.61-4.94-19.2-12.41-28.87-12.38-16.01-30.78-23.73-44.05-27.37-14.57-4.01-30.1-4.2-44.93-.55-10.31,2.53-22.33,8.76-26.12,18.7-.06,0-.13.02-.19.03l-2.52.71c-12.44,3.52-24.19,6.84-35.13,11.47-5.75,2.44-12.34.42-15.67-4.8-4.72-7.4-6.55-17.48-6.69-23.85-.11-5.64.84-9.92,3.28-14.76,3.52-6.99,2.98-12.33-1.53-15.04-1.68-1-3.65-1.17-5.33-.58-.04-.96-.35-1.89-.91-2.71-1.5-2.2-4.37-3.03-7.68-2.23-2.91.71-7.39,2.76-10.73,5.35-.3-.43-.64-.96-.98-1.47-2.46-3.75-5.83-8.9-9.85-9.39-1.51-.19-2.98.33-4.23,1.49-6.81,6.32,2.57,21.99,6.58,28.68l.5.84c7.2,12.08,12.49,24.69,15.72,37.51.71,2.8,4.35,13.76,9.26,18.21-2.9,2.5-5.71,5.24-8.42,8.15-.97-.94-2.03-1.46-3.18-1.48-1.37-.03-2.73.62-3.95,1.87-.02.02-.02.04-.04.06-.02.02-.05.03-.07.05l-.11.12c-.05.05-.1.11-.15.16-.03.03-.04.07-.07.11-.08.07-.15.14-.21.23-.02.03-.05.06-.07.09,0,.01-.01.02-.02.04,0,.01-.02.02-.03.03l-.02.03c-18.88,22.13-25.15,52.89-16.44,80.44-3.23,6.91-4.34,17.48-2.61,24.83-2.85,1.99-4.71,5.15-5.68,9.59-4.39,1.14-8.24,3.7-10.42,7.01-1.94,2.96-2.57,6.46-1.81,10.12,1.21,5.81,5.46,9.4,12.63,10.69.19,1.33.38,2.56.57,3.65.44,2.55,2.55,4.41,5.13,4.52,6.27.26,12.64-.05,18.8-.36,2.96-.15,6.02-.3,9.01-.38,18.64-.54,33.75-.28,47.56.82,7.21.57,14.76,1.18,22.33,1.18,13.23,0,26.48-1.85,37.9-8.91,3.35-2.08,7.23-5.45,8.38-10.24,3.87,6.02,9.35,11.03,15.68,14.29,5.58,2.87,11.91,4.4,18.09,4.4.93,0,1.87-.04,2.79-.11,3.69-.28,6.13-1.35,7.24-3.19.37-.62.7-1.51.63-2.67.38,0,.74,0,1.07,0,1.11,0,1.9-.02,2.19-.04,4.34-.21,8.63-3.21,9.78-6.83.54-1.7.85-5.01-3.11-8.1-3-2.35-7.07-2.56-10.05-2.7-9.74-.47-21.54-3.6-26.37-10.89,3.98-4.31,7.31-8.78,9.08-12.09,2.37,4.05,5.28,7.47,8.65,10.18,3.99,3.21,8.39,4.9,12.48,4.9,1.7,0,3.35-.29,4.88-.89,8.25-3.21,11.05-13.15,13.02-22.21,2.52-11.62,5.49-23.33,8.81-34.83.26-.07.49-.18.71-.32,0,0,.01,0,.02,0,2.99-1.65,5.77-3.66,8.26-5.97.56-.5,1.07-1.01,1.56-1.51,2.62-2.66,4.11-6.17,4.2-9.89l.27-12.16s.01-.08.01-.12c0-.3-.09-.58-.24-.81-.38-.67-.91-1.22-1.51-1.67,1.1-.41,2.12-1.08,2.81-2.02,0,0,0,0,0,0,0-.01.02-.02.03-.04.04-.05.06-.12.1-.18.04-.06.08-.12.1-.19.04-.09.05-.2.07-.3,0-.04.02-.07.03-.11v-.09s.02-.03.02-.04c0,0,0-.01,0-.02l1.02-12.07c.31-3.69-.8-7.34-3.13-10.29ZM317.1,240.16l.92,13.9c-.23-.04-.47-.09-.68-.14-.04-.01-.08-.02-.13-.03-.9-.25-1.56-1.09-1.62-2.05l-.85-13c-.09-1.38.38-2.77,1.3-3.8,1.15-1.3,2.38-2.44,3.67-3.4.61-.45,1.28-1,1.99-1.58,1.91-1.56,4.29-3.51,6.2-3.98.29-.07.7-.07,1.11-.01.78.12,1.52.44,2.08.85-1.77,1.73-3.69,3.35-5.71,4.79-1.73,1.23-3.56,2.37-5.44,3.37-1.85.97-2.95,2.96-2.82,5.07ZM323.51,217.33c-.65-.66-1.27-1.28-1.84-1.81-1.15-1.06-2.26-2.32-3.28-3.76-.8-1.12-1.12-2.56-.88-3.93l2.22-12.84c.17-.98.95-1.75,1.91-1.87.04,0,.09-.01.13-.02.15-.02.38-.05.62-.07l-2.39,13.74c-.36,2.08.52,4.17,2.25,5.34,1.73,1.17,3.44,2.49,5.06,3.93,1.87,1.66,3.59,3.47,5.17,5.38-.85.5-2.01.72-2.86.6-.16-.03-.3-.07-.4-.1-1.84-.67-3.9-2.76-5.72-4.59ZM331.59,201.05c1.84,2.34,2.73,5.24,2.48,8.17l-.73,8.6c-1.27-1.4-2.62-2.74-4.04-4.01-1.72-1.53-3.53-2.93-5.38-4.17-.75-.5-1.13-1.42-.97-2.33l2.21-12.69c.46.37.91.74,1.35,1.13,1.29,1.12,2.56,2.39,3.78,3.77.46.53.9,1.05,1.3,1.54ZM117.56,115.07c.16-.31.37-.63.63-.96.23.54.32,1.08.26,1.67-.03.24-.15.47-.34.64-.25.22-.43.33-.54.37-.18-.27-.34-1.1-.01-1.72ZM104.44,279.6c1.48,3.91,3.25,7.72,5.31,11.36,1.77,3.15,3.78,6.24,5.99,9.2-1.41-1.02-2.96-1.73-4.64-2.12-1.9-.44-3.91-.45-5.97-.02-.72.15-1.41.35-2.06.59-1.14-5.66-.56-13.14,1.37-19.02ZM85.37,326.19c-.6-2.91-.14-5.55,1.38-7.87,1.56-2.38,4.24-4.3,7.38-5.37-.44,4.09-.24,8.36-.06,11.9.04.85.08,1.65.11,2.4.08,2.34.25,4.68.51,7.11-5.42-1.17-8.4-3.8-9.31-8.17ZM234.77,335.46c-17.12,10.59-39.05,8.84-58.41,7.29-13.92-1.11-29.14-1.37-47.89-.82-3.02.08-6.09.24-9.07.38-6.09.3-12.39.61-18.52.36-1.16-.05-2.11-.88-2.3-2.03-.24-1.36-.48-2.92-.7-4.62-.38-3.07-.61-5.97-.71-8.87-.03-.76-.07-1.58-.11-2.44-.2-4.07-.45-9.13.34-13.54.81-4.52,2.56-7.49,5.33-9.08.88-.5,1.9-.88,3.02-1.12,1.62-.34,3.2-.34,4.67,0,2.03.47,3.85,1.58,5.4,3.28,2.07,2.26,3.5,5.45,3.94,8.75.34,2.59-.07,5.28-1.2,7.77-.07.16-.15.34-.23.55-.4.96-.99,2.41-2.51,4.03-.71.76-.58,1.63-.26,2.14,1.32,2.09,9,.22,9.07.2,2.9-.9,5.5-2.75,7.31-5.19,3.33-4.48.77-7.33-1.7-10.08l-.24-.27c-.17-.19-7.17-8.02-7.17-8.02-1.08-1.21-2.01-2.31-2.86-3.38-2.88-3.57-5.44-7.35-7.62-11.24-2.61-4.64-4.77-9.55-6.4-14.61-8.62-26.61-2.69-56.4,15.48-77.88.12-.11.23-.23.31-.37.05-.06.1-.13.14-.2,0,0,0,0,0,0,0,0,.01-.01.02-.02,0,0,0-.02.01-.02.09-.09.18-.19.27-.29l.08-.09s0,0,0,0c.01-.01.03-.02.04-.03.36-.37,1.08-.98,1.74-.97.41,0,.84.27,1.3.75-2.37,3.41-2.79,7.84-1,11.69,11.14,23.94,25.74,45.84,44.65,66.94,24.24,27.08,46.89,41.94,63.91,51.87,1.73,1.01,3.67,1.53,5.62,1.53,1.08,0,2.17-.17,3.22-.49-1,3.72-4.22,6.45-6.99,8.18ZM122.74,312.61c-.28-2.16-.93-4.28-1.88-6.21,6.63,7.42,6.93,7.75,6.93,7.75,0,0,0,0,0,0l.24.26c2.63,2.93,3.31,3.88,1.52,6.29-1.44,1.94-3.5,3.4-5.8,4.12-.62.2-2.57.47-4.15.59.79-1.2,1.22-2.23,1.51-2.95.07-.17.13-.32.19-.46,1.35-3,1.85-6.25,1.44-9.39ZM261.14,309.16c-3.19-6.75-2.89-12.71.9-18.6.45-.7.25-1.62-.45-2.07-.7-.45-1.62-.25-2.07.45-4.74,7.37-4.76,15.07-.05,23.56,5.01,9.02,18.49,12.8,29.43,13.34,3.33.16,6.26.43,8.35,2.07,1.93,1.51,2.64,3.14,2.1,4.83-.77,2.42-4,4.59-7.07,4.74-.43.02-1.99.07-4.07,0-2-3.57-6.74-6.94-10.52-7.33-2.02-.2-3.68.47-4.67,1.9-1.24,1.8-.98,3.23-.54,4.1.47.92,1.86,3.68,13.66,4.25.08.47.04.88-.16,1.21-.33.54-1.4,1.49-4.91,1.76-6.49.5-13.34-.91-19.28-3.97-6.67-3.44-12.33-8.98-15.93-15.6-4.08-7.5-4.97-15.4-2.5-22.25.28-.78-.12-1.64-.9-1.92-.78-.28-1.64.12-1.92.9-2.61,7.23-1.9,15.45,1.96,23.29-.46.19-.9.37-1.33.51-2.23.77-4.69.52-6.74-.68-17.87-10.42-39.36-24.67-63.18-51.28-18.7-20.88-33.15-42.53-44.16-66.2-1.49-3.2-.93-6.97,1.43-9.58,3.36-3.72,6.92-7.15,10.59-10.19.38-.32.58-.81.54-1.3-.05-.5-.34-.94-.78-1.17-4.16-2.23-8.41-13.3-9.48-17.54-3.31-13.09-8.71-25.98-16.05-38.31l-.51-.85c-3-5.02-12.14-20.28-7.11-24.94.8-.74,1.43-.76,1.83-.71,2.64.32,5.81,5.16,7.71,8.06.48.73.89,1.35,1.25,1.85-.69.74-1.22,1.48-1.59,2.2-.98,1.87-.57,4.4.88,5.53.46.36,2.14,1.39,4.31-.55.75-.65,1.22-1.56,1.33-2.55.19-1.64-.31-3.02-.98-4.19,2.93-2.3,7.07-4.25,9.73-4.9,2.04-.49,3.72-.12,4.5,1.01.58.85.51,1.96-.19,2.96-.48.69-1.23,1.3-2.15,1.77-.61.31-1.42.51-2.27.71-2.03.49-4.82,1.17-5.61,4.18-.62,2.38.25,4.61,2.32,5.99,2.35,1.56,5.57,1.53,7.67-.07,2.05-1.57,3.17-4.11,3-6.81l-.05-.62c-.11-1.29-.2-2.41.35-3.26.05-.07.1-.14.17-.22.89-1.08,2.58-1.28,3.94-.47,3.8,2.29,2.31,7.31.39,11.12-2.65,5.24-3.72,10.08-3.6,16.17.14,6.77,2.1,17.48,7.16,25.4,4.12,6.47,12.27,8.97,19.37,5.95,10.77-4.56,22.43-7.86,34.78-11.35l.94-.27c-.06.32-.12.63-.16.96-.71,5.71.76,10.74,4.25,14.56,3.35,3.66,8.41,5.86,13.77,6.09-.57,6.16.29,12.09,2.5,16.85,3.51,7.58,11.91,15.47,21.17,15.88.2,0,.41.01.61.01.82,0,1.63-.07,2.43-.21-1.11,11.6.42,25.8,7.91,33.19,3.13,3.09,6.97,4.65,11.44,4.65.3,0,.61-.02.92-.03-3.04,16.66-1.46,33.36,4.3,45.39-.09.11-.17.23-.22.37-.95,2.4-3.96,6.99-8.67,12.22ZM284.39,337.28c-6.47-.5-8.86-1.75-9.23-2.49-.14-.27.1-.72.33-1.05.12-.17.44-.64,1.49-.64.13,0,.26,0,.41.02,2.21.23,5.14,2.06,7.01,4.15ZM132.61,121.19c-1.09.83-2.89.81-4.19-.05-.69-.46-1.45-1.31-1.08-2.73.3-1.15,1.27-1.5,3.41-2.02.99-.24,2.01-.49,2.93-.96.21-.11.42-.22.62-.34.01.45.05.88.09,1.31l.05.57c.11,1.66-.59,3.27-1.83,4.22ZM307.85,291.18c-1.81,8.3-4.31,17.38-11.18,20.05-4.22,1.64-9.6.31-14.4-3.55-3.57-2.87-6.58-6.61-8.93-11.14-6.11-11.76-7.77-28.79-4.49-45.74.92-.17,1.86-.38,2.8-.67,7.5-2.25,13.42-9.54,14.39-17.73.53-4.56-1.42-6.29-2.63-6.92-2.33-1.2-5.64-.35-8.43,2.17-4.03,3.63-5.69,9.47-7.16,14.62l-.23.82c-.47,1.65-.88,3.33-1.25,5.02-4.33.37-7.98-.85-10.86-3.69-5.8-5.71-8.46-18.19-6.9-31.95,6.87-2.74,12.02-10.11,14.59-16.31,1.99-4.83.52-7.77-1.53-8.92-2.33-1.3-6.15-.61-8.95,3.23-3.23,4.44-5.71,11.6-6.85,19.75-1.08.27-2.18.39-3.29.34-8.06-.35-15.45-7.38-18.58-14.14-2.03-4.38-2.79-9.9-2.2-15.67,6.96-.66,12.8-4.58,15.79-10.69,2.65-5.4.99-9.68-1.68-11.37-2.51-1.59-6.57-1.29-9.98,2.97-3.38,4.23-5.74,9.93-6.77,16.16-4.67-.13-9.07-1.98-11.94-5.11-2.88-3.15-4.09-7.35-3.49-12.16.11-.89.29-1.75.55-2.56,2.85-9.49,14.48-15.48,24.42-17.92,14.33-3.52,29.35-3.34,43.42.53,12.82,3.53,30.6,10.96,42.47,26.31,6.14,7.96,9.73,17.5,11.25,24.4-.28-.21-.54-.41-.83-.62-.01,0-.03-.01-.04-.02-1.09-.84-2.62-.67-3.62-.55h0c-.05,0-.1.02-.15.03-2.21.33-4,2.09-4.38,4.32l-2.22,12.83c-.37,2.15.13,4.4,1.39,6.18,1.15,1.61,2.39,3.03,3.7,4.23.54.5,1.12,1.08,1.73,1.71,1.42,1.43,2.97,2.99,4.63,4.12-2.17.88-4.31,2.61-6.22,4.18-.67.54-1.3,1.06-1.88,1.49-1.45,1.08-2.84,2.36-4.12,3.82-1.45,1.63-2.19,3.81-2.05,5.99l.85,13c.15,2.31,1.74,4.22,3.95,4.77-3.27,11.35-6.19,22.9-8.68,34.37ZM269.52,247.61c.29-1.24.61-2.48.96-3.69l.23-.82c1.36-4.76,2.89-10.16,6.28-13.21,1.49-1.35,3.01-1.93,4.1-1.93.37,0,.7.07.95.2.89.46,1.27,1.88,1.03,3.9-.83,7.03-5.88,13.28-12.27,15.2-.43.13-.85.25-1.27.35ZM249.06,208.96c1.16-6.96,3.32-12.96,6.05-16.72,1.29-1.77,2.89-2.61,4.09-2.61.37,0,.69.08.97.23,1.16.65,1.25,2.67.23,5.15-2.12,5.12-6.11,11.11-11.34,13.94ZM222.18,177.7c.99-5.43,3.15-10.51,6.06-14.15,1.42-1.78,3.05-2.75,4.48-2.75.55,0,1.08.15,1.55.44,1.57,1,2.43,3.77.59,7.51-2.42,4.95-7.08,8.2-12.68,8.94ZM331.35,239.23c-.07,2.95-1.26,5.74-3.34,7.85-.45.46-.93.93-1.45,1.4-1.74,1.61-3.62,3.06-5.63,4.33l-.85-12.85c-.06-.93.42-1.8,1.23-2.23,2.01-1.07,3.95-2.28,5.78-3.58,1.54-1.1,3.03-2.29,4.44-3.56l-.19,8.63Z"/>
      <path class="cls-6" d="M217.13,227.96c-4.05,2.45-9.49,1.28-12.14-2.62-2.66-3.9-1.82-9.25,1.91-12.18.65-.51.77-1.45.25-2.11-.51-.65-1.45-.77-2.11-.25-4.97,3.9-6.09,11.03-2.54,16.23,2.31,3.4,6.08,5.24,9.93,5.24,2.13,0,4.29-.57,6.25-1.75.71-.43.94-1.35.51-2.06s-1.35-.94-2.06-.51Z"/>
      <path class="cls-6" d="M186.92,224.84c-4.19,2.35-9.48,1.02-12.04-3.04-2.53-3.99-1.5-9.31,2.34-12.1.67-.49.82-1.43.33-2.1-.49-.67-1.43-.82-2.1-.33-5.11,3.73-6.47,10.81-3.1,16.13,2.27,3.61,6.17,5.6,10.16,5.6,2,0,4.02-.5,5.88-1.54.72-.41.98-1.32.57-2.04s-1.32-.98-2.04-.57Z"/>
    </g>
  </g>
  <g>
    <path class="cls-5" d="M167.89,114.9c.42.11.83.06,1.23-.13.41-.2.67-.6.79-1.21.14-.56.33-1.05.59-1.47.26-.42.59-.76.99-1.01.76-.47,1.56-.69,2.37-.67.81.02,1.66.13,2.53.35l1.82,8.56c-.6,0-1.22.06-1.87.2-.65.14-1.29.38-1.94.74-.58.33-1.12.74-1.61,1.23-.5.49-.9,1.04-1.23,1.66-.32.62-.53,1.28-.62,2-.09.71,0,1.45.26,2.22.07.22.16.43.25.62.09.19.19.37.29.53.39.65.88,1.15,1.47,1.5s1.22.57,1.91.65c.68.08,1.39.03,2.13-.15.73-.18,1.44-.47,2.11-.89,1.04-.63,1.88-1.44,2.53-2.42.65-.98,1.02-2.11,1.13-3.39.92.2,1.88.26,2.88.19,1-.07,2.03-.43,3.09-1.08,1.37-.83,2.37-2.01,3.05-3.49.31.19.63.35.99.45.51.13,1.05.17,1.61.11.56-.06,1.12-.22,1.68-.48.39-.18.76-.42,1.11-.69l.15,7.97c0,.47.08.86.28,1.16.2.3.45.52.74.66.3.14.62.2.97.18.35-.02.67-.12.95-.32.28-.19.52-.47.7-.83.18-.36.27-.81.25-1.35l-.5-21.65,1.79-.7c.55-.28.9-.63,1.06-1.05s.17-.8.05-1.15-.36-.62-.71-.8c-.35-.19-.76-.19-1.22-.02l-1.01.38-.09-4.73c-.02-.35.05-.65.19-.9.15-.25.34-.41.58-.49.33-.08.57-.04.74.14.17.18.27.45.29.82-.03.42.05.77.23,1.03.18.26.42.44.71.55.29.11.61.14.95.09.34-.04.65-.16.92-.36.27-.2.49-.47.64-.84.16-.36.19-.8.11-1.31-.1-.71-.33-1.34-.69-1.87-.36-.53-.79-.95-1.3-1.24-.51-.3-1.07-.48-1.68-.54-.61-.06-1.23.02-1.83.25-.53.2-1.02.47-1.48.81-.46.34-.86.75-1.2,1.23-.34.48-.6,1.02-.78,1.63-.18.61-.26,1.28-.23,2l.11,5.14-.64.24c-.71.27-1.17.62-1.4,1.06-.23.44-.29.86-.19,1.24.1.39.32.69.65.91s.71.25,1.12.1l.12-.05s.08-.04.14-.07c.06-.03.14-.07.24-.11l.07,3.48s-.02.01-.03.02c-.31.34-.45.76-.4,1.28.07.91.07,1.7.01,2.36-.06.65-.16,1.21-.3,1.66-.14.45-.32.81-.53,1.07-.21.26-.43.44-.67.55-.27.12-.53.14-.77.06-.24-.08-.41-.24-.51-.46-.05-.11-.08-.25-.1-.42l-.79-8.74c-.11-.78-.37-1.33-.81-1.65-.43-.31-.88-.43-1.34-.33-.46.09-.86.37-1.2.84-.34.46-.47,1.07-.4,1.83.06.65.13,1.34.2,2.07.07.73.14,1.46.2,2.2,0,.09.02.17.02.26-.07.07-.14.12-.2.2-.26.36-.34.81-.23,1.36.14.8.19,1.5.14,2.11-.04.6-.16,1.14-.34,1.6-.18.46-.43.86-.75,1.2-.32.34-.68.63-1.09.88-.39.24-.78.39-1.17.46-.39.07-.78.09-1.18.06-.4-.03-.81-.1-1.24-.2-.42-.1-.85-.21-1.29-.31l-1.8-8.13c.53.05,1.07.05,1.65,0,.58-.05,1.12-.25,1.62-.6.56-.34,1.01-.78,1.38-1.33.36-.55.61-1.16.75-1.81.13-.66.15-1.34.05-2.04-.1-.7-.33-1.36-.69-1.99-.38-.65-.83-1.18-1.35-1.57-.52-.39-1.06-.66-1.63-.81-.57-.15-1.14-.17-1.72-.08-.57.09-1.11.29-1.6.59-.86.52-1.58,1.2-2.18,2.02-.6.83-.95,1.88-1.06,3.16-.92-.2-1.89-.26-2.89-.18-1,.08-2.04.44-3.1,1.09-.98.59-1.75,1.28-2.32,2.06-.57.78-.95,1.78-1.13,3.01-.09.53.02.97.33,1.33.31.36.67.59,1.09.7ZM180.2,106.06c.14-.37.36-.65.66-.84.54-.33,1.02-.26,1.43.21.17.21.28.41.33.62.05.2.05.4,0,.59-.06.19-.15.36-.29.52-.13.15-.3.28-.51.39-.32.15-.63.2-.94.16-.31-.05-.57-.12-.79-.21-.06-.58-.02-1.05.12-1.43ZM178.72,125.3c-.27.68-.67,1.18-1.2,1.5-.45.27-.88.35-1.29.23-.41-.12-.73-.37-.96-.74-.04-.07-.09-.15-.14-.24s-.08-.17-.1-.26c-.14-.49-.11-.99.09-1.5s.55-.92,1.08-1.24c.41-.25.83-.39,1.29-.42.46-.03.94,0,1.45.1.13,1.03.06,1.89-.21,2.57Z"/>
    <path class="cls-5" d="M189.96,102.03c.56.21,1.11.19,1.65-.06.54-.25.92-.65,1.13-1.21s.19-1.12-.07-1.68c-.25-.54-.65-.92-1.2-1.12-.55-.2-1.11-.18-1.65.07-.54.25-.92.65-1.14,1.2-.21.55-.19,1.1.05,1.64.26.56.66.94,1.22,1.15Z"/>
    <path class="cls-5" d="M204.89,100.77c-.37.47-.67,1-.9,1.59-.23.59-.36,1.23-.39,1.92l-.2,4.77c0,.33,0,.66.03.98.03.32.09.62.17.91.23.76.6,1.39,1.12,1.9.52.51,1.13.89,1.84,1.14s1.49.38,2.35.37c.86,0,1.75-.15,2.68-.43.88-.26,1.73-.65,2.57-1.15.84-.51,1.59-1.15,2.26-1.91.67-.77,1.22-1.67,1.64-2.71.42-1.03.67-2.22.73-3.56.02-.56-.14-.94-.47-1.15-.33-.21-.7-.29-1.11-.23-.41.06-.79.24-1.13.54-.34.3-.51.69-.52,1.17-.07.83-.24,1.57-.53,2.22-.29.66-.65,1.23-1.08,1.73-.43.5-.91.91-1.45,1.24-.53.33-1.07.58-1.61.74-.93.28-1.72.29-2.38.05-.66-.24-1.08-.66-1.25-1.25-.07-.25-.1-.5-.08-.75l.06-.54c.44.12.9.19,1.39.19.49,0,.98-.07,1.49-.22.57-.17,1.1-.42,1.58-.76.48-.34.89-.73,1.23-1.18.34-.45.61-.95.8-1.51.19-.55.29-1.14.29-1.76-.02-.55-.09-1.03-.21-1.45-.18-.61-.46-1.13-.84-1.58-.38-.45-.83-.8-1.36-1.05-.53-.26-1.12-.41-1.77-.45-.66-.04-1.34.04-2.04.25-.56.17-1.08.41-1.58.73-.5.32-.94.72-1.31,1.19ZM207.48,103.54c.04-.43.16-.8.38-1.09.22-.29.47-.48.75-.57.35-.11.67-.06.96.13.29.19.48.46.59.82.07.22.09.43.08.64,0,.37-.1.67-.29.92-.19.25-.43.45-.72.59-.29.14-.6.23-.92.28-.33.04-.63.03-.9-.03l.08-1.67Z"/>
    <path class="cls-5" d="M220.51,92.15c.36,0,.71-.03,1.06-.1.93-.18,1.7-.56,2.31-1.12.61-.56.97-1.26,1.09-2.1v.03c.06-.37.04-.78-.05-1.23-.1-.48-.29-.92-.58-1.3-.29-.38-.7-.64-1.23-.77l-.14-.05.03.02c-.34-.08-.66-.09-.97-.02-.19.04-.37.1-.54.17-.17.08-.34.19-.51.33-.29.27-.49.59-.61.95-.12.36-.14.73-.07,1.09.07.38.25.71.52,1h-.03c.14.16.3.29.48.39.18.11.36.19.53.25-.13.17-.3.31-.51.41s-.44.15-.67.14c-.36-.02-.64.06-.84.25-.2.18-.31.4-.33.64-.02.24.05.47.23.68.18.21.45.32.83.34Z"/>
    <path class="cls-5" d="M224.24,105c-.05.45-.06.88,0,1.3.08.65.29,1.23.65,1.74.36.52.82.95,1.37,1.3.55.35,1.18.61,1.88.78.7.17,1.43.22,2.18.17.46,0,1.04-.1,1.74-.29.7-.2,1.37-.53,1.99-1,.63-.47,1.14-1.1,1.53-1.88.4-.78.53-1.75.39-2.9-.09-.77-.34-1.49-.75-2.16s-.84-1.29-1.28-1.86c-.31-.42-.61-.84-.89-1.25-.28-.41-.47-.81-.56-1.21.33-.18.59-.43.77-.75.18-.32.29-.67.32-1.05,0-.28-.05-.56-.15-.83-.1-.27-.24-.51-.43-.71s-.4-.36-.67-.49c-.26-.13-.54-.2-.82-.22v.03c-.19-.01-.37,0-.54.04-.16.04-.32.08-.48.14-.29.1-.58.29-.86.55-.29.26-.56.63-.8,1.1-.39,1.05-.8,2.11-1.23,3.17-.43,1.06-.84,2.12-1.25,3.17-.42.15-.79.4-1.08.72-.3.33-.54.7-.71,1.1-.17.41-.29.84-.34,1.29ZM229.75,105.9c.44-.33.74-.74.91-1.23.17-.49.19-1,.08-1.52-.11-.53-.38-.95-.79-1.28l.18-.52c.56.54,1.03,1.17,1.4,1.91.38.74.5,1.48.38,2.24-.08.49-.28.87-.6,1.15-.31.27-.7.45-1.15.52-.45.05-.87,0-1.25-.13-.38-.14-.66-.38-.84-.71.68.06,1.24-.07,1.68-.41Z"/>
    <path class="cls-5" d="M247.1,108.02c.45.39.97.69,1.57.91s1.25.35,1.93.38c1.62.07,3.09-.41,4.43-1.42.14.2.28.41.45.59.42.44.92.8,1.5,1.08.58.28,1.2.47,1.87.56,1.03.14,2.01.06,2.93-.24.93-.3,1.73-.88,2.42-1.74.49.21,1,.35,1.54.42.77.11,1.51.07,2.22-.09,0,0,0,0,.01,0,.02.15.01.3.05.44.14.6.4,1.13.77,1.6.37.47.83.88,1.38,1.21.55.34,1.15.58,1.8.75.58.14,1.17.21,1.77.19.6-.01,1.18-.11,1.73-.28.55-.17,1.06-.42,1.52-.75.46-.33.86-.74,1.2-1.24.58-.87,1.18-1.76,1.8-2.68.62-.91,1.22-1.8,1.8-2.65.4-.61.68-1.19.82-1.75.17-.67.18-1.3.04-1.91-.14-.61-.39-1.15-.76-1.64-.37-.49-.82-.91-1.37-1.26-.55-.35-1.14-.61-1.79-.77-.58-.14-1.17-.2-1.77-.18-.6.02-1.19.13-1.75.31s-1.09.46-1.58.82c-.49.36-.91.8-1.28,1.33l-1.41,2.11s0,0,0,0c-.45.15-.8.5-1.05,1.05-.41.78-.93,1.38-1.57,1.81-.64.43-1.34.59-2.13.48-.05,0-.11-.02-.18-.02-.07,0-.13-.03-.18-.05,0,.02,0-.07.02-.25.02-.18.02-.4,0-.65.19-.1.39-.27.6-.5.13-.14.29-.39.5-.74s.41-.73.61-1.14c.2-.41.38-.81.54-1.22.16-.4.27-.74.32-.99.14-.65.13-1.27-.05-1.86-.18-.58-.47-1.1-.88-1.56-.41-.46-.92-.83-1.52-1.13-.61-.3-1.26-.49-1.96-.59-.61-.08-1.22-.08-1.82,0s-1.18.25-1.72.5-1.03.57-1.48.98-.81.89-1.1,1.43l-1.99,3.78c-.19.17-.35.38-.47.66-.59,1.43-1.28,2.48-2.08,3.14-.8.66-1.58.97-2.35.94-.47-.02-.84-.16-1.1-.42-.26-.26-.38-.56-.37-.92.01-.23.05-.42.13-.58l2.82-6.92,1.71.08c.6.03,1.08-.11,1.44-.42s.59-.66.67-1.05c.08-.39.01-.76-.2-1.09-.21-.34-.6-.52-1.16-.54l-1.19-.05,1.96-4.87c.18-.5.14-.95-.14-1.34-.27-.39-.64-.65-1.09-.79-.45-.13-.92-.11-1.42.08-.49.19-.86.61-1.1,1.27l-2.25,5.47-1.1-.05c-.67-.03-1.17.11-1.5.42-.33.31-.53.66-.59,1.06-.06.39,0,.76.2,1.09.2.34.49.51.87.53l.87.04c-.22.55-.42,1.07-.62,1.54-.2.48-.39.95-.58,1.41-.19.47-.38.94-.57,1.41-.2.47-.4.99-.62,1.54v-.03c-.24.62-.37,1.21-.39,1.75-.03.67.08,1.27.34,1.81.26.54.61,1,1.05,1.39ZM275.72,101.78c.32-.46.67-.77,1.06-.92.39-.15.77-.18,1.13-.09.39.1.68.29.87.57.19.28.24.58.16.91-.05.19-.12.35-.23.49l-3.71,5.6c-.32.46-.68.79-1.1.96-.42.18-.82.22-1.22.12-.34-.09-.6-.27-.78-.56-.17-.29-.22-.61-.13-.97.02-.09.05-.18.1-.29.04-.11.11-.21.19-.32l3.66-5.5ZM259.67,102.21c.48-.88,1.1-1.97,1.86-3.25.2-.42.48-.72.86-.91.37-.19.76-.26,1.16-.2.4.06.71.22.92.49.21.27.3.55.26.85-.03.24-.14.54-.31.9-.17.36-.32.67-.45.94-.05.12-.1.23-.15.33-.05.1-.09.2-.12.3-.36-.09-.71-.09-1.05-.02-.34.07-.65.2-.93.4-.28.2-.52.46-.72.78s-.32.67-.37,1.05c-.04.46.01.83.17,1.11s.34.55.56.8c-.02.01-.03.03-.03.05-.24.43-.55.75-.93.95-.38.2-.77.28-1.15.23-.44-.06-.73-.2-.87-.43-.15-.22-.22-.48-.21-.76,0-.28.05-.56.15-.82.1-.26.18-.47.26-.62.27-.57.65-1.29,1.12-2.18Z"/>
    <path class="cls-5" d="M290.24,118.06c.51.5,1.11.93,1.78,1.28.19.09.43.18.71.29.28.11.52.19.73.25,1.29.51,2.51.87,3.65,1.08.54.1,1.06.15,1.58.17.04.35.13.67.34.93.3.36.71.57,1.25.64.54.06,1.1-.14,1.68-.61l7.27-6.01c.5-.29,1.02-.48,1.54-.55s.96-.01,1.31.2c.23.14.37.32.43.55.06.23.02.45-.1.66-.09.15-.2.27-.33.35l-4.4,3.67v-.02c-.49.44-.88.88-1.15,1.33-.32.53-.49,1.06-.52,1.59-.03.53.04,1.04.23,1.52.19.48.46.92.83,1.32.36.4.79.75,1.27,1.03.54.32,1.15.56,1.83.71.6.13,1.26.13,1.96.04.02.16.03.33.07.49.15.59.41,1.15.77,1.68.37.53.82,1,1.35,1.41.83.63,1.72,1.04,2.67,1.24.95.2,1.94.09,2.97-.33.32.42.7.8,1.13,1.12.62.47,1.28.8,1.98,1.01.7.2,1.42.3,2.14.28.72-.02,1.42-.14,2.11-.38.04-.02.09-.04.13-.05.22-.03.44-.1.66-.22l3.78-1.87c.11.2.22.4.35.61.12.21.21.43.24.65.04.22.02.43-.06.63s-.27.38-.56.54l-3.05,1.55c-.57.3-1.04.64-1.39,1.01-.4.42-.67.87-.84,1.36-.16.48-.22.97-.17,1.45.05.49.19.96.41,1.43s.54.88.94,1.26c.93.87,2.14,1.32,3.61,1.39-.02.22-.04.44-.03.66.03.59.18,1.18.45,1.76.27.58.63,1.13,1.08,1.64,1.14,1.27,2.59,2.01,4.36,2.22,1.77.21,3.72-.14,5.84-1.03.46-.2.72-.49.79-.87.07-.38,0-.75-.18-1.09-.19-.35-.5-.62-.91-.81-.41-.2-.87-.2-1.38,0-1.44.58-2.67.82-3.7.72-1.03-.11-1.8-.45-2.32-1.02-.32-.35-.47-.71-.47-1.08,0-.37.13-.67.4-.9.17-.15.34-.26.5-.31l6.91-2.83,1.14,1.28c.4.44.84.69,1.31.73.48.05.88-.04,1.22-.26.33-.22.55-.52.64-.91.09-.39-.05-.79-.43-1.21l-.79-.88,4.85-2.02c.48-.22.77-.57.86-1.04.09-.47.02-.91-.2-1.33-.22-.42-.57-.73-1.05-.95-.48-.22-1.04-.18-1.68.11l-5.48,2.23-.74-.82c-.45-.5-.9-.75-1.35-.77-.45-.02-.84.09-1.17.32-.32.23-.54.53-.64.91-.1.37-.02.71.24.99l.58.65c-.55.23-1.06.45-1.53.64-.48.19-.95.39-1.41.58-.16.07-.33.13-.49.2-.28-.02-.56.02-.85.19-.62.31-1.23.56-1.81.76-.59.2-1.12.34-1.61.42-.49.08-.92.11-1.29.07-.38-.04-.66-.15-.87-.35-.14-.13-.2-.28-.17-.43.03-.16.11-.3.24-.45.13-.14.29-.26.47-.35l4.09-2.09c.24-.13.46-.27.66-.41.19-.14.37-.3.53-.46.43-.46.68-.97.73-1.53.06-.56.01-1.13-.13-1.69-.14-.57-.34-1.11-.58-1.61s-.47-.93-.67-1.26c.34-.19.6-.43.78-.73.18-.3.28-.63.31-.97.03-.34,0-.68-.13-1.02-.12-.34-.3-.63-.56-.87-.4-.37-.84-.59-1.33-.64-.49-.05-.95.05-1.38.3-.2.08-.39.19-.58.33-.19.14-.35.27-.48.42-.48.51-.75,1.12-.8,1.82l-2.85,1.42c-.32.03-.65.14-.99.38-.74.48-1.49.75-2.25.81-.76.06-1.46-.15-2.09-.63-.04-.03-.09-.07-.15-.11-.06-.04-.1-.09-.13-.13-.01.01.04-.06.14-.21.1-.15.21-.34.32-.57.21,0,.47-.04.77-.14.18-.06.45-.2.8-.4.36-.21.72-.44,1.09-.69.37-.26.73-.52,1.07-.79.34-.27.6-.51.77-.71.45-.5.74-1.05.87-1.64.13-.6.13-1.19,0-1.79-.13-.6-.39-1.17-.77-1.73-.38-.56-.85-1.05-1.41-1.47-.49-.37-1.02-.67-1.59-.89-.57-.22-1.15-.36-1.74-.41-.59-.05-1.18,0-1.77.13-.59.14-1.14.37-1.66.71l-5.26,3.39c-.25.18-.48.36-.7.55-.46.25-.9.44-1.3.55-.96.26-1.7.23-2.21-.07-.21-.13-.35-.28-.41-.47-.06-.19-.04-.37.06-.53.06-.11.14-.19.24-.25l4.99-4.15c.39-.34.7-.71.93-1.1.27-.45.44-.93.51-1.42.07-.49.04-.97-.08-1.43s-.34-.9-.64-1.3c-.3-.41-.68-.74-1.13-1.01-.51-.31-1.06-.5-1.63-.57l3.36-2.85c.44-.33.74-.68.91-1.06s.22-.72.18-1.05-.18-.61-.4-.85c-.22-.24-.5-.41-.84-.5-.34-.09-.71-.07-1.13.05-.42.12-.85.37-1.29.77l-11.51,9.5c-.87.56-1.78.91-2.76,1.01.11-.15.2-.29.28-.42s.16-.28.23-.44c.32-.7.48-1.45.47-2.24,0-.79-.05-1.54-.13-2.25-.05-.53-.09-1.04-.11-1.53s.02-.94.14-1.33c.38.02.73-.06,1.05-.24.32-.18.59-.42.81-.73.15-.24.25-.5.3-.79.05-.29.05-.56,0-.83-.05-.27-.16-.52-.32-.77-.16-.25-.36-.45-.59-.62v.02c-.17-.11-.33-.19-.49-.25-.16-.05-.32-.1-.48-.13-.3-.06-.64-.05-1.03.02-.38.08-.8.25-1.26.53-.88.7-1.78,1.39-2.69,2.08-.91.69-1.81,1.37-2.71,2.07-.44-.09-.88-.07-1.3.06-.42.13-.82.32-1.18.58-.36.26-.68.57-.96.92-.28.36-.51.73-.68,1.11-.27.59-.38,1.2-.34,1.83.04.63.21,1.23.5,1.82s.7,1.13,1.21,1.64ZM322.13,123.65c.38-.26.78-.39,1.19-.37.42.02.79.15,1.11.39.32.24.51.54.56.87.05.34-.01.63-.19.86-.15.2-.39.41-.71.63-.33.23-.61.42-.85.6-.1.08-.2.15-.29.21-.09.06-.18.13-.26.2-.27-.25-.57-.43-.9-.54-.33-.11-.67-.14-1.01-.11-.35.04-.68.14-1.01.33-.33.18-.61.43-.84.74-.26.37-.4.73-.4,1.05,0,.33.03.65.09.97-.02,0-.04.01-.05.03-.42.26-.84.38-1.28.37-.43-.01-.8-.13-1.11-.37-.35-.27-.53-.53-.55-.8-.02-.27.04-.52.19-.77.14-.24.32-.46.53-.64.21-.18.39-.32.53-.41.52-.36,1.2-.81,2.05-1.34.85-.54,1.92-1.17,3.21-1.92ZM293.82,115.28c.55-.06,1.02-.25,1.41-.59.39-.33.68-.75.85-1.26.17-.51.17-1.01-.01-1.5l.42-.36c.2.75.27,1.53.21,2.36-.06.82-.33,1.53-.83,2.11-.32.37-.69.6-1.1.67-.41.07-.83.02-1.25-.15-.42-.19-.75-.44-1-.76s-.37-.66-.35-1.04c.55.41,1.1.58,1.65.52Z"/>
    <path class="cls-5" d="M352.27,154.15c-.58.15-1.11.28-1.61.4-.5.12-.99.24-1.48.36s-.98.24-1.48.36c-.5.12-1.04.25-1.61.4h.02c-.64.16-1.19.39-1.65.69-.56.37-.98.81-1.27,1.33-.29.52-.46,1.08-.51,1.67s0,1.19.18,1.81c.17.62.45,1.21.82,1.79.9,1.37,2.17,2.29,3.79,2.78-.11.28-.19.56-.25.86-.1.59-.09,1.21.03,1.84.12.63.34,1.24.66,1.83.28.53.63,1.01,1.05,1.44.41.44.87.8,1.37,1.09.5.29,1.02.5,1.58.62.55.12,1.13.14,1.72.06,1.03-.16,2.1-.31,3.19-.46,1.1-.15,2.15-.3,3.17-.45.72-.11,1.34-.3,1.85-.58.6-.33,1.08-.74,1.44-1.25.35-.51.59-1.07.7-1.67.12-.6.12-1.22.01-1.86s-.32-1.26-.63-1.84c-.28-.53-.64-1.01-1.06-1.44-.42-.43-.89-.79-1.41-1.08-.52-.29-1.07-.5-1.66-.62-.59-.12-1.21-.14-1.84-.06l-3.96.59c-.32-.13-.67-.19-1.09-.1-1.51.36-2.76.41-3.76.15-1-.26-1.71-.71-2.14-1.36-.26-.4-.36-.78-.31-1.14.06-.36.23-.64.53-.84.19-.13.37-.2.54-.23l7.25-1.77.94,1.43c.33.5.72.81,1.19.92.46.12.88.09,1.24-.07.36-.17.62-.43.77-.8.15-.37.07-.79-.24-1.26l-.65-.99,5.1-1.26c.51-.15.85-.45,1-.9s.16-.9,0-1.34c-.16-.45-.45-.81-.9-1.1-.44-.29-1-.34-1.67-.15l-5.75,1.38-.6-.92c-.37-.56-.77-.88-1.22-.97s-.85-.04-1.2.14c-.35.18-.61.45-.77.8-.16.36-.13.69.08,1.02l.48.73ZM358.35,165.86c.56-.08,1.02-.02,1.39.17.37.19.65.45.82.78.19.36.25.7.16,1.03-.08.33-.27.57-.57.73-.17.09-.34.14-.52.16l-6.64,1.02c-.56.08-1.04.02-1.45-.17-.41-.19-.71-.46-.91-.82-.17-.31-.2-.63-.11-.95.1-.32.31-.57.63-.75.08-.04.17-.08.28-.12.11-.04.23-.06.36-.08l6.53-.99Z"/>
    <path class="cls-5" d="M362.88,183.31c-.38-.23-.78-.39-1.22-.48-.44-.09-.88-.12-1.33-.09-.45.03-.88.11-1.28.24-.62.2-1.15.52-1.58.98-.44.45-.77.99-1.01,1.6-.24.61-.37,1.28-.4,2-.03.72.06,1.44.25,2.18.06.2.15.44.26.72s.21.51.31.7c.49,1.3,1.04,2.44,1.65,3.43.26.42.55.8.85,1.17-.23.37-.33.77-.27,1.23.06.49.27.95.63,1.38.36.43.84.67,1.44.73l5.13.74c-.22.33-.35.64-.39.94-.04.29-.03.56.03.8s.14.45.25.64c.11.18.2.32.27.42.05.08-.02.1-.23.06-.21-.04-.38-.07-.53-.09-.76-.12-1.47-.11-2.12.03-1,.2-1.75.68-2.24,1.42-.49.75-.61,1.76-.35,3.03.18.88.5,1.66.97,2.33.25.37.55.7.87,1.01-.09.11-.18.2-.26.32-.28.45-.48.95-.6,1.5-.11.55-.14,1.13-.06,1.75.03.26.09.52.16.77l-3.92-1.26c-.48-.16-.89-.2-1.23-.11-.34.09-.61.26-.82.5-.2.24-.34.53-.41.87-.07.34-.06.67.03,1,.09.33.25.64.49.91.24.27.55.47.94.58.44.15.93.3,1.45.47.52.17,1.06.34,1.61.51.55.17,1.09.33,1.61.49.52.16,1.01.31,1.45.46-.25.36-.45.75-.6,1.18-.15.43-.21.9-.2,1.43-.02.33-.04.67-.05,1.02,0,.34,0,.67,0,.99.04,1.28.21,2.47.53,3.57.31,1.1.77,2.09,1.38,2.98s1.37,1.66,2.3,2.32c.92.66,2.02,1.19,3.28,1.59.37.11.7.13.98.05.28-.08.5-.22.66-.43s.27-.45.32-.73c.05-.28.04-.56-.05-.83-.09-.27-.25-.52-.48-.76-.24-.24-.55-.42-.94-.53-1.1-.39-2.01-.94-2.73-1.65-.72-.71-1.25-1.52-1.61-2.42.14.07.25.11.32.14.07.02.15.05.24.09,1.01.34,2.06.68,3.13,1.03s2.13.69,3.16,1.03c.44.15.9.21,1.38.2.53-.02,1.03-.13,1.51-.35.48-.22.89-.5,1.23-.87.34-.36.61-.78.81-1.25.2-.47.29-.96.27-1.47-.01-.35-.06-.72-.14-1.1-.08-.39-.25-.72-.5-1.01.19.01.37-.06.53-.23.16-.16.29-.37.39-.62.1-.25.15-.53.15-.85,0-.32-.05-.62-.16-.91-.11-.29-.28-.55-.52-.78-.24-.23-.56-.39-.95-.49l-6.13-1.97c-.21-.2-.46-.36-.79-.43-.89-.22-1.64-.45-2.25-.71-.6-.26-1.1-.52-1.48-.8-.39-.27-.67-.55-.85-.83-.18-.28-.29-.55-.32-.81-.03-.3.02-.55.18-.75.15-.2.35-.32.6-.35.12-.01.27,0,.43.03l8.56,1.94c.78.14,1.38.05,1.82-.26.43-.31.67-.71.73-1.17.05-.47-.09-.93-.43-1.4-.34-.47-.88-.78-1.62-.94-.64-.14-1.31-.29-2.03-.44-.72-.16-1.43-.32-2.15-.48-.72-.17-1.43-.33-2.14-.48-.71-.16-1.38-.31-2.01-.45-.06-.01-.13-.01-.18-.03-.43-.14-.83-.31-1.17-.5-.84-.47-1.33-1.04-1.46-1.69-.07-.33.04-.52.32-.58.21-.04.45-.05.73-.01l1.19.14h-.03c.39.03.76.01,1.13-.06.31-.06.59-.16.84-.29.25-.13.45-.31.6-.54.28.32.62.6,1.02.86.4.25.88.42,1.44.5.52.07,1,.07,1.45-.02.5-.1.96-.29,1.38-.58.42-.28.77-.63,1.05-1.03s.47-.86.59-1.37c.11-.51.11-1.05,0-1.61-.05-.24-.11-.46-.17-.66-.07-.2-.17-.41-.31-.64l4.3.64c.54.09.99.06,1.35-.09.36-.15.65-.35.84-.63.2-.27.31-.59.33-.94.03-.36-.04-.69-.21-1.01-.16-.32-.42-.59-.76-.82-.34-.23-.78-.36-1.3-.39l-13.4-1.87c-.06,0-.1-.03-.16-.03-1.63-.13-2.97-.66-4.03-1.62.18-.02.35-.05.5-.08.16-.03.32-.07.49-.13.74-.24,1.39-.62,1.97-1.16.58-.54,1.1-1.07,1.58-1.61.36-.39.71-.76,1.06-1.11.35-.35.71-.61,1.08-.79.24.29.54.5.89.62.35.12.71.15,1.09.11.28-.05.54-.15.79-.31.25-.15.45-.34.61-.56s.28-.47.36-.75c.08-.28.1-.57.06-.85h-.02c-.03-.19-.07-.36-.14-.51s-.14-.3-.22-.44c-.16-.26-.39-.51-.71-.74-.31-.23-.73-.42-1.24-.57-1.11-.18-2.22-.38-3.34-.59-1.12-.21-2.24-.42-3.35-.62-.23-.39-.54-.69-.92-.92ZM374.01,223.09c.26.36.38.73.38,1.1-.02.4-.21.69-.54.86-.34.17-.76.17-1.28.01-.53-.14-1-.28-1.41-.41-.41-.13-.81-.25-1.2-.37-.39-.12-.79-.25-1.2-.39-.41-.14-.87-.29-1.39-.45-.41-.13-.73-.35-.96-.67-.23-.32-.36-.65-.39-1-.01-.42.12-.76.41-1.01.28-.25.71-.3,1.27-.14l5.25,1.67-.03-.05c.46.21.82.5,1.08.87ZM370.78,200.45c.51.15.93.38,1.26.69.32.31.52.66.6,1.04.07.33.04.62-.08.86-.12.25-.33.4-.62.46-.17.04-.34.03-.51,0-.32-.06-.61-.2-.86-.4-.26-.21-.46-.46-.61-.75,0-.45-.06-.86-.17-1.23-.11-.37-.25-.66-.42-.86l1.41.2ZM364.51,187.74l.55.07c-.42.65-.95,1.23-1.6,1.75-.65.51-1.36.78-2.12.8-.5.01-.91-.11-1.24-.36s-.57-.6-.73-1.03c-.14-.44-.18-.85-.11-1.25.07-.4.24-.72.54-.96.07.68.31,1.2.72,1.57.41.37.87.58,1.38.65.51.07,1.01,0,1.51-.22.49-.21.86-.55,1.1-1.02Z"/>
    <path class="cls-5" d="M383.54,212.96c-.46-.37-.99-.52-1.58-.46-.61.07-1.1.34-1.47.81-.37.47-.52,1-.45,1.59.07.59.34,1.08.8,1.45.47.37,1.01.52,1.62.45.59-.07,1.07-.34,1.43-.8.36-.47.51-1,.44-1.59-.07-.59-.33-1.08-.79-1.45Z"/>
    <path class="cls-5" d="M380.25,254.53l-5.67-3.07c.5-.33.92-.75,1.25-1.25.33-.51.55-1.06.65-1.67.07-.42.08-.85.03-1.3-.05-.45-.17-.89-.35-1.3-.18-.41-.43-.8-.76-1.17s-.71-.67-1.17-.93l-6.45-3.54c-.23-.13-.47-.23-.71-.32-.24-.08-.49-.15-.73-.19-.57-.09-1.12-.07-1.63.07-.51.14-.97.37-1.37.68-.4.32-.73.71-.99,1.17-.26.46-.44.97-.53,1.53-.1.59-.09,1.21.02,1.85.11.64.35,1.26.71,1.85-.53.32-.99.76-1.37,1.33-.38.56-.62,1.18-.73,1.86-.11.64-.09,1.32.04,2.04s.42,1.44.87,2.17c.06.1.15.2.22.3-.3.15-.59.33-.87.54-.59.46-1.12,1.06-1.57,1.79-.45.73-.8,1.56-1.06,2.5-.24.88-.38,1.81-.39,2.79-.02.98.12,1.96.42,2.93.02.05.05.1.06.16-.21.08-.42.16-.63.28-.57.32-1.1.75-1.57,1.29-.48.54-.87,1.15-1.18,1.85-.08.2-.16.44-.26.72-.09.28-.16.53-.21.74-.44,1.32-.74,2.55-.89,3.7-.14,1.1-.12,2.14.06,3.13-.21.06-.42.11-.62.2-.6.26-1.17.63-1.7,1.12-.53.49-.99,1.06-1.37,1.71-.1.19-.21.42-.33.69-.12.27-.22.51-.28.71-.58,1.26-1.01,2.46-1.28,3.59-.27,1.13-.36,2.21-.27,3.26.02.2.07.39.1.59-.37.05-.75.14-1.12.27-.71.26-1.39.67-2.04,1.23-.65.56-1.25,1.24-1.78,2.05-.5.76-.91,1.61-1.23,2.54-.32.93-.49,1.9-.5,2.92-.02,1.02.14,2.06.48,3.13.32.99.86,1.98,1.58,2.96l1.89,3.21c-.19.12-.38.25-.59.39s-.41.24-.63.29c-.21.05-.42.05-.63-.02-.21-.07-.4-.24-.58-.52l-1.77-2.93c-.35-.55-.72-.99-1.11-1.31-.45-.36-.92-.61-1.41-.74-.49-.13-.98-.15-1.46-.06-.48.08-.95.26-1.39.52-.45.26-.84.6-1.18,1.03-.8.99-1.16,2.22-1.13,3.68-.22,0-.43-.01-.65.02-.59.08-1.16.27-1.73.57-.56.31-1.08.71-1.56,1.2-1.18,1.23-1.81,2.73-1.89,4.51-.08,1.78.4,3.7,1.45,5.75.23.44.54.69.93.73s.75-.05,1.08-.26c.33-.22.58-.54.75-.97s.13-.89-.1-1.38c-.68-1.39-1.01-2.6-.98-3.64.03-1.03.31-1.83.85-2.38.33-.34.68-.52,1.04-.55.37-.02.68.09.93.33.16.16.28.32.35.48l3.33,6.68-1.19,1.23c-.41.43-.63.88-.64,1.36-.01.48.11.88.35,1.2.24.32.56.51.95.57.39.06.78-.11,1.17-.52l.82-.85,2.36,4.69c.26.47.62.73,1.1.78.47.05.91-.04,1.31-.29.4-.25.69-.62.87-1.12.18-.49.11-1.05-.23-1.66l-2.62-5.3.76-.79c.46-.48.69-.95.67-1.4-.01-.45-.15-.83-.4-1.14-.25-.31-.57-.5-.95-.57-.38-.07-.7.03-.97.31l-.6.63c-.27-.53-.52-1.02-.75-1.48-.23-.46-.45-.92-.68-1.36-.08-.16-.16-.33-.25-.49,0-.27-.07-.54-.25-.8-.35-.6-.65-1.19-.89-1.75-.24-.57-.42-1.09-.54-1.57-.12-.48-.17-.91-.16-1.29.01-.38.11-.67.28-.89.12-.15.26-.22.42-.2.16.01.31.08.46.2.15.12.28.27.38.45l2.38,3.93c.15.23.3.44.46.63.16.18.32.35.5.49.49.4,1.02.61,1.58.62.56.02,1.12-.07,1.68-.25.56-.18,1.08-.42,1.57-.7.49-.28.89-.53,1.2-.75.21.33.47.57.79.72.32.15.65.24.99.24.34,0,.68-.06,1.01-.2.33-.14.6-.35.83-.62.34-.42.52-.88.54-1.38.02-.5-.11-.95-.39-1.36-.1-.19-.22-.37-.37-.55-.15-.18-.3-.33-.45-.45-.55-.44-1.17-.67-1.87-.67l-2.82-4.77c-.08-.12-.16-.21-.24-.3-.26-.45-.47-.9-.61-1.36-.2-.69-.29-1.36-.28-2.02.01-.66.11-1.28.31-1.88.19-.6.45-1.13.76-1.6.53-.81,1.13-1.33,1.79-1.57.66-.24,1.25-.19,1.76.15.22.15.4.32.54.52l.3.45c-.42.19-.81.44-1.19.75-.37.31-.71.69-1,1.13-.33.5-.57,1.03-.72,1.59-.15.56-.21,1.13-.18,1.69.03.57.15,1.12.35,1.67.21.55.51,1.06.92,1.53.36.41.73.73,1.1.97.53.35,1.08.57,1.66.67.58.1,1.15.07,1.72-.07.57-.14,1.12-.41,1.65-.8.53-.39,1-.89,1.4-1.51.32-.48.57-1.01.74-1.58.17-.57.26-1.15.24-1.75-.02-.6-.13-1.2-.33-1.8-.21-.6-.52-1.17-.93-1.72l-2.91-3.78c-.21-.26-.42-.51-.65-.73-.01-.01-.02-.02-.03-.03-.43-.82-.69-1.67-.73-2.56.14.11.28.21.41.3s.28.17.43.26c.69.36,1.42.55,2.21.59.79.03,1.54.03,2.25-.01.53-.02,1.04-.03,1.53-.03.49,0,.93.07,1.32.21-.04.38.02.73.19,1.06.16.33.39.62.69.85.23.16.49.28.77.34.28.07.56.08.82.04.27-.04.53-.13.78-.27.25-.15.47-.33.65-.56h-.02c.12-.17.21-.32.27-.48.06-.16.11-.31.16-.47.08-.3.09-.64.03-1.03-.06-.39-.21-.81-.46-1.28-.65-.92-1.3-1.85-1.93-2.79-.59-.88-1.18-1.75-1.78-2.61.07-.2.12-.41.13-.64.01-.27-.09-.52-.25-.76,0-.04,0-.08-.01-.12-.1-.43-.27-.83-.52-1.21s-.53-.71-.87-1.01c-.18-.15-.37-.26-.56-.38-.21-.48-.38-.97-.46-1.49.15.1.3.18.44.26.14.07.29.14.46.21.72.28,1.47.4,2.26.35.78-.05,1.53-.13,2.24-.25.52-.08,1.03-.14,1.52-.19.49-.05.94-.03,1.33.07,0,.38.1.72.3,1.04.2.31.46.57.77.77.25.14.52.22.8.26.29.04.56.02.82-.04.26-.07.51-.19.75-.36.24-.17.43-.38.59-.62h-.02c.1-.18.18-.34.22-.5s.08-.32.11-.48c.04-.3.02-.65-.08-1.02-.1-.38-.3-.79-.59-1.23-.75-.84-1.48-1.7-2.22-2.57-.66-.79-1.33-1.57-1.99-2.35.05-.26.07-.53.02-.82-.05-.29-.18-.52-.36-.72,0,0,0,0,0,0-.15-.42-.36-.8-.64-1.14-.28-.35-.6-.65-.97-.91-.18-.13-.37-.2-.56-.31-.28-.47-.51-.95-.66-1.44-.19-.63-.29-1.26-.28-1.88,0-.63.08-1.21.23-1.76.26-.93.67-1.61,1.22-2.04.56-.43,1.13-.56,1.73-.4.25.07.48.18.68.33l.43.34c-.34.31-.64.66-.9,1.08-.26.41-.46.87-.6,1.38-.16.58-.23,1.15-.2,1.74.03.58.14,1.14.34,1.67.2.53.48,1.02.85,1.48.36.46.81.85,1.34,1.18.47.28.92.47,1.34.59.61.17,1.2.21,1.79.13.58-.09,1.12-.28,1.61-.59.5-.31.94-.73,1.32-1.26.39-.53.68-1.15.87-1.86.16-.56.23-1.14.22-1.73,0-.6-.11-1.18-.31-1.74-.2-.57-.49-1.1-.87-1.61-.38-.51-.85-.96-1.42-1.35l-2.48-1.71s-.01-.03-.02-.04c-.16-.25-.38-.44-.68-.58-1.48-.85-2.52-1.66-3.1-2.43-.59-.77-.83-1.45-.73-2.04.04-.26.15-.45.33-.56.18-.11.37-.15.58-.12.17.03.32.09.45.18l13.99,7.56c.44.23.86.35,1.24.34.38,0,.72-.1.99-.28.28-.18.49-.41.64-.71.15-.3.2-.62.16-.96-.04-.35-.19-.69-.44-1.04-.26-.35-.65-.65-1.17-.91ZM352.84,299.8c-.2.31-.48.48-.82.52-.34.04-.67-.04-.97-.25-.19-.13-.35-.27-.47-.44-.24-.28-.36-.58-.37-.89-.01-.31.04-.62.17-.91.13-.29.31-.56.53-.8.22-.24.46-.43.71-.56l1.02,1.33c.25.35.39.71.41,1.08.02.36-.05.67-.21.92ZM354.95,285.07c-.82-.1-1.51-.42-2.07-.94-.36-.34-.56-.72-.61-1.14-.05-.41.02-.83.22-1.24.21-.41.48-.72.81-.96.33-.23.68-.33,1.06-.29-.43.53-.64,1.07-.61,1.62.03.55.2,1.03.51,1.44.31.41.72.72,1.22.92s1,.22,1.5.07l.33.44c-.76.16-1.55.19-2.37.09ZM360.44,273.17c-.83-.01-1.54-.25-2.15-.72-.39-.3-.63-.66-.73-1.07s-.07-.82.08-1.26c.17-.43.4-.77.71-1.04.3-.27.64-.4,1.02-.4-.38.57-.52,1.13-.43,1.67.09.54.31,1,.66,1.38.35.37.79.64,1.31.78.52.15,1.02.12,1.49-.09l.38.4c-.74.24-1.52.35-2.34.34ZM369.79,262.42c.13.34.16.65.08.94-.1.36-.3.6-.62.75-.31.14-.65.16-1,.06-.22-.06-.41-.15-.58-.27-.31-.2-.52-.44-.63-.74-.11-.3-.15-.6-.11-.92.03-.32.12-.63.26-.93.14-.3.31-.55.51-.75l1.38.96c.35.26.59.56.72.9ZM372.72,248.25c-.05.13-.08.2-.1.21,0,.02-.04.08-.13.19-.08.11-.23.2-.45.27-.22.07-.51.08-.89.03-.38-.05-.86-.23-1.45-.55l-2.53-1.38c-.45-.27-.81-.54-1.06-.81-.25-.27-.43-.52-.53-.76-.11-.23-.16-.44-.16-.63,0-.19.02-.34.07-.46.09-.2.21-.34.37-.41s.34-.1.52-.09c.18.01.36.05.54.11.18.06.33.13.46.21l3.81,2.01c.52.3.89.58,1.1.84.22.26.35.49.39.69.05.2.05.37,0,.49Z"/>
  </g>
  <path class="cls-5" d="M322.38,320.29c3.22,0,3.22-5,0-5s-3.22,5,0,5h0Z"/>
</svg>