<?xml version="1.0" encoding="UTF-8"?>
<svg id="Layer_1" data-name="Layer 1" xmlns="http://www.w3.org/2000/svg" xmlns:xlink="http://www.w3.org/1999/xlink" viewBox="0 0 595.28 841.89">
  <defs>
    <style>
      .cls-1, .cls-2, .cls-3, .cls-4 {
        fill: none;
      }

      .cls-2 {
        stroke: #988ec5;
        stroke-width: 2.3px;
      }

      .cls-2, .cls-3, .cls-4 {
        stroke-linecap: round;
        stroke-linejoin: round;
      }

      .cls-3 {
        stroke-width: 3px;
      }

      .cls-3, .cls-4 {
        stroke: #000;
      }

      .cls-5 {
        fill: #7ab4d2;
      }

      .cls-6 {
        fill: #fcec60;
      }

      .cls-7 {
        fill: #101010;
      }

      .cls-4 {
        stroke-width: 1.52px;
      }

      .cls-8 {
        fill: url(#New_Pattern);
      }
    </style>
    <pattern id="New_Pattern" data-name="New Pattern" x="0" y="0" width="283.46" height="283.46" patternTransform="translate(2084.1125 4024.8087) scale(.6795)" patternUnits="userSpaceOnUse" viewBox="0 0 283.46 283.46">
      <g>
        <rect class="cls-1" y="0" width="283.46" height="283.46"/>
        <path class="cls-2" d="M149.41,281.22c-2.64-.2-5.5.67-7.9,1.68-1.79.75-3.75,1.71-4.93,3.31-.64.87-1.04,2.18-.56,3.22.57,1.25,2.11,1.11,3.18.64,2.33-1.02,3.67-3.65,3.75-6.2.04-1.36-.23-2.75-.93-3.92s-1.85-2.1-3.18-2.39c-1.83-.4-3.69.4-5.3,1.37-1.73,1.04-3.42,2.31-4.82,3.78-.86.9-1.8,2.97-.63,4,.97.86,2.71.12,3.6-.53,1.91-1.39,3.18-3.75,3.9-5.95.79-2.4.91-5.44-1.19-7.22-1.45-1.23-3.58-1.4-5.42-.91-2.57.68-9.8,4.22-8.24,7.9.74,1.74,3.43,1.84,4.78.52,2.79-2.75,1.13-7.9-2.27-9.25-2.81-1.11-6.37.37-7.56,3.14"/>
        <path class="cls-2" d="M266.29,134.74c2.64-.17,5.35-1.43,7.59-2.76,1.67-.99,3.48-2.22,4.42-3.97.52-.96.73-2.3.11-3.27-.74-1.16-2.24-.8-3.24-.19-2.17,1.34-3.13,4.13-2.85,6.66.15,1.35.61,2.69,1.47,3.76s2.12,1.82,3.48,1.92c1.86.14,3.6-.91,5.05-2.09,1.57-1.27,3.07-2.77,4.25-4.41.72-1.01,1.37-3.19.07-4.05-1.08-.72-2.7.26-3.49,1.02-1.7,1.64-2.63,4.16-3.04,6.44-.45,2.49-.15,5.51,2.19,6.98,1.61,1.01,3.74.89,5.49.15,2.45-1.03,9.12-5.54,7.06-8.97-.97-1.62-3.66-1.35-4.8.15-2.38,3.12-.02,7.98,3.54,8.84,2.93.71,6.26-1.25,7.05-4.16"/>
        <g>
          <g>
            <path class="cls-7" d="M124.75,122.41c-.17-.33-.26-.71-.26-1.13,0-.11,0-.22.01-.33s.03-.24.06-.36c.1-.44.27-.81.52-1.12.25-.31.54-.56.86-.76s.68-.34,1.05-.43.74-.13,1.11-.12c.41.02.78.09,1.13.21.34.12.66.27.94.44l1.6-4.55c-.35-.35-.71-.64-1.09-.89-.38-.24-.81-.36-1.31-.36-.26,0-.51.06-.76.19s-.47.3-.7.52c-.23.25-.47.37-.72.34-.25-.02-.45-.12-.62-.29-.16-.17-.27-.38-.31-.64-.04-.26.03-.5.23-.72.44-.52.9-.89,1.39-1.09.49-.2,1.06-.31,1.69-.31.69,0,1.28.13,1.77.38.49.25.93.56,1.31.92.42-.57.88-.97,1.4-1.18.52-.22,1.05-.33,1.61-.33.32,0,.63.06.92.18.3.12.56.3.78.53s.41.52.54.85c.13.33.19.71.18,1.13,0,.4-.09.78-.25,1.13-.16.36-.36.67-.61.94s-.54.48-.87.64c-.33.16-.67.23-1.03.23-.34.02-.65-.04-.94-.18-.29-.14-.55-.3-.78-.47l-1.48,4.34c.17.17.35.35.52.52.17.17.34.32.52.45.18.13.37.24.57.31.2.08.43.12.68.12s.52-.03.76-.1c.25-.07.48-.18.7-.35.22-.16.42-.38.62-.65.19-.27.37-.61.54-1.03.05-.13.11-.23.18-.32.09-.26.18-.51.27-.77.14-.38.27-.77.4-1.15.13-.38.25-.74.37-1.08.13-.4.34-.67.62-.83s.54-.2.79-.15c.25.06.45.22.6.47.14.26.15.59.03,1.01l-1.6,4.56c-.03.09-.04.16-.04.23,0,.14.05.25.15.35s.23.14.4.14c.14,0,.3-.04.47-.12s.33-.22.51-.41c.17-.19.35-.45.53-.76.18-.31.36-.71.53-1.18.07-.21.2-.35.36-.46l.69-1.95c-.06,0-.11,0-.14,0-.04,0-.07,0-.09,0h-.07c-.24,0-.43-.09-.56-.27s-.18-.38-.16-.6c.02-.22.14-.42.34-.6s.51-.28.93-.28h.38l.94-2.67c.13-.38.3-.71.51-.99.21-.28.45-.51.72-.69.27-.18.55-.31.86-.4.31-.09.61-.13.92-.13.36,0,.69.08,1,.23s.56.35.76.6.35.55.43.89c.08.34.08.71,0,1.1-.06.28-.16.5-.31.65s-.31.26-.49.31-.36.05-.54,0c-.18-.04-.34-.12-.47-.23-.13-.11-.22-.25-.26-.42-.04-.17-.02-.36.08-.57.06-.19.06-.35,0-.48-.05-.13-.17-.2-.36-.22-.14,0-.27.04-.39.14s-.22.24-.28.43l-.87,2.46h.6c.27,0,.48.08.62.25.12.14.18.29.19.45.12-.12.25-.22.38-.31.27-.19.56-.33.88-.42.31-.09.63-.14.95-.14.41,0,.78.06,1.12.19.34.13.63.3.86.52.24.22.42.47.55.77.13.3.2.62.2.97,0,.24-.04.51-.12.8-.1.33-.24.62-.43.89-.19.26-.41.48-.66.67s-.53.33-.84.43c-.31.1-.62.15-.95.15-.29,0-.56-.04-.82-.12-.26-.08-.49-.18-.7-.32l-.12.28c-.05.13-.07.26-.07.41,0,.34.15.62.47.86.31.23.73.35,1.26.35.31,0,.63-.05.97-.14.33-.09.65-.23.96-.43s.59-.44.84-.74c.26-.3.47-.66.63-1.09.08-.25.23-.43.46-.54.23-.11.46-.14.68-.11.23.03.41.13.55.3.14.16.16.39.07.68-.24.7-.56,1.29-.94,1.77-.39.48-.82.87-1.29,1.17-.48.3-.97.52-1.5.65-.52.14-1.04.2-1.54.2-.53,0-1.03-.07-1.48-.2s-.85-.32-1.18-.57c-.33-.25-.6-.55-.79-.89-.19-.35-.29-.74-.29-1.18,0-.16.02-.33.05-.51.03-.17.08-.35.14-.52l.86-2.48c.05-.14.11-.27.17-.4-.09.03-.19.06-.3.08h-1.06s-3.95,11.27-3.95,11.27c-.1.28-.23.5-.39.65-.16.15-.34.25-.52.29-.18.04-.37.04-.55-.02s-.34-.15-.47-.28c-.13-.13-.21-.29-.25-.49-.04-.19-.02-.41.08-.65l1.52-4.28c-.33.1-.65.16-.98.16s-.66-.05-.95-.15c-.3-.1-.56-.24-.79-.42-.14-.11-.25-.24-.35-.39,0,0,0,0,0,0-.82.63-1.72.94-2.71.94-.69,0-1.28-.13-1.77-.38s-.92-.56-1.3-.92c-.42.57-.92.99-1.5,1.27-.59.28-1.21.41-1.88.41-.44,0-.85-.06-1.25-.19s-.75-.31-1.05-.54c-.3-.23-.54-.52-.71-.85ZM147.58,118.37c.14.08.29.13.47.16.18.03.36.03.53,0,.17-.03.33-.09.47-.2s.24-.25.3-.44c.04-.11.06-.22.06-.35,0-.2-.06-.38-.18-.52s-.28-.22-.49-.22c-.16,0-.33.06-.49.18-.16.12-.28.29-.37.52l-.31.87ZM134.44,113.79c.08.11.18.22.31.33.13.11.29.18.49.2.13,0,.24,0,.35-.04.11-.03.2-.09.28-.16s.14-.16.17-.28c.03-.11.04-.24.02-.38-.06-.34-.26-.51-.61-.51-.19,0-.38.07-.55.2-.17.14-.33.35-.46.64ZM126.79,121.26c0,.24.08.45.24.62s.39.26.68.26c.34,0,.67-.12.99-.36.32-.24.6-.62.84-1.15-.21-.19-.43-.35-.65-.46-.22-.12-.47-.17-.73-.17-.34,0-.63.09-.86.28-.24.18-.39.41-.47.68-.02.05-.03.1-.03.15v.15Z"/>
            <path class="cls-7" d="M140.66,113.73c.33,0,.61-.12.84-.35.23-.23.35-.52.35-.86s-.12-.61-.35-.84c-.23-.23-.51-.34-.84-.34s-.61.11-.84.34-.35.51-.35.84.12.62.35.86.51.35.84.35Z"/>
            <path class="cls-7" d="M154.99,113.06c.19.04.39.06.58.06.52,0,.98-.12,1.37-.36.39-.24.66-.58.81-1.02h0c.07-.18.1-.4.1-.65,0-.27-.06-.53-.17-.76-.12-.24-.31-.42-.58-.55l-.07-.04h.01c-.17-.06-.35-.1-.52-.1-.11,0-.21.01-.31.04s-.21.07-.31.12c-.18.12-.33.27-.43.45-.1.18-.15.38-.15.58s.06.41.17.6h-.01c.06.1.13.18.22.26s.17.14.26.19c-.09.08-.19.13-.32.17-.13.03-.25.04-.38,0-.19-.05-.35-.03-.48.04-.13.08-.21.18-.25.31-.04.13-.02.26.05.39s.21.22.41.27Z"/>
            <path class="cls-7" d="M157.64,120.46c.06-.24.15-.47.27-.68.12-.21.27-.4.46-.56.18-.16.4-.27.64-.33.29-.55.59-1.1.89-1.66.3-.55.59-1.1.87-1.66.16-.24.33-.43.51-.55.17-.13.34-.21.51-.25.09-.02.18-.03.27-.04.09,0,.19,0,.3.01h0c.15.01.3.07.44.16.14.09.25.19.33.31.09.12.15.26.19.41s.05.31.03.47c-.04.2-.12.39-.24.55-.12.16-.28.29-.47.36.03.22.11.46.23.7.13.24.26.49.41.74.2.34.4.7.58,1.1.18.39.28.8.28,1.23,0,.64-.13,1.16-.4,1.56-.27.4-.59.71-.96.93-.37.22-.76.36-1.16.42-.4.06-.72.08-.97.05-.42-.02-.81-.1-1.18-.23-.37-.14-.7-.32-.98-.54s-.5-.49-.67-.8c-.16-.31-.25-.64-.25-.99,0-.23.03-.47.09-.71ZM159.66,121.42c.08.19.22.34.41.44.2.1.42.15.68.15.25,0,.47-.08.66-.21.19-.13.32-.33.4-.59.12-.41.09-.82-.07-1.25s-.38-.8-.65-1.13l-.13.28c.2.2.32.45.35.75s-.02.57-.14.83c-.12.26-.31.46-.57.62s-.58.19-.94.12Z"/>
            <path class="cls-7" d="M120.13,136.6c-.72.61-1.53.92-2.44.92-.38,0-.73-.05-1.07-.16-.34-.11-.63-.26-.89-.47-.26-.2-.46-.45-.61-.74-.15-.29-.23-.62-.23-.99,0-.3.06-.62.17-.97h0c.11-.3.21-.58.3-.85.1-.27.19-.53.28-.79.09-.26.18-.53.28-.79.1-.27.2-.55.3-.86h-.48c-.21,0-.38-.09-.49-.27s-.16-.38-.14-.6c.02-.22.12-.42.3-.6.17-.18.45-.27.81-.27h.61l1.1-3.07c.12-.37.31-.61.57-.73.27-.12.52-.14.78-.08.25.06.46.2.62.41.16.21.2.45.11.73l-.96,2.73h.65c.31,0,.53.09.65.27.13.18.17.38.14.6-.03.22-.15.42-.34.6-.19.18-.46.27-.78.27h-.94l-1.38,3.88c-.04.09-.06.19-.06.32,0,.19.07.36.22.5s.36.2.62.2c.43,0,.85-.19,1.27-.57.23-.21.44-.49.63-.82.02-.1.04-.19.07-.29l1.18-3.24c.12-.32.28-.61.49-.86.21-.26.46-.47.73-.65s.58-.31.9-.4c.32-.09.66-.14,1-.14.39,0,.76.06,1.11.17.35.12.66.28.92.5.26.22.46.48.6.78.14.31.2.64.17,1.01,0,.15-.04.33-.1.57s-.13.47-.2.7c-.08.24-.16.46-.25.67s-.16.36-.22.44c-.1.15-.19.25-.29.32.03.14.05.25.05.36s0,.15,0,.14c.03.01.06.01.1.01h.1c.44,0,.81-.14,1.13-.42.12-.1.21-.23.31-.36l1.02-2.84c.13-.33.3-.62.51-.88.21-.26.46-.47.73-.65.28-.17.57-.31.89-.4.32-.09.64-.14.97-.14.37,0,.72.06,1.06.17.34.12.64.28.9.49.26.21.47.47.62.78s.23.65.23,1.02c0,.32-.07.67-.2,1.05-.19.53-.4,1.08-.61,1.66s-.42,1.13-.61,1.67c-.12.31-.28.58-.48.82-.2.24-.44.44-.71.6-.27.16-.57.29-.89.38-.32.09-.64.13-.97.13-.37,0-.72-.05-1.06-.16-.34-.11-.64-.26-.9-.46-.26-.2-.47-.46-.62-.76-.04-.07-.05-.15-.08-.23-.02,0-.03.02-.05.02-.38.15-.78.22-1.21.22-.3,0-.59-.04-.87-.12-.31.52-.71.9-1.19,1.13-.48.23-1.01.35-1.58.35-.37,0-.72-.06-1.06-.17s-.64-.27-.9-.48c-.13-.1-.25-.22-.35-.35ZM129.37,134.8c-.03.07-.05.13-.06.2-.01.06-.01.12-.01.17,0,.2.07.37.2.5.13.13.29.2.49.2.22,0,.44-.08.63-.23.2-.15.35-.37.46-.66l1.24-3.49c.04-.09.06-.18.06-.29,0-.18-.07-.34-.2-.46s-.32-.19-.54-.19c-.2,0-.4.07-.59.2-.19.13-.34.34-.45.63l-1.23,3.43ZM121.84,134.48c-.03.09-.06.21-.09.36-.03.15-.04.3-.02.46s.08.29.17.4c.1.11.27.17.51.17.21,0,.42-.07.61-.21.19-.14.34-.34.44-.59,0-.01,0-.02.01-.03-.14-.12-.26-.25-.36-.39-.11-.15-.16-.34-.17-.6,0-.21.04-.41.12-.6.08-.19.19-.35.33-.48.14-.13.3-.23.48-.29.18-.06.37-.08.57-.07,0-.06.02-.12.04-.17.02-.06.04-.12.06-.19.05-.15.11-.34.17-.55.07-.21.1-.38.1-.52,0-.16-.07-.31-.2-.44-.14-.13-.32-.2-.54-.2s-.43.07-.62.2c-.19.13-.32.32-.4.56-.32.76-.58,1.39-.77,1.91-.19.52-.34.94-.45,1.27Z"/>
            <path class="cls-7" d="M175.96,133.77c-.42,1.2-.99,2.13-1.73,2.78-.74.65-1.57.97-2.51.97-.38,0-.73-.05-1.07-.16-.34-.11-.63-.26-.89-.47-.1-.08-.18-.17-.27-.26-.64.58-1.33.88-2.08.88-.3,0-.58-.05-.85-.15-.27-.1-.5-.24-.7-.42s-.36-.39-.48-.65c-.12-.25-.17-.54-.17-.86,0-.28.06-.59.17-.93l.64-1.77c.06-.17.07-.32.02-.43-.04-.11-.11-.2-.21-.28-.1-.07-.21-.13-.34-.17-.13-.04-.25-.08-.37-.12l-.81,2.18c-.05.15-.13.26-.22.36-.05.08-.09.17-.15.25-.22.33-.49.62-.8.87-.31.25-.65.44-1.03.59s-.78.22-1.21.22c-.3,0-.59-.04-.87-.12-.31.52-.71.9-1.19,1.13-.48.23-1.01.35-1.58.35-.37,0-.72-.06-1.06-.17-.34-.11-.64-.27-.9-.48-.11-.09-.2-.18-.29-.29-.02.02-.04.04-.06.05-.35.3-.7.5-1.07.62-.36.12-.72.18-1.07.18-.31,0-.61-.04-.89-.13-.29-.09-.54-.22-.76-.39s-.4-.39-.54-.65c-.14-.26-.2-.56-.2-.9,0-.29.06-.61.17-.96h0s1.05-2.96,1.05-2.96c.04-.08.06-.16.06-.26,0-.14-.05-.25-.14-.34s-.21-.14-.36-.14c-.22,0-.45.09-.68.28-.23.18-.42.42-.57.7l-1.74,4.9c-.15.39-.35.64-.62.76-.27.12-.53.14-.77.05-.23-.08-.42-.26-.55-.52-.33.15-.67.28-1.04.38-.62.15-1.31.25-2.08.29-.12.02-.26.03-.42.04-.16,0-.31.01-.42.01-.42-.02-.81-.1-1.18-.23-.37-.14-.7-.32-.98-.54-.28-.23-.5-.49-.67-.8-.16-.31-.25-.64-.25-.99,0-.23.03-.47.09-.71.06-.24.15-.47.27-.68.12-.21.27-.4.46-.56.18-.16.4-.27.64-.33.29-.55.59-1.1.89-1.66.3-.55.59-1.1.87-1.66.16-.24.33-.43.51-.55.17-.13.34-.21.51-.25.09-.02.18-.03.27-.04.09,0,.19,0,.3.01h0c.15.01.3.07.44.16.14.09.25.19.33.31.09.12.15.26.19.41.04.15.05.31.03.47-.04.2-.12.39-.24.55-.12.16-.28.29-.47.36.03.22.11.46.23.7.13.24.26.49.41.74.2.34.4.7.58,1.1.18.39.28.8.28,1.23,0,.1,0,.19-.01.28-.01.09-.02.18-.04.28.49-.28.88-.69,1.19-1.19l2.74-7.68c.1-.31.23-.55.39-.73s.34-.29.52-.34c.18-.05.36-.05.54,0s.32.15.43.29c.11.14.18.32.21.55.03.22-.01.47-.13.76l-.79,2.3c.29-.13.6-.19.93-.19.29,0,.56.05.82.16s.48.25.67.44.34.4.44.65c.11.25.16.52.16.81,0,.25-.04.51-.13.78l-1.19,3.37c-.03.06-.04.12-.04.19,0,.11.04.2.12.27s.19.11.33.11c.33,0,.68-.2,1.07-.59.18-.19.35-.43.52-.72.03-.12.06-.25.1-.38l1.18-3.24c.12-.32.28-.61.49-.86s.46-.47.73-.65c.28-.17.58-.31.9-.4.32-.09.66-.14.99-.14.39,0,.76.06,1.11.17.35.12.66.28.92.5.26.22.46.48.6.78.14.31.2.64.17,1.01-.01.15-.04.33-.1.57-.06.23-.13.47-.2.7-.08.24-.16.46-.25.67-.09.21-.16.36-.22.44-.1.15-.19.25-.29.32.03.14.05.25.05.36,0,.1,0,.15,0,.14.03.01.06.01.1.01h.1c.44,0,.81-.14,1.13-.42.31-.28.55-.65.72-1.1.03-.11.08-.21.13-.3l.72-1.95c-.24-.3-.36-.64-.36-1.03,0-.11.01-.22.04-.35.02-.13.06-.24.11-.35.08-.26.23-.47.44-.64.22-.16.48-.25.78-.25.19,0,.38.05.55.14.17.09.32.21.44.36.12.15.2.32.24.51.04.19.03.38-.04.59.2.06.45.14.74.25.29.11.57.25.84.43.27.17.5.38.69.63s.28.55.28.89c0,.13-.01.25-.04.38-.02.13-.06.27-.11.41l-.86,2.38c-.04.11-.06.21-.06.32s.02.2.07.27.13.11.23.11c.15,0,.32-.06.48-.19s.33-.3.49-.52c.15-.2.3-.43.44-.7.02-.06.03-.13.05-.19h0c.11-.3.21-.58.3-.85.1-.27.19-.53.28-.79.09-.26.18-.53.28-.79.1-.27.2-.55.3-.86h-.48c-.21,0-.38-.09-.49-.27s-.16-.38-.14-.6c.02-.22.12-.42.3-.6.17-.18.45-.27.81-.27h.61l1.1-3.07c.12-.37.31-.61.57-.73.27-.12.52-.14.78-.08.25.06.46.2.62.41.16.21.2.45.11.73l-.96,2.73h.65c.31,0,.53.09.65.27.13.18.17.38.14.6-.03.22-.15.42-.34.6-.19.18-.46.27-.78.27h-.94l-1.38,3.88c-.04.09-.06.19-.06.32,0,.19.07.36.22.5s.36.2.62.2c.43,0,.85-.19,1.27-.57s.78-.98,1.07-1.78c.11-.28.28-.47.51-.57.23-.1.46-.12.67-.07s.39.16.52.33c.13.17.15.38.07.65ZM143.41,133.89c-.16-.43-.38-.8-.65-1.13l-.13.28c.2.2.32.45.35.75s-.02.57-.14.83c-.12.26-.31.46-.57.62-.26.15-.58.19-.94.12.08.19.22.34.41.44s.42.15.68.15c.25,0,.47-.08.66-.21s.32-.33.4-.59c.12-.41.09-.82-.07-1.25ZM159.65,131.19c0-.16-.07-.31-.2-.44s-.32-.2-.54-.2-.43.07-.62.2-.32.32-.4.56c-.32.76-.58,1.39-.77,1.91-.19.52-.34.94-.45,1.27-.03.09-.06.21-.09.36s-.04.3-.02.46c.02.15.08.29.17.4.1.11.27.17.51.17.21,0,.42-.07.61-.21.19-.14.34-.34.44-.59,0-.01,0-.02.01-.03-.14-.12-.26-.25-.36-.39-.11-.15-.16-.34-.17-.6,0-.21.04-.41.12-.6.08-.19.19-.35.33-.48s.3-.23.48-.29c.18-.06.37-.08.57-.07,0-.06.02-.12.04-.17.02-.06.04-.12.06-.19.05-.15.11-.34.17-.55.07-.21.1-.38.1-.52Z"/>
            <path class="cls-7" d="M122.81,148.12h0c.11-.3.21-.58.3-.85.1-.27.19-.53.28-.79.09-.26.19-.53.28-.79.1-.27.2-.55.3-.86h-.48c-.21,0-.38-.09-.49-.27-.12-.18-.16-.38-.14-.6s.12-.42.3-.6c.17-.18.45-.27.81-.27h.61l1.1-3.07c.12-.37.31-.61.57-.73.27-.12.53-.14.78-.08.25.06.46.2.62.41.16.21.2.45.11.73l-.96,2.73h.65c.31,0,.53.09.65.27.13.18.17.38.14.6-.03.22-.15.42-.34.6s-.46.27-.78.27h-.94l-1.38,3.88c-.04.09-.06.19-.06.32,0,.19.08.36.23.5s.36.2.62.2c.43,0,.85-.19,1.27-.57.21-.19.41-.44.59-.74.03-.12.07-.24.12-.37l1.16-3.22c.13-.33.3-.62.51-.88.21-.26.46-.47.73-.65s.57-.31.89-.4c.32-.09.64-.14.97-.14.37,0,.72.06,1.06.17.34.12.64.28.9.49.26.21.47.47.62.78s.23.65.23,1.02c0,.32-.07.67-.2,1.05-.19.53-.4,1.08-.61,1.66-.21.57-.42,1.13-.61,1.67-.12.31-.28.58-.48.82-.2.24-.44.44-.71.6-.27.16-.57.29-.89.38-.32.09-.64.13-.97.13-.37,0-.72-.05-1.06-.16s-.64-.26-.9-.46c-.13-.1-.25-.22-.36-.35-.71.6-1.52.9-2.42.9-.38,0-.73-.05-1.07-.16-.34-.11-.63-.26-.89-.47s-.46-.45-.61-.74c-.15-.29-.23-.62-.23-.99,0-.3.06-.62.17-.97ZM129.54,148.73c-.03.07-.05.13-.06.2-.01.06-.01.12-.01.17,0,.2.07.37.2.5.13.13.29.2.49.2.22,0,.44-.08.63-.23s.35-.37.46-.66l1.24-3.49c.04-.09.06-.18.06-.29,0-.18-.07-.34-.2-.46-.14-.13-.32-.19-.54-.19-.2,0-.4.07-.59.2s-.34.34-.45.63l-1.23,3.43Z"/>
            <path class="cls-7" d="M144.46,144.86c.03.22.11.46.23.7.13.24.26.49.41.74.2.34.4.7.58,1.1.18.39.28.8.28,1.23,0,.1,0,.19-.01.28,0,.09-.02.18-.04.28.47-.28.85-.66,1.16-1.15l2.76-7.85c.08-.28.2-.5.36-.66.16-.16.33-.27.52-.32s.38-.05.57,0c.19.05.35.15.47.28.13.14.21.31.25.52.04.21,0,.46-.1.74l-.81,2.25c.14-.05.26-.08.38-.1.12-.01.24-.02.38-.02.32,0,.61.06.87.17.26.12.49.27.68.47s.34.42.44.68.16.53.16.81c0,.25-.05.52-.14.79-.11.29-.25.53-.43.72-.18.19-.37.34-.57.46.11.11.18.23.23.38s.07.31.07.49c0,.21-.03.41-.09.61h0s-.2.61-.2.61c-.05.15-.07.28-.07.4,0,.16.09.23.28.23.37,0,.73-.2,1.07-.6.14-.16.26-.35.39-.56.02-.06.03-.13.05-.19.12-.34.24-.7.37-1.08.13-.38.26-.76.4-1.14.13-.38.27-.77.4-1.15.13-.38.25-.74.37-1.08.14-.4.34-.67.62-.83.28-.15.54-.2.79-.15s.45.22.6.47c.14.26.15.59.03,1.01l-1.6,4.56c-.03.09-.04.16-.04.23,0,.14.05.25.15.35s.23.14.4.14c.14,0,.3-.04.46-.12.16-.08.33-.22.51-.41s.35-.45.53-.76c.01-.02.02-.05.04-.07l1.71-4.85c.06-.21.15-.38.28-.52.13-.13.28-.22.44-.28.16-.05.33-.08.5-.07.17,0,.33.04.46.09.14.06.25.13.33.23.09.09.13.19.12.3.16-.14.35-.22.57-.26.21-.04.42-.06.61-.06.28,0,.55.06.81.17.26.12.48.27.68.47s.35.42.46.69c.11.27.17.55.17.84,0,.26-.04.51-.13.76-.2.56-.41,1.14-.62,1.72-.21.59-.41,1.16-.62,1.71-.02.05-.04.09-.05.13-.01.04-.04.1-.08.17.5-.18.96-.47,1.36-.85.4-.38.72-.87.95-1.47.07-.21.17-.38.31-.51s.28-.21.43-.25c.15-.04.3-.05.46-.01.15.03.29.1.4.19s.19.22.23.37c.04.16.02.33-.04.54-.24.69-.55,1.28-.93,1.78-.38.5-.82.91-1.31,1.23s-1.05.56-1.66.71-1.27.23-1.98.23c-.17,0-.36,0-.55-.01-.19-.01-.38-.02-.56-.04-.29,0-.55-.04-.78-.13-.23-.09-.45-.2-.64-.35-.09.24-.18.51-.28.79-.1.29-.2.58-.3.88s-.2.59-.31.88-.2.55-.28.79c-.07.21-.18.38-.33.51-.15.13-.32.21-.51.25-.18.04-.37.04-.55,0-.18-.04-.34-.12-.47-.24-.13-.12-.22-.27-.26-.46-.04-.19-.02-.41.08-.68l.83-2.36c-.22.04-.44.08-.66.08-.34,0-.66-.05-.95-.15s-.56-.24-.78-.42c-.07-.06-.13-.13-.2-.2-.25.2-.52.37-.81.5-.42.18-.87.27-1.37.27-.72,0-1.25-.17-1.6-.52s-.52-.8-.52-1.37c0-.37.07-.75.22-1.15.03-.08.07-.17.11-.28.04-.11.04-.15,0-.13-.06.03-.14.06-.25.1-.11.04-.24.06-.37.07s-.28-.02-.44-.07-.31-.16-.46-.31l-.96,2.69c-.1.32-.28.55-.55.7-.27.15-.54.21-.81.19s-.5-.12-.68-.31c-.03-.04-.06-.08-.08-.12-.29.13-.6.23-.93.31-.62.15-1.31.25-2.08.29-.12.02-.26.03-.42.04-.16,0-.31.01-.42.01-.42-.02-.81-.1-1.18-.23-.37-.14-.7-.32-.98-.54s-.5-.49-.67-.8c-.16-.31-.25-.64-.25-.99,0-.23.03-.47.09-.71.06-.24.15-.47.27-.68.12-.21.27-.4.46-.56.18-.16.4-.27.64-.33.29-.55.59-1.1.89-1.66.3-.55.59-1.1.87-1.66.16-.24.33-.43.51-.55.17-.13.34-.21.51-.25.09-.02.18-.03.27-.04.09,0,.19,0,.3.01h0c.15.01.3.07.44.16.14.09.25.19.33.31.09.12.15.26.19.41s.05.31.03.47c-.04.2-.12.39-.24.55-.12.16-.28.29-.47.36ZM143.58,147.81c-.16-.43-.38-.8-.65-1.13l-.13.28c.2.2.32.45.35.75s-.02.57-.14.83c-.12.26-.31.46-.57.62s-.58.19-.94.12c.08.19.22.34.41.44.2.1.42.15.68.15.25,0,.47-.08.66-.21.19-.13.32-.33.4-.59.12-.41.09-.82-.07-1.25ZM160.73,148.57c-.1.31-.08.54.06.7.14.16.32.24.55.24.19,0,.38-.07.56-.2.18-.12.31-.29.39-.52.1-.28.19-.53.27-.76.08-.22.16-.44.23-.65.07-.21.15-.43.23-.65.08-.22.16-.48.25-.77.1-.28.1-.52.01-.7-.09-.19-.24-.29-.46-.31-.2,0-.41.05-.61.19-.2.14-.37.33-.49.58h.03s-1,2.85-1,2.85ZM149.96,146.17c.13-.07.3-.11.51-.13s.44,0,.68.04c.17-.05.33-.13.47-.25.14-.12.24-.26.31-.42.04-.09.06-.18.06-.28,0-.16-.06-.29-.18-.38s-.27-.14-.46-.14c-.21,0-.42.07-.62.21-.2.14-.37.34-.51.6l-.26.74Z"/>
            <path class="cls-7" d="M158.48,141.58c.33,0,.61-.12.84-.35.23-.23.35-.52.35-.86s-.12-.61-.35-.84c-.23-.23-.51-.34-.84-.34s-.61.11-.84.34c-.23.23-.35.51-.35.84s.12.62.35.86c.23.23.51.35.84.35Z"/>
            <path class="cls-7" d="M169.42,163.33c.23.23.35.51.35.85s-.12.61-.35.84c-.23.23-.51.35-.84.35s-.62-.12-.85-.35c-.22-.22-.33-.49-.34-.79-.06.05-.11.12-.16.17-.74.65-1.57.97-2.51.97-.38,0-.74-.05-1.07-.16-.34-.11-.63-.26-.89-.47-.1-.08-.18-.17-.26-.26-.64.58-1.33.88-2.08.88-.3,0-.58-.05-.85-.15-.27-.1-.5-.24-.7-.42s-.36-.39-.48-.65c-.12-.25-.17-.54-.17-.86,0-.28.06-.59.17-.93l.64-1.77c.06-.17.07-.32.02-.43-.04-.11-.11-.2-.21-.28-.1-.07-.21-.13-.34-.17-.13-.04-.25-.08-.37-.12l-.73,1.94s0,.04-.02.06c-.24.7-.56,1.29-.94,1.77s-.82.87-1.29,1.17-.97.52-1.5.65c-.52.14-1.04.2-1.54.2-.53,0-1.03-.07-1.48-.2s-.85-.32-1.18-.57c-.22-.16-.4-.36-.56-.57-.17.14-.33.28-.52.4-.49.31-1.04.54-1.66.7-.62.15-1.31.25-2.08.29-.12.02-.26.03-.42.04-.16,0-.31.01-.42.01-.42-.02-.81-.1-1.18-.23-.37-.14-.7-.32-.98-.54-.14-.11-.26-.24-.37-.37-.04.03-.08.07-.13.1-.49.31-1.04.54-1.66.7-.62.15-1.31.25-2.08.29-.12.02-.26.03-.42.04-.16,0-.31.01-.42.01-.42-.02-.81-.1-1.18-.23-.37-.14-.7-.32-.98-.54-.14-.11-.27-.24-.38-.37-.08.06-.15.12-.23.18-.47.3-.97.52-1.5.65-.52.14-1.04.2-1.54.2-.53,0-1.03-.07-1.48-.2-.46-.13-.85-.32-1.18-.57-.18-.13-.33-.28-.47-.44-.1.1-.19.21-.29.3-.36.31-.73.53-1.1.67-.38.14-.75.2-1.1.2-.38,0-.74-.08-1.07-.23-.34-.16-.62-.36-.84-.62-.29.25-.61.44-.94.55-.34.12-.67.17-1,.17-.31,0-.6-.05-.88-.15-.28-.1-.52-.25-.73-.44-.21-.19-.37-.42-.49-.68-.12-.27-.18-.56-.18-.88,0-.14.01-.27.04-.41.02-.14.06-.28.11-.41l1.35-3.82c.1-.27.23-.51.4-.72.17-.21.36-.38.57-.52.21-.14.43-.24.68-.31.24-.07.48-.1.71-.1.34,0,.66.07.97.2.31.14.57.32.79.57l1.16-3.36c.1-.31.23-.55.39-.72.16-.17.34-.28.52-.33.18-.05.36-.05.54,0s.32.15.44.28c.12.14.2.31.24.52.04.21.01.44-.07.7l-2.86,8.28c-.04.08-.06.16-.06.26,0,.12.04.22.12.31.08.09.19.13.33.13.33,0,.68-.19,1.05-.58.24-.25.47-.63.7-1.09.03-.14.07-.29.11-.43l.86-2.48c.13-.36.3-.68.51-.95.21-.28.46-.51.73-.7.27-.19.56-.33.88-.42.31-.09.63-.14.95-.14.41,0,.78.06,1.12.19s.63.3.86.52c.24.22.42.47.55.77.13.3.2.62.2.97,0,.24-.04.51-.12.8-.1.33-.24.62-.43.89-.19.26-.41.48-.66.67s-.53.33-.83.43c-.31.1-.62.15-.95.15-.29,0-.56-.04-.82-.12-.26-.08-.49-.18-.7-.32l-.12.28c-.05.13-.07.26-.07.41,0,.34.15.62.46.86.31.23.73.35,1.26.35.31,0,.63-.05.97-.14.33-.09.65-.23.96-.43.26-.17.51-.38.73-.63.01-.08.02-.16.04-.24.06-.24.15-.47.27-.68.12-.21.27-.4.46-.56.12-.11.27-.18.42-.24,0,0,0,0,.01,0,.03-.01.06-.02.09-.03.04-.01.08-.03.12-.04.29-.55.59-1.1.89-1.66.3-.55.59-1.1.87-1.66.16-.24.33-.43.51-.55.17-.13.34-.21.51-.25.09-.02.18-.03.27-.04.09,0,.19,0,.3.01h0c.15.01.3.07.44.16.14.09.25.19.33.31.09.12.15.26.19.41.04.15.05.31.03.47-.04.2-.12.39-.24.55-.12.16-.28.29-.47.36.03.22.11.46.23.7.13.24.26.49.41.74.2.34.4.7.58,1.1.18.39.28.8.28,1.23,0,.1,0,.19-.01.28-.01.09-.02.18-.04.28.3-.17.56-.4.79-.66.01-.07.02-.14.04-.22.06-.24.15-.47.27-.68.12-.21.27-.4.46-.56.18-.16.4-.27.64-.33.29-.55.59-1.1.89-1.66.3-.55.59-1.1.87-1.66.16-.24.33-.43.51-.55.17-.13.34-.21.51-.25.09-.02.18-.03.27-.04.09,0,.19,0,.3.01h0c.15.01.3.07.44.16.14.09.25.19.33.31.09.12.15.26.19.41s.05.31.03.47c-.04.2-.12.39-.24.55-.12.16-.28.29-.47.36.03.22.11.46.23.7.13.24.26.49.41.74.2.34.4.7.58,1.1.18.39.28.8.28,1.23,0,.1,0,.19-.01.28,0,.09-.02.18-.04.28.53-.31.95-.76,1.27-1.33.02-.08.04-.16.06-.24l.86-2.48c.13-.36.3-.68.51-.95.21-.28.46-.51.73-.7.27-.19.56-.33.88-.42.32-.09.63-.14.95-.14.41,0,.78.06,1.12.19.34.13.63.3.86.52.24.22.42.47.55.77.13.3.2.62.2.97,0,.24-.04.51-.12.8-.1.33-.24.62-.43.89-.19.26-.41.48-.66.67-.25.18-.53.33-.84.43s-.62.15-.95.15c-.29,0-.56-.04-.82-.12-.26-.08-.49-.18-.7-.32l-.12.28c-.05.13-.07.26-.07.41,0,.34.15.62.47.86.31.23.73.35,1.26.35.31,0,.63-.05.97-.14.33-.09.65-.23.96-.43s.59-.44.84-.74c.26-.3.47-.66.63-1.09,0,0,0,0,0,0l1-2.69c-.24-.3-.36-.64-.36-1.03,0-.11.01-.22.04-.35.02-.13.06-.24.11-.35.08-.26.23-.47.44-.64.22-.16.48-.25.78-.25.19,0,.38.05.55.14.17.09.32.21.44.36.12.15.2.32.24.51.04.19.03.38-.04.59.2.06.45.14.74.25.29.11.57.25.84.43.27.17.5.38.69.63s.28.55.28.89c0,.13-.01.25-.04.38-.02.13-.06.27-.11.41l-.86,2.38c-.04.11-.06.21-.06.32s.02.2.07.27c.05.07.13.11.23.11.15,0,.31-.06.48-.19s.33-.3.49-.52c.15-.2.3-.43.44-.7.02-.06.03-.13.05-.19h0c.11-.3.21-.58.3-.85.1-.27.19-.53.28-.79.09-.26.19-.53.28-.79.1-.27.2-.55.3-.86h-.48c-.21,0-.38-.09-.49-.27s-.16-.38-.14-.6c.02-.22.12-.42.3-.6.17-.18.45-.27.81-.27h.61l1.1-3.07c.12-.37.31-.61.57-.73.27-.12.53-.14.78-.08.25.06.46.2.62.41.16.21.2.45.11.73l-.96,2.73h.65c.31,0,.53.09.65.27.13.18.17.38.14.6-.03.22-.15.42-.34.6s-.46.27-.78.27h-.94l-1.38,3.88c-.04.09-.06.19-.06.32,0,.19.08.36.23.5.15.14.36.2.62.2.43,0,.85-.19,1.27-.57.42-.38.78-.98,1.07-1.78.11-.28.28-.47.51-.57.23-.1.46-.12.67-.07s.38.16.52.33c.13.17.15.38.07.65-.18.52-.4.98-.63,1.39.08-.02.17-.03.26-.03.33,0,.61.11.84.34ZM151.26,160.14c.14.08.29.13.47.16.18.03.36.03.53,0s.33-.09.47-.2c.14-.1.24-.25.3-.44.04-.11.06-.22.06-.35,0-.2-.06-.38-.18-.52-.12-.15-.28-.22-.49-.22-.16,0-.33.06-.49.18-.16.12-.28.29-.37.52l-.31.87ZM129.88,160.14c.14.08.29.13.47.16s.36.03.53,0,.33-.09.47-.2c.14-.1.24-.25.3-.44.04-.11.06-.22.06-.35,0-.2-.06-.38-.18-.52-.12-.15-.28-.22-.49-.22-.16,0-.33.06-.49.18-.16.12-.28.29-.37.52l-.31.87ZM123.49,159.65c0-.21-.04-.37-.09-.48-.06-.11-.12-.18-.19-.22-.07-.03-.11-.05-.12-.05-.01-.01-.05-.02-.12-.04-.07-.01-.16,0-.27.04s-.22.14-.34.28c-.12.14-.24.37-.36.68l-.76,2.25c-.03.08-.05.17-.07.27-.02.1-.02.2-.01.31,0,.1.04.19.09.28s.14.14.25.17c.07.02.15.02.25,0,.1-.02.21-.07.33-.15.12-.08.24-.2.36-.36.13-.16.24-.37.35-.65l.52-1.5c.12-.35.17-.63.17-.84ZM137.64,161.74c-.16-.43-.38-.8-.65-1.13l-.13.28c.2.2.32.45.35.75s-.02.57-.14.83c-.12.26-.31.46-.57.62-.26.15-.58.19-.94.12.08.19.22.34.41.44s.42.15.68.15c.25,0,.47-.08.66-.21s.32-.33.4-.59c.12-.41.09-.82-.07-1.25ZM144.89,161.74c-.16-.43-.38-.8-.65-1.13l-.13.28c.2.2.32.45.35.75s-.02.57-.14.83c-.12.26-.31.46-.57.62s-.58.19-.94.12c.08.19.22.34.41.44.2.1.42.15.68.15.25,0,.47-.08.66-.21.19-.13.32-.33.4-.59.12-.41.09-.82-.07-1.25Z"/>
          </g>
          <g>
            <path class="cls-6" d="M236.57,90.79c-1.75,1.27-3.77,1.75-5.84,1.4-.93-.15-1.85-.48-2.75-.97-1.57-.85-3.01-2.17-4.16-3.82-1.5-2.14-2.58-4.74-3.06-7.35-4.1-.42-7.89-2.76-10.18-6.29-.32-.49-.61-1.02-.87-1.59-.42.5-.88.96-1.37,1.37-3.53,2.87-6.42,2.02-7.82,1.26-.11-.06-.21-.12-.29-.17-2.35-1.46-3.67-4.43-3.66-8.21-3.16,2.07-6.37,2.58-8.88,1.41-.09-.04-.2-.1-.3-.15-1.41-.76-3.7-2.72-3.21-7.24.07-.62.19-1.23.37-1.83-.57.08-1.14.12-1.7.13-4.26,0-8.29-1.9-10.84-5.1-2.44,1.02-5.21,1.53-7.82,1.44-3.18-.11-6.02-1.27-7.78-3.19-1.42-1.54-2.11-3.5-2.01-5.66.29-6.04,3.63-12.39,8.93-16.99,4.33-3.75,9.2-5.78,14.11-5.88,2.28-4.07,6.77-6.66,12.65-7.3,4.04-.44,10.27.36,14.65,4.01,2.05-1.28,4.37-2.08,6.73-2.32,3.6-.37,7.4.4,10.41,2.11,3.07,1.6,5.78,4.36,7.44,7.58,1.09,2.11,1.68,4.48,1.73,6.9,5.45,1.69,9.51,6.47,11.35,10.1,2.67,5.28,2.94,10.45.78,14.59,2.55,4.12,3.54,9.45,2.77,15.04-.96,6.95-4.46,13.21-9.37,16.75Z"/>
            <path class="cls-4" d="M191.54,55.02c-.36-.74-.67-1.52-.9-2.33-.62-2.07-.82-4.34-.5-6.74.26-1.88.99-4.66,2.63-5.79,1.77-1.21,4.08-.36,3.99,1.97-.14,3.74-2.71,7.83-6.12,10.56-2.38,1.91-5.16,3.15-7.8,3.15-4.26,0-8.15-2.42-9.81-5.99-.8-1.71-1.08-3.69-.64-5.79.29-1.4,2.57-5.66,4.48-3.83,2.32,2.23-.12,6.27-1.88,8.04-.58.59-1.25,1.12-1.96,1.57-2.57,1.64-5.83,2.44-8.75,2.34-3.54-.12-7.2-1.94-7.01-5.83.49-10.25,11.32-21.08,21.98-20.06.98.09,1.96.29,2.93.59.95.3,1.79.92,2.27,1.8,1.4,2.62-1.85,4.39-3.79,3.3-1.58-.89-2.15-3.01-1.69-4.76.08-.32.18-.63.29-.93,1.72-4.79,6.36-6.86,11.15-7.38,4.83-.52,10.97,1.04,14.06,4.95.38.48.71.99.99,1.54.56,1.11.95,2.39.47,3.59-.21.53-.61.98-1.13,1.22-1.57.71-2.85-.83-2.81-2.25.03-1.15.68-2.19,1.44-3.05.32-.37.67-.73,1.04-1.06,2.01-1.81,4.6-2.98,7.3-3.26,2.97-.3,6.21.33,8.74,1.77,2.59,1.33,4.89,3.7,6.25,6.36,1.24,2.41,1.68,5.22,1.25,7.89-.08.49-.18.97-.32,1.45-.36,1.28-.99,2.58-2.25,3.14-.62.28-1.34.29-1.95-.02-1.41-.73-1.17-2.51-.21-3.43.76-.73,1.85-1.01,2.89-1.13.61-.07,1.23-.07,1.83-.01,4.96.46,9.62,4.75,11.81,9.08,2.17,4.3,2.97,9.32-.11,13.37-.19.25-.4.5-.62.75-1.46,1.6-4.16,2.26-5.79.51-1.03-1.11-1.02-2.83.16-3.78,1.45-1.16,3.58-.21,4.91,1.05.49.46.93.95,1.34,1.47,6.67,8.38,3.5,23.36-4.82,29.36-3.15,2.28-6.68.2-8.71-2.7-1.68-2.39-2.79-5.56-2.81-8.61,0-.85.07-1.69.25-2.5.53-2.44,2.58-6.7,5.71-5.96,2.58.61.25,4.84-.77,5.85-1.52,1.51-3.33,2.35-5.19,2.62-3.9.56-8.05-1.38-10.37-4.96-1.44-2.21-1.92-5.22-1.62-8.26.43-4.34,2.45-8.73,5.51-10.89,1.91-1.34,3.88.13,3.83,2.27-.05,1.99-1.98,4.12-3.42,5.36-1.84,1.58-3.85,2.65-5.92,3.26-.83.25-1.67.42-2.51.52"/>
            <path class="cls-4" d="M203.76,64.27c-1.35-.26-2.67-.68-3.92-1.26-.77-.35-1.52-.76-2.23-1.22-1.17-.74-2.24-1.63-3.19-2.63"/>
            <path class="cls-4" d="M191.23,64.02c1.85-1.09,3.04-3.14,3.24-5.26.22-2.25-1-4.43-3.34-3.63-.13.05-.27.1-.41.17-2.05.96-3.47,3.21-3.7,5.43-.64,5.99,5.38,6.46,10.6,1.06"/>
            <path class="cls-4" d="M201.46,69.57c-.09-2.15.98-4.26,2.64-5.59,1.76-1.41,4.26-1.58,4.86.82.03.14.06.28.08.44.31,2.24-.8,4.66-2.53,6.07-4.67,3.8-8.35-.98-6.67-8.31"/>
            <g>
              <ellipse cx="205.48" cy="40.84" rx="1.03" ry="2.31" transform="translate(5.38 102.9) rotate(-28.47)"/>
              <ellipse cx="213.2" cy="45.03" rx="1.03" ry="2.31" transform="translate(4.32 107.09) rotate(-28.47)"/>
            </g>
            <path class="cls-4" d="M205.04,45.34c-.59,1.27-.09,2.8,1.12,3.47,1.23.68,2.8.27,3.55-.93"/>
          </g>
          <g>
            <path class="cls-5" d="M44.38,46.93c1.29-1.56,2.35-1.96,2.93-2.05-.8-1.6-1.21-3.17-1.23-3.24-.76-3.01-2.01-5.99-3.71-8.84l-.13-.21c-1.44-2.41-4.44-7.41-1.22-10.39.86-.8,1.96-1.16,3.08-1.03,1.15.14,2.19.78,3.17,1.94.49-.21.98-.38,1.4-.49,1.69-.41,3.34.06,4.34,1.23.37.1.73.25,1.07.45,1.82,1.1,3.13,3.53,1.34,7.09-.44.87-.59,1.54-.56,2.56.03,1.35.44,3.41,1.3,4.75.19.29.56.4.89.26,2.8-1.19,5.73-2.03,8.82-2.91,1.63-2.68,4.83-4.34,7.78-5.06,4.17-1.03,8.55-.97,12.65.16,3.73,1.03,8.93,3.22,12.48,7.82,1.96,2.53,3.06,5.51,3.51,7.72.12.13.24.25.36.38.15.17.29.35.43.52.99,1.25,1.46,2.8,1.32,4.37l-.8,9.46c-.01.15-.12.28-.27.33-.04.01-.07.02-.11.02-.02,0-.03,0-.05,0-.3.66-.71,1.28-1.23,1.81-.16.16-.32.32-.48.47-.57.53-1.19,1-1.84,1.42-.72,2.55-1.37,5.13-1.92,7.69-.39,1.77-1.05,4.81-3.3,6.56,1.15,1.19,1.55,2.74,1.06,4.27-.54,1.68-2.14,3.03-4.03,3.39-.76.93-1.93,1.46-3.47,1.57-.29.02-.59.03-.89.03-1.98,0-3.97-.48-5.73-1.39-.98-.5-1.87-1.12-2.66-1.82-.3.25-.62.48-.98.7-2.9,1.79-6.39,2.63-10.98,2.63-2.02,0-4.03-.16-5.8-.3-3.4-.27-7.14-.34-11.79-.2-.72.02-1.44.06-2.2.09-1.63.08-3.32.17-5.02.1-1.6-.07-2.98-1.13-3.5-2.6-2.45-1.02-3.24-2.95-3.49-4.17-.33-1.59-.05-3.13.82-4.45.65-.98,1.59-1.78,2.72-2.32.23-.54.49-1,.79-1.38-.16-1.82.09-3.85.68-5.55-2-7.32-.32-15.41,4.48-21.38"/>
            <g>
              <path class="cls-4" d="M97.94,51.15l.66-3.83c.55.39,1.21.93,1.86,1.67.12.14.23.27.34.41.52.66.78,1.5.71,2.34-.09,1.03-.17,2.07-.26,3.1-.4-.51-.92-1.09-1.58-1.68-.46-.41-.91-.75-1.32-1.03-.32-.21-.47-.6-.41-.97Z"/>
              <path class="cls-4" d="M101.25,54.83c-.31.45-1.07.6-1.48.45-.73-.27-1.48-1.18-2.04-1.7-.33-.3-.62-.65-.89-1.01s-.37-.83-.29-1.28l.56-3.25c.07-.41.4-.73.81-.79,0,0,0,0,0,0,.19-.02.51-.07.66.08"/>
            </g>
            <g>
              <path class="cls-4" d="M97.21,59.52l.25,3.88c.58-.32,1.3-.79,2.02-1.46.13-.12.26-.25.38-.37.59-.6.94-1.4.95-2.25.02-1.04.05-2.07.07-3.11-.45.46-1.03.99-1.75,1.5-.5.36-.98.65-1.42.88-.34.18-.53.54-.51.92Z"/>
              <path class="cls-4" d="M100.89,56.21c-.26-.48-1-.71-1.42-.6-.75.19-1.6,1.02-2.21,1.47-.36.27-.69.58-.99.91s-.45.79-.42,1.24l.22,3.3c.03.42.32.77.72.87,0,0,0,0,0,0,.18.04.5.12.67,0"/>
            </g>
            <path class="cls-4" d="M97.1,63.69c-.85,2.93-1.6,5.88-2.24,8.86-.46,2.13-1.14,4.6-3.07,5.36-1.35.52-2.88-.04-4.03-.96-4.04-3.24-4.53-9.98-3.49-15.04.11-.53.23-1.04.37-1.52.37-1.29.77-2.84,1.76-3.73,1.02-.92,2.38-.86,2.17.88-.23,1.93-1.62,3.64-3.38,4.17-.32.1-.63.17-.93.21-4.52.64-5.77-4.94-5.17-9.66.26-2.05.86-3.93,1.7-5.08,1.05-1.45,2.81-.9,2,1.07-.68,1.64-2.01,3.45-3.7,4.01-.38.13-.78.19-1.19.17-2.11-.09-4.14-1.87-5.04-3.8-.61-1.31-.77-2.92-.56-4.49.21-1.59.8-3.13,1.69-4.24,1.46-1.83,3.36-.4,2.32,1.72-.81,1.66-2.4,2.46-4.01,2.52-2.49.09-5.01-1.64-4.61-4.81.39-3.15,4.11-4.9,6.62-5.51,3.67-.9,7.55-.87,11.2.14,4.07,1.12,8.23,3.26,10.96,6.81,1.73,2.24,2.77,5.09,3.07,7.14"/>
            <g>
              <path class="cls-4" d="M78.19,81.02c0,1.33-.96,2.33-2.03,3-4.44,2.75-10.07,2.3-15.04,1.91-4.02-.32-8.07-.33-12.1-.21-2.33.07-4.69.29-7.02.19-.47-.02-.86-.36-.94-.83-.06-.36-.12-.75-.18-1.19-.08-.68-.15-1.44-.18-2.28-.04-1.13-.19-2.73.06-4.13.25-1.39.89-2.57,2.41-2.89.49-.1.94-.09,1.35,0,1.53.36,2.47,1.92,2.66,3.37.1.74-.03,1.5-.34,2.18-.11.24-.25.72-.76,1.26-.28.3,1.53.07,1.84-.03.66-.21,1.25-.63,1.66-1.18.68-.91.19-1.41-.47-2.14l-1.82-2.04c-1.07-1.19-1.97-2.46-2.7-3.77-.69-1.22-1.24-2.48-1.65-3.77-2.27-6.99-.63-14.71,4.07-20.2,0,0,0,0,0-.01,0,0,.01-.02.02-.03.07-.08.14-.16.21-.24,0,0,0,0,0-.01"/>
              <path class="cls-4" d="M46.98,48.32s.75-1.16,1.55-.27"/>
            </g>
            <path class="cls-4" d="M82.56,77.69c1.31-1.39,2.32-2.81,2.64-3.62"/>
            <path class="cls-4" d="M78.29,81c-.2.09-.4.17-.59.24-.67.23-1.41.16-2.02-.2-4.53-2.65-10.08-6.34-16.11-13.07-5.71-6.38-9.08-12.19-11.26-16.88-.44-.95-.27-2.07.43-2.84.89-.99,1.8-1.85,2.73-2.62-1.22-.66-2.33-3.65-2.59-4.69-.86-3.39-2.24-6.61-4.03-9.61-.81-1.36-3.44-5.55-1.86-7.01,1.38-1.27,2.96,2.09,3.47,2.6v.07c-.23.22-.43.44-.54.67-.26.5.07,1.39.73.8.12-.1.19-.25.21-.4.05-.43-.15-.77-.37-1.09.79-.72,2.07-1.34,2.88-1.54,1.76-.43,2.38,1.36.81,2.16-.61.31-1.59.2-1.8,1-.29,1.11,1.17,1.69,1.93,1.1.43-.33.65-.86.61-1.4-.03-.46-.12-.92.21-1.31.36-.44,1-.49,1.49-.2,1.25.75.75,2.31.24,3.32-.65,1.28-.9,2.43-.87,3.92.04,1.8.56,4.38,1.75,6.24.95,1.48,2.82,2.05,4.44,1.36,2.94-1.24,6.08-2.1,9.5-3.07"/>
            <ellipse cx="63.22" cy="47.22" rx="1.03" ry="2.31" transform="translate(-10.64 74.98) rotate(-57.36)"/>
            <path class="cls-4" d="M40.76,77.47c-1.74.36-3.5,1.76-3.05,3.96.34,1.62,1.66,2.25,3.17,2.46"/>
            <path class="cls-4" d="M68.66,52.4c-1.1.86-1.35,2.45-.56,3.6.79,1.16,2.38,1.51,3.59.77"/>
            <path class="cls-4" d="M61.15,51.51c-1.13.82-1.43,2.4-.69,3.58.75,1.19,2.33,1.59,3.56.9"/>
            <path class="cls-4" d="M42.95,68.46c-.86,1.72-1.16,4.52-.65,6.38"/>
            <path class="cls-4" d="M82.56,72.11c-1.19,1.85-1.07,3.66,0,5.58,1.27,2.29,4.83,3.07,7.14,3.19.82.04,1.69.1,2.33.6,1.7,1.33.06,3.03-1.47,3.11-.5.02-5.73.11-4.59-1.54,1.04-1.51,5.91,2.72,1.76,3.03-1.74.13-3.54-.25-5.09-1.05-3.74-1.93-6.19-6.36-4.86-10.06"/>
          </g>
          <g>
            <path class="cls-6" d="M94.42,199.37c.7,3.99-.24,7.69-2.57,10.15-1.58,1.66-3.73,2.74-5.81,2.92-.06.5-.14.97-.23,1.42.56,1.1,1.05,2.15,1.45,3.14,1.2,2.94,2.51,7.15.06,9.79-.12.13-.32.33-.59.54.02,0,.04.02.06.02,1.44.65,2.53,1.85,3.05,3.39,1.59,4.72-3.11,7.29-4.66,8.13-.24.13-.46.25-.65.35h-.02c-.17.1-.33.19-.48.27-1.05.57-2.14,1.07-3.25,1.49-1.7.64-3.59.04-4.6-1.47-.4-.59-.9-1.33-1.45-2.15-1.12-1.66-2.42-3.57-3.48-5.19-.52.32-1.05.63-1.59.92-.9.49-1.82.94-2.74,1.35,1.86,3.69,3.16,6.35,3.87,7.9.76,1.66.25,3.66-1.23,4.75-.95.7-1.95,1.35-2.99,1.92-.15.09-.31.17-.48.27h-.02c-.19.12-.41.24-.65.37-1.55.84-6.25,3.41-9.36-.48-1.01-1.27-1.44-2.84-1.2-4.4.27-1.75,1.37-3.44,2.96-4.52.11-.07.22-.15.34-.21-.48-.82-1.04-1.83-1.54-2.89-2.27.18-4.51.08-6.66-.3-5.3-.95-9.88-3.74-13.94-8.51-1.27-.04-2.53-.13-3.79-.26-2.78-.29-5.23-.71-7.29-1.23-3.08-.79-7.24-2.24-7.9-5.79-.11-.58-.35-2.59.99-4.32.71-.92,1.68-1.54,2.89-1.86.32-.61.77-1.15,1.3-1.56,1.39-1.09,3-1.17,4.65-.79-.77-2.79-.63-6.05,2.15-9.99,1.63-2.31,3.78-4.5,6.78-6.89,3.1-2.47,6.54-4.73,10.53-6.9s7.78-3.86,11.54-5.13c3.37-1.14,9.79-2.75,14.81-.76,1.94.77,3.62,1.92,4.98,3.41,3.36-1.58,7.36-1.25,10.26.87,4.52,3.3,6.06,9.66,6.51,12.24Z"/>
            <ellipse class="cls-4" cx="51.49" cy="198.9" rx="6.9" ry="22.65" transform="translate(-147.79 148.88) rotate(-61.4)"/>
            <path class="cls-4" d="M77.5,223.32c-.48.54-.98,1.05-1.5,1.55"/>
            <path class="cls-4" d="M37.39,225.49h0c3.34,4.24,7.52,7.53,13.05,8.52,2.67.48,5.36.44,7.97.02"/>
            <path class="cls-4" d="M62.89,232.92c3.35-1.12,6.48-2.81,9.18-4.76"/>
            <path class="cls-4" d="M82.76,214.24c.59-2.19.62-4.5.64-6.75.01-1.1.16-2.31-.31-3.35-.85-1.85-3.11-1.22-3.18.72-.07,1.92,2.09,3.51,3.61,4.27,2.15,1.07,4.68.03,6.23-1.6,1.91-2.01,2.28-5.04,1.82-7.67-.64-3.65-2.26-8.14-5.37-10.4-4.43-3.24-11.79-.11-10.91,5.79.1.64.3,1.29.73,1.77s1.13.77,1.75.58c.68-.21,1.1-.92,1.17-1.63s-.14-1.41-.37-2.08c-1.28-3.8-3.08-6.82-6.98-8.36-3.83-1.52-9.08-.45-12.82.81-3.83,1.29-7.53,2.99-11.08,4.93s-6.96,4.11-10.12,6.63c-2.29,1.82-4.53,3.88-6.22,6.29-3.99,5.66-1.16,9.12.94,13.17.09.17.18.35.27.52"/>
            <g>
              <ellipse cx="55.4" cy="216.97" rx="2.31" ry="1.03" transform="translate(-161.61 161.74) rotate(-61.4)"/>
              <ellipse cx="63.11" cy="212.77" rx="2.31" ry="1.03" transform="translate(-153.9 166.32) rotate(-61.4)"/>
            </g>
            <path class="cls-4" d="M58.93,219.79c.74,1.19,2.3,1.6,3.52.94,1.24-.66,1.75-2.21,1.15-3.49"/>
            <path class="cls-4" d="M74.87,203.08c3.16,3.43,5.24,6.58,6.55,8.8,1.07,1.81,6.11,10.45,3.78,12.95-.25.27-.98.88-1.9.87-1.28-.02-2.1-1.23-2.23-1.43-.54-.82-.54-1.63-.53-2.05,0-.32.01-1.2.42-1.35.12-.05.26-.03.36.03.37.2.3.94.29,1.14-.07.84-.58,2.05-1.67,2.4-.43.14-.87.12-1.17.04-1.79-.49-2.27-4.15-2.91-6.87-.53-2.27-1.53-5.36-3.55-8.94"/>
            <path class="cls-4" d="M43.48,225.19c-4.64.49-8.41.29-10.97.02-2.09-.22-12.03-1.32-12.65-4.68-.07-.36-.13-1.31.44-2.04.78-1.01,2.24-.95,2.47-.94.98.05,1.63.54,1.96.79.26.19.95.72.83,1.15-.03.12-.13.22-.24.27-.38.18-.93-.31-1.08-.45-.63-.56-1.3-1.69-.94-2.77.14-.43.42-.77.67-.96,1.46-1.15,4.69.65,7.25,1.76,2.14.92,5.22,1.97,9.29,2.47"/>
            <path class="cls-4" d="M58.41,234.03c.96,2.81,3.33,6.34,4.37,8.16-.19-.06-1.84-.58-3.36.45-1.42.96-2.5,3-1.12,4.74,1.81,2.27,5.03.12,6.86-.89,1.09-.6,1.99-1.21,2.67-1.71.38-.28.52-.79.32-1.23-1.27-2.76-4.2-8.55-5.26-10.63"/>
            <path class="cls-4" d="M72.08,228.16c1.29,2.15,4.8,7.26,6.48,9.74.26.39.75.54,1.19.38.8-.3,1.8-.73,2.9-1.32,1.84-.99,5.39-2.54,4.46-5.29-.71-2.1-3.01-2.3-4.59-1.62-1.69.72-2.15,2.39-2.2,2.58-.91-1.75-2.54-5.37-4.31-7.75"/>
            <path class="cls-4" d="M46.05,197.81c-.03.17-.02.34.03.51.19.55.8.82,1.36.93s1.17.11,1.68.38c.55.29.82.9.56,1.47.86-1.63,1.89-3.18,2.86-4.74.3-.49.62-1.03.53-1.6-.12-.75-.97-1.24-1.72-1.12s-1.36.71-1.71,1.39c-.24.47-.17,1.24-.7,1.54-.45.26-1.4-.09-1.98.15-.45.19-.84.62-.93,1.08Z"/>
            <path class="cls-4" d="M58.01,192.67c.17-.34.29-.71.49-1.04.24-.38.65-.7,1.1-.64.6.08.92.82.76,1.4s-.63,1.02-1.1,1.39c-2.31,1.85-4.8,2.64-6.49,5.22.96-1.47.87-2.85,2.5-3.94.97-.65,2.08-1.21,2.65-2.23.03-.06.06-.11.09-.17Z"/>
            <path class="cls-4" d="M44.93,200.67c-.22-.21-.41-.44-.63-.65-.32-.32-.75-.59-1.2-.52-.61.09-.98.83-.81,1.42.75,2.78,4.5.17,6.1.29-.93-.1-2.27.27-3.1-.25-.13-.08-.24-.18-.35-.28Z"/>
            <path class="cls-4" d="M44.86,203.98c-.26.11-.52.22-.8.34-.87.37-1.82.74-2.74.5-.58-.15-1.06-.52-1.59-.8-1.25-.64-2.57-.04-2.23,1.49s2.07,1.92,3.41,1.79c2.01-.2,3.63-1.02,5.23-2.18.92-.67,2.69-2.06,3.95-1.58-2.09-.79-3.42-.31-5.22.45Z"/>
            <path class="cls-4" d="M58.43,196.44c1.77-.95,3.54-1.63,4.53-3.85.42-.94,1.91-2.72,2.34-.58.12.59-.11,1.19-.41,1.71-1.36,2.35-4.05,3.53-6.54,4.61s-4.52,2.24-6.18,4.35c.28-2.29,3.18-4.19,4.89-5.4.45-.32.91-.59,1.38-.84Z"/>
            <path class="cls-4" d="M83.43,200.96c1.1.62,2.37-.21,2.79-1.27.33-.83.25-1.77-.02-2.61-.31-.98-.94-1.94-1.91-2.3-.86-.32-2.31.15-2.76,1-.55,1.03.36,2.51.73,3.48.24.65.59,1.38,1.16,1.7Z"/>
          </g>
          <g>
            <path class="cls-5" d="M250.71,212.2c-.83,3.55-4.29,4.12-5.95,4.39-1.45.24-2.68.66-3.76,1.3-2.17,1.28-4.25,3.62-5.5,6.18.01.46.02.91.03,1.37.09,3.62-.82,7.05-2.5,10,.9,1.14,1.71,2.39,2.34,3.43.11-.07.23-.13.34-.19,1.7-.89,3.71-1.06,5.38-.46,1.49.53,2.67,1.65,3.31,3.14,2.01,4.7-2.66,7.63-4.65,8.88l-.04.02c-.15.1-.3.19-.43.27-.99.64-2.04,1.23-3.12,1.73-.38.18-.77.29-1.18.34-1.37.16-2.74-.42-3.57-1.52-.59-.79-1.45-1.91-2.38-3.12l-.02-.03c-1.29-1.68-2.68-3.49-3.75-4.93-1.96,1.04-4.13,1.76-6.44,2.07l-.16.02h-.01s-.16.02-.16.02c-2.4.24-4.75.03-6.97-.57-1.21,3-2.97,7.28-3.87,9.34-.55,1.26-1.74,2.14-3.12,2.31-.41.05-.82.03-1.22-.05-1.17-.24-2.34-.57-3.45-.96-.15-.06-.32-.11-.5-.17-2.25-.76-7.47-2.52-6.61-7.56.28-1.6,1.16-2.96,2.48-3.83,1.49-.97,3.48-1.27,5.34-.8.13.03.26.07.38.11.37-1.15.87-2.55,1.47-3.86-2.32-2.49-4.01-5.61-4.77-9.16-.1-.48-.2-.95-.3-1.41-1.81-2.17-4.35-3.93-6.73-4.66-1.2-.37-2.5-.49-3.96-.39-1.68.12-5.18.37-6.81-2.88-.58-1.16-.64-2.49-.18-3.65.31-.76,1-1.82,2.56-2.55.31-.15.63-.27.96-.37.5-.99,1.4-1.76,2.55-2.18,3.11-1.13,6.44.5,8.15,1.58.08.05.16.1.24.15-.23-1.05-.45-2.12-.68-3.19-1.24-1.12-2.08-2.62-2.34-4.27-.31-1.92.18-3.81,1.38-5.32.31-.4.67-.76,1.06-1.07-.05-.52-.03-1.06.05-1.61.72-4.59,5.31-6.39,8.04-7.46,2.15-.84,4.5-1.5,7.29-2.03l.62-7.54c.09-1.05.2-2.47.89-3.84-.14-.61-.11-1.27.08-1.9.47-1.57,1.88-2.69,3.56-2.82.19-.01.37-.03.56-.05,1.13-.1,2.41-.21,3.78.02.97.17,3.54.6,4.37,3.37.33,1.09.24,2.09.17,2.81l-.88,9.8c2.24.45,4.37,1.15,6.27,2.09,6.12,3.03,8.78,8.3,6.94,13.76-.08.23-.17.46-.27.68.03,1.26.06,2.52.09,3.78.08-.08.16-.16.24-.25,1.41-1.45,4.26-3.81,7.56-3.44,1.22.14,2.27.68,2.99,1.52.34.02.69.07,1.03.14,1.69.35,2.61,1.22,3.08,1.88.72,1.02.97,2.33.68,3.59Z"/>
            <path class="cls-4" d="M232.15,204.31c.17,7.03.32,13.98.5,21.21.21,8.38-5.92,15.58-14.23,16.71-.04,0-.08.01-.11.02-.04,0-.08,0-.11.01-8.34.83-15.98-4.74-17.72-12.94-1.51-7.07-2.89-13.45-4.36-20.32"/>
            <path class="cls-4" d="M197.09,201.12c-.95.2-1.76.72-2.33,1.44-1.56,1.97-.84,4.77,1.18,6.09,1.21.79,2.67,1.1,4.1,1.3,6.1.86,12.33.68,18.39-.34,2.88-.49,5.78-1.11,8.55-2.05,2.08-.71,4.83-1.89,5.6-4.17,1.56-4.63-1.51-8.29-5.49-10.26-4.75-2.35-10.57-2.85-15.75-2.03-2.93.47-5.85,1.11-8.62,2.2-2.44.96-5.79,2.27-6.26,5.23-.47,2.98,2.67,3.79,4.99,4,3.54.32,7.3.21,10.82-.16,2.98-.32,7.48-.92,9.74-3.13,1.54-1.51.79-3.39-1.05-4.11-4.23-1.68-10.21-.82-14.18,1.15-1.68.84-3.65,3.05-1.29,4.51s5.46,1.21,8,1.37"/>
            <path class="cls-4" d="M218.12,196.94c.36-.7.48-1.59.65-2.61.21-1.22.12-2.48.23-3.71.36-4.08.73-8.15,1.09-12.23.05-.58.1-1.17-.06-1.73-.3-1.01-1.17-1.19-2.09-1.35-1.2-.2-2.44-.04-3.64.05-.46.04-.88.33-1.02.78-.2.66.37,1.07.9,1.29.78.33,1.64.48,2.48.44.65-.03.7-.97.06-1.09-1.32-.25-2.82.27-3.54,1.42-.57.9-.67,2.01-.76,3.08-.25,3.05-.5,6.1-.75,9.15-.16,1.98-.53,4.22-.31,6.18.03.23.09.46.21.66.86,1.44,3.07,1.51,4.5,1.13,1.09-.29,1.68-.79,2.03-1.46Z"/>
            <path class="cls-4" d="M212.97,223.62c.29,1.62,1.8,2.75,3.43,2.57,1.64-.18,2.87-1.64,2.78-3.3"/>
            <g>
              <path class="cls-4" d="M225.57,218.87c-.29-1.62-1.8-2.75-3.43-2.57-1.64.18-2.87,1.64-2.78,3.3"/>
              <path class="cls-4" d="M212.02,220.47c-.29-1.62-1.8-2.75-3.43-2.57-1.64.18-2.87,1.64-2.78,3.3"/>
            </g>
            <path class="cls-4" d="M205.98,238.53c-1.65,2.5-2.82,7.15-3.53,9.3-.08-.19-.8-1.76-2.58-2.21-1.67-.42-3.91.14-4.28,2.32-.49,2.86,3.26,3.83,5.23,4.53,1.18.42,2.23.68,3.07.85.46.09.93-.15,1.12-.58,1.22-2.79,4.01-9.66,4.86-11.83"/>
            <path class="cls-4" d="M229.41,235.71c2.21,2.03,4.45,6.33,5.66,8.27.04-.2.36-1.9,1.99-2.75,1.52-.8,3.83-.78,4.7,1.26,1.14,2.67-2.28,4.49-4.03,5.62-1.05.68-2.01,1.18-2.78,1.54-.43.2-.94.07-1.22-.31-1.83-2.43-6.17-8-7.5-9.92"/>
            <path class="cls-4" d="M232.68,223.28c1.39-3.09,3.92-6.15,6.85-7.88,1.48-.87,3.06-1.38,4.75-1.66,1.43-.23,3.22-.54,3.61-2.2.1-.43.04-.9-.22-1.26-.3-.42-.81-.63-1.32-.73-1.39-.29-2.91.11-3.98,1.04-.29.25-.56.58-.52.96,0,.1.04.19.11.26.2.2.53.03.74-.15.54-.49.95-1.12,1.16-1.82.09-.29.15-.6.09-.9-.12-.62-.78-.94-1.36-1.01-1.92-.22-3.91,1.3-5.16,2.58-2.09,2.14-3.5,3.17-5.03,5.98"/>
            <path class="cls-4" d="M199.96,227.14c-2.07-2.68-5.24-5.07-8.5-6.07-1.65-.5-3.3-.63-5.01-.51-1.44.1-3.26.22-4.02-1.3-.2-.39-.25-.87-.08-1.28.19-.48.65-.8,1.11-1.02,1.29-.6,2.86-.57,4.12.09.33.17.68.43.73.81.01.09,0,.2-.04.28-.15.24-.51.16-.75.02-.64-.35-1.18-.87-1.55-1.5-.16-.26-.29-.55-.3-.85-.03-.63.54-1.1,1.09-1.29,1.82-.66,4.1.35,5.62,1.31,2.53,1.6,4.14,2.27,6.28,4.65"/>
            <circle class="cls-4" cx="211.48" cy="235.81" r="2.2"/>
            <circle class="cls-4" cx="206.56" cy="235.32" r="2.2"/>
            <circle class="cls-4" cx="225.97" cy="226.64" r="2.2"/>
            <circle class="cls-4" cx="222.37" cy="238.28" r="2.2"/>
            <circle class="cls-4" cx="222.57" cy="233.83" r="2.2"/>
            <circle class="cls-4" cx="218.18" cy="236.56" r="2.2"/>
            <circle class="cls-4" cx="215.43" cy="233.13" r="2.2"/>
            <circle class="cls-4" cx="201.42" cy="214.17" r="2.2"/>
            <circle class="cls-4" cx="219.67" cy="230.42" r="2.2"/>
            <circle class="cls-4" cx="207.85" cy="227.54" r="2.2"/>
            <circle class="cls-4" cx="214.31" cy="239.91" r="2.2"/>
            <circle class="cls-4" cx="226.61" cy="235.57" r="2.2"/>
            <path class="cls-4" d="M196.88,211.03c1.73-.79,3.17-.46,5.04-.08s3.67,1.04,5.55,1.31c5.3.75,6.84-1.35,12.06-2.54,2.95-.67,10.47,1.08,12.48-2.65"/>
          </g>
          <path class="cls-3" d="M174.42,5.72"/>
          <path class="cls-2" d="M282.43,272.34c-4.76,1.13-8.51,5.45-8.85,10.37-.3,4.33,2.22,8.77,6.17,10.55s9.07.67,11.78-2.73c2.71-3.4,2.49-8.99-.89-11.74-3.12-2.54-7.82-1.97-10.74.6-2.18,1.91-2.82,5.31-1.38,7.86,1.9,3.33,7.11,2.72,8.9-.44.53-.95.64-2.18.07-3.11-.67-1.1-2.24-1.53-3.38-.92s-1.64,2.17-1.08,3.33"/>
          <path class="cls-2" d="M-17.17,134.74c2.64-.17,5.35-1.43,7.59-2.76,1.67-.99,3.48-2.22,4.42-3.97.52-.96.73-2.3.11-3.27-.74-1.16-2.24-.8-3.24-.19-2.17,1.34-3.13,4.13-2.85,6.66.15,1.35.61,2.69,1.47,3.76s2.12,1.82,3.48,1.92c1.86.14,3.6-.91,5.05-2.09,1.57-1.27,3.07-2.77,4.25-4.41.72-1.01,1.37-3.19.07-4.05-1.08-.72-2.7.26-3.49,1.02-1.7,1.64-2.63,4.16-3.04,6.44-.45,2.49-.15,5.51,2.19,6.98,1.61,1.01,3.74.89,5.49.15,2.45-1.03,9.12-5.54,7.06-8.97-.97-1.62-3.66-1.35-4.8.15-2.38,3.12-.02,7.98,3.54,8.84,2.93.71,6.26-1.25,7.05-4.16"/>
          <path class="cls-2" d="M149.41-2.24c-2.64-.2-5.5.67-7.9,1.68-1.79.75-3.75,1.71-4.93,3.31-.64.87-1.04,2.18-.56,3.22.57,1.25,2.11,1.11,3.18.64,2.33-1.02,3.67-3.65,3.75-6.2.04-1.36-.23-2.75-.93-3.92s-1.85-2.1-3.18-2.39c-1.83-.4-3.69.4-5.3,1.37-1.73,1.04-3.42,2.31-4.82,3.78-.86.9-1.8,2.97-.63,4,.97.86,2.71.12,3.6-.53,1.91-1.39,3.18-3.75,3.9-5.95.79-2.4.91-5.44-1.19-7.22-1.45-1.23-3.58-1.4-5.42-.91-2.57.68-9.8,4.22-8.24,7.9.74,1.74,3.43,1.84,4.78.52,2.79-2.75,1.13-7.9-2.27-9.25-2.81-1.11-6.37.37-7.56,3.14"/>
        </g>
        <path class="cls-2" d="M-1.04,272.34c-4.76,1.13-8.51,5.45-8.85,10.37-.3,4.33,2.22,8.77,6.17,10.55s9.07.67,11.78-2.73c2.71-3.4,2.49-8.99-.89-11.74-3.12-2.54-7.82-1.97-10.74.6-2.18,1.91-2.82,5.31-1.38,7.86,1.9,3.33,7.11,2.72,8.9-.44.53-.95.64-2.18.07-3.11-.67-1.1-2.24-1.53-3.38-.92s-1.64,2.17-1.08,3.33"/>
        <path class="cls-2" d="M282.43-11.12c-4.76,1.13-8.51,5.45-8.85,10.37-.3,4.33,2.22,8.77,6.17,10.55s9.07.67,11.78-2.73c2.71-3.4,2.49-8.99-.89-11.74-3.12-2.54-7.82-1.97-10.74.6-2.18,1.91-2.82,5.31-1.38,7.86,1.9,3.33,7.11,2.72,8.9-.44.53-.95.64-2.18.07-3.11-.67-1.1-2.24-1.53-3.38-.92s-1.64,2.17-1.08,3.33"/>
        <path class="cls-2" d="M-1.04-11.12C-5.8-9.99-9.55-5.68-9.89-.75c-.3,4.33,2.22,8.77,6.17,10.55s9.07.67,11.78-2.73c2.71-3.4,2.49-8.99-.89-11.74-3.12-2.54-7.82-1.97-10.74.6-2.18,1.91-2.82,5.31-1.38,7.86,1.9,3.33,7.11,2.72,8.9-.44.53-.95.64-2.18.07-3.11C3.36-.86,1.78-1.29.65-.68S-.99,1.49-.43,2.65"/>
      </g>
    </pattern>
  </defs>
  <rect class="cls-8" x="-.2" y="-1.19" width="595.68" height="844.27"/>
</svg>