<?xml version="1.0" encoding="UTF-8"?>
<svg id="Layer_1" data-name="Layer 1" xmlns="http://www.w3.org/2000/svg" xmlns:xlink="http://www.w3.org/1999/xlink" viewBox="0 0 595.98 844.68">
  <defs>
    <style>
      .cls-1 {
        fill: none;
      }

      .cls-2 {
        fill: #54a2d0;
      }

      .cls-3 {
        fill: #7ab4d2;
      }

      .cls-4 {
        fill: #519bd0;
      }

      .cls-5 {
        fill: url(#New_Pattern_Swatch_11);
      }

      .cls-6 {
        fill: #fcec60;
      }

      .cls-7 {
        fill: #fcc460;
      }

      .cls-8 {
        fill: #ada5d0;
      }

      .cls-9 {
        fill: #988ec5;
      }

      .cls-10 {
        fill: #8d7ecf;
      }

      .cls-11 {
        fill: #fcd860;
      }

      .cls-12 {
        fill: #fef8a5;
      }
    </style>
    <pattern id="New_Pattern_Swatch_11" data-name="New Pattern Swatch 11" x="0" y="0" width="228.7" height="228.15" patternTransform="translate(2696.4275 4154.1974) scale(.6816)" patternUnits="userSpaceOnUse" viewBox="0 0 228.7 228.15">
      <g>
        <rect class="cls-1" y="0" width="228.7" height="228.15"/>
        <path class="cls-3" d="M56.93,228.14H.98c3.73-.08,6.99-1.17,9.96-3.31,2.57-1.85,4.52-4.19,6.41-6.46,3.4-4.09,6.09-7.31,11.61-7.31s8.2,3.23,11.61,7.31c1.89,2.26,3.83,4.6,6.41,6.46,2.96,2.14,6.23,3.22,9.96,3.31Z"/>
        <path class="cls-3" d="M113.86,228.14h-55.96c3.73-.08,6.99-1.17,9.96-3.31,2.57-1.85,4.53-4.19,6.41-6.46,3.4-4.09,6.09-7.31,11.61-7.31s8.2,3.23,11.61,7.31c1.89,2.26,3.84,4.6,6.41,6.46,2.97,2.14,6.23,3.22,9.96,3.31Z"/>
        <path class="cls-3" d="M170.79,228.14h-55.95c3.73-.08,6.99-1.17,9.96-3.31,2.58-1.85,4.53-4.19,6.41-6.46,3.4-4.09,6.09-7.31,11.61-7.31s8.2,3.23,11.61,7.31c1.89,2.26,3.83,4.6,6.41,6.46,2.97,2.14,6.23,3.22,9.96,3.31Z"/>
        <path class="cls-3" d="M227.73,228.14h-55.96c3.73-.08,6.99-1.17,9.96-3.31,2.57-1.85,4.53-4.19,6.41-6.46,3.4-4.09,6.09-7.31,11.61-7.31s8.2,3.23,11.61,7.31c1.89,2.26,3.84,4.6,6.41,6.46,2.97,2.14,6.23,3.22,9.96,3.31Z"/>
        <path class="cls-12" d="M.98,228.14c-.16,0-.32,0-.49,0s-.33,0-.49,0h.98Z"/>
        <path class="cls-12" d="M57.91,228.14c-.16,0-.32,0-.49,0s-.33,0-.49,0h.98Z"/>
        <path class="cls-12" d="M114.84,228.14c-.16,0-.32,0-.49,0s-.33,0-.49,0h.98Z"/>
        <path class="cls-12" d="M171.77,228.14c-.16,0-.32,0-.49,0s-.33,0-.49,0h.98Z"/>
        <path class="cls-12" d="M228.7,228.14c-.16,0-.32,0-.49,0s-.33,0-.49,0h.98Z"/>
        <path class="cls-10" d="M228.7,215.15v12.99h-.98c-3.73-.08-6.99-1.17-9.96-3.31-2.57-1.85-4.53-4.19-6.41-6.46-3.4-4.09-6.09-7.31-11.61-7.31s-8.2,3.23-11.61,7.31c-1.89,2.26-3.84,4.6-6.41,6.46-2.97,2.14-6.23,3.22-9.96,3.31h-.98c-3.73-.08-6.99-1.17-9.96-3.31-2.57-1.85-4.52-4.19-6.41-6.46-3.41-4.09-6.09-7.31-11.61-7.31s-8.2,3.23-11.61,7.31c-1.89,2.26-3.83,4.6-6.41,6.46-2.96,2.14-6.23,3.22-9.96,3.31h-.98c-3.73-.08-6.99-1.17-9.96-3.31-2.57-1.85-4.53-4.19-6.41-6.46-3.4-4.09-6.09-7.31-11.61-7.31s-8.2,3.23-11.61,7.31c-1.89,2.26-3.84,4.6-6.41,6.46-2.97,2.14-6.23,3.22-9.96,3.31h-.98c-3.73-.08-6.99-1.17-9.96-3.31-2.58-1.85-4.53-4.19-6.41-6.46-3.4-4.09-6.09-7.31-11.61-7.31s-8.21,3.23-11.61,7.31c-1.89,2.26-3.83,4.6-6.41,6.46-2.97,2.14-6.23,3.22-9.96,3.31h-.98v-12.99c.16,0,.32,0,.49,0,3.94,0,7.35-1.08,10.45-3.31.47-.34.92-.69,1.35-1.06,1.93-1.65,3.52-3.55,5.06-5.4,3.4-4.09,6.09-7.31,11.61-7.31s8.2,3.23,11.61,7.31c1.54,1.85,3.12,3.75,5.06,5.4.43.37.88.72,1.35,1.06,3.09,2.23,6.51,3.31,10.44,3.31s7.35-1.08,10.45-3.31c.47-.34.92-.69,1.35-1.06,1.93-1.65,3.52-3.55,5.06-5.4,3.4-4.09,6.09-7.31,11.61-7.31s8.2,3.23,11.61,7.31c1.54,1.85,3.13,3.75,5.06,5.4.43.37.88.72,1.35,1.06,3.1,2.23,6.51,3.31,10.45,3.31s7.35-1.08,10.44-3.31c.47-.34.92-.69,1.35-1.06,1.93-1.65,3.52-3.55,5.06-5.4,3.4-4.09,6.09-7.31,11.61-7.31s8.2,3.23,11.61,7.31c1.54,1.85,3.12,3.75,5.06,5.4.43.37.88.72,1.35,1.06,3.1,2.23,6.51,3.31,10.45,3.31s7.35-1.08,10.45-3.31c.47-.34.92-.69,1.35-1.06,1.93-1.65,3.52-3.55,5.06-5.4,3.4-4.09,6.09-7.31,11.61-7.31s8.2,3.23,11.61,7.31c1.54,1.85,3.13,3.75,5.06,5.4.43.37.88.72,1.35,1.06,3.1,2.23,6.51,3.31,10.45,3.31.16,0,.33,0,.49,0Z"/>
        <path class="cls-9" d="M228.7,202.17v12.98c-.16,0-.32,0-.49,0-3.94,0-7.35-1.08-10.45-3.31-.47-.34-.92-.69-1.35-1.06-1.93-1.65-3.52-3.55-5.06-5.4-3.4-4.09-6.09-7.31-11.61-7.31s-8.2,3.23-11.61,7.31c-1.54,1.85-3.13,3.75-5.06,5.4-.43.37-.88.72-1.35,1.06-3.1,2.23-6.51,3.31-10.45,3.31s-7.35-1.08-10.45-3.31c-.47-.34-.92-.69-1.35-1.06-1.93-1.65-3.52-3.55-5.06-5.4-3.41-4.09-6.09-7.31-11.61-7.31s-8.2,3.23-11.61,7.31c-1.54,1.85-3.12,3.75-5.06,5.4-.43.37-.88.72-1.35,1.06-3.09,2.23-6.51,3.31-10.44,3.31s-7.35-1.08-10.45-3.31c-.47-.34-.92-.69-1.35-1.06-1.93-1.65-3.52-3.55-5.06-5.4-3.4-4.09-6.09-7.31-11.61-7.31s-8.2,3.23-11.61,7.31c-1.54,1.85-3.13,3.75-5.06,5.4-.43.37-.88.72-1.35,1.06-3.1,2.23-6.51,3.31-10.45,3.31s-7.35-1.08-10.44-3.31c-.47-.34-.92-.69-1.35-1.06-1.93-1.65-3.52-3.55-5.06-5.4-3.4-4.09-6.09-7.31-11.61-7.31s-8.21,3.23-11.61,7.31c-1.54,1.85-3.12,3.75-5.06,5.4-.43.37-.88.72-1.35,1.06-3.1,2.23-6.51,3.31-10.45,3.31-.16,0-.33,0-.49,0v-12.98c.16,0,.32,0,.49,0,3.94,0,7.35-1.08,10.45-3.31,2.57-1.85,4.52-4.19,6.41-6.46,3.4-4.09,6.09-7.31,11.61-7.31s8.2,3.23,11.61,7.31c1.89,2.26,3.83,4.6,6.41,6.46,3.09,2.23,6.51,3.31,10.44,3.31s7.35-1.08,10.45-3.31c2.57-1.85,4.53-4.19,6.41-6.46,3.4-4.09,6.09-7.31,11.61-7.31s8.2,3.23,11.61,7.31c1.89,2.26,3.84,4.6,6.41,6.46,3.1,2.23,6.51,3.31,10.45,3.31s7.35-1.08,10.44-3.31c2.58-1.85,4.53-4.19,6.41-6.46,3.4-4.09,6.09-7.31,11.61-7.31s8.2,3.23,11.61,7.31c1.89,2.26,3.83,4.6,6.41,6.46,3.1,2.23,6.51,3.31,10.45,3.31s7.35-1.08,10.45-3.31c2.57-1.85,4.53-4.19,6.41-6.46,3.4-4.09,6.09-7.31,11.61-7.31s8.2,3.23,11.61,7.31c1.89,2.26,3.84,4.6,6.41,6.46,3.1,2.23,6.51,3.31,10.45,3.31.16,0,.33,0,.49,0Z"/>
        <path class="cls-8" d="M228.7,158.18v43.99c-.16,0-.32,0-.49,0-3.94,0-7.35-1.08-10.45-3.31-2.57-1.85-4.53-4.19-6.41-6.46-3.4-4.09-6.09-7.31-11.61-7.31s-8.2,3.23-11.61,7.31c-1.89,2.26-3.84,4.6-6.41,6.46-3.1,2.23-6.51,3.31-10.45,3.31s-7.35-1.08-10.45-3.31c-2.57-1.85-4.52-4.19-6.41-6.46-3.41-4.09-6.09-7.31-11.61-7.31s-8.2,3.23-11.61,7.31c-1.89,2.26-3.83,4.6-6.41,6.46-3.09,2.23-6.51,3.31-10.44,3.31s-7.35-1.08-10.45-3.31c-2.57-1.85-4.53-4.19-6.41-6.46-3.4-4.09-6.09-7.31-11.61-7.31s-8.2,3.23-11.61,7.31c-1.89,2.26-3.84,4.6-6.41,6.46-3.1,2.23-6.51,3.31-10.45,3.31s-7.35-1.08-10.44-3.31c-2.58-1.85-4.53-4.19-6.41-6.46-3.4-4.09-6.09-7.31-11.61-7.31s-8.21,3.23-11.61,7.31c-1.89,2.26-3.83,4.6-6.41,6.46-3.1,2.23-6.51,3.31-10.45,3.31-.16,0-.33,0-.49,0v-43.99c.16,0,.32,0,.49,0,3.94,0,7.35-1.08,10.45-3.31,2.57-1.85,4.52-4.19,6.41-6.46,3.4-4.09,6.09-7.31,11.61-7.31s8.2,3.23,11.61,7.31c1.89,2.26,3.83,4.6,6.41,6.46,3.09,2.23,6.51,3.31,10.44,3.31s7.35-1.08,10.45-3.31c2.57-1.85,4.53-4.19,6.41-6.46,3.4-4.09,6.09-7.31,11.61-7.31s8.2,3.23,11.61,7.31c1.89,2.26,3.84,4.6,6.41,6.46,3.1,2.23,6.51,3.31,10.45,3.31s7.35-1.08,10.44-3.31c2.58-1.85,4.53-4.19,6.41-6.46,3.4-4.09,6.09-7.31,11.61-7.31s8.2,3.23,11.61,7.31c1.89,2.26,3.83,4.6,6.41,6.46,3.1,2.23,6.51,3.31,10.45,3.31s7.35-1.08,10.45-3.31c2.57-1.85,4.53-4.19,6.41-6.46,3.4-4.09,6.09-7.31,11.61-7.31s8.2,3.23,11.61,7.31c1.89,2.26,3.84,4.6,6.41,6.46,3.1,2.23,6.51,3.31,10.45,3.31.16,0,.33,0,.49,0Z"/>
        <path class="cls-7" d="M228.7,145.19v12.99c-.16,0-.32,0-.49,0-3.94,0-7.35-1.08-10.45-3.31-2.57-1.85-4.53-4.19-6.41-6.46-3.4-4.09-6.09-7.31-11.61-7.31s-8.2,3.23-11.61,7.31c-1.89,2.26-3.84,4.6-6.41,6.46-3.1,2.23-6.51,3.31-10.45,3.31s-7.35-1.08-10.45-3.31c-2.57-1.85-4.52-4.19-6.41-6.46-3.41-4.09-6.09-7.31-11.61-7.31s-8.2,3.23-11.61,7.31c-1.89,2.26-3.83,4.6-6.41,6.46-3.09,2.23-6.51,3.31-10.44,3.31s-7.35-1.08-10.45-3.31c-2.57-1.85-4.53-4.19-6.41-6.46-3.4-4.09-6.09-7.31-11.61-7.31s-8.2,3.23-11.61,7.31c-1.89,2.26-3.84,4.6-6.41,6.46-3.1,2.23-6.51,3.31-10.45,3.31s-7.35-1.08-10.44-3.31c-2.58-1.85-4.53-4.19-6.41-6.46-3.4-4.09-6.09-7.31-11.61-7.31s-8.21,3.23-11.61,7.31c-1.89,2.26-3.83,4.6-6.41,6.46-3.1,2.23-6.51,3.31-10.45,3.31-.16,0-.33,0-.49,0v-12.99c.16,0,.32,0,.49,0,3.94,0,7.35-1.08,10.45-3.31,2.57-1.85,4.52-4.19,6.41-6.46,3.4-4.09,6.09-7.31,11.61-7.31s8.2,3.23,11.61,7.31c1.89,2.26,3.83,4.6,6.41,6.46,3.09,2.23,6.51,3.31,10.44,3.31s7.35-1.08,10.45-3.31c2.57-1.85,4.53-4.19,6.41-6.46,3.4-4.09,6.09-7.31,11.61-7.31s8.2,3.23,11.61,7.31c1.89,2.26,3.84,4.6,6.41,6.46,3.1,2.23,6.51,3.31,10.45,3.31s7.35-1.08,10.44-3.31c2.58-1.85,4.53-4.19,6.41-6.46,3.4-4.09,6.09-7.31,11.61-7.31s8.2,3.23,11.61,7.31c1.89,2.26,3.83,4.6,6.41,6.46,3.1,2.23,6.51,3.31,10.45,3.31s7.35-1.08,10.45-3.31c2.57-1.85,4.53-4.19,6.41-6.46,3.4-4.09,6.09-7.31,11.61-7.31s8.2,3.23,11.61,7.31c1.89,2.26,3.84,4.6,6.41,6.46,3.1,2.23,6.51,3.31,10.45,3.31.16,0,.33,0,.49,0Z"/>
        <path class="cls-11" d="M228.7,132.21v12.99c-.16,0-.32,0-.49,0-3.94,0-7.35-1.08-10.45-3.31-2.57-1.85-4.53-4.19-6.41-6.46-3.4-4.09-6.09-7.31-11.61-7.31s-8.2,3.23-11.61,7.31c-1.89,2.26-3.84,4.6-6.41,6.46-3.1,2.23-6.51,3.31-10.45,3.31s-7.35-1.08-10.45-3.31c-2.57-1.85-4.52-4.19-6.41-6.46-3.41-4.09-6.09-7.31-11.61-7.31s-8.2,3.23-11.61,7.31c-1.89,2.26-3.83,4.6-6.41,6.46-3.09,2.23-6.51,3.31-10.44,3.31s-7.35-1.08-10.45-3.31c-2.57-1.85-4.53-4.19-6.41-6.46-3.4-4.09-6.09-7.31-11.61-7.31s-8.2,3.23-11.61,7.31c-1.89,2.26-3.84,4.6-6.41,6.46-3.1,2.23-6.51,3.31-10.45,3.31s-7.35-1.08-10.44-3.31c-2.58-1.85-4.53-4.19-6.41-6.46-3.4-4.09-6.09-7.31-11.61-7.31s-8.21,3.23-11.61,7.31c-1.89,2.26-3.83,4.6-6.41,6.46-3.1,2.23-6.51,3.31-10.45,3.31-.16,0-.33,0-.49,0v-12.99c.16,0,.32,0,.49,0,3.94,0,7.35-1.08,10.45-3.31,2.57-1.85,4.52-4.19,6.41-6.46.53-.64,1.05-1.26,1.56-1.84.1-.12.2-.24.31-.35.09-.1.18-.2.27-.3.14-.16.28-.31.42-.46.99-1.06,2.01-1.99,3.15-2.71.24-.15.47-.29.71-.42.77-.41,1.6-.74,2.51-.95.1-.02.19-.04.29-.07h.01c.14-.03.28-.05.42-.08.26-.04.52-.08.79-.1.11-.01.22-.02.33-.03.27-.02.55-.03.83-.03s.56,0,.83.03c.12,0,.23.01.33.03.12,0,.24.02.36.04.1.01.2.03.3.04.12.02.23.04.34.06.12.02.23.04.34.07.14.03.28.06.42.1.26.07.51.14.77.23.1.04.19.07.29.11.04.01.08.03.12.04.11.04.22.09.33.14.02,0,.04.01.05.02.11.04.22.1.32.15,2.63,1.27,4.56,3.58,6.8,6.27,1.89,2.26,3.83,4.6,6.41,6.46,3.09,2.23,6.51,3.31,10.44,3.31s7.35-1.08,10.45-3.31c2.57-1.85,4.53-4.19,6.41-6.46.53-.64,1.05-1.26,1.56-1.84.1-.12.2-.24.31-.35.09-.1.18-.2.27-.3.14-.16.28-.31.42-.46,1.79-1.92,3.65-3.39,6.15-4.02.12-.03.23-.06.35-.08.03,0,.05-.01.08-.02.13-.03.27-.05.41-.08.1-.02.2-.04.31-.05.55-.08,1.14-.12,1.76-.12s1.21.04,1.76.12c.11.01.21.03.31.05.14.02.27.05.41.08.03,0,.05.01.08.02.12.03.24.05.35.08,2.5.63,4.36,2.1,6.15,4.02.14.15.28.3.42.46.09.1.18.2.27.3.1.12.2.23.31.35.51.59,1.03,1.2,1.56,1.84,1.89,2.26,3.84,4.6,6.41,6.46,3.1,2.23,6.51,3.31,10.45,3.31s7.35-1.08,10.44-3.31c2.58-1.85,4.53-4.19,6.41-6.46,2.24-2.69,4.17-5,6.8-6.27.11-.05.21-.1.32-.15.02,0,.04-.02.05-.02.11-.05.22-.1.33-.14.04-.02.08-.03.12-.04.1-.04.19-.07.29-.11.25-.08.51-.16.77-.23.14-.04.28-.07.42-.1.11-.03.23-.05.34-.07.12-.02.23-.04.34-.06.1-.01.2-.03.3-.04.12-.01.24-.03.35-.04.11-.01.22-.02.33-.03.27-.02.55-.03.83-.03s.56,0,.83.03c.12,0,.23.01.33.03.27.02.54.05.79.1.14.02.28.05.42.08h.01c.1.02.2.04.3.07.91.21,1.74.53,2.51.95.24.13.48.27.71.42,2.09,1.33,3.78,3.36,5.7,5.66,1.89,2.26,3.83,4.6,6.41,6.46,3.1,2.23,6.51,3.31,10.45,3.31s7.35-1.08,10.45-3.31c2.57-1.85,4.53-4.19,6.41-6.46,2.24-2.69,4.17-5,6.8-6.27.11-.05.21-.1.32-.15.02,0,.04-.02.05-.02.11-.05.22-.1.33-.14.04-.02.08-.03.12-.04.1-.04.19-.07.29-.11.25-.08.51-.16.77-.23.14-.04.28-.07.42-.1.11-.03.23-.05.34-.07.12-.02.23-.04.34-.06.1-.01.2-.03.3-.04.12-.01.23-.03.35-.04.11-.01.22-.02.33-.03.27-.02.55-.03.83-.03s.56,0,.83.03c.12,0,.23.01.33.03.12,0,.24.02.35.04.1.01.2.03.3.04.12.02.23.04.34.06.12.02.23.04.34.07.14.03.28.06.42.1.26.07.51.14.77.23.1.04.19.07.29.11.04.01.08.03.12.04.11.04.22.09.33.14.02,0,.04.01.05.02.11.04.22.1.32.15,2.63,1.27,4.56,3.58,6.8,6.27,1.89,2.26,3.84,4.6,6.41,6.46,3.1,2.23,6.51,3.31,10.45,3.31.16,0,.33,0,.49,0Z"/>
        <path class="cls-6" d="M228.7,87.31v44.89c-.16,0-.32,0-.49,0-3.94,0-7.35-1.08-10.45-3.31-2.57-1.85-4.53-4.19-6.41-6.46-2.24-2.69-4.17-5-6.8-6.27-.11-.05-.21-.1-.32-.15-.02,0-.04-.02-.05-.02-.11-.05-.22-.1-.33-.14-.04-.02-.08-.03-.12-.04-.1-.04-.19-.07-.29-.11-.25-.08-.51-.16-.77-.23-.14-.04-.28-.07-.42-.1-.11-.03-.23-.05-.34-.07-.12-.02-.23-.04-.34-.06-.1-.01-.2-.03-.3-.04-.12-.01-.24-.03-.35-.04-.11-.01-.22-.02-.33-.03-.27-.02-.55-.03-.83-.03s-.56,0-.83.03c-.12,0-.23.01-.33.03-.12,0-.24.02-.35.04-.1.01-.2.03-.3.04-.12.02-.23.04-.34.06-.12.02-.23.04-.34.07-.14.03-.28.06-.42.1-.26.07-.51.14-.77.23-.1.04-.19.07-.29.11-.04.01-.08.03-.12.04-.11.04-.22.09-.33.14-.02,0-.04.01-.05.02-.11.04-.22.1-.32.15-2.63,1.27-4.56,3.58-6.8,6.27-1.89,2.26-3.84,4.6-6.41,6.46-3.1,2.23-6.51,3.31-10.45,3.31s-7.35-1.08-10.45-3.31c-2.57-1.85-4.52-4.19-6.41-6.46-1.92-2.3-3.6-4.33-5.7-5.66-.24-.15-.47-.29-.71-.42-.77-.41-1.59-.73-2.51-.95-.1-.02-.2-.04-.3-.07h-.01c-.14-.03-.28-.05-.42-.08-.26-.04-.52-.08-.79-.1-.11-.01-.22-.02-.33-.03-.27-.02-.55-.03-.83-.03s-.56,0-.83.03c-.12,0-.23.01-.33.03-.12,0-.24.02-.35.04-.1.01-.2.03-.3.04-.12.02-.23.04-.34.06-.12.02-.23.04-.34.07-.14.03-.28.06-.42.1-.26.07-.51.14-.77.23-.1.04-.19.07-.29.11-.04.01-.08.03-.12.04-.11.04-.22.09-.33.14-.02,0-.04.01-.05.02-.11.04-.22.1-.32.15-2.63,1.27-4.56,3.58-6.8,6.27-1.89,2.26-3.83,4.6-6.41,6.46-3.09,2.23-6.51,3.31-10.44,3.31s-7.35-1.08-10.45-3.31c-2.57-1.85-4.53-4.19-6.41-6.46-.53-.64-1.05-1.26-1.56-1.84-.1-.12-.2-.24-.31-.35-.09-.1-.18-.2-.27-.3-.14-.16-.28-.31-.42-.46-1.79-1.92-3.65-3.39-6.15-4.02-.12-.03-.23-.06-.35-.08-.03,0-.05-.01-.08-.02-.13-.03-.27-.05-.41-.08-.1-.02-.2-.04-.31-.05-.55-.08-1.14-.12-1.76-.12s-1.21.04-1.76.12c-.11.01-.21.03-.31.05-.14.02-.28.05-.41.08-.03,0-.05.01-.08.02-.12.03-.24.05-.35.08-2.5.63-4.36,2.1-6.15,4.02-.14.15-.28.3-.42.46-.09.1-.18.2-.27.3-.1.12-.2.23-.31.35-.51.59-1.02,1.2-1.56,1.84-1.89,2.26-3.84,4.6-6.41,6.46-3.1,2.23-6.51,3.31-10.45,3.31s-7.35-1.08-10.44-3.31c-2.58-1.85-4.53-4.19-6.41-6.46-2.24-2.69-4.17-5-6.8-6.27-.11-.05-.21-.1-.32-.15-.02,0-.04-.02-.05-.02-.11-.05-.22-.1-.33-.14-.04-.02-.08-.03-.12-.04-.1-.04-.19-.07-.29-.11-.25-.08-.51-.16-.77-.23-.14-.04-.27-.07-.42-.1-.11-.03-.23-.05-.34-.07-.12-.02-.23-.04-.34-.06-.1-.01-.2-.03-.3-.04-.12-.01-.24-.03-.36-.04-.11-.01-.22-.02-.33-.03-.27-.02-.55-.03-.83-.03s-.56,0-.83.03c-.12,0-.23.01-.33.03-.28.02-.54.05-.79.1-.14.02-.28.05-.42.08h-.01c-.1.02-.2.04-.29.07-.91.21-1.74.53-2.51.95-.24.13-.48.27-.71.42-1.14.72-2.15,1.65-3.15,2.71-.14.15-.28.3-.42.46-.09.1-.18.2-.27.3-.1.12-.2.23-.31.35-.51.59-1.02,1.2-1.56,1.84-1.89,2.26-3.83,4.6-6.41,6.46-3.1,2.23-6.51,3.31-10.45,3.31-.16,0-.33,0-.49,0v-44.89c.16,0,.32,0,.49,0,3.94,0,7.35-1.08,10.45-3.31,2.57-1.85,4.52-4.19,6.41-6.46,3.4-4.09,6.09-7.31,11.61-7.31s8.2,3.23,11.61,7.31c1.89,2.26,3.83,4.6,6.41,6.46,3.09,2.23,6.51,3.31,10.44,3.31s7.35-1.08,10.45-3.31c2.57-1.85,4.53-4.19,6.41-6.46,3.4-4.09,6.09-7.31,11.61-7.31s8.2,3.23,11.61,7.31c1.89,2.26,3.84,4.6,6.41,6.46,3.1,2.23,6.51,3.31,10.45,3.31s7.35-1.08,10.44-3.31c2.58-1.85,4.53-4.19,6.41-6.46,3.4-4.09,6.09-7.31,11.61-7.31s8.2,3.23,11.61,7.31c1.89,2.26,3.83,4.6,6.41,6.46,3.1,2.23,6.51,3.31,10.45,3.31s7.35-1.08,10.45-3.31c2.57-1.85,4.53-4.19,6.41-6.46,3.4-4.09,6.09-7.31,11.61-7.31s8.2,3.23,11.61,7.31c1.89,2.26,3.84,4.6,6.41,6.46,3.1,2.23,6.51,3.31,10.45,3.31.16,0,.33,0,.49,0Z"/>
        <path class="cls-4" d="M228.7,74.33v12.99c-.16,0-.32,0-.49,0-3.94,0-7.35-1.08-10.45-3.31-2.57-1.85-4.53-4.19-6.41-6.46-3.4-4.09-6.09-7.31-11.61-7.31s-8.2,3.23-11.61,7.31c-1.89,2.26-3.84,4.6-6.41,6.46-3.1,2.23-6.51,3.31-10.45,3.31s-7.35-1.08-10.45-3.31c-2.57-1.85-4.52-4.19-6.41-6.46-3.41-4.09-6.09-7.31-11.61-7.31s-8.2,3.23-11.61,7.31c-1.89,2.26-3.83,4.6-6.41,6.46-3.09,2.23-6.51,3.31-10.44,3.31s-7.35-1.08-10.45-3.31c-2.57-1.85-4.53-4.19-6.41-6.46-3.4-4.09-6.09-7.31-11.61-7.31s-8.2,3.23-11.61,7.31c-1.89,2.26-3.84,4.6-6.41,6.46-3.1,2.23-6.51,3.31-10.45,3.31s-7.35-1.08-10.44-3.31c-2.58-1.85-4.53-4.19-6.41-6.46-3.4-4.09-6.09-7.31-11.61-7.31s-8.21,3.23-11.61,7.31c-1.89,2.26-3.83,4.6-6.41,6.46-3.1,2.23-6.51,3.31-10.45,3.31-.16,0-.33,0-.49,0v-12.99c.16,0,.32,0,.49,0,3.94,0,7.35-1.08,10.45-3.31,2.57-1.85,4.52-4.19,6.41-6.46,3.4-4.09,6.09-7.31,11.61-7.31s8.2,3.23,11.61,7.31c1.89,2.26,3.83,4.6,6.41,6.46,3.09,2.23,6.51,3.31,10.44,3.31s7.35-1.08,10.45-3.31c2.57-1.85,4.53-4.19,6.41-6.46,3.4-4.09,6.09-7.31,11.61-7.31s8.2,3.23,11.61,7.31c1.89,2.26,3.84,4.6,6.41,6.46,3.1,2.23,6.51,3.31,10.45,3.31s7.35-1.08,10.44-3.31c2.58-1.85,4.53-4.19,6.41-6.46,3.4-4.09,6.09-7.31,11.61-7.31s8.2,3.23,11.61,7.31c1.89,2.26,3.83,4.6,6.41,6.46,3.1,2.23,6.51,3.31,10.45,3.31s7.35-1.08,10.45-3.31c2.57-1.85,4.53-4.19,6.41-6.46,3.4-4.09,6.09-7.31,11.61-7.31s8.2,3.23,11.61,7.31c1.89,2.26,3.84,4.6,6.41,6.46,3.1,2.23,6.51,3.31,10.45,3.31.16,0,.33,0,.49,0Z"/>
        <path class="cls-2" d="M228.7,61.34v12.99c-.16,0-.32,0-.49,0-3.94,0-7.35-1.08-10.45-3.31-2.57-1.85-4.53-4.19-6.41-6.46-3.4-4.09-6.09-7.31-11.61-7.31s-8.2,3.23-11.61,7.31c-1.89,2.26-3.84,4.6-6.41,6.46-3.1,2.23-6.51,3.31-10.45,3.31s-7.35-1.08-10.45-3.31c-2.57-1.85-4.52-4.19-6.41-6.46-3.41-4.09-6.09-7.31-11.61-7.31s-8.2,3.23-11.61,7.31c-1.89,2.26-3.83,4.6-6.41,6.46-3.09,2.23-6.51,3.31-10.44,3.31s-7.35-1.08-10.45-3.31c-2.57-1.85-4.53-4.19-6.41-6.46-3.4-4.09-6.09-7.31-11.61-7.31s-8.2,3.23-11.61,7.31c-1.89,2.26-3.84,4.6-6.41,6.46-3.1,2.23-6.51,3.31-10.45,3.31s-7.35-1.08-10.44-3.31c-2.58-1.85-4.53-4.19-6.41-6.46-3.4-4.09-6.09-7.31-11.61-7.31s-8.21,3.23-11.61,7.31c-1.89,2.26-3.83,4.6-6.41,6.46-3.1,2.23-6.51,3.31-10.45,3.31-.16,0-.33,0-.49,0v-12.99c.16,0,.32,0,.49,0,3.94,0,7.35-1.08,10.45-3.31,2.57-1.85,4.52-4.19,6.41-6.46.08-.1.16-.2.24-.29.08-.1.16-.19.24-.28.16-.19.32-.38.47-.56.84-.99,1.65-1.92,2.51-2.73.09-.09.19-.18.28-.27.19-.18.38-.35.58-.51.08-.07.17-.14.25-.21.47-.38.97-.73,1.49-1.03.09-.06.19-.11.29-.16.26-.15.53-.28.81-.4.12-.05.24-.1.36-.15.3-.12.61-.22.93-.31.09-.03.19-.05.28-.08.19-.05.37-.09.56-.12.09-.02.19-.04.28-.05.04,0,.09-.01.13-.02.07-.01.14-.02.21-.03.07,0,.13-.02.2-.03.05,0,.11-.01.16-.02.42-.04.86-.07,1.32-.07s.9.02,1.32.07c.06,0,.11,0,.16.02.07,0,.14.02.2.03.07,0,.14.02.21.03.04,0,.09,0,.13.02.1.02.19.04.28.05.19.04.38.08.56.12.09.02.19.05.28.08.41.11.79.25,1.17.41.04.01.08.04.13.05.17.07.34.15.5.24.1.04.2.1.29.15.11.05.21.11.32.18.12.07.24.14.35.21.12.08.23.15.35.23.23.15.45.32.67.49.11.08.22.17.33.27.01,0,.02.02.04.03.18.15.36.31.53.47.06.05.12.1.17.16.18.16.35.33.52.51.11.1.21.21.31.32.11.11.21.21.31.32.11.11.21.22.31.33.13.14.26.28.39.43.28.32.55.64.83.97.31.37.63.75.95,1.13,1.89,2.26,3.83,4.6,6.41,6.46,3.09,2.23,6.51,3.31,10.44,3.31s7.35-1.08,10.45-3.31c2.57-1.85,4.53-4.19,6.41-6.46.08-.1.16-.2.24-.29.08-.1.16-.19.24-.28.16-.19.32-.38.47-.56.19-.22.37-.44.56-.65.17-.2.34-.39.51-.58.17-.19.34-.37.51-.55.12-.13.25-.26.37-.39.23-.24.46-.47.7-.69.16-.15.32-.3.48-.44.38-.33.76-.64,1.16-.91.15-.11.3-.21.46-.31.02-.02.04-.03.05-.04.1-.06.2-.12.3-.18.35-.21.72-.4,1.11-.57.12-.05.24-.1.37-.15.12-.05.24-.09.36-.13.08-.03.15-.05.23-.08.1-.04.2-.07.31-.09.06-.02.11-.04.17-.05.05-.01.1-.03.16-.04.02,0,.04-.01.07-.02.11-.03.21-.05.32-.07.05-.01.1-.02.15-.03.09-.02.19-.04.28-.05.04,0,.08-.01.13-.02.07-.01.14-.02.21-.03l.21-.03c.08,0,.16-.02.24-.03.39-.04.81-.06,1.23-.06s.84.02,1.23.06c.08,0,.16.02.24.03.07,0,.14.02.21.03s.14.02.21.03c.04,0,.08.01.13.02.1.02.19.04.28.05.05,0,.1.02.15.03.11.02.22.04.32.07.03,0,.05.01.07.02.05.01.11.03.16.04.06.01.11.03.17.05.1.03.2.06.31.09.08.02.16.04.23.08.12.04.24.08.36.13.12.05.25.1.37.15.39.16.75.35,1.11.57.1.06.2.12.3.18.02,0,.04.02.05.04.16.09.31.2.46.31.4.28.79.59,1.16.91.16.14.32.29.48.44.24.22.47.45.7.69.12.13.25.26.37.39.17.18.34.37.51.55.17.19.34.38.51.58.19.21.37.43.56.65.16.18.32.37.47.56.08.09.16.19.24.28.08.09.16.19.24.29,1.89,2.26,3.84,4.6,6.41,6.46,3.1,2.23,6.51,3.31,10.45,3.31s7.35-1.08,10.44-3.31c2.58-1.85,4.53-4.19,6.41-6.46.32-.39.64-.76.95-1.13.28-.33.56-.66.83-.97.13-.15.26-.29.39-.43.1-.11.2-.22.31-.33.1-.11.2-.22.31-.32.1-.11.2-.21.31-.32.17-.18.34-.35.52-.51.06-.06.12-.11.17-.16.17-.16.35-.32.53-.47.01,0,.02-.02.04-.03.11-.09.22-.18.33-.27.22-.18.44-.34.67-.49.12-.08.23-.16.35-.23.12-.08.23-.15.35-.21.1-.07.21-.12.32-.18.09-.05.19-.11.29-.15.16-.09.33-.17.5-.24.04-.02.08-.04.13-.05.37-.16.76-.3,1.17-.41.09-.03.19-.05.28-.08.18-.05.37-.09.56-.12.09-.02.19-.04.28-.05.04,0,.09-.01.13-.02.07-.01.14-.02.21-.03.07,0,.13-.02.2-.03.05,0,.1-.01.16-.02.42-.04.86-.07,1.32-.07s.9.02,1.32.07c.06,0,.11,0,.16.02.07,0,.14.02.2.03.07,0,.14.02.21.03.04,0,.09,0,.13.02.1.02.19.04.28.05.19.04.38.08.56.12.09.02.19.05.28.08.41.11.79.25,1.17.41.04.01.08.04.13.05.69.3,1.33.67,1.94,1.1.1.07.2.15.3.22.1.08.2.15.3.23.22.17.44.36.65.55.09.08.19.17.28.26.09.08.19.17.28.26.11.1.21.2.31.31.11.1.21.21.31.32.1.11.2.21.31.32.14.15.28.3.41.45.37.41.74.84,1.11,1.28.31.37.63.75.95,1.13,1.89,2.26,3.83,4.6,6.41,6.46,3.1,2.23,6.51,3.31,10.45,3.31s7.35-1.08,10.45-3.31c2.57-1.85,4.53-4.19,6.41-6.46.32-.39.64-.76.95-1.13.28-.33.56-.66.83-.97.13-.15.26-.29.39-.43.1-.11.2-.22.31-.33.1-.11.2-.22.31-.32.1-.11.2-.21.31-.32.17-.18.34-.35.52-.51.06-.06.12-.11.17-.16.17-.16.35-.32.53-.47.01,0,.02-.02.04-.03.11-.09.22-.18.33-.27.22-.18.44-.34.67-.49.12-.08.23-.16.35-.23.12-.08.23-.15.35-.21.1-.07.21-.12.32-.18.09-.05.19-.11.29-.15.16-.09.33-.17.5-.24.04-.02.08-.04.13-.05.37-.16.76-.3,1.17-.41.09-.03.19-.05.28-.08.18-.05.37-.09.56-.12.09-.02.19-.04.28-.05.04,0,.09-.01.13-.02.07-.01.14-.02.21-.03.07,0,.13-.02.2-.03.05,0,.1-.01.16-.02.42-.04.86-.07,1.32-.07s.9.02,1.32.07c.06,0,.11,0,.16.02.07,0,.14.02.2.03.07,0,.14.02.21.03.04,0,.09,0,.13.02.1.02.19.04.28.05.19.04.38.08.56.12.09.02.19.05.28.08.41.11.79.25,1.17.41.04.01.08.04.13.05.17.07.34.15.5.24.1.04.2.1.29.15.11.05.21.11.32.18.12.07.23.14.35.21.12.08.23.15.35.23.23.15.45.32.67.49.11.08.22.17.33.27.01,0,.02.02.04.03.18.15.36.31.53.47.06.05.12.1.17.16.18.16.35.33.52.51.11.1.21.21.31.32.11.11.21.21.31.32.11.11.21.22.31.33.13.14.26.28.39.43.28.32.55.64.83.97.31.37.63.75.95,1.13,1.89,2.26,3.84,4.6,6.41,6.46,3.1,2.23,6.51,3.31,10.45,3.31.16,0,.33,0,.49,0Z"/>
        <path class="cls-3" d="M228.7,0v61.34c-.16,0-.32,0-.49,0-3.94,0-7.35-1.08-10.45-3.31-2.57-1.85-4.53-4.19-6.41-6.46-.32-.39-.64-.76-.95-1.13-.28-.33-.56-.66-.83-.97-.13-.15-.26-.29-.39-.43-.1-.11-.2-.22-.31-.33-.1-.11-.2-.22-.31-.32-.1-.11-.2-.21-.31-.32-.17-.18-.34-.35-.52-.51-.06-.06-.12-.11-.17-.16-.17-.16-.35-.32-.53-.47-.01,0-.02-.02-.04-.03-.11-.09-.22-.18-.33-.27-.22-.18-.44-.34-.67-.49-.12-.08-.23-.16-.35-.23-.12-.08-.23-.15-.35-.21-.1-.07-.21-.12-.32-.18-.09-.05-.19-.11-.29-.15-.16-.09-.33-.17-.5-.24-.04-.02-.08-.04-.13-.05-.37-.16-.76-.3-1.17-.41-.09-.03-.19-.05-.28-.08-.18-.05-.37-.09-.56-.12-.09-.02-.19-.04-.28-.05-.04,0-.09-.01-.13-.02-.07-.01-.14-.02-.21-.03-.07,0-.13-.02-.2-.03-.05,0-.1-.01-.16-.02-.42-.04-.86-.07-1.32-.07s-.9.02-1.32.07c-.06,0-.11,0-.16.02-.07,0-.14.02-.2.03-.07,0-.14.02-.21.03-.04,0-.09,0-.13.02-.1.02-.19.04-.28.05-.19.04-.38.08-.56.12-.09.02-.19.05-.28.08-.41.11-.79.25-1.17.41-.04.01-.08.04-.13.05-.17.07-.34.15-.5.24-.1.04-.2.1-.29.15-.11.05-.21.11-.32.18-.12.07-.24.14-.35.21-.12.07-.23.15-.35.23-.23.15-.45.32-.67.49-.11.08-.22.17-.33.27-.01,0-.02.02-.04.03-.18.15-.36.31-.53.47-.06.05-.12.1-.17.16-.18.16-.35.33-.52.51-.11.1-.21.21-.31.32-.11.11-.21.21-.31.32-.11.11-.21.22-.31.33-.13.14-.26.28-.39.43-.28.32-.55.64-.83.97-.31.37-.63.75-.95,1.13-1.89,2.26-3.84,4.6-6.41,6.46-3.1,2.23-6.51,3.31-10.45,3.31s-7.35-1.08-10.45-3.31c-2.57-1.85-4.52-4.19-6.41-6.46-.32-.39-.64-.76-.95-1.13-.37-.44-.74-.87-1.11-1.28-.14-.15-.28-.3-.41-.45-.1-.11-.2-.22-.31-.32-.1-.11-.2-.21-.31-.32-.1-.11-.2-.21-.31-.31-.09-.09-.19-.18-.28-.26-.09-.09-.19-.18-.28-.26-.21-.19-.43-.38-.65-.55-.1-.08-.2-.16-.3-.23-.1-.08-.2-.15-.3-.22-.61-.43-1.25-.81-1.94-1.1-.04-.02-.08-.04-.13-.05-.37-.16-.76-.3-1.17-.41-.09-.03-.19-.05-.28-.08-.18-.05-.37-.09-.56-.12-.09-.02-.19-.04-.28-.05-.04,0-.09-.01-.13-.02-.07-.01-.14-.02-.21-.03-.07,0-.13-.02-.2-.03-.05,0-.1-.01-.16-.02-.42-.04-.86-.07-1.32-.07s-.9.02-1.32.07c-.06,0-.11,0-.16.02-.07,0-.14.02-.2.03-.07,0-.14.02-.21.03-.04,0-.09,0-.13.02-.1.02-.19.04-.28.05-.19.04-.38.08-.56.12-.09.02-.19.05-.28.08-.41.11-.79.25-1.17.41-.04.01-.08.04-.13.05-.17.07-.34.15-.5.24-.1.04-.2.1-.29.15-.11.05-.21.11-.32.18-.12.07-.23.14-.35.21-.12.07-.23.15-.35.23-.23.15-.45.32-.67.49-.11.08-.22.17-.33.27-.01,0-.02.02-.04.03-.18.15-.36.31-.53.47-.06.05-.12.1-.17.16-.18.16-.35.33-.52.51-.11.1-.21.21-.31.32-.11.11-.21.21-.31.32-.11.11-.21.22-.31.33-.13.14-.26.28-.39.43-.28.32-.55.64-.83.97-.31.37-.63.75-.95,1.13-1.89,2.26-3.83,4.6-6.41,6.46-3.09,2.23-6.51,3.31-10.44,3.31s-7.35-1.08-10.45-3.31c-2.57-1.85-4.53-4.19-6.41-6.46-.08-.1-.16-.2-.24-.29-.08-.1-.16-.19-.24-.28-.16-.19-.32-.38-.47-.56-.19-.22-.37-.44-.56-.65-.17-.2-.34-.39-.51-.58-.17-.19-.34-.37-.51-.55-.12-.13-.25-.26-.37-.39-.23-.24-.46-.47-.7-.69-.16-.15-.32-.3-.48-.44-.38-.33-.76-.64-1.16-.91-.15-.11-.3-.21-.46-.31-.02-.02-.04-.03-.05-.04-.1-.06-.2-.12-.3-.18-.35-.21-.72-.4-1.11-.57-.12-.05-.24-.11-.37-.15-.12-.05-.24-.09-.36-.13-.08-.03-.15-.05-.23-.08-.1-.04-.2-.07-.31-.09-.06-.02-.11-.04-.17-.05-.05-.01-.1-.03-.16-.04-.02,0-.04-.01-.07-.02-.11-.03-.21-.05-.32-.07-.05-.01-.1-.02-.15-.03-.09-.02-.19-.04-.28-.05-.04,0-.08-.01-.13-.02-.07-.01-.14-.02-.21-.03s-.14-.02-.21-.03c-.08,0-.16-.02-.24-.03-.39-.04-.81-.06-1.23-.06s-.84.02-1.23.06c-.08,0-.16.02-.24.03l-.21.03c-.07,0-.14.02-.21.03-.04,0-.08.01-.13.02-.1.02-.19.04-.28.05-.05,0-.1.02-.15.03-.11.02-.22.04-.32.07-.03,0-.05.01-.07.02-.05.01-.11.03-.16.04-.06.01-.11.03-.17.05-.1.03-.2.06-.31.09-.08.02-.16.04-.23.08-.12.04-.24.08-.36.13-.12.04-.25.1-.37.15-.39.16-.75.35-1.11.57-.1.06-.2.12-.3.18-.02,0-.04.02-.05.04-.16.09-.31.2-.46.31-.4.28-.79.59-1.16.91-.16.14-.32.29-.48.44-.24.22-.47.45-.7.69-.12.13-.25.26-.37.39-.17.18-.34.37-.51.55-.17.19-.34.38-.51.58-.19.21-.37.43-.56.65-.16.18-.32.37-.47.56-.08.09-.16.19-.24.28-.08.09-.16.19-.24.29-1.89,2.26-3.84,4.6-6.41,6.46-3.1,2.23-6.51,3.31-10.45,3.31s-7.35-1.08-10.44-3.31c-2.58-1.85-4.53-4.19-6.41-6.46-.32-.39-.64-.76-.95-1.13-.28-.33-.56-.66-.83-.97-.13-.15-.26-.29-.39-.43-.1-.11-.2-.22-.31-.33-.1-.11-.2-.22-.31-.32-.1-.11-.2-.21-.31-.32-.17-.18-.34-.35-.52-.51-.06-.06-.12-.11-.17-.16-.17-.16-.35-.32-.53-.47-.01,0-.02-.02-.04-.03-.11-.09-.22-.18-.33-.27-.22-.18-.44-.34-.67-.49-.12-.08-.23-.16-.35-.23-.12-.08-.23-.15-.35-.21-.1-.07-.21-.12-.32-.18-.09-.05-.19-.11-.29-.15-.16-.09-.33-.17-.5-.24-.04-.02-.08-.04-.13-.05-.37-.16-.76-.3-1.17-.41-.09-.03-.19-.05-.28-.08-.18-.05-.37-.09-.56-.12-.09-.02-.19-.04-.28-.05-.04,0-.09-.01-.13-.02-.07-.01-.14-.02-.21-.03-.07,0-.13-.02-.2-.03-.05,0-.1-.01-.16-.02-.42-.04-.86-.07-1.32-.07s-.9.02-1.32.07c-.05,0-.11,0-.16.02-.07,0-.14.02-.2.03-.07,0-.14.02-.21.03-.04,0-.09,0-.13.02-.1.02-.19.04-.28.05-.19.04-.38.08-.56.12-.09.02-.19.05-.28.08-.32.09-.63.19-.93.31-.12.04-.24.1-.36.15-.28.12-.55.25-.81.4-.1.05-.2.1-.29.16-.52.3-1.01.65-1.49,1.03-.08.07-.17.14-.25.21-.2.16-.39.33-.58.51-.09.08-.19.17-.28.27-.85.82-1.67,1.74-2.51,2.73-.16.18-.32.37-.47.56-.08.09-.16.19-.24.28-.08.09-.16.19-.24.29-1.89,2.26-3.83,4.6-6.41,6.46-3.1,2.23-6.51,3.31-10.45,3.31-.16,0-.33,0-.49,0V0h228.7Z"/>
      </g>
    </pattern>
  </defs>
  <rect class="cls-5" x="-3.22" y="0" width="595.98" height="844.68"/>
</svg>