<?xml version="1.0" encoding="UTF-8"?>
<svg id="Layer_1" data-name="Layer 1" xmlns="http://www.w3.org/2000/svg" viewBox="0 0 629.99 498.32">
  <defs>
    <style>
      .cls-1 {
        fill: #fff;
      }

      .cls-2 {
        fill: #0e0e0e;
      }
    </style>
  </defs>
  <rect class="cls-2" x="-1.06" y="-.9" width="632.11" height="499.22"/>
  <g>
    <g>
      <g>
        <path class="cls-1" d="M411.09,99.5c.35.13.69.12,1.03-.04s.58-.41.71-.76c.13-.35.12-.7-.04-1.05-.15-.34-.4-.57-.75-.7-.35-.13-.69-.11-1.03.04-.34.15-.58.4-.71.75-.13.34-.12.69.03,1.03.16.35.41.59.76.72Z"/>
        <path class="cls-1" d="M419.76,100.05c.1-.26.11-.5.03-.72-.08-.22-.22-.38-.44-.5-.22-.12-.47-.12-.76-.01l-.63.24-.06-2.96c-.01-.22.03-.41.12-.57.09-.16.21-.26.36-.3.2-.05.36-.02.47.09.11.11.17.28.18.51-.02.27.03.48.14.64.11.16.26.28.45.34.18.07.38.09.59.06.21-.03.4-.1.58-.23.17-.12.3-.3.4-.52.1-.22.12-.5.07-.82-.06-.45-.21-.83-.43-1.17-.23-.33-.5-.59-.81-.78s-.67-.3-1.05-.33c-.38-.04-.77.02-1.15.16-.33.12-.64.29-.93.51s-.54.47-.75.77c-.21.3-.37.64-.49,1.02-.11.38-.16.8-.14,1.25l.07,3.22-.4.15c-.44.17-.73.39-.88.67-.14.28-.18.54-.12.78.06.24.2.43.41.57.21.14.44.16.7.06l.08-.03s.05-.02.09-.04c.04-.02.09-.04.15-.07l.04,2.18s-.01,0-.02.02c-.19.21-.28.48-.25.8.04.57.05,1.06,0,1.47-.04.41-.1.75-.19,1.04-.09.28-.2.5-.33.67-.13.16-.27.28-.42.35-.17.08-.33.09-.48.04-.15-.05-.26-.15-.32-.29-.03-.07-.05-.16-.06-.26l-.49-5.46c-.07-.49-.23-.83-.5-1.03-.27-.2-.55-.27-.84-.21-.29.06-.54.23-.75.52-.21.29-.29.67-.25,1.15.04.4.08.84.13,1.29.04.46.09.91.13,1.37,0,.06.01.11.01.17-.04.04-.09.08-.13.13-.17.22-.22.51-.15.85.09.5.12.94.09,1.32-.03.38-.1.71-.21,1s-.27.54-.47.75c-.2.21-.43.4-.68.55-.24.15-.49.25-.73.29-.24.04-.49.06-.74.04-.25-.02-.51-.06-.77-.13-.26-.06-.53-.13-.8-.2l-1.13-5.08c.33.03.67.03,1.03,0,.36-.03.7-.16,1.01-.38.35-.21.63-.49.86-.83.23-.34.38-.72.47-1.13.08-.41.1-.84.03-1.28-.06-.44-.2-.85-.43-1.24-.24-.41-.52-.74-.84-.98-.32-.25-.66-.42-1.02-.51-.36-.09-.72-.11-1.07-.05-.36.06-.69.18-1,.37-.53.33-.99.75-1.36,1.26-.37.52-.59,1.18-.66,1.97-.58-.12-1.18-.16-1.81-.12-.63.05-1.27.27-1.94.68-.61.37-1.09.8-1.45,1.29-.36.49-.59,1.11-.71,1.88-.06.33.01.61.21.83.19.22.42.37.68.44s.52.04.77-.08c.25-.12.42-.37.49-.76.08-.35.21-.65.37-.92.16-.27.37-.47.62-.63.48-.29.97-.43,1.48-.42.51.01,1.04.08,1.58.22l1.14,5.35c-.38,0-.76.04-1.17.12-.41.09-.81.24-1.22.46-.36.21-.7.46-1.01.77-.31.3-.57.65-.77,1.04-.2.39-.33.8-.39,1.25-.06.45,0,.91.16,1.39.05.14.1.27.16.39.06.12.12.23.18.33.25.4.55.72.92.94s.76.36,1.19.4c.43.05.87.02,1.33-.1.46-.11.9-.3,1.32-.55.65-.39,1.17-.9,1.58-1.51.4-.61.64-1.32.71-2.12.58.12,1.18.16,1.8.12.62-.04,1.27-.27,1.93-.68.85-.52,1.48-1.25,1.91-2.18.19.12.4.22.62.28.32.08.66.11,1.01.07.35-.04.7-.14,1.05-.3.25-.11.47-.26.7-.43l.1,4.98c0,.3.05.54.18.73.12.19.28.33.46.42.19.09.39.13.61.11.22-.01.42-.08.59-.2.18-.12.32-.29.44-.52.11-.23.17-.51.16-.84l-.31-13.53,1.12-.44c.34-.18.56-.39.66-.65ZM404.06,114.05c-.17.43-.42.74-.75.94-.28.17-.55.22-.81.15-.26-.07-.46-.23-.6-.46-.03-.05-.06-.1-.09-.15-.03-.05-.05-.11-.06-.17-.09-.31-.07-.62.05-.94s.35-.58.67-.78c.25-.15.52-.24.81-.26.28-.02.59,0,.91.06.08.64.04,1.18-.13,1.6ZM404.98,102.03c.09-.23.23-.41.42-.52.34-.21.64-.16.89.13.1.13.17.26.21.39s.03.25,0,.37c-.04.12-.1.23-.18.32-.08.1-.19.18-.32.24-.2.1-.4.13-.59.1-.19-.03-.36-.07-.5-.13-.04-.36-.02-.66.07-.89Z"/>
        <path class="cls-1" d="M428.12,100.24c-.26.04-.49.15-.71.34-.21.19-.32.43-.32.73-.04.52-.15.98-.33,1.39-.18.41-.41.77-.68,1.08s-.57.57-.9.78-.67.36-1.01.46c-.58.17-1.07.18-1.49.03-.41-.15-.67-.41-.78-.78-.05-.16-.07-.31-.05-.47l.04-.34c.28.08.57.12.87.12.3,0,.61-.05.93-.14.36-.11.69-.27.99-.47.3-.21.56-.45.77-.74.21-.28.38-.6.5-.94.12-.35.18-.71.18-1.1-.01-.34-.05-.64-.13-.91-.11-.38-.29-.71-.53-.99-.24-.28-.52-.5-.85-.66-.33-.16-.7-.25-1.11-.28-.41-.03-.84.03-1.28.16-.35.1-.68.26-.99.46-.31.2-.59.45-.82.74-.23.29-.42.62-.56.99-.14.37-.22.77-.24,1.2l-.13,2.98c0,.21,0,.41.02.61.02.2.06.39.11.57.14.47.37.87.7,1.19s.71.55,1.15.71c.44.16.93.24,1.47.23.54,0,1.1-.09,1.67-.27.55-.16,1.08-.4,1.61-.72.52-.32,1-.72,1.42-1.2.42-.48.76-1.04,1.03-1.69.27-.65.42-1.39.45-2.23.01-.35-.09-.59-.29-.72-.21-.13-.44-.18-.7-.14ZM422.04,100.45c.02-.27.1-.5.24-.68.13-.18.29-.3.47-.36.22-.07.42-.04.6.08.18.12.3.29.37.51.04.14.06.27.05.4,0,.23-.06.42-.18.58-.12.16-.27.28-.45.37-.18.09-.37.15-.58.17-.2.03-.39.02-.57-.02l.05-1.05Z"/>
        <path class="cls-1" d="M432.97,91.27c.03-.23.02-.49-.03-.77-.06-.3-.18-.57-.36-.81-.18-.24-.44-.4-.77-.48l-.09-.03h.02c-.21-.04-.41-.04-.61,0-.12.02-.23.06-.34.11s-.22.12-.32.21c-.18.17-.31.37-.38.6-.07.23-.09.45-.04.68.05.24.15.45.32.62h-.02c.09.1.19.18.3.25.11.07.23.12.33.15-.08.11-.19.19-.32.26s-.27.1-.42.09c-.23-.01-.4.04-.52.15-.12.11-.19.25-.21.4-.02.15.03.29.14.42.11.13.28.2.52.21.22,0,.44-.02.66-.06.58-.11,1.06-.35,1.44-.7.38-.35.61-.79.68-1.31v.02Z"/>
        <path class="cls-1" d="M439.38,99.53c-.26-.42-.52-.8-.8-1.16-.2-.26-.38-.53-.56-.78-.17-.26-.29-.51-.35-.76.21-.11.37-.27.48-.47.12-.2.18-.42.2-.65,0-.18-.03-.35-.09-.52s-.15-.32-.27-.44c-.11-.12-.25-.23-.42-.31-.16-.08-.34-.13-.51-.14v.02c-.12,0-.23,0-.34.02-.1.02-.2.05-.3.08-.18.07-.36.18-.54.34-.18.17-.35.39-.5.69-.24.66-.5,1.32-.77,1.98-.27.66-.53,1.32-.78,1.98-.27.1-.49.25-.68.45-.19.2-.33.43-.44.69-.11.26-.18.52-.21.81-.03.28-.04.55,0,.81.05.4.18.77.41,1.09.23.32.51.59.86.81.35.22.74.38,1.18.49.44.1.89.14,1.36.11.29,0,.65-.06,1.09-.18.44-.12.85-.33,1.25-.63.39-.29.71-.69.96-1.17.25-.49.33-1.09.25-1.81-.06-.48-.21-.93-.47-1.35ZM437.31,101.67c-.05.31-.18.54-.37.72s-.44.28-.72.32c-.28.03-.54,0-.78-.08-.24-.09-.41-.24-.52-.45.42.04.77-.05,1.05-.25.27-.21.46-.47.57-.77.1-.31.12-.62.05-.95-.07-.33-.23-.6-.49-.8l.11-.33c.35.34.64.73.88,1.19.24.46.31.93.24,1.4Z"/>
        <path class="cls-1" d="M468.55,98.09c-.23-.31-.52-.57-.86-.79-.34-.22-.71-.38-1.12-.48-.36-.09-.73-.13-1.11-.11-.38.01-.74.08-1.09.2-.35.12-.68.29-.98.51s-.57.5-.8.83l-.88,1.32s0,0,0,0c-.28.09-.5.31-.66.66-.26.49-.58.86-.98,1.13-.4.27-.84.37-1.33.3-.03,0-.07,0-.11-.02-.04,0-.08-.02-.11-.03,0,.01,0-.04.01-.16.01-.11,0-.25,0-.41.12-.06.24-.17.38-.31.08-.09.18-.24.31-.46.13-.22.26-.46.38-.71.12-.25.24-.51.34-.76.1-.25.17-.46.2-.62.09-.41.08-.8-.03-1.16-.11-.36-.29-.69-.55-.97s-.57-.52-.95-.7c-.38-.19-.79-.31-1.22-.37-.38-.05-.76-.05-1.14,0-.38.05-.74.16-1.07.31-.34.15-.65.36-.92.61-.28.26-.51.55-.69.9l-1.24,2.36c-.12.11-.22.24-.29.41-.37.9-.8,1.55-1.3,1.96-.5.41-.99.61-1.47.59-.3-.01-.53-.1-.69-.26-.16-.16-.24-.35-.23-.57,0-.14.03-.26.08-.36l1.76-4.32,1.07.05c.37.02.67-.07.9-.27.23-.19.37-.41.42-.66.05-.25,0-.47-.13-.68-.13-.21-.38-.32-.73-.34l-.74-.03,1.23-3.05c.11-.31.08-.59-.09-.84-.17-.24-.4-.41-.68-.49-.28-.08-.58-.07-.88.05-.31.12-.54.38-.69.79l-1.41,3.42-.69-.03c-.42-.02-.73.07-.94.26-.21.19-.33.41-.37.66-.04.25,0,.47.13.68.12.21.31.32.55.33l.54.02c-.14.35-.26.67-.39.96-.12.3-.24.59-.36.88s-.24.59-.36.88c-.12.3-.25.62-.39.96v-.02c-.15.39-.23.75-.24,1.09-.02.42.05.79.21,1.13.16.34.38.63.66.87s.61.43.98.57c.38.14.78.22,1.21.24,1.01.05,1.93-.26,2.77-.89.08.13.17.25.28.37.26.27.57.5.94.68.36.18.75.29,1.17.35.64.09,1.25.04,1.83-.15.58-.19,1.08-.55,1.51-1.09.3.13.62.22.96.27.48.07.94.05,1.39-.06,0,0,0,0,0,0,.01.09,0,.19.03.28.09.37.25.71.48,1,.23.3.52.55.86.76.34.21.72.37,1.12.47.36.09.73.13,1.11.12.38,0,.74-.07,1.08-.17.34-.11.66-.26.95-.47.29-.21.54-.46.75-.77.36-.54.74-1.1,1.13-1.67.39-.57.77-1.12,1.12-1.66.25-.38.42-.74.51-1.1.1-.42.11-.81.02-1.19-.09-.38-.25-.72-.48-1.03ZM457.62,98.3c-.11.22-.2.42-.28.59-.03.07-.06.14-.09.2-.03.06-.06.13-.08.19-.23-.05-.44-.06-.65-.01-.21.04-.41.13-.58.25-.18.13-.33.29-.45.49-.12.2-.2.42-.23.66-.03.28,0,.52.1.7.1.18.21.35.35.5-.01,0-.02.02-.02.03-.15.27-.34.47-.58.59-.24.13-.48.18-.72.14-.27-.04-.45-.13-.55-.27-.09-.14-.14-.3-.13-.48,0-.18.03-.35.09-.51.06-.16.12-.29.16-.39.17-.35.4-.81.7-1.36.3-.55.68-1.23,1.16-2.03.12-.26.3-.45.54-.57s.47-.16.72-.13c.25.03.44.14.57.3.13.17.19.34.16.53-.02.15-.09.34-.19.56ZM466.7,99.64c-.03.12-.08.22-.14.3l-2.32,3.5c-.2.29-.43.49-.69.6-.26.11-.51.14-.76.07-.21-.05-.38-.17-.48-.35-.11-.18-.14-.38-.08-.61.01-.05.03-.11.06-.18.03-.07.07-.13.12-.2l2.29-3.44c.2-.29.42-.48.66-.57s.48-.11.7-.05c.25.06.43.18.54.36.12.18.15.37.1.57Z"/>
        <path class="cls-1" d="M499.48,126.19c-.01.14-.03.27-.02.41.02.37.11.74.28,1.1.17.36.39.71.68,1.03.71.79,1.62,1.25,2.73,1.39,1.11.13,2.32-.08,3.65-.64.29-.12.45-.31.5-.55.04-.24,0-.47-.12-.68-.12-.22-.31-.39-.57-.51-.26-.12-.55-.12-.86,0-.9.36-1.67.51-2.31.45-.64-.07-1.12-.28-1.45-.64-.2-.22-.3-.45-.3-.68,0-.23.08-.42.25-.57.11-.1.21-.16.31-.19l4.32-1.77.72.8c.25.28.52.43.82.46.3.03.55-.03.76-.16.21-.14.34-.33.4-.57.06-.24-.03-.49-.27-.76l-.49-.55,3.03-1.26c.3-.14.48-.36.54-.65.05-.29.01-.57-.12-.83-.14-.26-.36-.46-.66-.6-.3-.14-.65-.11-1.05.07l-3.42,1.39-.46-.51c-.28-.31-.56-.47-.84-.48-.28-.01-.53.06-.73.2-.2.15-.34.33-.4.57-.06.23-.01.44.15.62l.36.4c-.34.15-.66.28-.96.4-.3.12-.59.24-.88.36-.1.04-.2.08-.3.13-.18-.01-.35.01-.53.12-.39.19-.77.35-1.13.47-.37.12-.7.21-1.01.27-.31.05-.58.07-.81.04-.23-.02-.42-.1-.54-.22-.09-.08-.12-.17-.11-.27.02-.1.07-.19.15-.28.08-.09.18-.16.3-.22l2.56-1.31c.15-.08.29-.17.41-.26.12-.09.23-.19.33-.29.27-.29.42-.61.46-.96.04-.35,0-.7-.08-1.06-.09-.35-.21-.69-.36-1.01s-.29-.58-.42-.79c.21-.12.38-.27.49-.46.11-.19.18-.39.2-.61.02-.21,0-.43-.08-.64-.07-.21-.19-.39-.35-.54-.25-.23-.53-.37-.83-.4-.31-.03-.6.03-.86.19-.12.05-.24.12-.36.2-.12.08-.22.17-.3.26-.3.32-.47.7-.5,1.14l-1.78.89c-.2.02-.41.08-.62.24-.46.3-.93.47-1.41.5-.48.04-.91-.09-1.31-.39-.03-.02-.06-.04-.09-.07s-.06-.05-.08-.08c0,0,.02-.03.09-.13.07-.1.13-.21.2-.36.13,0,.29-.02.48-.09.11-.04.28-.12.5-.25.22-.13.45-.27.68-.43.23-.16.46-.33.67-.5s.37-.32.48-.44c.28-.31.46-.65.54-1.03.08-.37.08-.74,0-1.12-.08-.37-.24-.73-.48-1.08-.24-.35-.53-.65-.88-.92-.31-.23-.64-.42-.99-.56-.36-.14-.72-.23-1.09-.26-.37-.03-.74,0-1.11.08-.37.09-.72.23-1.04.44l-3.29,2.12c-.16.11-.3.23-.44.35-.29.15-.56.27-.81.34-.6.16-1.06.14-1.38-.05-.13-.08-.22-.18-.25-.3-.04-.12-.03-.23.04-.33.04-.07.09-.12.15-.16l3.12-2.59c.24-.21.44-.44.58-.69.17-.28.27-.58.32-.89.04-.31.02-.61-.05-.89-.08-.29-.21-.56-.4-.81-.19-.25-.42-.46-.71-.63-.32-.19-.66-.31-1.02-.36l2.1-1.78c.28-.21.46-.43.57-.66.1-.23.14-.45.11-.65-.03-.2-.11-.38-.25-.53-.14-.15-.31-.26-.52-.31-.21-.05-.45-.05-.71.03-.26.07-.53.23-.8.48l-7.2,5.94c-.54.35-1.11.57-1.72.63.07-.09.12-.18.18-.26.05-.08.1-.18.14-.28.2-.44.3-.91.29-1.4,0-.49-.03-.96-.08-1.41-.03-.33-.06-.65-.07-.96s.01-.59.09-.83c.24.01.46-.04.66-.15.2-.11.37-.27.51-.46.09-.15.16-.32.19-.49.03-.18.03-.35,0-.52-.03-.17-.1-.33-.2-.48-.1-.15-.22-.28-.37-.39v.02c-.11-.07-.21-.12-.31-.16-.1-.03-.2-.06-.3-.08-.19-.04-.4-.03-.64.02-.24.05-.5.16-.78.33-.55.44-1.11.87-1.68,1.3-.57.43-1.13.86-1.69,1.29-.28-.05-.55-.04-.81.04-.27.08-.51.2-.74.36-.23.16-.43.36-.6.58-.17.22-.32.45-.43.69-.17.37-.24.75-.21,1.14.03.39.13.77.31,1.14s.43.71.76,1.02c.32.31.69.58,1.11.8.12.05.27.12.44.18.17.07.33.12.46.15.81.32,1.57.55,2.28.68.34.06.66.1.99.11.02.22.08.42.21.58.19.23.45.36.78.4s.69-.09,1.05-.38l4.54-3.76c.31-.18.64-.3.96-.35s.6,0,.82.12c.14.08.23.2.27.34.04.14.01.28-.06.41-.06.09-.13.17-.21.22l-2.75,2.29h0c-.32.26-.56.54-.73.82-.2.33-.31.66-.33,1-.02.33.03.65.14.95.12.3.29.57.52.83.23.25.49.47.79.65.34.2.72.35,1.15.44.37.08.79.08,1.23.03.01.1.02.2.04.31.09.37.25.72.48,1.05.23.33.51.63.84.88.52.39,1.07.65,1.67.77.6.12,1.21.05,1.85-.21.2.26.44.5.71.7.38.29.8.5,1.24.63.44.13.89.19,1.34.18s.89-.09,1.32-.24c.03,0,.05-.02.08-.03.14-.02.27-.06.41-.14l2.36-1.17c.07.12.14.25.22.38.08.13.13.27.15.4.02.14.01.27-.04.39s-.17.24-.35.34l-1.9.97c-.36.19-.65.4-.87.63-.25.26-.42.55-.52.85s-.14.6-.11.91c.03.31.12.6.26.89.14.29.34.55.59.78.58.54,1.34.83,2.25.87ZM477.29,108.27c-.2.23-.43.37-.69.42-.26.05-.52.02-.78-.09-.26-.12-.47-.28-.63-.48-.16-.2-.23-.42-.22-.65.34.25.69.36,1.03.32.34-.04.64-.16.88-.37.25-.21.42-.47.53-.79.11-.32.11-.63,0-.94l.27-.22c.12.47.17.96.13,1.47s-.21.96-.52,1.32ZM493.49,114.81c-.21-.07-.42-.09-.63-.07-.22.02-.43.09-.63.2-.2.11-.38.27-.53.46-.16.23-.25.45-.25.66,0,.2.02.41.06.6-.02,0-.03,0-.03.02-.26.16-.53.24-.8.23-.27,0-.5-.08-.7-.23-.22-.17-.33-.33-.34-.5-.01-.17.03-.33.12-.48.09-.15.2-.29.33-.4.13-.11.24-.2.33-.26.32-.22.75-.5,1.28-.84.53-.33,1.2-.73,2.01-1.2.24-.17.48-.24.75-.23.26.01.49.09.69.25s.32.33.35.55c.03.21,0,.39-.12.54-.09.12-.24.25-.45.4-.2.14-.38.27-.53.37-.06.05-.12.09-.18.13-.06.04-.11.08-.16.13-.17-.16-.36-.27-.56-.33Z"/>
        <path class="cls-1" d="M512.54,132.08c-.36.09-.7.18-1.01.25-.31.07-.62.15-.93.23s-.61.15-.93.23c-.31.07-.65.16-1.01.25h.01c-.4.1-.75.25-1.03.43-.35.23-.61.51-.79.83-.18.33-.29.67-.32,1.04-.03.37,0,.75.11,1.13.11.39.28.76.52,1.12.56.86,1.36,1.43,2.37,1.73-.07.17-.12.35-.15.54-.06.37-.06.75.02,1.15.08.4.21.78.41,1.15.18.33.4.63.65.9.26.27.54.5.85.68.31.18.64.31.99.39.35.08.71.09,1.08.04.65-.1,1.31-.19,2-.29.69-.1,1.35-.19,1.98-.28.45-.07.83-.19,1.15-.36.38-.2.68-.46.9-.78.22-.32.37-.67.44-1.04.07-.38.08-.76,0-1.17s-.2-.79-.4-1.15c-.18-.33-.4-.63-.66-.9s-.56-.5-.88-.68c-.32-.18-.67-.31-1.04-.39-.37-.07-.76-.09-1.15-.03l-2.47.37c-.2-.08-.42-.12-.68-.06-.94.23-1.73.26-2.35.1-.63-.16-1.07-.44-1.34-.85-.16-.25-.23-.49-.19-.71.04-.23.15-.4.33-.52.12-.08.23-.13.34-.14l4.53-1.1.59.9c.21.31.45.5.74.58.29.07.55.06.78-.05.23-.1.39-.27.48-.5.09-.23.04-.49-.15-.79l-.41-.62,3.19-.79c.32-.09.53-.28.63-.56s.1-.56,0-.84c-.1-.28-.28-.51-.56-.69s-.62-.21-1.05-.09l-3.59.86-.38-.57c-.23-.35-.48-.55-.76-.6s-.53-.02-.75.09c-.22.11-.38.28-.48.5-.1.22-.08.43.05.64l.3.46ZM516.34,139.4c.35-.05.64-.01.87.1.23.12.4.28.51.48.12.22.15.44.1.64s-.17.36-.35.45c-.11.06-.21.09-.32.1l-4.15.64c-.35.05-.65.01-.91-.1-.26-.12-.45-.29-.57-.51-.1-.19-.13-.39-.07-.59.06-.2.19-.36.39-.47.05-.03.11-.05.17-.08.07-.02.14-.04.23-.05l4.08-.62Z"/>
        <path class="cls-1" d="M519.18,150.31c-.24-.14-.49-.24-.76-.3s-.55-.08-.83-.05c-.28.02-.55.07-.8.15-.39.12-.72.33-.99.61-.27.28-.48.62-.63,1-.15.38-.23.8-.25,1.25-.02.45.04.9.16,1.36.04.13.09.28.16.45.07.17.13.32.19.44.31.81.65,1.53,1.03,2.14.16.26.35.5.53.73-.15.23-.21.48-.17.77.04.31.17.59.39.86.22.27.52.42.9.46l3.2.46c-.14.21-.22.4-.24.59s-.02.35.02.5.09.28.16.4c.07.12.12.2.17.26.03.05-.02.06-.14.04-.13-.02-.24-.04-.33-.06-.47-.07-.92-.07-1.33.02-.62.13-1.09.42-1.4.89-.31.47-.38,1.1-.22,1.89.11.55.31,1.04.6,1.46.16.23.34.44.55.63-.05.07-.11.13-.16.2-.18.28-.3.59-.37.94-.07.35-.08.71-.04,1.09.02.16.06.32.1.48l-2.45-.79c-.3-.1-.56-.12-.77-.07-.21.06-.38.16-.51.31-.13.15-.21.33-.26.54-.04.21-.04.42.02.63.06.21.16.4.31.57.15.17.34.29.59.36.28.09.58.19.91.29.33.11.66.21,1.01.32.34.11.68.21,1.01.31.33.1.63.2.91.29-.16.22-.28.47-.37.74-.09.27-.13.56-.12.89-.02.21-.03.42-.03.64,0,.21,0,.42,0,.62.02.8.13,1.55.33,2.23.2.69.48,1.31.86,1.86s.86,1.04,1.44,1.45c.58.41,1.26.74,2.05,1,.23.07.44.08.61.03.17-.05.31-.14.41-.27.1-.13.17-.28.2-.46.03-.18.02-.35-.03-.52-.05-.17-.16-.33-.3-.48-.15-.15-.34-.26-.59-.33-.69-.24-1.26-.59-1.7-1.03-.45-.44-.78-.95-1.01-1.51.09.04.16.07.2.08.04.02.09.03.15.05.63.21,1.28.43,1.96.64.67.22,1.33.43,1.97.64.28.09.56.13.86.12.33,0,.64-.08.94-.22.3-.14.55-.32.77-.54.21-.23.38-.49.51-.78.12-.3.18-.6.17-.92,0-.22-.04-.45-.09-.69-.05-.24-.16-.45-.32-.63.12,0,.23-.04.33-.14.1-.1.18-.23.24-.39.06-.16.09-.33.09-.53,0-.2-.03-.39-.1-.57-.07-.18-.18-.34-.33-.49-.15-.14-.35-.25-.59-.3l-3.83-1.23c-.13-.12-.29-.22-.49-.27-.56-.13-1.03-.28-1.4-.44-.38-.16-.69-.33-.93-.5-.24-.17-.42-.34-.53-.52-.11-.17-.18-.34-.2-.51-.02-.19.02-.34.11-.47.1-.13.22-.2.37-.22.08,0,.17,0,.27.02l5.35,1.21c.49.09.86.03,1.13-.16.27-.2.42-.44.45-.73s-.06-.58-.27-.87c-.21-.29-.55-.49-1.01-.59-.4-.09-.82-.18-1.27-.28-.45-.1-.9-.2-1.35-.3-.45-.1-.89-.2-1.34-.3-.44-.1-.86-.19-1.26-.28-.04,0-.08,0-.12-.02-.27-.09-.52-.19-.73-.31-.53-.3-.83-.65-.91-1.06-.04-.21.02-.32.2-.36.13-.03.28-.03.46,0l.75.08h-.02c.24.02.48,0,.7-.04.19-.04.37-.1.53-.18.16-.08.28-.19.38-.34.18.2.39.38.64.53.25.16.55.26.9.31.32.05.63.04.91-.02.31-.06.6-.18.86-.36.26-.18.48-.39.65-.65.17-.25.3-.54.37-.86.07-.32.07-.65,0-1.01-.03-.15-.07-.29-.11-.41-.04-.13-.11-.26-.19-.4l2.69.4c.34.06.62.04.85-.05.23-.09.4-.22.53-.39.12-.17.19-.37.21-.59.02-.22-.03-.43-.13-.63-.1-.2-.26-.37-.47-.51-.21-.14-.49-.22-.82-.25l-8.37-1.17s-.06-.02-.1-.02c-1.02-.08-1.86-.42-2.52-1.01.11-.01.22-.03.31-.05.1-.02.2-.05.3-.08.46-.15.87-.39,1.23-.72.36-.33.69-.67.98-1.01.22-.24.44-.48.66-.7.22-.22.44-.38.67-.49.15.18.34.31.56.38.22.07.45.1.68.07.17-.03.34-.1.49-.19.15-.1.28-.21.38-.35.1-.14.18-.29.22-.47.05-.18.06-.35.04-.53h-.02c-.02-.12-.04-.23-.09-.32-.04-.1-.09-.19-.14-.28-.1-.16-.25-.32-.44-.46-.2-.15-.45-.26-.77-.36-.69-.11-1.39-.24-2.09-.37-.7-.13-1.4-.26-2.1-.39-.15-.24-.34-.43-.57-.58ZM526.13,175.18c.16.23.24.46.23.69-.02.25-.13.43-.34.54-.21.11-.48.11-.8,0-.33-.09-.63-.17-.88-.25-.26-.08-.5-.16-.75-.23s-.49-.16-.75-.24c-.26-.09-.54-.18-.87-.28-.26-.08-.45-.22-.6-.42-.14-.2-.22-.41-.24-.63,0-.26.08-.48.25-.63.18-.16.44-.19.8-.09l3.28,1.04-.02-.03c.29.13.51.31.68.54ZM524.12,161.03c.32.09.58.24.79.43.2.19.33.41.37.65.04.2.02.38-.05.54-.08.16-.2.25-.39.29-.11.02-.21.02-.32,0-.2-.04-.38-.12-.54-.25-.16-.13-.29-.29-.38-.47,0-.28-.04-.54-.11-.77s-.16-.41-.26-.54l.88.12ZM520.19,153.08l.34.05c-.26.41-.6.77-1,1.09-.41.32-.85.49-1.33.5-.31,0-.57-.07-.77-.23-.21-.16-.36-.37-.46-.64-.09-.27-.11-.53-.07-.78.04-.25.15-.45.34-.6.04.42.19.75.45.98.26.23.55.36.87.41.32.04.63,0,.94-.14.31-.13.54-.35.69-.64Z"/>
        <path class="cls-1" d="M532.09,168.84c-.29-.23-.62-.33-.99-.29-.38.04-.69.21-.92.5-.23.29-.33.62-.28.99.04.37.21.67.5.9.29.23.63.33,1.01.28.37-.04.67-.21.9-.5.23-.29.32-.62.28-.99s-.21-.67-.49-.91Z"/>
        <path class="cls-1" d="M530.03,194.83l-3.54-1.92c.31-.2.57-.47.78-.78.21-.32.34-.66.41-1.04.04-.26.05-.53.02-.82-.03-.28-.1-.55-.22-.81-.11-.26-.27-.5-.47-.73-.2-.23-.45-.42-.73-.58l-4.03-2.21c-.14-.08-.29-.15-.44-.2-.15-.05-.31-.09-.46-.12-.36-.06-.7-.04-1.02.04-.32.09-.61.23-.86.43-.25.2-.46.44-.62.73-.16.29-.28.61-.33.96-.06.37-.06.75.01,1.15.07.4.22.79.44,1.16-.33.2-.62.48-.85.83-.24.35-.39.74-.46,1.16-.07.4-.06.83.02,1.27s.26.9.55,1.36c.04.06.1.13.14.19-.19.1-.37.21-.54.34-.37.29-.7.66-.98,1.12-.28.46-.5.98-.66,1.56-.15.55-.23,1.13-.25,1.74-.01.61.08,1.22.26,1.83.01.03.03.07.04.1-.13.05-.26.1-.39.17-.36.2-.68.47-.98.81-.3.34-.54.72-.74,1.15-.05.12-.1.27-.16.45-.06.18-.1.33-.13.46-.28.82-.46,1.6-.56,2.31-.09.69-.07,1.34.03,1.96-.13.04-.26.07-.39.13-.38.16-.73.4-1.06.7-.33.3-.62.66-.86,1.07-.06.12-.13.26-.21.43-.08.17-.14.32-.18.45-.36.79-.63,1.54-.8,2.24-.17.7-.23,1.38-.17,2.04.01.12.05.24.07.37-.23.03-.47.09-.7.17-.44.16-.87.42-1.28.77-.41.35-.78.78-1.11,1.28-.31.48-.57,1.01-.77,1.59-.2.58-.3,1.19-.31,1.83-.01.64.09,1.29.3,1.96.2.62.54,1.24.99,1.85l1.18,2.01c-.12.08-.24.16-.37.24s-.26.15-.39.18c-.13.03-.26.03-.39-.01-.13-.04-.25-.15-.36-.33l-1.11-1.83c-.22-.34-.45-.62-.7-.82-.28-.23-.57-.38-.88-.46-.31-.08-.61-.09-.91-.04-.3.05-.59.16-.87.32-.28.16-.53.38-.74.64-.5.62-.72,1.39-.71,2.3-.13,0-.27,0-.41.01-.37.05-.73.17-1.08.36-.35.19-.68.44-.98.75-.74.77-1.13,1.71-1.18,2.82-.05,1.11.25,2.31.91,3.6.15.28.34.43.58.46.24.03.47-.03.67-.16.21-.14.36-.34.47-.6.1-.27.08-.55-.06-.86-.43-.87-.63-1.63-.61-2.27.02-.65.2-1.14.53-1.49.21-.21.42-.33.65-.34.23-.02.42.05.58.21.1.1.18.2.22.3l2.08,4.18-.74.77c-.26.27-.39.55-.4.85,0,.3.07.55.22.75.15.2.35.32.6.36.25.04.49-.07.73-.32l.51-.53,1.48,2.93c.16.29.39.46.69.49.3.03.57-.03.82-.18s.43-.39.55-.7c.11-.31.07-.66-.14-1.04l-1.64-3.31.48-.5c.29-.3.43-.59.42-.88,0-.28-.09-.52-.25-.71-.16-.19-.36-.31-.59-.36-.24-.05-.44.02-.61.19l-.38.39c-.17-.33-.33-.64-.47-.93-.14-.29-.28-.57-.43-.85-.05-.1-.1-.21-.15-.31,0-.17-.04-.33-.16-.5-.22-.38-.4-.74-.55-1.1-.15-.36-.26-.68-.34-.98s-.11-.57-.1-.8c0-.23.07-.42.18-.56.08-.09.16-.14.26-.13.1,0,.2.05.29.13.09.08.17.17.24.28l1.49,2.46c.09.15.19.28.29.39.1.11.2.22.31.31.31.25.64.38.99.39.35,0,.7-.04,1.05-.16.35-.11.67-.26.98-.44.31-.18.56-.33.75-.47.13.2.3.36.49.45.2.1.4.15.62.15.22,0,.43-.04.63-.12.21-.09.38-.22.52-.39.21-.27.33-.55.34-.86.01-.31-.07-.59-.25-.85-.06-.12-.14-.23-.23-.34-.09-.11-.19-.21-.28-.28-.34-.28-.73-.42-1.17-.42l-1.77-2.98c-.05-.07-.1-.13-.15-.19-.16-.28-.3-.56-.38-.85-.12-.43-.18-.85-.18-1.26,0-.41.07-.8.19-1.18.12-.37.28-.71.47-1,.33-.5.71-.83,1.12-.98.41-.15.78-.12,1.1.09.14.09.25.2.34.32l.19.28c-.26.12-.51.27-.74.47-.23.19-.44.43-.62.71-.21.31-.35.64-.45,1-.09.35-.13.71-.12,1.06.02.35.09.7.22,1.04.13.34.32.66.57.96.23.25.46.46.68.61.33.22.68.36,1.04.42.36.06.72.05,1.07-.04.35-.09.7-.25,1.03-.5s.62-.56.88-.94c.2-.3.35-.63.46-.99.11-.36.16-.72.15-1.1,0-.37-.08-.75-.21-1.12-.13-.37-.32-.73-.58-1.08l-1.82-2.36c-.13-.16-.27-.32-.41-.46,0,0-.01,0-.02-.02-.27-.51-.43-1.04-.46-1.6.09.07.17.13.25.19s.17.11.27.16c.43.22.89.35,1.38.37.49.02.96.02,1.41,0,.33-.01.65-.02.96-.02.31,0,.58.04.82.13-.02.24.02.46.12.67.1.21.25.38.43.53.15.1.31.17.48.21.18.04.35.05.52.03.17-.02.33-.08.49-.17s.29-.21.4-.35h-.01c.08-.1.13-.2.17-.3.04-.1.07-.2.1-.29.05-.19.05-.4.02-.64-.04-.24-.13-.51-.29-.8-.41-.57-.81-1.15-1.21-1.75-.37-.55-.74-1.09-1.11-1.63.05-.12.07-.26.08-.4,0-.17-.06-.33-.15-.47,0-.02,0-.05,0-.07-.06-.27-.17-.52-.32-.75-.15-.23-.33-.44-.55-.63-.11-.1-.23-.16-.35-.24-.13-.3-.24-.61-.29-.93.09.06.19.11.27.16s.18.09.29.13c.45.18.92.25,1.41.22.49-.03.96-.08,1.4-.16.33-.05.64-.09.95-.12.31-.03.59-.02.83.04,0,.24.06.45.19.65.12.2.29.36.48.48.16.08.32.14.5.16.18.02.35.01.52-.03s.32-.12.47-.22.27-.24.37-.39h-.02c.06-.11.11-.21.14-.31.03-.1.05-.2.07-.3.03-.19.01-.4-.05-.64-.06-.24-.18-.49-.37-.77-.47-.53-.93-1.06-1.39-1.61-.41-.49-.83-.98-1.25-1.47.03-.16.05-.33.02-.51-.03-.18-.12-.32-.23-.45,0,0,0,0,0,0-.09-.26-.23-.5-.4-.72-.17-.22-.38-.41-.61-.57-.11-.08-.23-.13-.35-.19-.17-.29-.32-.59-.41-.9-.12-.39-.18-.79-.18-1.18,0-.39.05-.76.14-1.1.16-.58.42-1.01.77-1.28.35-.27.71-.35,1.08-.25.16.04.3.11.42.2l.27.21c-.21.19-.4.42-.56.67-.16.26-.29.54-.38.86-.1.36-.14.72-.12,1.09.02.36.09.71.21,1.04.12.33.3.64.53.93.23.29.51.53.84.74.29.17.57.3.84.37.38.11.75.13,1.12.08.36-.05.7-.18,1.01-.37.31-.19.59-.46.83-.79.24-.33.42-.72.55-1.17.1-.35.14-.71.14-1.08,0-.37-.07-.74-.19-1.09-.12-.35-.3-.69-.54-1.01-.24-.32-.53-.6-.89-.84l-1.55-1.07s0-.02-.01-.03c-.1-.16-.24-.28-.43-.36-.93-.53-1.57-1.04-1.94-1.52-.37-.48-.52-.91-.46-1.28.03-.16.1-.28.21-.35.11-.07.23-.1.36-.07.11.02.2.06.28.11l8.74,4.73c.28.15.54.22.78.21.24,0,.45-.06.62-.17.17-.11.31-.26.4-.44.09-.19.12-.39.1-.6-.03-.22-.12-.43-.28-.65-.16-.22-.4-.41-.73-.57ZM512.9,223.13c-.13.19-.3.3-.51.33-.21.02-.42-.03-.61-.15-.12-.08-.22-.17-.29-.27-.15-.18-.23-.36-.23-.56,0-.2.03-.39.11-.57.08-.18.19-.35.33-.5.14-.15.29-.27.45-.35l.64.83c.16.22.24.45.26.67.02.23-.03.42-.13.57ZM514.22,213.92c-.51-.06-.94-.26-1.29-.59-.22-.22-.35-.45-.38-.71-.03-.26.01-.52.13-.78.13-.25.3-.45.51-.6.21-.15.43-.21.66-.18-.27.33-.4.67-.38,1.01.02.34.12.64.32.9.19.26.45.45.76.57.31.13.62.14.94.04l.21.28c-.47.1-.97.12-1.48.06ZM517.65,206.48c-.52,0-.97-.16-1.35-.45-.24-.19-.4-.41-.46-.67-.06-.25-.04-.52.05-.79.11-.27.25-.48.44-.65.19-.17.4-.25.64-.25-.23.36-.32.7-.27,1.04.05.34.19.63.41.86.22.23.49.4.82.49.32.09.64.07.93-.06l.24.25c-.46.15-.95.22-1.46.21ZM523.49,199.76c.08.21.1.41.05.59-.06.22-.19.38-.39.47-.2.09-.4.1-.63.04-.14-.04-.26-.1-.36-.17-.19-.12-.33-.28-.39-.46-.07-.18-.09-.38-.07-.58.02-.2.07-.39.16-.58.09-.19.19-.34.32-.47l.86.6c.22.16.37.35.45.56ZM525.32,190.91c-.03.08-.05.12-.06.13,0,.01-.03.05-.08.12-.05.07-.14.13-.28.17-.14.04-.32.05-.55.02-.23-.03-.54-.15-.9-.34l-1.58-.86c-.28-.17-.5-.34-.66-.51-.16-.17-.27-.33-.33-.47-.07-.14-.1-.28-.1-.39,0-.12.01-.21.05-.28.05-.12.13-.21.23-.25.1-.04.21-.06.33-.05.12,0,.23.03.34.07.11.04.21.08.29.13l2.38,1.26c.33.19.56.36.69.52.13.16.22.31.25.43.03.13.03.23,0,.31Z"/>
        <path class="cls-1" d="M494.23,233.38c-.37-.03-.7.08-.99.33-.28.24-.44.55-.46.92-.03.37.08.7.33.98.25.29.56.45.93.47s.69-.09.98-.33c.29-.25.45-.56.48-.92.03-.36-.09-.69-.34-.98-.24-.28-.55-.44-.92-.47Z"/>
      </g>
      <g>
        <path class="cls-1" d="M167.97,254.79h-25.32c-.25,22.91-5.6,32.19-16.41,35v-35h-25.45v89.08h25.45v-34.74h.05c2.91-.23,5.6,1.55,6.53,4.32l10.22,30.42h27.87l-16.54-46.45c9.04-9.03,13.62-23.16,13.62-42.63Z"/>
        <path class="cls-1" d="M243.38,283.43c0-16.93-14-28.63-33.59-28.63h-32.46v89.08h25.45v-31.18c2.52,0,4.77,1.58,5.62,3.96l9.77,27.22h27.61l-14.38-37.41c7.51-5.22,11.96-13.36,11.96-23.03ZM210.74,292.33c-.37,0-.74-.03-1.1-.08-3.87-.54-6.85-3.86-6.85-7.88s3.01-7.38,6.91-7.88c.14-.02.29-.04.43-.05,3.87-.3,7.38,2.13,8.31,5.9,1.31,5.26-2.64,9.98-7.7,9.98Z"/>
        <path class="cls-1" d="M253.01,343.87h55.23v-24.18h-24.43c-2.95,0-5.35-2.39-5.35-5.35v1.02c0-2.95,2.39-6.62,5.35-6.62h20.61v-21.63h-20.61c-2.95,0-5.35-2.39-5.35-5.35s2.39-5.35,5.35-5.35h24.43v-21.63h-55.23v89.08Z"/>
        <path class="cls-1" d="M418.1,254.79h-39.59c-.06,0-.12.05-.13.11l-9.39,46.95c-.03.15-.24.15-.27,0l-9.39-46.95c-.01-.06-.07-.11-.13-.11h-40.6c-.07,0-.14.06-.14.14v88.81c0,.07.06.14.14.14h24.54c.07,0,.14-.06.14-.14v-29.87c0-4.75,6.81-5.53,7.88-.9l7.11,30.79c.01.06.07.1.13.1h20.02c.06,0,.12-.04.13-.11l6.89-30.74c1.05-4.7,7.98-3.94,7.98.88v29.83c0,.07.06.14.14.14h24.55c.07,0,.14-.06.14-.14v-88.81c0-.07-.06-.14-.14-.14Z"/>
        <path class="cls-1" d="M486.56,273.51c-2.52-10.95-12.27-18.71-23.51-18.71h0c-11.25,0-21.01,7.78-23.51,18.75l-16.08,70.33h27.24l2.42-14.13h19.72l2.67,14.13h27.24l-16.19-70.37ZM465.89,291.76c-.92.37-1.92.58-2.97.58s-2.14-.22-3.1-.62h0c-2.85-1.22-4.85-4.04-4.85-7.33,0-4.26,3.34-7.73,7.55-7.94.14-.01.27-.01.41-.01.05,0,.1,0,.15,0,4.32.08,7.8,3.6,7.8,7.95,0,3.34-2.06,6.2-4.98,7.38Z"/>
      </g>
      <g>
        <path class="cls-1" d="M107.02,407.64c-2.24,0-3.97.22-4.84.22-1.08,0-1.59-.58-1.59-1.37,0-2.46,3.25-.94,3.25-5.78v-37.26c0-4.84-3.25-3.25-3.25-5.7,0-.8.51-1.45,1.59-1.45.87,0,2.6.22,4.84.22,2.67,0,5.49-.22,8.01-.22,11.91,0,20.51,9.6,20.51,26.28,0,14.15-6.79,25.27-20.43,25.27-1.81,0-4.98-.22-8.09-.22ZM115.18,404.11c8.59,0,13.43-8.23,13.43-21.52,0-14.94-5.34-22.38-13.65-22.38h-.58c-2.45,0-4.19.36-4.19,3.47v36.9c0,2.17.43,3.54,4.19,3.54h.79Z"/>
        <path class="cls-1" d="M170.87,395.01c0,1.08-.36,2.45-1.37,5.34l-2.09,5.99c-.58,1.59-1.08,2.81-2.09,2.81-1.45,0-1.59-1.52-3.39-1.52h-16.03c-2.24,0-3.9.22-4.77.22-1.15,0-1.59-.58-1.59-1.37,0-2.46,3.18-.94,3.18-5.78v-37.26c0-4.84-3.18-3.25-3.18-5.7,0-.8.51-1.45,1.59-1.45.87,0,2.53.22,4.77.22h14.44c1.59,0,1.73-1.52,3.11-1.52,1.08,0,1.3.72,2.31,3.54l1.81,5.2c.94,2.53,1.45,3.97,1.45,4.84s-.72,1.37-1.37,1.37c-.79,0-1.23-.58-1.88-1.59-4.77-7.72-6.57-8.16-9.39-8.16h-3.61c-2.53,0-3.68.36-3.68,3.54v14.58c0,1.3.58,1.52,1.45,1.52h4.19c2.96,0,2.6-5.41,4.62-5.41.87,0,1.3.58,1.3,1.95,0,1.66-.14,3.46-.14,5.27s.14,3.75.14,5.34c0,1.44-.43,2.02-1.3,2.02-2.02,0-1.59-5.56-4.62-5.56h-4.19c-.87,0-1.45.29-1.45,1.59v15.45c0,2.38.29,3.54,3.68,3.54h5.13c3.97,0,6.28-2.96,9.68-8.66.72-1.16,1.3-1.73,2.09-1.73s1.23.58,1.23,1.37Z"/>
        <path class="cls-1" d="M178.02,406.35l-1.73-6.14c-1.3-4.55-1.52-5.56-1.52-6.28,0-.87.51-1.52,1.3-1.52.87,0,1.3.65,2.02,1.95,3.39,5.92,7.29,10.4,11.99,10.4,4.19,0,7.22-2.96,7.22-8.52,0-6.65-4.84-9.96-10.18-13.65-6.28-4.19-11.55-8.66-11.55-15.38s5.05-11.7,10.54-11.7c3.68,0,5.42,1.44,6.35,1.44.79,0,.94-1.66,2.24-1.66,1.23,0,1.66.94,2.24,2.67l1.73,4.33c1.37,3.39,1.88,4.84,1.88,5.78s-.65,1.37-1.37,1.37c-.65,0-1.01-.22-1.59-1.15-2.96-4.77-6.5-8.74-10.61-8.74-3.47,0-5.27,2.82-5.27,5.92,0,3.75,2.96,6.86,8.23,10.33,5.42,3.61,13.29,8.59,13.29,18.63,0,8.16-5.2,14.22-12.56,14.22-4.12,0-6.64-1.95-7.73-1.95-1.15,0-1.23,2.24-2.82,2.24-1.08,0-1.66-1.08-2.09-2.6Z"/>
        <path class="cls-1" d="M210.77,406.35l-1.73-6.14c-1.3-4.55-1.52-5.56-1.52-6.28,0-.87.51-1.52,1.3-1.52.87,0,1.3.65,2.02,1.95,3.39,5.92,7.29,10.4,11.99,10.4,4.19,0,7.22-2.96,7.22-8.52,0-6.65-4.84-9.96-10.18-13.65-6.28-4.19-11.55-8.66-11.55-15.38s5.05-11.7,10.54-11.7c3.68,0,5.42,1.44,6.35,1.44.79,0,.94-1.66,2.24-1.66,1.23,0,1.66.94,2.24,2.67l1.73,4.33c1.37,3.39,1.88,4.84,1.88,5.78s-.65,1.37-1.37,1.37c-.65,0-1.01-.22-1.59-1.15-2.96-4.77-6.5-8.74-10.61-8.74-3.47,0-5.27,2.82-5.27,5.92,0,3.75,2.96,6.86,8.23,10.33,5.41,3.61,13.28,8.59,13.28,18.63,0,8.16-5.2,14.22-12.56,14.22-4.12,0-6.64-1.95-7.73-1.95-1.15,0-1.23,2.24-2.82,2.24-1.08,0-1.66-1.08-2.09-2.6Z"/>
        <path class="cls-1" d="M270.7,395.01c0,1.08-.36,2.45-1.37,5.34l-2.09,5.99c-.58,1.59-1.08,2.81-2.09,2.81-1.45,0-1.59-1.52-3.39-1.52h-16.03c-2.24,0-3.9.22-4.77.22-1.15,0-1.59-.58-1.59-1.37,0-2.46,3.18-.94,3.18-5.78v-37.26c0-4.84-3.18-3.25-3.18-5.7,0-.8.51-1.45,1.59-1.45.87,0,2.53.22,4.77.22h14.44c1.59,0,1.73-1.52,3.11-1.52,1.08,0,1.3.72,2.31,3.54l1.81,5.2c.94,2.53,1.45,3.97,1.45,4.84s-.72,1.37-1.37,1.37c-.79,0-1.23-.58-1.88-1.59-4.77-7.72-6.57-8.16-9.39-8.16h-3.61c-2.53,0-3.68.36-3.68,3.54v14.58c0,1.3.58,1.52,1.45,1.52h4.19c2.96,0,2.6-5.41,4.62-5.41.87,0,1.3.58,1.3,1.95,0,1.66-.14,3.46-.14,5.27s.14,3.75.14,5.34c0,1.44-.43,2.02-1.3,2.02-2.02,0-1.59-5.56-4.62-5.56h-4.19c-.87,0-1.45.29-1.45,1.59v15.45c0,2.38.29,3.54,3.68,3.54h5.13c3.97,0,6.28-2.96,9.68-8.66.72-1.16,1.3-1.73,2.09-1.73s1.23.58,1.23,1.37Z"/>
        <path class="cls-1" d="M306.52,406.49c0,.87-.79,1.37-1.52,1.37-.94,0-3.03-.22-5.2-.22-2.02,0-3.9.22-5.2.22-1.01,0-1.66-.51-1.66-1.52,0-1.81,2.38-1.59,2.38-3.61,0-.58-.43-2.02-.72-2.89l-3.97-9.82c-.51-1.08-.87-1.45-1.66-1.37-1.81.07-3.68.07-4.62,0-.72-.07-1.3.22-1.3,1.45v10.61c0,4.84,3.25,3.32,3.25,5.85,0,.65-.51,1.3-1.44,1.3-1.15,0-2.67-.22-5.05-.22-2.24,0-3.75.22-4.91.22-1.01,0-1.44-.65-1.44-1.3,0-2.53,3.25-1.01,3.25-5.85v-37.26c0-4.84-3.25-3.18-3.25-5.63,0-.79.51-1.52,1.81-1.52.87,0,2.38.22,4.4.22,2.45,0,4.98-.36,7.44-.36,10.54,0,17.26,6.79,17.26,16.97,0,6.79-3.25,12.13-8.52,14.44l4.91,11.84c2.45,5.71,5.78,4.84,5.78,7.08ZM297.42,372.91c0-8.38-4.33-12.85-10.25-12.85-3.97,0-4.12,1.88-4.12,4.19v17.69c0,2.38.87,3.11,3.61,3.11,7.29,0,10.76-4.33,10.76-12.13Z"/>
        <path class="cls-1" d="M318.87,406.49c0-2.96,3.75-1.01,3.75-5.85v-37.55c0-1.59-.22-2.89-2.17-2.89h-.94c-2.82,0-4.55,1.66-8.16,8.16-.58,1.01-1.08,1.52-1.88,1.52s-1.37-.58-1.37-1.45c0-.94.29-1.95,1.08-4.69l1.52-5.2c.65-2.38,1.01-3.47,2.17-3.47,1.44,0,1.59,1.45,3.18,1.45h19.5c1.59,0,1.73-1.45,3.11-1.45,1.23,0,1.59,1.08,2.24,3.47l1.52,5.2c.79,2.74,1.08,3.82,1.08,4.69s-.58,1.45-1.37,1.45-1.23-.51-1.88-1.52c-3.68-6.35-5.27-8.16-8.16-8.16h-1.01c-1.88,0-2.09,1.23-2.09,2.89v37.55c0,4.84,3.68,2.89,3.68,5.85,0,.72-.58,1.37-1.52,1.37-1.37,0-2.89-.22-5.34-.22s-4.04.22-5.34.22c-1.01,0-1.59-.65-1.59-1.37Z"/>
        <path class="cls-1" d="M396.64,406.56c0,.65-.51,1.3-1.44,1.3-1.16,0-2.67-.22-4.98-.22s-3.68.22-4.91.22c-1.01,0-1.44-.65-1.44-1.3,0-2.53,3.25-1.01,3.25-5.85v-15.67c0-1.3-.65-1.59-1.52-1.59h-14.37c-.94,0-1.52.29-1.52,1.59v15.67c0,4.84,3.25,3.32,3.25,5.85,0,.65-.51,1.3-1.52,1.3-1.08,0-2.6-.22-4.91-.22s-3.76.22-4.91.22c-1.01,0-1.44-.65-1.44-1.3,0-2.53,3.18-1.01,3.18-5.85v-37.26c0-4.84-3.18-3.25-3.18-5.7,0-.8.51-1.45,1.52-1.45,1.23,0,2.6.22,4.84.22s3.83-.22,4.91-.22c.94,0,1.52.65,1.52,1.37,0,2.53-3.25.94-3.25,5.78v14.8c0,1.37.58,1.59,1.52,1.59h14.37c.87,0,1.52-.21,1.52-1.59v-14.8c0-4.84-3.25-3.25-3.25-5.78,0-.65.51-1.37,1.44-1.37,1.23,0,2.67.22,4.91.22s3.83-.22,4.98-.22c.94,0,1.44.65,1.44,1.37,0,2.53-3.18.94-3.18,5.78v37.26c0,4.84,3.18,3.32,3.18,5.85Z"/>
        <path class="cls-1" d="M437.41,406.42c0,.87-.65,1.45-1.59,1.45-.79,0-2.09-.22-4.41-.22s-4.33.22-5.78.22c-1.01,0-1.73-.51-1.73-1.52,0-1.81,3.25-1.59,3.25-3.97,0-.87-.14-1.3-.29-1.95l-2.31-9.67c-.36-1.3-.79-1.52-1.59-1.52h-10.25c-.79,0-1.3.14-1.66,1.52l-2.31,9.53c-.22.65-.36,1.37-.36,2.02,0,2.46,3.32,2.31,3.32,4.05,0,1.01-.72,1.52-1.81,1.52-1.37,0-3.03-.22-4.55-.22-1.66,0-2.74.22-3.83.22-.65,0-1.23-.43-1.23-1.3,0-2.17,2.67-1.15,3.9-5.85l7.58-29.46c.79-3.32,1.81-6.79,2.89-11.7.51-2.6.87-3.47,4.41-3.47s3.68.94,4.26,3.39c1.08,4.91,2.09,8.67,2.89,11.77l7.44,29.24c1.16,4.77,3.75,3.75,3.75,5.92ZM422.89,384.32l-5.05-20.43-5.13,20.58c-.22.94.07,1.08.94,1.08h8.3c.87,0,1.23-.14.94-1.23Z"/>
        <path class="cls-1" d="M440.33,394.14c0-.87.07-2.67.15-3.97l1.23-24.26c.07-1.01.15-2.24.15-3.03,0-2.31-1.01-2.89-1.95-3.4-.65-.36-1.23-.79-1.23-1.8,0-.72.51-1.37,1.44-1.37,1.15,0,2.67.22,4.98.22s3.97-.22,5.27-.22c.94,0,1.37.72,1.37,1.37,0,1.15-.58,1.52-1.3,1.95-1.01.51-2.09,1.01-2.24,3.82l-1.23,26.65c-.07,1.23-.15,2.67-.15,3.75,0,7.29,3.25,10.32,8.74,10.32s9.03-2.81,9.03-10.25c0-.79-.15-3.03-.22-4.33l-1.37-26.14c-.14-2.67-1.37-3.18-2.38-3.75-.87-.43-1.66-.72-1.66-2.02,0-.65.65-1.37,1.66-1.37,1.23,0,2.96.22,4.19.22,1.16,0,2.89-.22,4.19-.22.94,0,1.37.65,1.37,1.37,0,1.01-.58,1.44-1.23,1.8-1.01.58-2.09,1.08-2.09,3.4,0,.79.07,2.02.14,3.03l1.37,24.33c.07,1.3.15,3.32.15,4.12,0,10.25-6.28,14.58-14.15,14.58s-14.22-4.33-14.22-14.8Z"/>
        <path class="cls-1" d="M477.55,406.35l-1.73-6.14c-1.3-4.55-1.52-5.56-1.52-6.28,0-.87.51-1.52,1.3-1.52.87,0,1.3.65,2.02,1.95,3.39,5.92,7.29,10.4,11.99,10.4,4.19,0,7.22-2.96,7.22-8.52,0-6.65-4.84-9.96-10.18-13.65-6.28-4.19-11.55-8.66-11.55-15.38s5.05-11.7,10.54-11.7c3.68,0,5.42,1.44,6.35,1.44.79,0,.94-1.66,2.24-1.66,1.23,0,1.66.94,2.24,2.67l1.73,4.33c1.37,3.39,1.88,4.84,1.88,5.78s-.65,1.37-1.37,1.37c-.65,0-1.01-.22-1.59-1.15-2.96-4.77-6.5-8.74-10.61-8.74-3.47,0-5.27,2.82-5.27,5.92,0,3.75,2.96,6.86,8.23,10.33,5.42,3.61,13.29,8.59,13.29,18.63,0,8.16-5.2,14.22-12.56,14.22-4.12,0-6.64-1.95-7.73-1.95-1.15,0-1.23,2.24-2.82,2.24-1.08,0-1.66-1.08-2.09-2.6Z"/>
      </g>
    </g>
    <g>
      <path class="cls-1" d="M497.57,163.48c1.21,1.52,1.78,3.4,1.62,5.29l-.47,5.61c-.82-.92-1.71-1.8-2.63-2.62-1.1-.97-2.27-1.88-3.49-2.7-.49-.32-.74-.92-.63-1.53l1.43-8.24c1.21.96,2.33,2.03,3.35,3.18.3.34.58.67.83,1Z"/>
      <path class="cls-1" d="M497.54,182.61l-.12,5.63c-.04,1.91-.8,3.72-2.17,5.09-.29.3-.6.6-.93.9-1.14,1.04-2.36,1.99-3.67,2.82l-.54-8.35c-.04-.6.27-1.18.79-1.46,1.3-.68,2.55-1.47,3.75-2.32,1-.71,1.97-1.49,2.89-2.32Z"/>
      <path class="cls-1" d="M498.18,176.71c-.67.39-1.65.5-2.14.32-1.2-.43-2.53-1.79-3.71-2.97-.42-.43-.82-.83-1.2-1.18-.75-.69-1.47-1.52-2.12-2.44-.52-.72-.73-1.66-.58-2.54l1.45-8.33c.1-.63.62-1.15,1.31-1.23.09-.01.27-.04.44-.05l-1.56,8.91c-.23,1.35.34,2.7,1.46,3.46,1.15.77,2.24,1.63,3.29,2.55,1.21,1.06,2.33,2.25,3.37,3.5Z"/>
      <path class="cls-1" d="M495.16,179.71c.52-.13,1.47.08,2.09.55-1.17,1.13-2.4,2.17-3.72,3.11-1.13.79-2.31,1.54-3.54,2.18-1.19.63-1.9,1.92-1.81,3.29l.59,9.02c-.18-.04-.37-.08-.48-.11-.61-.14-1.08-.69-1.12-1.34l-.55-8.43c-.06-.9.25-1.81.84-2.48.74-.84,1.55-1.59,2.38-2.2.39-.3.83-.66,1.3-1.03,1.24-1,2.77-2.26,4.01-2.56Z"/>
      <path class="cls-1" d="M493.84,157.22c-.19-.14-.37-.29-.56-.43-.01,0-.02,0-.02-.01-.72-.55-1.72-.43-2.37-.34-1.48.19-2.64,1.31-2.9,2.79l-1.44,8.33c-.24,1.39.08,2.84.89,3.99.74,1.03,1.55,1.96,2.4,2.74.35.32.72.7,1.12,1.11.93.93,1.95,1.96,3.01,2.68-1.4.56-2.78,1.69-4.03,2.7-.43.36-.85.69-1.23.97-.94.69-1.84,1.53-2.67,2.47-.94,1.05-1.42,2.47-1.33,3.88l.55,8.43c.1,1.5,1.13,2.74,2.56,3.08-2.12,7.35-4.02,14.86-5.63,22.28-1.18,5.39-2.8,11.27-7.26,13-2.72,1.08-6.22.2-9.33-2.3-10.13-8.13-11.04-24.78-8.71-36.86.6-.12,1.22-.27,1.83-.45,4.86-1.47,8.69-6.18,9.32-11.47.34-2.95-.92-4.07-1.71-4.48-1.5-.77-3.65-.23-5.45,1.41-2.62,2.35-3.7,6.13-4.64,9.47l-.15.52c-.3,1.08-.58,2.17-.82,3.28-2.8.25-5.17-.56-7.04-2.41-3.76-3.71-5.5-11.79-4.48-20.71,4.46-1.77,7.8-6.56,9.46-10.58,1.29-3.11.33-5.02-.99-5.77-1.51-.84-3.97-.39-5.78,2.09-2.1,2.88-3.71,7.53-4.45,12.81-.69.17-1.42.25-2.13.22-5.23-.23-10.03-4.79-12.06-9.17-1.32-2.84-1.82-6.43-1.44-10.16,4.51-.42,8.3-2.97,10.25-6.93,1.71-3.5.63-6.26-1.1-7.35-1.62-1.02-4.25-.83-6.44,1.93-2.2,2.74-3.75,6.44-4.41,10.49-3.02-.08-5.88-1.31-7.74-3.34-1.87-2.04-2.65-4.76-2.26-7.89.88-7.08,9.27-11.58,16.19-13.28,9.29-2.29,19.03-2.17,28.15.34,8.32,2.29,19.84,7.1,27.52,17.06,4,5.18,6.34,11.37,7.3,15.85Z"/>
      <path class="cls-1" d="M475.31,245.69c1.27.97,1.72,2.04,1.37,3.14-.49,1.57-2.59,2.98-4.58,3.07-.75.04-1.67.05-2.63.03-1-1.82-3.07-3.52-5.11-4.33-2.09-.82-3.82-.54-4.73.78-.83,1.22-.63,2.16-.3,2.73,1.08,1.93,5.46,2.52,8.81,2.68.03.15.03.29.01.43-.12.79-1.33,1.35-3.32,1.49-4.21.33-8.65-.58-12.5-2.56-9.68-4.99-15.03-15.99-11.96-24.55.18-.5-.07-1.05-.57-1.24s-1.05.08-1.23.58c-1.72,4.75-1.11,10.18,1.29,15.09-.3.12-.6.25-.89.34-1.45.5-3.03.34-4.37-.43-11.59-6.77-25.52-16-40.95-33.24-12.13-13.54-21.49-27.58-28.63-42.92-.96-2.08-.59-4.52.94-6.22,2.17-2.41,4.47-4.63,6.86-6.61.25-.2.37-.51.34-.83-.03-.31-.22-.59-.5-.75-2.69-1.45-5.45-8.62-6.15-11.37-2.14-8.48-5.64-16.83-10.4-24.82l-.33-.55c-1.95-3.26-7.88-13.15-4.6-16.19.51-.47.92-.49,1.19-.46,1.72.22,3.77,3.35,4.99,5.22.32.48.58.88.82,1.22-.45.48-.79.96-1.03,1.43-.62,1.21-.37,2.84.57,3.57.29.24,1.38.9,2.78-.35.48-.42.78-1,.85-1.64.12-1.08-.19-1.96-.64-2.72,1.9-1.5,4.59-2.76,6.32-3.18,1.74-.42,2.79.18,3.09.96.29.79-.11,1.96-1.69,2.77-.39.2-.92.33-1.48.46-1.32.32-3.11.76-3.63,2.7-.4,1.54.16,2.98,1.5,3.87,1.52,1.01,3.61.99,4.96-.04,1.33-1.01,2.05-2.66,1.93-4.4l-.03-.41c-.08-1.03-.11-1.7.35-2.26.57-.69,1.68-.83,2.56-.3,2.47,1.49,1.51,4.75.26,7.22-1.72,3.4-2.42,6.53-2.33,10.47.08,4.38,1.35,11.32,4.63,16.47,2.66,4.18,7.95,5.81,12.54,3.85,6.94-2.94,14.45-5.06,22.39-7.31l.77-.21c-.04.21-.08.42-.1.63-.46,3.7.48,6.96,2.75,9.42,2.16,2.37,5.44,3.81,8.91,3.96-.37,3.98.2,7.83,1.64,10.91,2.27,4.92,7.72,10.03,13.71,10.29.66.03,1.33-.01,1.98-.13-.72,7.53.27,16.73,5.11,21.52,2.18,2.14,4.87,3.13,8.02,2.99-1.66,9.11-1.5,20.58,2.77,29.45-.05.06-.1.13-.13.22-.61,1.56-2.57,4.54-5.63,7.93-2.08-4.38-1.89-8.25.58-12.08.28-.45.15-1.04-.29-1.34-.44-.28-1.03-.15-1.33.29-3.07,4.77-3.08,9.76-.03,15.26,3.24,5.84,11.97,8.29,19.06,8.64,2.15.1,4.06.28,5.41,1.34ZM424.39,182.58c.45-.27.6-.86.32-1.32-.27-.46-.87-.6-1.32-.32-2.67,1.62-6.14.87-7.89-1.7-1.73-2.54-1.19-6.02,1.24-7.91.42-.33.49-.93.17-1.36-.33-.41-.93-.49-1.36-.16-3.22,2.52-3.94,7.13-1.65,10.51,1.51,2.19,3.94,3.39,6.43,3.39,1.39,0,2.78-.36,4.05-1.14ZM403.65,159.55c2.75-1.76,4.35-4.18,3.57-5.41-.78-1.22-3.65-.77-6.4.98-2.74,1.76-4.33,4.18-3.56,5.4.13.2.32.36.55.47h.01c.37.04.73.12,1.1.22h.01c1.27.01,3.02-.57,4.72-1.67ZM404.75,180.59c.46-.25.63-.84.37-1.31s-.85-.62-1.31-.37c-2.73,1.53-6.16.66-7.83-1.97-1.64-2.6-.96-6.05,1.53-7.86.42-.31.52-.91.21-1.35-.07-.1-.16-.17-.25-.24h-.01c-.24-.03-.48-.08-.71-.13h-.01c-.13.02-.25.08-.36.16-3.31,2.41-4.19,6.99-2.02,10.44,1.48,2.33,4,3.63,6.58,3.63,1.3,0,2.6-.33,3.81-1Z"/>
      <path class="cls-1" d="M465.45,181.05c.59.3.83,1.23.67,2.54-.53,4.56-3.81,8.61-7.96,9.87-.28.08-.56.16-.84.22.19-.8.4-1.62.62-2.41l.15-.52c.88-3.08,1.88-6.59,4.07-8.57.88-.79,1.9-1.26,2.67-1.26.23,0,.44.04.61.13Z"/>
      <path class="cls-1" d="M463.64,249.4c1.28.5,2.51,1.44,3.38,2.41-2.82-.23-5.54-.73-6.02-1.62-.08-.14-.01-.39.2-.7.22-.31.58-.42.97-.42.55,0,1.15.2,1.47.33Z"/>
      <path class="cls-1" d="M451.29,156.23c.76.42.81,1.74.15,3.36-1.38,3.32-3.97,7.21-7.37,9.05.75-4.53,2.16-8.43,3.93-10.87.87-1.18,1.88-1.7,2.64-1.7.25,0,.47.06.65.16Z"/>
      <path class="cls-1" d="M439.36,245.29c-.64,2.43-2.73,4.21-4.54,5.32-11.09,6.86-25.31,5.74-37.86,4.73-8.99-.71-18.85-.89-31.04-.54-1.94.06-3.91.16-5.82.25-3.97.2-8.08.41-12.07.23-.75-.03-1.37-.57-1.5-1.33-.16-.88-.31-1.89-.45-2.99-.25-1.99-.4-3.87-.46-5.75-.02-.49-.05-1.02-.08-1.58-.13-2.64-.29-5.93.22-8.78.7-3.9,2.42-6,5.43-6.62,1.05-.22,2.07-.22,3.03,0,3.58.83,5.65,4.63,6.06,7.81.22,1.69-.05,3.44-.78,5.05-.04.1-.09.21-.14.34-.26.62-.64,1.57-1.63,2.62-.45.48-.37,1.04-.17,1.37.84,1.35,5.83.14,5.87.13,1.89-.59,3.57-1.79,4.74-3.37,2.14-2.89.49-4.73-1.1-6.51l-.16-.18c-.07-.07-4.65-5.2-4.65-5.2-2.63-2.94-4.92-6.14-6.8-9.47-1.69-3.01-3.08-6.2-4.14-9.47-5.59-17.24-1.75-36.56,10.03-50.49.06-.05.13-.12.18-.19.02-.05.08-.12.14-.2l.24-.27c.29-.29.68-.61,1.08-.64.1,0,.44-.03.93.49-1.55,2.22-1.82,5.08-.66,7.58,7.22,15.51,16.69,29.71,28.94,43.39,15.7,17.53,30.38,27.17,41.42,33.61,1.12.65,2.37.98,3.63.98.71,0,1.42-.11,2.11-.32Z"/>
      <path class="cls-1" d="M434.5,137.68c1.02.64,1.58,2.45.38,4.88-1.57,3.22-4.6,5.32-8.24,5.81.65-3.53,2.05-6.83,3.94-9.19.92-1.16,1.98-1.79,2.9-1.79.36,0,.71.1,1.01.29Z"/>
      <path class="cls-1" d="M369.81,109c.07,1.08-.39,2.13-1.19,2.74-.71.54-1.89.53-2.73-.03-.45-.3-.94-.85-.7-1.79.2-.75.83-.97,2.22-1.32.64-.15,1.31-.31,1.9-.61.14-.08.28-.16.41-.23.01.29.03.58.06.85l.03.38Z"/>
      <path class="cls-1" d="M365.65,236.97c1.71,1.9,2.14,2.51.98,4.08-.93,1.26-2.27,2.2-3.77,2.67-.42.13-1.7.31-2.72.38.53-.78.8-1.46,1-1.93.04-.11.08-.21.12-.29.87-1.94,1.2-4.05.93-6.08-.18-1.36-.59-2.76-1.24-4.07,4.41,4.93,4.52,5.05,4.52,5.05l.16.18Z"/>
      <path class="cls-1" d="M359.27,107.12c.15.36.22.71.17,1.11-.02.16-.09.31-.22.42-.17.15-.29.21-.36.24-.11-.17-.22-.73-.01-1.15.1-.19.24-.4.42-.62Z"/>
      <path class="cls-1" d="M357.7,227.75c-.88-.64-1.89-1.13-3.03-1.39-1.23-.29-2.53-.29-3.87-.02-.47.11-.91.23-1.35.39-.74-3.69-.36-8.56.9-12.38.95,2.55,2.11,5.03,3.45,7.4,1.16,2.06,2.46,4.06,3.9,5.99Z"/>
      <path class="cls-1" d="M343.7,245.29c.05,1.52.17,3.04.33,4.62-3.53-.75-5.47-2.46-6.06-5.3-.39-1.89-.09-3.61.89-5.1,1.01-1.56,2.76-2.79,4.8-3.5-.29,2.65-.15,5.43-.04,7.73.03.55.05,1.08.07,1.56Z"/>
    </g>
  </g>
</svg>