<?xml version="1.0" encoding="UTF-8"?>
<svg id="Layer_1" data-name="Layer 1" xmlns="http://www.w3.org/2000/svg" viewBox="0 0 629.99 498.32">
  <defs>
    <style>
      .cls-1 {
        fill: #76b3d0;
      }

      .cls-2 {
        fill: #feffe6;
      }

      .cls-3 {
        fill: #fcec60;
      }

      .cls-4 {
        fill: #f8f9e8;
      }

      .cls-5 {
        fill: #988ec5;
      }

      .cls-6 {
        fill: #101010;
      }
    </style>
  </defs>
  <g>
    <path class="cls-6" d="M410.08,99.58c.35.13.69.12,1.03-.04.34-.15.58-.41.71-.76.13-.35.12-.7-.04-1.05-.15-.34-.4-.57-.75-.7-.35-.13-.69-.11-1.03.04-.34.15-.58.4-.71.75-.13.34-.12.69.03,1.03.16.35.41.59.76.72Z"/>
    <path class="cls-6" d="M418.75,100.13c.1-.26.11-.5.03-.72-.08-.22-.22-.38-.44-.5-.22-.12-.47-.12-.76-.01l-.63.24-.06-2.96c-.01-.22.03-.41.12-.56.09-.16.21-.26.36-.3.2-.05.36-.02.47.09.11.11.17.28.18.51-.02.27.03.48.14.64.11.16.26.28.45.34.18.07.38.08.59.06.21-.03.4-.1.58-.23.17-.12.3-.3.4-.52.1-.22.12-.5.07-.82-.06-.45-.21-.84-.43-1.17-.23-.33-.5-.59-.81-.78-.32-.19-.67-.3-1.05-.33-.38-.04-.77.02-1.15.16-.33.12-.64.29-.93.51-.29.21-.54.47-.75.77-.21.3-.37.64-.49,1.02-.11.38-.16.8-.14,1.25l.07,3.22-.4.15c-.44.17-.73.39-.88.67-.14.28-.18.54-.12.78.06.24.2.43.41.57s.44.16.7.06l.08-.03s.05-.02.09-.04c.04-.02.09-.04.15-.07l.04,2.18s-.01,0-.02.02c-.19.21-.28.48-.25.8.04.57.05,1.06,0,1.47-.04.41-.1.75-.19,1.04-.09.28-.2.5-.33.67-.13.16-.27.28-.42.35-.17.08-.33.09-.48.04-.15-.05-.26-.15-.32-.29-.03-.07-.05-.16-.06-.26l-.49-5.46c-.07-.49-.23-.83-.5-1.03-.27-.2-.55-.27-.84-.21-.29.06-.54.23-.75.52-.21.29-.29.67-.25,1.15.04.4.08.84.13,1.29.04.46.09.91.13,1.37,0,.06,0,.11.01.16-.04.04-.09.08-.13.13-.17.22-.22.51-.15.85.09.5.12.94.09,1.32-.03.38-.1.71-.21,1-.11.29-.27.54-.47.75-.2.21-.43.39-.68.55-.24.15-.49.25-.73.29-.24.04-.49.06-.74.04-.25-.02-.51-.06-.77-.13-.26-.06-.53-.13-.8-.2l-1.13-5.08c.33.03.67.03,1.03,0,.36-.03.7-.16,1.01-.38.35-.21.63-.49.86-.83.23-.34.38-.72.47-1.13.08-.41.1-.84.03-1.27-.06-.44-.2-.85-.43-1.24-.24-.41-.52-.74-.84-.98-.32-.25-.66-.42-1.02-.51s-.72-.11-1.07-.05c-.36.06-.69.18-1,.37-.53.33-.99.75-1.36,1.26-.37.52-.59,1.18-.66,1.97-.58-.12-1.18-.16-1.81-.12s-1.27.27-1.94.68c-.61.37-1.09.8-1.45,1.29-.36.49-.59,1.12-.71,1.88-.06.33.01.61.21.83.19.22.42.37.68.44.26.07.52.04.77-.08.25-.12.42-.37.5-.75.08-.35.21-.65.37-.92.16-.27.37-.47.62-.63.48-.29.97-.43,1.48-.42.51.01,1.04.08,1.58.22l1.14,5.35c-.38,0-.76.04-1.17.12-.41.09-.81.24-1.22.46-.36.21-.7.46-1.01.77-.31.3-.57.65-.77,1.04-.2.39-.33.8-.39,1.25-.06.45,0,.91.16,1.39.05.14.1.27.16.39.06.12.12.23.18.33.25.4.55.72.92.94s.76.35,1.19.4c.43.05.87.02,1.33-.1.46-.11.9-.3,1.32-.55.65-.39,1.17-.9,1.58-1.51.4-.61.64-1.32.71-2.12.58.12,1.18.16,1.8.12.62-.04,1.27-.27,1.93-.68.85-.52,1.48-1.25,1.91-2.18.19.12.4.22.62.28.32.08.66.1,1.01.07.35-.04.7-.14,1.05-.3.25-.11.47-.26.7-.43l.09,4.98c0,.3.05.54.18.73.12.19.28.33.46.41.19.09.39.13.61.11s.42-.08.59-.2c.18-.12.32-.29.44-.52.11-.23.17-.51.16-.84l-.31-13.53,1.12-.44c.34-.18.56-.4.66-.65ZM403.05,114.13c-.17.43-.42.74-.75.94-.28.17-.55.22-.81.15-.26-.07-.46-.23-.6-.46-.03-.05-.06-.1-.09-.15-.03-.05-.05-.11-.06-.17-.09-.31-.07-.62.05-.94.12-.32.35-.58.67-.78.25-.15.52-.24.81-.26.28-.02.59,0,.91.06.08.64.04,1.18-.13,1.6ZM403.97,102.1c.09-.23.23-.41.42-.52.34-.21.63-.16.89.13.1.13.17.26.21.39.03.13.03.25,0,.37-.04.12-.1.23-.18.32-.08.1-.19.18-.32.24-.2.1-.4.13-.59.1-.19-.03-.36-.07-.5-.13-.04-.36-.02-.66.07-.89Z"/>
    <path class="cls-6" d="M427.12,100.32c-.26.04-.49.15-.71.34-.21.19-.32.43-.32.73-.04.52-.15.98-.33,1.39-.18.41-.41.77-.68,1.08-.27.31-.57.57-.9.78-.33.21-.67.36-1.01.46-.58.17-1.08.18-1.49.03-.41-.15-.67-.41-.78-.78-.05-.16-.06-.31-.05-.47l.04-.34c.28.08.57.12.87.12.3,0,.61-.05.93-.14.36-.11.69-.27.99-.47s.56-.46.77-.74.38-.6.5-.94c.12-.35.18-.71.18-1.1,0-.34-.05-.64-.13-.91-.11-.38-.29-.71-.53-.99-.24-.28-.52-.5-.85-.66-.33-.16-.7-.25-1.11-.28-.41-.03-.84.03-1.28.16-.35.1-.68.26-.99.46-.31.2-.59.45-.82.74-.23.29-.42.62-.56.99-.14.37-.22.77-.24,1.2l-.13,2.98c0,.21,0,.41.02.61.02.2.06.39.11.57.14.47.37.87.7,1.19.32.32.71.55,1.15.71.44.16.93.24,1.47.23.54,0,1.1-.09,1.67-.27.55-.16,1.08-.4,1.61-.72.52-.32,1-.72,1.42-1.2.42-.48.76-1.04,1.03-1.69.27-.65.42-1.39.45-2.23.01-.35-.09-.59-.29-.72-.21-.13-.44-.18-.7-.14ZM421.03,100.53c.02-.27.1-.5.24-.68.13-.18.29-.3.47-.36.22-.07.42-.04.6.08.18.12.3.29.37.51.04.14.06.27.05.4,0,.23-.06.42-.18.58-.12.16-.27.28-.45.37-.18.09-.37.15-.58.17-.2.03-.39.02-.57-.02l.05-1.05Z"/>
    <path class="cls-6" d="M431.96,91.35c.03-.23.02-.49-.03-.77-.06-.3-.18-.57-.36-.81-.18-.24-.44-.4-.77-.48l-.09-.03h.02c-.21-.04-.41-.04-.61,0-.12.02-.23.06-.34.11-.11.05-.22.12-.32.21-.18.17-.31.37-.38.59-.07.23-.09.45-.04.68.05.24.15.45.32.62h-.02c.09.1.19.18.3.25s.23.12.33.15c-.08.11-.19.19-.32.26s-.27.1-.42.09c-.23-.01-.4.04-.52.15-.12.11-.19.25-.21.4s.03.29.14.42c.11.13.28.2.52.21.22,0,.44-.02.66-.06.58-.11,1.06-.35,1.44-.7.38-.35.61-.79.68-1.31v.02Z"/>
    <path class="cls-6" d="M438.38,99.61c-.26-.42-.52-.8-.8-1.16-.2-.27-.38-.53-.56-.78-.17-.26-.29-.51-.35-.76.21-.11.37-.27.48-.47.12-.2.18-.42.2-.65,0-.18-.03-.35-.09-.52-.06-.17-.15-.32-.27-.44-.11-.12-.25-.23-.42-.31-.16-.08-.34-.13-.51-.14v.02c-.12,0-.23,0-.34.02-.1.02-.2.05-.3.08-.18.07-.36.18-.54.34-.18.17-.35.39-.5.69-.24.66-.5,1.32-.77,1.98-.27.66-.53,1.32-.78,1.98-.27.1-.49.25-.68.45-.19.2-.33.43-.44.69-.11.26-.18.52-.21.8-.03.28-.04.55,0,.81.05.4.18.77.41,1.09.23.32.51.59.86.81.35.22.74.38,1.18.49.44.1.89.14,1.36.11.29,0,.65-.06,1.09-.18.44-.12.86-.33,1.25-.62.39-.29.71-.69.96-1.17.25-.49.33-1.09.25-1.81-.06-.48-.21-.93-.47-1.35ZM436.3,101.75c-.05.31-.18.54-.37.72-.2.17-.44.28-.72.32-.28.03-.54,0-.78-.08-.24-.09-.41-.24-.52-.45.42.04.77-.05,1.05-.25.27-.21.46-.47.57-.77s.12-.62.05-.95c-.07-.33-.23-.59-.49-.8l.11-.33c.35.34.64.73.88,1.19.24.46.31.93.24,1.4Z"/>
    <path class="cls-6" d="M467.54,98.17c-.23-.31-.52-.57-.86-.79-.34-.22-.71-.38-1.12-.48-.36-.09-.73-.13-1.11-.11-.38.01-.74.08-1.09.2-.35.12-.68.29-.98.51-.3.22-.57.5-.8.83l-.88,1.32h0c-.28.09-.5.31-.66.66-.26.49-.58.86-.98,1.13-.4.27-.84.37-1.33.3-.03,0-.07,0-.11-.02-.04,0-.08-.02-.11-.03,0,.01,0-.04.01-.16.01-.12,0-.25,0-.41.12-.06.24-.17.38-.31.08-.09.18-.24.31-.46.13-.22.26-.46.38-.71.12-.25.24-.51.34-.76.1-.25.17-.46.2-.62.09-.41.08-.8-.03-1.16-.11-.36-.29-.69-.55-.97-.25-.28-.57-.52-.95-.7-.38-.19-.79-.31-1.22-.37-.38-.05-.76-.05-1.14,0-.38.05-.74.16-1.07.31s-.65.36-.92.61c-.28.26-.51.55-.69.9l-1.24,2.36c-.12.11-.22.24-.29.41-.37.9-.8,1.55-1.3,1.96-.5.41-.99.61-1.47.59-.3-.01-.53-.1-.69-.26-.16-.16-.24-.35-.23-.57,0-.14.03-.26.08-.36l1.76-4.32,1.07.05c.37.02.67-.07.9-.26.23-.19.37-.41.42-.66.05-.25,0-.47-.13-.68-.13-.21-.38-.32-.73-.34l-.74-.03,1.23-3.05c.11-.31.08-.59-.09-.84-.17-.24-.4-.41-.68-.49-.28-.08-.58-.07-.88.05-.31.12-.54.38-.69.79l-1.41,3.42-.69-.03c-.42-.02-.73.07-.94.26-.21.19-.33.41-.37.66-.04.25,0,.47.13.68.12.21.31.32.55.33l.54.02c-.14.35-.26.67-.39.96-.12.3-.24.59-.36.88-.12.29-.24.59-.36.88-.12.3-.25.62-.39.96v-.02c-.15.39-.23.75-.24,1.09-.02.42.05.79.21,1.13.16.34.38.63.66.87.28.24.61.43.98.57.38.14.78.22,1.21.24,1.01.04,1.93-.26,2.77-.89.08.13.17.25.28.37.26.27.57.5.94.68.36.18.75.29,1.17.35.64.09,1.25.04,1.83-.15.58-.19,1.08-.55,1.51-1.09.3.13.62.22.96.26.48.07.94.05,1.39-.06,0,0,0,0,0,0,.01.09,0,.19.03.28.09.37.25.71.48,1s.52.55.86.76c.34.21.72.36,1.12.47.36.09.73.13,1.11.12s.74-.07,1.08-.17c.34-.11.66-.26.95-.47.29-.21.54-.46.75-.77.36-.54.74-1.1,1.13-1.67.39-.57.77-1.12,1.12-1.66.25-.38.42-.74.51-1.1.1-.42.11-.81.02-1.19-.09-.38-.25-.72-.48-1.03ZM456.61,98.37c-.11.22-.2.42-.28.59-.03.07-.06.14-.09.2-.03.06-.06.12-.08.19-.23-.05-.44-.06-.65-.01-.21.04-.41.13-.58.25-.18.13-.33.29-.45.49s-.2.42-.23.66c-.03.28,0,.52.1.7s.21.35.35.5c-.01,0-.02.02-.02.03-.15.27-.34.47-.58.59-.24.13-.48.18-.72.14-.27-.04-.45-.13-.55-.27s-.14-.3-.13-.48c0-.18.03-.35.09-.51.06-.16.12-.29.16-.39.17-.35.4-.81.7-1.36s.69-1.23,1.16-2.03c.12-.26.3-.45.54-.57.23-.12.47-.16.72-.13.25.03.44.14.57.3.13.17.19.34.16.53-.02.15-.09.34-.19.56ZM465.7,99.72c-.03.12-.08.22-.14.3l-2.32,3.5c-.2.29-.43.49-.69.6-.26.11-.51.14-.76.07-.21-.05-.38-.17-.48-.35-.11-.18-.14-.38-.08-.61.01-.05.03-.11.06-.18.03-.07.07-.13.12-.2l2.29-3.44c.2-.29.42-.48.66-.57.25-.09.48-.11.7-.05.25.06.43.18.54.36.12.18.15.37.1.57Z"/>
    <path class="cls-6" d="M498.47,126.27c-.01.14-.03.27-.02.41.02.37.11.74.28,1.1.17.36.39.71.68,1.03.71.79,1.62,1.25,2.73,1.38,1.1.13,2.32-.08,3.65-.64.29-.12.45-.31.5-.55.04-.24,0-.47-.12-.68-.12-.22-.31-.39-.57-.51-.26-.12-.55-.12-.86,0-.9.36-1.67.51-2.31.45-.64-.07-1.12-.28-1.45-.64-.2-.22-.3-.45-.3-.68,0-.23.08-.42.25-.56.11-.1.21-.16.31-.19l4.32-1.77.72.8c.25.28.52.43.82.46.3.03.55-.03.76-.16.21-.14.34-.33.4-.57.06-.24-.03-.49-.27-.76l-.49-.55,3.03-1.26c.3-.14.48-.35.54-.65.05-.29.01-.57-.12-.83-.14-.26-.36-.46-.66-.6s-.65-.11-1.05.07l-3.42,1.39-.46-.51c-.28-.31-.56-.47-.84-.48-.28-.01-.53.06-.73.2-.2.15-.34.33-.4.57-.06.23-.01.44.15.62l.36.4c-.34.15-.66.28-.96.4-.3.12-.59.24-.88.36-.1.04-.2.08-.3.13-.17-.01-.35.01-.53.12-.39.19-.77.35-1.13.47-.37.12-.7.21-1.01.27-.31.05-.58.07-.81.04-.23-.02-.42-.1-.54-.22-.09-.08-.12-.17-.11-.27.02-.1.07-.19.15-.28.08-.09.18-.16.3-.22l2.56-1.31c.15-.08.29-.17.41-.26.12-.09.23-.19.33-.29.27-.29.42-.61.46-.96.04-.35,0-.7-.08-1.06-.09-.35-.21-.69-.36-1.01-.15-.32-.29-.58-.42-.79.21-.12.38-.27.49-.46s.18-.39.2-.61c.02-.21,0-.43-.08-.64s-.19-.39-.35-.54c-.25-.23-.53-.37-.83-.4-.31-.03-.6.03-.86.19-.12.05-.24.12-.36.2-.12.08-.22.17-.3.26-.3.32-.47.7-.5,1.14l-1.78.89c-.2.02-.41.08-.62.24-.46.3-.93.47-1.41.5-.48.04-.91-.09-1.31-.39-.03-.02-.06-.04-.09-.07-.03-.03-.06-.05-.08-.08,0,0,.02-.03.09-.13.06-.1.13-.21.2-.36.13,0,.29-.02.48-.09.11-.04.28-.12.5-.25.22-.13.45-.27.68-.43.23-.16.46-.33.67-.5.21-.17.37-.32.48-.44.28-.31.46-.66.54-1.03.08-.37.08-.74,0-1.12s-.24-.73-.48-1.08c-.24-.35-.53-.65-.88-.92-.31-.23-.64-.42-.99-.56-.36-.14-.72-.23-1.09-.26-.37-.03-.74,0-1.11.08-.37.09-.72.23-1.04.44l-3.29,2.12c-.16.11-.3.23-.44.35-.29.15-.56.27-.81.34-.6.16-1.06.14-1.38-.05-.13-.08-.22-.18-.25-.3-.04-.12-.03-.23.04-.33.04-.07.09-.12.15-.16l3.12-2.59c.24-.21.44-.44.58-.69.17-.28.27-.58.32-.89.04-.31.02-.61-.05-.89s-.21-.56-.4-.81c-.19-.25-.42-.46-.71-.63-.32-.19-.66-.31-1.02-.36l2.1-1.78c.28-.21.46-.43.57-.66.1-.23.14-.45.11-.65-.03-.2-.11-.38-.25-.53-.14-.15-.31-.26-.52-.31-.21-.06-.45-.05-.71.03-.26.07-.53.23-.8.48l-7.2,5.94c-.54.35-1.11.57-1.72.63.07-.09.12-.18.18-.26.05-.09.1-.18.15-.28.2-.44.3-.91.29-1.4,0-.49-.03-.96-.08-1.41-.03-.33-.06-.65-.07-.96-.02-.31.01-.59.09-.83.24.01.46-.04.66-.15.2-.11.37-.27.51-.46.09-.15.16-.32.19-.49.03-.18.03-.35,0-.52-.03-.17-.1-.33-.2-.48-.1-.15-.22-.28-.37-.39v.02c-.11-.07-.21-.12-.31-.16-.1-.03-.2-.06-.3-.08-.19-.04-.4-.03-.64.02-.24.05-.5.16-.78.33-.55.44-1.11.87-1.68,1.3-.57.43-1.13.86-1.69,1.29-.28-.05-.55-.04-.81.04-.27.08-.51.2-.74.36-.23.16-.43.36-.6.58-.17.22-.32.45-.42.69-.17.37-.24.75-.21,1.14.03.39.13.77.31,1.14s.43.71.76,1.02c.32.31.69.58,1.11.8.12.05.27.12.44.18.17.07.33.12.46.15.81.32,1.57.55,2.28.68.34.06.66.1.99.11.02.22.08.42.21.58.19.23.45.36.78.4.33.04.69-.09,1.05-.38l4.54-3.76c.31-.18.64-.3.96-.35.33-.05.6,0,.82.12.14.08.23.2.27.34.04.14.01.28-.06.41-.06.09-.13.17-.21.22l-2.75,2.29h0c-.32.26-.56.54-.73.82-.2.33-.31.66-.33,1-.02.33.03.65.14.95.12.3.29.57.52.83.23.25.49.47.79.65.34.2.72.35,1.15.44.37.08.79.08,1.23.03.01.1.02.2.04.31.09.37.25.72.48,1.05.23.33.51.63.84.88.52.39,1.07.65,1.67.77.6.12,1.21.05,1.85-.21.2.26.44.5.71.7.38.29.8.5,1.24.63.44.13.89.19,1.34.18.45-.01.89-.09,1.32-.24.03,0,.05-.02.08-.03.14-.02.27-.06.41-.14l2.36-1.17c.07.12.14.25.22.38.08.13.13.27.15.4.02.14,0,.27-.04.39s-.17.24-.35.34l-1.9.97c-.36.19-.65.4-.87.63-.25.26-.42.55-.52.85-.1.3-.14.6-.11.91.03.31.12.6.26.89.14.29.34.55.59.78.58.54,1.34.83,2.25.87ZM476.28,108.34c-.2.23-.43.37-.69.42-.26.05-.52.02-.78-.09-.26-.12-.47-.28-.63-.48-.16-.2-.23-.42-.22-.65.34.25.69.36,1.03.32.34-.04.64-.16.88-.37.25-.21.42-.47.53-.79.11-.32.11-.63,0-.94l.27-.22c.12.47.17.96.13,1.47-.04.52-.21.96-.52,1.32ZM492.48,114.89c-.21-.07-.42-.09-.63-.07-.22.02-.43.09-.63.2-.2.11-.38.27-.53.46-.16.23-.25.45-.25.66,0,.2.02.41.06.6-.02,0-.03,0-.03.02-.26.16-.53.24-.8.23-.27,0-.5-.08-.7-.23-.22-.17-.33-.33-.34-.5-.01-.17.03-.33.12-.48s.2-.29.33-.4c.13-.11.24-.2.33-.26.32-.22.75-.5,1.28-.84.53-.33,1.2-.73,2.01-1.2.24-.17.48-.24.75-.23.26.01.49.09.69.25.2.15.32.33.35.55.03.21,0,.39-.12.54-.09.12-.24.25-.45.4-.2.14-.38.27-.53.37-.06.05-.12.09-.18.13-.06.04-.11.08-.16.13-.17-.16-.36-.27-.56-.33Z"/>
    <path class="cls-6" d="M511.53,132.16c-.36.09-.7.18-1.01.25-.31.07-.62.15-.93.23s-.61.15-.93.23-.65.16-1.01.25h.01c-.4.1-.75.25-1.03.43-.35.23-.61.51-.79.83-.18.33-.29.67-.32,1.04s0,.75.11,1.13c.11.39.28.76.52,1.12.56.86,1.36,1.43,2.37,1.73-.07.17-.12.35-.15.54-.06.37-.06.75.02,1.15.08.4.21.78.41,1.15.18.33.4.63.65.9.26.27.54.5.85.68.31.18.64.31.98.39.35.08.71.09,1.08.04.65-.1,1.31-.19,2-.29.69-.09,1.35-.19,1.98-.28.45-.07.83-.19,1.15-.36.38-.2.68-.46.9-.78.22-.32.37-.67.44-1.04.07-.38.08-.76,0-1.17-.07-.4-.2-.79-.4-1.15-.18-.33-.4-.63-.66-.9-.26-.27-.56-.5-.88-.68s-.67-.31-1.04-.38c-.37-.07-.76-.09-1.15-.04l-2.47.37c-.2-.08-.42-.12-.68-.06-.94.22-1.73.26-2.35.1-.62-.16-1.07-.44-1.34-.85-.16-.25-.23-.49-.19-.71.04-.23.15-.4.33-.52.12-.08.23-.13.34-.14l4.54-1.1.59.9c.21.31.45.5.74.58.29.07.55.06.78-.05.23-.1.39-.27.48-.5.09-.23.04-.49-.15-.79l-.41-.62,3.19-.79c.32-.09.53-.28.63-.56.1-.28.1-.56,0-.84-.1-.28-.28-.51-.56-.69s-.62-.21-1.05-.09l-3.59.86-.38-.57c-.23-.35-.48-.55-.76-.6s-.53-.02-.75.09c-.22.11-.38.28-.48.5-.1.22-.08.43.05.64l.3.45ZM510.45,140.69c.06-.2.19-.36.39-.47.05-.03.11-.05.17-.08.07-.02.14-.04.23-.05l4.08-.62c.35-.05.64-.01.87.1s.4.28.51.48c.12.22.15.44.1.64s-.17.36-.35.45c-.11.06-.21.09-.32.1l-4.15.64c-.35.05-.65.01-.91-.1-.26-.12-.45-.29-.57-.51-.1-.19-.13-.39-.07-.59Z"/>
    <path class="cls-6" d="M518.17,150.39c-.24-.14-.49-.24-.76-.3-.27-.06-.55-.08-.83-.05-.28.02-.55.07-.8.15-.39.12-.72.33-.99.61-.27.28-.48.62-.63,1-.15.38-.23.8-.25,1.25-.02.45.04.9.16,1.36.04.13.09.28.16.45.07.17.13.32.19.44.31.81.65,1.53,1.03,2.14.16.26.35.5.53.73-.15.23-.21.48-.17.77.04.31.17.59.39.86.22.27.52.42.9.46l3.2.46c-.14.21-.22.4-.24.59-.02.18-.02.35.02.5.04.15.09.28.16.4.07.12.12.2.17.26.03.05-.02.06-.14.04-.13-.02-.24-.04-.33-.06-.47-.07-.92-.07-1.33.02-.62.13-1.09.42-1.4.89-.31.47-.38,1.1-.22,1.89.11.55.31,1.04.6,1.46.16.23.34.44.55.63-.05.07-.11.13-.16.2-.18.28-.3.59-.37.94-.07.35-.08.71-.04,1.09.02.16.06.32.1.48l-2.45-.79c-.3-.1-.56-.12-.77-.07-.21.06-.38.16-.51.31-.13.15-.21.33-.26.54-.04.21-.04.42.02.63.06.21.16.4.31.57.15.17.34.29.59.36.28.09.58.19.91.3.33.11.66.21,1.01.32.34.11.68.21,1.01.31.33.1.63.2.91.29-.16.22-.28.47-.37.74s-.13.56-.12.89c-.02.21-.03.42-.03.64,0,.21,0,.42,0,.62.02.8.13,1.55.33,2.23.2.69.48,1.31.86,1.86.38.55.86,1.04,1.44,1.45.58.41,1.26.74,2.05,1,.23.07.44.08.61.03.17-.05.31-.14.41-.27s.17-.28.2-.46c.03-.18.02-.35-.03-.52-.06-.17-.16-.33-.3-.48-.15-.15-.34-.26-.59-.33-.69-.24-1.26-.59-1.7-1.03-.45-.44-.78-.95-1.01-1.51.09.04.16.07.2.08.04.02.09.03.15.05.63.21,1.29.43,1.96.64.67.22,1.33.43,1.97.64.28.09.56.13.86.12.33,0,.64-.08.94-.22.3-.13.55-.32.77-.54.21-.23.38-.49.5-.78.12-.3.18-.6.17-.92,0-.22-.04-.45-.09-.69-.05-.24-.16-.45-.32-.63.12,0,.23-.04.33-.14.1-.1.18-.23.25-.39.06-.16.09-.33.09-.53,0-.2-.03-.39-.1-.57-.07-.18-.18-.34-.33-.49-.15-.14-.35-.25-.59-.3l-3.83-1.23c-.13-.12-.29-.22-.49-.27-.56-.13-1.03-.28-1.4-.44-.38-.16-.69-.33-.93-.5s-.42-.34-.53-.52c-.11-.18-.18-.34-.2-.51-.02-.19.02-.34.11-.47.1-.13.22-.2.37-.22.08,0,.17,0,.27.02l5.35,1.21c.49.09.86.03,1.13-.16.27-.2.42-.44.46-.73.03-.29-.06-.58-.27-.87-.21-.29-.55-.49-1.01-.59-.4-.09-.82-.18-1.27-.28-.45-.1-.9-.2-1.35-.3-.45-.1-.9-.2-1.34-.3-.44-.1-.86-.19-1.26-.28-.04,0-.08,0-.12-.02-.27-.09-.52-.19-.73-.31-.53-.3-.83-.65-.91-1.06-.04-.21.02-.32.2-.36.13-.03.28-.03.46,0l.75.08h-.02c.24.02.48,0,.7-.04.19-.04.37-.1.53-.18.16-.08.28-.19.38-.34.18.2.39.38.64.53.25.16.55.26.9.31.32.05.63.04.91-.02.31-.06.6-.18.86-.36.26-.18.48-.39.65-.65s.3-.54.37-.86c.07-.32.07-.65,0-1.01-.03-.15-.07-.29-.11-.41-.04-.13-.11-.26-.19-.4l2.69.4c.34.06.62.04.85-.05.23-.09.4-.22.53-.39.12-.17.19-.37.21-.59.02-.22-.03-.43-.13-.63-.1-.2-.26-.37-.47-.51-.21-.14-.49-.22-.82-.25l-8.37-1.17s-.06-.02-.1-.02c-1.02-.08-1.86-.42-2.52-1.01.11-.01.22-.03.31-.05.1-.02.2-.05.3-.08.46-.15.87-.39,1.23-.72.36-.33.69-.67.98-1.01.22-.24.44-.48.66-.7.22-.22.44-.38.67-.49.15.18.34.31.56.38.22.07.45.1.68.07.17-.03.34-.1.49-.19.15-.1.28-.21.38-.35s.18-.29.22-.47c.05-.18.06-.35.04-.53h-.02c-.02-.12-.04-.23-.09-.32-.04-.1-.09-.19-.14-.28-.1-.16-.25-.32-.44-.46-.2-.15-.45-.26-.77-.36-.69-.11-1.39-.24-2.09-.37-.7-.13-1.4-.26-2.1-.38-.15-.24-.34-.43-.57-.58ZM520.39,173.79c.18-.16.44-.19.8-.09l3.28,1.04-.02-.03c.29.13.52.31.68.54.16.23.24.45.23.69-.02.25-.13.43-.34.54-.21.11-.48.11-.8,0-.33-.09-.63-.17-.88-.25-.26-.08-.5-.16-.75-.23-.24-.08-.49-.16-.75-.24-.26-.09-.54-.18-.87-.28-.26-.08-.45-.22-.6-.42-.14-.2-.22-.41-.24-.63,0-.26.08-.48.25-.63ZM523.11,161.11c.32.09.58.23.79.43.2.19.33.41.38.65.04.2.02.38-.05.54-.08.16-.2.25-.39.29-.11.02-.21.02-.32,0-.2-.04-.38-.12-.54-.25s-.29-.29-.38-.47c0-.28-.04-.54-.11-.77-.07-.23-.16-.41-.26-.54l.88.12ZM519.19,153.16l.34.05c-.26.41-.6.77-1,1.09-.41.32-.85.49-1.33.5-.31,0-.57-.07-.77-.23s-.36-.37-.46-.64c-.09-.27-.11-.53-.07-.78.04-.25.15-.45.34-.6.04.42.19.75.45.98.26.23.55.36.87.41.32.04.63,0,.94-.14.31-.13.54-.35.69-.64Z"/>
    <path class="cls-6" d="M531.08,168.92c-.29-.23-.62-.33-.99-.29-.38.04-.69.21-.92.5-.23.29-.33.62-.28,1,.04.37.21.67.5.9.29.23.63.33,1.01.28.37-.04.67-.21.9-.5.23-.29.32-.62.28-.99s-.21-.67-.49-.91Z"/>
    <path class="cls-6" d="M529.03,194.91l-3.54-1.92c.31-.21.57-.47.78-.78.21-.32.34-.66.4-1.04.04-.26.05-.53.02-.82-.03-.28-.1-.55-.22-.81-.11-.26-.27-.5-.47-.73s-.45-.42-.73-.58l-4.03-2.21c-.14-.08-.29-.15-.44-.2-.15-.05-.3-.09-.46-.12-.36-.06-.7-.04-1.02.04-.32.09-.61.23-.86.43-.25.2-.46.44-.62.73-.16.29-.28.61-.33.96-.06.37-.06.75.01,1.15s.22.79.44,1.16c-.33.2-.62.48-.85.83-.24.35-.39.74-.46,1.16-.07.4-.06.83.02,1.27s.26.9.55,1.36c.04.06.1.13.14.19-.19.1-.37.21-.54.34-.37.29-.7.66-.98,1.12-.28.46-.5.98-.66,1.56-.15.55-.23,1.13-.25,1.75-.01.61.08,1.22.26,1.83,0,.03.03.07.04.1-.13.05-.26.1-.39.17-.36.2-.68.47-.98.81-.3.34-.54.72-.74,1.15-.05.12-.1.27-.16.45-.06.18-.1.33-.13.46-.28.82-.46,1.6-.56,2.31-.09.69-.07,1.34.04,1.96-.13.04-.26.07-.39.13-.38.16-.73.4-1.06.7-.33.3-.62.66-.86,1.07-.06.12-.13.26-.21.43-.08.17-.14.32-.18.45-.36.79-.63,1.54-.8,2.24-.17.7-.23,1.38-.17,2.04.01.12.05.24.06.37-.23.03-.47.09-.7.17-.44.16-.87.42-1.28.77s-.78.78-1.11,1.28c-.31.48-.57,1.01-.77,1.59-.2.58-.3,1.19-.31,1.83-.01.64.09,1.29.3,1.96.2.62.54,1.24.99,1.85l1.18,2.01c-.12.07-.24.16-.37.24-.13.09-.26.15-.39.18-.13.03-.27.03-.39-.01-.13-.04-.25-.15-.36-.33l-1.11-1.83c-.22-.34-.45-.62-.7-.82-.28-.23-.57-.38-.88-.46-.31-.08-.61-.09-.91-.04-.3.05-.59.16-.87.32-.28.16-.53.38-.74.64-.5.62-.72,1.39-.71,2.3-.13,0-.27,0-.41.01-.37.05-.73.17-1.08.36-.35.19-.68.44-.98.75-.74.77-1.13,1.71-1.18,2.82-.05,1.11.25,2.31.91,3.6.15.28.34.43.58.46.24.03.47-.03.67-.16.21-.14.36-.34.47-.6.1-.27.08-.55-.06-.86-.43-.87-.63-1.63-.61-2.27.02-.65.2-1.14.53-1.49.21-.21.42-.33.65-.34.23-.02.42.05.58.21.1.1.18.2.22.3l2.08,4.18-.74.77c-.26.27-.39.55-.4.85,0,.3.07.55.22.75.15.2.35.32.6.36.25.04.49-.07.73-.32l.51-.53,1.48,2.93c.16.29.39.46.69.49.3.03.57-.03.82-.18s.43-.39.55-.7c.11-.31.07-.66-.14-1.04l-1.64-3.31.48-.49c.29-.3.43-.59.42-.88,0-.28-.09-.52-.25-.71-.16-.19-.36-.31-.59-.36-.24-.05-.44.02-.61.19l-.38.39c-.17-.33-.33-.64-.47-.93-.14-.29-.28-.57-.43-.85-.05-.1-.1-.21-.15-.31,0-.17-.04-.33-.16-.5-.22-.38-.4-.74-.55-1.1-.15-.36-.26-.68-.34-.98-.07-.3-.11-.57-.1-.8,0-.24.07-.42.18-.56.08-.09.16-.14.26-.13.1,0,.2.05.29.13.09.08.17.17.24.28l1.49,2.46c.09.15.19.28.29.39.1.11.2.22.31.31.31.25.64.38.99.39s.7-.04,1.05-.16c.35-.11.67-.26.98-.44.31-.18.56-.33.75-.47.13.21.29.36.49.45.2.1.4.15.62.15s.43-.04.63-.12c.21-.09.38-.22.52-.39.21-.27.33-.55.34-.86,0-.31-.07-.59-.25-.85-.06-.12-.14-.23-.23-.35-.09-.11-.19-.2-.28-.28-.34-.28-.73-.42-1.17-.42l-1.77-2.98c-.05-.07-.1-.13-.15-.19-.16-.28-.3-.56-.38-.85-.12-.43-.18-.85-.18-1.26,0-.41.07-.8.19-1.18.12-.37.28-.71.47-1,.33-.5.71-.83,1.12-.98.41-.15.78-.12,1.1.09.14.09.25.2.34.32l.19.28c-.26.12-.51.27-.74.47-.23.19-.44.43-.62.71-.21.31-.35.64-.45,1s-.13.71-.12,1.06.09.7.22,1.04c.13.34.32.66.57.96.23.25.46.46.68.61.33.22.68.36,1.04.42s.72.05,1.07-.04c.35-.09.7-.25,1.03-.5.33-.24.62-.56.88-.94.2-.3.35-.63.46-.99s.16-.72.15-1.1c0-.38-.08-.75-.21-1.12-.13-.37-.32-.73-.58-1.08l-1.82-2.36c-.13-.16-.27-.32-.41-.46,0,0-.01,0-.02-.02-.27-.51-.43-1.04-.46-1.6.09.07.17.13.25.19s.17.11.27.16c.43.22.89.35,1.38.37.49.02.96.02,1.41,0,.33-.01.65-.02.96-.02.31,0,.58.04.82.13-.02.24.02.46.12.67.1.21.25.39.43.53.15.1.31.17.48.21.18.04.35.05.52.03.17-.02.33-.08.49-.17.16-.09.29-.21.4-.35h-.01c.08-.1.13-.2.17-.3.04-.1.07-.2.1-.29.05-.19.05-.4.02-.64-.04-.24-.13-.51-.29-.8-.41-.57-.81-1.15-1.21-1.75-.37-.55-.74-1.09-1.11-1.63.05-.12.07-.26.08-.4,0-.17-.06-.33-.15-.47,0-.02,0-.05,0-.07-.06-.27-.17-.52-.32-.75-.15-.23-.33-.44-.54-.63-.11-.1-.23-.16-.35-.24-.13-.3-.24-.61-.29-.93.09.06.19.11.27.16s.18.09.29.13c.45.18.92.25,1.41.22.49-.03.96-.08,1.4-.16.33-.05.64-.09.95-.12.31-.03.59-.02.83.04,0,.24.06.45.19.65.12.2.29.36.48.48.16.08.32.14.5.16.18.02.35.01.52-.03.16-.04.32-.12.47-.22.15-.11.27-.24.37-.39h-.02c.06-.11.11-.21.14-.31.03-.1.05-.2.07-.3.03-.19.01-.4-.05-.64-.06-.24-.18-.49-.37-.77-.47-.53-.93-1.06-1.39-1.61-.41-.49-.83-.98-1.25-1.47.03-.16.05-.33.02-.51-.03-.18-.12-.32-.23-.45,0,0,0,0,0,0-.09-.26-.23-.5-.4-.72-.17-.22-.38-.41-.61-.57-.11-.08-.23-.13-.35-.19-.17-.29-.32-.59-.41-.9-.12-.39-.18-.78-.18-1.18,0-.39.05-.76.14-1.1.16-.58.42-1.01.77-1.28.35-.27.71-.35,1.08-.25.16.04.3.11.42.2l.27.21c-.21.19-.4.42-.56.67-.16.26-.29.54-.38.86-.1.36-.14.72-.12,1.09.02.36.09.71.21,1.04.12.33.3.64.53.93.23.29.51.53.84.74.29.17.57.3.84.37.38.11.75.13,1.12.08.36-.05.7-.18,1.01-.37.31-.19.59-.46.83-.79.24-.33.42-.72.55-1.17.1-.35.14-.71.14-1.08,0-.37-.07-.74-.19-1.09-.12-.35-.3-.69-.54-1.01-.24-.32-.53-.6-.89-.85l-1.55-1.07s0-.02-.01-.03c-.1-.16-.24-.28-.42-.36-.93-.53-1.57-1.04-1.94-1.52-.37-.48-.52-.91-.46-1.28.03-.16.1-.28.21-.35.11-.07.23-.1.36-.07.11.02.2.06.28.11l8.74,4.73c.28.15.54.22.78.21.24,0,.45-.06.62-.17.17-.11.31-.26.4-.44.09-.19.12-.39.1-.6-.03-.22-.12-.43-.28-.65-.16-.22-.4-.41-.73-.57ZM510.69,221.47c.14-.15.29-.27.45-.35l.64.83c.16.22.24.45.26.67s-.03.42-.13.57c-.13.19-.3.3-.51.33-.21.02-.42-.03-.61-.15-.12-.08-.22-.17-.29-.27-.15-.18-.23-.36-.23-.56,0-.2.03-.39.11-.57s.19-.35.33-.5ZM514.48,213.67l.21.28c-.47.1-.97.12-1.48.06-.51-.06-.94-.26-1.29-.59-.22-.22-.35-.45-.38-.71-.03-.26.01-.52.13-.78.13-.25.3-.45.51-.6s.43-.21.66-.18c-.27.33-.4.67-.38,1.01.02.34.12.64.32.9.19.26.45.45.76.57.31.13.62.14.94.04ZM516.93,206.15c.32.09.64.07.93-.06l.24.25c-.46.15-.95.22-1.46.21-.52,0-.96-.16-1.35-.45-.24-.19-.4-.41-.46-.67s-.04-.52.05-.79c.11-.27.25-.48.44-.65.19-.17.4-.25.64-.25-.23.36-.32.7-.27,1.04.05.34.19.63.41.86.22.23.49.4.82.49ZM520.86,199.15c.09-.19.19-.34.32-.47l.86.6c.22.16.37.35.45.56.08.21.1.41.05.59-.06.22-.19.38-.39.47-.2.09-.4.1-.63.04-.14-.04-.26-.1-.36-.17-.19-.12-.33-.28-.39-.46-.07-.18-.09-.38-.07-.58.02-.2.08-.39.16-.58ZM524.32,190.99c-.03.08-.05.12-.06.13,0,.01-.03.05-.08.12-.05.07-.14.13-.28.17-.14.04-.32.05-.55.02-.23-.03-.54-.15-.9-.34l-1.58-.86c-.28-.17-.5-.34-.66-.51-.16-.17-.27-.33-.33-.47-.07-.14-.1-.28-.1-.39,0-.12.01-.21.05-.28.05-.12.13-.21.23-.25s.21-.06.33-.06c.12,0,.23.03.34.07s.21.08.29.13l2.38,1.26c.33.19.56.36.69.52.13.16.22.31.25.43.03.13.03.23,0,.31Z"/>
    <path class="cls-6" d="M493.23,233.45c-.37-.03-.7.08-.99.33-.28.24-.44.55-.46.92-.03.37.08.7.33.98.25.29.56.45.93.47.37.02.69-.09.98-.33.29-.25.45-.56.48-.92.03-.36-.09-.69-.34-.98-.24-.28-.55-.44-.92-.47Z"/>
  </g>
  <g>
    <path class="cls-6" d="M166.96,254.87h-25.32c-.25,22.91-5.6,32.19-16.41,35v-35h-25.45v89.08h25.45v-34.74h.05c2.91-.23,5.6,1.55,6.53,4.32l10.22,30.42h27.87l-16.54-46.45c9.04-9.03,13.62-23.16,13.62-42.63Z"/>
    <path class="cls-6" d="M242.38,283.5c0-16.93-14-28.63-33.59-28.63h-32.46v89.08h25.45v-31.18c2.52,0,4.77,1.58,5.62,3.96l9.77,27.22h27.61l-14.38-37.41c7.51-5.22,11.96-13.36,11.96-23.03ZM209.73,292.41c-.37,0-.74-.03-1.1-.08-3.87-.54-6.85-3.86-6.85-7.88s3.01-7.38,6.91-7.88c.14-.02.29-.04.43-.05,3.87-.3,7.38,2.13,8.31,5.9,1.31,5.26-2.64,9.98-7.7,9.98Z"/>
    <path class="cls-6" d="M252,343.95h55.23v-24.18h-24.43c-2.95,0-5.35-2.39-5.35-5.35v1.02c0-2.95,2.39-6.62,5.35-6.62h20.61v-21.63h-20.61c-2.95,0-5.35-2.39-5.35-5.35s2.39-5.35,5.35-5.35h24.43v-21.63h-55.23v89.08Z"/>
    <path class="cls-6" d="M417.09,254.87h-39.59c-.06,0-.12.05-.13.11l-9.39,46.95c-.03.15-.24.15-.27,0l-9.39-46.95c-.01-.06-.07-.11-.13-.11h-40.6c-.07,0-.14.06-.14.14v88.81c0,.07.06.14.14.14h24.54c.07,0,.14-.06.14-.14v-29.87c0-4.75,6.81-5.53,7.88-.9l7.11,30.79c.01.06.07.1.13.1h20.02c.06,0,.12-.04.13-.11l6.89-30.74c1.05-4.7,7.98-3.94,7.98.88v29.83c0,.07.06.14.14.14h24.55c.07,0,.14-.06.14-.14v-88.81c0-.07-.06-.14-.14-.14Z"/>
    <path class="cls-6" d="M485.56,273.59c-2.52-10.95-12.27-18.71-23.51-18.71h0c-11.25,0-21.01,7.78-23.51,18.75l-16.08,70.33h27.24l2.42-14.13h19.72l2.67,14.13h27.24l-16.19-70.37ZM464.89,291.83c-.92.37-1.92.58-2.97.58s-2.14-.22-3.1-.62h0c-2.85-1.22-4.85-4.04-4.85-7.33,0-4.26,3.34-7.73,7.55-7.94.14-.01.27-.01.41-.01.05,0,.1,0,.15,0,4.32.08,7.8,3.6,7.8,7.95,0,3.34-2.06,6.2-4.98,7.38Z"/>
  </g>
  <g>
    <path class="cls-6" d="M106.01,407.72c-2.24,0-3.97.22-4.84.22-1.08,0-1.59-.58-1.59-1.37,0-2.46,3.25-.94,3.25-5.78v-37.26c0-4.84-3.25-3.25-3.25-5.7,0-.8.51-1.45,1.59-1.45.87,0,2.6.22,4.84.22,2.67,0,5.49-.22,8.01-.22,11.91,0,20.51,9.6,20.51,26.28,0,14.15-6.79,25.27-20.43,25.27-1.81,0-4.98-.22-8.09-.22ZM114.17,404.19c8.59,0,13.43-8.23,13.43-21.52,0-14.94-5.34-22.38-13.65-22.38h-.58c-2.45,0-4.19.36-4.19,3.47v36.9c0,2.17.43,3.54,4.19,3.54h.79Z"/>
    <path class="cls-6" d="M169.86,395.09c0,1.08-.36,2.45-1.37,5.34l-2.09,5.99c-.58,1.59-1.08,2.81-2.09,2.81-1.45,0-1.59-1.52-3.39-1.52h-16.03c-2.24,0-3.9.22-4.77.22-1.15,0-1.59-.58-1.59-1.37,0-2.46,3.18-.94,3.18-5.78v-37.26c0-4.84-3.18-3.25-3.18-5.7,0-.8.51-1.45,1.59-1.45.87,0,2.53.22,4.77.22h14.44c1.59,0,1.73-1.52,3.11-1.52,1.08,0,1.3.72,2.31,3.54l1.81,5.2c.94,2.53,1.45,3.97,1.45,4.84s-.72,1.37-1.37,1.37c-.79,0-1.23-.58-1.88-1.59-4.77-7.72-6.57-8.16-9.39-8.16h-3.61c-2.53,0-3.68.36-3.68,3.54v14.58c0,1.3.58,1.52,1.45,1.52h4.19c2.96,0,2.6-5.41,4.62-5.41.87,0,1.3.58,1.3,1.95,0,1.66-.14,3.46-.14,5.27s.14,3.75.14,5.34c0,1.44-.43,2.02-1.3,2.02-2.02,0-1.59-5.56-4.62-5.56h-4.19c-.87,0-1.45.29-1.45,1.59v15.45c0,2.38.29,3.54,3.68,3.54h5.13c3.97,0,6.28-2.96,9.68-8.66.72-1.16,1.3-1.73,2.09-1.73s1.23.58,1.23,1.37Z"/>
    <path class="cls-6" d="M177.02,406.42l-1.73-6.14c-1.3-4.55-1.52-5.56-1.52-6.28,0-.87.51-1.52,1.3-1.52.87,0,1.3.65,2.02,1.95,3.39,5.92,7.29,10.4,11.99,10.4,4.19,0,7.22-2.96,7.22-8.52,0-6.65-4.84-9.96-10.18-13.65-6.28-4.19-11.55-8.66-11.55-15.38s5.05-11.7,10.54-11.7c3.68,0,5.42,1.44,6.35,1.44.79,0,.94-1.66,2.24-1.66,1.23,0,1.66.94,2.24,2.67l1.73,4.33c1.37,3.39,1.88,4.84,1.88,5.78s-.65,1.37-1.37,1.37c-.65,0-1.01-.22-1.59-1.15-2.96-4.77-6.5-8.74-10.61-8.74-3.47,0-5.27,2.82-5.27,5.92,0,3.75,2.96,6.86,8.23,10.33,5.42,3.61,13.29,8.59,13.29,18.63,0,8.16-5.2,14.22-12.56,14.22-4.12,0-6.64-1.95-7.73-1.95-1.15,0-1.23,2.24-2.82,2.24-1.08,0-1.66-1.08-2.09-2.6Z"/>
    <path class="cls-6" d="M209.77,406.42l-1.73-6.14c-1.3-4.55-1.52-5.56-1.52-6.28,0-.87.51-1.52,1.3-1.52.87,0,1.3.65,2.02,1.95,3.39,5.92,7.29,10.4,11.99,10.4,4.19,0,7.22-2.96,7.22-8.52,0-6.65-4.84-9.96-10.18-13.65-6.28-4.19-11.55-8.66-11.55-15.38s5.05-11.7,10.54-11.7c3.68,0,5.42,1.44,6.35,1.44.79,0,.94-1.66,2.24-1.66,1.23,0,1.66.94,2.24,2.67l1.73,4.33c1.37,3.39,1.88,4.84,1.88,5.78s-.65,1.37-1.37,1.37c-.65,0-1.01-.22-1.59-1.15-2.96-4.77-6.5-8.74-10.61-8.74-3.47,0-5.27,2.82-5.27,5.92,0,3.75,2.96,6.86,8.23,10.33,5.41,3.61,13.28,8.59,13.28,18.63,0,8.16-5.2,14.22-12.56,14.22-4.12,0-6.64-1.95-7.73-1.95-1.15,0-1.23,2.24-2.82,2.24-1.08,0-1.66-1.08-2.09-2.6Z"/>
    <path class="cls-6" d="M269.69,395.09c0,1.08-.36,2.45-1.37,5.34l-2.09,5.99c-.58,1.59-1.08,2.81-2.09,2.81-1.45,0-1.59-1.52-3.39-1.52h-16.03c-2.24,0-3.9.22-4.77.22-1.15,0-1.59-.58-1.59-1.37,0-2.46,3.18-.94,3.18-5.78v-37.26c0-4.84-3.18-3.25-3.18-5.7,0-.8.51-1.45,1.59-1.45.87,0,2.53.22,4.77.22h14.44c1.59,0,1.73-1.52,3.11-1.52,1.08,0,1.3.72,2.31,3.54l1.81,5.2c.94,2.53,1.45,3.97,1.45,4.84s-.72,1.37-1.37,1.37c-.79,0-1.23-.58-1.88-1.59-4.77-7.72-6.57-8.16-9.39-8.16h-3.61c-2.53,0-3.68.36-3.68,3.54v14.58c0,1.3.58,1.52,1.45,1.52h4.19c2.96,0,2.6-5.41,4.62-5.41.87,0,1.3.58,1.3,1.95,0,1.66-.14,3.46-.14,5.27s.14,3.75.14,5.34c0,1.44-.43,2.02-1.3,2.02-2.02,0-1.59-5.56-4.62-5.56h-4.19c-.87,0-1.45.29-1.45,1.59v15.45c0,2.38.29,3.54,3.68,3.54h5.13c3.97,0,6.28-2.96,9.68-8.66.72-1.16,1.3-1.73,2.09-1.73s1.23.58,1.23,1.37Z"/>
    <path class="cls-6" d="M305.51,406.57c0,.87-.79,1.37-1.52,1.37-.94,0-3.03-.22-5.2-.22-2.02,0-3.9.22-5.2.22-1.01,0-1.66-.51-1.66-1.52,0-1.81,2.38-1.59,2.38-3.61,0-.58-.43-2.02-.72-2.89l-3.97-9.82c-.51-1.08-.87-1.45-1.66-1.37-1.81.07-3.68.07-4.62,0-.72-.07-1.3.22-1.3,1.45v10.61c0,4.84,3.25,3.32,3.25,5.85,0,.65-.51,1.3-1.44,1.3-1.15,0-2.67-.22-5.05-.22-2.24,0-3.75.22-4.91.22-1.01,0-1.44-.65-1.44-1.3,0-2.53,3.25-1.01,3.25-5.85v-37.26c0-4.84-3.25-3.18-3.25-5.63,0-.79.51-1.52,1.81-1.52.87,0,2.38.22,4.4.22,2.45,0,4.98-.36,7.44-.36,10.54,0,17.26,6.79,17.26,16.97,0,6.79-3.25,12.13-8.52,14.44l4.91,11.84c2.45,5.71,5.78,4.84,5.78,7.08ZM296.41,372.99c0-8.38-4.33-12.85-10.25-12.85-3.97,0-4.12,1.88-4.12,4.19v17.69c0,2.38.87,3.11,3.61,3.11,7.29,0,10.76-4.33,10.76-12.13Z"/>
    <path class="cls-6" d="M317.87,406.57c0-2.96,3.75-1.01,3.75-5.85v-37.55c0-1.59-.22-2.89-2.17-2.89h-.94c-2.82,0-4.55,1.66-8.16,8.16-.58,1.01-1.08,1.52-1.88,1.52s-1.37-.58-1.37-1.45c0-.94.29-1.95,1.08-4.69l1.52-5.2c.65-2.38,1.01-3.47,2.17-3.47,1.44,0,1.59,1.45,3.18,1.45h19.5c1.59,0,1.73-1.45,3.11-1.45,1.23,0,1.59,1.08,2.24,3.47l1.52,5.2c.79,2.74,1.08,3.82,1.08,4.69s-.58,1.45-1.37,1.45-1.23-.51-1.88-1.52c-3.68-6.35-5.27-8.16-8.16-8.16h-1.01c-1.88,0-2.09,1.23-2.09,2.89v37.55c0,4.84,3.68,2.89,3.68,5.85,0,.72-.58,1.37-1.52,1.37-1.37,0-2.89-.22-5.34-.22s-4.04.22-5.34.22c-1.01,0-1.59-.65-1.59-1.37Z"/>
    <path class="cls-6" d="M395.63,406.64c0,.65-.51,1.3-1.44,1.3-1.16,0-2.67-.22-4.98-.22s-3.68.22-4.91.22c-1.01,0-1.44-.65-1.44-1.3,0-2.53,3.25-1.01,3.25-5.85v-15.67c0-1.3-.65-1.59-1.52-1.59h-14.37c-.94,0-1.52.29-1.52,1.59v15.67c0,4.84,3.25,3.32,3.25,5.85,0,.65-.51,1.3-1.52,1.3-1.08,0-2.6-.22-4.91-.22s-3.76.22-4.91.22c-1.01,0-1.44-.65-1.44-1.3,0-2.53,3.18-1.01,3.18-5.85v-37.26c0-4.84-3.18-3.25-3.18-5.7,0-.8.51-1.45,1.52-1.45,1.23,0,2.6.22,4.84.22s3.83-.22,4.91-.22c.94,0,1.52.65,1.52,1.37,0,2.53-3.25.94-3.25,5.78v14.8c0,1.37.58,1.59,1.52,1.59h14.37c.87,0,1.52-.21,1.52-1.59v-14.8c0-4.84-3.25-3.25-3.25-5.78,0-.65.51-1.37,1.44-1.37,1.23,0,2.67.22,4.91.22s3.83-.22,4.98-.22c.94,0,1.44.65,1.44,1.37,0,2.53-3.18.94-3.18,5.78v37.26c0,4.84,3.18,3.32,3.18,5.85Z"/>
    <path class="cls-6" d="M436.4,406.49c0,.87-.65,1.45-1.59,1.45-.79,0-2.09-.22-4.41-.22s-4.33.22-5.78.22c-1.01,0-1.73-.51-1.73-1.52,0-1.81,3.25-1.59,3.25-3.97,0-.87-.14-1.3-.29-1.95l-2.31-9.67c-.36-1.3-.79-1.52-1.59-1.52h-10.25c-.79,0-1.3.14-1.66,1.52l-2.31,9.53c-.22.65-.36,1.37-.36,2.02,0,2.46,3.32,2.31,3.32,4.05,0,1.01-.72,1.52-1.81,1.52-1.37,0-3.03-.22-4.55-.22-1.66,0-2.74.22-3.83.22-.65,0-1.23-.43-1.23-1.3,0-2.17,2.67-1.15,3.9-5.85l7.58-29.46c.79-3.32,1.81-6.79,2.89-11.7.51-2.6.87-3.47,4.41-3.47s3.68.94,4.26,3.39c1.08,4.91,2.09,8.67,2.89,11.77l7.44,29.24c1.16,4.77,3.75,3.75,3.75,5.92ZM421.89,384.4l-5.05-20.43-5.13,20.58c-.22.94.07,1.08.94,1.08h8.3c.87,0,1.23-.14.94-1.23Z"/>
    <path class="cls-6" d="M439.32,394.22c0-.87.07-2.67.15-3.97l1.23-24.26c.07-1.01.15-2.24.15-3.03,0-2.31-1.01-2.89-1.95-3.4-.65-.36-1.23-.79-1.23-1.8,0-.72.51-1.37,1.44-1.37,1.15,0,2.67.22,4.98.22s3.97-.22,5.27-.22c.94,0,1.37.72,1.37,1.37,0,1.15-.58,1.52-1.3,1.95-1.01.51-2.09,1.01-2.24,3.82l-1.23,26.65c-.07,1.23-.15,2.67-.15,3.75,0,7.29,3.25,10.32,8.74,10.32s9.03-2.81,9.03-10.25c0-.79-.15-3.03-.22-4.33l-1.37-26.14c-.14-2.67-1.37-3.18-2.38-3.75-.87-.43-1.66-.72-1.66-2.02,0-.65.65-1.37,1.66-1.37,1.23,0,2.96.22,4.19.22,1.16,0,2.89-.22,4.19-.22.94,0,1.37.65,1.37,1.37,0,1.01-.58,1.44-1.23,1.8-1.01.58-2.09,1.08-2.09,3.4,0,.79.07,2.02.14,3.03l1.37,24.33c.07,1.3.15,3.32.15,4.12,0,10.25-6.28,14.58-14.15,14.58s-14.22-4.33-14.22-14.8Z"/>
    <path class="cls-6" d="M476.55,406.42l-1.73-6.14c-1.3-4.55-1.52-5.56-1.52-6.28,0-.87.51-1.52,1.3-1.52.87,0,1.3.65,2.02,1.95,3.39,5.92,7.29,10.4,11.99,10.4,4.19,0,7.22-2.96,7.22-8.52,0-6.65-4.84-9.96-10.18-13.65-6.28-4.19-11.55-8.66-11.55-15.38s5.05-11.7,10.54-11.7c3.68,0,5.42,1.44,6.35,1.44.79,0,.94-1.66,2.24-1.66,1.23,0,1.66.94,2.24,2.67l1.73,4.33c1.37,3.39,1.88,4.84,1.88,5.78s-.65,1.37-1.37,1.37c-.65,0-1.01-.22-1.59-1.15-2.96-4.77-6.5-8.74-10.61-8.74-3.47,0-5.27,2.82-5.27,5.92,0,3.75,2.96,6.86,8.23,10.33,5.42,3.61,13.29,8.59,13.29,18.63,0,8.16-5.2,14.22-12.56,14.22-4.12,0-6.64-1.95-7.73-1.95-1.15,0-1.23,2.24-2.82,2.24-1.08,0-1.66-1.08-2.09-2.6Z"/>
  </g>
  <g>
    <g>
      <path class="cls-5" d="M499.92,163c1.31,1.66,1.96,3.74,1.78,5.84-.22,2.58-.44,5.16-.66,7.75-.99-1.27-2.29-2.73-3.94-4.2-1.15-1.02-2.27-1.86-3.31-2.57-.79-.54-1.18-1.49-1.02-2.43l1.66-9.57c.66.47,1.39,1.02,2.15,1.68.81.71,1.66,1.54,2.49,2.49.3.34.58.68.84,1.02Z"/>
      <path class="cls-5" d="M501.04,176.59h0c-.67.98-2.21,1.39-3.27,1.23-.15-.03-.3-.06-.42-.11-1.83-.66-3.7-2.95-5.11-4.24-.82-.76-1.56-1.61-2.21-2.53-.66-.93-.92-2.08-.73-3.2l1.41-8.14c.18-1.02,1-1.83,2.03-1.96,0,0,.01,0,.02,0,.47-.05,1.27-.17,1.66.19l-1.66,9.57c-.16.94.23,1.9,1.02,2.43,1.04.71,2.16,1.55,3.31,2.57,1.66,1.47,2.95,2.93,3.94,4.2Z"/>
      <path class="cls-5" d="M500.15,180.04h0c-1.12,1.15-2.56,2.47-4.37,3.76-1.25.89-2.45,1.61-3.56,2.2-.84.45-1.34,1.36-1.28,2.31l.64,9.69c-.23.18-.58.2-.92.16-.27-.03-.54-.1-.75-.15,0,0-.01,0-.02,0-1.02-.24-1.74-1.13-1.81-2.17l-.54-8.24c-.08-1.13.31-2.25,1.06-3.1.75-.84,1.57-1.62,2.47-2.29,1.54-1.14,3.65-3.21,5.53-3.68.31-.08.68-.08,1.07-.02.95.14,2.02.69,2.48,1.53Z"/>
      <path class="cls-5" d="M500.14,180.04c-.05,2.59-.11,5.18-.17,7.77-.04,2.12-.91,4.11-2.38,5.62-.3.3-.62.61-.95.92-1.81,1.67-3.6,2.84-5.06,3.65l-.64-9.69c-.06-.95.43-1.87,1.28-2.31,1.11-.59,2.31-1.31,3.56-2.2,1.81-1.28,3.25-2.6,4.37-3.76Z"/>
      <path class="cls-3" d="M497.78,177.82l-.11.69c-.39-.06-.76-.05-1.07.02-1.88.47-3.99,2.54-5.53,3.68-.9.67-1.72,1.44-2.47,2.29-.75.85-1.13,1.97-1.06,3.1l.54,8.24c.07,1.04.8,1.93,1.81,2.17,0,0,.01,0,.02,0,.21.05.47.12.75.15v.58c-2.1,7.31-3.98,14.71-5.6,22.16-1.16,5.32-2.84,11.51-7.67,13.39-3.37,1.31-7.2-.1-10.06-2.4-2.48-1.99-4.42-4.51-5.91-7.36-4.56-8.76-4.78-20.69-2.82-30.25.73-.1,1.51-.27,2.31-.51,4.41-1.33,7.88-5.62,8.45-10.44.51-4.33-2.88-4.49-5.43-2.19-2.48,2.24-3.48,6.12-4.4,9.33-.35,1.22-.66,2.49-.93,3.8-11.3,1.6-14.42-12.34-12.92-24.15,4.23-1.39,7.55-5.93,9.25-10.02,2.04-4.94-2.36-6.3-5-2.68-2.09,2.88-3.61,7.59-4.25,12.7-.95.32-1.95.47-2.99.43-5.26-.23-10.35-4.66-12.6-9.51-1.52-3.27-1.92-7.31-1.39-11.22,4-.14,7.98-2.15,10.01-6.3,2.62-5.32-2.14-8.88-5.79-4.31-2.23,2.8-3.71,6.64-4.22,10.61-6.24.23-12.53-4.11-11.53-12.03.08-.61.21-1.21.38-1.78,2.03-6.76,10.36-10.59,16.16-12.01,9.18-2.25,18.87-2.17,28,.34,10.18,2.8,20.58,8.16,27.42,17.02,4.32,5.6,6.94,12.71,7.67,17.85l-.22.26c-.76-.66-1.49-1.22-2.15-1.68-.39-.36-1.19-.25-1.66-.19,0,0-.01,0-.02,0-1.03.13-1.85.94-2.03,1.96l-1.41,8.14c-.19,1.12.07,2.27.73,3.2.65.92,1.39,1.78,2.21,2.53,1.41,1.3,3.28,3.58,5.11,4.24.12.05.27.08.42.11Z"/>
      <path class="cls-2" d="M443.39,242.14c-.41.19-.82.35-1.22.49-1.68.58-3.52.39-5.05-.51-11.34-6.61-25.2-15.85-40.28-32.68-14.28-15.95-22.69-30.48-28.15-42.2-1.1-2.37-.68-5.17,1.07-7.11,2.23-2.47,4.49-4.64,6.81-6.56-3.06-1.64-5.82-9.12-6.48-11.72-2.14-8.48-5.6-16.52-10.07-24.02-2.02-3.4-8.6-13.88-4.66-17.53,3.44-3.18,7.4,5.23,8.67,6.5v.19c-.58.55-1.06,1.11-1.35,1.68-.65,1.24.16,3.48,1.83,2.01.3-.26.48-.62.52-1.01.13-1.08-.36-1.94-.93-2.73,1.98-1.81,5.19-3.35,7.2-3.85,3.52-.86,5.22,1.84,3.73,3.98-.37.53-.93,1.02-1.71,1.42-1.52.78-3.99.5-4.51,2.49-.72,2.77,2.91,4.22,4.83,2.76,1.06-.82,1.62-2.15,1.53-3.5-.08-1.06-.26-2.12.35-3.05.05-.08.1-.14.16-.22.9-1.1,2.51-1.24,3.72-.51,3.11,1.87,1.88,5.77.6,8.29-1.61,3.21-2.25,6.09-2.18,9.81.09,4.49,1.41,10.95,4.38,15.61,2.36,3.71,7.06,5.12,11.1,3.41,7.34-3.11,15.21-5.26,23.75-7.68l.49.14c-.18.57-.31,1.17-.38,1.78-1,7.92,5.29,12.26,11.53,12.03-.53,3.91-.12,7.95,1.39,11.22,2.25,4.85,7.33,9.28,12.6,9.51,1.04.05,2.03-.1,2.99-.43-1.5,11.81,1.62,25.75,12.92,24.15-1.96,9.57-1.74,21.5,2.82,30.25l-.52.16c-.79,2.02-3.32,5.58-6.6,9.04,3.18,5.73,12.07,7.68,17.86,7.97,2.04.1,4.22.25,5.83,1.5,4.26,3.33.15,7.58-3.69,7.77-.35.02-1.63.05-3.23-.01-1.26-2.96-6.61-6.19-8.25-3.83-2.05,2.97,4.15,3.69,8.25,3.83.76,1.77.04,3.45-3.86,3.75-4.35.33-8.85-.62-12.72-2.62-4.46-2.3-8.19-6.02-10.5-10.29l-.36.2c-.08.04-.17.08-.25.11ZM407.33,159.73c2.69-1.72,4.25-4.08,3.48-5.27-.76-1.19-3.56-.77-6.25.95-2.69,1.72-4.24,4.08-3.48,5.27.77,1.19,3.56.77,6.25-.95Z"/>
      <path class="cls-3" d="M463.93,181.16c2.55-2.3,5.94-2.14,5.43,2.19-.57,4.82-4.04,9.11-8.45,10.44-.8.24-1.59.41-2.31.51.27-1.32.58-2.59.93-3.8.92-3.21,1.92-7.09,4.4-9.33Z"/>
      <path class="cls-3" d="M449.93,157.45c2.64-3.62,7.04-2.27,5,2.68-1.7,4.09-5.02,8.63-9.25,10.02.65-5.11,2.16-9.82,4.25-12.7Z"/>
      <path class="cls-1" d="M365.45,160.18s0,0,0,0c.01,0,.02-.02.02-.03.04-.05.09-.11.15-.18.03-.04.07-.09.11-.13.65-.72,2.04-1.83,3.49-.19l.54.48c-1.75,1.94-2.17,4.74-1.07,7.11,5.46,11.72,13.87,26.25,28.15,42.2,15.07,16.83,28.94,26.07,40.28,32.68,1.53.9,3.38,1.09,5.05.51.41-.14.81-.3,1.22-.49-.01,3.29-2.41,5.79-5.08,7.45-11.11,6.87-25.18,5.76-37.59,4.76-10.06-.8-20.17-.81-30.25-.52-5.82.17-11.72.72-17.55.47-1.17-.05-2.15-.91-2.36-2.07-.16-.89-.3-1.89-.45-2.97-.21-1.7-.38-3.61-.46-5.71-.11-2.82-.47-6.83.16-10.34.49-2.73,1.59-5.16,3.91-6.44.62-.36,1.33-.62,2.13-.78,1.22-.25,2.35-.23,3.37,0,1.56.36,2.87,1.22,3.91,2.36,1.52,1.66,2.46,3.91,2.74,6.06.24,1.86-.08,3.74-.84,5.45-.27.6-.63,1.79-1.91,3.15-.7.76,3.82.18,4.61-.07,1.65-.52,3.13-1.57,4.15-2.96,1.7-2.29.47-3.52-1.17-5.35-.01-.01-4.55-5.09-4.55-5.09-.64-.71-1.26-1.44-1.85-2.18-1.87-2.33-3.52-4.75-4.92-7.26-1.72-3.04-3.09-6.2-4.13-9.43-5.67-17.48-1.58-36.77,10.18-50.5Z"/>
      <path class="cls-3" d="M432.93,139.23c3.65-4.57,8.41-1.01,5.79,4.31-2.03,4.15-6.01,6.16-10.01,6.3.52-3.97,1.99-7.82,4.22-10.61Z"/>
      <path d="M410.82,154.45c.77,1.19-.79,3.56-3.48,5.27-2.69,1.72-5.48,2.15-6.25.95-.76-1.19.8-3.56,3.48-5.27,2.69-1.72,5.49-2.15,6.25-.95Z"/>
      <path class="cls-1" d="M370.71,234.64c1.63,1.83,2.86,3.06,1.17,5.35-1.02,1.39-2.51,2.44-4.15,2.96-.79.25-5.31.82-4.61.07,1.28-1.37,1.63-2.55,1.91-3.15.76-1.7,1.08-3.58.84-5.45-.28-2.15-1.22-4.4-2.74-6.06l1.19-.98c.59.73,1.21,1.46,1.85,2.18,0,0,4.53,5.08,4.55,5.09Z"/>
      <path class="cls-1" d="M365.52,160.08s.06-.08.1-.11c-.06.07-.11.13-.15.18.01-.02.03-.04.05-.07Z"/>
      <path class="cls-4" d="M365.47,160.15s0,.02-.02.03c0-.01,0-.02.02-.03Z"/>
      <path class="cls-1" d="M364.32,227.37l-1.19.98c-1.04-1.14-2.35-2-3.91-2.36-1.02-.24-2.15-.26-3.37,0-.8.16-1.51.43-2.13.78l-.08-.14c-1.27-4.65-.52-11.64,1.63-15.95h0c1.04,3.23,2.41,6.39,4.13,9.43,1.4,2.51,3.04,4.93,4.92,7.26Z"/>
      <path class="cls-1" d="M349.65,243.55c.08,2.1.25,4.01.46,5.71-3.77-.54-7.08-2.09-7.93-6.15-1.14-5.48,3.28-8.99,7.62-9.89-.62,3.5-.27,7.51-.16,10.34Z"/>
    </g>
    <g>
      <path class="cls-6" d="M500.71,162.38c-.28-.35-.57-.71-.88-1.05-.65-.74-1.34-1.43-2.04-2.08,0-.05.02-.1,0-.16-.66-4.6-3.11-12.16-7.87-18.32-7.85-10.16-19.53-15.06-27.94-17.37-9.23-2.54-19.09-2.66-28.5-.35-6.54,1.6-14.17,5.55-16.58,11.87-.03,0-.07,0-.1,0l-1.66.47c-7.86,2.22-15.29,4.32-22.21,7.25-3.62,1.54-7.77.27-9.87-3.02-2.99-4.68-4.14-11.06-4.22-15.09-.07-3.57.53-6.27,2.07-9.33,2.25-4.45,1.91-7.86-.98-9.6-1.06-.63-2.29-.75-3.36-.39-.04-.59-.23-1.17-.58-1.68-.97-1.41-2.81-1.94-4.92-1.43-1.84.45-4.66,1.74-6.79,3.37-.18-.27-.39-.59-.6-.9-1.56-2.38-3.71-5.65-6.27-5.97-.97-.12-1.92.21-2.72.96-4.35,4.03,1.61,13.99,4.16,18.25l.32.53c4.56,7.65,7.91,15.64,9.96,23.76.45,1.77,2.74,8.68,5.84,11.53-1.8,1.56-3.57,3.27-5.26,5.1-.63-.6-1.32-.92-2.06-.92h0c-.8,0-1.47.35-1.99.76,0,0,0,0-.01,0-.12.06-.23.15-.32.25h0s-.12.14-.12.14c-.06.07-.12.14-.18.2,0,0,0,0,0,0-.04.05-.09.09-.12.14l-.02.03s-.04.04-.04.04c-.05.05-.09.1-.13.16,0,0,0,0,0,.01h0s-.03.05-.04.07c-11.96,14.03-15.93,33.52-10.42,50.99-2.05,4.38-2.75,11.07-1.67,15.74-1.79,1.26-2.96,3.26-3.58,6.06-2.79.73-5.23,2.36-6.61,4.46-1.24,1.89-1.64,4.12-1.15,6.45.77,3.69,3.48,5.96,8.01,6.8.11.82.23,1.6.35,2.3.29,1.64,1.65,2.83,3.3,2.9,4.01.17,8.09-.03,12.03-.23,1.87-.09,3.74-.19,5.6-.24,11.87-.34,21.45-.17,30.14.52,4.58.37,9.37.75,14.17.75,8.38,0,16.78-1.17,24.03-5.66,2.11-1.31,4.55-3.42,5.31-6.42,2.45,3.77,5.9,6.92,9.9,8.98,3.54,1.82,7.56,2.79,11.49,2.79.59,0,1.18-.02,1.76-.07,2.36-.18,3.92-.87,4.63-2.05.24-.39.45-.95.42-1.67.24,0,.48,0,.68,0,.65,0,1.13-.01,1.33-.03,2.77-.13,5.51-2.05,6.24-4.36.35-1.09.55-3.21-1.99-5.2-1.92-1.5-4.51-1.63-6.4-1.71-6.15-.31-13.6-2.28-16.66-6.86,2.5-2.72,4.59-5.52,5.71-7.6,1.5,2.54,3.31,4.71,5.44,6.42,2.54,2.04,5.34,3.12,7.94,3.12,1.08,0,2.13-.19,3.11-.57,5.25-2.04,7.03-8.36,8.29-14.11,1.6-7.35,3.48-14.76,5.58-22.04.1-.03.18-.09.27-.14.06-.02.12-.04.17-.07,1.89-1.05,3.66-2.32,5.26-3.8.34-.32.66-.63.98-.95,1.67-1.71,2.62-3.95,2.67-6.3.06-2.5.11-5,.17-7.5v-.27s0-.03,0-.04c0-.06-.01-.12-.02-.18-.01-.06-.03-.11-.05-.17-.01-.04-.01-.07-.03-.11-.23-.43-.56-.78-.93-1.07.7-.28,1.35-.72,1.78-1.34.02-.03.03-.07.04-.1.03-.05.05-.11.07-.16.02-.06.04-.12.04-.18,0-.01,0-.02,0-.04l.66-7.75c.2-2.35-.51-4.67-1.99-6.54ZM491.75,185.12c-1.19.63-1.9,1.91-1.81,3.26l.58,8.74c-.1-.02-.2-.04-.28-.06h-.06s-.04-.02-.06-.03h0c-.58-.14-1-.66-1.04-1.26l-.54-8.24c-.06-.86.24-1.73.81-2.37.73-.83,1.51-1.55,2.32-2.15.39-.29.82-.64,1.27-1.01,1.2-.98,2.7-2.21,3.9-2.5.18-.04.42-.04.68,0,.47.07.9.26,1.24.5-1.12,1.09-2.32,2.1-3.57,2.98-1.09.78-2.25,1.49-3.44,2.13ZM494.08,173.86c-.41-.41-.79-.8-1.15-1.13-.73-.67-1.43-1.47-2.07-2.38-.5-.7-.7-1.6-.56-2.45l1.41-8.14c.1-.6.58-1.07,1.17-1.14h0s.05,0,.08-.01c.07,0,.2-.02.33-.04l-1.5,8.65c-.23,1.33.33,2.68,1.44,3.43,1.13.76,2.21,1.6,3.21,2.49,1.16,1.03,2.23,2.17,3.21,3.37-.52.28-1.2.41-1.69.33-.08-.01-.17-.03-.26-.07-1.16-.42-2.53-1.8-3.62-2.91ZM499.14,163.62c1.17,1.47,1.72,3.29,1.57,5.13l-.45,5.34c-.78-.86-1.62-1.68-2.49-2.46-1.07-.94-2.21-1.84-3.41-2.65-.46-.31-.69-.87-.59-1.43l1.38-7.96c.27.21.53.43.79.65.83.73,1.64,1.53,2.4,2.4.29.32.56.65.81.98ZM363.57,109.1c.08-.17.2-.34.33-.52.12.31.17.62.13.96-.01.14-.08.27-.19.37-.13.12-.23.18-.29.21-.1-.19-.17-.66.02-1.01ZM355.21,213.52c.93,2.44,2.04,4.81,3.32,7.08,1.07,1.91,2.28,3.79,3.62,5.6-.84-.56-1.75-.96-2.71-1.18-1.2-.28-2.48-.29-3.8-.01-.45.09-.87.21-1.27.36-.7-3.54-.35-8.17.83-11.85ZM343.16,242.9c-.38-1.83-.09-3.49.87-4.94.97-1.48,2.63-2.68,4.58-3.36-.27,2.59-.14,5.29-.03,7.53.03.52.05,1.01.07,1.47.05,1.48.17,2.96.33,4.44-3.38-.75-5.25-2.39-5.82-5.13ZM437.78,248.74c-10.85,6.71-24.73,5.6-36.99,4.61-8.77-.7-18.41-.87-30.36-.52-1.87.06-3.75.15-5.64.24-3.9.19-7.93.4-11.85.23-.71-.03-1.29-.54-1.41-1.25-.16-.88-.3-1.86-.44-2.92-.23-1.86-.39-3.75-.45-5.62-.02-.47-.04-.97-.07-1.49-.13-2.59-.29-5.82.21-8.63.52-2.88,1.64-4.76,3.42-5.75.52-.3,1.14-.53,1.83-.67,1.03-.21,2.02-.21,2.94,0,1.28.3,2.42.99,3.4,2.06,1.31,1.43,2.22,3.45,2.49,5.52.21,1.63-.05,3.33-.75,4.9-.05.11-.1.23-.16.37-.25.6-.63,1.51-1.58,2.52-.38.41-.45.97-.17,1.41.86,1.37,5.76.17,5.81.15,1.85-.58,3.51-1.76,4.66-3.32,2.12-2.86.5-4.68-1.06-6.43l-.17-.19c-.11-.12-4.54-5.08-4.54-5.08-.63-.7-1.24-1.42-1.81-2.14-1.83-2.27-3.45-4.67-4.83-7.12-1.66-2.94-3.02-6.05-4.05-9.25-5.49-16.95-1.67-35.93,9.99-49.55,0,0,0,0,0,0,.01-.02.03-.03.04-.04,0-.01.02-.02.02-.03,0,0,0-.01.01-.02l.1-.12h-.01s.02-.04.03-.05c.02-.02.04-.02.06-.04,0,0,.01-.01.02-.02h0c.4-.45.82-.71,1.15-.71h0c.24,0,.5.15.78.44-1.49,2.17-1.76,4.98-.63,7.42,7.07,15.18,16.33,29.07,28.31,42.45,15.36,17.16,29.72,26.58,40.52,32.88,1.1.65,2.34.98,3.59.98.67,0,1.33-.11,1.98-.3-.65,2.31-2.66,4.01-4.39,5.09ZM366.85,234.29c-.17-1.26-.53-2.5-1.06-3.65,3.97,4.44,4.17,4.67,4.17,4.67,0,0,0,0,0,0l.17.18c1.63,1.82,2.05,2.42.94,3.91-.9,1.22-2.2,2.15-3.65,2.6-.39.12-1.55.28-2.52.36.47-.72.72-1.34.9-1.77.05-.11.09-.21.13-.31.86-1.92,1.17-3.99.92-5.98ZM454.54,232.02c-1.98-4.23-1.78-7.97.6-11.67.3-.46.17-1.08-.3-1.38-.46-.3-1.08-.17-1.38.3-3.02,4.69-3.03,9.59-.03,14.98,3.18,5.72,11.74,8.13,18.69,8.48,2.1.1,3.95.27,5.26,1.29,1.21.95,1.65,1.96,1.31,3.02-.48,1.51-2.51,2.87-4.44,2.96-.3.02-1.3.04-2.57,0-1.29-2.27-4.28-4.4-6.67-4.64-1.3-.13-2.37.3-3,1.22-.8,1.16-.63,2.08-.35,2.65.3.59,1.2,2.34,8.66,2.71.04.27.01.51-.1.7-.35.57-1.47.97-3.08,1.09-4.1.31-8.43-.58-12.18-2.51-4.23-2.19-7.81-5.69-10.08-9.88-2.58-4.74-3.14-9.73-1.59-14.06.19-.52-.08-1.09-.6-1.28s-1.09.08-1.28.6c-1.65,4.58-1.18,9.78,1.25,14.75-.26.11-.53.22-.82.32-1.4.48-2.94.33-4.22-.43-11.33-6.61-24.95-15.64-40.04-32.49-11.85-13.23-21-26.96-27.99-41.96-.93-2.01-.58-4.38.91-6.02,2.14-2.37,4.4-4.54,6.71-6.46.26-.21.39-.54.36-.87-.03-.33-.23-.62-.52-.78-2.61-1.4-5.3-8.4-5.98-11.09-2.1-8.31-5.52-16.48-10.18-24.29l-.32-.54c-1.9-3.17-7.67-12.82-4.52-15.75.49-.46.88-.47,1.12-.44,1.64.2,3.72,3.37,4.84,5.08.3.45.55.84.77,1.15-.44.47-.76.93-.98,1.37-.63,1.2-.37,2.83.57,3.57.3.24,1.39.91,2.8-.35.48-.43.79-1.01.85-1.64.13-1.04-.18-1.91-.61-2.66,1.85-1.44,4.45-2.66,6.12-3.07,1.28-.31,2.32-.08,2.8.61.36.52.31,1.2-.12,1.82-.3.42-.76.81-1.34,1.1-.38.19-.89.32-1.43.45-1.3.32-3.09.75-3.59,2.68-.4,1.53.16,2.97,1.49,3.85,1.5,1,3.57.98,4.92-.05,1.32-1.01,2.03-2.64,1.92-4.36l-.03-.4c-.08-.93-.11-1.53.23-2.04.03-.04.06-.08.1-.12.55-.67,1.59-.79,2.43-.29,2.38,1.44,1.44,4.59.23,6.98-1.68,3.34-2.36,6.41-2.28,10.28.09,4.3,1.33,11.1,4.54,16.13,2.62,4.12,7.81,5.71,12.34,3.79,6.81-2.88,14.17-4.96,21.97-7.17l.59-.17c-.03.18-.07.35-.09.53-.46,3.63.48,6.83,2.7,9.26,2.12,2.32,5.32,3.71,8.71,3.87-.35,3.9.19,7.65,1.59,10.66,2.23,4.82,7.57,9.84,13.46,10.09.14,0,.28,0,.42,0,.49,0,.98-.04,1.46-.12-.69,7.35.29,16.33,5.03,21.01,2,1.97,4.44,2.96,7.28,2.96.17,0,.35-.01.53-.02-1.91,10.55-.91,21.11,2.73,28.73-.05.07-.11.13-.14.22-.59,1.5-2.48,4.38-5.43,7.67ZM469.14,249.87c-3.99-.32-5.46-1.08-5.69-1.54-.08-.16.09-.46.21-.62.07-.1.27-.38.9-.38.08,0,.16,0,.25.01,1.36.14,3.15,1.24,4.33,2.52ZM374.17,110.3c.07,1.03-.37,2.04-1.14,2.63-.66.51-1.8.49-2.59-.03-.43-.28-.89-.81-.66-1.68.18-.7.79-.92,2.12-1.24.63-.15,1.28-.31,1.87-.61.11-.06.22-.11.32-.17.01.25.03.5.05.74l.03.37ZM484.08,220.7c-1.14,5.25-2.73,10.99-7.06,12.67-2.65,1.03-6.04.19-9.07-2.24-2.26-1.82-4.16-4.19-5.65-7.04-3.87-7.43-4.92-18.2-2.85-28.93.57-.1,1.15-.23,1.75-.41,4.77-1.43,8.54-6.07,9.15-11.28.34-2.92-.91-4.03-1.69-4.43-1.49-.77-3.61-.23-5.4,1.38-2.56,2.31-3.62,6.02-4.55,9.29l-.14.5c-.29,1-.55,2.07-.78,3.16-2.71.23-5-.55-6.81-2.33-3.66-3.61-5.34-11.48-4.36-20.18,4.35-1.74,7.61-6.42,9.25-10.35,1.27-3.09.32-4.98-.99-5.71-1.49-.84-3.95-.4-5.74,2.06-2.04,2.82-3.61,7.35-4.34,12.5-.67.17-1.36.24-2.05.21-5.09-.22-9.75-4.66-11.73-8.93-1.28-2.76-1.76-6.25-1.39-9.89,4.4-.43,8.1-2.9,10-6.77,1.7-3.45.63-6.18-1.08-7.27-1.61-1.02-4.21-.84-6.39,1.89-2.14,2.69-3.65,6.29-4.29,10.22-2.94-.09-5.69-1.26-7.5-3.23-1.82-1.98-2.57-4.63-2.19-7.67.07-.54.18-1.08.35-1.61,1.8-6,9.15-9.79,15.44-11.33,9.08-2.23,18.59-2.11,27.5.34,8.12,2.23,19.38,6.94,26.89,16.67,3.86,5,6.12,10.96,7.09,15.31-.14-.1-.27-.21-.42-.31,0,0-.02,0-.03-.01-.71-.54-1.68-.43-2.33-.36-.04,0-.07.01-.11.02-1.41.21-2.56,1.34-2.81,2.77l-1.42,8.14c-.24,1.38.09,2.81.9,3.95.72,1.02,1.51,1.92,2.35,2.69.34.31.7.68,1.08,1.07.89.9,1.85,1.87,2.88,2.58-1.35.57-2.67,1.64-3.86,2.61-.43.35-.83.68-1.2.95-.92.68-1.8,1.5-2.63,2.43-.92,1.05-1.4,2.44-1.3,3.83l.54,8.24c.1,1.45,1.12,2.69,2.5,3.05-2.07,7.18-3.92,14.49-5.49,21.74ZM459.9,193.03c.18-.78.38-1.53.59-2.26l.15-.51c.86-3.01,1.83-6.43,3.96-8.35.94-.85,1.89-1.21,2.56-1.21.23,0,.43.04.58.12.54.28.77,1.16.62,2.42-.52,4.44-3.71,8.39-7.74,9.6-.25.07-.49.14-.73.2ZM446.94,168.51c.74-4.36,2.09-8.11,3.81-10.47.81-1.11,1.81-1.64,2.55-1.64.22,0,.42.05.59.14.71.4.76,1.66.12,3.2-1.33,3.21-3.82,6.96-7.07,8.77ZM429.89,148.73c.63-3.41,1.99-6.59,3.82-8.88.89-1.12,1.91-1.72,2.8-1.72.34,0,.66.09.96.27.98.62,1.51,2.36.36,4.7-1.52,3.1-4.43,5.15-7.93,5.63ZM498.97,187.79c-.04,1.84-.78,3.6-2.09,4.94-.29.29-.6.6-.92.89-1.09,1-2.26,1.9-3.49,2.69l-.53-8.06c-.04-.57.26-1.11.75-1.37,1.28-.68,2.51-1.45,3.67-2.27.94-.67,1.86-1.4,2.74-2.18-.04,1.78-.08,3.57-.12,5.36Z"/>
      <path class="cls-6" d="M426.6,180.6c-2.54,1.54-5.96.81-7.63-1.64-1.67-2.46-1.14-5.82,1.2-7.65.44-.34.51-.97.17-1.4-.34-.43-.97-.51-1.4-.17-3.17,2.48-3.89,7.03-1.62,10.35,1.48,2.16,3.88,3.34,6.33,3.34,1.36,0,2.74-.36,3.99-1.12.47-.29.62-.9.34-1.37-.29-.47-.9-.62-1.37-.34Z"/>
      <path class="cls-6" d="M407.46,178.63c-2.64,1.47-5.96.63-7.57-1.91-1.59-2.5-.94-5.85,1.47-7.61.45-.33.54-.95.22-1.4-.33-.45-.95-.54-1.4-.22-3.26,2.38-4.13,6.9-1.98,10.29,1.45,2.3,3.93,3.57,6.49,3.57,1.27,0,2.56-.32,3.75-.98.48-.27.65-.88.38-1.36-.27-.48-.88-.65-1.36-.38Z"/>
    </g>
  </g>
</svg>