<?xml version="1.0" encoding="UTF-8"?>
<svg id="Layer_1" data-name="Layer 1" xmlns="http://www.w3.org/2000/svg" viewBox="0 0 629.99 498.32">
  <defs>
    <style>
      .cls-1 {
        fill: #76b3d0;
      }

      .cls-2 {
        fill: #7ab4d2;
        stroke: #fff;
        stroke-miterlimit: 10;
        stroke-width: .5px;
      }

      .cls-3 {
        fill: #feffe6;
      }

      .cls-4 {
        fill: #fcec60;
      }

      .cls-5 {
        fill: #f8f9e8;
      }

      .cls-6 {
        fill: #988ec5;
      }

      .cls-7 {
        fill: #101010;
      }
    </style>
  </defs>
  <g>
    <g>
      <path class="cls-2" d="M427.55,82.07c.37.14.74.13,1.11-.04s.62-.44.76-.81c.14-.37.13-.75-.05-1.12-.17-.36-.43-.61-.81-.75-.37-.13-.74-.12-1.1.05-.36.17-.62.43-.76.8-.14.37-.13.74.03,1.1.17.38.44.63.82.77Z"/>
      <path class="cls-2" d="M436.84,82.66c.1-.28.11-.53.03-.77-.08-.23-.24-.41-.48-.54-.24-.13-.51-.13-.82-.01l-.68.26-.06-3.17c-.01-.23.03-.44.13-.61.1-.17.23-.28.39-.33.22-.06.38-.03.5.1.11.12.18.3.2.55-.02.28.03.51.16.69.12.17.28.3.48.37.2.07.41.09.64.06.23-.03.43-.11.62-.24.18-.13.33-.32.43-.56.1-.24.13-.53.07-.88-.07-.48-.22-.89-.46-1.25-.24-.36-.53-.63-.87-.83s-.71-.32-1.13-.36c-.41-.04-.82.02-1.23.17-.35.13-.68.31-.99.54s-.58.5-.8.82c-.23.32-.4.68-.52,1.09-.12.41-.17.86-.15,1.34l.07,3.45-.43.16c-.47.18-.79.42-.94.71-.15.3-.2.57-.13.83.07.26.21.46.44.61.23.15.48.17.75.07l.08-.03s.05-.02.1-.05c.04-.02.1-.05.16-.07l.04,2.33s-.01,0-.02.02c-.21.22-.3.51-.27.86.05.61.05,1.14,0,1.58-.04.44-.11.81-.2,1.11-.09.3-.21.54-.35.71-.14.17-.29.3-.45.37-.18.08-.35.1-.52.04-.16-.06-.28-.16-.34-.31-.03-.07-.06-.17-.07-.28l-.53-5.85c-.07-.52-.25-.89-.54-1.1-.29-.21-.59-.29-.9-.22-.31.06-.58.25-.8.56-.23.31-.32.72-.27,1.23.04.43.09.9.13,1.38.05.49.09.98.14,1.47,0,.06.01.12.02.18-.04.05-.09.08-.13.14-.18.24-.23.54-.16.91.09.54.12,1.01.09,1.41-.03.4-.11.76-.23,1.07s-.29.58-.5.8c-.21.23-.46.42-.73.59-.26.16-.52.26-.78.31-.26.05-.52.06-.79.04-.27-.02-.54-.07-.83-.14-.28-.07-.57-.14-.86-.21l-1.21-5.45c.35.03.72.03,1.11,0,.39-.03.75-.17,1.09-.4.37-.23.68-.52.92-.89.24-.37.41-.77.5-1.21.09-.44.1-.9.04-1.37-.07-.47-.22-.91-.46-1.33-.25-.44-.55-.79-.9-1.05-.35-.26-.71-.44-1.1-.54-.38-.1-.77-.12-1.15-.05-.38.06-.74.19-1.07.4-.57.35-1.06.8-1.46,1.35-.4.55-.64,1.26-.71,2.12-.62-.13-1.26-.17-1.94-.12-.67.05-1.37.29-2.08.73-.65.4-1.17.86-1.56,1.38-.38.52-.64,1.19-.76,2.01-.06.35.01.65.22.89.21.24.45.39.73.47s.55.04.83-.09c.27-.13.45-.4.53-.81.09-.37.22-.7.39-.98.17-.28.39-.51.66-.67.51-.31,1.04-.46,1.59-.45.55.01,1.11.09,1.69.23l1.22,5.73c-.4,0-.82.04-1.25.13-.43.09-.87.26-1.3.49-.39.22-.75.5-1.08.82-.33.33-.61.7-.82,1.11-.22.41-.35.86-.42,1.34-.06.48,0,.97.17,1.49.05.15.11.29.17.41.06.13.13.25.2.36.26.43.59.77.98,1s.82.38,1.28.43c.46.05.93.02,1.43-.1.49-.12.96-.32,1.42-.59.69-.42,1.26-.96,1.69-1.62.43-.66.69-1.41.76-2.27.62.13,1.26.18,1.93.13.67-.05,1.36-.29,2.07-.72.91-.56,1.59-1.34,2.05-2.34.21.13.42.24.66.3.34.09.7.11,1.08.07.38-.04.75-.15,1.13-.32.26-.12.51-.28.75-.46l.1,5.34c0,.32.06.58.19.78.13.2.3.35.5.44.2.09.42.14.65.12.23-.01.45-.08.64-.21.19-.13.35-.31.47-.55.12-.24.18-.54.17-.9l-.33-14.5,1.2-.47c.37-.19.61-.42.71-.7ZM420.01,97.66c-.18.46-.45.79-.8,1.01-.3.18-.59.24-.87.16-.28-.08-.49-.25-.64-.5-.03-.05-.06-.1-.1-.16-.03-.05-.06-.11-.07-.18-.09-.33-.07-.67.06-1.01s.37-.62.72-.83c.27-.17.56-.26.86-.28.3-.02.63,0,.97.07.09.69.04,1.26-.14,1.72ZM421,84.78c.1-.25.24-.44.44-.56.36-.22.68-.17.96.14.11.14.19.28.22.41s.03.27,0,.4c-.04.13-.1.24-.19.35-.09.1-.2.19-.34.26-.21.1-.42.14-.63.1-.21-.03-.38-.08-.53-.14-.04-.39-.02-.71.08-.96Z"/>
      <path class="cls-2" d="M445.8,82.86c-.28.04-.53.16-.76.36-.23.2-.34.47-.35.79-.04.55-.16,1.05-.36,1.49-.19.44-.44.82-.72,1.16s-.61.61-.97.83-.72.39-1.08.5c-.62.19-1.15.2-1.59.03-.44-.16-.72-.44-.84-.84-.05-.17-.07-.34-.06-.5l.04-.36c.3.08.61.13.93.13.33,0,.66-.05,1-.15.38-.11.74-.28,1.06-.51.32-.22.6-.49.82-.79.23-.3.41-.64.54-1.01.13-.37.19-.76.19-1.18-.01-.37-.06-.69-.14-.97-.12-.41-.31-.76-.56-1.06-.25-.3-.56-.53-.91-.7-.35-.17-.75-.27-1.19-.3-.44-.03-.9.03-1.37.17-.37.11-.73.28-1.06.49-.33.22-.63.48-.88.8-.25.31-.45.67-.6,1.06-.15.4-.24.82-.26,1.29l-.14,3.19c0,.22,0,.44.02.66.02.22.06.42.12.61.15.51.4.93.75,1.27s.76.59,1.23.77c.47.17,1,.25,1.58.25.58,0,1.17-.1,1.79-.29.59-.18,1.16-.43,1.72-.77.56-.34,1.07-.77,1.52-1.28.45-.51.81-1.12,1.1-1.81.28-.69.45-1.49.49-2.38.01-.37-.09-.63-.31-.77-.22-.14-.47-.19-.75-.15ZM439.28,83.09c.02-.29.11-.53.25-.73.14-.2.31-.32.5-.38.24-.07.45-.04.64.08.19.13.32.31.39.55.04.15.06.29.05.43,0,.25-.06.45-.19.62-.13.17-.29.3-.48.39-.19.09-.4.16-.62.18-.22.03-.42.02-.61-.02l.05-1.12Z"/>
      <path class="cls-2" d="M450.99,73.26c.04-.25.02-.52-.04-.82-.06-.32-.19-.61-.39-.87-.19-.26-.47-.43-.82-.51l-.1-.04h.02c-.23-.04-.44-.04-.65,0-.13.03-.25.06-.36.12s-.23.13-.34.22c-.19.18-.33.39-.41.64-.08.24-.09.49-.05.73.05.25.17.48.35.67h-.02c.09.11.2.19.32.26.12.07.24.13.36.16-.09.11-.2.2-.34.27s-.29.1-.45.1c-.24-.01-.43.04-.56.17-.13.12-.21.26-.22.43-.02.16.03.31.15.45.12.14.3.22.56.23.24,0,.48-.02.71-.07.62-.12,1.14-.37,1.54-.75.41-.38.65-.85.73-1.41v.02Z"/>
      <path class="cls-2" d="M457.87,82.1c-.28-.45-.56-.86-.86-1.24-.21-.28-.41-.56-.6-.84-.19-.27-.31-.54-.38-.81.22-.12.4-.29.52-.5.12-.22.19-.45.21-.7,0-.19-.03-.38-.1-.56s-.16-.34-.29-.47c-.12-.13-.27-.24-.45-.33-.18-.09-.36-.14-.55-.15v.02c-.13,0-.25,0-.36.02-.11.02-.22.05-.32.09-.19.07-.39.19-.58.37-.19.18-.37.42-.54.74-.26.71-.54,1.41-.82,2.12-.29.71-.57,1.42-.84,2.12-.28.1-.53.27-.73.48-.2.22-.36.47-.47.74-.12.27-.19.56-.23.86-.04.3-.04.59,0,.87.05.43.2.82.44,1.17.24.35.55.64.92.87.37.24.79.41,1.26.52.47.11.96.15,1.46.12.31,0,.7-.07,1.17-.2.47-.13.92-.36,1.34-.67.42-.32.76-.73,1.03-1.26.27-.52.35-1.17.26-1.94-.06-.51-.23-1-.51-1.44ZM455.64,84.4c-.06.33-.19.58-.4.77s-.47.3-.77.35c-.3.04-.58,0-.84-.09-.25-.1-.44-.25-.56-.48.45.04.83-.05,1.12-.27.29-.22.5-.5.61-.83.11-.33.13-.67.05-1.02-.08-.35-.25-.64-.53-.85l.12-.35c.37.36.69.79.94,1.28.25.49.34.99.25,1.5Z"/>
      <path class="cls-2" d="M489.12,80.56c-.25-.33-.55-.61-.92-.85-.37-.24-.77-.41-1.2-.52-.39-.1-.78-.14-1.19-.12-.4.01-.79.08-1.17.21-.38.12-.73.31-1.06.55s-.61.54-.86.89l-.94,1.41s0,0,0,0c-.3.1-.53.34-.7.71-.27.52-.62.92-1.05,1.21-.43.29-.9.39-1.43.32-.04,0-.08-.01-.12-.02-.05,0-.09-.02-.12-.03,0,.01,0-.04.01-.17.01-.12,0-.27,0-.44.13-.07.26-.18.4-.34.08-.1.2-.26.34-.5.14-.24.28-.49.41-.76.13-.27.25-.54.36-.82.11-.27.18-.49.22-.67.1-.44.08-.85-.03-1.24-.12-.39-.31-.74-.59-1.04s-.61-.56-1.02-.76c-.41-.2-.84-.33-1.31-.39-.41-.06-.82-.05-1.22,0-.41.06-.79.17-1.15.33-.36.16-.69.38-.99.66-.3.27-.54.59-.74.96l-1.33,2.53c-.12.12-.23.26-.31.44-.4.96-.86,1.66-1.39,2.1-.53.44-1.06.65-1.58.63-.32-.01-.56-.11-.74-.28-.17-.17-.26-.38-.25-.61,0-.15.04-.28.09-.39l1.89-4.63,1.15.05c.4.02.72-.08.97-.28.24-.21.39-.44.45-.7.05-.26,0-.51-.13-.73-.14-.22-.4-.35-.78-.36l-.79-.04,1.31-3.26c.12-.34.09-.64-.09-.9-.18-.26-.43-.44-.73-.53-.3-.09-.62-.07-.95.05-.33.13-.58.41-.74.85l-1.51,3.66-.74-.03c-.45-.02-.78.07-1,.28-.22.21-.35.44-.39.71-.04.26,0,.51.13.73.13.22.33.34.59.35l.58.03c-.14.37-.28.71-.41,1.03-.13.32-.26.63-.39.95s-.25.63-.38.95c-.13.32-.27.66-.41,1.03v-.02c-.16.42-.25.81-.26,1.17-.02.45.06.85.23,1.21.17.36.41.67.7.93s.65.47,1.05.61c.4.15.84.23,1.29.25,1.08.05,2.07-.28,2.97-.95.09.14.19.27.3.39.28.29.62.54,1.01.73.39.19.81.32,1.25.38.69.09,1.34.04,1.96-.16.62-.2,1.16-.59,1.62-1.17.33.14.67.23,1.03.28.51.07,1.01.05,1.49-.06,0,0,0,0,0,0,.01.1,0,.2.03.3.09.4.27.76.52,1.07.25.32.56.59.93.81.37.22.77.39,1.2.5.39.1.78.14,1.19.13.4,0,.79-.07,1.16-.19.37-.11.71-.28,1.02-.5.31-.22.58-.5.81-.83.39-.58.79-1.18,1.21-1.79.42-.61.82-1.2,1.2-1.78.27-.41.45-.8.55-1.17.11-.45.12-.87.03-1.28-.09-.41-.26-.77-.51-1.1ZM477.41,80.78c-.12.24-.22.45-.3.63-.03.08-.07.15-.1.22-.03.07-.06.13-.08.2-.24-.06-.48-.06-.7-.02-.23.05-.43.14-.63.27-.19.13-.35.31-.48.52-.13.21-.21.45-.25.71-.03.31,0,.55.11.75.1.19.23.37.37.53-.01,0-.02.02-.02.03-.16.29-.37.5-.62.64-.26.14-.51.19-.77.15-.29-.04-.49-.13-.58-.29-.1-.15-.15-.32-.14-.51,0-.19.04-.37.1-.55.07-.18.12-.31.17-.41.18-.38.43-.86.75-1.46.32-.59.73-1.32,1.24-2.17.13-.28.32-.48.57-.61s.51-.17.78-.13c.27.04.47.15.62.33.14.18.2.37.17.57-.02.16-.09.37-.21.6ZM487.14,82.22c-.03.13-.08.23-.15.33l-2.48,3.75c-.21.31-.46.53-.74.65-.28.12-.55.15-.81.08-.23-.06-.4-.18-.52-.37-.12-.19-.15-.41-.09-.65.01-.06.04-.12.07-.19.03-.07.07-.14.13-.21l2.45-3.69c.21-.31.45-.52.71-.62s.51-.12.75-.06c.26.07.46.19.58.38.12.19.16.39.11.61Z"/>
      <path class="cls-2" d="M522.26,110.68c-.01.15-.03.29-.02.44.02.4.12.79.3,1.18.18.39.42.76.73,1.1.76.85,1.74,1.34,2.92,1.48,1.18.14,2.49-.09,3.91-.69.31-.13.48-.33.53-.58.05-.26,0-.5-.12-.73-.13-.23-.33-.41-.61-.55-.28-.13-.58-.13-.93,0-.96.39-1.79.55-2.48.48-.69-.07-1.21-.3-1.55-.68-.21-.24-.32-.48-.32-.72,0-.25.09-.45.27-.61.11-.1.23-.17.34-.21l4.63-1.9.77.85c.27.3.56.46.88.49.32.03.59-.03.82-.17.22-.15.37-.35.43-.61.06-.26-.04-.53-.29-.81l-.53-.59,3.25-1.35c.32-.15.52-.38.58-.69.06-.31.01-.61-.13-.89-.15-.28-.38-.49-.7-.64-.32-.15-.7-.12-1.12.07l-3.67,1.49-.49-.55c-.3-.33-.6-.51-.9-.52-.3-.01-.56.06-.78.21-.22.16-.36.36-.43.61-.07.25-.02.47.16.67l.39.43c-.37.16-.71.3-1.03.43-.32.13-.63.26-.94.39-.11.04-.22.09-.33.13-.19-.01-.38.01-.57.12-.42.2-.82.37-1.21.51-.39.13-.75.23-1.08.28-.33.06-.62.07-.87.05-.25-.03-.44-.1-.58-.23-.09-.09-.13-.19-.12-.29.02-.1.07-.2.16-.3.09-.09.19-.17.32-.23l2.74-1.4c.16-.09.31-.18.44-.28.13-.1.25-.2.35-.31.29-.31.45-.65.49-1.03.04-.38,0-.75-.09-1.13-.1-.38-.23-.74-.39-1.08s-.31-.62-.45-.84c.23-.12.4-.29.52-.49.12-.2.19-.42.21-.65.02-.23,0-.46-.08-.68-.08-.23-.2-.42-.38-.58-.27-.25-.56-.39-.89-.43-.33-.04-.64.03-.92.2-.13.05-.26.13-.39.22-.13.09-.23.18-.32.28-.32.34-.5.75-.54,1.22l-1.91.95c-.22.02-.44.09-.66.25-.49.32-1,.5-1.51.54-.51.04-.98-.1-1.4-.42-.03-.02-.06-.05-.1-.07s-.07-.06-.09-.09c0,0,.02-.04.09-.14.07-.1.14-.23.21-.38.14,0,.32-.03.52-.1.12-.04.3-.13.54-.27.24-.14.48-.29.73-.47.25-.17.49-.35.71-.53s.4-.34.52-.47c.3-.33.49-.7.58-1.1.09-.4.09-.8,0-1.2-.09-.4-.26-.79-.52-1.16-.26-.37-.57-.7-.95-.99-.33-.25-.68-.45-1.06-.6-.38-.15-.77-.24-1.17-.28-.4-.03-.79,0-1.19.09-.4.09-.77.25-1.11.47l-3.52,2.27c-.17.12-.32.24-.47.37-.31.16-.6.29-.87.37-.64.17-1.14.15-1.48-.05-.14-.08-.23-.19-.27-.32-.04-.13-.03-.25.04-.36.04-.07.1-.13.16-.17l3.34-2.78c.26-.23.47-.47.63-.74.18-.3.29-.62.34-.95.05-.33.03-.65-.06-.96-.08-.31-.22-.6-.43-.87-.2-.27-.45-.5-.76-.68-.34-.21-.71-.33-1.09-.38l2.25-1.91c.3-.22.5-.46.61-.71.11-.25.15-.48.12-.7-.03-.22-.12-.41-.27-.57-.15-.16-.34-.28-.56-.33-.22-.06-.48-.05-.76.03-.28.08-.57.25-.86.51l-7.71,6.36c-.58.38-1.19.61-1.85.67.07-.1.13-.19.19-.28.05-.09.11-.19.16-.3.21-.47.32-.97.31-1.5,0-.53-.04-1.03-.09-1.51-.03-.35-.06-.69-.08-1.02s.01-.63.09-.89c.25.01.49-.04.71-.16.22-.12.4-.28.54-.49.1-.16.17-.34.2-.53.04-.19.04-.38,0-.55-.04-.18-.11-.35-.21-.51-.11-.17-.24-.3-.39-.41v.02c-.12-.08-.22-.13-.33-.17-.11-.04-.21-.06-.32-.09-.2-.04-.43-.03-.69.02-.26.05-.54.17-.84.35-.59.47-1.19.93-1.8,1.39-.61.46-1.22.92-1.82,1.38-.3-.06-.59-.04-.87.04-.28.08-.55.21-.79.39-.24.17-.46.38-.64.62-.19.24-.34.49-.46.74-.18.4-.26.8-.23,1.23.03.42.14.83.34,1.22s.47.76.81,1.1c.34.34.74.62,1.19.85.13.06.29.12.47.2.19.07.35.13.49.16.87.34,1.68.58,2.44.73.36.07.71.1,1.06.12.03.24.09.45.23.62.2.24.48.38.84.43s.73-.09,1.13-.41l4.87-4.03c.34-.2.68-.32,1.03-.37s.64,0,.88.13c.15.09.25.21.29.37.04.15.02.3-.07.44-.06.1-.14.18-.22.24l-2.95,2.46h0c-.34.28-.6.57-.78.88-.21.35-.33.71-.35,1.07-.02.36.03.7.15,1.02.12.32.31.62.55.88.24.27.53.5.85.69.36.22.77.38,1.23.48.4.09.84.09,1.31.03.01.11.02.22.05.33.1.39.27.77.52,1.13.25.36.55.67.9.94.55.42,1.15.7,1.79.83.64.13,1.3.06,1.99-.22.21.28.47.53.76.75.41.31.85.54,1.33.68.47.14.95.2,1.43.19s.95-.1,1.42-.26c.03,0,.06-.03.09-.04.15-.02.29-.07.44-.15l2.53-1.26c.07.13.15.27.23.41.08.14.14.29.16.43.03.15.01.29-.04.42s-.18.26-.38.36l-2.04,1.04c-.38.2-.69.43-.93.68-.27.28-.45.59-.56.91s-.15.65-.11.97c.03.33.13.65.28.96.15.31.36.59.63.84.62.58,1.43.88,2.41.93ZM498.49,91.46c-.22.25-.46.4-.74.45-.27.05-.55.02-.84-.1-.28-.13-.5-.3-.67-.51-.17-.21-.25-.45-.23-.7.37.27.74.39,1.1.35.37-.04.68-.17.95-.39.26-.22.45-.5.57-.85.12-.34.11-.68,0-1l.28-.24c.13.5.18,1.03.14,1.58s-.22,1.02-.56,1.41ZM515.84,98.48c-.22-.07-.45-.1-.68-.07-.23.02-.46.1-.68.22-.22.12-.41.29-.56.49-.18.25-.27.49-.27.7,0,.22.02.43.06.65-.02,0-.03,0-.04.02-.28.17-.56.26-.85.25-.29,0-.54-.09-.75-.24-.23-.18-.36-.36-.37-.54-.01-.18.03-.35.13-.51.09-.16.21-.31.36-.43.14-.12.26-.21.35-.28.34-.24.8-.54,1.37-.9.57-.36,1.28-.79,2.15-1.28.25-.18.52-.26.8-.25.28.01.53.1.74.26s.34.36.38.59c.04.23,0,.42-.13.58-.1.13-.26.27-.48.42-.22.15-.41.28-.57.4-.07.05-.13.1-.19.14-.06.04-.12.09-.17.14-.18-.17-.38-.29-.6-.36Z"/>
      <path class="cls-2" d="M536.26,116.98c-.39.1-.75.19-1.08.27-.33.08-.67.16-.99.24s-.66.16-.99.24c-.33.08-.69.17-1.08.27h.02c-.43.11-.8.26-1.1.46-.37.25-.66.54-.85.89-.19.35-.31.72-.34,1.12-.04.39,0,.8.12,1.21.12.41.3.81.55,1.2.6.92,1.45,1.53,2.54,1.86-.08.19-.13.38-.16.58-.07.4-.06.81.02,1.23.08.42.23.83.44,1.23.19.35.42.67.7.97.28.29.58.54.92.73.33.2.68.33,1.06.41.37.08.76.09,1.15.04.69-.11,1.4-.21,2.14-.31.73-.1,1.44-.2,2.12-.3.48-.07.89-.2,1.24-.39.4-.22.72-.5.96-.84.24-.34.39-.71.47-1.12.08-.4.08-.82,0-1.25s-.21-.84-.42-1.24c-.19-.35-.43-.67-.71-.96s-.6-.53-.94-.73c-.35-.2-.72-.33-1.11-.41-.4-.08-.81-.09-1.23-.04l-2.65.4c-.21-.09-.45-.13-.73-.07-1.01.24-1.85.27-2.52.1-.67-.17-1.15-.48-1.43-.91-.17-.27-.24-.52-.2-.76.04-.24.16-.43.35-.56.13-.08.25-.14.36-.15l4.86-1.18.63.96c.22.33.49.54.8.62.31.08.59.06.83-.05.24-.11.41-.29.51-.54.1-.25.04-.53-.16-.84l-.44-.66,3.42-.85c.34-.1.57-.3.67-.6s.11-.6,0-.9c-.1-.3-.3-.54-.6-.74s-.67-.23-1.12-.1l-3.85.92-.4-.62c-.25-.37-.52-.59-.82-.65s-.57-.03-.8.09c-.24.12-.41.3-.51.54-.1.24-.09.46.06.68l.32.49ZM540.33,124.83c.37-.05.68-.02.93.11.25.13.43.3.55.52.13.24.17.47.11.69s-.18.38-.38.49c-.11.06-.23.1-.34.11l-4.45.68c-.37.05-.7.02-.97-.11-.28-.13-.48-.31-.61-.55-.11-.21-.14-.42-.07-.64.06-.22.2-.38.42-.5.05-.03.11-.05.19-.08.07-.03.15-.04.24-.05l4.38-.67Z"/>
      <path class="cls-2" d="M543.37,136.52c-.25-.15-.53-.26-.82-.32s-.59-.08-.89-.06c-.3.02-.59.08-.86.16-.42.13-.77.35-1.06.65-.29.3-.52.66-.68,1.07-.16.41-.25.85-.27,1.34-.02.48.04.97.17,1.46.04.13.1.3.17.48.07.19.14.34.21.47.33.87.7,1.64,1.11,2.3.18.28.37.54.57.78-.16.25-.22.52-.18.82.04.33.18.64.42.92.24.29.56.45.96.49l3.43.49c-.15.22-.23.43-.26.63s-.02.38.02.54.09.3.17.43c.07.12.13.22.18.28.03.05-.02.07-.15.04-.14-.03-.26-.05-.36-.06-.51-.08-.98-.07-1.42.02-.67.14-1.17.45-1.5.95-.33.5-.41,1.18-.24,2.03.12.59.33,1.11.65,1.56.17.25.37.47.58.68-.06.07-.12.14-.17.21-.19.3-.32.64-.4,1.01-.08.37-.09.76-.04,1.17.02.17.06.35.1.52l-2.63-.84c-.32-.11-.6-.13-.82-.07-.23.06-.41.17-.55.33-.14.16-.23.36-.27.58-.05.22-.04.45.02.67.06.22.17.43.33.61.16.18.37.31.63.39.3.1.62.2.97.32.35.11.71.23,1.08.34.37.11.73.22,1.08.33.35.11.67.21.97.31-.17.24-.3.5-.4.79-.1.29-.14.6-.13.96-.02.22-.03.45-.03.68,0,.23,0,.45,0,.66.03.86.14,1.66.35,2.39.21.74.52,1.4.92,2s.92,1.11,1.54,1.55c.62.44,1.35.8,2.2,1.07.25.07.47.09.65.03.19-.05.33-.15.44-.29.11-.14.18-.3.22-.49.04-.19.02-.38-.03-.56-.06-.18-.17-.35-.32-.51-.16-.16-.37-.28-.63-.35-.74-.26-1.35-.63-1.83-1.1-.48-.48-.84-1.02-1.08-1.62.09.04.17.07.21.09.05.02.1.04.16.06.68.23,1.38.46,2.1.69.72.23,1.42.46,2.11.69.3.1.6.14.92.13.35-.01.69-.09,1.01-.23.32-.14.59-.34.82-.58.23-.24.41-.52.54-.84.13-.32.19-.64.18-.99,0-.24-.04-.48-.09-.74-.05-.26-.17-.48-.34-.68.13,0,.25-.04.36-.15.11-.11.2-.25.26-.41.07-.17.1-.36.1-.57,0-.21-.04-.41-.11-.61-.07-.19-.19-.37-.35-.52-.16-.15-.38-.26-.64-.33l-4.11-1.32c-.14-.13-.31-.24-.53-.29-.6-.14-1.1-.3-1.5-.48-.4-.17-.74-.35-.99-.53-.26-.18-.45-.37-.57-.56-.12-.19-.19-.37-.21-.54-.02-.2.02-.37.12-.5.1-.14.24-.21.4-.23.08,0,.18,0,.29.02l5.73,1.3c.52.09.93.04,1.22-.17.29-.21.45-.47.49-.79s-.06-.62-.29-.94c-.23-.31-.59-.52-1.09-.63-.43-.09-.88-.19-1.36-.3-.48-.11-.96-.21-1.44-.32-.48-.11-.96-.22-1.43-.32-.47-.11-.92-.21-1.35-.3-.04,0-.08,0-.12-.02-.29-.1-.56-.2-.78-.33-.56-.32-.89-.7-.98-1.13-.04-.22.03-.35.21-.39.14-.03.3-.03.49,0l.8.09h-.02c.26.02.51,0,.75-.04.21-.04.4-.11.56-.2.17-.09.3-.21.4-.36.19.21.42.4.69.57.27.17.59.28.96.34.35.05.67.04.97-.02.34-.07.64-.2.93-.39.28-.19.51-.42.7-.69.19-.27.32-.58.39-.92.08-.34.07-.7,0-1.08-.03-.16-.07-.31-.12-.44-.05-.13-.11-.28-.2-.43l2.88.43c.36.06.66.04.91-.06.24-.1.43-.24.56-.42.13-.18.21-.39.22-.63.02-.24-.03-.46-.14-.67-.11-.21-.28-.39-.51-.55-.23-.15-.52-.24-.87-.26l-8.97-1.25s-.07-.02-.11-.02c-1.09-.08-1.99-.45-2.7-1.08.12-.01.23-.03.34-.05.1-.02.21-.05.32-.09.49-.16.93-.42,1.32-.77.39-.36.74-.72,1.05-1.08.24-.26.47-.51.71-.75.23-.24.47-.41.72-.53.16.2.36.33.6.41.24.08.48.1.73.07.19-.03.36-.1.53-.21.17-.1.3-.23.41-.37.11-.15.19-.31.24-.5.05-.19.06-.38.04-.57h-.02c-.02-.13-.05-.24-.09-.35-.05-.1-.1-.2-.15-.3-.11-.18-.26-.34-.47-.5-.21-.16-.49-.28-.83-.38-.74-.12-1.49-.25-2.24-.4-.75-.14-1.5-.28-2.25-.41-.16-.26-.36-.47-.62-.62ZM550.82,163.16c.17.24.26.49.25.74-.02.27-.14.46-.36.58-.23.11-.51.12-.86,0-.36-.1-.67-.19-.94-.27-.27-.09-.54-.17-.8-.25s-.53-.17-.8-.26c-.27-.09-.58-.19-.93-.3-.27-.09-.49-.24-.64-.45-.15-.21-.24-.44-.26-.67,0-.28.08-.51.27-.68.19-.17.47-.2.85-.1l3.51,1.12-.02-.04c.31.14.55.34.72.58ZM548.66,148c.34.1.62.25.84.46.22.21.35.44.4.69.04.22.03.41-.05.58-.08.17-.22.27-.42.31-.11.02-.23.02-.34,0-.21-.04-.41-.13-.58-.27-.17-.14-.31-.31-.41-.5,0-.3-.04-.58-.11-.82s-.17-.44-.28-.57l.95.13ZM544.46,139.49l.37.05c-.28.44-.64.83-1.07,1.17-.43.34-.91.52-1.42.54-.33,0-.61-.07-.83-.24-.22-.17-.38-.4-.49-.69-.09-.29-.12-.57-.07-.84.04-.27.16-.48.36-.64.05.45.21.8.48,1.05.28.25.58.39.93.44.34.04.68,0,1.01-.15.33-.14.58-.37.74-.68Z"/>
      <path class="cls-2" d="M557.21,156.38c-.31-.25-.66-.35-1.06-.31-.41.05-.74.23-.99.54-.25.31-.35.67-.3,1.07.05.4.22.72.54.97.31.25.67.35,1.08.3.4-.05.72-.22.96-.54.24-.31.34-.67.3-1.07s-.22-.72-.53-.97Z"/>
      <path class="cls-2" d="M555,184.22l-3.8-2.06c.33-.22.61-.5.84-.84.22-.34.37-.71.43-1.12.05-.28.05-.57.02-.87-.03-.3-.11-.59-.23-.87-.12-.28-.29-.54-.51-.78-.22-.24-.48-.45-.78-.62l-4.32-2.37c-.15-.08-.31-.16-.47-.21-.16-.06-.33-.1-.49-.13-.38-.06-.75-.05-1.09.04-.34.09-.65.24-.92.46-.27.21-.49.47-.67.79-.18.31-.3.65-.36,1.02-.07.39-.06.81.01,1.24.07.43.23.84.48,1.24-.36.22-.66.51-.92.89-.25.38-.42.79-.49,1.24-.07.43-.06.88.03,1.36s.28.97.58,1.46c.04.07.1.13.15.2-.2.1-.4.22-.58.36-.4.31-.75.71-1.05,1.2-.3.49-.54,1.05-.71,1.67-.16.59-.25,1.21-.26,1.87-.01.66.08,1.31.28,1.97.01.04.03.07.04.11-.14.06-.28.11-.42.19-.38.22-.73.5-1.05.87-.32.36-.58.77-.79,1.24-.05.13-.11.29-.17.48-.06.19-.11.36-.14.5-.3.88-.5,1.71-.6,2.48-.1.74-.08,1.43.04,2.1-.14.04-.28.08-.42.14-.4.17-.78.42-1.14.75-.36.33-.66.71-.92,1.15-.06.13-.14.28-.22.46-.08.18-.15.34-.19.48-.39.85-.67,1.65-.86,2.4-.18.76-.24,1.48-.18,2.18.01.13.05.26.07.39-.25.03-.5.09-.75.18-.47.17-.93.45-1.37.82-.44.38-.83.83-1.19,1.37-.34.51-.61,1.08-.82,1.7-.21.62-.32,1.27-.34,1.96-.01.68.09,1.38.32,2.09.21.66.57,1.32,1.06,1.99l1.27,2.15c-.13.08-.26.17-.39.26s-.28.16-.42.19c-.14.04-.28.03-.42-.01-.14-.04-.27-.16-.39-.35l-1.18-1.96c-.23-.37-.48-.66-.75-.88-.3-.24-.62-.41-.95-.49-.33-.09-.66-.1-.98-.04-.32.06-.63.17-.93.35-.3.17-.56.4-.79.69-.54.66-.78,1.49-.76,2.47-.14,0-.29,0-.43.01-.39.05-.78.18-1.16.39-.38.21-.73.47-1.05.8-.79.82-1.21,1.83-1.27,3.02-.05,1.19.27,2.48.97,3.85.16.3.36.46.62.49.26.03.5-.03.72-.18.22-.15.39-.36.5-.65.11-.29.09-.59-.07-.92-.46-.93-.68-1.74-.66-2.44.02-.69.21-1.22.57-1.6.22-.23.45-.35.7-.37.25-.02.45.06.62.22.11.11.19.21.23.32l2.23,4.48-.8.83c-.28.29-.42.59-.43.91,0,.32.07.59.23.8.16.21.38.34.64.38.26.04.53-.07.79-.35l.55-.57,1.58,3.14c.17.31.42.49.73.52.32.04.61-.03.88-.2s.46-.42.59-.75c.12-.33.07-.7-.15-1.11l-1.75-3.55.51-.53c.31-.32.46-.64.45-.94,0-.3-.1-.56-.27-.76-.17-.21-.38-.33-.64-.38-.26-.05-.47.02-.65.21l-.4.42c-.18-.35-.35-.69-.5-1-.15-.31-.3-.61-.46-.91-.05-.11-.11-.22-.16-.33,0-.18-.05-.36-.17-.53-.24-.4-.43-.79-.59-1.17-.16-.38-.28-.73-.36-1.05s-.12-.61-.11-.86c0-.25.07-.45.19-.6.08-.1.18-.15.28-.14.11,0,.21.06.31.14.1.08.19.18.26.3l1.59,2.63c.1.16.2.3.31.42.1.12.22.23.34.33.33.27.68.41,1.06.42.38.01.75-.05,1.13-.17.37-.12.72-.28,1.05-.47.33-.19.6-.36.81-.5.14.22.32.38.53.48.21.1.43.16.66.16.23,0,.46-.04.68-.13.22-.09.4-.23.55-.42.23-.28.35-.59.36-.92.01-.33-.08-.63-.26-.91-.06-.13-.15-.25-.25-.37-.1-.12-.2-.22-.3-.3-.37-.3-.78-.45-1.25-.45l-1.89-3.19c-.05-.08-.1-.14-.16-.2-.17-.3-.32-.6-.41-.91-.13-.46-.2-.91-.19-1.35,0-.44.08-.86.21-1.26.13-.4.3-.76.51-1.07.36-.54.76-.89,1.2-1.05.44-.16.84-.13,1.18.1.15.1.27.21.36.35l.2.3c-.28.13-.55.29-.8.5-.25.21-.47.46-.67.76-.22.33-.38.69-.48,1.07-.1.38-.14.76-.12,1.13.02.38.1.75.24,1.12.14.37.34.71.61,1.03.24.27.49.49.73.65.35.23.72.38,1.11.45.39.06.77.05,1.15-.04.38-.1.75-.27,1.1-.53s.67-.6.94-1.01c.21-.32.38-.68.5-1.06.12-.38.17-.77.16-1.17,0-.4-.08-.8-.22-1.2-.14-.4-.35-.79-.63-1.15l-1.95-2.53c-.14-.18-.28-.34-.44-.49,0,0-.01-.01-.02-.02-.29-.55-.46-1.12-.49-1.71.09.08.18.14.27.2s.18.12.29.17c.46.24.95.37,1.48.39.53.02,1.03.02,1.51,0,.35-.01.7-.02,1.03-.02.33,0,.63.05.88.14-.03.25.02.49.13.71.11.22.26.41.46.57.16.11.33.18.52.23.19.05.37.06.55.03.18-.03.35-.09.52-.18s.31-.22.43-.37h-.02c.08-.11.14-.22.18-.32.04-.1.08-.21.1-.31.05-.2.06-.43.02-.69-.04-.26-.14-.55-.31-.86-.44-.61-.87-1.24-1.29-1.87-.39-.59-.79-1.17-1.19-1.75.05-.13.08-.28.09-.43,0-.18-.06-.35-.17-.51,0-.03,0-.05,0-.08-.07-.29-.18-.56-.35-.81-.16-.25-.36-.47-.58-.67-.12-.1-.25-.17-.37-.26-.14-.32-.25-.65-.31-1,.1.06.2.12.29.17s.2.1.31.14c.48.19.99.27,1.51.23.53-.03,1.03-.09,1.5-.17.35-.05.69-.1,1.02-.13.33-.04.63-.02.89.05,0,.25.07.49.2.7.13.21.31.38.52.52.17.09.35.15.54.17.19.03.38.02.55-.03s.34-.12.5-.24.29-.25.39-.42h-.02c.07-.12.12-.23.15-.34.03-.11.05-.22.07-.32.03-.2.01-.43-.05-.69-.06-.25-.2-.53-.4-.82-.5-.56-.99-1.14-1.48-1.72-.44-.53-.89-1.05-1.34-1.57.04-.17.05-.35.02-.55-.03-.19-.12-.35-.24-.49,0,0,0,0,0,0-.1-.28-.24-.53-.43-.77-.19-.23-.4-.43-.65-.61-.12-.09-.25-.14-.38-.2-.19-.32-.34-.64-.44-.97-.13-.42-.19-.84-.19-1.26,0-.42.05-.81.15-1.18.17-.62.45-1.08.82-1.37.37-.29.76-.38,1.16-.27.17.05.32.12.45.22l.29.23c-.23.21-.43.45-.6.72-.17.27-.31.58-.4.92-.11.39-.15.77-.13,1.16.02.39.1.76.23,1.12.13.35.32.69.57.99.24.31.54.57.9.79.31.19.61.32.9.4.41.11.81.14,1.2.09.39-.06.75-.19,1.08-.4.33-.21.63-.49.89-.84.26-.36.45-.77.59-1.25.1-.37.15-.76.15-1.16,0-.4-.07-.79-.21-1.17-.13-.38-.33-.74-.58-1.08-.25-.34-.57-.64-.95-.91l-1.66-1.15s0-.02-.01-.03c-.1-.17-.26-.3-.46-.39-.99-.57-1.69-1.11-2.08-1.63-.39-.52-.56-.97-.49-1.37.03-.17.1-.3.22-.38.12-.08.25-.1.39-.08.12.02.22.06.3.12l9.37,5.06c.3.16.57.23.83.23.26,0,.48-.07.67-.19.19-.12.33-.28.43-.48.1-.2.13-.41.11-.64-.03-.23-.13-.46-.3-.69-.17-.23-.43-.44-.79-.61ZM536.65,214.55c-.14.21-.32.32-.55.35-.23.03-.45-.03-.65-.17-.13-.08-.23-.18-.31-.29-.16-.19-.24-.39-.25-.6,0-.21.03-.41.12-.61.09-.2.21-.38.36-.54.15-.16.31-.29.48-.37l.68.89c.17.24.26.48.28.72.02.24-.03.45-.14.62ZM538.06,204.68c-.55-.07-1.01-.28-1.38-.63-.24-.23-.37-.48-.41-.76-.03-.28.01-.55.14-.83.14-.27.32-.49.54-.64.22-.16.46-.22.71-.2-.29.35-.43.71-.41,1.08.02.37.13.69.34.97.21.27.48.48.82.61.33.13.67.15,1,.04l.22.3c-.51.11-1.04.13-1.58.06ZM541.73,196.71c-.55,0-1.03-.17-1.44-.48-.26-.2-.42-.44-.49-.71-.06-.27-.05-.55.06-.84.11-.29.27-.52.47-.7.2-.18.43-.27.69-.27-.25.38-.35.76-.29,1.12.06.36.21.67.44.92.24.25.53.43.88.52.35.1.68.08,1-.06l.25.27c-.49.16-1.02.24-1.57.23ZM548,189.51c.09.23.11.44.05.63-.07.24-.2.4-.41.5-.21.09-.43.11-.67.04-.15-.04-.28-.1-.39-.18-.21-.13-.35-.3-.42-.49-.07-.2-.1-.4-.08-.62.02-.21.08-.42.17-.62.09-.2.21-.37.34-.5l.92.64c.23.17.39.38.48.6ZM549.96,180.02c-.03.08-.05.13-.07.14,0,.01-.03.05-.08.13-.05.07-.15.14-.3.18-.15.05-.34.05-.59.02-.25-.04-.57-.16-.97-.37l-1.69-.92c-.3-.18-.54-.36-.71-.55-.17-.18-.29-.35-.35-.51-.07-.15-.11-.3-.11-.42,0-.13.01-.23.05-.31.06-.13.14-.22.25-.27.11-.05.23-.07.35-.06.12,0,.24.03.36.08.12.04.22.09.31.14l2.55,1.35c.35.2.6.39.74.56.14.17.23.33.26.46.03.14.03.25,0,.33Z"/>
      <path class="cls-2" d="M516.64,225.53c-.39-.03-.75.09-1.06.36-.3.26-.47.59-.5.99-.03.4.09.75.35,1.05.27.31.6.48,1,.5s.74-.1,1.05-.36c.31-.27.48-.6.51-.99.03-.39-.09-.74-.36-1.05-.26-.3-.59-.47-.98-.5Z"/>
    </g>
    <g>
      <path class="cls-2" d="M167.03,248.47h-27.14c-.27,24.54-6,34.5-17.59,37.5v-37.5h-27.27v95.45h27.27v-37.23h.05c3.12-.24,6,1.66,7,4.63l10.95,32.6h29.86l-17.73-49.77c9.68-9.68,14.59-24.82,14.59-45.68Z"/>
      <path class="cls-2" d="M247.84,279.16c0-18.14-15-30.68-35.99-30.68h-34.78v95.45h27.27v-33.41c2.7,0,5.11,1.7,6.03,4.24l10.47,29.17h29.59l-15.41-40.09c8.05-5.59,12.82-14.32,12.82-24.68ZM212.87,288.7c-.4,0-.79-.03-1.18-.08-4.14-.57-7.34-4.14-7.34-8.44s3.23-7.9,7.4-8.45c.15-.02.31-.04.46-.05,4.15-.32,7.91,2.28,8.91,6.32,1.4,5.64-2.83,10.7-8.25,10.7Z"/>
      <path class="cls-2" d="M258.16,343.93h59.18v-25.91h-26.18c-3.16,0-5.73-2.56-5.73-5.73v1.09c0-3.16,2.56-7.09,5.73-7.09h22.09v-23.18h-22.09c-3.16,0-5.73-2.56-5.73-5.73s2.56-5.73,5.73-5.73h26.18v-23.18h-59.18v95.45Z"/>
      <path class="cls-2" d="M435.06,248.47h-42.42c-.07,0-.13.05-.14.12l-10.06,50.31c-.03.16-.25.16-.28,0l-10.06-50.31c-.01-.07-.07-.12-.14-.12h-43.51c-.08,0-.15.06-.15.14v95.16c0,.08.07.15.15.15h26.3c.08,0,.15-.06.15-.15v-32c0-5.09,7.3-5.92,8.45-.96l7.62,33c.02.07.07.11.14.11h21.45c.07,0,.13-.05.14-.11l7.38-32.94c1.13-5.04,8.55-4.22,8.55.95v31.96c0,.08.07.15.15.15h26.3c.08,0,.15-.06.15-.15v-95.16c0-.08-.07-.14-.15-.14Z"/>
      <path class="cls-2" d="M508.42,268.53c-2.7-11.74-13.15-20.05-25.19-20.05h0c-12.06,0-22.51,8.33-25.2,20.09l-17.23,75.37h29.19l2.59-15.14h21.13l2.86,15.14h29.19l-17.35-75.4ZM486.27,288.08c-.99.4-2.06.62-3.19.62s-2.3-.24-3.32-.67h0c-3.05-1.3-5.2-4.33-5.2-7.85,0-4.56,3.58-8.29,8.09-8.51.15-.01.29-.01.43-.01.05,0,.11,0,.16,0,4.63.08,8.36,3.86,8.36,8.51,0,3.58-2.21,6.64-5.34,7.9Z"/>
    </g>
    <g>
      <path class="cls-2" d="M101.72,412.26c-2.4,0-4.26.23-5.18.23-1.16,0-1.7-.62-1.7-1.47,0-2.63,3.48-1.01,3.48-6.19v-39.93c0-5.18-3.48-3.48-3.48-6.11,0-.85.54-1.55,1.7-1.55.93,0,2.79.23,5.18.23,2.86,0,5.88-.23,8.59-.23,12.77,0,21.97,10.29,21.97,28.16,0,15.17-7.27,27.08-21.9,27.08-1.93,0-5.34-.23-8.66-.23ZM110.47,408.47c9.21,0,14.39-8.82,14.39-23.06,0-16.01-5.72-23.98-14.62-23.98h-.62c-2.63,0-4.49.39-4.49,3.71v39.54c0,2.32.46,3.79,4.49,3.79h.85Z"/>
      <path class="cls-2" d="M170.14,398.72c0,1.16-.39,2.63-1.47,5.73l-2.24,6.42c-.62,1.7-1.16,3.02-2.24,3.02-1.55,0-1.7-1.62-3.64-1.62h-17.18c-2.4,0-4.18.23-5.11.23-1.24,0-1.7-.62-1.7-1.47,0-2.63,3.4-1.01,3.4-6.19v-39.93c0-5.18-3.4-3.48-3.4-6.11,0-.85.54-1.55,1.7-1.55.93,0,2.71.23,5.11.23h15.47c1.7,0,1.86-1.62,3.33-1.62,1.16,0,1.39.77,2.47,3.79l1.93,5.57c1.01,2.71,1.55,4.25,1.55,5.18s-.77,1.47-1.47,1.47c-.85,0-1.32-.62-2.01-1.7-5.11-8.28-7.04-8.74-10.06-8.74h-3.87c-2.71,0-3.95.39-3.95,3.79v15.63c0,1.39.62,1.62,1.55,1.62h4.49c3.17,0,2.78-5.8,4.95-5.8.93,0,1.39.62,1.39,2.09,0,1.78-.15,3.71-.15,5.65s.15,4.02.15,5.73c0,1.55-.46,2.17-1.39,2.17-2.17,0-1.7-5.96-4.95-5.96h-4.49c-.93,0-1.55.31-1.55,1.7v16.56c0,2.55.31,3.79,3.95,3.79h5.49c4.26,0,6.73-3.17,10.37-9.28.77-1.24,1.39-1.86,2.24-1.86s1.32.62,1.32,1.47Z"/>
      <path class="cls-2" d="M177.81,410.87l-1.86-6.58c-1.39-4.87-1.62-5.96-1.62-6.73,0-.93.54-1.62,1.39-1.62.93,0,1.39.7,2.17,2.09,3.64,6.34,7.81,11.14,12.84,11.14,4.49,0,7.74-3.17,7.74-9.13,0-7.12-5.18-10.68-10.91-14.63-6.73-4.49-12.38-9.28-12.38-16.48s5.42-12.53,11.3-12.53c3.95,0,5.8,1.55,6.81,1.55.85,0,1.01-1.78,2.4-1.78,1.31,0,1.78,1,2.4,2.86l1.86,4.64c1.47,3.64,2.01,5.18,2.01,6.19s-.7,1.47-1.47,1.47c-.7,0-1.08-.23-1.7-1.24-3.17-5.11-6.96-9.36-11.37-9.36-3.71,0-5.65,3.02-5.65,6.34,0,4.02,3.17,7.35,8.82,11.07,5.8,3.87,14.24,9.21,14.24,19.96,0,8.75-5.57,15.24-13.46,15.24-4.41,0-7.12-2.09-8.28-2.09-1.24,0-1.31,2.4-3.02,2.4-1.16,0-1.78-1.16-2.24-2.78Z"/>
      <path class="cls-2" d="M212.9,410.87l-1.86-6.58c-1.39-4.87-1.62-5.96-1.62-6.73,0-.93.54-1.62,1.39-1.62.93,0,1.39.7,2.17,2.09,3.64,6.34,7.81,11.14,12.84,11.14,4.49,0,7.74-3.17,7.74-9.13,0-7.12-5.18-10.68-10.91-14.63-6.73-4.49-12.38-9.28-12.38-16.48s5.42-12.53,11.3-12.53c3.95,0,5.8,1.55,6.81,1.55.85,0,1.01-1.78,2.4-1.78,1.31,0,1.78,1,2.4,2.86l1.86,4.64c1.47,3.64,2.01,5.18,2.01,6.19s-.7,1.47-1.47,1.47c-.7,0-1.08-.23-1.7-1.24-3.17-5.11-6.96-9.36-11.37-9.36-3.71,0-5.65,3.02-5.65,6.34,0,4.02,3.17,7.35,8.82,11.07,5.8,3.87,14.24,9.21,14.24,19.96,0,8.75-5.57,15.24-13.46,15.24-4.41,0-7.12-2.09-8.28-2.09-1.24,0-1.31,2.4-3.02,2.4-1.16,0-1.78-1.16-2.24-2.78Z"/>
      <path class="cls-2" d="M277.12,398.72c0,1.16-.39,2.63-1.47,5.73l-2.24,6.42c-.62,1.7-1.16,3.02-2.24,3.02-1.55,0-1.7-1.62-3.64-1.62h-17.18c-2.4,0-4.18.23-5.11.23-1.24,0-1.7-.62-1.7-1.47,0-2.63,3.4-1.01,3.4-6.19v-39.93c0-5.18-3.4-3.48-3.4-6.11,0-.85.54-1.55,1.7-1.55.93,0,2.71.23,5.11.23h15.47c1.7,0,1.86-1.62,3.33-1.62,1.16,0,1.39.77,2.47,3.79l1.93,5.57c1.01,2.71,1.55,4.25,1.55,5.18s-.77,1.47-1.47,1.47c-.85,0-1.32-.62-2.01-1.7-5.11-8.28-7.04-8.74-10.06-8.74h-3.87c-2.71,0-3.95.39-3.95,3.79v15.63c0,1.39.62,1.62,1.55,1.62h4.49c3.17,0,2.78-5.8,4.95-5.8.93,0,1.39.62,1.39,2.09,0,1.78-.15,3.71-.15,5.65s.15,4.02.15,5.73c0,1.55-.46,2.17-1.39,2.17-2.17,0-1.7-5.96-4.95-5.96h-4.49c-.93,0-1.55.31-1.55,1.7v16.56c0,2.55.31,3.79,3.95,3.79h5.49c4.26,0,6.73-3.17,10.37-9.28.77-1.24,1.39-1.86,2.24-1.86s1.32.62,1.32,1.47Z"/>
      <path class="cls-2" d="M315.5,411.02c0,.93-.85,1.47-1.62,1.47-1.01,0-3.25-.23-5.57-.23-2.17,0-4.18.23-5.57.23-1.08,0-1.78-.54-1.78-1.62,0-1.94,2.55-1.7,2.55-3.87,0-.62-.46-2.17-.77-3.09l-4.25-10.52c-.54-1.16-.93-1.55-1.78-1.47-1.93.08-3.95.08-4.95,0-.77-.08-1.39.23-1.39,1.55v11.37c0,5.18,3.48,3.56,3.48,6.26,0,.7-.54,1.39-1.55,1.39-1.24,0-2.86-.23-5.42-.23-2.4,0-4.02.23-5.26.23-1.08,0-1.55-.7-1.55-1.39,0-2.71,3.48-1.08,3.48-6.26v-39.93c0-5.18-3.48-3.4-3.48-6.03,0-.85.54-1.62,1.93-1.62.93,0,2.55.23,4.72.23,2.63,0,5.34-.39,7.97-.39,11.3,0,18.49,7.27,18.49,18.18,0,7.27-3.48,13-9.13,15.47l5.26,12.69c2.63,6.11,6.19,5.18,6.19,7.58ZM305.75,375.05c0-8.97-4.64-13.77-10.99-13.77-4.25,0-4.41,2.01-4.41,4.49v18.95c0,2.55.93,3.33,3.87,3.33,7.81,0,11.53-4.64,11.53-13Z"/>
      <path class="cls-2" d="M328.74,411.02c0-3.17,4.02-1.08,4.02-6.27v-40.23c0-1.7-.23-3.09-2.32-3.09h-1.01c-3.02,0-4.87,1.78-8.74,8.74-.62,1.09-1.16,1.63-2.01,1.63s-1.47-.62-1.47-1.55c0-1,.31-2.09,1.16-5.03l1.62-5.57c.7-2.55,1.08-3.71,2.32-3.71,1.55,0,1.7,1.55,3.4,1.55h20.89c1.7,0,1.86-1.55,3.33-1.55,1.32,0,1.7,1.16,2.4,3.71l1.62,5.57c.85,2.94,1.16,4.1,1.16,5.03s-.62,1.55-1.47,1.55-1.31-.54-2.01-1.63c-3.95-6.81-5.65-8.74-8.74-8.74h-1.08c-2.01,0-2.24,1.32-2.24,3.09v40.23c0,5.18,3.95,3.09,3.95,6.27,0,.77-.62,1.47-1.62,1.47-1.47,0-3.1-.23-5.73-.23s-4.33.23-5.73.23c-1.08,0-1.7-.7-1.7-1.47Z"/>
      <path class="cls-2" d="M412.06,411.1c0,.7-.54,1.39-1.55,1.39-1.24,0-2.86-.23-5.34-.23s-3.95.23-5.26.23c-1.08,0-1.55-.7-1.55-1.39,0-2.71,3.48-1.08,3.48-6.26v-16.79c0-1.39-.7-1.7-1.62-1.7h-15.4c-1.01,0-1.63.31-1.63,1.7v16.79c0,5.18,3.48,3.56,3.48,6.26,0,.7-.54,1.39-1.62,1.39-1.16,0-2.78-.23-5.26-.23s-4.02.23-5.26.23c-1.08,0-1.55-.7-1.55-1.39,0-2.71,3.4-1.08,3.4-6.26v-39.93c0-5.18-3.4-3.48-3.4-6.11,0-.85.54-1.55,1.62-1.55,1.32,0,2.79.23,5.18.23s4.1-.23,5.26-.23c1.01,0,1.62.7,1.62,1.47,0,2.71-3.48,1-3.48,6.19v15.86c0,1.47.62,1.7,1.63,1.7h15.4c.93,0,1.62-.23,1.62-1.7v-15.86c0-5.18-3.48-3.48-3.48-6.19,0-.7.54-1.47,1.55-1.47,1.32,0,2.86.23,5.26.23s4.1-.23,5.34-.23c1.01,0,1.55.7,1.55,1.47,0,2.71-3.4,1-3.4,6.19v39.93c0,5.18,3.4,3.56,3.4,6.26Z"/>
      <path class="cls-2" d="M455.75,410.95c0,.93-.7,1.55-1.7,1.55-.85,0-2.24-.23-4.72-.23s-4.64.23-6.19.23c-1.08,0-1.86-.54-1.86-1.62,0-1.94,3.48-1.7,3.48-4.26,0-.93-.15-1.39-.31-2.09l-2.47-10.37c-.39-1.39-.85-1.62-1.7-1.62h-10.99c-.85,0-1.39.15-1.78,1.62l-2.48,10.21c-.23.7-.39,1.47-.39,2.17,0,2.63,3.56,2.48,3.56,4.33,0,1.08-.77,1.62-1.93,1.62-1.47,0-3.25-.23-4.87-.23-1.78,0-2.94.23-4.1.23-.7,0-1.32-.47-1.32-1.39,0-2.32,2.86-1.24,4.18-6.26l8.12-31.57c.85-3.56,1.93-7.27,3.09-12.54.54-2.79.93-3.71,4.72-3.71s3.95,1.01,4.56,3.64c1.16,5.26,2.24,9.29,3.09,12.61l7.97,31.33c1.24,5.11,4.02,4.02,4.02,6.34ZM440.2,387.27l-5.42-21.89-5.49,22.05c-.23,1.01.08,1.16,1.01,1.16h8.9c.93,0,1.32-.15,1.01-1.32Z"/>
      <path class="cls-2" d="M458.88,397.79c0-.93.08-2.86.16-4.26l1.31-26c.08-1.08.16-2.4.16-3.25,0-2.48-1.08-3.1-2.09-3.64-.7-.39-1.31-.85-1.31-1.93,0-.77.54-1.47,1.55-1.47,1.24,0,2.86.23,5.34.23s4.25-.23,5.65-.23c1.01,0,1.47.77,1.47,1.47,0,1.24-.62,1.62-1.39,2.09-1.08.54-2.24,1.08-2.4,4.1l-1.31,28.55c-.08,1.31-.16,2.86-.16,4.02,0,7.81,3.48,11.06,9.36,11.06s9.67-3.02,9.67-10.99c0-.85-.16-3.25-.23-4.64l-1.47-28.01c-.15-2.86-1.47-3.4-2.55-4.02-.93-.46-1.78-.77-1.78-2.17,0-.7.7-1.47,1.78-1.47,1.32,0,3.17.23,4.49.23,1.24,0,3.09-.23,4.49-.23,1.01,0,1.47.7,1.47,1.47,0,1.08-.62,1.55-1.31,1.93-1.08.62-2.24,1.16-2.24,3.64,0,.85.08,2.17.15,3.25l1.47,26.07c.08,1.39.16,3.56.16,4.41,0,10.99-6.73,15.63-15.17,15.63s-15.24-4.64-15.24-15.86Z"/>
      <path class="cls-2" d="M498.77,410.87l-1.86-6.58c-1.39-4.87-1.62-5.96-1.62-6.73,0-.93.54-1.62,1.39-1.62.93,0,1.39.7,2.17,2.09,3.64,6.34,7.81,11.14,12.84,11.14,4.49,0,7.74-3.17,7.74-9.13,0-7.12-5.18-10.68-10.91-14.63-6.73-4.49-12.38-9.28-12.38-16.48s5.42-12.53,11.3-12.53c3.95,0,5.8,1.55,6.81,1.55.85,0,1.01-1.78,2.4-1.78,1.31,0,1.78,1,2.4,2.86l1.86,4.64c1.47,3.64,2.01,5.18,2.01,6.19s-.7,1.47-1.47,1.47c-.7,0-1.08-.23-1.7-1.24-3.17-5.11-6.96-9.36-11.37-9.36-3.71,0-5.65,3.02-5.65,6.34,0,4.02,3.17,7.35,8.82,11.07,5.8,3.87,14.24,9.21,14.24,19.96,0,8.75-5.57,15.24-13.46,15.24-4.41,0-7.12-2.09-8.28-2.09-1.24,0-1.31,2.4-3.02,2.4-1.16,0-1.78-1.16-2.24-2.78Z"/>
    </g>
  </g>
  <g>
    <g>
      <path class="cls-6" d="M525.34,151.04c1.41,1.77,2.1,4,1.91,6.26-.24,2.77-.47,5.53-.71,8.3-1.06-1.36-2.45-2.93-4.22-4.5-1.23-1.09-2.43-1.99-3.55-2.75-.85-.57-1.27-1.6-1.09-2.61l1.78-10.26c.71.5,1.49,1.1,2.3,1.8.87.76,1.77,1.65,2.67,2.67.32.36.62.73.91,1.09Z"/>
      <path class="cls-6" d="M526.54,165.59h0c-.72,1.05-2.37,1.49-3.5,1.32-.16-.03-.32-.07-.45-.12-1.96-.71-3.97-3.16-5.48-4.55-.88-.81-1.67-1.73-2.37-2.72-.71-.99-.99-2.23-.78-3.43l1.52-8.72c.19-1.1,1.07-1.96,2.17-2.1,0,0,.01,0,.02,0,.5-.06,1.36-.18,1.78.21l-1.78,10.26c-.18,1.01.24,2.03,1.09,2.61,1.12.76,2.32,1.66,3.55,2.75,1.77,1.57,3.16,3.14,4.22,4.5Z"/>
      <path class="cls-6" d="M525.59,169.3h0c-1.2,1.24-2.74,2.65-4.68,4.03-1.34.96-2.63,1.73-3.81,2.36-.91.48-1.43,1.46-1.37,2.48l.68,10.38c-.25.19-.63.21-.99.18-.29-.04-.58-.11-.8-.16,0,0-.01,0-.02,0-1.09-.26-1.87-1.21-1.94-2.33l-.57-8.83c-.08-1.21.33-2.41,1.13-3.33.8-.91,1.69-1.74,2.65-2.45,1.65-1.22,3.91-3.44,5.92-3.94.33-.08.73-.09,1.15-.02,1.02.15,2.16.74,2.66,1.64Z"/>
      <path class="cls-6" d="M525.58,169.3c-.06,2.77-.12,5.55-.18,8.32-.04,2.27-.97,4.41-2.55,6.03-.32.32-.66.65-1.02.99-1.94,1.79-3.86,3.05-5.42,3.91l-.68-10.38c-.07-1.02.46-2,1.37-2.48,1.18-.63,2.47-1.41,3.81-2.36,1.94-1.38,3.48-2.79,4.68-4.03Z"/>
      <path class="cls-4" d="M523.05,166.91l-.12.74c-.42-.07-.82-.06-1.15.02-2.02.5-4.28,2.72-5.92,3.94-.96.71-1.85,1.55-2.65,2.45-.8.91-1.21,2.11-1.13,3.33l.57,8.83c.07,1.11.85,2.07,1.94,2.33,0,0,.01,0,.02,0,.22.05.51.13.8.16v.63c-2.25,7.84-4.26,15.76-6,23.75-1.24,5.7-3.04,12.33-8.22,14.35-3.61,1.41-7.72-.1-10.78-2.57-2.66-2.13-4.74-4.83-6.33-7.89-4.89-9.38-5.12-22.17-3.02-32.42.78-.1,1.62-.29,2.48-.54,4.72-1.42,8.44-6.02,9.05-11.19.54-4.64-3.08-4.81-5.82-2.35-2.66,2.4-3.73,6.56-4.72,10-.38,1.3-.71,2.66-.99,4.08-12.11,1.71-15.45-13.22-13.84-25.88,4.53-1.49,8.09-6.35,9.91-10.74,2.19-5.3-2.53-6.75-5.36-2.87-2.24,3.08-3.86,8.13-4.56,13.61-1.02.35-2.09.51-3.2.46-5.64-.24-11.09-5-13.5-10.19-1.63-3.5-2.06-7.83-1.49-12.02,4.29-.15,8.55-2.3,10.73-6.75,2.8-5.7-2.3-9.52-6.2-4.62-2.39,3-3.97,7.12-4.53,11.37-6.68.25-13.42-4.4-12.36-12.89.08-.65.22-1.3.41-1.91,2.17-7.25,11.1-11.35,17.32-12.87,9.83-2.41,20.21-2.33,30,.37,10.91,3,22.05,8.74,29.38,18.24,4.63,6,7.43,13.62,8.22,19.13l-.24.28c-.82-.71-1.6-1.3-2.3-1.8-.42-.39-1.28-.26-1.78-.21,0,0-.01,0-.02,0-1.1.14-1.98,1.01-2.17,2.1l-1.52,8.72c-.21,1.2.07,2.44.78,3.43.7.99,1.49,1.91,2.37,2.72,1.51,1.39,3.52,3.84,5.48,4.55.13.05.29.09.45.12Z"/>
      <path class="cls-3" d="M464.76,235.84c-.44.21-.88.38-1.31.52-1.8.62-3.78.42-5.42-.54-12.15-7.09-27.01-16.98-43.16-35.02-15.31-17.09-24.31-32.66-30.16-45.22-1.18-2.54-.73-5.54,1.15-7.62,2.38-2.64,4.81-4.97,7.3-7.03-3.27-1.76-6.23-9.77-6.94-12.56-2.3-9.09-6-17.7-10.8-25.74-2.16-3.64-9.21-14.87-4.99-18.79,3.69-3.41,7.93,5.6,9.29,6.96v.2c-.63.59-1.14,1.19-1.45,1.8-.7,1.33.18,3.73,1.96,2.15.32-.28.52-.67.56-1.08.14-1.16-.39-2.08-1-2.93,2.13-1.94,5.56-3.59,7.72-4.12,3.78-.92,5.59,1.97,4,4.27-.4.57-1,1.1-1.83,1.52-1.63.83-4.28.54-4.83,2.67-.77,2.97,3.12,4.53,5.17,2.96,1.14-.88,1.74-2.3,1.64-3.75-.08-1.13-.28-2.27.38-3.27.05-.08.11-.15.18-.24.96-1.18,2.69-1.32,3.99-.54,3.33,2.01,2.02,6.18.65,8.88-1.73,3.44-2.41,6.53-2.33,10.51.1,4.81,1.51,11.74,4.7,16.73,2.53,3.97,7.56,5.49,11.9,3.65,7.87-3.33,16.3-5.64,25.45-8.23l.52.15c-.19.61-.33,1.25-.41,1.91-1.07,8.48,5.67,13.14,12.36,12.89-.57,4.19-.13,8.52,1.49,12.02,2.41,5.2,7.86,9.95,13.5,10.19,1.11.05,2.18-.11,3.2-.46-1.6,12.66,1.74,27.6,13.84,25.88-2.1,10.25-1.86,23.03,3.02,32.42l-.56.18c-.85,2.16-3.56,5.98-7.07,9.69,3.41,6.14,12.94,8.23,19.14,8.54,2.19.1,4.53.26,6.25,1.61,4.56,3.57.16,8.12-3.95,8.32-.38.02-1.74.05-3.46-.01-1.35-3.17-7.09-6.64-8.84-4.11-2.2,3.19,4.44,3.95,8.84,4.11.81,1.9.04,3.7-4.14,4.02-4.66.35-9.48-.67-13.63-2.8-4.78-2.47-8.77-6.45-11.25-11.02l-.38.21c-.09.04-.18.09-.27.12ZM426.13,147.53c2.88-1.84,4.56-4.37,3.73-5.65-.82-1.28-3.82-.82-6.7,1.02-2.88,1.84-4.55,4.37-3.73,5.65.82,1.28,3.82.82,6.7-1.02Z"/>
      <path class="cls-4" d="M486.78,170.5c2.74-2.47,6.37-2.3,5.82,2.35-.61,5.17-4.33,9.77-9.05,11.19-.86.26-1.7.44-2.48.54.29-1.41.62-2.77.99-4.08.99-3.44,2.06-7.6,4.72-10Z"/>
      <path class="cls-4" d="M471.78,145.09c2.83-3.88,7.54-2.43,5.36,2.87-1.83,4.39-5.38,9.25-9.91,10.74.69-5.48,2.32-10.52,4.56-13.61Z"/>
      <path class="cls-1" d="M381.25,148.01s0,0,0,0c.01,0,.02-.02.02-.03.04-.05.1-.12.16-.19.04-.04.07-.1.12-.14.69-.77,2.19-1.96,3.74-.21l.57.52c-1.88,2.08-2.33,5.08-1.15,7.62,5.85,12.56,14.86,28.13,30.16,45.22,16.15,18.04,31.01,27.93,43.16,35.02,1.64.96,3.62,1.16,5.42.54.43-.15.87-.32,1.31-.52-.01,3.52-2.58,6.2-5.45,7.98-11.91,7.37-26.99,6.17-40.28,5.1-10.78-.86-21.61-.87-32.42-.56-6.24.18-12.56.77-18.81.51-1.26-.05-2.3-.97-2.52-2.22-.17-.96-.32-2.02-.48-3.19-.23-1.82-.41-3.86-.49-6.12-.12-3.02-.5-7.32.17-11.08.53-2.93,1.71-5.53,4.19-6.9.66-.38,1.42-.66,2.28-.84,1.31-.27,2.52-.25,3.61,0,1.67.39,3.08,1.31,4.19,2.53,1.63,1.78,2.63,4.19,2.94,6.5.26,1.99-.08,4.01-.9,5.84-.29.64-.68,1.91-2.05,3.38-.75.81,4.09.19,4.94-.07,1.77-.55,3.36-1.69,4.45-3.17,1.82-2.45.5-3.77-1.25-5.73-.01-.01-4.87-5.45-4.87-5.45-.68-.77-1.35-1.55-1.98-2.33-2.01-2.49-3.77-5.09-5.27-7.78-1.84-3.26-3.31-6.65-4.42-10.1-6.07-18.73-1.69-39.4,10.91-54.12Z"/>
      <path class="cls-4" d="M453.56,125.56c3.91-4.89,9.01-1.08,6.2,4.62-2.18,4.44-6.44,6.6-10.73,6.75.55-4.25,2.13-8.37,4.53-11.37Z"/>
      <path d="M429.86,141.88c.82,1.28-.85,3.81-3.73,5.65-2.88,1.85-5.87,2.3-6.7,1.02-.82-1.28.85-3.81,3.73-5.65,2.88-1.85,5.88-2.3,6.7-1.02Z"/>
      <path class="cls-1" d="M386.89,227.8c1.75,1.96,3.07,3.28,1.25,5.73-1.1,1.49-2.69,2.62-4.45,3.17-.85.26-5.69.88-4.94.07,1.37-1.46,1.75-2.74,2.05-3.38.82-1.83,1.16-3.84.9-5.84-.3-2.3-1.31-4.72-2.94-6.5l1.28-1.05c.63.79,1.3,1.57,1.98,2.33,0,0,4.86,5.44,4.87,5.45Z"/>
      <path class="cls-1" d="M381.32,147.9s.07-.08.11-.12c-.07.07-.12.14-.16.19.01-.02.04-.04.05-.07Z"/>
      <path class="cls-5" d="M381.27,147.98s0,.02-.02.03c0-.01,0-.02.02-.03Z"/>
      <path class="cls-1" d="M380.03,220.01l-1.28,1.05c-1.11-1.22-2.52-2.14-4.19-2.53-1.1-.26-2.3-.28-3.61,0-.86.18-1.62.46-2.28.84l-.08-.15c-1.36-4.98-.56-12.47,1.74-17.09h0c1.11,3.46,2.58,6.84,4.42,10.1,1.5,2.69,3.26,5.28,5.27,7.78Z"/>
      <path class="cls-1" d="M364.32,237.34c.08,2.25.26,4.3.49,6.12-4.04-.57-7.59-2.24-8.49-6.59-1.22-5.87,3.51-9.63,8.17-10.6-.67,3.75-.29,8.05-.17,11.08Z"/>
    </g>
    <g>
      <path class="cls-7" d="M526.18,150.37c-.3-.37-.61-.76-.94-1.13-.7-.79-1.43-1.53-2.19-2.23,0-.06.02-.11,0-.17-.7-4.93-3.34-13.03-8.43-19.63-8.41-10.89-20.92-16.13-29.94-18.61-9.89-2.72-20.45-2.85-30.54-.38-7.01,1.72-15.18,5.95-17.77,12.72-.04,0-.07,0-.11,0l-1.78.5c-8.43,2.38-16.38,4.63-23.8,7.77-3.88,1.65-8.33.29-10.58-3.24-3.2-5.02-4.44-11.85-4.53-16.17-.08-3.82.57-6.72,2.22-10,2.42-4.77,2.04-8.42-1.05-10.29-1.13-.68-2.46-.8-3.6-.42-.04-.64-.25-1.25-.62-1.8-1.03-1.51-3.01-2.08-5.27-1.53-1.97.48-5,1.86-7.27,3.61-.2-.29-.42-.63-.64-.96-1.68-2.56-3.97-6.06-6.72-6.39-1.04-.13-2.05.22-2.92,1.02-4.66,4.32,1.73,14.99,4.46,19.55l.34.57c4.89,8.19,8.48,16.76,10.68,25.46.48,1.89,2.94,9.3,6.25,12.35-1.93,1.67-3.82,3.51-5.64,5.47-.67-.64-1.41-.99-2.21-.99h0c-.85,0-1.58.38-2.13.81,0,0,0,0-.01,0-.13.07-.25.16-.34.27h0s-.13.15-.13.15c-.06.07-.13.15-.2.22,0,0,0,0,0,.01-.05.05-.09.1-.13.15l-.02.03s-.04.04-.05.05c-.05.05-.1.11-.14.17,0,0,0,0,0,.01h0s-.03.05-.04.07c-12.82,15.03-17.07,35.91-11.17,54.63-2.2,4.69-2.95,11.86-1.79,16.87-1.92,1.35-3.18,3.49-3.83,6.49-2.99.78-5.6,2.53-7.08,4.78-1.33,2.02-1.75,4.41-1.23,6.91.82,3.95,3.72,6.39,8.59,7.28.12.88.25,1.72.38,2.47.31,1.76,1.76,3.03,3.53,3.11,4.29.18,8.66-.04,12.89-.25,2-.1,4-.2,6-.26,12.72-.36,22.99-.19,32.3.56,4.9.39,10.04.81,15.19.81,8.98,0,17.98-1.26,25.75-6.06,2.26-1.4,4.87-3.67,5.69-6.88,2.62,4.04,6.33,7.42,10.61,9.63,3.8,1.95,8.1,2.99,12.31,2.99.63,0,1.26-.02,1.89-.07,2.53-.19,4.2-.93,4.96-2.19.25-.42.48-1.01.44-1.79.25,0,.51,0,.73,0,.7,0,1.21-.01,1.42-.03,2.97-.14,5.9-2.19,6.69-4.67.37-1.17.59-3.44-2.13-5.57-2.06-1.61-4.83-1.74-6.85-1.84-6.59-.33-14.57-2.44-17.85-7.35,2.68-2.92,4.92-5.91,6.12-8.15,1.6,2.72,3.54,5.05,5.83,6.88,2.72,2.19,5.72,3.34,8.51,3.34,1.16,0,2.28-.2,3.33-.61,5.63-2.19,7.53-8.95,8.88-15.12,1.71-7.87,3.72-15.82,5.98-23.62.11-.03.19-.1.29-.15.06-.02.13-.04.19-.07,2.02-1.12,3.92-2.49,5.64-4.07.36-.34.71-.68,1.05-1.02,1.79-1.84,2.81-4.24,2.86-6.75.06-2.68.12-5.36.18-8.04v-.29s0-.03,0-.04c0-.07-.01-.13-.03-.2-.01-.06-.03-.12-.06-.18-.02-.04-.02-.08-.04-.12-.25-.46-.6-.84-1-1.15.76-.3,1.45-.77,1.91-1.44.02-.03.03-.07.05-.11.03-.06.05-.11.07-.18.02-.06.04-.13.05-.19,0-.01,0-.03,0-.04l.71-8.3c.21-2.52-.54-5.01-2.14-7.01ZM516.59,174.74c-1.27.67-2.03,2.04-1.94,3.5l.62,9.37c-.1-.02-.21-.04-.3-.06h-.06s-.04-.03-.06-.03h0c-.62-.15-1.08-.7-1.12-1.35l-.57-8.83c-.06-.92.25-1.85.87-2.54.79-.89,1.62-1.66,2.49-2.3.42-.31.88-.69,1.37-1.08,1.29-1.05,2.9-2.36,4.18-2.68.19-.05.45-.05.73,0,.5.08.96.28,1.33.54-1.2,1.17-2.48,2.25-3.82,3.2-1.16.83-2.41,1.6-3.69,2.29ZM519.08,162.67c-.44-.44-.85-.86-1.24-1.22-.79-.72-1.53-1.58-2.22-2.55-.54-.75-.75-1.71-.6-2.62l1.52-8.72c.11-.64.63-1.15,1.25-1.23h0s.06,0,.09-.02c.08,0,.21-.03.35-.04l-1.61,9.26c-.25,1.43.36,2.87,1.54,3.68,1.21.82,2.36,1.72,3.44,2.67,1.25,1.11,2.39,2.33,3.44,3.61-.55.3-1.29.44-1.81.36-.09-.02-.18-.03-.28-.07-1.25-.45-2.71-1.93-3.88-3.11ZM524.5,151.7c1.25,1.58,1.85,3.53,1.68,5.5l-.49,5.72c-.84-.92-1.73-1.81-2.67-2.63-1.14-1.01-2.37-1.97-3.66-2.84-.49-.33-.74-.93-.64-1.54l1.48-8.53c.29.23.57.46.84.7.89.78,1.76,1.64,2.57,2.57.31.35.6.7.87,1.05ZM379.23,93.28c.09-.18.21-.37.36-.56.13.34.18.67.14,1.03-.02.15-.09.29-.21.4-.14.13-.24.19-.31.22-.1-.2-.18-.71.02-1.08ZM370.27,205.17c.99,2.61,2.18,5.16,3.56,7.59,1.14,2.05,2.45,4.06,3.88,6-.9-.6-1.88-1.03-2.9-1.27-1.29-.3-2.66-.31-4.07-.01-.48.1-.93.23-1.36.38-.75-3.79-.37-8.75.89-12.7ZM357.37,236.65c-.41-1.96-.1-3.74.93-5.3,1.04-1.59,2.82-2.87,4.91-3.6-.29,2.78-.15,5.67-.03,8.07.03.55.05,1.08.07,1.57.06,1.58.19,3.17.35,4.76-3.62-.8-5.62-2.56-6.23-5.5ZM458.76,242.91c-11.62,7.19-26.5,6-39.63,4.94-9.39-.75-19.73-.93-32.53-.56-2.01.06-4.02.16-6.04.26-4.18.21-8.49.43-12.69.25-.76-.03-1.38-.58-1.51-1.34-.17-.94-.32-2-.47-3.13-.25-2-.41-4.02-.49-6.02-.02-.5-.05-1.04-.07-1.6-.14-2.78-.31-6.23.23-9.25.56-3.09,1.75-5.1,3.67-6.17.56-.32,1.22-.57,1.96-.72,1.11-.23,2.17-.23,3.15,0,1.37.32,2.6,1.06,3.64,2.21,1.4,1.54,2.37,3.69,2.66,5.91.23,1.75-.06,3.57-.81,5.25-.05.11-.11.25-.17.39-.27.64-.67,1.61-1.69,2.7-.41.44-.48,1.04-.18,1.51.93,1.47,6.17.18,6.23.17,1.99-.62,3.76-1.88,4.99-3.56,2.28-3.07.54-5.01-1.14-6.89l-.18-.2c-.12-.13-4.86-5.45-4.87-5.45-.67-.75-1.33-1.52-1.94-2.29-1.96-2.44-3.7-5-5.17-7.63-1.78-3.15-3.24-6.48-4.34-9.91-5.89-18.16-1.79-38.5,10.7-53.09,0,0,0,0,0,0,.01-.02.03-.03.04-.05,0-.01.02-.02.03-.04,0,0,0-.01.02-.02l.11-.12h-.01s.02-.04.03-.05c.02-.02.04-.02.06-.04,0,0,.01-.01.02-.02h0c.43-.48.88-.76,1.23-.76h0c.26,0,.54.17.83.47-1.6,2.32-1.88,5.33-.67,7.95,7.58,16.27,17.5,31.15,30.34,45.48,16.46,18.38,31.85,28.48,43.42,35.23,1.18.69,2.51,1.05,3.84,1.05.71,0,1.43-.12,2.12-.33-.7,2.47-2.85,4.29-4.7,5.45ZM382.75,227.42c-.18-1.35-.57-2.68-1.13-3.91,4.25,4.76,4.46,5,4.47,5,0,0,0,0,0,0l.18.2c1.75,1.95,2.2,2.59,1.01,4.19-.97,1.31-2.35,2.3-3.91,2.79-.41.13-1.66.3-2.7.39.5-.77.77-1.43.97-1.9.05-.12.09-.23.14-.33.92-2.05,1.26-4.27.98-6.41ZM476.71,224.99c-2.12-4.53-1.91-8.54.65-12.51.32-.5.18-1.16-.32-1.48-.5-.32-1.16-.18-1.48.32-3.24,5.02-3.25,10.28-.04,16.05,3.41,6.13,12.58,8.72,20.03,9.09,2.25.11,4.23.28,5.64,1.39,1.29,1.01,1.77,2.1,1.41,3.23-.52,1.62-2.69,3.08-4.76,3.18-.32.02-1.39.04-2.75,0-1.38-2.43-4.58-4.72-7.15-4.97-1.39-.14-2.53.32-3.22,1.31-.86,1.25-.68,2.23-.37,2.84.32.63,1.29,2.51,9.28,2.91.04.29.01.55-.11.75-.37.61-1.57,1.04-3.3,1.17-4.4.33-9.04-.62-13.06-2.69-4.54-2.34-8.37-6.1-10.8-10.58-2.76-5.08-3.37-10.43-1.7-15.06.2-.56-.09-1.17-.65-1.37s-1.17.09-1.37.65c-1.77,4.91-1.27,10.48,1.34,15.8-.28.12-.57.23-.88.34-1.5.52-3.15.35-4.53-.46-12.14-7.08-26.73-16.76-42.9-34.81-12.7-14.18-22.51-28.88-29.99-44.96-1-2.16-.62-4.69.97-6.45,2.29-2.54,4.71-4.87,7.19-6.92.28-.23.42-.58.38-.93-.04-.36-.24-.67-.56-.84-2.8-1.5-5.68-9.01-6.41-11.88-2.25-8.9-5.92-17.66-10.91-26.03l-.34-.58c-2.03-3.4-8.22-13.74-4.84-16.88.53-.49.94-.5,1.2-.47,1.76.22,3.99,3.61,5.19,5.44.32.48.59.9.83,1.24-.47.51-.82,1-1.05,1.47-.67,1.28-.39,3.03.61,3.82.32.25,1.49.97,3-.37.52-.46.84-1.09.91-1.76.13-1.11-.19-2.05-.65-2.85,1.98-1.55,4.77-2.85,6.56-3.29,1.37-.33,2.49-.09,3,.66.38.56.33,1.29-.13,1.95-.32.45-.82.86-1.44,1.18-.41.21-.95.34-1.53.48-1.4.34-3.31.8-3.85,2.88-.43,1.64.17,3.18,1.59,4.13,1.61,1.07,3.83,1.05,5.27-.05,1.41-1.08,2.18-2.83,2.06-4.67l-.03-.43c-.08-1-.12-1.64.24-2.19.03-.05.06-.09.1-.13.58-.71,1.71-.84,2.61-.31,2.55,1.54,1.54,4.92.24,7.48-1.8,3.58-2.53,6.87-2.45,11.01.09,4.6,1.42,11.89,4.86,17.28,2.81,4.41,8.37,6.12,13.22,4.06,7.29-3.09,15.19-5.32,23.55-7.68l.63-.18c-.03.19-.07.38-.1.57-.49,3.89.51,7.32,2.9,9.93,2.27,2.48,5.7,3.98,9.34,4.15-.38,4.17.21,8.19,1.71,11.42,2.39,5.17,8.12,10.54,14.42,10.81.15,0,.3,0,.45,0,.53,0,1.05-.04,1.57-.13-.74,7.88.31,17.5,5.39,22.51,2.14,2.11,4.76,3.17,7.81,3.17.19,0,.38-.01.57-.02-2.05,11.3-.97,22.62,2.93,30.78-.05.07-.12.14-.15.23-.63,1.61-2.65,4.69-5.82,8.22ZM492.36,244.12c-4.28-.34-5.85-1.16-6.1-1.65-.09-.17.1-.49.22-.66.07-.11.28-.41.97-.41.08,0,.17,0,.27.01,1.46.15,3.38,1.33,4.64,2.7ZM390.59,94.56c.07,1.11-.4,2.19-1.22,2.82-.71.54-1.93.53-2.78-.03-.46-.3-.95-.86-.71-1.8.19-.75.84-.98,2.28-1.33.67-.16,1.37-.33,2-.65.12-.06.23-.12.34-.19.01.27.03.53.06.79l.03.4ZM508.37,212.87c-1.23,5.62-2.92,11.77-7.56,13.58-2.84,1.11-6.47.21-9.72-2.41-2.42-1.95-4.46-4.49-6.05-7.55-4.15-7.96-5.27-19.5-3.06-31,.61-.11,1.23-.25,1.87-.44,5.11-1.54,9.15-6.51,9.81-12.09.37-3.13-.98-4.32-1.81-4.75-1.6-.83-3.87-.25-5.79,1.48-2.75,2.48-3.88,6.45-4.87,9.96l-.15.54c-.31,1.08-.59,2.22-.84,3.38-2.91.24-5.36-.59-7.3-2.5-3.92-3.86-5.73-12.3-4.67-21.63,4.66-1.87,8.15-6.88,9.91-11.1,1.37-3.31.35-5.33-1.07-6.12-1.6-.9-4.23-.43-6.15,2.21-2.19,3.02-3.86,7.88-4.65,13.4-.72.18-1.46.26-2.2.22-5.45-.23-10.45-4.99-12.57-9.57-1.37-2.96-1.89-6.7-1.49-10.59,4.72-.46,8.68-3.11,10.72-7.25,1.82-3.69.67-6.63-1.16-7.79-1.73-1.1-4.51-.9-6.85,2.03-2.3,2.88-3.91,6.74-4.6,10.96-3.15-.1-6.1-1.35-8.03-3.46-1.95-2.12-2.76-4.96-2.35-8.21.07-.58.2-1.16.38-1.73,1.93-6.43,9.81-10.49,16.54-12.14,9.73-2.39,19.92-2.27,29.46.36,8.7,2.39,20.77,7.44,28.81,17.86,4.14,5.36,6.56,11.75,7.59,16.4-.15-.11-.29-.22-.45-.33,0,0-.02,0-.03-.01-.76-.58-1.8-.47-2.5-.38-.04,0-.08.01-.12.02-1.51.23-2.74,1.44-3.01,2.97l-1.52,8.72c-.25,1.47.1,3.02.96,4.23.77,1.09,1.62,2.06,2.52,2.88.36.33.75.73,1.16,1.14.95.96,1.99,2,3.08,2.77-1.45.61-2.86,1.76-4.14,2.8-.46.37-.89.73-1.29,1.02-.98.73-1.93,1.6-2.82,2.6-.99,1.12-1.5,2.62-1.4,4.1l.57,8.83c.1,1.55,1.2,2.88,2.68,3.27-2.21,7.7-4.2,15.53-5.88,23.3ZM482.46,183.22c.19-.83.41-1.64.63-2.42l.16-.55c.92-3.23,1.96-6.89,4.25-8.95,1.01-.91,2.02-1.3,2.75-1.3.25,0,.46.05.62.13.58.3.83,1.25.67,2.59-.56,4.76-3.97,8.99-8.29,10.28-.26.08-.52.15-.78.21ZM468.57,156.94c.79-4.67,2.24-8.69,4.08-11.22.87-1.19,1.94-1.75,2.74-1.75.24,0,.46.05.63.15.76.43.82,1.78.13,3.43-1.43,3.44-4.1,7.46-7.58,9.39ZM450.3,135.75c.67-3.65,2.13-7.06,4.09-9.52.96-1.2,2.05-1.85,3-1.85.37,0,.71.1,1.02.29,1.05.67,1.61,2.52.38,5.04-1.63,3.32-4.75,5.51-8.5,6.04ZM524.32,177.6c-.04,1.97-.84,3.85-2.24,5.29-.32.32-.65.64-.98.95-1.16,1.07-2.42,2.04-3.74,2.89l-.57-8.64c-.04-.61.27-1.19.8-1.47,1.37-.73,2.69-1.55,3.93-2.43,1.01-.72,1.99-1.5,2.93-2.34-.04,1.91-.08,3.83-.13,5.74Z"/>
      <path class="cls-7" d="M446.78,169.9c-2.72,1.65-6.39.86-8.18-1.75-1.79-2.63-1.22-6.23,1.29-8.2.47-.37.55-1.04.18-1.5-.36-.47-1.04-.55-1.5-.18-3.4,2.66-4.16,7.53-1.74,11.09,1.58,2.32,4.16,3.58,6.79,3.58,1.46,0,2.94-.39,4.27-1.2.51-.31.67-.97.36-1.47-.31-.51-.97-.67-1.47-.36Z"/>
      <path class="cls-7" d="M426.26,167.78c-2.83,1.58-6.39.68-8.11-2.05-1.7-2.68-1.01-6.26,1.57-8.15.48-.35.58-1.02.23-1.5-.35-.48-1.02-.58-1.5-.23-3.49,2.55-4.42,7.39-2.12,11.03,1.55,2.46,4.22,3.83,6.95,3.83,1.36,0,2.75-.34,4.02-1.05.52-.29.7-.94.41-1.46-.29-.52-.94-.7-1.46-.41Z"/>
    </g>
  </g>
</svg>