<?xml version="1.0" encoding="UTF-8"?>
<svg id="Layer_1" data-name="Layer 1" xmlns="http://www.w3.org/2000/svg" viewBox="0 0 629.99 498.32">
  <defs>
    <style>
      .cls-1 {
        fill: #101010;
      }
    </style>
  </defs>
  <path class="cls-1" d="M397.09,107.55c.26.07.52.04.77-.08.25-.12.42-.37.49-.76.08-.35.21-.65.37-.92.16-.27.37-.47.62-.63.48-.29.97-.43,1.48-.42.51.01,1.04.08,1.58.22l1.14,5.35c-.37,0-.76.04-1.17.12-.41.09-.81.24-1.22.46-.36.21-.7.46-1.01.77-.31.3-.57.65-.77,1.04-.2.39-.33.8-.39,1.25-.06.45,0,.91.16,1.39.05.14.1.27.16.39.06.12.12.23.18.33.25.4.55.72.92.94s.76.36,1.19.4c.43.05.87.02,1.33-.1.46-.11.9-.3,1.32-.55.65-.39,1.17-.9,1.58-1.51.4-.61.64-1.32.71-2.12.58.12,1.18.16,1.8.12.62-.04,1.27-.27,1.93-.68.85-.52,1.48-1.25,1.91-2.18.19.12.4.22.62.28.32.08.66.11,1.01.07.35-.04.7-.14,1.05-.3.25-.11.47-.26.7-.43l.1,4.98c0,.3.05.54.18.73.12.19.28.33.46.41.19.09.39.13.61.11.22-.01.42-.08.59-.2.18-.12.32-.29.44-.52.11-.23.17-.51.16-.84l-.31-13.53,1.12-.44c.34-.18.56-.4.66-.65s.11-.5.03-.72-.22-.38-.44-.5c-.22-.12-.47-.12-.76-.01l-.63.24-.06-2.96c-.01-.22.03-.41.12-.56.09-.16.21-.26.36-.3.2-.05.36-.02.47.09.11.11.17.28.18.51-.02.27.03.48.15.64.11.16.26.28.45.34.18.07.38.08.59.06.21-.03.4-.1.58-.23.17-.12.3-.3.4-.52.1-.22.12-.5.07-.82-.06-.45-.21-.83-.43-1.17-.23-.33-.5-.59-.81-.78-.32-.19-.67-.3-1.05-.33-.38-.04-.77.02-1.15.16-.33.12-.64.29-.93.51-.29.21-.54.47-.75.77-.21.3-.37.64-.49,1.02-.11.38-.16.8-.14,1.25l.07,3.22-.4.15c-.44.17-.73.39-.88.67-.14.28-.18.54-.12.78.06.24.2.43.41.57s.44.16.7.06l.08-.03s.05-.02.09-.04c.04-.02.09-.04.15-.07l.04,2.18s-.01,0-.02.02c-.19.21-.28.48-.25.8.04.57.05,1.06,0,1.47-.04.41-.1.75-.19,1.04-.09.28-.2.5-.33.67-.13.16-.27.28-.42.35-.17.08-.33.09-.48.04-.15-.05-.26-.15-.32-.29-.03-.07-.05-.16-.06-.26l-.49-5.46c-.07-.49-.23-.83-.5-1.03-.27-.2-.55-.27-.84-.21-.29.06-.54.23-.75.52-.21.29-.3.67-.25,1.15.04.4.08.84.13,1.29.04.46.09.91.13,1.37,0,.06.01.11.02.16-.04.04-.09.08-.13.13-.17.22-.22.51-.15.85.09.5.12.94.09,1.32-.03.38-.1.71-.21,1-.11.29-.27.54-.47.75-.2.21-.43.39-.68.55-.24.15-.49.25-.73.29-.24.04-.49.06-.74.04-.25-.02-.51-.06-.77-.13-.26-.06-.53-.13-.8-.2l-1.13-5.08c.33.03.67.03,1.03,0,.36-.03.7-.16,1.01-.38.35-.21.63-.49.86-.83.23-.34.38-.72.47-1.13.08-.41.1-.84.03-1.27-.06-.44-.2-.85-.43-1.24-.24-.41-.52-.74-.84-.98-.32-.25-.66-.42-1.02-.51-.36-.09-.72-.11-1.07-.05-.36.06-.69.18-1,.37-.53.33-.99.75-1.36,1.26-.37.52-.59,1.18-.66,1.97-.58-.12-1.18-.16-1.81-.12-.63.05-1.27.27-1.94.68-.61.37-1.09.8-1.45,1.29-.36.49-.59,1.11-.71,1.88-.06.33.01.61.21.83.19.22.42.37.68.44ZM404.79,102.03c.09-.23.23-.41.42-.52.34-.21.64-.16.89.13.1.13.17.26.21.39.03.13.03.25,0,.37-.04.12-.1.23-.18.32-.08.1-.19.18-.32.24-.2.1-.4.13-.59.1-.19-.03-.36-.07-.5-.13-.04-.36-.02-.66.07-.89ZM403.86,114.05c-.17.43-.42.74-.75.94-.28.17-.55.22-.81.15-.26-.08-.46-.23-.6-.46-.03-.05-.06-.1-.09-.15s-.05-.11-.06-.17c-.09-.31-.07-.62.05-.94s.35-.58.67-.78c.25-.15.52-.24.81-.26.28-.02.59,0,.91.06.08.64.04,1.18-.13,1.6Z"/>
  <path class="cls-1" d="M410.89,99.5c.35.13.69.12,1.03-.04.34-.15.58-.41.71-.76s.12-.7-.04-1.05c-.15-.34-.41-.57-.75-.7-.35-.13-.69-.11-1.03.04-.34.15-.58.4-.71.75-.13.34-.12.69.03,1.03.16.35.41.59.76.72Z"/>
  <path class="cls-1" d="M420.23,98.72c-.23.29-.42.62-.56.99-.14.37-.22.77-.24,1.2l-.13,2.98c0,.21,0,.41.02.61.02.2.06.39.11.57.14.47.37.87.7,1.19.32.32.71.55,1.15.71s.93.24,1.47.23c.54,0,1.1-.09,1.67-.27.55-.16,1.08-.4,1.61-.72.52-.32,1-.72,1.42-1.2.42-.48.76-1.04,1.03-1.69.27-.65.42-1.39.45-2.23.01-.35-.09-.59-.29-.72-.21-.13-.44-.18-.7-.14-.26.04-.49.15-.71.34-.21.19-.32.43-.32.73-.04.52-.15.98-.33,1.39-.18.41-.41.77-.68,1.08-.27.31-.57.57-.9.78-.33.21-.67.36-1.01.46-.58.17-1.07.18-1.49.03-.41-.15-.67-.41-.78-.78-.05-.16-.07-.31-.05-.47l.04-.34c.28.08.57.12.87.12.3,0,.61-.05.93-.14.36-.11.69-.26.99-.47.3-.21.56-.45.77-.74.21-.28.38-.6.5-.94.12-.35.18-.71.18-1.1-.01-.34-.05-.64-.13-.91-.11-.38-.29-.71-.53-.99-.24-.28-.52-.5-.85-.66-.33-.16-.7-.25-1.11-.28-.41-.03-.84.03-1.28.16-.35.1-.68.26-.99.46-.31.2-.59.45-.82.74ZM421.84,100.45c.02-.27.1-.5.24-.68.13-.18.29-.3.47-.36.22-.07.42-.04.6.08.18.12.3.29.37.51.04.14.06.27.05.4,0,.23-.06.42-.18.58-.12.16-.27.28-.45.37-.18.09-.37.15-.58.17-.2.03-.39.02-.57-.02l.05-1.05Z"/>
  <path class="cls-1" d="M429.99,93.33c.22,0,.44-.02.66-.06.58-.11,1.06-.35,1.44-.7.38-.35.61-.79.68-1.31v.02c.04-.23.03-.49-.03-.77-.06-.3-.18-.57-.36-.81-.18-.24-.44-.4-.77-.48l-.09-.03h.02c-.21-.04-.41-.04-.61,0-.12.02-.23.06-.34.11-.11.05-.22.12-.32.21-.18.17-.31.37-.38.59-.07.23-.09.45-.04.68.05.24.15.45.32.62h-.02c.09.1.19.18.3.25.11.07.23.12.33.15-.08.11-.19.19-.32.26s-.27.1-.42.09c-.23-.01-.4.04-.52.15-.12.11-.19.25-.21.4-.02.15.03.29.14.42.11.13.28.2.52.21Z"/>
  <path class="cls-1" d="M432.32,101.36c-.03.28-.04.55,0,.81.05.4.18.77.41,1.09.23.32.51.59.86.81.35.22.74.38,1.18.49.44.1.89.14,1.36.11.29,0,.65-.06,1.09-.18.44-.12.86-.33,1.25-.63.39-.29.71-.69.96-1.17.25-.49.33-1.09.25-1.81-.06-.48-.21-.93-.47-1.35s-.52-.8-.8-1.16c-.2-.27-.38-.53-.56-.78-.17-.26-.29-.51-.35-.76.21-.11.37-.27.48-.47.12-.2.18-.42.2-.65,0-.18-.03-.35-.09-.52-.06-.17-.15-.32-.27-.44s-.25-.23-.42-.31c-.16-.08-.34-.13-.51-.14v.02c-.12,0-.23,0-.34.02-.1.02-.2.05-.3.08-.18.07-.36.18-.54.34-.18.17-.35.39-.5.69-.24.66-.5,1.32-.77,1.98-.27.66-.53,1.32-.78,1.98-.27.1-.49.25-.68.45-.19.2-.33.43-.44.69-.11.26-.18.52-.21.8ZM435.77,101.93c.27-.21.46-.47.57-.77.1-.31.12-.62.05-.95-.07-.33-.23-.6-.49-.8l.11-.33c.35.34.64.73.88,1.19.24.46.31.93.24,1.4-.05.31-.18.54-.37.72-.2.17-.44.28-.72.32-.28.03-.54,0-.78-.08-.24-.09-.41-.24-.52-.45.42.04.77-.05,1.05-.25Z"/>
  <path class="cls-1" d="M446.61,103.25c.28.24.61.43.98.57s.78.22,1.21.24c1.01.05,1.93-.26,2.77-.89.08.13.17.25.28.37.26.27.57.5.94.68.36.18.75.29,1.17.35.64.09,1.25.04,1.83-.15.58-.19,1.08-.55,1.51-1.09.3.13.62.22.96.26.48.07.94.05,1.39-.06,0,0,0,0,0,0,.01.09,0,.19.03.28.09.37.25.71.48,1,.23.3.52.55.87.76.34.21.72.37,1.12.47.36.09.73.13,1.11.12.38,0,.74-.07,1.08-.17.34-.11.66-.26.95-.47.29-.21.54-.46.75-.77.36-.54.74-1.1,1.13-1.67.39-.57.77-1.12,1.12-1.66.25-.38.42-.74.51-1.1.1-.42.11-.81.02-1.19-.09-.38-.25-.72-.48-1.03-.23-.31-.52-.57-.86-.79-.34-.22-.71-.38-1.12-.48-.36-.09-.73-.13-1.11-.11-.38.01-.74.08-1.09.2s-.68.29-.98.51c-.3.22-.57.5-.8.83l-.88,1.32s0,0,0,0c-.28.09-.5.31-.66.66-.26.49-.58.86-.98,1.13-.4.27-.84.37-1.33.3-.03,0-.07,0-.11-.02-.04,0-.08-.02-.11-.03,0,.01,0-.04.01-.16.01-.12,0-.25,0-.41.12-.06.24-.17.38-.31.08-.09.18-.24.31-.46s.26-.46.38-.71c.12-.25.24-.51.34-.76.1-.25.17-.46.2-.62.09-.41.08-.8-.03-1.16-.11-.36-.29-.69-.55-.97-.25-.28-.57-.52-.95-.7-.38-.19-.79-.31-1.22-.37-.38-.05-.76-.05-1.14,0s-.74.16-1.07.31-.65.36-.92.61-.51.55-.69.9l-1.24,2.36c-.12.11-.22.24-.29.41-.37.9-.8,1.55-1.3,1.96-.5.41-.99.61-1.47.59-.3-.01-.53-.1-.69-.26-.16-.16-.24-.35-.23-.57,0-.14.03-.26.08-.36l1.76-4.32,1.07.05c.37.02.67-.07.9-.26s.37-.41.42-.66c.05-.25,0-.47-.13-.68-.13-.21-.38-.32-.73-.34l-.74-.03,1.23-3.05c.11-.31.08-.59-.09-.84-.17-.24-.4-.41-.68-.49-.28-.08-.58-.07-.88.05-.31.12-.54.38-.69.79l-1.41,3.42-.69-.03c-.42-.02-.73.07-.94.26-.21.19-.33.41-.37.66-.04.25,0,.47.13.68.12.21.31.32.55.33l.54.02c-.14.35-.26.67-.39.96-.12.3-.24.59-.36.88-.12.29-.24.59-.36.88-.12.3-.25.62-.39.96v-.02c-.15.39-.23.75-.24,1.09-.02.42.05.79.21,1.13.16.34.38.63.66.87ZM464.5,99.35c.2-.29.42-.48.66-.57.24-.09.48-.11.7-.05.25.06.43.18.54.36.12.18.15.37.1.57-.03.12-.08.22-.14.3l-2.32,3.5c-.2.29-.43.49-.69.6-.26.11-.51.14-.76.07-.21-.05-.38-.17-.48-.35-.11-.18-.14-.38-.08-.61.01-.05.03-.11.06-.18.03-.07.07-.13.12-.2l2.29-3.44ZM454.46,99.62c.3-.55.68-1.23,1.16-2.03.12-.26.3-.45.54-.57.23-.12.47-.16.72-.13.25.03.44.14.57.3.13.17.19.34.16.53-.02.15-.09.34-.19.56-.11.22-.2.42-.28.59-.03.07-.06.14-.09.2-.03.06-.06.12-.08.19-.23-.05-.44-.06-.65-.01-.21.04-.41.13-.58.25-.18.13-.33.29-.45.49s-.2.42-.23.66c-.03.28,0,.52.1.7s.21.35.35.5c-.01,0-.02.02-.02.03-.15.27-.34.47-.58.59-.24.13-.48.18-.72.14-.27-.04-.45-.13-.55-.27-.09-.14-.14-.3-.13-.48,0-.18.03-.35.09-.51.06-.16.12-.29.16-.38.17-.35.4-.81.7-1.36Z"/>
  <path class="cls-1" d="M473.58,109.52c.32.31.69.58,1.11.8.12.05.27.12.44.18.17.07.33.12.46.15.81.32,1.57.55,2.28.68.34.06.66.1.99.11.02.22.08.42.21.58.19.23.45.36.78.4.33.04.69-.09,1.05-.38l4.54-3.76c.31-.18.64-.3.96-.35s.6,0,.82.12c.14.08.23.2.27.34.04.14.01.28-.06.41-.06.09-.13.17-.21.22l-2.75,2.29h0c-.32.26-.56.54-.73.82-.2.33-.31.66-.33,1-.02.33.03.65.14.95.12.3.29.57.52.83.23.25.49.47.79.65.34.2.72.35,1.15.44.37.08.79.08,1.23.03.01.1.02.2.04.31.09.37.25.72.48,1.05.23.33.51.63.84.88.52.39,1.07.65,1.67.77.6.12,1.21.05,1.85-.21.2.26.44.5.71.7.39.29.8.5,1.24.63.44.13.89.19,1.34.18.45-.01.89-.09,1.32-.24.03,0,.05-.02.08-.03.14-.02.27-.06.41-.14l2.36-1.17c.07.12.14.25.22.38.08.13.13.27.15.4.02.14.01.27-.04.39s-.17.24-.35.34l-1.9.97c-.36.19-.65.4-.87.63-.25.26-.42.55-.52.85-.1.3-.14.6-.11.91.03.3.12.6.26.89s.34.55.59.78c.58.55,1.34.83,2.25.87-.01.14-.03.27-.02.41.02.37.11.74.28,1.1.17.36.39.71.68,1.03.71.79,1.62,1.25,2.73,1.39,1.11.13,2.32-.08,3.65-.64.29-.12.45-.31.5-.55.04-.24,0-.47-.12-.68-.12-.22-.31-.39-.57-.51-.26-.12-.55-.12-.86,0-.9.36-1.67.51-2.31.45-.64-.07-1.12-.28-1.45-.64-.2-.22-.3-.45-.3-.68,0-.23.08-.42.25-.57.11-.1.21-.16.31-.19l4.32-1.77.72.8c.25.28.52.43.82.46.3.03.55-.03.76-.16.21-.14.34-.33.4-.57.06-.24-.03-.49-.27-.76l-.49-.55,3.03-1.26c.3-.14.48-.36.54-.65.06-.29.01-.57-.12-.83-.14-.26-.36-.46-.66-.6-.3-.14-.65-.11-1.05.07l-3.42,1.39-.46-.51c-.28-.31-.56-.47-.84-.48-.28-.01-.53.06-.73.2-.2.15-.34.33-.4.57-.06.23-.01.44.15.62l.36.4c-.34.15-.66.28-.96.4-.3.12-.59.24-.88.36-.1.04-.2.08-.3.12-.17-.01-.35.01-.53.12-.39.19-.77.35-1.13.47-.37.12-.7.21-1.01.27-.31.05-.58.07-.81.04-.23-.02-.42-.1-.54-.22-.09-.08-.12-.17-.11-.27.02-.1.07-.19.15-.28.08-.09.18-.16.3-.22l2.56-1.31c.15-.08.29-.17.41-.26.12-.09.23-.19.33-.29.27-.29.42-.61.46-.96.04-.35,0-.7-.08-1.06-.09-.35-.21-.69-.36-1.01s-.29-.58-.42-.79c.21-.12.38-.27.49-.46.11-.19.18-.39.2-.61.02-.21,0-.43-.08-.64-.07-.21-.19-.39-.35-.54-.25-.23-.53-.37-.83-.4-.31-.03-.6.03-.86.19-.12.05-.24.12-.36.2-.12.08-.22.17-.3.26-.3.32-.47.7-.5,1.14l-1.78.89c-.2.02-.41.08-.62.24-.46.3-.93.47-1.41.5-.48.04-.91-.09-1.31-.39-.03-.02-.06-.04-.09-.07-.04-.03-.06-.05-.08-.08,0,0,.02-.03.09-.13.06-.1.13-.21.2-.36.13,0,.29-.02.48-.09.11-.04.28-.12.5-.25.22-.13.45-.27.68-.43.23-.16.46-.33.67-.5.21-.17.37-.32.48-.44.28-.31.46-.65.54-1.03.08-.37.08-.74,0-1.12-.08-.37-.24-.73-.48-1.08-.24-.35-.53-.65-.88-.92-.31-.23-.64-.42-.99-.56-.36-.14-.72-.23-1.09-.26-.37-.03-.74,0-1.11.08-.37.09-.72.23-1.04.44l-3.29,2.12c-.16.11-.3.23-.44.35-.29.15-.56.27-.81.34-.6.16-1.06.14-1.38-.05-.13-.08-.22-.18-.25-.3-.04-.12-.03-.23.04-.33.04-.07.09-.12.15-.16l3.12-2.59c.24-.21.44-.44.58-.69.17-.28.27-.58.32-.89.04-.31.02-.61-.05-.89s-.21-.56-.4-.81c-.19-.25-.42-.46-.71-.63-.32-.19-.66-.31-1.02-.36l2.1-1.78c.28-.21.46-.43.57-.66s.14-.45.11-.65-.11-.38-.25-.53c-.14-.15-.31-.26-.52-.31-.21-.06-.45-.05-.71.03-.26.07-.53.23-.8.48l-7.2,5.94c-.54.35-1.11.57-1.72.63.07-.09.12-.18.18-.26s.1-.18.14-.28c.2-.44.3-.91.29-1.4,0-.49-.03-.96-.08-1.41-.03-.33-.06-.65-.07-.96s.01-.59.09-.83c.24.01.46-.04.66-.15.2-.11.37-.27.51-.46.09-.15.16-.32.19-.49.03-.18.03-.35,0-.52-.03-.17-.1-.33-.2-.48-.1-.15-.22-.28-.37-.39v.02c-.11-.07-.21-.12-.31-.16-.1-.03-.2-.06-.3-.08-.19-.04-.4-.03-.64.02-.24.05-.5.16-.78.33-.55.44-1.11.87-1.68,1.3-.57.43-1.13.86-1.69,1.29-.28-.05-.55-.04-.81.04-.27.08-.51.2-.74.36-.23.16-.43.36-.6.58-.17.22-.32.45-.43.69-.17.37-.24.75-.21,1.14.03.39.13.77.31,1.14s.43.71.76,1.02ZM493.51,113.02c.24-.17.48-.24.74-.23.26.01.49.09.69.25.2.15.32.33.35.55.03.21,0,.39-.12.54-.09.12-.24.25-.45.4-.2.14-.38.27-.53.37-.06.05-.12.09-.18.13-.06.04-.11.08-.16.13-.17-.16-.36-.27-.56-.33-.21-.07-.42-.09-.63-.07-.22.02-.43.09-.63.2-.2.11-.38.27-.53.46-.16.23-.25.45-.25.66,0,.2.02.41.06.6-.02,0-.03,0-.03.02-.26.16-.53.24-.8.23-.27,0-.5-.08-.7-.23-.22-.17-.33-.33-.34-.5-.01-.17.03-.33.12-.48.09-.15.2-.29.33-.4.13-.11.24-.2.33-.26.32-.22.75-.5,1.28-.84.53-.33,1.2-.73,2.01-1.2ZM475.81,107.79c.34-.04.64-.16.88-.37.25-.21.42-.47.53-.79.11-.32.11-.63,0-.94l.26-.22c.12.47.17.96.13,1.47-.04.52-.21.96-.52,1.32-.2.23-.43.37-.69.42-.26.05-.52.02-.78-.09-.26-.12-.47-.28-.63-.48s-.23-.42-.22-.65c.34.25.69.36,1.03.32Z"/>
  <path class="cls-1" d="M512.35,132.08c-.36.09-.7.18-1.01.25-.31.07-.62.15-.93.23s-.61.15-.93.23c-.31.07-.65.16-1.01.25h.01c-.4.1-.75.25-1.03.43-.35.23-.61.51-.79.83-.18.33-.29.67-.32,1.04s0,.75.11,1.13c.11.39.28.76.52,1.12.56.86,1.36,1.43,2.37,1.73-.07.17-.12.35-.15.54-.06.37-.06.75.02,1.15.08.4.21.78.41,1.15.18.33.4.63.65.9.26.27.54.5.85.68.31.18.64.31.99.39.35.08.71.09,1.08.04.65-.1,1.31-.19,2-.29.69-.09,1.35-.19,1.98-.28.45-.07.83-.19,1.15-.36.38-.2.68-.46.9-.78.22-.32.37-.67.44-1.04.07-.38.08-.76,0-1.17s-.2-.79-.4-1.15c-.18-.33-.4-.63-.66-.9-.26-.27-.56-.5-.88-.68-.32-.18-.67-.31-1.04-.38-.37-.07-.75-.09-1.15-.03l-2.47.37c-.2-.08-.42-.12-.68-.06-.94.23-1.73.26-2.35.1-.62-.16-1.07-.44-1.34-.85-.16-.25-.23-.49-.19-.71.04-.23.15-.4.33-.52.12-.08.23-.13.34-.14l4.53-1.1.59.9c.21.31.45.5.74.58.29.07.55.06.78-.05.23-.1.39-.27.48-.5.09-.23.04-.49-.15-.79l-.41-.62,3.19-.79c.32-.09.53-.28.63-.56s.1-.56,0-.84c-.1-.28-.28-.51-.56-.69-.28-.18-.63-.21-1.05-.09l-3.59.86-.38-.57c-.23-.35-.48-.55-.76-.6s-.53-.02-.75.09c-.22.11-.38.28-.48.5-.1.22-.08.43.05.64l.3.46ZM516.15,139.4c.35-.05.64-.01.87.1.23.12.4.28.51.48.12.22.15.44.1.64-.05.2-.17.36-.35.45-.11.06-.21.09-.32.1l-4.15.64c-.35.05-.65.01-.91-.1-.26-.12-.45-.29-.57-.51-.1-.19-.13-.39-.07-.59.06-.2.19-.36.39-.47.05-.03.11-.05.17-.08.07-.02.14-.04.23-.05l4.08-.62Z"/>
  <path class="cls-1" d="M518.98,150.31c-.24-.14-.49-.24-.76-.3-.27-.06-.55-.08-.83-.05-.28.02-.55.07-.8.15-.39.12-.72.33-.99.61-.27.28-.48.62-.63,1-.15.38-.23.8-.25,1.25-.02.45.04.9.16,1.36.04.12.09.27.16.45s.13.32.19.44c.31.81.65,1.53,1.03,2.14.16.26.34.5.53.73-.15.23-.21.48-.17.77.04.31.17.59.39.86.22.27.52.42.9.46l3.2.46c-.14.21-.22.4-.24.59-.02.18-.02.35.02.5s.09.28.16.4c.07.12.12.2.17.26.03.05-.02.06-.14.04-.13-.02-.24-.04-.33-.06-.47-.07-.92-.07-1.33.02-.62.13-1.09.42-1.4.89-.31.47-.38,1.1-.22,1.89.11.55.31,1.04.6,1.46.16.23.34.44.55.63-.05.07-.11.13-.16.2-.18.28-.3.59-.37.94-.07.35-.08.71-.04,1.09.02.16.06.32.1.48l-2.45-.79c-.3-.1-.56-.12-.77-.07-.21.06-.38.16-.51.31-.13.15-.21.33-.26.54-.04.21-.04.42.02.63.06.21.16.4.31.57.15.17.34.29.59.36.28.09.58.19.91.29.33.11.66.21,1.01.32.34.11.68.21,1.01.31.33.1.63.2.91.29-.16.22-.28.47-.37.74-.09.27-.13.56-.12.89-.02.21-.03.42-.03.64,0,.21,0,.42,0,.62.02.8.13,1.55.33,2.23.2.69.48,1.31.86,1.86s.86,1.04,1.44,1.45c.58.41,1.26.74,2.05,1,.23.07.44.08.61.03.17-.05.31-.14.41-.27s.17-.28.2-.46c.03-.18.02-.35-.03-.52-.05-.17-.16-.33-.3-.48-.15-.15-.34-.26-.59-.33-.69-.24-1.26-.59-1.7-1.03-.45-.44-.78-.95-1.01-1.51.09.04.16.07.2.08.04.02.09.03.15.05.63.21,1.28.43,1.96.64s1.33.43,1.97.64c.28.09.56.13.86.12.33,0,.64-.08.94-.22.3-.13.55-.32.77-.54.21-.23.38-.49.51-.78.12-.29.18-.6.17-.92,0-.22-.04-.45-.09-.69-.05-.24-.16-.45-.32-.63.12,0,.23-.04.33-.14.1-.1.18-.23.24-.39.06-.16.09-.33.09-.53,0-.2-.03-.39-.1-.57-.07-.18-.17-.34-.33-.49-.15-.14-.35-.25-.59-.3l-3.83-1.23c-.13-.12-.29-.22-.49-.27-.56-.13-1.03-.28-1.4-.44-.38-.16-.69-.33-.93-.5-.24-.17-.42-.34-.53-.52-.11-.18-.18-.34-.2-.51-.02-.19.02-.34.11-.47.1-.13.22-.2.37-.22.08,0,.17,0,.27.02l5.35,1.21c.49.09.86.03,1.13-.16.27-.2.42-.44.45-.73.03-.29-.06-.58-.27-.87-.21-.29-.55-.49-1.01-.59-.4-.09-.82-.18-1.27-.28-.45-.1-.9-.2-1.35-.3-.45-.1-.89-.2-1.34-.3-.44-.1-.86-.19-1.26-.28-.04,0-.08,0-.12-.02-.27-.09-.52-.19-.73-.31-.53-.3-.83-.65-.91-1.06-.04-.21.02-.32.2-.36.13-.03.28-.03.46,0l.75.08h-.02c.24.02.48,0,.7-.04.19-.04.37-.1.53-.18.16-.08.28-.19.38-.34.18.2.39.38.64.53.25.16.55.26.9.31.32.05.63.04.91-.02.31-.06.6-.18.86-.36.26-.18.48-.39.65-.65s.3-.54.37-.86c.07-.32.07-.65,0-1.01-.03-.15-.07-.29-.11-.41-.04-.13-.11-.26-.19-.4l2.69.4c.34.05.62.04.85-.05.23-.09.4-.22.53-.39.12-.17.19-.37.21-.59.02-.22-.03-.43-.13-.63-.1-.2-.26-.37-.47-.51-.21-.14-.49-.22-.82-.25l-8.38-1.17s-.06-.02-.1-.02c-1.02-.08-1.86-.42-2.52-1.01.11-.01.22-.03.31-.05.1-.02.2-.05.3-.08.46-.15.87-.39,1.23-.72.36-.33.69-.67.98-1.01.22-.24.44-.48.66-.7.22-.22.44-.38.67-.49.15.18.34.31.56.38.22.07.45.1.68.07.17-.03.34-.1.49-.19.15-.1.28-.21.38-.35s.18-.29.22-.47c.05-.18.06-.35.04-.53h-.02c-.02-.12-.04-.23-.09-.32s-.09-.19-.14-.28c-.1-.16-.25-.32-.44-.46-.2-.15-.45-.26-.77-.36-.69-.11-1.39-.24-2.09-.37-.7-.13-1.4-.26-2.1-.39-.15-.24-.34-.43-.57-.58ZM525.94,175.18c.16.23.24.46.23.69-.02.25-.13.43-.34.54-.21.11-.48.11-.8,0-.33-.09-.63-.17-.88-.25-.26-.08-.51-.16-.75-.23-.24-.08-.49-.16-.75-.24-.26-.09-.54-.18-.87-.28-.26-.08-.45-.22-.6-.42-.14-.2-.22-.41-.24-.63,0-.26.08-.48.25-.63.18-.16.44-.19.8-.09l3.28,1.04-.02-.03c.29.13.52.31.68.54ZM523.92,161.03c.32.09.58.23.79.43.2.19.33.41.38.65.04.2.02.38-.05.54-.08.16-.2.25-.39.29-.11.02-.21.02-.32,0-.2-.04-.38-.12-.54-.25-.16-.13-.29-.29-.38-.47,0-.28-.04-.54-.11-.77-.07-.23-.16-.41-.26-.54l.88.12ZM520,153.08l.34.05c-.26.41-.6.77-1,1.09-.41.32-.85.49-1.33.5-.31,0-.57-.07-.77-.23s-.36-.37-.46-.64c-.09-.27-.11-.53-.07-.78.04-.25.15-.45.34-.6.04.42.19.75.45.98.26.23.55.36.86.41.32.04.63,0,.94-.14.31-.13.54-.35.69-.64Z"/>
  <path class="cls-1" d="M531.89,168.84c-.29-.23-.62-.33-.99-.29-.38.04-.69.21-.92.5-.23.29-.33.62-.28,1,.04.37.21.67.5.9.29.23.63.33,1.01.28.37-.04.67-.21.9-.5.23-.29.32-.62.28-.99-.04-.37-.21-.67-.49-.91Z"/>
  <path class="cls-1" d="M529.84,194.83l-3.54-1.92c.31-.21.57-.47.78-.78.21-.32.34-.66.41-1.04.04-.26.05-.53.02-.82-.03-.28-.1-.55-.22-.81-.11-.26-.27-.5-.47-.73s-.45-.42-.73-.58l-4.03-2.21c-.14-.08-.29-.15-.44-.2-.15-.05-.31-.09-.46-.12-.36-.06-.7-.04-1.02.04-.32.09-.61.23-.86.43-.25.2-.46.44-.62.73-.16.29-.28.61-.33.96-.06.37-.06.75.01,1.15.07.4.22.79.44,1.16-.33.2-.62.48-.85.83-.24.35-.39.74-.46,1.16-.07.4-.06.83.02,1.27s.26.9.55,1.36c.04.06.1.13.14.19-.19.09-.37.21-.54.34-.37.29-.7.66-.98,1.12-.28.46-.5.98-.66,1.56-.15.55-.23,1.13-.25,1.75-.01.61.08,1.22.26,1.83.01.03.03.07.04.1-.13.05-.26.1-.39.17-.36.2-.68.47-.98.81-.3.34-.54.72-.74,1.15-.05.12-.1.27-.16.45-.06.18-.1.33-.13.46-.28.82-.46,1.6-.56,2.31-.09.69-.07,1.34.04,1.96-.13.04-.26.07-.39.13-.38.16-.73.4-1.06.7-.33.3-.62.66-.86,1.07-.06.12-.13.26-.21.43-.08.17-.14.32-.18.45-.36.79-.63,1.54-.8,2.24-.17.7-.23,1.38-.17,2.04.01.12.05.24.07.37-.23.03-.47.09-.7.17-.44.16-.87.42-1.28.77-.41.35-.78.78-1.11,1.28-.31.48-.57,1.01-.77,1.59-.2.58-.3,1.19-.31,1.83-.01.64.09,1.29.3,1.96.2.62.54,1.24.99,1.85l1.18,2.01c-.12.07-.24.16-.37.24s-.26.15-.39.18c-.13.03-.27.03-.39-.01-.13-.04-.25-.15-.36-.33l-1.11-1.83c-.22-.34-.45-.62-.7-.82-.28-.23-.57-.38-.88-.46-.31-.08-.61-.09-.91-.04-.3.05-.59.16-.87.32-.28.16-.53.38-.74.64-.5.62-.72,1.39-.71,2.3-.13,0-.27,0-.41.01-.37.05-.73.17-1.08.36-.35.19-.68.44-.98.75-.74.77-1.13,1.71-1.18,2.82-.05,1.11.25,2.31.91,3.6.14.28.34.43.58.46s.47-.03.67-.16c.21-.14.36-.34.47-.6s.08-.55-.06-.86c-.43-.87-.63-1.63-.61-2.27.02-.65.2-1.14.53-1.49.21-.21.42-.33.65-.34.23-.02.42.05.58.21.1.1.17.2.22.3l2.08,4.18-.74.77c-.26.27-.39.55-.4.85,0,.3.07.55.22.75.15.2.35.32.6.36.25.04.49-.07.73-.32l.51-.53,1.48,2.93c.16.29.39.46.69.49.3.03.57-.03.82-.18.25-.16.43-.39.55-.7.11-.31.07-.66-.14-1.04l-1.64-3.31.48-.49c.29-.3.43-.59.42-.88,0-.28-.09-.52-.25-.71-.16-.19-.36-.31-.59-.36-.24-.05-.44.02-.61.19l-.38.39c-.17-.33-.33-.64-.47-.93-.14-.29-.28-.57-.43-.85-.05-.1-.1-.21-.15-.31,0-.17-.04-.33-.16-.5-.22-.38-.4-.74-.55-1.1-.15-.35-.26-.68-.34-.98-.07-.3-.11-.57-.1-.8,0-.24.07-.42.18-.56.08-.09.16-.14.26-.13.1,0,.2.05.29.13.09.08.17.17.24.28l1.49,2.46c.09.15.19.28.29.39.1.11.2.22.31.31.31.25.64.38.99.39.35.01.7-.04,1.05-.16.35-.11.67-.26.98-.44.31-.18.56-.33.75-.47.13.21.3.36.49.45.2.1.4.15.62.15.22,0,.43-.04.63-.12.21-.09.38-.22.52-.39.21-.27.33-.55.34-.86.01-.31-.07-.59-.25-.85-.06-.12-.14-.23-.23-.35-.09-.11-.19-.2-.28-.28-.34-.28-.73-.42-1.17-.42l-1.77-2.98c-.05-.07-.1-.13-.15-.19-.16-.28-.3-.56-.38-.85-.12-.43-.18-.85-.18-1.26,0-.41.07-.8.19-1.18.12-.37.28-.71.47-1,.33-.5.71-.83,1.12-.98.41-.15.78-.12,1.1.09.14.09.25.2.34.32l.19.28c-.26.12-.51.27-.74.47-.23.19-.44.43-.62.71-.21.31-.35.64-.45,1-.09.35-.13.71-.12,1.06.02.35.09.7.22,1.04.13.34.32.66.57.96.23.25.46.46.68.61.33.22.68.36,1.04.42.36.06.72.05,1.07-.04.35-.09.7-.25,1.03-.5.33-.24.62-.56.88-.94.2-.3.35-.63.46-.99.11-.36.16-.72.15-1.1,0-.38-.08-.75-.21-1.12-.13-.37-.32-.73-.58-1.08l-1.82-2.36c-.13-.16-.27-.32-.41-.46,0,0-.01,0-.02-.02-.27-.51-.43-1.04-.46-1.6.09.07.17.13.25.19s.17.11.27.16c.43.22.89.35,1.38.37.49.02.96.02,1.41,0,.33-.01.65-.02.96-.02.31,0,.58.04.82.13-.02.24.02.46.12.67.1.21.25.39.43.53.15.1.31.17.48.21.18.04.35.05.52.03.17-.02.33-.08.49-.17.16-.09.29-.21.4-.35h-.01c.07-.1.13-.2.17-.3.04-.1.07-.2.1-.29.05-.19.05-.4.02-.64-.04-.24-.13-.51-.29-.8-.41-.57-.81-1.15-1.21-1.75-.37-.55-.74-1.09-1.11-1.63.05-.12.07-.26.08-.4,0-.17-.06-.33-.15-.47,0-.02,0-.05,0-.07-.06-.27-.17-.52-.32-.75s-.33-.44-.55-.63c-.11-.1-.23-.16-.35-.24-.13-.3-.24-.61-.29-.93.09.06.19.11.27.16.09.05.18.09.29.13.45.18.92.25,1.41.22.49-.03.96-.08,1.4-.16.33-.05.64-.09.95-.12.31-.03.59-.02.83.04,0,.24.06.45.19.65.12.2.28.36.48.48.16.08.32.14.5.16.18.02.35.01.51-.03.16-.04.32-.12.47-.22.15-.11.27-.24.37-.39h-.02c.06-.11.11-.21.14-.31s.05-.2.07-.3c.03-.19.01-.4-.05-.64-.06-.24-.18-.49-.37-.77-.47-.53-.93-1.06-1.39-1.61-.41-.49-.83-.98-1.25-1.47.03-.16.05-.33.02-.51-.03-.18-.12-.32-.23-.45,0,0,0,0,0,0-.09-.26-.23-.5-.4-.72-.17-.22-.38-.41-.61-.57-.11-.08-.23-.13-.35-.19-.17-.29-.32-.59-.41-.9-.12-.39-.18-.78-.18-1.18,0-.39.05-.76.14-1.1.16-.58.42-1.01.77-1.28.35-.27.71-.35,1.08-.25.16.04.3.11.42.2l.27.21c-.21.19-.4.42-.56.67-.16.26-.29.54-.38.86-.1.36-.14.72-.12,1.09.02.36.09.71.21,1.04.12.33.3.64.53.93.23.29.51.53.84.74.29.17.57.3.84.37.38.11.75.13,1.12.08.36-.05.7-.18,1.01-.37.31-.19.59-.46.83-.79.24-.33.42-.72.55-1.17.1-.35.14-.71.14-1.08,0-.37-.07-.74-.19-1.09-.12-.35-.3-.69-.54-1.01-.24-.32-.53-.6-.89-.85l-1.55-1.07s0-.02-.01-.03c-.1-.16-.24-.28-.43-.36-.93-.53-1.57-1.04-1.94-1.52-.37-.48-.52-.91-.46-1.28.03-.16.1-.28.21-.35.11-.07.23-.1.36-.07.11.02.2.06.28.11l8.74,4.73c.28.15.54.22.78.21.24,0,.45-.06.62-.17.17-.11.31-.26.4-.44.09-.19.12-.39.1-.6-.03-.22-.12-.43-.28-.65-.16-.22-.4-.41-.73-.57ZM512.71,223.13c-.13.19-.3.3-.51.33-.21.02-.42-.03-.61-.15-.12-.08-.22-.17-.29-.27-.15-.18-.23-.36-.23-.56,0-.2.03-.39.11-.57.08-.18.19-.35.33-.5.14-.15.29-.27.45-.35l.64.83c.16.22.24.45.26.67.02.23-.03.42-.13.57ZM514.03,213.92c-.51-.06-.94-.26-1.29-.59-.22-.22-.35-.45-.38-.71-.03-.26.01-.52.13-.78.13-.25.3-.45.51-.6.21-.15.43-.21.66-.18-.27.33-.4.67-.38,1.01.02.34.12.64.32.9.19.26.45.45.76.57s.62.14.94.04l.21.28c-.47.1-.97.12-1.48.06ZM517.45,206.48c-.52,0-.97-.16-1.35-.45-.24-.19-.4-.41-.46-.67s-.04-.52.05-.79c.11-.27.25-.48.44-.65.19-.17.4-.25.64-.25-.23.36-.32.7-.27,1.04.05.34.19.63.41.86.22.23.49.4.82.49.32.09.64.07.93-.06l.24.25c-.46.15-.95.22-1.46.21ZM523.3,199.76c.08.21.1.41.05.59-.06.22-.19.38-.39.47-.2.09-.4.1-.63.04-.14-.04-.26-.1-.36-.17-.19-.12-.33-.28-.39-.46-.07-.18-.09-.38-.07-.58.02-.2.08-.39.16-.58.09-.19.19-.34.32-.47l.86.6c.22.16.37.35.45.56ZM525.13,190.91c-.03.08-.05.12-.06.13,0,.01-.03.05-.08.12-.05.07-.14.13-.28.17-.14.04-.32.05-.55.02-.23-.03-.54-.15-.9-.34l-1.58-.86c-.28-.17-.5-.34-.66-.51-.16-.17-.27-.33-.33-.47-.07-.14-.1-.27-.1-.39,0-.12.01-.21.05-.28.05-.12.13-.21.23-.25s.21-.06.33-.05c.12,0,.23.03.34.07.11.04.21.08.29.13l2.38,1.26c.33.19.56.36.69.52.14.16.22.31.25.43.03.13.03.23,0,.31Z"/>
  <path class="cls-1" d="M493.05,233.71c-.28.24-.44.55-.46.92-.03.37.08.7.33.98.25.29.56.45.93.47s.69-.09.98-.33c.29-.25.45-.56.47-.92.03-.36-.09-.69-.34-.98-.24-.28-.55-.44-.92-.47-.37-.03-.7.08-.99.33Z"/>
  <path class="cls-1" d="M167.77,254.79h-25.32c-.25,22.91-5.6,32.19-16.42,35v-35h-25.45v89.08h25.45v-34.74h.05c2.91-.23,5.6,1.55,6.53,4.32l10.22,30.42h27.87l-16.54-46.45c9.03-9.03,13.62-23.16,13.62-42.63Z"/>
  <path class="cls-1" d="M217.99,343.87h27.61l-14.38-37.41c7.51-5.22,11.96-13.36,11.96-23.03,0-16.93-14-28.63-33.59-28.63h-32.46v89.08h25.45v-31.18c2.52,0,4.77,1.58,5.62,3.96l9.77,27.22ZM202.59,284.38c0-4.04,3.01-7.38,6.91-7.88.14-.02.29-.04.43-.05,3.87-.29,7.38,2.13,8.31,5.9,1.31,5.26-2.64,9.98-7.7,9.98-.37,0-.74-.03-1.1-.08-3.87-.54-6.85-3.86-6.85-7.88Z"/>
  <path class="cls-1" d="M308.04,319.7h-24.43c-2.82,0-5.11-2.19-5.31-4.97.31-2.82,2.56-5.98,5.31-5.98h20.61v-21.63h-20.61c-2.95,0-5.35-2.39-5.35-5.35s2.39-5.35,5.35-5.35h24.43v-21.63h-55.23v89.08h55.23v-24.18Z"/>
  <path class="cls-1" d="M466.9,255.14c1.13-.63,1.55-1.49,1.67-2.24.03-.19.04-.39.03-.59,1.12,0,1.9-.03,2.01-.04,2.77-.14,5.51-2.05,6.24-4.36.35-1.09.55-3.21-1.99-5.19-1.92-1.5-4.51-1.63-6.4-1.72-6.15-.3-13.6-2.27-16.66-6.86,2.49-2.71,4.58-5.49,5.7-7.58,1.44,2.43,3.22,4.62,5.45,6.41,2.54,2.04,5.34,3.11,7.94,3.11,1.08,0,2.13-.19,3.11-.57,5.25-2.04,7.03-8.36,8.28-14.11,1.6-7.36,3.47-14.77,5.58-22.04.15-.04.29-.11.42-.2,0,0,.02,0,.02,0,1.9-1.05,3.66-2.33,5.25-3.79.35-.32.67-.64.99-.96,1.67-1.7,2.62-3.94,2.67-6.3l.17-7.77s0-.03,0-.05c0-.05-.01-.1-.02-.15-.01-.07-.03-.14-.06-.2-.01-.03-.01-.06-.03-.09-.01-.02-.03-.04-.04-.06,0-.01-.01-.02-.02-.03-.22-.38-.52-.71-.88-.99.69-.27,1.31-.69,1.73-1.27,0,0,0,0,0,0,.02-.02.04-.04.05-.06.02-.03.02-.06.04-.09.03-.06.06-.12.08-.19.02-.05.03-.1.04-.16,0-.02,0-.03.01-.05l.66-7.75c.2-2.35-.51-4.68-1.99-6.55-.27-.35-.57-.7-.88-1.05-.64-.73-1.32-1.42-2.04-2.08,0-.05.02-.1,0-.15-.7-4.83-3.13-12.17-7.88-18.32-7.84-10.16-19.52-15.05-27.94-17.37-9.24-2.54-19.1-2.67-28.5-.35-6.77,1.66-14.21,5.59-16.6,11.87-.03,0-.05,0-.07,0l-1.74.49c-7.83,2.22-15.23,4.31-22.13,7.23-3.62,1.54-7.78.26-9.87-3.02-2.99-4.69-4.15-11.06-4.23-15.1-.07-3.57.53-6.27,2.07-9.33,2.24-4.46,1.89-7.87-.99-9.6-1.06-.63-2.3-.74-3.37-.39-.02-.34-.09-.67-.2-.96-.58-1.57-2.45-2.84-5.3-2.15-1.84.45-4.66,1.74-6.78,3.37-.18-.27-.39-.58-.6-.9-1.56-2.39-3.71-5.65-6.27-5.97-.97-.12-1.92.21-2.72.96-4.35,4.03,1.61,13.99,4.16,18.24l.32.53c4.56,7.65,7.91,15.64,9.96,23.76.45,1.77,2.74,8.67,5.84,11.53-1.81,1.57-3.57,3.28-5.26,5.09-.86-.81-1.7-.95-2.29-.9-.7.05-1.29.38-1.77.74-.01,0-.03,0-.04.01-.13.07-.24.16-.33.28l-.16.19c-.18.19-.32.36-.42.49l-.02.02c-12,14.04-15.99,33.56-10.47,51.06-2.05,4.38-2.75,11.08-1.66,15.75-1.76,1.26-2.96,3.28-3.57,6.04-2.79.73-5.23,2.35-6.61,4.46-1.24,1.89-1.64,4.12-1.15,6.45.77,3.69,3.48,5.96,8.01,6.79.12.82.23,1.6.36,2.3.15.87.61,1.61,1.25,2.13h-28.67c-.07,0-.14.06-.14.14v88.81c0,.08.06.14.14.14h24.54c.07,0,.14-.06.14-.14v-29.87c0-4.75,6.81-5.53,7.88-.9l7.11,30.79c.01.06.07.11.13.11h20.02c.06,0,.12-.04.13-.11l6.89-30.74c1.05-4.7,7.98-3.94,7.98.88v29.83c0,.08.06.14.14.14h24.55c.07,0,.14-.06.14-.14v-87.7c5.99-.59,11.82-2.1,17.05-5.33,2.87-1.77,4.68-4.03,5.3-6.47,2.36,3.67,5.75,6.89,9.91,9.03,2.06,1.06,4.29,1.83,6.56,2.29-8.58,2.2-15.47,9.03-17.51,17.98l-16.08,70.33h27.24l2.42-14.13h19.72l2.67,14.13h27.24l-16.19-70.37c-2.21-9.61-9.99-16.76-19.46-18.37ZM489.49,170.91c1.12.76,2.2,1.59,3.2,2.49,1.16,1.03,2.23,2.17,3.22,3.37-.63.34-1.5.43-1.95.27-1.16-.42-2.52-1.79-3.61-2.9-.41-.42-.8-.81-1.16-1.14-.74-.68-1.44-1.48-2.08-2.38-.5-.7-.7-1.6-.55-2.45l1.41-8.14c.1-.6.59-1.07,1.23-1.15.08-.01.21-.03.35-.04l-1.5,8.64c-.23,1.34.34,2.68,1.45,3.43ZM495.01,180.25c-1.11,1.08-2.29,2.1-3.56,3.01-1.1.78-2.26,1.5-3.45,2.14-1.18.63-1.89,1.91-1.8,3.26l.57,8.75c-.15-.03-.3-.06-.4-.09-.57-.14-1-.66-1.04-1.26l-.54-8.24c-.06-.87.24-1.73.81-2.38.73-.83,1.51-1.55,2.32-2.15.39-.29.82-.64,1.28-1.01,1.2-.98,2.7-2.2,3.9-2.5.47-.12,1.32.07,1.91.47ZM495.23,188.06c-.04,1.85-.79,3.6-2.1,4.94-.29.29-.59.59-.91.89-1.08,1-2.25,1.9-3.49,2.69l-.53-8.06c-.04-.57.26-1.1.75-1.36,1.27-.67,2.5-1.44,3.67-2.27.95-.68,1.86-1.41,2.73-2.18l-.12,5.36ZM495.4,163.89c1.16,1.47,1.72,3.29,1.56,5.14l-.45,5.34c-.79-.86-1.62-1.69-2.49-2.46-1.07-.95-2.22-1.85-3.41-2.65-.46-.31-.69-.87-.6-1.44l1.38-7.96c1.15.92,2.22,1.94,3.19,3.05.29.33.56.65.81.98ZM414.42,138.2c.86-6.9,9.05-11.28,15.79-12.94,9.08-2.23,18.58-2.12,27.5.34,8.12,2.23,19.38,6.94,26.89,16.66,3.86,5,6.12,10.96,7.09,15.32-.14-.1-.28-.22-.42-.32,0,0-.02,0-.03-.01-.71-.55-1.7-.43-2.36-.35-1.47.19-2.63,1.31-2.89,2.79l-1.41,8.14c-.24,1.38.09,2.82.89,3.95.72,1.01,1.51,1.92,2.35,2.69.34.31.71.68,1.09,1.08.88.89,1.84,1.86,2.87,2.57-1.35.57-2.67,1.64-3.86,2.6-.43.35-.83.68-1.2.95-.92.68-1.8,1.5-2.62,2.43-.92,1.04-1.4,2.44-1.31,3.83l.54,8.24c.1,1.45,1.07,2.65,2.5,3.05-2.07,7.18-3.92,14.49-5.49,21.75-1.14,5.25-2.73,10.99-7.06,12.67-2.65,1.03-6.05.2-9.08-2.24-9.87-7.93-10.77-24.16-8.51-35.96.58-.11,1.17-.25,1.76-.43,4.77-1.43,8.54-6.07,9.15-11.28.34-2.92-.92-4.03-1.69-4.43-1.5-.77-3.62-.23-5.4,1.38-2.56,2.31-3.62,6.02-4.55,9.29l-.15.52c-.3,1.04-.56,2.1-.79,3.17-2.71.22-4.99-.56-6.8-2.34-3.66-3.61-5.35-11.48-4.37-20.17,4.36-1.75,7.62-6.44,9.25-10.37,1.28-3.09.32-4.98-.99-5.71-1.5-.84-3.94-.4-5.73,2.06-2.05,2.82-3.62,7.35-4.35,12.51-.67.17-1.35.23-2.03.2-5.09-.22-9.76-4.66-11.73-8.94-1.28-2.76-1.77-6.23-1.41-9.86,4.41-.43,8.12-2.92,10.02-6.8,1.69-3.45.63-6.19-1.08-7.27-1.61-1.02-4.21-.83-6.39,1.89-2.14,2.68-3.66,6.29-4.31,10.24-2.93-.1-5.68-1.27-7.48-3.24-1.82-1.98-2.58-4.63-2.2-7.67ZM456.16,193.3c.18-.76.38-1.52.59-2.26l.15-.52c.86-3.01,1.83-6.43,3.97-8.35.94-.85,1.89-1.21,2.56-1.21.23,0,.43.04.58.12.55.28.77,1.17.63,2.42-.52,4.44-3.71,8.38-7.74,9.59-.24.07-.49.14-.73.2ZM443.19,168.78c.74-4.36,2.1-8.12,3.81-10.47.81-1.11,1.81-1.63,2.55-1.63.22,0,.43.05.59.14.71.4.76,1.66.12,3.2-1.33,3.21-3.81,6.95-7.07,8.76ZM426.15,149c.63-3.41,1.99-6.59,3.82-8.88.89-1.12,1.91-1.72,2.8-1.72.34,0,.66.09.95.27.98.62,1.51,2.36.36,4.7-1.52,3.1-4.43,5.15-7.93,5.63ZM359.82,109.37c.09-.17.2-.34.34-.53.12.31.17.62.13.96-.02.14-.09.28-.2.37-.13.12-.23.18-.29.21-.1-.19-.16-.66.02-1.01ZM351.46,213.79c.93,2.44,2.04,4.81,3.32,7.08,1.07,1.91,2.28,3.78,3.6,5.57-.8-.53-1.7-.93-2.69-1.16-1.21-.28-2.49-.29-3.8-.01-.44.09-.86.21-1.26.36-.7-3.54-.35-8.17.84-11.85ZM339.42,243.17c-.38-1.83-.09-3.49.87-4.95.97-1.48,2.63-2.68,4.58-3.36-.27,2.57-.14,5.25-.03,7.47.03.54.05,1.05.07,1.52.05,1.46.17,2.93.33,4.44-3.38-.74-5.24-2.39-5.81-5.13ZM368.53,301.85l-9.28-46.42c.62-.03,1.24-.06,1.85-.09,1.89-.09,3.77-.19,5.65-.24,4.06-.12,7.84-.17,11.43-.17l-9.38,46.92c-.03.15-.24.15-.27,0ZM434.04,249.01c-10.83,6.71-24.73,5.6-36.99,4.62-8.79-.7-18.43-.87-30.35-.53-1.89.05-3.79.15-5.69.24-3.88.19-7.89.39-11.79.23-.71-.03-1.29-.54-1.41-1.25-.15-.88-.3-1.86-.44-2.92-.24-1.95-.39-3.78-.45-5.62-.02-.48-.04-1-.07-1.54-.13-2.58-.29-5.79.21-8.57.68-3.78,2.35-5.82,5.26-6.43,1.02-.21,2.01-.21,2.94,0,3.47.81,5.48,4.5,5.88,7.58.21,1.64-.05,3.33-.76,4.9-.05.1-.09.22-.15.35-.25.6-.62,1.52-1.58,2.54-.38.41-.45.97-.17,1.41.86,1.37,5.76.17,5.81.15,1.85-.58,3.5-1.76,4.66-3.31,2.13-2.87.5-4.68-1.07-6.44l-4.71-5.26c-2.57-2.88-4.8-6-6.64-9.26-1.66-2.94-3.02-6.05-4.05-9.25-5.47-16.86-1.69-35.74,9.83-49.35.05-.05.1-.1.14-.16.04-.06.09-.13.15-.2l.22-.25c.29-.29.67-.58,1.01-.61.1,0,.39-.01.83.44-1.49,2.17-1.75,4.98-.62,7.41,7.06,15.17,16.32,29.06,28.31,42.44,15.36,17.15,29.72,26.58,40.52,32.89,1.1.64,2.34.97,3.59.97.67,0,1.33-.11,1.98-.3-.65,2.31-2.66,4.01-4.4,5.08ZM363.11,234.56c-.16-1.2-.5-2.45-1.04-3.62,1.11,1.24,4.14,4.63,4.15,4.64l.16.18c1.64,1.83,2.06,2.42.95,3.91-.91,1.22-2.2,2.14-3.65,2.6-.39.12-1.55.29-2.52.36.47-.73.73-1.36.91-1.8.04-.11.08-.2.12-.29.86-1.91,1.18-3.97.92-5.98ZM439.55,227.56c.19-.52-.08-1.09-.6-1.28-.52-.19-1.09.08-1.28.6-1.68,4.64-1.08,9.94,1.24,14.74-.27.11-.55.24-.81.33-1.4.48-2.94.33-4.23-.42-11.33-6.61-24.95-15.65-40.04-32.49-11.85-13.24-21.01-26.96-27.98-41.95-.94-2.01-.58-4.37.9-6.02,2.12-2.35,4.38-4.53,6.71-6.46.26-.21.39-.54.36-.87s-.23-.62-.52-.78c-2.62-1.41-5.31-8.4-5.98-11.08-2.1-8.3-5.52-16.48-10.18-24.29l-.32-.54c-1.9-3.17-7.67-12.82-4.52-15.75.49-.46.88-.47,1.12-.44,1.64.2,3.72,3.37,4.84,5.08.3.45.55.84.77,1.15-.43.47-.76.92-.99,1.37-.63,1.2-.37,2.84.57,3.57.3.23,1.39.9,2.79-.35.48-.42.79-1.01.86-1.65.12-1.04-.18-1.91-.61-2.65,1.85-1.44,4.44-2.66,6.12-3.07,1.65-.4,2.67.17,2.95.91.28.76-.11,1.87-1.62,2.64-.38.19-.89.32-1.43.45-1.3.32-3.08.75-3.59,2.68-.4,1.53.16,2.97,1.49,3.85,1.51,1,3.57.98,4.92-.05,1.31-1,2.03-2.63,1.92-4.36l-.03-.4c-.08-1-.11-1.65.32-2.17.55-.67,1.6-.79,2.44-.29,2.38,1.43,1.44,4.59.23,6.98-1.68,3.33-2.37,6.4-2.29,10.27.08,4.29,1.32,11.09,4.54,16.13,2.62,4.11,7.81,5.71,12.34,3.79,6.78-2.87,14.12-4.95,21.89-7.15l.68-.19c-.03.18-.08.35-.1.54-.45,3.63.48,6.84,2.71,9.27,2.12,2.31,5.31,3.72,8.7,3.88-.35,3.89.21,7.64,1.61,10.65,2.23,4.82,7.57,9.83,13.46,10.09.63.03,1.26-.01,1.88-.11-.69,7.35.29,16.33,5.03,21.01,2.12,2.09,4.73,3.07,7.8,2.95-1.6,8.9-1.42,20.07,2.74,28.73-.05.07-.1.13-.13.2-.59,1.51-2.49,4.39-5.44,7.67-1.98-4.23-1.78-7.97.6-11.67.3-.46.17-1.08-.3-1.38-.46-.3-1.08-.17-1.38.3-3.02,4.69-3.03,9.59-.03,14.98,3.18,5.73,11.74,8.14,18.69,8.48,2.1.1,3.95.27,5.26,1.3,1.21.94,1.65,1.96,1.32,3.01-.48,1.51-2.51,2.87-4.43,2.97-.77.04-1.64.05-2.54.02-.99-1.78-3.02-3.44-5.01-4.23-2.07-.82-3.79-.54-4.7.79-.83,1.21-.62,2.16-.3,2.74,1.07,1.93,5.34,2.51,8.63,2.66.01.12.01.23,0,.34-.11.75-1.28,1.26-3.19,1.41-4.11.31-8.44-.58-12.19-2.51-9.44-4.86-14.67-15.6-11.66-23.93ZM370.42,110.57c.07,1.03-.37,2.04-1.14,2.63-.66.51-1.8.49-2.6-.03-.43-.28-.89-.81-.66-1.68.18-.71.79-.92,2.13-1.25.63-.15,1.28-.31,1.87-.61.11-.06.22-.12.32-.18.01.26.03.51.05.75l.03.37ZM465.41,250.15c-2.75-.24-5.26-.75-5.69-1.53-.09-.16.06-.43.2-.63.2-.29.54-.38.9-.38.52,0,1.1.2,1.41.32,1.18.47,2.35,1.32,3.18,2.22ZM465.7,291.76c-.92.37-1.92.58-2.97.58s-2.14-.22-3.1-.62h0c-2.85-1.22-4.85-4.04-4.85-7.33,0-4.26,3.34-7.73,7.55-7.94.14-.01.27-.01.41-.01.05,0,.1,0,.15,0,4.32.08,7.8,3.6,7.8,7.95,0,3.34-2.06,6.2-4.98,7.38Z"/>
  <path class="cls-1" d="M114.84,356.31c-2.53,0-5.34.22-8.01.22-2.24,0-3.97-.22-4.84-.22-1.08,0-1.59.65-1.59,1.45,0,2.45,3.25.86,3.25,5.7v37.26c0,4.84-3.25,3.32-3.25,5.78,0,.79.51,1.37,1.59,1.37.87,0,2.6-.22,4.84-.22,3.1,0,6.28.22,8.09.22,13.65,0,20.43-11.12,20.43-25.27,0-16.68-8.59-26.28-20.51-26.28ZM114.98,404.11h-.79c-3.75,0-4.19-1.37-4.19-3.54v-36.9c0-3.11,1.73-3.47,4.19-3.47h.58c8.3,0,13.65,7.44,13.65,22.38,0,13.29-4.84,21.52-13.43,21.52Z"/>
  <path class="cls-1" d="M169.44,393.64c-.79,0-1.37.58-2.09,1.73-3.39,5.7-5.7,8.66-9.68,8.66h-5.13c-3.39,0-3.68-1.15-3.68-3.54v-15.45c0-1.3.58-1.59,1.45-1.59h4.19c3.03,0,2.6,5.56,4.62,5.56.87,0,1.3-.58,1.3-2.02,0-1.59-.14-3.47-.14-5.34s.14-3.61.14-5.27c0-1.37-.43-1.95-1.3-1.95-2.02,0-1.66,5.41-4.62,5.41h-4.19c-.87,0-1.45-.21-1.45-1.52v-14.58c0-3.18,1.16-3.54,3.68-3.54h3.61c2.82,0,4.62.44,9.39,8.16.65,1.01,1.08,1.59,1.88,1.59.65,0,1.37-.51,1.37-1.37s-.51-2.31-1.45-4.84l-1.81-5.2c-1.01-2.82-1.23-3.54-2.31-3.54-1.37,0-1.52,1.52-3.11,1.52h-14.44c-2.24,0-3.9-.22-4.77-.22-1.08,0-1.59.65-1.59,1.45,0,2.45,3.18.86,3.18,5.7v37.26c0,4.84-3.18,3.32-3.18,5.78,0,.79.43,1.37,1.59,1.37.87,0,2.53-.22,4.77-.22h16.03c1.81,0,1.95,1.52,3.39,1.52,1.01,0,1.52-1.23,2.09-2.81l2.09-5.99c1.01-2.89,1.37-4.26,1.37-5.34,0-.8-.43-1.37-1.23-1.37Z"/>
  <path class="cls-1" d="M189.74,375.8c-5.27-3.47-8.23-6.57-8.23-10.33,0-3.1,1.81-5.92,5.27-5.92,4.12,0,7.65,3.97,10.61,8.74.58.94.94,1.15,1.59,1.15.72,0,1.37-.43,1.37-1.37s-.51-2.38-1.88-5.78l-1.73-4.33c-.58-1.73-1.01-2.67-2.24-2.67-1.3,0-1.44,1.66-2.24,1.66-.94,0-2.67-1.44-6.35-1.44-5.49,0-10.54,4.77-10.54,11.7s5.27,11.19,11.55,15.38c5.34,3.68,10.18,7,10.18,13.65,0,5.56-3.03,8.52-7.22,8.52-4.69,0-8.59-4.48-11.99-10.4-.72-1.3-1.16-1.95-2.02-1.95-.79,0-1.3.65-1.3,1.52,0,.72.22,1.73,1.52,6.28l1.73,6.14c.43,1.52,1.01,2.6,2.09,2.6,1.59,0,1.66-2.24,2.82-2.24,1.08,0,3.61,1.95,7.73,1.95,7.36,0,12.56-6.06,12.56-14.22,0-10.04-7.87-15.02-13.29-18.63Z"/>
  <path class="cls-1" d="M222.49,375.8c-5.27-3.47-8.23-6.57-8.23-10.33,0-3.1,1.81-5.92,5.27-5.92,4.12,0,7.65,3.97,10.61,8.74.58.94.94,1.15,1.59,1.15.72,0,1.37-.43,1.37-1.37s-.51-2.38-1.88-5.78l-1.73-4.33c-.58-1.73-1.01-2.67-2.24-2.67-1.3,0-1.44,1.66-2.24,1.66-.94,0-2.67-1.44-6.35-1.44-5.49,0-10.54,4.77-10.54,11.7s5.27,11.19,11.55,15.38c5.34,3.68,10.18,7,10.18,13.65,0,5.56-3.03,8.52-7.22,8.52-4.69,0-8.59-4.48-11.99-10.4-.72-1.3-1.16-1.95-2.02-1.95-.79,0-1.3.65-1.3,1.52,0,.72.22,1.73,1.52,6.28l1.73,6.14c.43,1.52,1.01,2.6,2.09,2.6,1.59,0,1.66-2.24,2.82-2.24,1.08,0,3.61,1.95,7.73,1.95,7.37,0,12.56-6.06,12.56-14.22,0-10.04-7.87-15.02-13.28-18.63Z"/>
  <path class="cls-1" d="M269.28,393.64c-.79,0-1.37.58-2.09,1.73-3.39,5.7-5.7,8.66-9.68,8.66h-5.13c-3.39,0-3.68-1.15-3.68-3.54v-15.45c0-1.3.58-1.59,1.45-1.59h4.19c3.03,0,2.6,5.56,4.62,5.56.87,0,1.3-.58,1.3-2.02,0-1.59-.14-3.47-.14-5.34s.14-3.61.14-5.27c0-1.37-.43-1.95-1.3-1.95-2.02,0-1.66,5.41-4.62,5.41h-4.19c-.87,0-1.45-.21-1.45-1.52v-14.58c0-3.18,1.16-3.54,3.68-3.54h3.61c2.82,0,4.62.44,9.39,8.16.65,1.01,1.08,1.59,1.88,1.59.65,0,1.37-.51,1.37-1.37s-.51-2.31-1.45-4.84l-1.81-5.2c-1.01-2.82-1.23-3.54-2.31-3.54-1.37,0-1.52,1.52-3.11,1.52h-14.44c-2.24,0-3.9-.22-4.77-.22-1.08,0-1.59.65-1.59,1.45,0,2.45,3.18.86,3.18,5.7v37.26c0,4.84-3.18,3.32-3.18,5.78,0,.79.43,1.37,1.59,1.37.87,0,2.53-.22,4.77-.22h16.03c1.81,0,1.95,1.52,3.39,1.52,1.01,0,1.52-1.23,2.09-2.81l2.09-5.99c1.01-2.89,1.37-4.26,1.37-5.34,0-.8-.43-1.37-1.23-1.37Z"/>
  <path class="cls-1" d="M300.55,399.41l-4.91-11.84c5.27-2.31,8.52-7.65,8.52-14.44,0-10.18-6.72-16.97-17.26-16.97-2.45,0-4.98.36-7.44.36-2.02,0-3.54-.22-4.4-.22-1.3,0-1.81.72-1.81,1.52,0,2.46,3.25.79,3.25,5.63v37.26c0,4.84-3.25,3.32-3.25,5.85,0,.65.43,1.3,1.44,1.3,1.15,0,2.67-.22,4.91-.22,2.38,0,3.9.22,5.05.22.94,0,1.44-.65,1.44-1.3,0-2.53-3.25-1.01-3.25-5.85v-10.61c0-1.23.58-1.52,1.3-1.45.94.07,2.82.07,4.62,0,.79-.07,1.16.29,1.66,1.37l3.97,9.82c.29.87.72,2.31.72,2.89,0,2.02-2.38,1.8-2.38,3.61,0,1.01.65,1.52,1.66,1.52,1.3,0,3.18-.22,5.2-.22,2.17,0,4.26.22,5.2.22.72,0,1.52-.51,1.52-1.37,0-2.24-3.32-1.37-5.78-7.08ZM286.47,385.04c-2.74,0-3.61-.72-3.61-3.1v-17.69c0-2.31.15-4.19,4.12-4.19,5.92,0,10.25,4.48,10.25,12.85,0,7.8-3.47,12.13-10.76,12.13Z"/>
  <path class="cls-1" d="M340.7,358.55c-.65-2.38-1.01-3.47-2.24-3.47-1.37,0-1.52,1.45-3.11,1.45h-19.5c-1.59,0-1.73-1.45-3.18-1.45-1.15,0-1.52,1.08-2.17,3.47l-1.52,5.2c-.79,2.74-1.08,3.75-1.08,4.69,0,.87.58,1.45,1.37,1.45s1.3-.51,1.88-1.52c3.61-6.5,5.34-8.16,8.16-8.16h.94c1.95,0,2.17,1.3,2.17,2.89v37.55c0,4.84-3.75,2.89-3.75,5.85,0,.72.58,1.37,1.59,1.37,1.3,0,2.96-.22,5.34-.22s3.97.22,5.34.22c.94,0,1.52-.65,1.52-1.37,0-2.96-3.68-1.01-3.68-5.85v-37.55c0-1.66.22-2.89,2.09-2.89h1.01c2.89,0,4.48,1.81,8.16,8.16.65,1.01,1.08,1.52,1.88,1.52s1.37-.58,1.37-1.45-.29-1.95-1.08-4.69l-1.52-5.2Z"/>
  <path class="cls-1" d="M396.44,357.68c0-.72-.51-1.37-1.44-1.37-1.16,0-2.67.22-4.98.22s-3.68-.22-4.91-.22c-.94,0-1.44.72-1.44,1.37,0,2.53,3.25.94,3.25,5.78v14.8c0,1.37-.65,1.59-1.52,1.59h-14.37c-.94,0-1.52-.21-1.52-1.59v-14.8c0-4.84,3.25-3.25,3.25-5.78,0-.72-.58-1.37-1.52-1.37-1.08,0-2.6.22-4.91.22s-3.61-.22-4.84-.22c-1.01,0-1.52.65-1.52,1.45,0,2.45,3.18.86,3.18,5.7v37.26c0,4.84-3.18,3.32-3.18,5.85,0,.65.43,1.3,1.44,1.3,1.15,0,2.67-.22,4.91-.22s3.83.22,4.91.22c1.01,0,1.52-.65,1.52-1.3,0-2.53-3.25-1.01-3.25-5.85v-15.67c0-1.3.58-1.59,1.52-1.59h14.37c.87,0,1.52.29,1.52,1.59v15.67c0,4.84-3.25,3.32-3.25,5.85,0,.65.43,1.3,1.44,1.3,1.23,0,2.67-.22,4.91-.22s3.83.22,4.98.22c.94,0,1.44-.65,1.44-1.3,0-2.53-3.18-1.01-3.18-5.85v-37.26c0-4.84,3.18-3.25,3.18-5.78Z"/>
  <path class="cls-1" d="M433.46,400.5l-7.44-29.24c-.79-3.11-1.81-6.86-2.89-11.77-.58-2.45-.79-3.39-4.26-3.39s-3.9.87-4.41,3.47c-1.08,4.91-2.09,8.38-2.89,11.7l-7.58,29.46c-1.23,4.69-3.9,3.68-3.9,5.85,0,.87.58,1.3,1.23,1.3,1.08,0,2.17-.22,3.83-.22,1.52,0,3.18.22,4.55.22,1.08,0,1.81-.51,1.81-1.52,0-1.73-3.32-1.59-3.32-4.05,0-.65.15-1.37.36-2.02l2.31-9.53c.36-1.37.87-1.52,1.66-1.52h10.25c.79,0,1.23.21,1.59,1.52l2.31,9.67c.15.65.29,1.08.29,1.95,0,2.38-3.25,2.17-3.25,3.97,0,1.01.72,1.52,1.73,1.52,1.44,0,3.54-.22,5.78-.22s3.61.22,4.41.22c.94,0,1.59-.58,1.59-1.45,0-2.17-2.6-1.15-3.75-5.92ZM421.76,385.55h-8.3c-.87,0-1.16-.14-.94-1.08l5.13-20.58,5.05,20.43c.29,1.08-.07,1.23-.94,1.23Z"/>
  <path class="cls-1" d="M468.8,356.31c-1.3,0-3.03.22-4.19.22-1.23,0-2.96-.22-4.19-.22-1.01,0-1.66.72-1.66,1.37,0,1.3.79,1.59,1.66,2.02,1.01.58,2.24,1.08,2.38,3.75l1.37,26.14c.07,1.3.22,3.54.22,4.33,0,7.44-3.75,10.25-9.03,10.25s-8.74-3.03-8.74-10.32c0-1.08.07-2.53.15-3.75l1.23-26.65c.15-2.81,1.23-3.32,2.24-3.82.72-.44,1.3-.8,1.3-1.95,0-.65-.43-1.37-1.37-1.37-1.3,0-3.03.22-5.27.22s-3.83-.22-4.98-.22c-.94,0-1.44.65-1.44,1.37,0,1.01.58,1.44,1.23,1.8.94.51,1.95,1.08,1.95,3.4,0,.79-.07,2.02-.15,3.03l-1.23,24.26c-.07,1.3-.15,3.11-.15,3.97,0,10.47,6.5,14.8,14.22,14.8s14.15-4.33,14.15-14.58c0-.8-.07-2.82-.15-4.12l-1.37-24.33c-.07-1.01-.14-2.24-.14-3.03,0-2.31,1.08-2.82,2.09-3.4.65-.36,1.23-.79,1.23-1.8,0-.72-.43-1.37-1.37-1.37Z"/>
  <path class="cls-1" d="M489.27,375.8c-5.27-3.47-8.23-6.57-8.23-10.33,0-3.1,1.81-5.92,5.27-5.92,4.12,0,7.65,3.97,10.61,8.74.58.94.94,1.15,1.59,1.15.72,0,1.37-.43,1.37-1.37s-.51-2.38-1.88-5.78l-1.73-4.33c-.58-1.73-1.01-2.67-2.24-2.67-1.3,0-1.44,1.66-2.24,1.66-.94,0-2.67-1.44-6.35-1.44-5.49,0-10.54,4.77-10.54,11.7s5.27,11.19,11.55,15.38c5.34,3.68,10.18,7,10.18,13.65,0,5.56-3.03,8.52-7.22,8.52-4.69,0-8.59-4.48-11.99-10.4-.72-1.3-1.16-1.95-2.02-1.95-.79,0-1.3.65-1.3,1.52,0,.72.22,1.73,1.52,6.28l1.73,6.14c.43,1.52,1.01,2.6,2.09,2.6,1.59,0,1.66-2.24,2.82-2.24,1.08,0,3.61,1.95,7.73,1.95,7.36,0,12.56-6.06,12.56-14.22,0-10.04-7.87-15.02-13.29-18.63Z"/>
  <path class="cls-1" d="M400.82,155.67c-2.69,1.72-4.24,4.08-3.48,5.28.76,1.19,3.56.77,6.25-.95,2.69-1.72,4.25-4.08,3.48-5.28-.76-1.19-3.56-.77-6.25.95Z"/>
  <path class="cls-1" d="M422.86,180.87c-2.58,1.57-5.94.85-7.63-1.64-1.67-2.45-1.14-5.82,1.2-7.65.43-.34.51-.97.17-1.4s-.97-.51-1.4-.17c-3.17,2.48-3.88,7.03-1.62,10.35,1.48,2.17,3.88,3.34,6.33,3.34,1.36,0,2.74-.36,3.99-1.12.47-.29.62-.9.34-1.37-.29-.47-.9-.62-1.37-.34Z"/>
  <path class="cls-1" d="M403.71,178.89c-2.64,1.48-5.96.64-7.57-1.91-1.58-2.51-.94-5.85,1.47-7.61.45-.32.54-.95.22-1.4-.33-.45-.95-.54-1.4-.22-3.26,2.37-4.13,6.89-1.99,10.29,1.45,2.3,3.93,3.57,6.48,3.57,1.27,0,2.56-.32,3.75-.98.48-.27.65-.88.38-1.36-.27-.48-.88-.66-1.36-.38Z"/>
</svg>