<?xml version="1.0" encoding="UTF-8"?>
<svg id="Layer_1" data-name="Layer 1" xmlns="http://www.w3.org/2000/svg" viewBox="0 0 629.99 498.32">
  <defs>
    <style>
      .cls-1 {
        fill: #fcec60;
        stroke: #7ab4d2;
        stroke-miterlimit: 10;
        stroke-width: 5px;
      }

      .cls-2 {
        fill: #7ab4d2;
      }
    </style>
  </defs>
  <rect class="cls-1" x="4.09" y="70.23" width="618.51" height="347.46" rx="76.2" ry="76.2"/>
  <g>
    <g>
      <path class="cls-2" d="M180.61,165.35h-25.79c-.26,23.33-5.7,32.79-16.72,35.64v-35.64h-25.92v90.72h25.92v-35.38h.05c2.97-.23,5.71,1.58,6.65,4.4l10.4,30.98h28.38l-16.85-47.3c9.2-9.2,13.87-23.59,13.87-43.41Z"/>
      <path class="cls-2" d="M257.41,194.51c0-17.24-14.25-29.16-34.21-29.16h-33.05v90.72h25.92v-31.75c2.57,0,4.86,1.61,5.73,4.03l9.95,27.72h28.12l-14.64-38.1c7.65-5.32,12.18-13.61,12.18-23.46ZM224.17,203.58c-.38,0-.76-.03-1.12-.08-3.94-.55-6.98-3.93-6.98-8.02s3.07-7.51,7.04-8.03c.15-.02.29-.04.44-.05,3.94-.3,7.51,2.17,8.47,6.01,1.33,5.36-2.69,10.17-7.84,10.17Z"/>
      <path class="cls-2" d="M267.22,256.07h56.24v-24.62h-24.88c-3.01,0-5.44-2.44-5.44-5.44v1.04c0-3.01,2.44-6.74,5.44-6.74h20.99v-22.03h-20.99c-3.01,0-5.44-2.44-5.44-5.44s2.44-5.44,5.44-5.44h24.88v-22.03h-56.24v90.72Z"/>
      <path class="cls-2" d="M435.34,165.35h-40.31c-.07,0-.12.05-.14.11l-9.56,47.81c-.03.15-.24.15-.27,0l-9.56-47.81c-.01-.06-.07-.11-.14-.11h-41.35c-.08,0-.14.06-.14.14v90.44c0,.08.06.14.14.14h24.99c.08,0,.14-.06.14-.14v-30.41c0-4.84,6.94-5.63,8.03-.91l7.24,31.36c.01.06.07.11.13.11h20.38c.06,0,.12-.04.13-.11l7.02-31.3c1.07-4.79,8.12-4.01,8.12.9v30.37c0,.08.06.14.14.14h25c.08,0,.14-.06.14-.14v-90.44c0-.08-.06-.14-.14-.14Z"/>
      <path class="cls-2" d="M505.06,184.41c-2.57-11.15-12.49-19.06-23.94-19.06h0c-11.46,0-21.39,7.92-23.95,19.09l-16.37,71.63h27.74l2.46-14.39h20.09l2.72,14.39h27.74l-16.49-71.66ZM484.01,203c-.94.38-1.96.59-3.03.59s-2.18-.22-3.15-.64h0c-2.9-1.24-4.94-4.11-4.94-7.46,0-4.34,3.41-7.87,7.69-8.08.14-.01.27-.01.41-.01.05,0,.1,0,.15,0,4.4.08,7.94,3.66,7.94,8.09,0,3.4-2.1,6.32-5.07,7.51Z"/>
    </g>
    <g>
      <path class="cls-2" d="M118.54,321.01c-2.28,0-4.04.22-4.93.22-1.1,0-1.62-.59-1.62-1.4,0-2.5,3.31-.96,3.31-5.88v-37.94c0-4.93-3.31-3.31-3.31-5.81,0-.81.51-1.47,1.62-1.47.88,0,2.65.22,4.93.22,2.72,0,5.59-.22,8.16-.22,12.13,0,20.88,9.78,20.88,26.76,0,14.41-6.91,25.74-20.81,25.74-1.84,0-5.07-.22-8.23-.22ZM126.85,317.41c8.75,0,13.68-8.38,13.68-21.91,0-15.22-5.44-22.79-13.9-22.79h-.59c-2.5,0-4.26.37-4.26,3.53v37.57c0,2.21.44,3.61,4.26,3.61h.81Z"/>
      <path class="cls-2" d="M183.56,308.15c0,1.1-.37,2.5-1.4,5.44l-2.13,6.1c-.59,1.62-1.1,2.87-2.13,2.87-1.47,0-1.62-1.54-3.46-1.54h-16.32c-2.28,0-3.97.22-4.85.22-1.18,0-1.62-.59-1.62-1.4,0-2.5,3.24-.96,3.24-5.88v-37.94c0-4.93-3.24-3.31-3.24-5.81,0-.81.51-1.47,1.62-1.47.88,0,2.57.22,4.85.22h14.71c1.62,0,1.77-1.54,3.16-1.54,1.1,0,1.32.73,2.35,3.6l1.84,5.3c.96,2.57,1.47,4.04,1.47,4.92s-.74,1.4-1.4,1.4c-.81,0-1.25-.59-1.91-1.62-4.85-7.87-6.69-8.31-9.56-8.31h-3.68c-2.57,0-3.75.37-3.75,3.61v14.85c0,1.33.59,1.54,1.47,1.54h4.26c3.01,0,2.65-5.51,4.71-5.51.88,0,1.32.59,1.32,1.99,0,1.69-.15,3.53-.15,5.37s.15,3.82.15,5.44c0,1.47-.44,2.06-1.32,2.06-2.06,0-1.62-5.66-4.71-5.66h-4.26c-.88,0-1.47.3-1.47,1.62v15.74c0,2.43.29,3.6,3.75,3.6h5.22c4.04,0,6.4-3.02,9.85-8.82.74-1.18,1.32-1.77,2.13-1.77s1.25.59,1.25,1.4Z"/>
      <path class="cls-2" d="M190.85,319.69l-1.77-6.25c-1.32-4.63-1.54-5.66-1.54-6.4,0-.88.51-1.54,1.32-1.54.88,0,1.32.66,2.06,1.99,3.46,6.03,7.43,10.59,12.21,10.59,4.26,0,7.35-3.02,7.35-8.68,0-6.77-4.93-10.15-10.37-13.9-6.4-4.26-11.77-8.82-11.77-15.66s5.15-11.91,10.74-11.91c3.75,0,5.52,1.47,6.47,1.47.81,0,.96-1.69,2.28-1.69,1.25,0,1.69.95,2.28,2.72l1.76,4.41c1.4,3.46,1.91,4.93,1.91,5.88s-.66,1.4-1.4,1.4c-.66,0-1.03-.22-1.62-1.18-3.01-4.85-6.62-8.9-10.81-8.9-3.53,0-5.37,2.87-5.37,6.03,0,3.82,3.01,6.99,8.38,10.52,5.52,3.68,13.53,8.75,13.53,18.97,0,8.31-5.29,14.49-12.79,14.49-4.19,0-6.76-1.99-7.87-1.99-1.18,0-1.25,2.28-2.87,2.28-1.1,0-1.69-1.1-2.13-2.64Z"/>
      <path class="cls-2" d="M224.2,319.69l-1.77-6.25c-1.32-4.63-1.54-5.66-1.54-6.4,0-.88.51-1.54,1.32-1.54.88,0,1.32.66,2.06,1.99,3.46,6.03,7.43,10.59,12.21,10.59,4.26,0,7.35-3.02,7.35-8.68,0-6.77-4.93-10.15-10.37-13.9-6.4-4.26-11.77-8.82-11.77-15.66s5.15-11.91,10.74-11.91c3.75,0,5.52,1.47,6.47,1.47.81,0,.96-1.69,2.28-1.69,1.25,0,1.69.95,2.28,2.72l1.76,4.41c1.4,3.46,1.91,4.93,1.91,5.88s-.66,1.4-1.4,1.4c-.66,0-1.03-.22-1.62-1.18-3.01-4.85-6.62-8.9-10.81-8.9-3.53,0-5.37,2.87-5.37,6.03,0,3.82,3.01,6.99,8.38,10.52,5.51,3.68,13.53,8.75,13.53,18.97,0,8.31-5.29,14.49-12.79,14.49-4.19,0-6.76-1.99-7.87-1.99-1.18,0-1.25,2.28-2.87,2.28-1.1,0-1.69-1.1-2.13-2.64Z"/>
      <path class="cls-2" d="M285.23,308.15c0,1.1-.37,2.5-1.4,5.44l-2.13,6.1c-.59,1.62-1.1,2.87-2.13,2.87-1.47,0-1.62-1.54-3.46-1.54h-16.32c-2.28,0-3.97.22-4.85.22-1.18,0-1.62-.59-1.62-1.4,0-2.5,3.24-.96,3.24-5.88v-37.94c0-4.93-3.24-3.31-3.24-5.81,0-.81.51-1.47,1.62-1.47.88,0,2.57.22,4.85.22h14.71c1.62,0,1.77-1.54,3.16-1.54,1.1,0,1.32.73,2.35,3.6l1.84,5.3c.96,2.57,1.47,4.04,1.47,4.92s-.74,1.4-1.4,1.4c-.81,0-1.25-.59-1.91-1.62-4.85-7.87-6.69-8.31-9.56-8.31h-3.68c-2.57,0-3.75.37-3.75,3.61v14.85c0,1.33.59,1.54,1.47,1.54h4.26c3.01,0,2.65-5.51,4.71-5.51.88,0,1.32.59,1.32,1.99,0,1.69-.15,3.53-.15,5.37s.15,3.82.15,5.44c0,1.47-.44,2.06-1.32,2.06-2.06,0-1.62-5.66-4.71-5.66h-4.26c-.88,0-1.47.3-1.47,1.62v15.74c0,2.43.29,3.6,3.75,3.6h5.22c4.04,0,6.4-3.02,9.85-8.82.74-1.18,1.32-1.77,2.13-1.77s1.25.59,1.25,1.4Z"/>
      <path class="cls-2" d="M321.71,319.84c0,.88-.81,1.4-1.54,1.4-.96,0-3.09-.22-5.29-.22-2.06,0-3.97.22-5.3.22-1.03,0-1.69-.51-1.69-1.54,0-1.84,2.43-1.62,2.43-3.68,0-.59-.44-2.06-.74-2.94l-4.04-10c-.51-1.1-.88-1.47-1.69-1.4-1.84.07-3.75.07-4.71,0-.73-.07-1.32.22-1.32,1.47v10.81c0,4.92,3.31,3.38,3.31,5.95,0,.66-.51,1.33-1.47,1.33-1.18,0-2.72-.22-5.15-.22-2.28,0-3.82.22-5,.22-1.03,0-1.47-.66-1.47-1.33,0-2.57,3.31-1.03,3.31-5.95v-37.94c0-4.93-3.31-3.23-3.31-5.74,0-.81.51-1.54,1.84-1.54.88,0,2.43.22,4.48.22,2.5,0,5.07-.37,7.57-.37,10.74,0,17.58,6.91,17.58,17.28,0,6.91-3.31,12.35-8.68,14.7l5,12.06c2.5,5.81,5.88,4.93,5.88,7.21ZM312.44,285.65c0-8.53-4.41-13.09-10.44-13.09-4.04,0-4.19,1.91-4.19,4.27v18.01c0,2.43.88,3.16,3.68,3.16,7.43,0,10.96-4.41,10.96-12.35Z"/>
      <path class="cls-2" d="M334.29,319.84c0-3.02,3.82-1.03,3.82-5.96v-38.24c0-1.62-.22-2.94-2.21-2.94h-.96c-2.87,0-4.63,1.69-8.31,8.31-.59,1.03-1.1,1.55-1.91,1.55s-1.4-.59-1.4-1.47c0-.95.29-1.99,1.1-4.78l1.54-5.3c.66-2.43,1.03-3.53,2.21-3.53,1.47,0,1.62,1.47,3.24,1.47h19.85c1.62,0,1.77-1.47,3.16-1.47,1.25,0,1.62,1.1,2.28,3.53l1.54,5.3c.81,2.79,1.1,3.9,1.1,4.78s-.59,1.47-1.4,1.47-1.25-.51-1.91-1.55c-3.75-6.47-5.37-8.31-8.31-8.31h-1.03c-1.91,0-2.13,1.25-2.13,2.94v38.24c0,4.93,3.75,2.94,3.75,5.96,0,.74-.59,1.4-1.54,1.4-1.4,0-2.94-.22-5.44-.22s-4.12.22-5.44.22c-1.03,0-1.62-.66-1.62-1.4Z"/>
      <path class="cls-2" d="M413.48,319.91c0,.66-.51,1.33-1.47,1.33-1.18,0-2.72-.22-5.07-.22s-3.75.22-5,.22c-1.03,0-1.47-.66-1.47-1.33,0-2.57,3.31-1.03,3.31-5.95v-15.96c0-1.32-.66-1.62-1.54-1.62h-14.63c-.96,0-1.55.3-1.55,1.62v15.96c0,4.92,3.31,3.38,3.31,5.95,0,.66-.51,1.33-1.54,1.33-1.1,0-2.65-.22-5-.22s-3.82.22-5,.22c-1.03,0-1.47-.66-1.47-1.33,0-2.57,3.24-1.03,3.24-5.95v-37.94c0-4.93-3.24-3.31-3.24-5.81,0-.81.51-1.47,1.54-1.47,1.25,0,2.65.22,4.93.22s3.9-.22,5-.22c.96,0,1.54.66,1.54,1.4,0,2.57-3.31.95-3.31,5.88v15.08c0,1.4.59,1.62,1.55,1.62h14.63c.88,0,1.54-.22,1.54-1.62v-15.08c0-4.93-3.31-3.31-3.31-5.88,0-.66.51-1.4,1.47-1.4,1.25,0,2.72.22,5,.22s3.9-.22,5.07-.22c.96,0,1.47.66,1.47,1.4,0,2.57-3.24.95-3.24,5.88v37.94c0,4.92,3.24,3.38,3.24,5.95Z"/>
      <path class="cls-2" d="M455,319.76c0,.88-.66,1.47-1.62,1.47-.81,0-2.13-.22-4.49-.22s-4.41.22-5.88.22c-1.03,0-1.77-.51-1.77-1.54,0-1.84,3.31-1.62,3.31-4.04,0-.88-.15-1.33-.29-1.99l-2.35-9.85c-.37-1.33-.81-1.54-1.62-1.54h-10.44c-.81,0-1.32.15-1.69,1.54l-2.35,9.71c-.22.66-.37,1.4-.37,2.06,0,2.5,3.38,2.35,3.38,4.12,0,1.03-.74,1.54-1.84,1.54-1.4,0-3.09-.22-4.63-.22-1.69,0-2.79.22-3.9.22-.66,0-1.25-.44-1.25-1.33,0-2.2,2.72-1.18,3.97-5.95l7.72-30c.81-3.38,1.84-6.91,2.94-11.91.51-2.65.88-3.53,4.49-3.53s3.75.96,4.34,3.46c1.1,5,2.13,8.83,2.94,11.99l7.57,29.78c1.18,4.85,3.82,3.82,3.82,6.03ZM440.22,297.26l-5.15-20.81-5.22,20.95c-.22.96.07,1.1.96,1.1h8.46c.88,0,1.25-.15.96-1.25Z"/>
      <path class="cls-2" d="M457.97,307.26c0-.88.07-2.72.15-4.04l1.25-24.71c.07-1.03.15-2.28.15-3.09,0-2.35-1.03-2.94-1.99-3.46-.66-.37-1.25-.81-1.25-1.84,0-.74.51-1.4,1.47-1.4,1.18,0,2.72.22,5.07.22s4.04-.22,5.37-.22c.96,0,1.4.74,1.4,1.4,0,1.18-.59,1.54-1.32,1.99-1.03.51-2.13,1.03-2.28,3.9l-1.25,27.14c-.07,1.25-.15,2.72-.15,3.82,0,7.43,3.31,10.51,8.9,10.51s9.19-2.87,9.19-10.44c0-.81-.15-3.09-.22-4.41l-1.4-26.62c-.15-2.72-1.4-3.23-2.43-3.82-.88-.44-1.69-.74-1.69-2.06,0-.66.66-1.4,1.69-1.4,1.25,0,3.02.22,4.26.22,1.18,0,2.94-.22,4.26-.22.96,0,1.4.66,1.4,1.4,0,1.03-.59,1.47-1.25,1.84-1.03.59-2.13,1.1-2.13,3.46,0,.81.07,2.06.15,3.09l1.4,24.78c.07,1.32.15,3.38.15,4.19,0,10.44-6.4,14.85-14.41,14.85s-14.49-4.41-14.49-15.07Z"/>
      <path class="cls-2" d="M495.88,319.69l-1.77-6.25c-1.32-4.63-1.54-5.66-1.54-6.4,0-.88.51-1.54,1.32-1.54.88,0,1.32.66,2.06,1.99,3.46,6.03,7.43,10.59,12.21,10.59,4.26,0,7.35-3.02,7.35-8.68,0-6.77-4.93-10.15-10.37-13.9-6.4-4.26-11.77-8.82-11.77-15.66s5.15-11.91,10.74-11.91c3.75,0,5.52,1.47,6.47,1.47.81,0,.96-1.69,2.28-1.69,1.25,0,1.69.95,2.28,2.72l1.76,4.41c1.4,3.46,1.91,4.93,1.91,5.88s-.66,1.4-1.4,1.4c-.66,0-1.03-.22-1.62-1.18-3.01-4.85-6.62-8.9-10.81-8.9-3.53,0-5.37,2.87-5.37,6.03,0,3.82,3.01,6.99,8.38,10.52,5.52,3.68,13.53,8.75,13.53,18.97,0,8.31-5.29,14.49-12.79,14.49-4.19,0-6.76-1.99-7.87-1.99-1.18,0-1.25,2.28-2.87,2.28-1.1,0-1.69-1.1-2.13-2.64Z"/>
    </g>
  </g>
</svg>