<?xml version="1.0" encoding="UTF-8"?>
<svg id="Layer_1" data-name="Layer 1" xmlns="http://www.w3.org/2000/svg" viewBox="0 0 466.37 485.37">
  <defs>
    <style>
      .cls-1 {
        fill: #7ab4d2;
      }

      .cls-2 {
        fill: #101010;
      }
    </style>
  </defs>
  <path class="cls-1" d="M365.57,252.98c-4.61,12.7-17.61,13.27-23.86,13.54-5.45.24-10.17,1.27-14.44,3.13-8.57,3.75-17.26,11.47-22.99,20.36-.16,1.68-.32,3.36-.48,5.05-1.26,13.37-6.15,25.6-13.61,35.75,2.8,4.6,5.23,9.57,7.11,13.67.45-.2.89-.39,1.35-.57,6.66-2.52,14.14-2.26,20.04.67,5.26,2.62,9.09,7.25,10.8,13.04,5.32,18.2-13.15,26.94-21.05,30.66l-.15.07c-.61.29-1.18.56-1.71.82-3.94,1.93-8.07,3.61-12.27,5.01-1.46.48-2.98.72-4.51.72-5.13,0-9.91-2.75-12.48-7.17-1.84-3.16-4.5-7.66-7.4-12.55l-.06-.11c-4.01-6.76-8.33-14.05-11.65-19.82-7.69,2.96-15.99,4.65-24.66,4.8l-.6.02h-.06s-.59-.02-.59-.02c-8.97-.17-17.53-2-25.41-5.18-5.79,10.52-14.15,25.51-18.38,32.71-2.57,4.4-7.36,7.13-12.5,7.12-1.53,0-3.03-.25-4.47-.72-4.22-1.41-8.36-3.12-12.3-5.06-.54-.27-1.13-.55-1.76-.85-7.97-3.79-26.42-12.58-21.04-30.77,1.72-5.79,5.57-10.41,10.83-13.01,5.91-2.91,13.4-3.14,20.04-.6.46.18.91.36,1.36.57,1.89-4.07,4.32-9.02,7.12-13.59-7.45-10.2-12.31-22.46-13.53-35.86-.16-1.8-.32-3.57-.48-5.34-5.71-8.79-14.28-16.41-22.75-20.15-4.26-1.88-8.98-2.92-14.42-3.18-6.25-.29-19.25-.91-23.82-13.62-1.63-4.53-1.28-9.46.96-13.52,1.46-2.66,4.49-6.25,10.56-8.26,1.21-.4,2.46-.72,3.71-.94,2.29-3.42,5.95-5.85,10.37-6.89,11.97-2.81,23.51,4.7,29.32,9.43.29.22.56.45.84.66-.37-3.98-.74-8-1.11-12.06-4.08-4.66-6.49-10.59-6.74-16.78-.29-7.22,2.34-13.97,7.43-19.01,1.32-1.32,2.8-2.49,4.39-3.49.04-1.94.35-3.93.91-5.91,4.69-16.58,22.37-21.2,32.92-23.95,8.29-2.16,17.25-3.54,27.76-4.27l5.59-27.5c.78-3.82,1.84-9.03,4.97-13.77-.24-2.33.16-4.73,1.14-6.97,2.44-5.56,8.13-9.08,14.36-8.8.7.03,1.39.05,2.08.08,4.21.14,8.98.3,13.92,1.75,3.5,1.04,12.79,3.77,14.61,14.33.72,4.18-.05,7.8-.6,10.44l-7.55,35.73c8.07,2.65,15.58,6.17,22.2,10.48,21.22,13.86,28.7,34.47,19.51,53.77-.4.83-.83,1.62-1.3,2.37-.44,4.66-.89,9.32-1.34,13.97.34-.26.67-.53,1.01-.8,5.83-4.71,17.4-12.18,29.36-9.33,4.43,1.06,8.08,3.5,10.35,6.93,1.26.23,2.51.55,3.72.96,6.06,2.03,9.07,5.63,10.53,8.3,2.22,4.07,2.55,9,.91,13.53Z"/>
  <g>
    <path class="cls-2" d="M244.74,276.91c-.84-.05-1.56.59-1.61,1.43-.33,5.35-4.74,9.51-10.07,9.51h-.09c-5.3-.05-9.68-4.24-9.99-9.54-.05-.84-.77-1.48-1.61-1.43-.84.05-1.48.77-1.43,1.61.4,6.9,6.11,12.35,13,12.41.04,0,.08,0,.12,0,6.94,0,12.69-5.41,13.11-12.37.05-.84-.59-1.56-1.43-1.61Z"/>
    <path class="cls-2" d="M268.48,266.53c.05.81.72,1.43,1.52,1.43.03,0,.06,0,.09,0,.84-.05,1.48-.77,1.43-1.61-.4-6.9-6.11-12.35-13-12.41-6.94-.06-12.8,5.37-13.23,12.37-.05.84.59,1.56,1.43,1.61.84.06,1.56-.59,1.61-1.43.33-5.38,4.84-9.57,10.16-9.51,5.3.04,9.68,4.24,9.99,9.54Z"/>
    <path class="cls-2" d="M220.86,266.27c-.4-6.9-6.11-12.35-13-12.41-7.02-.05-12.8,5.37-13.23,12.37-.05.84.59,1.56,1.43,1.61.85.05,1.56-.59,1.61-1.43.33-5.35,4.75-9.51,10.08-9.51h.09c5.3.05,9.68,4.24,9.99,9.54.05.81.72,1.43,1.52,1.43.03,0,.06,0,.09,0,.84-.05,1.48-.77,1.43-1.61Z"/>
    <path class="cls-2" d="M356.61,243.86c-.98-1.78-2.79-3.13-5.39-4-2.43-.81-5.03-1.08-7.59-.85.04-.38.05-.76.02-1.12-.22-3.24-3.22-5.09-5.72-5.69-8.14-1.94-16.94,3.89-21.47,7.54-1.83,1.47-3.5,2.76-5.12,4.01-4.78,3.68-8.77,6.75-12.98,11.77.13-1.33.26-2.65.38-3.98,1.13-11.81,2.26-23.55,3.38-35.35.74-.94,1.39-1.97,1.92-3.08,8.45-17.74-2.85-33.4-16.24-42.15-8.05-5.26-17.62-9.21-27.93-11.7l9.32-44.09c.45-2.13.96-4.54.54-6.98-.85-4.93-5.07-6.17-8.16-7.08-3.82-1.12-7.79-1.26-11.64-1.39-.73-.02-1.45-.05-2.17-.08-2.4-.1-4.64,1.23-5.56,3.33-.81,1.84-.44,3.66.99,5.24-.76.58-1.45,1.24-2.05,1.98-2.79,3.44-3.71,8-4.46,11.67l-6.78,33.37c-.07.35-.15.72-.23,1.08-13.05.51-23.53,1.89-33,4.37-9.77,2.55-23.16,6.04-26.42,17.57-.94,3.31-.72,6.33.65,8.98-3.13.63-6.03,2.17-8.32,4.44-3.23,3.21-4.91,7.51-4.72,12.12.21,5.01,2.56,9.77,6.46,13.06-.02.11-.02.23-.01.35,1.09,11.92,2.16,23.45,3.23,35.02.09.96.18,1.93.27,2.89-4.13-4.91-8.06-7.96-12.76-11.6-1.62-1.25-3.29-2.55-5.11-4.03-4.51-3.67-13.3-9.53-21.44-7.62-2.5.59-5.51,2.42-5.74,5.67-.03.37-.02.74.02,1.12-2.56-.24-5.16.03-7.59.83-2.6.86-4.42,2.2-5.4,3.98-.95,1.73-1.09,3.97-.36,6,2.49,6.94,10.39,7.31,15.61,7.56,6.6.31,12.38,1.6,17.7,3.95,10.64,4.7,21.36,14.46,27.95,25.49,0,.01.02.02.03.03.23,2.49.46,4.99.69,7.52,1.27,13.95,7.04,26.49,15.82,36.23-5.48,6.94-10.34,18-13.94,26.19-.45,1.02-.87,1.98-1.26,2.86-1.37-2.39-3.83-5.41-7.99-7-4.23-1.62-9.09-1.52-12.69.26-2.99,1.48-5.1,4.03-6.1,7.39-3.16,10.67,8.9,16.41,16.11,19.84.69.33,1.35.64,1.95.94,3.57,1.76,7.31,3.31,11.12,4.58.54.18,1.09.26,1.63.26,1.82,0,3.58-.96,4.54-2.59,5.38-9.18,17.61-31.23,22.42-40.12,8.76,4.94,18.81,7.83,29.5,8.04h.46s.43,0,.43,0c10.34-.17,20.1-2.86,28.66-7.48,2.81,5.24,9.64,16.78,15.68,26.98,2.94,4.97,5.65,9.54,7.52,12.75.95,1.64,2.71,2.6,4.54,2.6.54,0,1.09-.08,1.62-.26,3.81-1.26,7.55-2.79,11.13-4.54.61-.3,1.28-.61,1.97-.94,7.21-3.41,19.28-9.11,16.16-19.78-.99-3.36-3.09-5.92-6.08-7.41-3.6-1.79-8.46-1.91-12.69-.3-4.17,1.58-6.64,4.59-8.01,6.98-.39-.88-.8-1.83-1.24-2.84-3.58-8.23-8.41-19.35-13.89-26.3,8.79-9.7,14.59-22.21,15.91-36.14.23-2.45.46-4.87.69-7.3.07-.08.15-.16.2-.25,6.64-11,17.38-20.73,28.04-25.4,5.32-2.33,11.11-3.6,17.71-3.89,5.22-.23,13.12-.58,15.64-7.51.73-2.02.61-4.26-.34-6ZM297.7,224.9c-5.78,8.22-20.39,6.25-32.13,4.66-.43-.06-.84-.11-1.26-.17,5.83-.65,11.16-1.49,16.2-2.55,5.72-1.2,12.99-3.2,18.25-7.33-.16,1.63-.31,3.26-.47,4.89-.23.11-.43.27-.59.49ZM167.54,219.13c2.4,1.45,4.99,2.51,7.62,3.37-2.3-.16-4.68.03-7.24.77-.13-1.38-.25-2.75-.38-4.14ZM239.67,122.46c.71-3.51,1.52-7.5,3.84-10.35.62-.77,1.38-1.43,2.22-1.97,2.86,1.6,6.12,2.58,9.45,2.84,1.83.14,3.37-1.03,3.72-2.85.35-1.82-.68-3.54-2.44-4.09-3.54-1.11-7.36-.83-10.55.58-.96-.8-1.27-1.61-.91-2.42.42-.95,1.49-1.56,2.64-1.51.73.03,1.46.06,2.2.08,3.65.12,7.43.25,10.88,1.27,3.32.98,5.53,1.83,6.02,4.68.32,1.87-.1,3.89-.52,5.84l-9.31,44.04c-7.76-1.64-15.9-2.44-24.11-2.35.03-.13.06-.27.09-.4l6.78-33.37ZM249.59,108.61c1.92-.38,3.99-.29,5.96.33.37.12.4.4.36.62-.08.42-.38.4-.5.39-2-.15-3.97-.61-5.82-1.33ZM229.47,172.63c2.11-.17,4.26-.26,6.41-.26,6.08,0,12.21.71,17.84,2.29-.8,2.73-1.55,5.09-2.75,6.86h0c-1.5,2.19-3.68,3.38-7.08,3.84-4.6.63-12.26-.25-14.5-5.27-.25-.55-.37-1.19-.36-1.9.02-1.81.18-3.67.44-5.55ZM226.61,181.33c2.3,5.16,8.57,7.27,14.44,7.27,1.11,0,2.2-.08,3.25-.22,4.27-.58,7.18-2.22,9.18-5.14,1.46-2.14,2.28-4.71,3.15-7.67,2.16.75,4.23,1.65,6.17,2.7,2.99,1.62,4.91,4.16,5.12,6.79.18,2.32-.95,4.5-3.28,6.28-7.2,5.52-19.15,6.79-30.83,6.92-.17-.12-.37-.21-.59-.24-1.69-.3-3.46-.58-5.27-.86-7.95-1.23-16.96-2.63-22.94-7.39-2.1-1.68-3.02-3.46-2.71-5.29.57-3.41,5.06-6.73,9-8.13,4.43-1.57,9.6-2.74,15.07-3.39-.22,1.76-.36,3.5-.37,5.22,0,1.15.2,2.21.62,3.17ZM254.56,171.7c-7.88-2.24-16.48-2.79-24.6-2.2.49-2.72,1.11-5.47,1.72-8.17.16-.69.31-1.36.46-2.04,8.24-.14,16.42.64,24.2,2.28-.17,1.05-.33,2.09-.48,3.11-.34,2.33-.71,4.73-1.3,7.01ZM173.18,179.07c2.79-9.85,15.2-13.09,24.28-15.46,9.04-2.36,19.08-3.71,31.54-4.23-.1.43-.19.85-.29,1.28-.68,3.01-1.37,6.08-1.89,9.13-6.07.68-11.77,1.98-16.55,3.67-4.72,1.68-10.18,5.68-10.98,10.5-.35,2.07.04,5.17,3.82,8.18,3.34,2.66,7.39,4.35,11.66,5.53-9.22-.66-18.07-1.87-26.12-3.58-5.27-1.12-12.11-3.38-14.77-7.8-1.26-2.08-1.48-4.45-.7-7.23ZM160.9,203.66c-.15-3.75,1.2-7.24,3.82-9.83,2.2-2.18,5.1-3.54,8.17-3.82,3.01,3.2,8.08,5.58,15.12,7.07,12.12,2.57,26.03,4.03,40.25,4.22,13.81.19,29.14-.57,38.22-7.54,3.14-2.41,4.73-5.58,4.46-8.94-.29-3.67-2.79-7.12-6.7-9.23-2.15-1.17-4.43-2.15-6.79-2.97.66-2.48,1.05-5.02,1.41-7.49.14-.95.28-1.91.44-2.87,9.91,2.41,19.1,6.21,26.83,11.26,5.98,3.9,24.73,18.19,15.15,38.29-3.58,7.52-13.94,10.49-21.42,12.06-9.24,1.95-19.46,3.14-32.16,3.75-23.55,1.14-46.24-1.15-67.46-6.8-4.92-1.31-10.01-2.98-13.95-6.29-3.26-2.74-5.23-6.71-5.4-10.88ZM238.17,230.92c-1.34.32-2.62.65-3.86.96-8.74,2.22-15.64,3.97-27.71.75-3.94-1.05-7.83-2.61-11.6-4.12-2.29-.92-4.65-1.86-7.03-2.7,15.41,3.4,31.5,5.14,48.07,5.14.71,0,1.42-.02,2.12-.03ZM143.95,258.16c-5.66-2.5-11.8-3.87-18.78-4.2-6.06-.29-11.22-.9-12.89-5.55-.44-1.22-.38-2.52.16-3.5.6-1.09,1.84-1.95,3.69-2.56,2.43-.8,5.08-.96,7.61-.53,1.22,2.6,3.09,4.85,5.43,6.52,1.81,1.3,3.81,1.28,4.86-.04.42-.53.63-1.22.61-1.99-.04-1.66-1.05-3.18-3-4.52-1.72-1.18-3.65-2.04-5.67-2.58-.17-.56-.23-1.04-.2-1.48.11-1.49,1.78-2.54,3.4-2.92,7.13-1.68,15.54,4.35,18.83,7.02,1.85,1.5,3.54,2.81,5.17,4.07,5.62,4.36,10.1,7.84,15.15,14.82.59,6.38,1.19,12.81,1.79,19.35-6.92-9.6-16.39-17.6-26.17-21.91ZM128.23,243.3c.59.3,1.16.63,1.7,1,.7.48,1.52,1.18,1.66,1.9-.18-.06-.4-.17-.64-.34-1.02-.73-1.94-1.6-2.72-2.57ZM186.04,318.67c0-3.66,2.98-6.62,6.64-6.62h.01c3.66,0,6.63,2.99,6.62,6.65,0,3.66-2.98,6.62-6.64,6.62h-.01c-3.66,0-6.63-2.99-6.62-6.65ZM192.66,328.36h.02c3.52,0,6.6-1.89,8.29-4.71.22,2.21,1.18,4.26,2.77,5.86,1.83,1.83,4.25,2.84,6.84,2.85h.02c.6,0,1.19-.06,1.76-.17-1.73,1.75-2.81,4.15-2.82,6.8,0,1.49.34,2.89.94,4.15-2.52-1.07-4.95-2.3-7.27-3.69-.03-.02-.05-.04-.09-.06,0,0-.02,0-.03-.01-5.28-3.17-10.03-7.13-14.09-11.74,1.14.47,2.38.72,3.65.72ZM257.41,342.34c1.66-2.24,2.22-4.98,1.74-7.55.14.17.29.33.44.49,1.51,1.52,3.44,2.46,5.53,2.75-2.45,1.62-5.03,3.07-7.72,4.31ZM229.83,324.2c1.31-1.61,3.22-2.44,5.15-2.44,1.47,0,2.96.49,4.18,1.49,1.37,1.12,2.23,2.71,2.41,4.47.18,1.76-.34,3.49-1.46,4.87-2.31,2.84-6.5,3.27-9.34.96-2.84-2.31-3.27-6.5-.96-9.34ZM244.6,327.41c-.07-.66-.2-1.3-.39-1.92.49.77,1.11,1.48,1.84,2.11-.49.19-.95.43-1.4.7,0-.3-.02-.59-.05-.89ZM244.51,332.39c1.31-1.61,3.22-2.44,5.15-2.44,1.47,0,2.95.49,4.18,1.49,2.84,2.31,3.27,6.5.96,9.34-1.12,1.37-2.71,2.23-4.47,2.41-1.76.18-3.49-.34-4.87-1.46-2.84-2.31-3.27-6.5-.96-9.34ZM255.96,329.24c.29-.11.57-.24.84-.38.02.46.06.92.15,1.36-.3-.34-.63-.67-.98-.98ZM271.14,333.15c-1.25,1.25-2.92,1.94-4.68,1.94h-.01c-1.77,0-3.44-.7-4.69-1.95s-1.94-2.92-1.94-4.7c0-1.77.7-3.44,1.95-4.69,1.25-1.25,2.92-1.94,4.68-1.94h.01c1.77,0,3.44.7,4.69,1.95,1.25,1.26,1.94,2.92,1.94,4.7s-.7,3.44-1.95,4.69ZM257.49,324.45c-1.12,1.37-2.71,2.23-4.47,2.41-1.76.18-3.49-.34-4.87-1.46-2.84-2.31-3.27-6.5-.96-9.34,1.31-1.61,3.22-2.44,5.15-2.44,1.47,0,2.95.49,4.18,1.49,2.84,2.31,3.27,6.5.96,9.34ZM243.17,313.05h-.01c-1.77,0-3.44-.7-4.69-1.95-1.25-1.26-1.94-2.92-1.94-4.7,0-1.77.7-3.44,1.95-4.69,1.25-1.25,2.92-1.94,4.68-1.94h.01c3.66,0,6.63,2.99,6.62,6.65,0,3.66-2.98,6.62-6.64,6.62ZM243.15,316.1h.02c.16,0,.31-.02.47-.02-1.08,2.25-1.24,4.8-.5,7.12-.55-.86-1.23-1.64-2.05-2.31-1.77-1.44-3.89-2.14-6.01-2.16.77-1.59,1.09-3.36.91-5.17-.03-.28-.07-.55-.12-.81.15.17.3.34.46.51,1.83,1.83,4.25,2.84,6.84,2.85ZM231.5,318.73c-2.31,2.84-6.5,3.27-9.34.96-2.84-2.31-3.27-6.5-.96-9.34,1.12-1.37,2.71-2.23,4.47-2.41.23-.02.46-.04.69-.04,1.52,0,2.98.52,4.18,1.49h0c1.37,1.12,2.23,2.71,2.41,4.47.18,1.76-.34,3.49-1.46,4.87ZM226.25,324.22c-1.21,2.53-1.25,5.43-.18,7.95-1.75-1.75-4.16-2.84-6.83-2.84h-.02c-.6,0-1.19.06-1.76.17,1.81-1.82,2.81-4.23,2.81-6.8,0-.21-.02-.43-.03-.64,1.72,1.4,3.82,2.15,6.01,2.17ZM219.22,345.64h-.01c-3.66,0-6.63-2.99-6.62-6.65,0-3.66,2.98-6.62,6.64-6.62h.01c3.66,0,6.63,2.99,6.62,6.65,0,3.66-2.98,6.62-6.64,6.62ZM215.28,327.38c-1.25,1.25-2.92,1.94-4.68,1.94h-.01c-1.77,0-3.44-.7-4.69-1.95-1.25-1.26-1.94-2.92-1.94-4.7,0-1.77.7-3.44,1.95-4.69,1.25-1.25,2.92-1.94,4.68-1.94h.01c1.77,0,3.44.7,4.69,1.95,1.25,1.26,1.94,2.92,1.94,4.7,0,1.77-.7,3.44-1.95,4.69ZM177.95,381.42c-.52.89-1.61,1.3-2.58.97-3.68-1.23-7.29-2.72-10.73-4.42-.62-.3-1.29-.62-1.99-.96-8.92-4.25-16.73-8.68-14.5-16.23.76-2.56,2.28-4.42,4.53-5.53,2.87-1.41,6.8-1.47,10.26-.15,5.47,2.09,7.3,7.28,7.61,8.3.18.6.72,1.03,1.35,1.07.64.05,1.22-.3,1.49-.87.78-1.64,1.66-3.66,2.68-5.99,3.47-7.9,8.14-18.54,13.26-25.19,3.33,3.35,7.04,6.32,11.05,8.84-4.76,8.79-17.04,30.94-22.42,40.14ZM233.32,347.85h-.35s-.42,0-.42,0c-2.74-.05-5.44-.3-8.08-.71,2.66-1.72,4.43-4.71,4.44-8.11,0-1.34-.27-2.61-.76-3.77.23.23.47.44.72.65,1.79,1.46,3.95,2.17,6.1,2.17,1.75,0,3.49-.47,5.01-1.39,0,.29.02.59.05.89.26,2.57,1.51,4.89,3.52,6.52,1.11.91,2.39,1.54,3.74,1.88-4.48,1.15-9.15,1.81-13.96,1.89ZM292.51,363.82c.27.57.85.92,1.48.87.63-.04,1.16-.47,1.35-1.07.32-1.02,2.17-6.2,7.64-8.28,3.47-1.31,7.4-1.24,10.26.18,2.24,1.12,3.76,2.98,4.51,5.54,2.21,7.55-5.62,11.96-14.54,16.18-.71.34-1.38.65-2.01.96-3.45,1.69-7.07,3.17-10.74,4.39-.98.32-2.06-.09-2.58-.98-1.87-3.21-4.58-7.8-7.53-12.77-6.05-10.22-12.9-21.79-15.65-26.94,4.35-2.63,8.37-5.76,11.94-9.34,5.12,6.66,9.77,17.35,13.22,25.29,1.01,2.32,1.88,4.33,2.65,5.97ZM276.13,328.69c0-.08.01-.15.01-.22,0-2.59-1-5.02-2.82-6.85-1.83-1.83-4.25-2.84-6.84-2.85h-.02c-1.6,0-3.12.4-4.45,1.09-.11-2.67-1.31-5.29-3.54-7.1-1.93-1.57-4.28-2.26-6.58-2.15.61-1.27.97-2.68.97-4.18,0-5.34-4.33-9.69-9.66-9.7h-.02c-5.33,0-9.67,4.33-9.68,9.66,0,.61.06,1.22.17,1.81-.36-.42-.76-.81-1.2-1.17-2.01-1.63-4.53-2.39-7.1-2.12-2.57.26-4.89,1.51-6.52,3.52-1.6,1.97-2.29,4.38-2.14,6.74-1.72-1.4-3.85-2.17-6.1-2.17h-.02c-2.58,0-5,1-6.83,2.82-.57.57-1.05,1.2-1.46,1.88-.5-4.87-4.61-8.68-9.61-8.69h-.02c-5.33,0-9.67,4.33-9.68,9.66,0,.31.02.62.04.93-4.7-7.62-7.75-16.41-8.61-25.88-1.02-11.18-2.01-21.9-2.99-32.49.24-.48.23-1.08-.11-1.56-.01-.02-.03-.04-.04-.06-.24-2.57-.48-5.13-.71-7.69-.79-8.49-1.57-16.96-2.37-25.57,6.09-1.94,10.75-.37,17.19,1.79l.43.15c2.7.91,5.41,1.99,8.03,3.05,3.85,1.54,7.83,3.14,11.95,4.24,5.04,1.34,9.27,1.86,13.08,1.86,5.91,0,10.81-1.25,16.16-2.6,4.7-1.19,10.03-2.55,16.88-3.26,3.21-.34,8.07.32,13.22,1.01,11.27,1.52,25.02,3.37,32.66-3.31-.7,7.32-1.4,14.64-2.11,21.98-.28,2.95-.57,5.92-.85,8.88-.14.31-.16.64-.09.96-1.04,10.83-2.08,21.73-3.13,32.82-1.27,13.45-6.94,25.49-15.51,34.78ZM354.08,248.82c-1.69,4.64-6.84,5.24-12.91,5.51-6.98.31-13.13,1.66-18.8,4.14-9.87,4.31-19.45,12.37-26.42,22.06.62-6.48,1.24-12.93,1.85-19.33,5.15-7.14,9.68-10.63,15.38-15.02,1.64-1.26,3.33-2.56,5.18-4.06,3.29-2.66,11.72-8.65,18.85-6.95,1.62.39,3.29,1.44,3.39,2.93.03.44-.04.93-.2,1.48-2.02.53-3.95,1.39-5.68,2.56-1.95,1.33-2.97,2.84-3.02,4.51-.02.77.19,1.46.61,1.99,1.04,1.33,3.04,1.35,4.86.06,2.34-1.66,4.22-3.91,5.45-6.5,2.54-.43,5.18-.26,7.61.55,1.85.62,3.09,1.48,3.68,2.57.53.98.59,2.28.15,3.5ZM338.15,243.66c-.78.97-1.7,1.83-2.73,2.56-.24.17-.47.28-.64.34.14-.72.97-1.42,1.67-1.9.54-.37,1.12-.7,1.7-1Z"/>
    <path class="cls-2" d="M268.07,285.58h-.02c-5.33,0-9.67,4.33-9.68,9.66,0,5.34,4.33,9.69,9.66,9.7h.02c5.33,0,9.67-4.33,9.68-9.66,0-2.59-1-5.02-2.82-6.85-1.83-1.83-4.25-2.84-6.84-2.85ZM268.05,301.9h-.01c-3.66,0-6.63-2.99-6.62-6.65,0-3.66,2.98-6.62,6.64-6.62h.01c3.66,0,6.63,2.99,6.62,6.65,0,3.66-2.98,6.62-6.64,6.62Z"/>
    <path class="cls-2" d="M189.92,231.64c-1.83-1.83-4.25-2.84-6.84-2.85-2.58.01-5.02,1-6.85,2.82-1.83,1.83-2.84,4.25-2.85,6.84,0,2.59,1,5.02,2.82,6.85s4.25,2.84,6.84,2.85h.02c2.58,0,5-1,6.83-2.82,1.83-1.83,2.84-4.25,2.85-6.84,0-2.59-1-5.02-2.82-6.85ZM187.74,243.18c-1.25,1.25-2.91,1.97-4.7,1.94-1.77,0-3.44-.7-4.69-1.95s-1.94-2.92-1.94-4.7c0-1.77.7-3.44,1.95-4.69,1.25-1.25,2.92-1.94,4.68-1.94h.01c1.77,0,3.44.7,4.69,1.95,1.25,1.26,1.94,2.92,1.94,4.7s-.7,3.44-1.95,4.69Z"/>
    <path class="cls-2" d="M200.89,280.9h-.02c-5.33,0-9.67,4.33-9.68,9.66,0,2.59,1,5.02,2.82,6.85,1.83,1.83,4.25,2.84,6.84,2.85h.02c2.58,0,5-1,6.83-2.82,1.83-1.83,2.84-4.25,2.85-6.84,0-5.34-4.33-9.69-9.66-9.7ZM205.56,295.28c-1.25,1.25-2.92,1.94-4.68,1.94h-.01c-1.77,0-3.44-.7-4.69-1.95-1.25-1.26-1.94-2.92-1.94-4.7,0-3.66,2.98-6.62,6.64-6.62h.01c3.66,0,6.63,2.99,6.62,6.65,0,1.77-.7,3.44-1.95,4.69Z"/>
  </g>
</svg>