<?xml version="1.0" encoding="UTF-8"?>
<svg id="Layer_1" data-name="Layer 1" xmlns="http://www.w3.org/2000/svg" viewBox="0 0 565.92 395.56">
  <defs>
    <style>
      .cls-1 {
        fill: #fcec60;
      }

      .cls-2 {
        fill: #101010;
      }
    </style>
  </defs>
  <path class="cls-1" d="M458.02,291.89c-3.48,7.33-9.24,12.57-16.65,15.15-3.32,1.16-6.96,1.76-10.8,1.78-6.71.03-13.82-1.7-20.57-5.03-8.81-4.33-17.05-10.93-23.32-18.65-14.23,6.01-30.91,5.17-44.83-2.31-1.94-1.03-3.86-2.26-5.72-3.67-.46,2.41-1.14,4.74-2.04,6.97-6.42,15.81-17.45,18.22-23.45,18.25-.46,0-.89,0-1.28-.03-10.38-.57-20.06-7.95-26.86-20.38-6.67,12.5-16.27,19.98-26.64,20.66-.39.03-.82.04-1.28.04-6.01.03-17.05-2.26-23.64-18.01-.89-2.15-1.58-4.38-2.07-6.68-1.74,1.31-3.53,2.47-5.36,3.48-13.98,7.69-30.66,8.71-44.83,2.81-6.18,7.77-14.34,14.44-23.1,18.85-10.66,5.39-22.08,6.69-31.33,3.57-7.44-2.51-13.26-7.69-16.82-14.98-9.96-20.38-10.44-47.29-1.3-71.97,7.46-20.13,19.82-35.6,35.77-44.79.16-17.5,10.23-34.11,28.41-46.85,12.5-8.74,34.4-17.35,55.4-13.27,4.43-7.9,10.61-14.71,17.94-19.76,11.16-7.7,25.03-12.03,38.04-11.86,12.99-.28,26.88,3.89,38.12,11.48,7.37,4.96,13.62,11.71,18.12,19.55,20.97-4.3,42.94,4.08,55.53,12.7,18.31,12.54,28.54,29.04,28.9,46.54,15.83,8.92,28.68,24.67,36.24,44.43,9.4,24.59,9.19,51.49-.56,71.97Z"/>
  <path class="cls-2" d="M134.88,300.99c-2.72,0-5.3-.39-7.66-1.18-5.08-1.71-8.91-5.14-11.39-10.21-8.85-18.12-9.19-42.27-.92-64.6,7.33-19.79,20.67-35.22,36.69-42.51-2.14-16.46,6.37-32.3,24.08-44.7,13.87-9.7,36.8-16.72,55.13-9.8,3.58-9.37,9.98-17.56,18.14-23.18,9.53-6.58,21.77-10.39,32.78-10.21,10.93-.3,23.21,3.39,32.82,9.87,8.22,5.53,14.7,13.66,18.38,22.99,18.26-7.11,41.25-.32,55.21,9.23,17.83,12.22,26.51,27.96,24.54,44.45,16.1,7.12,29.6,22.42,37.14,42.14,8.5,22.23,8.4,46.38-.26,64.58-2.42,5.09-6.21,8.57-11.27,10.33-6.87,2.39-15.67,1.37-24.15-2.81-9.94-4.89-19.03-13.19-24.59-22.42-12.23,8.36-29.41,9.06-43.28,1.61-8.06-4.31-15.11-12.44-20.01-23.02-1.88,1.77-3.9,3.44-6.01,4.95-.64.46-1.54.32-2-.33-.46-.64-.31-1.54.33-2,2.29-1.65,4.46-3.47,6.46-5.43-6.57-16-7.03-33.98-1.13-46.05,1.9-3.88,5.19-6.13,9.01-6.17.03,0,.07,0,.1,0,4.12,0,8,2.56,10.14,6.7,4.09,7.93.32,20.09-1.5,24.95-3.02,8.1-7.47,15.23-13.23,21.22,4.65,10.47,11.44,18.49,19.19,22.64,13.02,6.99,29.13,6.31,40.5-1.59-1.35-2.56-2.43-5.19-3.22-7.84-2.18-7.33-2.81-18.34.99-25.21,1.84-3.34,4.54-5.52,8.03-6.49,2.67-.74,5.03-.17,6.82,1.64,4.62,4.69,4.18,16.67,2.98,20.75-2.11,7.19-6.2,13.36-11.86,17.94,5.27,8.87,13.99,16.87,23.54,21.57,7.68,3.78,15.89,4.78,21.94,2.67,4.31-1.5,7.55-4.48,9.62-8.85,8.33-17.51,8.4-40.81.17-62.33-7.16-18.72-19.82-33.27-34.91-40.22-.12.61-.25,1.23-.4,1.86-1.22,5.06-4.62,9.68-8.89,12.06-3.51,1.95-7.34,2.33-11.07,1.09-3.13-1.03-5.68-3.28-7.01-6.17-1.24-2.7-1.3-5.7-.16-8.45,2.92-7.09,12.27-8.2,19.72-6.24,1.86.49,3.7,1.08,5.51,1.77,1.98-20.27-13.68-34.29-23.4-40.95-13.37-9.15-35.32-15.68-52.61-8.9.45,1.37.84,2.78,1.17,4.2,1.53,6.69.88,11.79-1.99,15.57-1.84,2.43-4.66,3.94-7.54,4.03-2.78.07-5.18-1.06-6.79-3.19-1.93-2.55-2.52-6.31-1.5-9.57,1.09-3.5,3.72-6.67,8.02-9.68,1.58-1.1,3.26-2.08,5.01-2.92-3.46-8.83-9.59-16.52-17.35-21.75-9.13-6.16-20.8-9.66-31.2-9.38-10.48-.17-22.11,3.45-31.17,9.7-7.71,5.31-13.75,13.06-17.12,21.93,1.76.82,3.46,1.78,5.04,2.86,5.27,3.61,8.1,7.53,8.65,11.96.31,2.57-.34,5.15-1.79,7.09-1.79,2.39-4.36,3.57-7.22,3.33-3.42-.28-6.84-2.63-8.5-5.83-1.84-3.53-2.14-7.98-.9-13.61.31-1.42.69-2.83,1.12-4.21-17.36-6.6-39.25.16-52.53,9.44-9.64,6.76-25.16,20.95-22.97,41.19,2.99-1.17,6.09-2.08,9.23-2.71,4.25-.85,8.42-.13,11.77,2.04,4.16,2.71,5.86,6.94,4.53,11.34-1.55,5.15-6.59,9-11.75,9h-.09c-7.95-.07-13.83-6.95-15.52-13.7-.16-.63-.3-1.25-.42-1.86-15.02,7.1-27.52,21.78-34.48,40.57-8.01,21.6-7.7,44.91.81,62.34,2.13,4.35,5.4,7.29,9.72,8.75,6.08,2.04,14.27.96,21.92-2.9,9.5-4.79,18.13-12.88,23.31-21.8-5.7-4.5-9.85-10.64-12.06-17.82-1.25-4.07-1.81-16.04,2.77-20.78,1.77-1.84,4.12-2.43,6.8-1.71,3.49.94,6.22,3.09,8.1,6.41,3.87,6.83,3.36,17.85,1.26,25.2-.75,2.62-1.8,5.27-3.14,7.88,11.45,7.77,27.57,8.28,40.52,1.16,7.71-4.23,14.41-12.32,18.95-22.84-5.82-5.92-10.34-13.01-13.45-21.08-1.86-4.84-5.76-16.95-1.76-24.93,2.12-4.2,6.02-6.81,10.18-6.81h0c3.82,0,7.12,2.22,9.06,6.08,6.03,12,5.76,29.98-.65,46.06,1.97,1.89,4.09,3.64,6.31,5.21.65.46.8,1.35.34,2-.46.65-1.35.8-2,.34-2.05-1.45-4.01-3.03-5.85-4.74-4.78,10.62-11.75,18.83-19.76,23.22-13.8,7.58-30.98,7.07-43.29-1.15-5.47,9.28-14.47,17.68-24.36,22.67-5.55,2.8-11.25,4.24-16.47,4.24ZM168.74,234.64c-1.02,0-1.86.37-2.59,1.13-3.52,3.65-3.18,14.39-2.09,17.95,1.98,6.45,5.66,11.99,10.7,16.09,1.15-2.31,2.06-4.63,2.71-6.93,1.95-6.79,2.47-16.88-.99-22.99-1.49-2.62-3.62-4.33-6.34-5.05-.5-.13-.96-.2-1.39-.2ZM396.14,233.46c-.44,0-.92.07-1.44.22-2.71.76-4.83,2.48-6.28,5.12-3.39,6.15-2.77,16.23-.75,23,.69,2.32,1.62,4.63,2.78,6.89,5-4.17,8.62-9.74,10.52-16.19,1.05-3.57,1.29-14.31-2.27-17.92-.73-.74-1.57-1.11-2.57-1.11ZM231.53,199.93c-3.07,0-5.99,2-7.61,5.22-3.59,7.15.52,19.12,1.87,22.61,2.81,7.29,6.82,13.74,11.95,19.19,5.67-15.04,5.83-31.53.3-42.53-1.46-2.9-3.77-4.49-6.5-4.49h0ZM333.03,199.4s-.05,0-.07,0c-2.74.03-5.03,1.65-6.46,4.56-5.41,11.08-5.09,27.56.74,42.53,5.07-5.51,9.02-11.99,11.75-19.31,1.31-3.51,5.3-15.53,1.63-22.63-1.64-3.18-4.54-5.15-7.59-5.15ZM154.79,184.25c.14.77.31,1.55.51,2.35,1.39,5.54,6.34,11.47,12.77,11.52.02,0,.04,0,.07,0,3.88,0,7.82-3.04,9-6.96.56-1.85.86-5.37-3.35-8.1-2.71-1.76-6.13-2.34-9.64-1.64-3.19.64-6.34,1.59-9.36,2.82ZM397.77,180.23c-4.57,0-8.84,1.51-10.42,5.34-.83,2-.79,4.19.12,6.16.99,2.17,2.93,3.86,5.3,4.64,2.95.98,5.99.68,8.77-.87,3.59-2,6.46-5.91,7.49-10.21.19-.8.35-1.59.49-2.35-1.91-.75-3.86-1.39-5.84-1.91-1.9-.5-3.94-.78-5.92-.78ZM232.51,131.83c-.37,1.21-.7,2.44-.97,3.69-1.08,4.94-.87,8.76.64,11.67,1.21,2.33,3.75,4.09,6.19,4.3,1.3.11,3.17-.18,4.69-2.19,1.01-1.35,1.46-3.18,1.24-5.01-.45-3.57-2.88-6.83-7.43-9.95-1.38-.94-2.84-1.78-4.36-2.5ZM331.27,131.31c-1.52.74-2.97,1.6-4.34,2.55-3.77,2.64-6.03,5.32-6.93,8.19-.74,2.37-.32,5.17,1.05,6.98.73.97,2.1,2.13,4.42,2.05,2.02-.06,4.01-1.14,5.33-2.89,2.33-3.07,2.81-7.38,1.48-13.2-.28-1.25-.62-2.48-1.01-3.68Z"/>
  <path class="cls-2" d="M282.23,268.51c-1.59,0-3.15-.06-4.69-.17-5.31-.35-10.56-1.35-15.57-2.96-.75-.24-1.17-1.05-.93-1.81.24-.76,1.05-1.17,1.81-.93,4.79,1.54,9.81,2.49,14.9,2.83,3.02.22,6.15.22,9.32-.02,5.05-.37,10.04-1.34,14.81-2.88.75-.24,1.56.17,1.81.93s-.17,1.56-.93,1.81c-4.99,1.61-10.2,2.62-15.48,3.01-1.69.12-3.38.19-5.04.19Z"/>
  <path class="cls-2" d="M254.34,295.3c-6.23,0-11.44-4.32-14.76-12.26-3.57-8.54-2.55-18.96,2.54-25.93.37-.51.76-.98,1.15-1.42,3.34-3.67,6.81-3.98,9.13-3.58,4.34.73,8.46,4.52,10.76,9.89,3.42,7.99,2.94,17.36-1.25,24.45-.4.68-1.28.91-1.97.5-.68-.4-.91-1.28-.5-1.97,3.74-6.31,4.15-14.69,1.08-21.85-1.89-4.41-5.26-7.62-8.6-8.19-2.35-.4-4.55.51-6.53,2.69-.33.36-.65.75-.96,1.18-4.52,6.19-5.41,15.48-2.21,23.13,2.97,7.1,7.51,10.82,12.82,10.47,7.17-.47,16.52-8.67,21.24-25.96.21-.76,1-1.22,1.76-1.01.76.21,1.22,1,1.01,1.76-4.41,16.15-13.98,27.43-23.82,28.07-.3.02-.6.03-.89.03Z"/>
  <path class="cls-2" d="M310.61,295.01c-.25,0-.5,0-.75-.02-9.85-.54-19.54-11.72-24.11-27.82-.22-.76.23-1.56.99-1.77.76-.22,1.56.23,1.77.99,4.9,17.24,14.33,25.35,21.51,25.74,5.3.3,9.82-3.48,12.71-10.61,3.12-7.68,2.13-16.97-2.45-23.11-.31-.42-.64-.81-.97-1.17-2-2.16-4.21-3.04-6.56-2.62-3.33.6-6.67,3.84-8.51,8.27-2.99,7.2-2.49,15.57,1.31,21.84.41.68.19,1.56-.48,1.97-.68.41-1.56.19-1.97-.48-4.27-7.04-4.84-16.4-1.51-24.43,2.24-5.39,6.33-9.22,10.66-10,2.32-.41,5.79-.15,9.17,3.49.4.43.79.9,1.17,1.41,5.16,6.92,6.29,17.33,2.81,25.9-3.26,8.03-8.49,12.41-14.78,12.41Z"/>
  <g>
    <ellipse class="cls-2" cx="265.69" cy="183.81" rx="3.85" ry="8.67" transform="translate(-.95 1.38) rotate(-.3)"/>
    <ellipse class="cls-2" cx="298.62" cy="183.64" rx="3.85" ry="8.67" transform="translate(-.95 1.55) rotate(-.3)"/>
  </g>
  <path class="cls-2" d="M282.3,210.2h-.02c-5.99,0-10.99-4.72-11.38-10.71-.05-.79.55-1.47,1.34-1.52.78-.06,1.47.55,1.52,1.34.29,4.49,4.04,8.02,8.52,8.03h.02c4.54,0,8.29-3.56,8.54-8.12.04-.79.72-1.4,1.51-1.35.79.04,1.4.72,1.35,1.51-.33,6.08-5.34,10.83-11.41,10.83Z"/>
</svg>