<?xml version="1.0" encoding="UTF-8"?>
<svg id="Layer_1" data-name="Layer 1" xmlns="http://www.w3.org/2000/svg" viewBox="0 0 401.04 471.6">
  <defs>
    <style>
      .cls-1 {
        fill: #988ec5;
      }

      .cls-2 {
        fill: #101010;
      }
    </style>
  </defs>
  <path class="cls-1" d="M309.61,337.67c3.91,9.38,1.85,19.49-5.64,27.72-4.88,5.36-11.34,9.36-16.07,12.27l-.41.26c-.65.39-1.26.77-1.83,1.12-4.7,2.97-9.57,5.62-14.52,7.91-.1.04-.2.09-.3.14-2.25,1.01-4.62,1.53-7.04,1.53-5.22,0-10.08-2.38-13.31-6.53-.1-.11-.18-.23-.28-.33-2.06-2.66-4.7-6.02-7.59-9.73,0,0-5.57-7.1-8.26-10.55-3.54-4.53-8.91-7.04-14.43-7.04-2.02,0-4.06.33-6.04,1.02-7.41,2.6-12.34,9.61-12.28,17.46.01,1.42-.09,2.87-.3,4.27-1.09,7.12-4.9,13.07-11.02,17.21-4.18,2.83-8.78,4.27-13.67,4.27s-9.9-1.49-14.62-4.3c-6.27-3.75-11.47-9.32-15.26-13.38-.64-.68-1.25-1.32-1.83-1.93-3.83-4.02-7.44-8.33-10.7-12.79-.17-.23-.39-.55-.61-.93-3.46-5.47-9.39-8.53-15.5-8.53-2.73,0-5.49.61-8.09,1.9-2.12,1.04-4.31,1.69-6.68,1.96-.2.01-.4.03-.55.05-.7.05-1.4.09-2.1.09-5.72,0-11.06-1.98-15.05-5.59-2.46-2.23-4.33-5-5.56-8.24-.93-2.46-2.38-4.69-4.24-6.53-1.01-1-1.9-2.07-2.61-3.17-3.85-5.82-4.19-12.79-1.08-21.36,1.83-5.05,4.59-10.05,7.26-14.86l.13-.24c.84-1.5,1.65-2.97,2.39-4.39,1.42-2.67,4.34-8.81,7.43-18.99,2.19-7.23,2.77-14.74,1.69-21.75-1.63-10.42-1.73-21.08-.32-31.72.48-3.63-.14-7.34-1.79-10.61-4.92-9.82-5.49-22.29-1.71-37.04,3.41-13.25,9.6-25.32,12.24-30.47.06-.14.14-.27.2-.4,3.35-6.5,10.92-20.92,24.53-34.29.81-.79,1.53-1.65,2.18-2.57.46-.66.88-1.35,1.25-2.05.05-.11.25-.47.29-.55,2.18-4.2,4.84-8.15,7.9-11.73.05-.06.11-.13.17-.2.65-.74,1.29-1.45,1.94-2.14,4.37-4.63,10.03-7.57,16.34-8.46,1.87-.26,3.69-.81,5.4-1.63l.2-.1c.17-.08.41-.18.58-.26l12.46-5.88c3.67-1.73,7.76-2.65,11.84-2.65,2.93,0,5.84.46,8.66,1.37,1.06.34,2.01.69,2.9,1.02,3.51,1.34,6.93,3.01,10.17,4.98,2.27,1.38,4.82,2.24,7.44,2.54,31,3.51,69.28,18.17,83.77,48.77,3.74,7.9,5.27,15.99,4.41,23.39-.54,4.68.74,9.38,3.59,13.14.44.58.88,1.17,1.3,1.77,3.36,4.71,7.36,9.47,12.58,14.98,7.24,7.64,10.69,18.12,9.96,30.28-.1,1.65.03,3.3.38,4.91.32,1.53.44,2.78.47,3.55.01.33.04.67.08,1,3.07,30.13-5.82,59.52-25.02,82.76-5.63,6.82-5.59,16.67.09,23.45,1.69,2.02,3.08,4.32,4.13,6.82Z"/>
  <g>
    <path class="cls-2" d="M227.67,237.03c1.54,0,3.1-.25,4.62-.78,7.14-2.48,11.08-10.12,8.97-17.4-.25-.86-1.15-1.35-2-1.1-.86.25-1.35,1.14-1.1,2,1.63,5.62-1.41,11.53-6.93,13.45-5.44,1.89-11.46-.8-13.71-6.11-.35-.82-1.3-1.21-2.12-.86-.82.35-1.21,1.3-.86,2.12,2.28,5.39,7.56,8.69,13.13,8.69Z"/>
    <path class="cls-2" d="M199.88,222.91c1.12,0,2.26-.13,3.39-.42,7.33-1.82,11.95-9.07,10.52-16.5-.17-.88-1.02-1.45-1.89-1.28-.88.17-1.45,1.02-1.28,1.89,1.11,5.75-2.46,11.35-8.13,12.76-5.59,1.38-11.34-1.84-13.1-7.34-.27-.85-1.18-1.32-2.03-1.05-.85.27-1.32,1.18-1.05,2.03,1.92,6,7.52,9.91,13.56,9.91Z"/>
    <path class="cls-2" d="M241.93,210.69c1.12,0,2.26-.13,3.39-.42,7.33-1.82,11.95-9.07,10.52-16.5-.17-.88-1.02-1.45-1.89-1.28-.88.17-1.45,1.02-1.28,1.89,1.11,5.75-2.46,11.35-8.13,12.76-5.59,1.38-11.34-1.84-13.1-7.34-.27-.85-1.18-1.32-2.03-1.05-.85.27-1.32,1.18-1.05,2.03,1.92,6,7.52,9.91,13.56,9.91Z"/>
    <path class="cls-2" d="M291.3,333.42c-4.72-1.73-10.79-1.2-15.84,1.38-5.31,2.71-7.98,7.15-9.28,10.37-.55-.93-1.13-1.93-1.75-2.99-2.08-3.56-4.61-7.9-7.33-12.26,42.09-16.79,67.79-59.76,62.68-105.24v-.05c0-.44-.04-1.58-.38-2.78,0-.04-.02-.07-.03-.1,0-.02-.01-.03-.02-.05-.23-.79-.57-1.47-1-2.04,1.92-11.45-.32-20.94-6.51-27.48-5.57-5.88-9.87-11.01-13.54-16.13-1.15-1.6-2.37-3.21-3.62-4.77l-6.45-8.02c4.56-7.4,4.53-17.19-.16-27.1-13.14-27.75-51.07-41.74-83.25-43.42-.31-.7-.76-1.37-1.46-1.8-.01,0-.02-.02-.04-.03-3.36-2.3-6.99-4.21-10.79-5.65-.83-.31-1.64-.6-2.44-.86-4.22-1.37-8.73-1.09-12.7.78l-13.15,6.2c-.3.11-.57.31-.77.59-.32.46-.57.97-.75,1.51-1.87.11-3.75.22-5.61.33-4.39.25-8.48,2.16-11.53,5.4-.57.61-1.14,1.24-1.73,1.92-2.65,3.11-4.93,6.51-6.76,10.12,0,0,0,.02-.01.03-.49.86-.51,1.86-.36,2.79-15.92,13.51-24.2,29.53-27.77,36.44,0,0-.08.16-.08.16-15.32,29.89-17.63,51.19-6.86,63.3.3.34.62.67.95,1l-1,5.49c-2.03,11.25-2.19,22.56-.47,33.61,1.33,8.58.64,17.73-2.01,26.45-2.47,8.14-5.39,15.57-8.23,20.94-.8,1.52-1.68,3.1-2.57,4.7-5.25,9.47-10.67,19.25-6.67,25.27.97,1.49,2.59,2.83,4.35,3.58.93.39,1.89.63,2.87.73,0,.01,0,.03,0,.04-.18,1.25-.85,7.66,3.48,11.58,2.74,2.48,6.28,2.85,8.15,2.85.52,0,.92-.03,1.12-.05,10.87-1.12,17.99-22.32,22.2-41.18,9.62,10.64,21.44,19.19,34.43,24.93-2.47,2.89-4.92,5.76-7.21,8.46-3.17,3.72-6.05,7.11-8.34,9.78-1.93,2.23-2.06,5.48-.3,7.89,2.96,4.07,6.26,8.01,9.8,11.7.6.62,1.23,1.3,1.9,2.01,5.32,5.7,13.42,14.36,22.14,14.36,2.54,0,5.13-.73,7.72-2.49,3.61-2.45,5.86-5.91,6.48-10.02.76-4.97-.97-10.82-4.5-15.26-3.72-4.67-8.64-6.39-12.02-7.03.84-.76,1.75-1.57,2.72-2.44,3.06-2.73,6.51-5.82,10.04-9.16,3.93.47,7.87.72,11.83.72,8.44,0,16.91-1.08,25.31-3.22l5.33-1.36c5.95,7.89,14.24,18.46,20.95,27.02,3.22,4.11,6.13,7.82,8.34,10.68,1.24,1.58,3.09,2.44,5.01,2.44.9,0,1.81-.19,2.67-.58,4.57-2.09,9.09-4.54,13.43-7.28.73-.46,1.53-.95,2.36-1.47,8.56-5.27,22.89-14.09,17.56-26.89-1.68-4.03-4.63-6.92-8.54-8.35ZM200.89,98.57l-13.48,7.86c-1.48.86-3.27,1.1-4.91.67-2.03-.54-3.93-1.26-5.63-2.13-.83-.42-1.78-.85-2.78-1.3-2.84-1.28-6.06-2.73-7.61-4.55-.7-.82-1.15-2.72-.8-4.21,2.53.87,5,1.92,7.38,3.12.19.16.42.27.66.33.12.06.24.12.36.18,2.26,1.2,4.46,2.56,6.55,4.05,1.06.76,2.32,1.14,3.58,1.14,1.09,0,2.18-.28,3.16-.86l12.14-7.09c.98.01,1.91.03,2.82.06.08,1.08-.47,2.15-1.45,2.72ZM140.06,114.25c-.06-.25-.11-.45-.14-.62l16.92.49c.06,0,.11,0,.17,0,2.38,0,4.56-1.35,5.61-3.48,1.09-2.25,2.37-4.5,3.81-6.69.1-.15.2-.29.3-.43,1.27.84,2.7,1.56,4.13,2.23-.64.92-1.33,1.83-2,2.73-.65.86-1.27,1.68-1.8,2.45-1.04,1.54-2.36,3.08-3.92,4.57-1.23,1.17-2.9,1.81-4.63,1.77l-15.6-.45c-1.27-.03-2.38-.88-2.71-2.07h0s0-.04-.02-.05c-.04-.14-.08-.3-.12-.44ZM178.78,88.09c3.22-1.52,6.89-1.75,10.33-.63.74.24,1.5.51,2.28.8,2.75,1.05,5.42,2.35,7.94,3.89l-1.05.61s-.07.04-.1.06l-12.43,7.26c-1.02.6-2.29.55-3.23-.12-2.2-1.57-4.53-3.01-6.91-4.27-.19-.1-.4-.19-.59-.29-.08-.05-.16-.09-.24-.12-1.86-.95-3.77-1.83-5.72-2.59l9.73-4.59ZM146.3,103.23c.56-.64,1.1-1.24,1.64-1.81,2.48-2.63,5.8-4.19,9.37-4.39,1.68-.11,3.36-.2,5.04-.3.13,1.73.75,3.4,1.67,4.48.07.08.15.15.22.23-.17.25-.34.48-.5.73-1.52,2.31-2.88,4.69-4.02,7.06-.51,1.04-1.6,1.68-2.78,1.66l-15.73-.46c1.47-2.54,3.18-4.96,5.09-7.2ZM221.77,179.5c-2.86,2.18-6.03,3.6-9.38,4.18-5.18.91-10.61-.26-15.79-3.34,5.88-12.53,5.51-29.52-1-37.83-.25-.33-6.25-8.01-12.47-6.42l-.11.03c-6.23,1.59-7.81,11.2-7.87,11.6-1.74,10.43,6.08,25.54,17.24,33.72-3.07,5.17-7.27,8.79-12.25,10.48-5.59,1.9-13.03.95-20.56-2.59.48-4.96,1.06-18.43-5.62-26.4-4.03-4.81-9.28-4.88-12.69-2.82-3.4,2.06-5.94,6.96-3.5,12.85,2.84,6.84,9.8,13.75,18.32,18.24-1.84,12.77-8.61,22.76-18.23,26.87-11.35,4.83-26.04,2.08-33.45-6.27-9.8-11.03-7.32-31.14,7.37-59.77,3.38-6.56,11.21-21.74,26.09-34.72,1.08,1.61,2.92,2.66,4.94,2.71l15.6.45c.09,0,.18,0,.26,0,2.48,0,4.9-.96,6.69-2.66,1.73-1.65,3.2-3.36,4.36-5.09.48-.7,1.08-1.49,1.71-2.32.78-1.03,1.63-2.15,2.41-3.31.55.25,1.08.5,1.55.74,1.91.97,4.02,1.77,6.27,2.37.81.22,1.64.32,2.47.32,1.71,0,3.41-.45,4.9-1.32l13.48-7.86c1.96-1.14,3.08-3.19,3.05-5.35,31.01,1.85,67.14,15.25,79.59,41.53,2.59,5.46,6,15.97-.23,24.9-1.3,1.87-2.98,3.57-5,5.07-6.71,4.95-16.15,6.4-25.25,3.89-6.33-1.73-12.84-5.01-18.04-9.05,1.8-5.46,2.59-10.85,2.27-15.66-.23-3.34-2.03-9.6-5.91-12.18-1.76-1.17-3.75-1.43-5.76-.75-2.39.82-4.07,2.53-4.85,4.93-1.98,6.1,2.11,14.94,4.28,18.04,1.61,2.3,3.68,4.55,6.17,6.69-.92,2.43-2.03,4.79-3.3,7.01-2.15,3.76-4.79,6.82-7.76,9.09ZM233.96,160.09c-1.85-1.69-3.4-3.44-4.65-5.22-2.16-3.08-5.29-10.78-3.85-15.18.47-1.44,1.39-2.38,2.83-2.87.39-.13.77-.2,1.13-.2.62,0,1.2.19,1.79.58,2.61,1.74,4.28,6.76,4.48,9.71.27,4.04-.33,8.56-1.72,13.19ZM193.91,178.54c-9.91-7.5-17.08-21.22-15.56-30.31.32-2.05,2.02-8.1,5.48-8.98l.11-.03c.3-.08.62-.11.93-.11,3.28,0,7.03,3.87,8.19,5.38,5.67,7.24,5.96,22.72.85,34.05ZM156.48,187.73c-7.36-4.14-13.27-10.13-15.71-16-1.72-4.15-.14-7.43,2.19-8.84.81-.49,1.84-.82,2.98-.82,1.75,0,3.74.78,5.56,2.95,4.54,5.41,5.56,14.92,4.99,22.72ZM101.65,346.93c-.69.07-4.28.28-6.78-1.98-3.18-2.88-2.53-8.13-2.44-8.73.03-.24.07-.48.12-.71,2.49-.52,5-1.85,6.89-3.67,2.3-2.2,3.15-4.19,2.52-5.89-.33-.92-1.06-1.66-1.96-2-2.67-.96-5.39,2.06-6.6,3.41-.85.96-2.34,2.64-3.33,5.19-.85,0-1.67-.18-2.44-.51-1.39-.6-2.42-1.62-2.92-2.38-2.93-4.4,2.24-13.71,6.79-21.93.9-1.62,1.79-3.22,2.6-4.76,2.93-5.54,5.94-13.18,8.46-21.51,2.79-9.19,3.52-18.83,2.11-27.89-1.66-10.69-1.51-21.64.46-32.54l.66-3.63c5.47,4.05,12.76,6.26,20.1,6.26,4.54,0,9.1-.84,13.24-2.61,10.4-4.44,17.77-14.93,20-28.37,7.97,3.54,15.91,4.38,22.04,2.3,5.68-1.93,10.46-5.97,13.92-11.74,5.81,3.41,11.94,4.66,17.84,3.63,7.79-1.35,14.67-6.62,19.39-14.85,1.19-2.08,2.24-4.25,3.14-6.5,5.38,4,11.95,7.24,18.34,8.99,10.05,2.77,20.52,1.13,28.03-4.4,1.69-1.25,3.17-2.64,4.43-4.14l5.89,7.33c1.22,1.51,2.4,3.07,3.51,4.62,3.75,5.25,8.14,10.48,13.82,16.47,5.68,6,7.55,14.56,5.55,25.47-2.52,13.73-10.89,28.22-18.07,36.49-.47.55-.99,1.16-1.54,1.81-5.3,6.25-15.16,17.87-23.31,15.3-.4-.12-3.96-1.31-5.41-4.49-1.67-3.65.51-7.81,1.21-8.98.15-.25.32-.5.49-.74,2.61.54,5.36.36,7.71-.51,1.11-.41,4.47-1.67,4.64-4.41.05-.96-.33-1.93-1.02-2.6-2.08-1.99-5.81-.23-7.39.51-1.14.53-3.15,1.46-5.05,3.34-1.66-.64-3.01-1.65-3.84-2.9-.65-.97-1-2.1-1.03-3.34-.15-5.55,7.4-9.12,12.92-11.72.82-.39,1.6-.75,2.28-1.1,11.34-5.66,16.29-18,11.77-29.35-.33-.83-1.27-1.23-2.1-.9-.83.33-1.23,1.27-.9,2.1,3.89,9.75-.41,20.38-10.21,25.27-.67.33-1.42.69-2.22,1.07-5.96,2.81-14.97,7.07-14.77,14.73.03,1.17.28,2.27.69,3.3-14.08,5.76-28.7,10.6-43.48,14.39-28.15,7.22-57.14,10.72-86.24,10.45,2.67-15.15,4.23-26.45,4.78-34.48.06-.89-.61-1.66-1.5-1.72-.88-.06-1.66.61-1.72,1.5-.56,8.24-2.22,20.02-5.07,36.02-1.14,6.4-2.26,12.25-3.07,16.52-.29,1.5-.54,2.81-.74,3.9-.23,1.26-.62,3.29-1.15,5.85-5.41,25.79-12.72,41.01-20.04,41.77ZM97.2,329.51c-.73.71-1.78,1.47-3.01,2.05.58-.89,1.2-1.58,1.66-2.11,2.17-2.41,2.94-2.48,3.01-2.49l.87-1.36-.81,1.44s.08.73-1.72,2.46ZM271.54,256.32c.83-.53,1.61-.89,2.19-1.16,2.11-.99,3.1-1.14,3.52-1.14.18,0,.25.03.26.03.02.02.04.08.04.09,0,0-.18.68-2.56,1.57-1.04.39-2.23.59-3.45.6ZM174.85,348.47c-2.12,1.89-3.95,3.53-5.45,4.93-.49.46-.65,1.17-.39,1.79.25.62.87,1.03,1.54,1,.82-.02,8.3-.02,13.23,6.17,2.99,3.76,4.46,8.65,3.83,12.76-.5,3.24-2.21,5.88-5.1,7.84-8.51,5.76-17.01-2.11-25.69-11.4-.68-.72-1.32-1.41-1.92-2.04-3.44-3.59-6.65-7.42-9.52-11.37-.87-1.19-.81-2.79.13-3.88,2.3-2.67,5.19-6.07,8.36-9.79,2.5-2.94,5.18-6.08,7.88-9.24,6.84,2.76,13.94,4.75,21.19,5.93-2.84,2.63-5.59,5.09-8.08,7.32ZM280.59,365.92c-.85.52-1.65,1.02-2.39,1.49-4.22,2.66-8.61,5.04-13.05,7.07-1.34.61-2.9.23-3.79-.9-2.22-2.86-5.13-6.57-8.35-10.68-6.95-8.86-15.59-19.89-21.56-27.83,0,0,0,0,0,0-.07-.09-.14-.17-.22-.24-.04-.03-.08-.06-.12-.09-.04-.03-.08-.07-.13-.09-.05-.03-.1-.05-.16-.07-.04-.02-.08-.04-.13-.06-.05-.02-.1-.02-.14-.04-.05-.01-.11-.03-.16-.04-.05,0-.1,0-.16,0s-.1,0-.16,0c-.11,0-.21.02-.32.05,0,0,0,0,0,0l-6.37,1.62c-12.21,3.12-24.55,3.91-36.7,2.34-8.51-1.08-16.86-3.31-24.81-6.63-14.07-5.85-26.79-15.1-36.85-26.76.46-2.22.79-3.99,1-5.13.2-1.09.45-2.4.74-3.89.76-3.98,1.78-9.32,2.84-15.21,1.22.01,2.45.03,3.67.03,28.31,0,56.53-3.55,83.94-10.58,15.1-3.87,30.02-8.82,44.39-14.72.97,1.08,2.2,1.99,3.64,2.67-.03.04-.05.08-.08.12-.91,1.53-3.71,6.91-1.39,11.99,1.99,4.37,6.5,5.96,7.38,6.24,1.15.36,2.29.53,3.44.53,9.03,0,17.81-10.35,23.3-16.82.55-.64,1.06-1.24,1.52-1.78,5.97-6.88,13.53-18.79,17.3-31.76,4.2,44.05-21.32,85.37-62.59,100.91-.06.02-.11.06-.17.08-.04.02-.09.04-.13.06h0s-.01,0-.02.01c-.08.06-.16.12-.23.18-.04.04-.07.08-.1.12-.03.04-.07.08-.1.12-.03.05-.06.1-.09.15-.02.04-.05.08-.07.12-.02.05-.03.1-.05.15-.02.05-.04.1-.05.15-.01.04-.01.09-.02.14,0,.06-.02.11-.02.17,0,.06,0,.11,0,.17,0,.05,0,.1,0,.15.03.21.11.42.23.61,3.08,4.86,5.86,9.62,8.31,13.81,1.4,2.39,2.6,4.45,3.64,6.16.35.57,1.01.87,1.67.75.66-.12,1.17-.63,1.3-1.29.25-1.35,1.86-8.27,8.68-11.74,4.28-2.18,9.36-2.65,13.26-1.22,3.08,1.13,5.33,3.34,6.67,6.56,3.95,9.47-5.44,16.24-16.27,22.9Z"/>
  </g>
</svg>