<?xml version="1.0" encoding="UTF-8"?>
<svg id="Layer_1" data-name="Layer 1" xmlns="http://www.w3.org/2000/svg" viewBox="0 0 454.37 425.85">
  <defs>
    <style>
      .cls-1 {
        fill: #76b3d0;
      }

      .cls-2 {
        fill: #161616;
      }
    </style>
  </defs>
  <path class="cls-1" d="M136,183.28c4.97-6.88,8.51-7.09,10.59-7.43-2.91-5.8-4.36-11.45-4.43-11.73-2.76-10.9-7.27-21.67-13.42-31.99l-.45-.75c-5.21-8.71-16.05-26.82-4.42-37.6,3.13-2.88,7.09-4.21,11.14-3.71,4.16.51,7.92,2.81,11.46,7.01,1.78-.77,3.55-1.39,5.06-1.76,6.11-1.49,12.08.22,15.72,4.44,1.34.36,2.64.91,3.85,1.64,6.59,3.96,11.32,12.78,4.84,25.64-1.59,3.14-2.12,5.57-2.04,9.28.09,4.88,1.61,12.34,4.71,17.19.67,1.05,2.02,1.44,3.21.94,10.14-4.3,20.73-7.35,31.91-10.51,5.89-9.69,17.48-15.69,28.13-18.3,15.09-3.72,30.92-3.52,45.77.57,13.49,3.71,32.29,11.64,45.15,28.3,7.07,9.15,11.06,19.93,12.69,27.91.44.46.87.92,1.3,1.39.54.63,1.06,1.25,1.55,1.87,3.57,4.52,5.27,10.13,4.79,15.82l-2.89,34.23c-.05.55-.44,1.02-.97,1.19-.13.04-.25.05-.39.05-.05,0-.12,0-.18-.02-1.08,2.39-2.57,4.63-4.46,6.55-.56.58-1.15,1.15-1.75,1.71-2.07,1.9-4.31,3.62-6.67,5.14-2.59,9.22-4.94,18.56-6.95,27.83-1.4,6.39-3.79,17.39-11.93,23.72,4.15,4.31,5.6,9.92,3.85,15.45-1.94,6.09-7.74,10.96-14.56,12.25-2.75,3.36-6.97,5.27-12.57,5.7-1.06.08-2.14.12-3.23.12-7.17,0-14.36-1.74-20.75-5.03-3.54-1.82-6.77-4.05-9.63-6.59-1.09.89-2.26,1.74-3.54,2.53-10.48,6.49-23.11,9.51-39.74,9.51-7.32,0-14.57-.58-20.98-1.09-12.29-.98-25.84-1.22-42.64-.73-2.61.07-5.21.2-7.97.34-5.91.3-12,.6-18.17.34-5.78-.25-10.78-4.08-12.66-9.41-8.85-3.67-11.72-10.68-12.63-15.09-1.2-5.77-.18-11.34,2.96-16.11,2.34-3.55,5.77-6.46,9.83-8.41.82-1.94,1.79-3.6,2.87-5.01-.57-6.57.32-13.94,2.46-20.08-7.23-26.5-1.17-55.75,16.21-77.35"/>
  <g>
    <path class="cls-2" d="M341.18,191.37c-.4-.5-.82-1.01-1.27-1.52-.94-1.07-1.94-2.08-2.98-3.04,0-.09.03-.17.01-.26-1-6.97-4.52-17.58-11.37-26.45-11.33-14.67-28.2-21.74-40.36-25.09-13.35-3.67-27.59-3.85-41.18-.51-9.79,2.4-20.56,8.09-23.97,17.17-.06,0-.11,0-.17.01l-2.52.71c-11.33,3.21-22.04,6.23-32.01,10.46-5.3,2.25-11.38.39-14.45-4.43-4.35-6.81-6.02-16.06-6.14-21.91-.1-5.18.77-9.11,3.02-13.56,3.21-6.38,2.73-11.25-1.38-13.72-1.55-.93-3.38-1.06-4.93-.49-.01-.54-.11-1.06-.28-1.53-.82-2.22-3.46-4.02-7.51-3.03-2.68.66-6.81,2.55-9.88,4.94-.28-.4-.61-.9-.94-1.41-2.25-3.43-5.33-8.13-8.98-8.58-1.37-.17-2.7.3-3.83,1.35-6.22,5.76,2.38,20.11,6.04,26.24l.46.77c6.6,11.08,11.46,22.66,14.43,34.42.65,2.57,4.01,12.68,8.52,16.71-2.69,2.32-5.3,4.86-7.8,7.55-1.24-1.22-2.46-1.43-3.3-1.37-.99.08-1.83.54-2.5,1.06-.02,0-.03,0-.05.01-.18.09-.34.22-.46.38l-.26.3c-.2.21-.36.4-.49.56l-.05.05s-.06.08-.08.11c-17.35,20.3-23.11,48.53-15.11,73.82-2.97,6.33-3.99,16.04-2.4,22.79-2.6,1.82-4.34,4.78-5.22,8.84-4.03,1.04-7.55,3.38-9.54,6.41-1.77,2.7-2.35,5.9-1.65,9.24,1.11,5.31,5.01,8.59,11.58,9.77.17,1.24.35,2.38.53,3.39.4,2.31,2.31,4,4.65,4.09,5.76.24,11.64-.05,17.31-.33,2.69-.13,5.47-.27,8.18-.35,17.15-.49,31.01-.25,43.63.75,6.61.53,13.54,1.08,20.47,1.08,12.12,0,24.26-1.69,34.73-8.17,3.1-1.92,6.7-5.04,7.7-9.5,3.41,5.38,8.36,10.08,14.43,13.21,5.1,2.63,10.89,4.03,16.56,4.03.86,0,1.71-.03,2.56-.1,5.41-.41,6.87-2.61,7.14-4.38.05-.32.06-.65.04-.98,1.78.02,3-.04,3.04-.04,3.96-.2,7.87-2.93,8.92-6.22.49-1.54.77-4.55-2.84-7.37-2.75-2.15-6.47-2.33-9.19-2.46-8.96-.44-19.84-3.33-24.26-10.06,3.69-4,6.78-8.13,8.39-11.18,2.09,3.57,4.72,6.76,7.99,9.39,3.65,2.93,7.67,4.48,11.41,4.48,1.55,0,3.06-.27,4.46-.81,7.54-2.93,10.1-12.03,11.91-20.33,2.32-10.67,5.04-21.42,8.09-31.97.23-.06.45-.17.66-.3,0,0,.02,0,.03-.01,2.73-1.52,5.28-3.36,7.57-5.47.5-.46.97-.92,1.42-1.38,2.4-2.44,3.76-5.65,3.83-9.03l.25-11.25s0-.04,0-.06c0-.07-.01-.14-.03-.21-.02-.09-.04-.18-.08-.26-.02-.04-.02-.08-.04-.12-.02-.03-.04-.05-.05-.08,0-.01-.02-.02-.02-.04-.35-.61-.85-1.12-1.44-1.54,1.1-.39,2.11-1.05,2.75-1.98.03-.04.03-.08.05-.12.04-.08.08-.16.1-.24.02-.07.04-.14.05-.21,0-.02.01-.04.01-.06l.95-11.21c.28-3.37-.73-6.7-2.85-9.38ZM325.83,228.91l.84,12.83c-.28-.05-.57-.12-.74-.16-.89-.21-1.55-1.01-1.61-1.95l-.78-11.93c-.08-1.29.35-2.58,1.2-3.54,1.06-1.2,2.2-2.25,3.37-3.12.57-.42,1.19-.93,1.84-1.46,1.84-1.5,3.93-3.21,5.69-3.64.74-.18,2.13.13,3.02.82-1.65,1.61-3.42,3.11-5.29,4.45-1.59,1.14-3.28,2.18-5.01,3.1-1.67.89-2.67,2.69-2.54,4.6ZM328.5,198.31c-.33,1.88.47,3.78,2.04,4.84,1.62,1.1,3.19,2.31,4.65,3.61,1.72,1.53,3.32,3.21,4.79,4.99-.96.59-2.37.75-3.09.49-1.71-.62-3.6-2.54-5.27-4.23-.59-.6-1.16-1.17-1.68-1.65-1.08-.99-2.09-2.15-3.02-3.46-.74-1.04-1.04-2.37-.82-3.64l2.04-11.78c.16-.92.9-1.65,1.89-1.78.14-.02.41-.05.68-.07l-2.2,12.67ZM339.11,193.01c1.71,2.15,2.52,4.83,2.29,7.53l-.68,8.03c-1.19-1.33-2.46-2.59-3.79-3.77-1.55-1.38-3.21-2.66-4.92-3.83-.71-.48-1.07-1.34-.92-2.21l2.04-11.73c1.73,1.38,3.34,2.91,4.8,4.57.42.48.81.95,1.18,1.42ZM142.71,114.14c.16-.3.37-.62.64-.96.24.54.35,1.07.28,1.65-.03.24-.14.46-.33.62-.33.29-.52.35-.53.38-.19-.19-.4-1.05-.06-1.7ZM130.73,264.9c1.37,3.64,3.01,7.19,4.92,10.58,1.68,3,3.58,5.91,5.69,8.71-1.3-.99-2.81-1.73-4.52-2.13-1.74-.4-3.57-.41-5.44-.02-.69.14-1.34.33-1.96.57-1.07-5.27-.52-12.26,1.31-17.71ZM113.17,307.83c-.56-2.68-.13-5.12,1.27-7.26,1.46-2.22,3.96-4,6.88-4.98-.42,3.77-.23,7.72-.06,11,.04.78.08,1.51.1,2.2.08,2.17.24,4.35.47,6.6-5.05-1.07-7.82-3.5-8.67-7.56ZM250.29,316.37c-15.71,9.73-35.84,8.12-53.6,6.7-12.71-1.02-26.67-1.26-43.91-.76-2.74.08-5.53.22-8.24.35-5.62.28-11.43.57-17.07.33-1.09-.05-1.98-.83-2.17-1.91-.22-1.24-.44-2.67-.64-4.24-.34-2.81-.56-5.48-.65-8.14-.03-.7-.06-1.45-.1-2.23-.19-3.74-.42-8.39.31-12.44,1-5.53,3.45-8.52,7.71-9.4,1.5-.31,2.95-.31,4.31,0,5.08,1.18,8.03,6.57,8.61,11.08.31,2.4-.07,4.87-1.11,7.16-.06.14-.13.31-.21.5-.36.88-.91,2.22-2.31,3.71-.63.67-.52,1.44-.23,1.89,1.18,1.87,8.19.18,8.26.16,2.65-.83,5.02-2.52,6.68-4.75,3.02-4.07.7-6.65-1.54-9.15l-6.81-7.62c-3.73-4.18-6.97-8.69-9.62-13.43-2.4-4.26-4.37-8.77-5.87-13.41-7.92-24.43-2.47-51.77,14.2-71.49.09-.08.17-.17.24-.27.05-.08.13-.19.23-.3l.33-.37c.42-.43.99-.87,1.54-.92.16-.01.65-.04,1.37.74-2.19,3.11-2.58,7.18-.95,10.7,10.22,21.95,23.61,42.03,40.94,61.39,22.22,24.81,42.99,38.45,58.6,47.56,1.58.92,3.34,1.39,5.12,1.39,1.02,0,2.05-.16,3.04-.48-.89,3.49-3.88,6.03-6.47,7.64ZM147.45,295.37c-.26-2.01-.89-4.1-1.89-6.04.01.01.02.02.03.04,0,0,6.57,7.34,6.58,7.36l.23.26c2.42,2.7,3.05,3.58,1.39,5.82-1.33,1.79-3.23,3.14-5.35,3.8-.61.19-2.48.45-3.94.55.77-1.14,1.17-2.12,1.45-2.8.06-.16.12-.3.18-.42,1.23-2.74,1.69-5.71,1.32-8.59ZM282.46,281.01c-.87,2.22-3.66,6.47-8.02,11.29-2.98-6.24-2.72-11.75.8-17.2.39-.61.22-1.43-.39-1.82-.61-.39-1.43-.22-1.82.39-4.34,6.74-4.35,13.78-.04,21.55,4.58,8.25,16.92,11.71,26.94,12.2,3.07.15,5.76.4,7.69,1.9,1.79,1.4,2.45,2.92,1.95,4.5-.72,2.28-3.65,4.24-6.53,4.38-1.07.05-2.37.06-3.76.03-1.41-2.57-4.34-4.97-7.22-6.12-2.94-1.17-5.36-.77-6.65,1.09-1.17,1.7-.88,3.02-.43,3.82,1.52,2.72,7.74,3.55,12.48,3.77.04.23.05.45.02.65-.17,1.15-1.9,1.93-4.74,2.15-5.97.46-12.26-.84-17.71-3.65-13.71-7.07-21.31-22.67-16.94-34.79.25-.68-.11-1.44-.79-1.69-.69-.25-1.44.11-1.69.79-2.43,6.73-1.54,14.42,1.85,21.37-.45.19-.89.36-1.31.51-2.06.71-4.33.48-6.22-.62-16.41-9.57-36.12-22.65-57.97-47.04-17.16-19.16-30.41-39.03-40.52-60.74-1.38-2.96-.85-6.43,1.33-8.85,3.08-3.41,6.35-6.56,9.73-9.36.34-.28.51-.71.47-1.15-.04-.44-.3-.82-.69-1.03-3.83-2.06-7.74-12.23-8.72-16.12-3.03-12-7.98-23.82-14.72-35.12l-.46-.77c-2.76-4.61-11.16-18.64-6.51-22.95.75-.7,1.35-.71,1.72-.67,2.44.3,5.36,4.75,7.1,7.41.46.69.84,1.28,1.18,1.75-.65.7-1.14,1.37-1.48,2.03-.88,1.69-.52,3.98.79,5,.42.32,1.92,1.24,3.88-.5.68-.59,1.1-1.41,1.21-2.3.18-1.51-.29-2.78-.92-3.85,2.69-2.13,6.53-3.94,8.99-4.54,2.64-.64,4.03.35,4.42,1.39.43,1.15-.15,2.82-2.41,3.98-.56.29-1.31.47-2.1.66-1.85.45-4.39,1.06-5.1,3.79-.56,2.15.23,4.18,2.1,5.43,2.13,1.42,5.07,1.39,6.97-.06,1.87-1.43,2.89-3.74,2.73-6.19l-.05-.57c-.12-1.49-.17-2.44.49-3.23.83-1.01,2.42-1.2,3.69-.44,3.53,2.12,2.15,6.76.38,10.28-2.42,4.8-3.41,9.23-3.3,14.8.12,6.19,1.91,16.01,6.55,23.28,3.76,5.9,11.21,8.19,17.7,5.43,9.82-4.16,20.45-7.17,31.7-10.35l1.15-.33c-.06.32-.11.64-.15.97-.65,5.22.69,9.82,3.88,13.3,3.07,3.35,7.71,5.38,12.63,5.58-.53,5.66.27,11.11,2.3,15.48,3.21,6.94,10.9,14.16,19.37,14.53.96.04,1.91-.02,2.85-.19-1.03,10.64.36,23.69,7.23,30.46,3.07,3.03,6.88,4.45,11.35,4.22-2.35,12.91-2.13,29.18,3.94,41.74-.07.1-.15.19-.2.31ZM295.91,318.07c-4.04-.32-7.95-1.05-8.65-2.31-.05-.08-.19-.34.29-1.05.32-.46.85-.61,1.42-.61.78,0,1.63.29,2.09.47,1.83.73,3.63,2.08,4.85,3.49ZM156.6,119.84c-1.02.78-2.7.76-3.91-.04-.65-.43-1.36-1.23-1.01-2.57.28-1.09,1.18-1.41,3.17-1.9.9-.22,1.83-.44,2.68-.87.23-.12.44-.24.65-.36,0,.45.05.88.08,1.29l.04.53c.1,1.54-.55,3.04-1.7,3.92ZM317.36,275.72c-1.66,7.63-3.96,15.97-10.29,18.43-3.89,1.51-8.84.29-13.26-3.26-14.36-11.53-15.64-35.13-12.34-52.25.86-.16,1.74-.37,2.62-.64,6.86-2.06,12.27-8.72,13.15-16.21.49-4.15-1.28-5.72-2.38-6.28-2.12-1.09-5.13-.31-7.67,1.98-3.68,3.32-5.2,8.66-6.55,13.38l-.22.75c-.44,1.53-.83,3.1-1.17,4.67-4,.35-7.37-.79-10.04-3.42-5.33-5.25-7.8-16.72-6.35-29.37,6.31-2.49,11.03-9.27,13.39-14.96,1.81-4.39.48-7.07-1.38-8.1-2.11-1.18-5.58-.55-8.13,2.95-2.97,4.07-5.24,10.65-6.29,18.14-1.01.26-2.04.37-3.07.32-7.42-.33-14.21-6.79-17.09-13-1.87-4.04-2.59-9.13-2.04-14.44,6.39-.58,11.75-4.18,14.5-9.78,2.42-4.92.91-8.81-1.52-10.35-2.28-1.45-5.97-1.17-9.07,2.71-3.11,3.89-5.3,9.14-6.22,14.87-4.32-.11-8.38-1.84-11.03-4.73-2.66-2.9-3.77-6.77-3.21-11.2,1.26-10.05,13.15-16.43,22.95-18.83,13.16-3.24,26.94-3.07,39.86.49,11.77,3.24,28.09,10.06,38.97,24.16,5.7,7.38,9,16.22,10.36,22.56-.3-.22-.59-.45-.89-.67-.01,0-.02-.01-.03-.02-.99-.77-2.39-.6-3.32-.48-2.07.27-3.71,1.85-4.07,3.93l-2.04,11.78c-.34,1.96.12,4.01,1.27,5.62,1.04,1.46,2.17,2.76,3.39,3.88.49.45,1.02.99,1.59,1.56,1.33,1.34,2.78,2.8,4.32,3.83-2.01.79-3.99,2.4-5.77,3.85-.62.51-1.21.99-1.74,1.38-1.32.98-2.59,2.15-3.78,3.5-1.31,1.48-1.99,3.47-1.86,5.45l.78,11.93c.14,2.09,1.57,3.81,3.64,4.34-3.01,10.42-5.69,21.04-7.98,31.58ZM282.05,235.82c.27-1.17.57-2.33.9-3.48l.22-.76c1.25-4.37,2.66-9.33,5.78-12.14,1.25-1.13,2.7-1.79,3.8-1.79.34,0,.64.06.9.19,1.15.59,1.1,2.53.98,3.64-.77,6.47-5.41,12.23-11.3,13.99-.42.13-.85.24-1.26.34ZM263.29,200.4c1.06-6.44,3.05-12,5.58-15.47,1.23-1.69,2.68-2.42,3.78-2.42.36,0,.67.08.94.22,1.09.61,1.18,2.5.23,4.8-1.97,4.74-5.67,10.29-10.53,12.87ZM238.64,171.69c.9-5.02,2.9-9.72,5.58-13.09,1.32-1.65,2.82-2.54,4.15-2.54.52,0,1.01.14,1.45.42,1.46.93,2.27,3.5.56,6.97-2.24,4.58-6.56,7.58-11.75,8.25ZM338.9,228.06c-.06,2.71-1.15,5.28-3.08,7.24-.42.43-.86.86-1.33,1.29-1.62,1.5-3.39,2.85-5.26,4.03l-.78-11.88c-.06-.87.39-1.7,1.15-2.1,1.83-.97,3.61-2.08,5.3-3.28,1.45-1.03,2.84-2.15,4.17-3.35l-.18,8.05Z"/>
    <path class="cls-2" d="M202.16,181.2c-3.89,2.49-6.14,5.91-5.04,7.64,1.11,1.73,5.16,1.11,9.04-1.38,3.89-2.49,6.14-5.91,5.04-7.64-1.11-1.73-5.16-1.11-9.04,1.38Z"/>
    <path class="cls-2" d="M234.11,217.77c-3.8,2.3-8.72,1.24-11.22-2.41-2.46-3.61-1.68-8.55,1.77-11.25.57-.45.67-1.28.22-1.85-.45-.57-1.28-.67-1.85-.22-4.54,3.55-5.56,10.06-2.32,14.81,2.11,3.1,5.55,4.78,9.06,4.78,1.95,0,3.92-.52,5.7-1.6.62-.38.82-1.19.44-1.81-.38-.62-1.19-.82-1.81-.44Z"/>
    <path class="cls-2" d="M206.4,214.91c-3.88,2.17-8.76.94-11.12-2.81-2.33-3.69-1.38-8.6,2.16-11.18.59-.43.72-1.25.29-1.84-.43-.59-1.25-.72-1.84-.29-4.66,3.39-5.91,9.86-2.84,14.72,2.07,3.29,5.62,5.1,9.27,5.1,1.82,0,3.67-.45,5.37-1.4.64-.35.86-1.16.51-1.79-.35-.63-1.16-.86-1.79-.51Z"/>
  </g>
</svg>