<?xml version="1.0" encoding="UTF-8"?>
<svg id="Layer_1" data-name="Layer 1" xmlns="http://www.w3.org/2000/svg" viewBox="0 0 498.39 408.09">
  <defs>
    <style>
      .cls-1 {
        fill: #fcec60;
      }

      .cls-2 {
        fill: #101010;
      }
    </style>
  </defs>
  <path class="cls-1" d="M394.42,208.14c-4.9,14.44-14.68,24.96-26.81,28.87-8.21,2.64-17.26,2.31-24.46-.86-1.11,1.53-2.21,2.95-3.34,4.29-.14,4.66-.43,9-.87,12.99-1.34,11.88-4.61,28.15-17.48,32.43-.64.21-1.66.5-2.93.72.05.07.1.12.15.18,3.6,4.75,5,10.68,3.94,16.7-3.27,18.47-23.44,18.44-30.07,18.43-1.02,0-1.95-.01-2.78-.03h-.1c-.73-.01-1.42-.02-2.06-.03-4.49-.01-9-.34-13.41-.96-6.78-.96-11.93-6.37-12.55-13.16-.24-2.67-.57-6.03-.92-9.72-.72-7.51-1.55-16.14-2.14-23.42-2.3.11-4.6.18-6.91.18-3.88,0-7.71-.17-11.48-.49-.54,15.56-1.03,26.66-1.48,33.07-.48,6.87-5.79,12.53-12.62,13.47-4.4.61-8.89.92-13.35.93-.65,0-1.34.02-2.07.03h-.1c-.83.02-1.76.03-2.78.02-6.63,0-26.8-.03-30.02-18.5-1.04-6.03.37-11.96,3.98-16.7,4.05-5.31,10.76-8.89,17.93-9.57.49-.05.99-.08,1.5-.1-.09-3.58-.11-7.92.13-12.32-7.84-3.5-15.03-7.87-21.45-13.03-15.8-12.71-25.87-30.17-30.65-53.26-4.12-2.43-8.14-4.99-12.04-7.68-8.63-5.98-15.99-11.78-21.84-17.23-8.74-8.15-19.86-20.49-15.63-33.37.69-2.09,3.53-9.18,11.07-12.5,4-1.77,8.33-2.07,12.9-.92,2.17-1.43,4.62-2.4,7.12-2.81,6.56-1.1,12,1.56,16.77,5.77,2.48-10.6,8.83-21.11,25.13-29.12,9.54-4.69,20.61-8.02,34.83-10.49,14.68-2.56,30.14-3.79,47.25-3.77,17.15.02,32.65,1.3,47.38,3.91,13.19,2.34,37.28,8.59,50.27,24.22,5.03,6.05,8.49,12.87,10.29,20.27,13.95.85,26.56,9.15,32.32,21.39,8.98,19.07,2.57,42.83-.61,52.17Z"/>
  <g>
    <path class="cls-2" d="M340.19,129.18c0-7.62-9.21-14.64-25.96-19.76-16.23-4.96-37.78-7.71-60.69-7.74-.12,0-.23,0-.35,0-22.78,0-44.2,2.69-60.36,7.59-16.77,5.08-26,12.08-26.01,19.7,0,7.62,9.21,14.64,25.96,19.76,16.23,4.96,37.78,7.71,60.69,7.74.12,0,.23,0,.35,0,22.78,0,44.2-2.69,60.36-7.59,16.77-5.08,26-12.08,26.01-19.7ZM313.34,146.12c-15.89,4.82-37.02,7.47-59.52,7.47h-.35c-22.63-.03-43.89-2.73-59.85-7.61-15.21-4.65-23.93-10.85-23.93-17s8.74-12.33,23.97-16.95c15.89-4.82,37.02-7.47,59.52-7.47h.35c22.63.03,43.89,2.73,59.85,7.61,15.21,4.65,23.93,10.85,23.93,17s-8.74,12.33-23.97,16.95Z"/>
    <path class="cls-2" d="M386.51,159.98c-4.75-10.09-15.76-16.52-27.43-16.03-1.5.07-2.96.25-4.36.54-.52-8.05-3.03-16.32-9.55-24.16-11.07-13.33-32.74-18.86-44.67-20.97-14.19-2.51-29.15-3.74-45.75-3.76-16.6-.03-31.49,1.17-45.63,3.63-13.31,2.31-23.58,5.38-32.29,9.66-21.48,10.56-21.46,25.8-21.44,40.54,0,1.37,0,2.78-.02,4.19-.3-.37-.61-.73-.9-1.1-.99-1.27-2.01-2.62-3.04-4-6.11-8.14-12.42-16.55-19.11-15.45-1.65.27-3.4,1.15-4.69,2.34-.72.67-1.3,1.43-1.75,2.25-.04-.02-.08-.05-.12-.08-1.41-.88-6.39-3.57-11.21-1.45-4.08,1.8-5.65,6-5.92,6.83-3.84,11.67,19.58,30.02,33.88,39.92,4.85,3.36,9.9,6.5,15.12,9.44,3.99,22.92,13.18,39.91,28.11,51.92,7.43,5.98,16.03,10.77,25.57,14.27-1.26,8.47-.77,19.31-.4,27.34.06,1.2.11,2.33.15,3.37-2.29-1.57-5.91-3.27-10.51-2.83-4.54.43-8.89,2.7-11.34,5.92-2.04,2.67-2.79,5.91-2.19,9.38,1.7,9.78,12.51,10.71,20.56,10.71,1.02,0,1.99-.02,2.9-.03.78-.01,1.53-.02,2.22-.03,4.05-.01,8.12-.3,12.11-.85,2.44-.33,4.34-2.35,4.51-4.79.53-7.59,1.13-22.07,1.8-43.01,6.67,1.1,13.65,1.66,20.72,1.66,5.13,0,10.3-.31,15.45-.89.4,7.66,1.73,21.46,2.8,32.69.35,3.68.67,7.04.92,9.71.22,2.42,2.06,4.34,4.48,4.69,4,.56,8.09.86,12.15.88.69,0,1.44.02,2.22.03.98.02,2.04.04,3.15.04,8.01,0,18.63-.99,20.34-10.66.61-3.47-.14-6.71-2.17-9.39-2.45-3.22-6.79-5.5-11.33-5.94-4.61-.45-8.24,1.24-10.53,2.81.03-.79.06-1.62.1-2.49.31-7.7.73-18.1-.29-26.69,1.64-.47,3.27-.98,4.89-1.52.3,2.07,1.03,3.84,2.42,5.18,1.2,1.16,2.95,2.05,4.67,2.37.96.18,1.92.19,2.85.06,0,.05,0,.09.01.14.14,1.66.94,7.26,5.51,9.87,1.73.99,3.56,1.28,5.11,1.28,1.92,0,3.44-.45,3.9-.6,9.46-3.14,11.76-23.34,11.98-40.13,3.98-4.23,7.2-9.05,10.13-13.98,5.94,7.05,16.2,7.78,24.11,5.24,9.27-2.99,16.85-11.35,20.79-22.95,2.81-8.25,8.52-29.17,1-45.13ZM128.74,145.56c1.34,2.97,1,3.64.97,3.69-.02.02-.1.05-.14.04,0,0-.68-.15-1.52-2.48-.31-.88-.61-2.22-.61-3.68.62.93,1.02,1.8,1.3,2.43ZM340.41,217.4c-3.1-5.33-5.23-12.1-2.57-16.58,1.27-2.15,3.13-3.01,4.77-3.01.45,0,.89.07,1.29.19,1.62.5,3.27,2.18,3.06,5.36-.22,3.15-1.97,6.12-3.67,8.99-.4.68-.79,1.34-1.17,2.01-.57,1.01-1.13,2.02-1.71,3.04ZM382.78,204.18c-3.59,10.57-10.68,18.47-18.95,21.13-7.27,2.34-16.73,1.63-21.67-5.17.83-1.46,1.65-2.92,2.46-4.36.36-.65.75-1.3,1.13-1.95,1.87-3.16,3.8-6.43,4.06-10.26.27-4-1.72-7.26-5.07-8.31-2.92-.91-6.96,0-9.39,4.1-3.55,5.98-.7,14.48,3.41,20.9-2.48,4.25-5.15,8.41-8.28,12.17-.01-2.29-.06-4.48-.13-6.5-.45-13.66-2.4-27.51-5.79-41.17-.19-.77-.97-1.24-1.75-1.05-.77.19-1.24.97-1.05,1.75,3.34,13.47,5.26,27.12,5.71,40.57.91,27.8-2.79,45.81-9.9,48.17-.38.13-3.8,1.19-6.68-.45-3.44-1.96-3.99-6.68-4.07-7.6-.02-.25-.03-.5-.03-.74,2.35-1.06,4.36-2.89,5.61-4.77.61-.92,2.48-3.72,1.12-5.84-.48-.75-1.29-1.28-2.15-1.39-2.63-.36-4.5,3-5.29,4.43-.58,1.05-1.63,2.93-2.02,5.48-.77.16-1.59.19-2.43.03-1.4-.26-2.57-1.01-3.2-1.62-1.14-1.1-1.64-2.81-1.7-4.91,0-.07,0-.14,0-.22-.08-4.54,1.77-10.79,3.48-16.53.5-1.67.98-3.31,1.42-4.88,3.15-11.4,4.65-23.62,4.47-36.32-.01-.8-.68-1.43-1.46-1.42-.8.01-1.43.67-1.42,1.46.18,12.43-1.29,24.38-4.36,35.52-.43,1.55-.91,3.18-1.4,4.82-1.71,5.74-3.43,11.58-3.58,16.39-2.22.75-4.47,1.46-6.71,2.08-.02,0-.03.01-.05.02-.05.01-.09.03-.14.05-.04.02-.09.04-.13.06-.04.02-.08.05-.12.08-.04.03-.08.05-.11.08-.03.03-.07.06-.1.09-.03.03-.07.07-.09.1s-.05.07-.08.11c-.03.04-.05.08-.07.12-.02.04-.04.08-.06.12-.02.04-.04.09-.05.13-.01.04-.02.09-.03.13,0,.05-.02.1-.02.15,0,.04,0,.09,0,.13,0,.05,0,.11,0,.16,0,.02,0,.03,0,.05,1.19,8.55.74,19.45.42,27.41-.09,2.19-.17,4.15-.2,5.75-.01.6.35,1.14.9,1.36.55.22,1.19.08,1.59-.35.45-.48,4.6-4.7,10.74-4.1,3.77.37,7.34,2.22,9.31,4.82,1.55,2.05,2.1,4.45,1.63,7.14-1.4,7.93-10.54,8.42-20.59,8.25-.8-.01-1.55-.03-2.25-.03-3.94-.02-7.9-.31-11.77-.85-1.09-.15-1.92-1.02-2.02-2.1-.24-2.68-.57-6.03-.92-9.72-1.15-12-2.58-26.93-2.86-34.07,0-.02,0-.04,0-.06,0-.02,0-.04,0-.06,0-.03-.01-.05-.02-.08,0-.05-.02-.09-.03-.14-.01-.05-.03-.1-.05-.15-.01-.03-.03-.06-.04-.09-.03-.07-.07-.13-.11-.19,0,0-.01-.02-.02-.03-.26-.36-.68-.58-1.15-.58-.02,0-.04,0-.06,0-.02,0-.04,0-.06,0-.02,0-.04,0-.06,0-12.99,1.63-26.27,1.33-38.4-.84,0,0-.02,0-.03,0-.02,0-.04,0-.05,0,0,0-.02,0-.03,0-.06,0-.12-.02-.18-.02-.02,0-.04,0-.07,0-.02,0-.03,0-.05,0-.08,0-.16.01-.23.03-.02,0-.04.01-.06.02-.07.02-.13.04-.2.07-.03.01-.06.03-.09.05-.05.02-.09.05-.14.08-.04.03-.08.06-.12.09-.03.02-.06.05-.09.08-.04.04-.08.08-.11.13-.02.03-.05.05-.07.08-.03.04-.06.09-.08.14-.02.04-.04.07-.06.11-.02.04-.03.09-.05.13-.02.05-.03.1-.04.15,0,.01,0,.03-.01.04,0,.03,0,.07,0,.1s-.01.07-.01.1c-.68,21.81-1.3,36.79-1.84,44.55-.08,1.11-.91,1.99-2.03,2.14-3.86.53-7.81.81-11.72.82-.7,0-1.46.01-2.26.03-10.06.16-19.19-.36-20.57-8.29-.47-2.7.09-5.1,1.64-7.14,1.98-2.6,5.56-4.44,9.33-4.8,6.15-.59,10.28,3.64,10.73,4.13.41.44,1.04.58,1.59.35.55-.22.91-.77.9-1.36-.03-1.85-.14-4.08-.26-6.66-.38-8.26-.91-19.58.54-27.89,0,0,0-.02,0-.03,0-.05,0-.1.01-.15,0-.04,0-.09,0-.13,0-.05-.01-.09-.02-.14,0-.05-.01-.09-.02-.14-.01-.04-.03-.08-.04-.12-.02-.05-.03-.09-.05-.14-.02-.04-.04-.08-.07-.12-.02-.04-.04-.08-.07-.12-.03-.04-.06-.07-.09-.11-.03-.03-.06-.07-.09-.1-.03-.03-.07-.06-.11-.08-.04-.03-.07-.06-.12-.09-.04-.02-.08-.04-.12-.06-.05-.02-.09-.05-.14-.07,0,0-.01,0-.02-.01-9.69-3.42-18.38-8.2-25.85-14.22-13.86-11.15-22.59-26.83-26.65-47.87,5.86,3.16,11.91,6.05,18.13,8.64.18.08.37.11.55.11.56,0,1.1-.33,1.33-.89.31-.73-.04-1.58-.78-1.88-12.81-5.34-24.92-11.93-35.98-19.6-22.87-15.83-35.12-29.53-32.78-36.65.13-.38,1.31-3.76,4.34-5.09,3.62-1.59,7.74.77,8.53,1.26.21.13.42.27.61.41-.55,2.52-.28,5.22.48,7.34.37,1.04,1.51,4.2,4.02,4.38.89.06,1.79-.27,2.4-.9,1.85-1.9.27-5.4-.4-6.89-.49-1.09-1.38-3.06-3.2-4.89.33-.72.79-1.39,1.42-1.97,1.05-.97,2.34-1.47,3.21-1.61,4.96-.83,11,7.23,16.33,14.33,1.04,1.39,2.07,2.76,3.07,4.04,1.09,1.39,2.22,2.75,3.38,4.11.06.08.12.15.19.21,6.57,7.63,14.25,14.66,22.94,20.91.65.46,1.55.32,2.01-.33.46-.65.32-1.55-.33-2.01-8.4-6.05-15.83-12.82-22.19-20.17l.03-1.63c.04-2,.04-4.01.04-5.96-.02-15.13-.04-28.19,19.83-37.95,8.47-4.16,18.48-7.15,31.52-9.41,13.97-2.43,28.74-3.58,45.13-3.58,16.43.02,31.23,1.23,45.25,3.71,11.54,2.04,32.47,7.36,42.96,19.98,6.19,7.44,8.5,15.36,8.91,23.09-6.72,2.26-11.92,7.28-14.49,14.26-1.11,3.02-1.39,5.64-.85,8,.71,3.11,3.05,5.59,5.82,6.17,3.42.72,6.64-1.42,8.31-3.86,1.66-2.42,2.28-5.33,2.77-8.1.81-4.56,1.44-9.38,1.4-14.32,1.4-.32,2.86-.51,4.38-.58,10.51-.46,20.43,5.32,24.7,14.38,7.07,15.01,1.57,35.05-1.12,42.97ZM307.43,261.72c.37-1.06.84-1.89,1.17-2.49,1.59-2.85,2.32-2.97,2.39-2.98.03,0,.09.05.12.09,0,0,.28.64-1.09,2.7-.52.78-1.42,1.81-2.59,2.68ZM351.94,148.28c-.03,4.46-.61,8.82-1.34,12.95-.46,2.57-.98,5.03-2.32,6.98-1.09,1.6-3.23,3.11-5.34,2.67-1.66-.35-3.14-1.99-3.6-4-.41-1.8-.17-3.88.74-6.35,2.18-5.92,6.35-10.16,11.86-12.25Z"/>
    <path class="cls-2" d="M233.8,187.13c-2.13,0-3.87,3.89-3.88,8.69s1.72,8.7,3.85,8.7c2.13,0,3.87-3.89,3.88-8.69,0-4.8-1.72-8.7-3.85-8.7Z"/>
    <path class="cls-2" d="M266.86,187.17c-2.13,0-3.87,3.89-3.88,8.69,0,4.8,1.72,8.7,3.85,8.7,2.13,0,3.87-3.89,3.88-8.69,0-4.8-1.72-8.7-3.85-8.7Z"/>
    <path class="cls-2" d="M260.46,210.09c-.79-.04-1.48.56-1.53,1.35-.28,4.55-4.03,8.09-8.57,8.09h-.07c-4.5-.04-8.24-3.6-8.5-8.11-.05-.79-.72-1.41-1.52-1.35-.79.05-1.4.73-1.35,1.52.35,6.02,5.34,10.78,11.35,10.82.03,0,.06,0,.09,0,6.06,0,11.07-4.73,11.44-10.8.05-.79-.56-1.48-1.35-1.53Z"/>
    <path class="cls-2" d="M262.3,123.91c1.73-.98,4.34-2.45,5.29-5.1.6-1.67.4-3.54-.57-5.25-.89-1.57-2.34-2.81-3.98-3.4-2.88-1.03-6.41-.42-9.45,1.65-.72.49-1.31,1.16-1.88,1.8-.98,1.1-1.63,1.76-2.41,1.78-.57.03-1.6-.65-2.51-1.23-1.23-.78-2.63-1.67-4.1-1.83-2.4-.26-4.87.69-6.28,2.42-.59.72-.97,1.54-1.12,2.43-.54,3.17,1.86,5.68,3.33,6.89.49.4.99.78,1.5,1.15,1.2.89,2.34,1.73,3.06,2.83.79,1.19.88,2.92-.46,3.93-.62.47-.77,1.35-.32,1.98.28.4.73.61,1.18.61.27,0,.55-.08.79-.24,4.37-2.9,9.08-5.51,13.64-8.04,1.43-.79,2.86-1.59,4.29-2.39ZM246.62,129.5c-.07-1.03-.41-2.08-1.04-3.03-1.01-1.52-2.4-2.55-3.76-3.55-.47-.35-.94-.69-1.39-1.06-.8-.66-2.63-2.38-2.32-4.18.07-.39.24-.76.51-1.09h0c.7-.86,2.01-1.4,3.28-1.4.15,0,.31,0,.46.02.81.09,1.85.75,2.86,1.39,1.32.84,2.65,1.7,4.12,1.68,2.1-.04,3.43-1.54,4.5-2.75.48-.54.93-1.04,1.36-1.33,2.28-1.55,4.84-2.04,6.85-1.32.98.35,1.9,1.14,2.45,2.11.55.97.68,1.98.36,2.85-.54,1.51-2.2,2.55-3.99,3.56-1.42.8-2.84,1.59-4.27,2.38-3.31,1.83-6.69,3.71-9.99,5.72Z"/>
    <path class="cls-2" d="M256.88,130.46s0,0-.01,0c-.7.37-.97,1.25-.59,1.95.26.49.76.76,1.27.76.23,0,.46-.05.68-.17,0,0,0,0,0,0,6.52-3.47,12.86-3.86,19.56-4.27,3.49-.21,7.1-.43,10.88-1.09,2.52-.44,5.11-1.12,6.94-3.04,1.18-1.24,1.81-3.07,1.65-4.78-.13-1.41-.78-2.61-1.84-3.38-1.98-1.44-4.56-.93-6.32.03-.93.51-1.73,1.14-2.5,1.74-.38.3-.76.6-1.15.88,0,0,0,0,0,0-.17.12-.35.24-.53.36-2.73,1.72-6.11,1.94-9.7,2.17-.81.05-1.63.11-2.43.18-5.17.46-8.08,2.83-10.91,5.13-1.5,1.22-3.06,2.49-5.01,3.53ZM273.05,124.68c.78-.07,1.57-.12,2.36-.17,3.78-.25,7.69-.5,11.05-2.61.23-.14.45-.29.67-.45.43-.31.85-.63,1.26-.96.71-.56,1.38-1.09,2.1-1.48,1.01-.55,2.4-.84,3.24-.23.48.35.63.9.66,1.31.08.89-.26,1.89-.87,2.53-1.26,1.32-3.31,1.83-5.35,2.19-3.62.63-7.14.85-10.55,1.06-3.8.23-7.48.46-11.18,1.21,1.8-1.23,3.79-2.15,6.62-2.39Z"/>
    <path class="cls-2" d="M231.43,130.37c2.84.53,5.52,1.04,6.88,1.92.24.16.51.23.78.23.46,0,.92-.22,1.2-.64.44-.65.27-1.54-.38-1.99-1.08-.75-2.35-1.35-3.7-2-2.3-1.1-4.69-2.24-5.66-3.96-.21-.37-.38-.79-.55-1.3h0c-.18-.54-.31-1.1-.45-1.66-.13-.54-.27-1.08-.43-1.62-.76-2.49-2.11-4.16-3.91-4.82-1.31-.48-2.77-.35-4.11.36-1.52.81-2.66,2.26-3.05,3.88-.57,2.37-.31,4.42.78,6.1,2.3,3.55,7.77,4.58,12.59,5.49ZM220.87,119.45c.2-.81.81-1.58,1.6-2.01.25-.13.67-.31,1.14-.31.2,0,.4.03.61.11,1.22.45,1.87,2.05,2.15,2.96.15.48.27.97.39,1.47.15.61.31,1.23.51,1.85.22.69.48,1.29.78,1.82.35.62.79,1.18,1.3,1.68-3.45-.72-6.78-1.7-8.08-3.71-.65-1-.78-2.27-.4-3.86Z"/>
    <path class="cls-2" d="M222.57,132.45l-3.24-.33c-3.7-.39-6.94-.87-9.12-2.92-.98-.92-1.7-2.13-2.46-3.42-.37-.63-.75-1.25-1.15-1.85-1.9-2.82-4.76-4.31-7.48-3.88-2.44.38-4.31,2.27-5.15,5.18-1.9,6.59,3.58,11.54,8.85,13.78,6.42,2.73,13.19,3.45,21.95,2.34l.88-.12c3.9-.51,11.16-1.47,13.74,1.52.29.33.69.5,1.09.5.33,0,.67-.11.94-.35.6-.52.67-1.43.15-2.03-5.71-6.64-11.23-7.65-19.01-8.45ZM225.28,138.4l-.87.11c-8.22,1.04-14.53.39-20.46-2.13-1.51-.64-8.98-4.17-7.21-10.34.52-1.82,1.53-2.93,2.83-3.14.15-.02.31-.04.47-.04,1.45,0,3.04,1.01,4.17,2.68.37.56.72,1.14,1.06,1.72.83,1.4,1.69,2.85,2.97,4.05,3.06,2.87,7.53,3.34,10.79,3.68l3.24.33c4.39.45,7.85.9,11.03,2.5-2.86-.1-5.8.28-8.03.58Z"/>
    <path class="cls-2" d="M311.93,125.53c-2.79-1.96-7.98.69-10.05,2.28-5.96,4.57-11.93,4.43-18.24,4.29-.92-.02-1.84-.04-2.77-.05-1.68-.01-3.9,0-6.25.28l-1.58.18c-8.06.92-20.25,2.31-25.34,9.42-.38.52-.36,1.24.05,1.74.28.35.7.54,1.12.54.19,0,.38-.04.56-.11,9.62-4.09,18.94-3.9,27.58-3.09,10.08.95,21.51,2.02,30.8-3.6,2.74-1.66,4.4-3.52,5.08-5.69.94-3,.61-5.08-.97-6.18ZM310.15,130.85c-.46,1.48-1.71,2.81-3.82,4.09-8.48,5.13-19.4,4.1-29.04,3.2-2.95-.28-5.98-.48-9.08-.48-3.7,0-7.5.29-11.38,1.11,5.16-2.1,11.66-2.84,16.54-3.4l1.59-.18c2.19-.26,4.29-.28,5.89-.26h0c.91,0,1.82.03,2.72.05,6.54.15,13.29.3,20.06-4.88,2.19-1.68,5.73-2.85,6.65-2.21.33.23.41,1.23-.13,2.96Z"/>
    <path class="cls-2" d="M357.59,171.82c-3.51,2.32-3.93,7.29-4.26,11.29-.08.92-.15,1.79-.25,2.53-.38,2.71-.61,6.14.98,8.67h0c1.22,1.93,3.09,3.15,5.42,3.52.48.08.97.12,1.47.12,2.39,0,4.89-.88,6.77-2.44,3.25-2.69,4.6-6.65,5.15-9.5.95-4.88.05-9.35-2.48-12.25-2.58-2.97-9-4.44-12.8-1.94ZM370.03,185.46c-.47,2.39-1.57,5.69-4.16,7.83-1.63,1.35-3.96,2.02-5.95,1.7-1.04-.17-2.47-.68-3.43-2.21-1.11-1.76-.85-4.68-.56-6.73.12-.82.19-1.73.27-2.69.28-3.38.63-7.58,2.98-9.13.85-.56,1.98-.81,3.15-.81,2.27,0,4.73.92,5.88,2.24,1.94,2.23,2.6,5.8,1.82,9.81Z"/>
  </g>
</svg>