<?xml version="1.0" encoding="UTF-8"?>
<svg id="Layer_1" data-name="Layer 1" xmlns="http://www.w3.org/2000/svg" viewBox="0 0 629.99 498.32">
  <defs>
    <style>
      .cls-1 {
        fill: #feffe6;
      }
    </style>
  </defs>
  <g>
    <path class="cls-1" d="M181.59,165.58h-25.32c-.25,22.91-5.6,32.19-16.41,35v-35h-25.45v89.08h25.45v-34.74h.05c2.91-.23,5.6,1.55,6.53,4.32l10.22,30.42h27.87l-16.54-46.45c9.04-9.03,13.62-23.16,13.62-42.63Z"/>
    <path class="cls-1" d="M257,194.21c0-16.93-14-28.63-33.59-28.63h-32.46v89.08h25.45v-31.18c2.52,0,4.77,1.58,5.62,3.96l9.77,27.22h27.61l-14.38-37.41c7.51-5.22,11.96-13.36,11.96-23.03ZM224.36,203.12c-.37,0-.74-.03-1.1-.08-3.87-.54-6.85-3.86-6.85-7.88s3.01-7.38,6.91-7.88c.14-.02.29-.04.43-.05,3.87-.3,7.38,2.13,8.31,5.9,1.31,5.26-2.64,9.98-7.7,9.98Z"/>
    <path class="cls-1" d="M266.63,254.66h55.23v-24.18h-24.43c-2.95,0-5.35-2.39-5.35-5.35v1.02c0-2.95,2.39-6.62,5.35-6.62h20.61v-21.63h-20.61c-2.95,0-5.35-2.39-5.35-5.35s2.39-5.35,5.35-5.35h24.43v-21.63h-55.23v89.08Z"/>
    <path class="cls-1" d="M431.72,165.58h-39.59c-.06,0-.12.05-.13.11l-9.39,46.95c-.03.15-.24.15-.27,0l-9.39-46.95c-.01-.06-.07-.11-.13-.11h-40.6c-.07,0-.14.06-.14.14v88.81c0,.07.06.14.14.14h24.54c.07,0,.14-.06.14-.14v-29.87c0-4.75,6.81-5.53,7.88-.9l7.11,30.79c.01.06.07.1.13.1h20.02c.06,0,.12-.04.13-.11l6.89-30.74c1.05-4.7,7.98-3.94,7.98.88v29.83c0,.07.06.14.14.14h24.55c.07,0,.14-.06.14-.14v-88.81c0-.07-.06-.14-.14-.14Z"/>
    <path class="cls-1" d="M500.18,184.3c-2.52-10.95-12.27-18.71-23.51-18.71h0c-11.25,0-21.01,7.78-23.51,18.75l-16.08,70.33h27.24l2.42-14.13h19.72l2.67,14.13h27.24l-16.19-70.37ZM479.51,202.54c-.92.37-1.92.58-2.97.58s-2.14-.22-3.1-.62h0c-2.85-1.22-4.85-4.04-4.85-7.33,0-4.26,3.34-7.73,7.55-7.94.14-.01.27-.01.41-.01.05,0,.1,0,.15,0,4.32.08,7.8,3.6,7.8,7.95,0,3.34-2.06,6.2-4.98,7.38Z"/>
  </g>
  <g>
    <path class="cls-1" d="M120.64,318.43c-2.24,0-3.97.22-4.84.22-1.08,0-1.59-.58-1.59-1.37,0-2.46,3.25-.94,3.25-5.78v-37.26c0-4.84-3.25-3.25-3.25-5.7,0-.8.51-1.45,1.59-1.45.87,0,2.6.22,4.84.22,2.67,0,5.49-.22,8.01-.22,11.91,0,20.51,9.6,20.51,26.28,0,14.15-6.79,25.27-20.43,25.27-1.81,0-4.98-.22-8.09-.22ZM128.8,314.9c8.59,0,13.43-8.23,13.43-21.52,0-14.94-5.34-22.38-13.65-22.38h-.58c-2.45,0-4.19.36-4.19,3.47v36.9c0,2.17.43,3.54,4.19,3.54h.79Z"/>
    <path class="cls-1" d="M184.49,305.8c0,1.08-.36,2.45-1.37,5.34l-2.09,5.99c-.58,1.59-1.08,2.81-2.09,2.81-1.45,0-1.59-1.52-3.39-1.52h-16.03c-2.24,0-3.9.22-4.77.22-1.15,0-1.59-.58-1.59-1.37,0-2.46,3.18-.94,3.18-5.78v-37.26c0-4.84-3.18-3.25-3.18-5.7,0-.8.51-1.45,1.59-1.45.87,0,2.53.22,4.77.22h14.44c1.59,0,1.73-1.52,3.11-1.52,1.08,0,1.3.72,2.31,3.54l1.81,5.2c.94,2.53,1.45,3.97,1.45,4.84s-.72,1.37-1.37,1.37c-.79,0-1.23-.58-1.88-1.59-4.77-7.72-6.57-8.16-9.39-8.16h-3.61c-2.53,0-3.68.36-3.68,3.54v14.58c0,1.3.58,1.52,1.45,1.52h4.19c2.96,0,2.6-5.41,4.62-5.41.87,0,1.3.58,1.3,1.95,0,1.66-.14,3.46-.14,5.27s.14,3.75.14,5.34c0,1.44-.43,2.02-1.3,2.02-2.02,0-1.59-5.56-4.62-5.56h-4.19c-.87,0-1.45.29-1.45,1.59v15.45c0,2.38.29,3.54,3.68,3.54h5.13c3.97,0,6.28-2.96,9.68-8.66.72-1.16,1.3-1.73,2.09-1.73s1.23.58,1.23,1.37Z"/>
    <path class="cls-1" d="M191.65,317.13l-1.73-6.14c-1.3-4.55-1.52-5.56-1.52-6.28,0-.87.51-1.52,1.3-1.52.87,0,1.3.65,2.02,1.95,3.39,5.92,7.29,10.4,11.99,10.4,4.19,0,7.22-2.96,7.22-8.52,0-6.65-4.84-9.96-10.18-13.65-6.28-4.19-11.55-8.66-11.55-15.38s5.05-11.7,10.54-11.7c3.68,0,5.42,1.44,6.35,1.44.79,0,.94-1.66,2.24-1.66,1.23,0,1.66.94,2.24,2.67l1.73,4.33c1.37,3.39,1.88,4.84,1.88,5.78s-.65,1.37-1.37,1.37c-.65,0-1.01-.22-1.59-1.15-2.96-4.77-6.5-8.74-10.61-8.74-3.47,0-5.27,2.82-5.27,5.92,0,3.75,2.96,6.86,8.23,10.33,5.42,3.61,13.29,8.59,13.29,18.63,0,8.16-5.2,14.22-12.56,14.22-4.12,0-6.64-1.95-7.73-1.95-1.15,0-1.23,2.24-2.82,2.24-1.08,0-1.66-1.08-2.09-2.6Z"/>
    <path class="cls-1" d="M224.4,317.13l-1.73-6.14c-1.3-4.55-1.52-5.56-1.52-6.28,0-.87.51-1.52,1.3-1.52.87,0,1.3.65,2.02,1.95,3.39,5.92,7.29,10.4,11.99,10.4,4.19,0,7.22-2.96,7.22-8.52,0-6.65-4.84-9.96-10.18-13.65-6.28-4.19-11.55-8.66-11.55-15.38s5.05-11.7,10.54-11.7c3.68,0,5.42,1.44,6.35,1.44.79,0,.94-1.66,2.24-1.66,1.23,0,1.66.94,2.24,2.67l1.73,4.33c1.37,3.39,1.88,4.84,1.88,5.78s-.65,1.37-1.37,1.37c-.65,0-1.01-.22-1.59-1.15-2.96-4.77-6.5-8.74-10.61-8.74-3.47,0-5.27,2.82-5.27,5.92,0,3.75,2.96,6.86,8.23,10.33,5.41,3.61,13.28,8.59,13.28,18.63,0,8.16-5.2,14.22-12.56,14.22-4.12,0-6.64-1.95-7.73-1.95-1.15,0-1.23,2.24-2.82,2.24-1.08,0-1.66-1.08-2.09-2.6Z"/>
    <path class="cls-1" d="M284.32,305.8c0,1.08-.36,2.45-1.37,5.34l-2.09,5.99c-.58,1.59-1.08,2.81-2.09,2.81-1.45,0-1.59-1.52-3.39-1.52h-16.03c-2.24,0-3.9.22-4.77.22-1.15,0-1.59-.58-1.59-1.37,0-2.46,3.18-.94,3.18-5.78v-37.26c0-4.84-3.18-3.25-3.18-5.7,0-.8.51-1.45,1.59-1.45.87,0,2.53.22,4.77.22h14.44c1.59,0,1.73-1.52,3.11-1.52,1.08,0,1.3.72,2.31,3.54l1.81,5.2c.94,2.53,1.45,3.97,1.45,4.84s-.72,1.37-1.37,1.37c-.79,0-1.23-.58-1.88-1.59-4.77-7.72-6.57-8.16-9.39-8.16h-3.61c-2.53,0-3.68.36-3.68,3.54v14.58c0,1.3.58,1.52,1.45,1.52h4.19c2.96,0,2.6-5.41,4.62-5.41.87,0,1.3.58,1.3,1.95,0,1.66-.14,3.46-.14,5.27s.14,3.75.14,5.34c0,1.44-.43,2.02-1.3,2.02-2.02,0-1.59-5.56-4.62-5.56h-4.19c-.87,0-1.45.29-1.45,1.59v15.45c0,2.38.29,3.54,3.68,3.54h5.13c3.97,0,6.28-2.96,9.68-8.66.72-1.16,1.3-1.73,2.09-1.73s1.23.58,1.23,1.37Z"/>
    <path class="cls-1" d="M320.14,317.28c0,.87-.79,1.37-1.52,1.37-.94,0-3.03-.22-5.2-.22-2.02,0-3.9.22-5.2.22-1.01,0-1.66-.51-1.66-1.52,0-1.81,2.38-1.59,2.38-3.61,0-.58-.43-2.02-.72-2.89l-3.97-9.82c-.51-1.08-.87-1.45-1.66-1.37-1.81.07-3.68.07-4.62,0-.72-.07-1.3.22-1.3,1.45v10.61c0,4.84,3.25,3.32,3.25,5.85,0,.65-.51,1.3-1.44,1.3-1.15,0-2.67-.22-5.05-.22-2.24,0-3.75.22-4.91.22-1.01,0-1.44-.65-1.44-1.3,0-2.53,3.25-1.01,3.25-5.85v-37.26c0-4.84-3.25-3.18-3.25-5.63,0-.79.51-1.52,1.81-1.52.87,0,2.38.22,4.4.22,2.45,0,4.98-.36,7.44-.36,10.54,0,17.26,6.79,17.26,16.97,0,6.79-3.25,12.13-8.52,14.44l4.91,11.84c2.45,5.71,5.78,4.84,5.78,7.08ZM311.04,283.7c0-8.38-4.33-12.85-10.25-12.85-3.97,0-4.12,1.88-4.12,4.19v17.69c0,2.38.87,3.11,3.61,3.11,7.29,0,10.76-4.33,10.76-12.13Z"/>
    <path class="cls-1" d="M332.5,317.28c0-2.96,3.75-1.01,3.75-5.85v-37.55c0-1.59-.22-2.89-2.17-2.89h-.94c-2.82,0-4.55,1.66-8.16,8.16-.58,1.01-1.08,1.52-1.88,1.52s-1.37-.58-1.37-1.45c0-.94.29-1.95,1.08-4.69l1.52-5.2c.65-2.38,1.01-3.47,2.17-3.47,1.44,0,1.59,1.45,3.18,1.45h19.5c1.59,0,1.73-1.45,3.11-1.45,1.23,0,1.59,1.08,2.24,3.47l1.52,5.2c.79,2.74,1.08,3.82,1.08,4.69s-.58,1.45-1.37,1.45-1.23-.51-1.88-1.52c-3.68-6.35-5.27-8.16-8.16-8.16h-1.01c-1.88,0-2.09,1.23-2.09,2.89v37.55c0,4.84,3.68,2.89,3.68,5.85,0,.72-.58,1.37-1.52,1.37-1.37,0-2.89-.22-5.34-.22s-4.04.22-5.34.22c-1.01,0-1.59-.65-1.59-1.37Z"/>
    <path class="cls-1" d="M410.26,317.35c0,.65-.51,1.3-1.44,1.3-1.16,0-2.67-.22-4.98-.22s-3.68.22-4.91.22c-1.01,0-1.44-.65-1.44-1.3,0-2.53,3.25-1.01,3.25-5.85v-15.67c0-1.3-.65-1.59-1.52-1.59h-14.37c-.94,0-1.52.29-1.52,1.59v15.67c0,4.84,3.25,3.32,3.25,5.85,0,.65-.51,1.3-1.52,1.3-1.08,0-2.6-.22-4.91-.22s-3.76.22-4.91.22c-1.01,0-1.44-.65-1.44-1.3,0-2.53,3.18-1.01,3.18-5.85v-37.26c0-4.84-3.18-3.25-3.18-5.7,0-.8.51-1.45,1.52-1.45,1.23,0,2.6.22,4.84.22s3.83-.22,4.91-.22c.94,0,1.52.65,1.52,1.37,0,2.53-3.25.94-3.25,5.78v14.8c0,1.37.58,1.59,1.52,1.59h14.37c.87,0,1.52-.21,1.52-1.59v-14.8c0-4.84-3.25-3.25-3.25-5.78,0-.65.51-1.37,1.44-1.37,1.23,0,2.67.22,4.91.22s3.83-.22,4.98-.22c.94,0,1.44.65,1.44,1.37,0,2.53-3.18.94-3.18,5.78v37.26c0,4.84,3.18,3.32,3.18,5.85Z"/>
    <path class="cls-1" d="M451.03,317.2c0,.87-.65,1.45-1.59,1.45-.79,0-2.09-.22-4.41-.22s-4.33.22-5.78.22c-1.01,0-1.73-.51-1.73-1.52,0-1.81,3.25-1.59,3.25-3.97,0-.87-.14-1.3-.29-1.95l-2.31-9.67c-.36-1.3-.79-1.52-1.59-1.52h-10.25c-.79,0-1.3.14-1.66,1.52l-2.31,9.53c-.22.65-.36,1.37-.36,2.02,0,2.46,3.32,2.31,3.32,4.05,0,1.01-.72,1.52-1.81,1.52-1.37,0-3.03-.22-4.55-.22-1.66,0-2.74.22-3.83.22-.65,0-1.23-.43-1.23-1.3,0-2.17,2.67-1.15,3.9-5.85l7.58-29.46c.79-3.32,1.81-6.79,2.89-11.7.51-2.6.87-3.47,4.41-3.47s3.68.94,4.26,3.39c1.08,4.91,2.09,8.67,2.89,11.77l7.44,29.24c1.16,4.77,3.75,3.75,3.75,5.92ZM436.52,295.11l-5.05-20.43-5.13,20.58c-.22.94.07,1.08.94,1.08h8.3c.87,0,1.23-.14.94-1.23Z"/>
    <path class="cls-1" d="M453.95,304.93c0-.87.07-2.67.15-3.97l1.23-24.26c.07-1.01.15-2.24.15-3.03,0-2.31-1.01-2.89-1.95-3.4-.65-.36-1.23-.79-1.23-1.8,0-.72.51-1.37,1.44-1.37,1.15,0,2.67.22,4.98.22s3.97-.22,5.27-.22c.94,0,1.37.72,1.37,1.37,0,1.15-.58,1.52-1.3,1.95-1.01.51-2.09,1.01-2.24,3.82l-1.23,26.65c-.07,1.23-.15,2.67-.15,3.75,0,7.29,3.25,10.32,8.74,10.32s9.03-2.81,9.03-10.25c0-.79-.15-3.03-.22-4.33l-1.37-26.14c-.14-2.67-1.37-3.18-2.38-3.75-.87-.43-1.66-.72-1.66-2.02,0-.65.65-1.37,1.66-1.37,1.23,0,2.96.22,4.19.22,1.16,0,2.89-.22,4.19-.22.94,0,1.37.65,1.37,1.37,0,1.01-.58,1.44-1.23,1.8-1.01.58-2.09,1.08-2.09,3.4,0,.79.07,2.02.14,3.03l1.37,24.33c.07,1.3.15,3.32.15,4.12,0,10.25-6.28,14.58-14.15,14.58s-14.22-4.33-14.22-14.8Z"/>
    <path class="cls-1" d="M491.17,317.13l-1.73-6.14c-1.3-4.55-1.52-5.56-1.52-6.28,0-.87.51-1.52,1.3-1.52.87,0,1.3.65,2.02,1.95,3.39,5.92,7.29,10.4,11.99,10.4,4.19,0,7.22-2.96,7.22-8.52,0-6.65-4.84-9.96-10.18-13.65-6.28-4.19-11.55-8.66-11.55-15.38s5.05-11.7,10.54-11.7c3.68,0,5.42,1.44,6.35,1.44.79,0,.94-1.66,2.24-1.66,1.23,0,1.66.94,2.24,2.67l1.73,4.33c1.37,3.39,1.88,4.84,1.88,5.78s-.65,1.37-1.37,1.37c-.65,0-1.01-.22-1.59-1.15-2.96-4.77-6.5-8.74-10.61-8.74-3.47,0-5.27,2.82-5.27,5.92,0,3.75,2.96,6.86,8.23,10.33,5.42,3.61,13.29,8.59,13.29,18.63,0,8.16-5.2,14.22-12.56,14.22-4.12,0-6.64-1.95-7.73-1.95-1.15,0-1.23,2.24-2.82,2.24-1.08,0-1.66-1.08-2.09-2.6Z"/>
  </g>
</svg>